<svg width="100" height="18" viewBox="0 0 100 18" fill="none" xmlns="http://www.w3.org/2000/svg">
<path d="M88.0602 0.00735476C87.886 0.00730898 87.7189 0.0741886 87.5957 0.193295C87.4724 0.312402 87.4031 0.47399 87.4029 0.642546V5.09371H99.5551L94.021 0.00873336L88.0602 0.00735476ZM100 6.44026C100 6.35685 99.9834 6.27424 99.9504 6.19718C99.9174 6.12012 99.869 6.05013 99.808 5.99121C99.747 5.93229 99.6745 5.88561 99.5948 5.85384C99.5151 5.82208 99.4297 5.80586 99.3435 5.80611H94.7444V17.5659L99.9981 12.209L100 6.44026ZM93.3508 17.9928C93.5247 17.9923 93.6912 17.9252 93.814 17.806C93.9368 17.6869 94.0057 17.5255 94.0057 17.3573V12.9066H81.8541L87.3872 17.9916L93.3508 17.9928ZM81.4102 11.5606C81.4101 11.644 81.4271 11.7266 81.4601 11.8037C81.493 11.8808 81.5414 11.9509 81.6023 12.0099C81.6633 12.0689 81.7356 12.1157 81.8153 12.1477C81.8949 12.1796 81.9803 12.1961 82.0665 12.1961H86.6661V0.435411L81.4109 5.79094L81.4102 11.5606Z" fill="#0659A5"/>
<path d="M25.7095 2.15329V7.58396H17.8905V2.15329L15.0437 2.15226V15.8454H17.8905V9.96274H25.7095V15.8454H28.5615V2.15329H25.7095ZM63.5928 2.15329V15.843L76.0869 15.8423L74.5037 13.4332H66.4496V9.96274H74.2485V7.64117H66.4496V4.50691H74.4905L76.0417 2.15329H63.5928ZM4.4594 2.15157C1.4965 2.15157 0 3.89309 0 6.4292V11.5412C0 14.4753 1.92743 15.8458 4.44409 15.8458L13.3768 15.844L11.722 13.3417H4.99539C3.56709 13.3417 2.94492 12.8421 2.94492 11.2943V6.65702C2.94492 5.16054 3.46827 4.5767 5.0335 4.5767H11.7921L13.3819 2.15174L4.4594 2.15157ZM51.0966 2.1476C49.3848 2.1476 47.633 3.14209 47.633 5.70182V6.35941C47.633 9.02615 49.3204 10.0453 51.0072 10.0527H56.9325C57.5477 10.0527 58.0479 10.1513 58.0479 11.1583L58.0472 12.3222C58.0319 13.2245 57.5645 13.4332 56.9113 13.4332H49.117L47.5202 15.8421H57.0936C59.4036 15.8421 60.9707 14.7312 60.9707 12.1625V11.2188C60.9707 8.73595 59.5149 7.56431 57.2564 7.56431H51.5991C50.9714 7.56431 50.535 7.39767 50.535 6.49865L50.5343 5.55224C50.5343 4.7866 50.8348 4.50691 51.5655 4.50691L58.9879 4.50416L60.5398 2.14502L51.0966 2.1476ZM36.8361 2.15536L30.1266 15.844H33.2982L34.6048 13.017H41.8952L43.1978 15.844H46.382L39.6572 2.15519L36.8361 2.15536ZM38.2421 4.99666L40.8204 10.687H35.68L38.2421 4.99666Z" fill="#010101"/>
</svg>
