<svg width="367" height="60" viewBox="0 0 367 60" fill="none" xmlns="http://www.w3.org/2000/svg">
<path opacity="0.4" d="M291.335 56V47.456H292.439V55.064H296.663V56H291.335ZM297.789 56V49.964H298.881V56H297.789ZM297.693 47.36H298.977V48.548H297.693V47.36ZM300.707 56V51.656C300.707 51.376 300.699 51.096 300.683 50.816C300.675 50.528 300.651 50.244 300.611 49.964H301.643L301.751 51.2L301.631 51.272C301.807 50.8 302.087 50.44 302.471 50.192C302.863 49.936 303.311 49.808 303.815 49.808C305.263 49.808 305.987 50.612 305.987 52.22V56H304.895V52.28C304.895 51.736 304.787 51.34 304.571 51.092C304.363 50.836 304.027 50.708 303.563 50.708C303.027 50.708 302.599 50.876 302.279 51.212C301.959 51.54 301.799 51.984 301.799 52.544V56H300.707ZM311.853 56L308.649 52.916L311.625 49.976H312.993L309.681 53.204L309.729 52.568L313.257 56H311.853ZM307.773 56V47.168H308.865V56H307.773ZM319.535 56.084C319.007 56.084 318.539 55.96 318.131 55.712C317.731 55.456 317.419 55.096 317.195 54.632C316.971 54.16 316.859 53.608 316.859 52.976C316.859 52.344 316.971 51.792 317.195 51.32C317.427 50.848 317.743 50.48 318.143 50.216C318.551 49.944 319.015 49.808 319.535 49.808C320.079 49.808 320.543 49.944 320.927 50.216C321.311 50.48 321.571 50.86 321.707 51.356L321.563 51.44V49.964H322.643V56H321.563V54.488L321.707 54.548C321.571 55.036 321.311 55.416 320.927 55.688C320.543 55.952 320.079 56.084 319.535 56.084ZM319.775 55.196C320.351 55.196 320.791 55.004 321.095 54.62C321.407 54.228 321.563 53.672 321.563 52.952C321.563 52.232 321.407 51.68 321.095 51.296C320.783 50.904 320.343 50.708 319.775 50.708C319.207 50.708 318.763 50.908 318.443 51.308C318.123 51.708 317.963 52.264 317.963 52.976C317.963 53.688 318.123 54.236 318.443 54.62C318.763 55.004 319.207 55.196 319.775 55.196ZM327.041 56.084C326.433 56.084 325.909 55.956 325.469 55.7C325.037 55.444 324.701 55.084 324.461 54.62C324.221 54.156 324.101 53.608 324.101 52.976C324.101 52.352 324.221 51.8 324.461 51.32C324.709 50.84 325.057 50.468 325.505 50.204C325.953 49.94 326.481 49.808 327.089 49.808C327.505 49.808 327.905 49.88 328.289 50.024C328.673 50.16 328.989 50.352 329.237 50.6L328.889 51.392C328.601 51.168 328.313 51 328.025 50.888C327.745 50.768 327.453 50.708 327.149 50.708C326.565 50.708 326.097 50.904 325.745 51.296C325.401 51.688 325.229 52.248 325.229 52.976C325.229 53.688 325.401 54.236 325.745 54.62C326.089 55.004 326.561 55.196 327.161 55.196C327.449 55.196 327.737 55.14 328.025 55.028C328.313 54.916 328.601 54.744 328.889 54.512L329.237 55.304C328.981 55.544 328.657 55.736 328.265 55.88C327.873 56.016 327.465 56.084 327.041 56.084ZM333.006 56.084C332.398 56.084 331.874 55.956 331.434 55.7C331.002 55.444 330.666 55.084 330.426 54.62C330.186 54.156 330.066 53.608 330.066 52.976C330.066 52.352 330.186 51.8 330.426 51.32C330.674 50.84 331.022 50.468 331.47 50.204C331.918 49.94 332.446 49.808 333.054 49.808C333.47 49.808 333.87 49.88 334.254 50.024C334.638 50.16 334.954 50.352 335.202 50.6L334.854 51.392C334.566 51.168 334.278 51 333.99 50.888C333.71 50.768 333.418 50.708 333.114 50.708C332.53 50.708 332.062 50.904 331.71 51.296C331.366 51.688 331.194 52.248 331.194 52.976C331.194 53.688 331.366 54.236 331.71 54.62C332.054 55.004 332.526 55.196 333.126 55.196C333.414 55.196 333.702 55.14 333.99 55.028C334.278 54.916 334.566 54.744 334.854 54.512L335.202 55.304C334.946 55.544 334.622 55.736 334.23 55.88C333.838 56.016 333.43 56.084 333.006 56.084ZM338.935 56.084C338.351 56.084 337.839 55.956 337.399 55.7C336.967 55.444 336.631 55.084 336.391 54.62C336.151 54.148 336.031 53.592 336.031 52.952C336.031 52.32 336.151 51.768 336.391 51.296C336.631 50.816 336.967 50.448 337.399 50.192C337.839 49.936 338.351 49.808 338.935 49.808C339.527 49.808 340.039 49.936 340.471 50.192C340.903 50.448 341.239 50.816 341.479 51.296C341.719 51.768 341.839 52.32 341.839 52.952C341.839 53.592 341.719 54.148 341.479 54.62C341.239 55.084 340.903 55.444 340.471 55.7C340.039 55.956 339.527 56.084 338.935 56.084ZM338.935 55.196C339.511 55.196 339.955 55.008 340.267 54.632C340.579 54.248 340.735 53.688 340.735 52.952C340.735 52.224 340.575 51.668 340.255 51.284C339.943 50.9 339.503 50.708 338.935 50.708C338.375 50.708 337.935 50.9 337.615 51.284C337.295 51.668 337.135 52.224 337.135 52.952C337.135 53.688 337.291 54.248 337.603 54.632C337.915 55.008 338.359 55.196 338.935 55.196ZM345.464 56.084C344.736 56.084 344.188 55.884 343.82 55.484C343.46 55.076 343.28 54.476 343.28 53.684V49.964H344.372V53.672C344.372 54.192 344.476 54.576 344.684 54.824C344.9 55.064 345.228 55.184 345.668 55.184C346.18 55.184 346.592 55.02 346.904 54.692C347.216 54.356 347.372 53.912 347.372 53.36V49.964H348.476V56H347.408V54.704L347.552 54.644C347.392 55.116 347.124 55.476 346.748 55.724C346.372 55.964 345.944 56.084 345.464 56.084ZM350.289 56V51.656C350.289 51.376 350.281 51.096 350.265 50.816C350.257 50.528 350.233 50.244 350.193 49.964H351.225L351.333 51.2L351.213 51.272C351.389 50.8 351.669 50.44 352.053 50.192C352.445 49.936 352.893 49.808 353.397 49.808C354.845 49.808 355.569 50.612 355.569 52.22V56H354.477V52.28C354.477 51.736 354.369 51.34 354.153 51.092C353.945 50.836 353.609 50.708 353.145 50.708C352.609 50.708 352.181 50.876 351.861 51.212C351.541 51.54 351.381 51.984 351.381 52.544V56H350.289ZM356.527 50.804V49.964H360.487V50.804H356.527ZM360.463 55.052V55.964C360.327 56.004 360.187 56.032 360.043 56.048C359.907 56.072 359.759 56.084 359.599 56.084C359.007 56.084 358.539 55.916 358.195 55.58C357.859 55.244 357.691 54.748 357.691 54.092V48.428L358.783 48.044V53.972C358.783 54.284 358.827 54.528 358.915 54.704C359.011 54.872 359.135 54.992 359.287 55.064C359.447 55.128 359.627 55.16 359.827 55.16C359.939 55.16 360.043 55.152 360.139 55.136C360.235 55.12 360.343 55.092 360.463 55.052ZM363.72 56.084C362.688 56.084 361.868 55.824 361.26 55.304L361.608 54.512C361.928 54.76 362.26 54.944 362.604 55.064C362.956 55.176 363.34 55.232 363.756 55.232C364.188 55.232 364.516 55.16 364.74 55.016C364.972 54.864 365.088 54.648 365.088 54.368C365.088 54.144 365.008 53.968 364.848 53.84C364.696 53.704 364.44 53.592 364.08 53.504L363.072 53.264C362.552 53.152 362.152 52.952 361.872 52.664C361.6 52.376 361.464 52.028 361.464 51.62C361.464 51.268 361.56 50.956 361.752 50.684C361.952 50.412 362.228 50.2 362.58 50.048C362.932 49.888 363.348 49.808 363.828 49.808C364.252 49.808 364.652 49.876 365.028 50.012C365.412 50.148 365.736 50.344 366 50.6L365.652 51.38C365.364 51.14 365.068 50.964 364.764 50.852C364.46 50.732 364.144 50.672 363.816 50.672C363.408 50.672 363.088 50.752 362.856 50.912C362.632 51.072 362.52 51.288 362.52 51.56C362.52 51.792 362.592 51.976 362.736 52.112C362.88 52.248 363.108 52.356 363.42 52.436L364.44 52.688C365.016 52.808 365.44 53.008 365.712 53.288C365.984 53.56 366.12 53.912 366.12 54.344C366.12 54.872 365.904 55.296 365.472 55.616C365.04 55.928 364.456 56.084 363.72 56.084Z" fill="#969EAC"/>
<path d="M139.826 56.096C139.002 56.096 138.29 55.92 137.69 55.568C137.09 55.216 136.626 54.712 136.298 54.056C135.978 53.4 135.818 52.62 135.818 51.716C135.818 50.812 135.978 50.036 136.298 49.388C136.626 48.74 137.09 48.24 137.69 47.888C138.29 47.536 139.002 47.36 139.826 47.36C140.402 47.36 140.938 47.452 141.434 47.636C141.938 47.812 142.37 48.076 142.73 48.428L142.322 49.268C141.922 48.924 141.522 48.68 141.122 48.536C140.73 48.384 140.302 48.308 139.838 48.308C138.926 48.308 138.218 48.604 137.714 49.196C137.218 49.78 136.97 50.62 136.97 51.716C136.97 52.82 137.218 53.668 137.714 54.26C138.21 54.852 138.918 55.148 139.838 55.148C140.302 55.148 140.73 55.076 141.122 54.932C141.522 54.78 141.922 54.532 142.322 54.188L142.73 55.028C142.37 55.38 141.938 55.648 141.434 55.832C140.938 56.008 140.402 56.096 139.826 56.096ZM146.64 56.084C146.056 56.084 145.544 55.956 145.104 55.7C144.672 55.444 144.336 55.084 144.096 54.62C143.856 54.148 143.736 53.592 143.736 52.952C143.736 52.32 143.856 51.768 144.096 51.296C144.336 50.816 144.672 50.448 145.104 50.192C145.544 49.936 146.056 49.808 146.64 49.808C147.232 49.808 147.744 49.936 148.176 50.192C148.608 50.448 148.944 50.816 149.184 51.296C149.424 51.768 149.544 52.32 149.544 52.952C149.544 53.592 149.424 54.148 149.184 54.62C148.944 55.084 148.608 55.444 148.176 55.7C147.744 55.956 147.232 56.084 146.64 56.084ZM146.64 55.196C147.216 55.196 147.66 55.008 147.972 54.632C148.284 54.248 148.44 53.688 148.44 52.952C148.44 52.224 148.28 51.668 147.96 51.284C147.648 50.9 147.208 50.708 146.64 50.708C146.08 50.708 145.64 50.9 145.32 51.284C145 51.668 144.84 52.224 144.84 52.952C144.84 53.688 144.996 54.248 145.308 54.632C145.62 55.008 146.064 55.196 146.64 55.196ZM151.021 56V51.656C151.021 51.376 151.013 51.096 150.997 50.816C150.989 50.528 150.965 50.244 150.925 49.964H151.957L152.065 51.2L151.945 51.272C152.121 50.8 152.401 50.44 152.785 50.192C153.177 49.936 153.625 49.808 154.129 49.808C155.577 49.808 156.301 50.612 156.301 52.22V56H155.209V52.28C155.209 51.736 155.101 51.34 154.885 51.092C154.677 50.836 154.341 50.708 153.877 50.708C153.341 50.708 152.913 50.876 152.593 51.212C152.273 51.54 152.113 51.984 152.113 52.544V56H151.021ZM158.088 56V51.656C158.088 51.376 158.08 51.096 158.064 50.816C158.056 50.528 158.032 50.244 157.992 49.964H159.024L159.132 51.2L159.012 51.272C159.188 50.8 159.468 50.44 159.852 50.192C160.244 49.936 160.692 49.808 161.196 49.808C162.644 49.808 163.368 50.612 163.368 52.22V56H162.276V52.28C162.276 51.736 162.168 51.34 161.952 51.092C161.744 50.836 161.408 50.708 160.944 50.708C160.408 50.708 159.98 50.876 159.66 51.212C159.34 51.54 159.18 51.984 159.18 52.544V56H158.088ZM170.146 55.292C169.882 55.54 169.542 55.736 169.126 55.88C168.71 56.016 168.286 56.084 167.854 56.084C167.222 56.084 166.678 55.96 166.222 55.712C165.766 55.464 165.414 55.108 165.166 54.644C164.918 54.172 164.794 53.612 164.794 52.964C164.794 52.34 164.914 51.792 165.154 51.32C165.402 50.848 165.742 50.48 166.174 50.216C166.606 49.944 167.102 49.808 167.662 49.808C168.206 49.808 168.67 49.928 169.054 50.168C169.446 50.408 169.742 50.752 169.942 51.2C170.15 51.64 170.254 52.168 170.254 52.784V52.976H165.754V52.304H169.63L169.294 52.736C169.31 52.056 169.178 51.536 168.898 51.176C168.618 50.816 168.21 50.636 167.674 50.636C167.114 50.636 166.674 50.836 166.354 51.236C166.042 51.628 165.886 52.18 165.886 52.892C165.886 53.66 166.054 54.24 166.39 54.632C166.726 55.016 167.222 55.208 167.878 55.208C168.23 55.208 168.566 55.152 168.886 55.04C169.206 54.92 169.51 54.744 169.798 54.512L170.146 55.292ZM174.273 56.084C173.665 56.084 173.141 55.956 172.701 55.7C172.269 55.444 171.933 55.084 171.693 54.62C171.453 54.156 171.333 53.608 171.333 52.976C171.333 52.352 171.453 51.8 171.693 51.32C171.941 50.84 172.289 50.468 172.737 50.204C173.185 49.94 173.713 49.808 174.321 49.808C174.737 49.808 175.137 49.88 175.521 50.024C175.905 50.16 176.221 50.352 176.469 50.6L176.121 51.392C175.833 51.168 175.545 51 175.257 50.888C174.977 50.768 174.685 50.708 174.381 50.708C173.797 50.708 173.329 50.904 172.977 51.296C172.633 51.688 172.461 52.248 172.461 52.976C172.461 53.688 172.633 54.236 172.977 54.62C173.321 55.004 173.793 55.196 174.393 55.196C174.681 55.196 174.969 55.14 175.257 55.028C175.545 54.916 175.833 54.744 176.121 54.512L176.469 55.304C176.213 55.544 175.889 55.736 175.497 55.88C175.105 56.016 174.697 56.084 174.273 56.084ZM176.842 50.804V49.964H180.802V50.804H176.842ZM180.778 55.052V55.964C180.642 56.004 180.502 56.032 180.358 56.048C180.222 56.072 180.074 56.084 179.914 56.084C179.322 56.084 178.854 55.916 178.51 55.58C178.174 55.244 178.006 54.748 178.006 54.092V48.428L179.098 48.044V53.972C179.098 54.284 179.142 54.528 179.23 54.704C179.326 54.872 179.45 54.992 179.602 55.064C179.762 55.128 179.942 55.16 180.142 55.16C180.254 55.16 180.358 55.152 180.454 55.136C180.55 55.12 180.658 55.092 180.778 55.052ZM185.123 56V47.168H186.215V51.488L186.071 51.344C186.207 50.864 186.467 50.488 186.851 50.216C187.235 49.944 187.695 49.808 188.231 49.808C188.767 49.808 189.235 49.936 189.635 50.192C190.035 50.448 190.347 50.812 190.571 51.284C190.803 51.748 190.919 52.296 190.919 52.928C190.919 53.56 190.803 54.116 190.571 54.596C190.347 55.068 190.031 55.436 189.623 55.7C189.223 55.956 188.759 56.084 188.231 56.084C187.695 56.084 187.235 55.952 186.851 55.688C186.467 55.416 186.207 55.036 186.071 54.548L186.203 54.404V56H185.123ZM188.003 55.196C188.571 55.196 189.011 55 189.323 54.608C189.635 54.208 189.791 53.648 189.791 52.928C189.791 52.224 189.635 51.68 189.323 51.296C189.011 50.904 188.571 50.708 188.003 50.708C187.427 50.708 186.983 50.904 186.671 51.296C186.359 51.688 186.203 52.24 186.203 52.952C186.203 53.672 186.359 54.228 186.671 54.62C186.983 55.004 187.427 55.196 188.003 55.196ZM194.681 56.084C194.153 56.084 193.685 55.96 193.277 55.712C192.877 55.456 192.565 55.096 192.341 54.632C192.117 54.16 192.005 53.608 192.005 52.976C192.005 52.344 192.117 51.792 192.341 51.32C192.573 50.848 192.889 50.48 193.289 50.216C193.697 49.944 194.161 49.808 194.681 49.808C195.225 49.808 195.689 49.944 196.073 50.216C196.457 50.48 196.717 50.86 196.853 51.356L196.709 51.44V49.964H197.789V56H196.709V54.488L196.853 54.548C196.717 55.036 196.457 55.416 196.073 55.688C195.689 55.952 195.225 56.084 194.681 56.084ZM194.921 55.196C195.497 55.196 195.937 55.004 196.241 54.62C196.553 54.228 196.709 53.672 196.709 52.952C196.709 52.232 196.553 51.68 196.241 51.296C195.929 50.904 195.489 50.708 194.921 50.708C194.353 50.708 193.909 50.908 193.589 51.308C193.269 51.708 193.109 52.264 193.109 52.976C193.109 53.688 193.269 54.236 193.589 54.62C193.909 55.004 194.353 55.196 194.921 55.196ZM199.607 56V51.656C199.607 51.376 199.599 51.096 199.583 50.816C199.575 50.528 199.551 50.244 199.511 49.964H200.543L200.651 51.2L200.531 51.272C200.707 50.8 200.987 50.44 201.371 50.192C201.763 49.936 202.211 49.808 202.715 49.808C204.163 49.808 204.887 50.612 204.887 52.22V56H203.795V52.28C203.795 51.736 203.687 51.34 203.471 51.092C203.263 50.836 202.927 50.708 202.463 50.708C201.927 50.708 201.499 50.876 201.179 51.212C200.859 51.54 200.699 51.984 200.699 52.544V56H199.607ZM210.754 56L207.55 52.916L210.526 49.976H211.894L208.582 53.204L208.63 52.568L212.158 56H210.754ZM206.674 56V47.168H207.766V56H206.674ZM214.926 56.084C213.894 56.084 213.074 55.824 212.466 55.304L212.814 54.512C213.134 54.76 213.466 54.944 213.81 55.064C214.162 55.176 214.546 55.232 214.962 55.232C215.394 55.232 215.722 55.16 215.946 55.016C216.178 54.864 216.294 54.648 216.294 54.368C216.294 54.144 216.214 53.968 216.054 53.84C215.902 53.704 215.646 53.592 215.286 53.504L214.278 53.264C213.758 53.152 213.358 52.952 213.078 52.664C212.806 52.376 212.67 52.028 212.67 51.62C212.67 51.268 212.766 50.956 212.958 50.684C213.158 50.412 213.434 50.2 213.786 50.048C214.138 49.888 214.554 49.808 215.034 49.808C215.458 49.808 215.858 49.876 216.234 50.012C216.618 50.148 216.942 50.344 217.206 50.6L216.858 51.38C216.57 51.14 216.274 50.964 215.97 50.852C215.666 50.732 215.35 50.672 215.021 50.672C214.614 50.672 214.294 50.752 214.062 50.912C213.838 51.072 213.726 51.288 213.726 51.56C213.726 51.792 213.798 51.976 213.942 52.112C214.086 52.248 214.314 52.356 214.626 52.436L215.646 52.688C216.222 52.808 216.646 53.008 216.918 53.288C217.19 53.56 217.326 53.912 217.326 54.344C217.326 54.872 217.11 55.296 216.678 55.616C216.246 55.928 215.662 56.084 214.926 56.084Z" fill="#534CEA"/>
<path d="M7.18039 56.096C6.74039 56.096 6.32439 56.06 5.93239 55.988C5.54839 55.908 5.18839 55.788 4.85239 55.628C4.52439 55.468 4.22839 55.268 3.96439 55.028L4.37239 54.188C4.79639 54.54 5.22839 54.792 5.66839 54.944C6.10839 55.096 6.61639 55.172 7.19239 55.172C7.85639 55.172 8.36839 55.044 8.72839 54.788C9.08839 54.532 9.26839 54.172 9.26839 53.708C9.26839 53.428 9.18039 53.204 9.00439 53.036C8.82839 52.86 8.58039 52.72 8.26039 52.616C7.94839 52.504 7.58839 52.4 7.18039 52.304C6.74839 52.216 6.34439 52.112 5.96839 51.992C5.60039 51.872 5.27639 51.724 4.99639 51.548C4.71639 51.364 4.50039 51.136 4.34839 50.864C4.19639 50.592 4.12039 50.256 4.12039 49.856C4.12039 49.368 4.24839 48.936 4.50439 48.56C4.76839 48.184 5.13639 47.892 5.60839 47.684C6.08039 47.468 6.63639 47.36 7.27639 47.36C7.66839 47.36 8.04439 47.404 8.40439 47.492C8.77239 47.572 9.11239 47.692 9.42439 47.852C9.73639 48.004 10.0084 48.196 10.2404 48.428L9.83239 49.268C9.44039 48.932 9.03639 48.684 8.62039 48.524C8.20439 48.364 7.75639 48.284 7.27639 48.284C6.63639 48.284 6.13239 48.42 5.76439 48.692C5.40439 48.956 5.22439 49.328 5.22439 49.808C5.22439 50.104 5.30439 50.344 5.46439 50.528C5.62439 50.712 5.85239 50.86 6.14839 50.972C6.44439 51.084 6.79639 51.188 7.20439 51.284C7.63639 51.38 8.04439 51.488 8.42839 51.608C8.81239 51.728 9.14839 51.872 9.43639 52.04C9.73239 52.208 9.96439 52.424 10.1324 52.688C10.3004 52.944 10.3844 53.268 10.3844 53.66C10.3844 54.156 10.2564 54.588 10.0004 54.956C9.74439 55.316 9.37639 55.596 8.89639 55.796C8.41639 55.996 7.84439 56.096 7.18039 56.096ZM11.8475 56V49.964H12.9395V56H11.8475ZM11.7515 47.36H13.0355V48.548H11.7515V47.36ZM17.4415 58.676C16.5215 58.676 15.7215 58.472 15.0415 58.064L15.2335 57.188C15.6095 57.404 15.9655 57.56 16.3015 57.656C16.6455 57.752 17.0255 57.8 17.4415 57.8C18.0095 57.8 18.4375 57.648 18.7255 57.344C19.0215 57.048 19.1695 56.604 19.1695 56.012V54.404L19.3015 54.284C19.2055 54.596 19.0535 54.868 18.8455 55.1C18.6455 55.324 18.3975 55.5 18.1015 55.628C17.8135 55.756 17.4815 55.82 17.1055 55.82C16.5775 55.82 16.1095 55.696 15.7015 55.448C15.2935 55.192 14.9735 54.84 14.7415 54.392C14.5175 53.944 14.4055 53.42 14.4055 52.82C14.4055 52.22 14.5175 51.696 14.7415 51.248C14.9735 50.792 15.2935 50.44 15.7015 50.192C16.1095 49.936 16.5775 49.808 17.1055 49.808C17.6575 49.808 18.1255 49.944 18.5095 50.216C18.9015 50.488 19.1655 50.864 19.3015 51.344L19.1575 51.248V49.964H20.2495V55.916C20.2495 56.836 20.0095 57.524 19.5295 57.98C19.0575 58.444 18.3615 58.676 17.4415 58.676ZM17.3455 54.92C17.9135 54.92 18.3575 54.736 18.6775 54.368C18.9975 53.992 19.1575 53.476 19.1575 52.82C19.1575 52.164 18.9975 51.648 18.6775 51.272C18.3575 50.896 17.9135 50.708 17.3455 50.708C16.7775 50.708 16.3295 50.896 16.0015 51.272C15.6735 51.648 15.5095 52.164 15.5095 52.82C15.5095 53.484 15.6735 54 16.0015 54.368C16.3295 54.736 16.7775 54.92 17.3455 54.92ZM22.0663 56V51.656C22.0663 51.376 22.0583 51.096 22.0423 50.816C22.0343 50.528 22.0103 50.244 21.9703 49.964H23.0023L23.1103 51.2L22.9903 51.272C23.1663 50.8 23.4463 50.44 23.8303 50.192C24.2223 49.936 24.6703 49.808 25.1743 49.808C26.6223 49.808 27.3463 50.612 27.3463 52.22V56H26.2543V52.28C26.2543 51.736 26.1463 51.34 25.9303 51.092C25.7223 50.836 25.3863 50.708 24.9223 50.708C24.3863 50.708 23.9583 50.876 23.6383 51.212C23.3183 51.54 23.1583 51.984 23.1583 52.544V56H22.0663ZM34.4448 56.084C33.7168 56.084 33.1688 55.884 32.8008 55.484C32.4408 55.076 32.2608 54.476 32.2608 53.684V49.964H33.3528V53.672C33.3528 54.192 33.4568 54.576 33.6648 54.824C33.8808 55.064 34.2088 55.184 34.6488 55.184C35.1608 55.184 35.5728 55.02 35.8848 54.692C36.1968 54.356 36.3528 53.912 36.3528 53.36V49.964H37.4568V56H36.3888V54.704L36.5328 54.644C36.3728 55.116 36.1048 55.476 35.7288 55.724C35.3528 55.964 34.9248 56.084 34.4448 56.084ZM39.2694 58.592V51.656C39.2694 51.376 39.2614 51.096 39.2454 50.816C39.2374 50.528 39.2134 50.244 39.1734 49.964H40.2054L40.3134 51.2L40.2174 51.356C40.3534 50.86 40.6134 50.48 40.9974 50.216C41.3814 49.944 41.8414 49.808 42.3774 49.808C42.9054 49.808 43.3694 49.944 43.7694 50.216C44.1774 50.48 44.4934 50.848 44.7174 51.32C44.9494 51.792 45.0654 52.344 45.0654 52.976C45.0654 53.608 44.9494 54.16 44.7174 54.632C44.4934 55.096 44.1814 55.456 43.7814 55.712C43.3814 55.96 42.9134 56.084 42.3774 56.084C41.8414 56.084 41.3814 55.952 40.9974 55.688C40.6134 55.416 40.3534 55.036 40.2174 54.548L40.3614 54.416V58.592H39.2694ZM42.1494 55.196C42.7174 55.196 43.1574 55.004 43.4694 54.62C43.7814 54.236 43.9374 53.688 43.9374 52.976C43.9374 52.264 43.7814 51.708 43.4694 51.308C43.1574 50.908 42.7174 50.708 42.1494 50.708C41.5734 50.708 41.1294 50.904 40.8174 51.296C40.5054 51.68 40.3494 52.232 40.3494 52.952C40.3494 53.672 40.5054 54.228 40.8174 54.62C41.1294 55.004 41.5734 55.196 42.1494 55.196Z" fill="#534CEA"/>
<path opacity="0.4" d="M191 22L313 22" stroke="#969EAC" stroke-width="1.5"/>
<path d="M39 22L161 22" stroke="#534CEA" stroke-width="1.5"/>
<circle opacity="0.4" cx="328" cy="22" r="15.25" stroke="#969EAC" stroke-width="1.5"/>
<g filter="url(#filter0_d)">
<circle cx="176" cy="22" r="16" fill="white"/>
</g>
<g filter="url(#filter1_d)">
<circle cx="24" cy="22" r="16" fill="#534CEA"/>
</g>
<rect x="14" y="12" width="20" height="20" rx="10" fill="#534CEA"/>
<path d="M19 22L22.5 25.5L29 18.5" stroke="white" stroke-width="1.5" stroke-linecap="round" stroke-linejoin="round"/>
<circle cx="176" cy="22" r="6" fill="#534CEA"/>
<defs>
<filter id="filter0_d" x="152" y="0" width="48" height="48" filterUnits="userSpaceOnUse" color-interpolation-filters="sRGB">
<feFlood flood-opacity="0" result="BackgroundImageFix"/>
<feColorMatrix in="SourceAlpha" type="matrix" values="0 0 0 0 0 0 0 0 0 0 0 0 0 0 0 0 0 0 127 0"/>
<feOffset dy="2"/>
<feGaussianBlur stdDeviation="4"/>
<feColorMatrix type="matrix" values="0 0 0 0 0.888 0 0 0 0 0.911467 0 0 0 0 0.952 0 0 0 1 0"/>
<feBlend mode="normal" in2="BackgroundImageFix" result="effect1_dropShadow"/>
<feBlend mode="normal" in="SourceGraphic" in2="effect1_dropShadow" result="shape"/>
</filter>
<filter id="filter1_d" x="0" y="0" width="48" height="48" filterUnits="userSpaceOnUse" color-interpolation-filters="sRGB">
<feFlood flood-opacity="0" result="BackgroundImageFix"/>
<feColorMatrix in="SourceAlpha" type="matrix" values="0 0 0 0 0 0 0 0 0 0 0 0 0 0 0 0 0 0 127 0"/>
<feOffset dy="2"/>
<feGaussianBlur stdDeviation="4"/>
<feColorMatrix type="matrix" values="0 0 0 0 0.888 0 0 0 0 0.911467 0 0 0 0 0.952 0 0 0 1 0"/>
<feBlend mode="normal" in2="BackgroundImageFix" result="effect1_dropShadow"/>
<feBlend mode="normal" in="SourceGraphic" in2="effect1_dropShadow" result="shape"/>
</filter>
</defs>
</svg>





