<svg width="110" height="33" viewBox="0 0 110 33" fill="none" xmlns="http://www.w3.org/2000/svg">
<path d="M41 1.21825H43.3876L47.2699 7.23825L51.1521 1.21825H53.5397V13.9494H51.2979V4.81934L47.2699 10.8212H47.1969L43.2054 4.85571V13.9494H41V1.21825Z" fill="#534CEA"/>
<path d="M62.911 14.1676C61.9268 14.1676 61.0276 13.9979 60.2135 13.6584C59.3994 13.3068 58.7007 12.8339 58.1175 12.2398C57.5343 11.6457 57.0786 10.9545 56.7505 10.1664C56.4225 9.36617 56.2584 8.51743 56.2584 7.62019V7.58381C56.2584 6.68657 56.4225 5.84389 56.7505 5.05577C57.0786 4.25553 57.5403 3.55835 58.1357 2.96423C58.7311 2.35799 59.4359 1.87905 60.25 1.52743C61.0641 1.17581 61.9633 1 62.9475 1C63.9317 1 64.8309 1.17581 65.645 1.52743C66.4591 1.86693 67.1578 2.33374 67.741 2.92786C68.3242 3.52198 68.7799 4.21916 69.108 5.0194C69.436 5.80752 69.6001 6.6502 69.6001 7.54744V7.58381C69.6001 8.48105 69.436 9.3298 69.108 10.13C68.7799 10.9182 68.3182 11.6153 67.7228 12.2216C67.1274 12.8157 66.4226 13.2886 65.6085 13.6402C64.7944 13.9918 63.8952 14.1676 62.911 14.1676Z" fill="#534CEA"/>
<path d="M72.3087 1.21825H74.3865L81.2214 10.0209V1.21825H83.4267V13.9494H81.5494L74.5141 4.89209V13.9494H72.3087V1.21825Z" fill="#534CEA"/>
<path d="M86.7082 1.21825H96.1676V3.21885H88.95V6.52895H95.3475V8.52955H88.95V11.9488H96.2588V13.9494H86.7082V1.21825Z" fill="#534CEA"/>
<path d="M102.673 8.92968L97.6061 1.21825H100.249L103.821 6.85632L107.43 1.21825H110L104.933 8.87511V13.9494H102.673V8.92968Z" fill="#534CEA"/>
<path d="M41 18.2689H43.3876L47.2699 24.2889L51.1521 18.2689H53.5397V31H51.2979V21.87L47.2699 27.8718H47.1969L43.2054 21.9063V31H41V18.2689Z" fill="#534CEA"/>
<path d="M56.951 18.2689H59.1929V31H56.951V18.2689Z" fill="#534CEA"/>
<path d="M62.6082 18.2689H64.686L71.5208 27.0715V18.2689H73.7262V31H71.8489L64.8135 21.9427V31H62.6082V18.2689Z" fill="#534CEA"/>
<path d="M80.6894 24.5253L76.2239 18.2689H78.8667L82.0381 22.8339L85.2277 18.2689H87.7976L83.3504 24.4889L87.9799 31H85.3371L81.9834 26.1804L78.6116 31H76.0417L80.6894 24.5253Z" fill="#534CEA"/>
<path d="M15 32C7.26801 32 1 25.7257 1 17.986C1 15.4808 1.65671 13.1291 2.80722 11.0941M15 32C22.732 32 29 25.7257 29 17.986H15M15 32V17.986M15 3.97209C11.184 3.97209 7.72461 5.50034 5.1993 7.97876C5.28254 8.06905 11.7678 14.6879 15 17.986M15 3.97209C18.816 3.97209 22.2754 5.50034 24.8007 7.97876L15 17.986M15 3.97209L19.9423 1L27.1433 11.0073L15 17.986M15 3.97209L9.96376 1L2.80722 11.0941M15 17.986L2.80722 11.0941" stroke="#534CEA" stroke-width="1.5"/>
</svg>
