<svg width="90" height="23" viewBox="0 0 90 23" fill="none" xmlns="http://www.w3.org/2000/svg">
<path d="M31.2881 0.00991821H35.9767V5.97705H36.0239C36.7351 4.93493 37.9896 4.31998 39.3865 4.31998C43.5069 4.31998 44.62 7.8243 44.62 10.7135C44.62 13.7912 42.9386 17.2256 39.4571 17.2256C37.1606 17.2256 36.4505 16.3492 35.8583 15.5673H35.8111V16.9174H31.2881V0.00991821ZM37.8714 7.7303C36.1899 7.7303 35.8111 9.31619 35.8111 10.7615C35.8111 12.2299 36.1899 13.8158 37.8714 13.8158C39.5528 13.8158 39.9316 12.2299 39.9316 10.7615C39.9316 9.31619 39.5528 7.7303 37.8714 7.7303ZM57.6922 14.171C57.6922 15.0945 57.74 16.1372 58.2616 16.918H53.4771C53.3594 16.5872 53.2888 16.0889 53.3114 15.7581H53.2648C52.2689 16.8942 50.8254 17.2256 49.3095 17.2256C46.9413 17.2256 44.9766 16.089 44.9766 13.5077C44.9766 9.62475 49.5225 9.76655 51.9145 9.31658C52.554 9.19819 53.193 9.00901 53.193 8.22667C53.193 7.39814 52.411 7.09056 51.6543 7.09056C50.209 7.09056 49.9254 7.82391 49.9016 8.34507H45.5438C45.6868 4.88813 48.9541 4.31978 51.8673 4.31978C57.7398 4.31978 57.692 6.75859 57.692 9.127V14.171H57.6922ZM53.1932 11.4006C52.6248 11.6848 51.9859 11.8504 51.3471 11.9922C50.305 12.2296 49.7594 12.4893 49.7594 13.3185C49.7594 13.8868 50.3756 14.455 51.2279 14.455C52.2938 14.455 53.122 13.8154 53.193 12.5365V11.4006H53.1932ZM59.3725 4.62775H63.8955V6.19083H63.9421C64.8191 4.95913 66.073 4.31958 67.9434 4.31958C70.1461 4.31958 72.1601 5.66908 72.1601 8.48725V16.9172H67.4703V10.4771C67.4703 9.05581 67.3051 8.06108 65.9328 8.06108C65.1259 8.06108 64.0605 8.46425 64.0605 10.4293V16.9174H59.3725V4.62775ZM73.8186 0.0101165H78.5066V8.18027L81.4912 4.62755H86.7954L82.4147 9.26899L87.4827 16.9176H81.8454L79.3357 12.4663L78.5066 13.3655V16.9176H73.8186V0.0101165ZM89.5651 15.2441C89.7434 15.4229 89.8317 15.6387 89.8317 15.8909C89.8317 16.145 89.7434 16.3625 89.5651 16.5424C89.3886 16.7213 89.1723 16.8111 88.9189 16.8111C88.6654 16.8111 88.4497 16.7211 88.2732 16.5424C88.0961 16.3625 88.009 16.145 88.009 15.8909C88.009 15.6387 88.0961 15.4229 88.2738 15.2441C88.4526 15.0652 88.6678 14.9753 88.9189 14.9753C89.1717 14.9753 89.3875 15.0654 89.5651 15.2441ZM89.671 15.1415C89.4632 14.9359 89.2132 14.8324 88.9189 14.8324C88.6268 14.8324 88.3785 14.9361 88.1712 15.1415C87.964 15.3494 87.8609 15.5988 87.8609 15.8909C87.8609 16.1858 87.9634 16.4371 88.1684 16.6443C88.3745 16.8527 88.6258 16.9565 88.9191 16.9565C89.2133 16.9565 89.4634 16.8527 89.6712 16.6443C89.8785 16.4365 89.9828 16.1854 89.9828 15.8909C89.9824 15.5982 89.8783 15.349 89.671 15.1415ZM89.0765 15.842C89.0333 15.8584 88.9682 15.8681 88.8812 15.8681H88.6967V15.4463H88.8717C88.9849 15.4463 89.0682 15.46 89.1199 15.489C89.1713 15.5179 89.1969 15.575 89.1969 15.6593C89.1967 15.7491 89.1562 15.81 89.0765 15.842ZM88.6966 16.4712V16.0111H88.8588C88.9665 16.0111 89.0438 16.0236 89.087 16.0488C89.16 16.0926 89.1963 16.1815 89.1963 16.3159V16.4093L89.2009 16.4458C89.202 16.4516 89.2032 16.4555 89.2036 16.4595L89.206 16.4714H89.399L89.3916 16.4571C89.3851 16.4373 89.3817 16.4165 89.3813 16.3956C89.3795 16.3668 89.3786 16.338 89.3785 16.3092V16.2237C89.3785 16.165 89.3569 16.1047 89.3143 16.0426C89.272 15.9818 89.2054 15.9435 89.1138 15.9294C89.1868 15.9175 89.2431 15.8987 89.2836 15.8731C89.3599 15.8241 89.3968 15.7468 89.3968 15.6431C89.3968 15.4961 89.3377 15.3975 89.2169 15.3482C89.1497 15.3202 89.0438 15.3061 88.8986 15.3061H88.4909V16.4712H88.6966Z" fill="#18488A"/>
<path d="M0.0205078 0L0.035381 17.4673L14.8297 22.5L29.6242 17.4673V0H0.0205078Z" fill="#D73749"/>
<path d="M14.8036 16.9175H10.2806V15.3544H10.2334C9.35703 16.5873 8.10253 17.2257 6.23147 17.2257C4.02944 17.2257 2.0166 15.8762 2.0166 13.058V4.62807H6.70524V11.0684C6.70524 12.4897 6.87102 13.484 8.24491 13.484C9.04945 13.484 10.115 13.0808 10.115 11.1158V4.62807H14.8036V16.9175ZM23.5433 8.2032C23.5187 7.80122 23.3069 7.49365 22.9984 7.27907C22.7142 7.04269 22.3356 6.92489 21.9562 6.92489C21.2929 6.92489 20.535 7.06728 20.535 7.87182C20.535 8.2266 20.8197 8.39219 21.0799 8.51077C21.8612 8.84334 23.6373 8.93734 25.201 9.4583C26.7629 9.95665 28.137 10.879 28.137 12.892C28.137 16.3024 24.869 17.2255 21.8856 17.2255C18.9963 17.2255 15.8229 16.065 15.7523 12.892H20.2276C20.251 13.3186 20.4412 13.6734 20.7959 13.9819C21.0327 14.1943 21.4827 14.3367 22.0514 14.3367C22.667 14.3367 23.6373 14.0997 23.6373 13.3898C23.6373 12.6786 23.2353 12.4663 21.0567 12.0869C17.4812 11.4719 16.0365 10.3352 16.0365 8.2268C16.0365 5.12563 19.3756 4.3199 21.8378 4.3199C24.4908 4.3199 27.687 5.05444 27.805 8.20339H23.5433V8.2032Z" fill="white"/>
</svg>
