<svg width="100" height="19" viewBox="0 0 100 19" fill="none" xmlns="http://www.w3.org/2000/svg">
<path d="M5.04 14L0.522 1.184H2.412L6.156 12.272H5.544L9.396 1.184L10.764 1.202L14.544 12.272H13.968L17.748 1.184H19.548L15.048 14H13.5L9.846 3.506H10.26L6.57 14H5.04ZM27.9647 12.956C27.5567 13.316 27.0407 13.604 26.4167 13.82C25.7927 14.024 25.1567 14.126 24.5087 14.126C23.5487 14.126 22.7207 13.94 22.0247 13.568C21.3287 13.196 20.7947 12.656 20.4227 11.948C20.0507 11.24 19.8647 10.4 19.8647 9.428C19.8647 8.492 20.0447 7.67 20.4047 6.962C20.7767 6.254 21.2867 5.702 21.9347 5.306C22.5827 4.91 23.3327 4.712 24.1847 4.712C25.0007 4.712 25.7027 4.892 26.2907 5.252C26.8787 5.612 27.3287 6.128 27.6407 6.8C27.9647 7.46 28.1267 8.258 28.1267 9.194V9.5H21.4487L21.4667 8.42H27.0647L26.5427 9.068C26.5547 8.096 26.3627 7.352 25.9667 6.836C25.5707 6.32 24.9887 6.062 24.2207 6.062C23.4167 6.062 22.7867 6.35 22.3307 6.926C21.8747 7.49 21.6467 8.282 21.6467 9.302C21.6467 10.442 21.8927 11.294 22.3847 11.858C22.8767 12.41 23.5967 12.686 24.5447 12.686C25.0607 12.686 25.5587 12.602 26.0387 12.434C26.5187 12.266 26.9747 12.008 27.4067 11.66L27.9647 12.956ZM30.1949 14V0.751999H32.0129V14H30.1949ZM34.6597 14V0.751999H36.4777V14H34.6597ZM42.3105 14.126C40.7265 14.126 39.4725 13.742 38.5485 12.974L39.1065 11.66C39.5865 12.032 40.0905 12.308 40.6185 12.488C41.1585 12.656 41.7405 12.74 42.3645 12.74C42.9885 12.74 43.4625 12.638 43.7865 12.434C44.1105 12.218 44.2725 11.918 44.2725 11.534C44.2725 11.21 44.1585 10.958 43.9305 10.778C43.7145 10.586 43.3425 10.424 42.8145 10.292L41.2845 9.932C40.4925 9.764 39.8865 9.47 39.4665 9.05C39.0585 8.618 38.8545 8.084 38.8545 7.448C38.8545 6.908 39.0045 6.434 39.3045 6.026C39.6045 5.618 40.0245 5.3 40.5645 5.072C41.1045 4.832 41.7345 4.712 42.4545 4.712C43.1025 4.712 43.7145 4.814 44.2905 5.018C44.8665 5.21 45.3645 5.498 45.7845 5.882L45.2265 7.16C44.7825 6.812 44.3265 6.554 43.8585 6.386C43.4025 6.206 42.9345 6.116 42.4545 6.116C41.8665 6.116 41.4105 6.23 41.0865 6.458C40.7625 6.674 40.6005 6.98 40.6005 7.376C40.6005 7.7 40.6965 7.958 40.8885 8.15C41.0925 8.33 41.4285 8.474 41.8965 8.582L43.4265 8.96C44.3025 9.152 44.9445 9.458 45.3525 9.878C45.7605 10.298 45.9645 10.838 45.9645 11.498C45.9645 12.302 45.6345 12.944 44.9745 13.424C44.3265 13.892 43.4385 14.126 42.3105 14.126ZM53.0682 14V1.184H61.2042V2.714H54.9042V6.728H60.8442V8.258H54.9042V14H53.0682ZM66.4353 14.126C65.6313 14.126 64.9233 13.94 64.3113 13.568C63.7113 13.184 63.2433 12.644 62.9073 11.948C62.5833 11.24 62.4213 10.412 62.4213 9.464C62.4213 8.516 62.5893 7.688 62.9253 6.98C63.2613 6.26 63.7293 5.702 64.3293 5.306C64.9413 4.91 65.6433 4.712 66.4353 4.712C67.2393 4.712 67.9233 4.91 68.4873 5.306C69.0633 5.69 69.4533 6.242 69.6573 6.962L69.4413 7.106V4.928H71.2413V14H69.4413V11.786L69.6573 11.876C69.4533 12.596 69.0633 13.154 68.4873 13.55C67.9233 13.934 67.2393 14.126 66.4353 14.126ZM66.8673 12.686C67.6833 12.686 68.3133 12.404 68.7573 11.84C69.2133 11.276 69.4413 10.472 69.4413 9.428C69.4413 8.384 69.2133 7.58 68.7573 7.016C68.3133 6.452 67.6833 6.17 66.8673 6.17C66.0393 6.17 65.3913 6.464 64.9233 7.052C64.4673 7.628 64.2393 8.432 64.2393 9.464C64.2393 10.496 64.4673 11.294 64.9233 11.858C65.3913 12.41 66.0393 12.686 66.8673 12.686ZM73.8941 14V7.484C73.8941 7.064 73.8821 6.638 73.8581 6.206C73.8461 5.774 73.8101 5.348 73.7501 4.928H75.4781L75.6941 7.214L75.4781 7.124C75.6341 6.332 75.9881 5.732 76.5401 5.324C77.1041 4.916 77.7341 4.712 78.4301 4.712C78.5981 4.712 78.7541 4.724 78.8981 4.748C79.0421 4.772 79.1741 4.802 79.2941 4.838L79.2581 6.494C78.9341 6.374 78.5801 6.314 78.1961 6.314C77.6081 6.314 77.1341 6.44 76.7741 6.692C76.4141 6.932 76.1441 7.256 75.9641 7.664C75.7961 8.06 75.7121 8.486 75.7121 8.942V14H73.8941ZM84.5539 18.014C83.1739 18.014 81.9679 17.714 80.9359 17.114L81.2239 15.692C81.7879 15.992 82.3279 16.214 82.8439 16.358C83.3599 16.502 83.9239 16.574 84.5359 16.574C85.3759 16.574 86.0119 16.358 86.4439 15.926C86.8759 15.494 87.0919 14.846 87.0919 13.982V11.624L87.2899 11.498C87.1459 11.93 86.9179 12.32 86.6059 12.668C86.3059 13.004 85.9339 13.268 85.4899 13.46C85.0579 13.64 84.5719 13.73 84.0319 13.73C83.2279 13.73 82.5199 13.544 81.9079 13.172C81.3079 12.788 80.8339 12.26 80.4859 11.588C80.1499 10.916 79.9819 10.124 79.9819 9.212C79.9819 8.312 80.1499 7.526 80.4859 6.854C80.8339 6.182 81.3079 5.66 81.9079 5.288C82.5199 4.904 83.2279 4.712 84.0319 4.712C84.8479 4.712 85.5439 4.91 86.1199 5.306C86.6959 5.702 87.0859 6.254 87.2899 6.962L87.0739 6.872V4.928H88.8919V13.82C88.8919 15.212 88.5259 16.256 87.7939 16.952C87.0619 17.66 85.9819 18.014 84.5539 18.014ZM84.4639 12.272C85.2799 12.272 85.9159 12.002 86.3719 11.462C86.8399 10.922 87.0739 10.172 87.0739 9.212C87.0739 8.276 86.8399 7.538 86.3719 6.998C85.9159 6.446 85.2799 6.17 84.4639 6.17C83.6359 6.17 82.9819 6.44 82.5019 6.98C82.0339 7.52 81.7999 8.264 81.7999 9.212C81.7999 10.172 82.0339 10.922 82.5019 11.462C82.9819 12.002 83.6359 12.272 84.4639 12.272ZM95.4489 14.126C94.5489 14.126 93.7629 13.934 93.0909 13.55C92.4309 13.166 91.9209 12.626 91.5609 11.93C91.2009 11.222 91.0209 10.382 91.0209 9.41C91.0209 8.462 91.2009 7.634 91.5609 6.926C91.9209 6.218 92.4309 5.672 93.0909 5.288C93.7629 4.904 94.5489 4.712 95.4489 4.712C96.3369 4.712 97.1109 4.904 97.7709 5.288C98.4429 5.672 98.9589 6.218 99.3189 6.926C99.6909 7.634 99.8769 8.462 99.8769 9.41C99.8769 10.382 99.6909 11.222 99.3189 11.93C98.9589 12.626 98.4429 13.166 97.7709 13.55C97.1109 13.934 96.3369 14.126 95.4489 14.126ZM95.4489 12.686C96.2649 12.686 96.8949 12.41 97.3389 11.858C97.7949 11.306 98.0229 10.49 98.0229 9.41C98.0229 8.366 97.7949 7.568 97.3389 7.016C96.8949 6.452 96.2649 6.17 95.4489 6.17C94.6329 6.17 93.9909 6.452 93.5229 7.016C93.0669 7.568 92.8389 8.366 92.8389 9.41C92.8389 10.49 93.0609 11.306 93.5049 11.858C93.9609 12.41 94.6089 12.686 95.4489 12.686Z" fill="#434A55"/>
</svg>
