<svg width="107" height="26" viewBox="0 0 107 26" fill="none" xmlns="http://www.w3.org/2000/svg">
<path d="M29.847 8V0.168H33.246C34.0967 0.168 34.753 0.373333 35.215 0.784C35.6843 1.18733 35.919 1.741 35.919 2.445C35.919 3.14167 35.6807 3.69533 35.204 4.106C34.7347 4.51667 34.082 4.722 33.246 4.722H31.266V8H29.847ZM31.266 3.633H33.081C33.5797 3.633 33.95 3.53033 34.192 3.325C34.4413 3.11967 34.566 2.83 34.566 2.456C34.566 2.07467 34.445 1.785 34.203 1.587C33.961 1.38167 33.587 1.279 33.081 1.279H31.266V3.633ZM39.3732 8V0.168H42.7282C43.6155 0.168 44.2902 0.362333 44.7522 0.751C45.2142 1.13967 45.4452 1.697 45.4452 2.423C45.4452 3.11233 45.2068 3.66233 44.7302 4.073C44.2535 4.47633 43.5898 4.678 42.7392 4.678L43.6192 4.502C43.8905 4.502 44.1325 4.58267 44.3452 4.744C44.5578 4.90533 44.7265 5.15467 44.8512 5.492L45.8192 8H44.3232L43.3332 5.393C43.2305 5.13633 43.0838 4.964 42.8932 4.876C42.7098 4.788 42.4788 4.744 42.2002 4.744H40.7702V8H39.3732ZM40.7592 3.644H42.5302C43.0728 3.644 43.4688 3.545 43.7182 3.347C43.9675 3.149 44.0922 2.852 44.0922 2.456C44.0922 2.05267 43.9675 1.75567 43.7182 1.565C43.4688 1.37433 43.0728 1.279 42.5302 1.279H40.7592V3.644ZM52.7191 8.088C51.9564 8.088 51.2964 7.92667 50.7391 7.604C50.1818 7.28133 49.7528 6.81933 49.4521 6.218C49.1514 5.61667 49.0011 4.90533 49.0011 4.084C49.0011 3.25533 49.1514 2.544 49.4521 1.95C49.7528 1.34867 50.1818 0.886666 50.7391 0.563999C51.2964 0.241333 51.9564 0.0799997 52.7191 0.0799997C53.4891 0.0799997 54.1528 0.241333 54.7101 0.563999C55.2674 0.886666 55.6964 1.34867 55.9971 1.95C56.2978 2.544 56.4481 3.25167 56.4481 4.073C56.4481 4.90167 56.2941 5.61667 55.9861 6.218C55.6854 6.81933 55.2564 7.28133 54.6991 7.604C54.1491 7.92667 53.4891 8.088 52.7191 8.088ZM52.7191 6.966C53.4378 6.966 54.0024 6.72033 54.4131 6.229C54.8238 5.73033 55.0291 5.01167 55.0291 4.073C55.0291 3.13433 54.8238 2.423 54.4131 1.939C54.0024 1.44767 53.4378 1.202 52.7191 1.202C52.0078 1.202 51.4468 1.44767 51.0361 1.939C50.6254 2.423 50.4201 3.13433 50.4201 4.073C50.4201 5.01167 50.6254 5.73033 51.0361 6.229C51.4468 6.72033 52.0078 6.966 52.7191 6.966ZM62.4382 8L58.9512 0.168H60.4362L63.2522 6.746H62.8012L65.6502 0.168H67.0802L63.6042 8H62.4382ZM70.0249 8V0.168H71.4439V8H70.0249ZM75.3509 8V0.168H78.2329C79.0909 0.168 79.8206 0.322 80.4219 0.63C81.0232 0.938 81.4816 1.38533 81.7969 1.972C82.1196 2.55133 82.2809 3.25167 82.2809 4.073C82.2809 4.90167 82.1196 5.60933 81.7969 6.196C81.4816 6.78267 81.0196 7.23 80.4109 7.538C79.8096 7.846 79.0836 8 78.2329 8H75.3509ZM76.7699 6.845H78.1449C79.0469 6.845 79.7216 6.614 80.1689 6.152C80.6236 5.69 80.8509 4.997 80.8509 4.073C80.8509 2.23967 79.9489 1.323 78.1449 1.323H76.7699V6.845ZM85.9191 8V0.168H91.1551V1.279H87.3051V3.457H90.9351V4.579H87.3051V6.889H91.1551V8H85.9191ZM94.6611 8V0.168H97.5431C98.4011 0.168 99.1307 0.322 99.7321 0.63C100.333 0.938 100.792 1.38533 101.107 1.972C101.43 2.55133 101.591 3.25167 101.591 4.073C101.591 4.90167 101.43 5.60933 101.107 6.196C100.792 6.78267 100.33 7.23 99.7211 7.538C99.1197 7.846 98.3937 8 97.5431 8H94.6611ZM96.0801 6.845H97.4551C98.3571 6.845 99.0317 6.614 99.4791 6.152C99.9337 5.69 100.161 4.997 100.161 4.073C100.161 2.23967 99.2591 1.323 97.4551 1.323H96.0801V6.845ZM29.847 25V17.168H33.29C34.0893 17.168 34.72 17.3477 35.182 17.707C35.6513 18.0663 35.886 18.5687 35.886 19.214C35.886 19.654 35.765 20.0317 35.523 20.347C35.281 20.6623 34.94 20.8823 34.5 21.007V20.919C35.006 21.029 35.3947 21.2527 35.666 21.59C35.9447 21.9273 36.084 22.3527 36.084 22.866C36.084 23.5333 35.8457 24.0577 35.369 24.439C34.8997 24.813 34.2397 25 33.389 25H29.847ZM31.233 23.889H33.246C33.7667 23.889 34.1443 23.801 34.379 23.625C34.621 23.4417 34.742 23.1483 34.742 22.745C34.742 22.349 34.621 22.0557 34.379 21.865C34.137 21.6743 33.7593 21.579 33.246 21.579H31.233V23.889ZM31.233 20.468H33.048C33.554 20.468 33.928 20.3763 34.17 20.193C34.412 20.0097 34.533 19.7347 34.533 19.368C34.533 18.994 34.412 18.719 34.17 18.543C33.928 18.367 33.554 18.279 33.048 18.279H31.233V20.468ZM41.4158 25V21.48L41.7128 22.338L38.2368 17.168H39.8538L42.3288 21.018H41.9218L44.3968 17.168H46.0138L42.5488 22.338L42.8348 21.48V25H41.4158ZM53.5413 25V23.966L57.9083 17.828L57.8973 18.301H53.5413V17.168H59.1733V18.191L54.7843 24.34L54.8063 23.867H59.2943V25H53.5413ZM62.7417 25V17.168H64.1607V25H62.7417ZM68.0677 25V17.168H69.4867V23.834H73.1387V25H68.0677ZM76.423 25V17.168H77.842V23.834H81.494V25H76.423ZM87.8246 25.088C87.0619 25.088 86.4019 24.9267 85.8446 24.604C85.2872 24.2813 84.8582 23.8193 84.5576 23.218C84.2569 22.6167 84.1066 21.9053 84.1066 21.084C84.1066 20.2553 84.2569 19.544 84.5576 18.95C84.8582 18.3487 85.2872 17.8867 85.8446 17.564C86.4019 17.2413 87.0619 17.08 87.8246 17.08C88.5946 17.08 89.2582 17.2413 89.8156 17.564C90.3729 17.8867 90.8019 18.3487 91.1026 18.95C91.4032 19.544 91.5536 20.2517 91.5536 21.073C91.5536 21.9017 91.3996 22.6167 91.0916 23.218C90.7909 23.8193 90.3619 24.2813 89.8046 24.604C89.2546 24.9267 88.5946 25.088 87.8246 25.088ZM87.8246 23.966C88.5432 23.966 89.1079 23.7203 89.5186 23.229C89.9292 22.7303 90.1346 22.0117 90.1346 21.073C90.1346 20.1343 89.9292 19.423 89.5186 18.939C89.1079 18.4477 88.5432 18.202 87.8246 18.202C87.1132 18.202 86.5522 18.4477 86.1416 18.939C85.7309 19.423 85.5256 20.1343 85.5256 21.073C85.5256 22.0117 85.7309 22.7303 86.1416 23.229C86.5522 23.7203 87.1132 23.966 87.8246 23.966ZM97.1917 25L94.4197 17.168H95.8607L98.0057 23.603H97.6097L99.8537 17.168L100.866 17.179L103.044 23.603H102.67L104.859 17.168H106.212L103.451 25H102.296L100.195 18.994H100.459L98.3357 25H97.1917Z" fill="#006AFF"/>
<g clip-path="url(#clip0)">
<path d="M14.8759 6.47175C14.9865 6.44735 15.0356 6.48395 15.1027 6.55714C15.4835 6.97752 16.7004 8.45353 17.031 8.85608C17.0925 8.92927 17.0499 9.00903 17.0008 9.05125C14.5443 10.9542 11.811 13.6501 10.288 15.5774C10.2578 15.6206 10.2823 15.6206 10.3069 15.614C12.9599 14.4796 19.1928 12.6676 21.9998 12.1619V8.63087L11.0136 0L0.00854097 8.62431V12.4846C3.41644 10.4728 11.3018 7.35567 14.8759 6.47175Z" fill="#006AFF"/>
<path d="M5.93437 21.3051C5.84272 21.3539 5.76808 21.3417 5.69439 21.2685L3.64322 18.841C3.58842 18.7734 3.58181 18.7368 3.6555 18.6336C5.24088 16.3281 8.47683 12.7352 10.5403 11.217C10.5771 11.1926 10.5648 11.1616 10.5214 11.1804C8.37196 11.8757 2.26192 14.4861 0.00195312 15.7548V24H21.9941V16.0597C18.9972 16.5655 10.0187 19.2191 5.93437 21.3051Z" fill="#006AFF"/>
</g>
<defs>
<clipPath id="clip0">
<rect width="22" height="24" fill="white"/>
</clipPath>
</defs>
</svg>
