<svg width="42" height="33" viewBox="0 0 42 33" fill="none" xmlns="http://www.w3.org/2000/svg">
<path d="M4.79095 29.5421L7.15492 31.4509C8.1358 32.243 9.55926 32.1779 10.4209 31.2571C13.1873 28.3004 15.1739 25.4554 16.3807 22.722C17.8014 19.4421 18.5117 15.7908 18.5117 11.7682V4.31533C18.5117 2.48432 17.0302 1 15.2026 1H4.30909C2.48153 1 1 2.48433 1 4.31533V14.9509C1 16.7819 2.48153 18.2662 4.30909 18.2662H6.67457C7.77233 18.2662 8.564 19.3212 8.11346 20.3242C8.00375 20.5684 7.88719 20.8107 7.76379 21.0511C7.01144 22.5586 5.92617 24.1456 4.50796 25.8119C3.55889 26.9271 3.65208 28.6224 4.79095 29.5421Z" fill="white"/>
<path d="M27.2792 29.5421L29.6432 31.4509C30.6241 32.243 32.0475 32.1779 32.9091 31.2571C35.6756 28.3004 37.6622 25.4554 38.8689 22.722C40.2896 19.4421 41 15.7908 41 11.7682V4.31533C41 2.48432 39.5185 1 37.6909 1H26.7974C24.9698 1 23.4883 2.48433 23.4883 4.31533V14.9509C23.4883 16.7819 24.9698 18.2662 26.7974 18.2662H29.1628C30.2606 18.2662 31.0523 19.3212 30.6017 20.3242C30.492 20.5684 30.3755 20.8107 30.2521 21.0511C29.4997 22.5586 28.4144 24.1456 26.9962 25.8119C26.0472 26.9271 26.1403 28.6224 27.2792 29.5421Z" fill="white"/>
<path d="M4.79095 29.5421L7.15492 31.4509C8.1358 32.243 9.55926 32.1779 10.4209 31.2571C13.1873 28.3004 15.1739 25.4554 16.3807 22.722C17.8014 19.4421 18.5117 15.7908 18.5117 11.7682V4.31533C18.5117 2.48432 17.0302 1 15.2026 1H4.30909C2.48153 1 1 2.48433 1 4.31533V14.9509C1 16.7819 2.48153 18.2662 4.30909 18.2662H6.67457C7.77233 18.2662 8.564 19.3212 8.11346 20.3242C8.00375 20.5684 7.88719 20.8107 7.76379 21.0511C7.01144 22.5586 5.92617 24.1456 4.50796 25.8119C3.55889 26.9271 3.65208 28.6224 4.79095 29.5421Z" stroke="#534CEA" stroke-width="1.5"/>
<path d="M27.2792 29.5421L29.6432 31.4509C30.6241 32.243 32.0475 32.1779 32.9091 31.2571C35.6756 28.3004 37.6622 25.4554 38.8689 22.722C40.2896 19.4421 41 15.7908 41 11.7682V4.31533C41 2.48432 39.5185 1 37.6909 1H26.7974C24.9698 1 23.4883 2.48433 23.4883 4.31533V14.9509C23.4883 16.7819 24.9698 18.2662 26.7974 18.2662H29.1628C30.2606 18.2662 31.0523 19.3212 30.6017 20.3242C30.492 20.5684 30.3755 20.8107 30.2521 21.0511C29.4997 22.5586 28.4144 24.1456 26.9962 25.8119C26.0472 26.9271 26.1403 28.6224 27.2792 29.5421Z" stroke="#534CEA" stroke-width="1.5"/>
</svg>
