<svg width="366" height="171" viewBox="0 0 366 171" fill="none" xmlns="http://www.w3.org/2000/svg">
<path d="M296.673 168.16C295.687 168.16 294.753 168 293.873 167.68C293.007 167.347 292.253 166.867 291.613 166.24L292.113 165.26C292.833 165.9 293.553 166.36 294.273 166.64C294.993 166.92 295.793 167.06 296.673 167.06C297.807 167.06 298.687 166.813 299.313 166.32C299.953 165.813 300.273 165.12 300.273 164.24C300.273 163.693 300.12 163.267 299.813 162.96C299.52 162.64 299.12 162.387 298.613 162.2C298.12 162.013 297.573 161.853 296.973 161.72C296.387 161.573 295.793 161.413 295.193 161.24C294.593 161.067 294.04 160.84 293.533 160.56C293.04 160.28 292.64 159.907 292.333 159.44C292.04 158.973 291.893 158.367 291.893 157.62C291.893 156.833 292.1 156.14 292.513 155.54C292.927 154.927 293.5 154.453 294.233 154.12C294.967 153.773 295.8 153.6 296.733 153.6C297.333 153.6 297.913 153.673 298.473 153.82C299.047 153.967 299.58 154.18 300.073 154.46C300.58 154.727 301.027 155.06 301.413 155.46L300.913 156.44C299.767 155.28 298.373 154.7 296.733 154.7C295.627 154.7 294.753 154.96 294.113 155.48C293.473 156 293.153 156.707 293.153 157.6C293.153 158.2 293.3 158.673 293.593 159.02C293.9 159.367 294.307 159.647 294.813 159.86C295.32 160.06 295.867 160.233 296.453 160.38C297.053 160.527 297.647 160.68 298.233 160.84C298.833 161 299.38 161.213 299.873 161.48C300.38 161.733 300.78 162.08 301.073 162.52C301.38 162.96 301.533 163.527 301.533 164.22C301.533 165.007 301.327 165.693 300.913 166.28C300.5 166.867 299.927 167.327 299.193 167.66C298.46 167.993 297.62 168.16 296.673 168.16ZM296.253 170.32V167.94L296.273 167.32V154.36L296.253 153.82V151.44H297.373V153.82L297.353 154.36V167.32L297.373 167.94V170.32H296.253ZM304.365 168V167.06L309.425 161.42C310.132 160.607 310.645 159.887 310.965 159.26C311.299 158.62 311.465 157.973 311.465 157.32C311.465 156.48 311.219 155.833 310.725 155.38C310.245 154.913 309.552 154.68 308.645 154.68C307.925 154.68 307.225 154.827 306.545 155.12C305.879 155.4 305.212 155.827 304.545 156.4L304.025 155.42C304.585 154.873 305.285 154.433 306.125 154.1C306.965 153.767 307.805 153.6 308.645 153.6C309.485 153.6 310.205 153.747 310.805 154.04C311.419 154.333 311.892 154.76 312.225 155.32C312.559 155.867 312.725 156.52 312.725 157.28C312.725 158.093 312.532 158.887 312.145 159.66C311.772 160.42 311.159 161.28 310.305 162.24L305.285 167.72L305.265 166.94H313.345V168H304.365ZM320.458 167.46V154.28L321.258 154.88L317.518 157.3V156.04L320.998 153.76H321.698V167.46H320.458ZM317.298 168V166.94H324.858V168H317.298ZM328.61 170.14L327.99 169.64C328.31 169.28 328.517 168.953 328.61 168.66C328.703 168.38 328.75 168.087 328.75 167.78L329.17 168H327.97V166.26H329.67V167.56C329.67 168.027 329.59 168.473 329.43 168.9C329.283 169.327 329.01 169.74 328.61 170.14ZM337.023 168.16C335.423 168.16 334.21 167.547 333.383 166.32C332.557 165.08 332.143 163.267 332.143 160.88C332.143 158.48 332.55 156.667 333.363 155.44C334.19 154.213 335.41 153.6 337.023 153.6C338.637 153.6 339.85 154.213 340.663 155.44C341.49 156.667 341.903 158.473 341.903 160.86C341.903 163.247 341.49 165.06 340.663 166.3C339.837 167.54 338.623 168.16 337.023 168.16ZM337.023 167.06C338.25 167.06 339.157 166.56 339.743 165.56C340.343 164.547 340.643 162.98 340.643 160.86C340.643 158.74 340.35 157.187 339.763 156.2C339.177 155.2 338.263 154.7 337.023 154.7C335.797 154.7 334.883 155.2 334.283 156.2C333.697 157.2 333.403 158.753 333.403 160.86C333.403 162.967 333.697 164.527 334.283 165.54C334.883 166.553 335.797 167.06 337.023 167.06ZM349.016 168.16C347.416 168.16 346.202 167.547 345.376 166.32C344.549 165.08 344.136 163.267 344.136 160.88C344.136 158.48 344.542 156.667 345.356 155.44C346.182 154.213 347.402 153.6 349.016 153.6C350.629 153.6 351.842 154.213 352.656 155.44C353.482 156.667 353.896 158.473 353.896 160.86C353.896 163.247 353.482 165.06 352.656 166.3C351.829 167.54 350.616 168.16 349.016 168.16ZM349.016 167.06C350.242 167.06 351.149 166.56 351.736 165.56C352.336 164.547 352.636 162.98 352.636 160.86C352.636 158.74 352.342 157.187 351.756 156.2C351.169 155.2 350.256 154.7 349.016 154.7C347.789 154.7 346.876 155.2 346.276 156.2C345.689 157.2 345.396 158.753 345.396 160.86C345.396 162.967 345.689 164.527 346.276 165.54C346.876 166.553 347.789 167.06 349.016 167.06ZM361.008 168.16C359.408 168.16 358.194 167.547 357.368 166.32C356.541 165.08 356.128 163.267 356.128 160.88C356.128 158.48 356.534 156.667 357.348 155.44C358.174 154.213 359.394 153.6 361.008 153.6C362.621 153.6 363.834 154.213 364.648 155.44C365.474 156.667 365.888 158.473 365.888 160.86C365.888 163.247 365.474 165.06 364.648 166.3C363.821 167.54 362.608 168.16 361.008 168.16ZM361.008 167.06C362.234 167.06 363.141 166.56 363.728 165.56C364.328 164.547 364.628 162.98 364.628 160.86C364.628 158.74 364.334 157.187 363.748 156.2C363.161 155.2 362.248 154.7 361.008 154.7C359.781 154.7 358.868 155.2 358.268 156.2C357.681 157.2 357.388 158.753 357.388 160.86C357.388 162.967 357.681 164.527 358.268 165.54C358.868 166.553 359.781 167.06 361.008 167.06Z" fill="#969EAC"/>
<path d="M59.376 168V156.608H63.968C65.216 156.608 66.1653 156.885 66.816 157.44C67.4773 157.984 67.808 158.773 67.808 159.808C67.808 160.789 67.472 161.563 66.8 162.128C66.128 162.693 65.1893 162.976 63.984 162.976L65.184 162.752C65.6 162.752 65.9573 162.869 66.256 163.104C66.5547 163.328 66.7947 163.691 66.976 164.192L68.416 168H66.832L65.424 164.208C65.2533 163.749 65.0133 163.445 64.704 163.296C64.4053 163.147 64.0053 163.072 63.504 163.072H60.832V168H59.376ZM60.832 161.872H63.824C64.688 161.872 65.328 161.701 65.744 161.36C66.16 161.008 66.368 160.496 66.368 159.824C66.368 159.141 66.16 158.635 65.744 158.304C65.3387 157.973 64.6987 157.808 63.824 157.808H60.832V161.872ZM76.997 167.056C76.645 167.387 76.1917 167.648 75.637 167.84C75.0823 168.021 74.517 168.112 73.941 168.112C73.0983 168.112 72.373 167.947 71.765 167.616C71.157 167.285 70.6877 166.811 70.357 166.192C70.0263 165.563 69.861 164.816 69.861 163.952C69.861 163.12 70.021 162.389 70.341 161.76C70.6717 161.131 71.125 160.64 71.701 160.288C72.277 159.925 72.9383 159.744 73.685 159.744C74.4103 159.744 75.029 159.904 75.541 160.224C76.0637 160.544 76.4583 161.003 76.725 161.6C77.0023 162.187 77.141 162.891 77.141 163.712V163.968H71.141V163.072H76.309L75.861 163.648C75.8823 162.741 75.7063 162.048 75.333 161.568C74.9597 161.088 74.4157 160.848 73.701 160.848C72.9543 160.848 72.3677 161.115 71.941 161.648C71.525 162.171 71.317 162.907 71.317 163.856C71.317 164.88 71.541 165.653 71.989 166.176C72.437 166.688 73.0983 166.944 73.973 166.944C74.4423 166.944 74.8903 166.869 75.317 166.72C75.7437 166.56 76.149 166.325 76.533 166.016L76.997 167.056ZM82.1478 168.112C81.4438 168.112 80.8198 167.947 80.2758 167.616C79.7424 167.275 79.3264 166.795 79.0278 166.176C78.7291 165.547 78.5798 164.811 78.5798 163.968C78.5798 163.125 78.7291 162.389 79.0278 161.76C79.3371 161.131 79.7584 160.64 80.2918 160.288C80.8358 159.925 81.4544 159.744 82.1478 159.744C82.8731 159.744 83.4918 159.925 84.0038 160.288C84.5158 160.64 84.8624 161.147 85.0438 161.808L84.8518 161.92V159.952H86.2917V168H84.8518V165.984L85.0438 166.064C84.8624 166.715 84.5158 167.221 84.0038 167.584C83.4918 167.936 82.8731 168.112 82.1478 168.112ZM82.4678 166.928C83.2358 166.928 83.8224 166.672 84.2278 166.16C84.6438 165.637 84.8518 164.896 84.8518 163.936C84.8518 162.976 84.6438 162.24 84.2278 161.728C83.8118 161.205 83.2251 160.944 82.4678 160.944C81.7104 160.944 81.1184 161.211 80.6918 161.744C80.2651 162.277 80.0518 163.019 80.0518 163.968C80.0518 164.917 80.2651 165.648 80.6918 166.16C81.1184 166.672 81.7104 166.928 82.4678 166.928ZM88.716 168V156.224H90.172V168H88.716ZM96.9854 168V156.608H104.265V157.824H98.4414V161.6H103.945V162.832H98.4414V166.784H104.265V168H96.9854ZM109.031 168.112C107.655 168.112 106.562 167.765 105.751 167.072L106.215 166.016C106.642 166.347 107.084 166.592 107.543 166.752C108.012 166.901 108.524 166.976 109.079 166.976C109.655 166.976 110.092 166.88 110.391 166.688C110.7 166.485 110.855 166.197 110.855 165.824C110.855 165.525 110.748 165.291 110.535 165.12C110.332 164.939 109.991 164.789 109.511 164.672L108.167 164.352C107.474 164.203 106.94 163.936 106.567 163.552C106.204 163.168 106.023 162.704 106.023 162.16C106.023 161.691 106.151 161.275 106.407 160.912C106.674 160.549 107.042 160.267 107.511 160.064C107.98 159.851 108.535 159.744 109.175 159.744C109.74 159.744 110.274 159.835 110.775 160.016C111.287 160.197 111.719 160.459 112.071 160.8L111.607 161.84C111.223 161.52 110.828 161.285 110.423 161.136C110.018 160.976 109.596 160.896 109.159 160.896C108.615 160.896 108.188 161.003 107.879 161.216C107.58 161.429 107.431 161.717 107.431 162.08C107.431 162.389 107.527 162.635 107.719 162.816C107.911 162.997 108.215 163.141 108.631 163.248L109.991 163.584C110.759 163.744 111.324 164.011 111.687 164.384C112.05 164.747 112.231 165.216 112.231 165.792C112.231 166.496 111.943 167.061 111.367 167.488C110.791 167.904 110.012 168.112 109.031 168.112ZM113.034 161.072V159.952H118.314V161.072H113.034ZM118.282 166.736V167.952C118.101 168.005 117.914 168.043 117.722 168.064C117.541 168.096 117.343 168.112 117.13 168.112C116.341 168.112 115.717 167.888 115.258 167.44C114.81 166.992 114.586 166.331 114.586 165.456V157.904L116.042 157.392V165.296C116.042 165.712 116.101 166.037 116.218 166.272C116.346 166.496 116.511 166.656 116.714 166.752C116.927 166.837 117.167 166.88 117.434 166.88C117.583 166.88 117.722 166.869 117.85 166.848C117.978 166.827 118.122 166.789 118.282 166.736ZM122.945 168.112C122.241 168.112 121.617 167.947 121.073 167.616C120.539 167.275 120.123 166.795 119.825 166.176C119.526 165.547 119.377 164.811 119.377 163.968C119.377 163.125 119.526 162.389 119.825 161.76C120.134 161.131 120.555 160.64 121.089 160.288C121.633 159.925 122.251 159.744 122.945 159.744C123.67 159.744 124.289 159.925 124.801 160.288C125.313 160.64 125.659 161.147 125.841 161.808L125.649 161.92V159.952H127.089V168H125.649V165.984L125.841 166.064C125.659 166.715 125.313 167.221 124.801 167.584C124.289 167.936 123.67 168.112 122.945 168.112ZM123.265 166.928C124.033 166.928 124.619 166.672 125.025 166.16C125.441 165.637 125.649 164.896 125.649 163.936C125.649 162.976 125.441 162.24 125.025 161.728C124.609 161.205 124.022 160.944 123.265 160.944C122.507 160.944 121.915 161.211 121.489 161.744C121.062 162.277 120.849 163.019 120.849 163.968C120.849 164.917 121.062 165.648 121.489 166.16C121.915 166.672 122.507 166.928 123.265 166.928ZM128.409 161.072V159.952H133.689V161.072H128.409ZM133.657 166.736V167.952C133.476 168.005 133.289 168.043 133.097 168.064C132.916 168.096 132.718 168.112 132.505 168.112C131.716 168.112 131.092 167.888 130.633 167.44C130.185 166.992 129.961 166.331 129.961 165.456V157.904L131.417 157.392V165.296C131.417 165.712 131.476 166.037 131.593 166.272C131.721 166.496 131.886 166.656 132.089 166.752C132.302 166.837 132.542 166.88 132.809 166.88C132.958 166.88 133.097 166.869 133.225 166.848C133.353 166.827 133.497 166.789 133.657 166.736ZM141.888 167.056C141.536 167.387 141.082 167.648 140.528 167.84C139.973 168.021 139.408 168.112 138.832 168.112C137.989 168.112 137.264 167.947 136.656 167.616C136.048 167.285 135.578 166.811 135.248 166.192C134.917 165.563 134.752 164.816 134.752 163.952C134.752 163.12 134.912 162.389 135.232 161.76C135.562 161.131 136.016 160.64 136.592 160.288C137.168 159.925 137.829 159.744 138.576 159.744C139.301 159.744 139.92 159.904 140.432 160.224C140.954 160.544 141.349 161.003 141.616 161.6C141.893 162.187 142.032 162.891 142.032 163.712V163.968H136.032V163.072H141.2L140.752 163.648C140.773 162.741 140.597 162.048 140.224 161.568C139.85 161.088 139.306 160.848 138.592 160.848C137.845 160.848 137.258 161.115 136.832 161.648C136.416 162.171 136.208 162.907 136.208 163.856C136.208 164.88 136.432 165.653 136.88 166.176C137.328 166.688 137.989 166.944 138.864 166.944C139.333 166.944 139.781 166.869 140.208 166.72C140.634 166.56 141.04 166.325 141.424 166.016L141.888 167.056ZM148.105 164.288V163.104H152.697V164.288H148.105ZM158.34 167.328V157.552L159.156 157.888L156.004 159.872V158.48L158.98 156.608H159.828V167.328H158.34ZM155.828 168V166.768H162.34V168H155.828ZM168.238 168.128C166.926 168.128 165.928 167.637 165.246 166.656C164.563 165.664 164.222 164.213 164.222 162.304C164.222 160.395 164.558 158.949 165.23 157.968C165.912 156.976 166.915 156.48 168.238 156.48C169.56 156.48 170.558 156.976 171.23 157.968C171.912 158.949 172.253 160.389 172.253 162.288C172.253 164.197 171.912 165.648 171.23 166.64C170.547 167.632 169.55 168.128 168.238 168.128ZM168.238 166.912C169.102 166.912 169.736 166.539 170.142 165.792C170.558 165.045 170.766 163.877 170.766 162.288C170.766 160.699 170.558 159.541 170.142 158.816C169.736 158.08 169.102 157.712 168.238 157.712C167.374 157.712 166.734 158.08 166.318 158.816C165.912 159.552 165.71 160.709 165.71 162.288C165.71 163.877 165.912 165.045 166.318 165.792C166.734 166.539 167.374 166.912 168.238 166.912ZM176.071 163.504C175.282 163.504 174.658 163.216 174.199 162.64C173.741 162.064 173.511 161.189 173.511 160.016C173.511 158.832 173.741 157.957 174.199 157.392C174.658 156.827 175.282 156.544 176.071 156.544C176.861 156.544 177.479 156.827 177.927 157.392C178.386 157.957 178.615 158.832 178.615 160.016C178.615 161.189 178.386 162.064 177.927 162.64C177.479 163.216 176.861 163.504 176.071 163.504ZM176.071 162.496C176.487 162.496 176.797 162.304 176.999 161.92C177.213 161.525 177.319 160.891 177.319 160.016C177.319 159.152 177.213 158.528 176.999 158.144C176.797 157.749 176.487 157.552 176.071 157.552C175.655 157.552 175.341 157.749 175.127 158.144C174.925 158.528 174.823 159.152 174.823 160.016C174.823 160.891 174.925 161.525 175.127 161.92C175.341 162.304 175.655 162.496 176.071 162.496ZM175.847 168L182.439 156.608H183.831L177.255 168H175.847ZM183.607 168.064C182.818 168.064 182.194 167.776 181.735 167.2C181.277 166.624 181.047 165.749 181.047 164.576C181.047 163.392 181.277 162.517 181.735 161.952C182.194 161.387 182.818 161.104 183.607 161.104C184.397 161.104 185.015 161.387 185.463 161.952C185.922 162.517 186.151 163.392 186.151 164.576C186.151 165.749 185.922 166.624 185.463 167.2C185.015 167.776 184.397 168.064 183.607 168.064ZM183.607 167.056C184.023 167.056 184.333 166.864 184.535 166.48C184.749 166.085 184.855 165.451 184.855 164.576C184.855 163.712 184.749 163.088 184.535 162.704C184.333 162.309 184.023 162.112 183.607 162.112C183.191 162.112 182.877 162.309 182.663 162.704C182.461 163.088 182.359 163.712 182.359 164.576C182.359 165.451 182.461 166.085 182.663 166.48C182.877 166.864 183.191 167.056 183.607 167.056Z" fill="#969EAC"/>
<rect x="18" y="152" width="18" height="18" rx="2" fill="#D3365F"/>
<path d="M296.673 132.16C295.687 132.16 294.753 132 293.873 131.68C293.007 131.347 292.253 130.867 291.613 130.24L292.113 129.26C292.833 129.9 293.553 130.36 294.273 130.64C294.993 130.92 295.793 131.06 296.673 131.06C297.807 131.06 298.687 130.813 299.313 130.32C299.953 129.813 300.273 129.12 300.273 128.24C300.273 127.693 300.12 127.267 299.813 126.96C299.52 126.64 299.12 126.387 298.613 126.2C298.12 126.013 297.573 125.853 296.973 125.72C296.387 125.573 295.793 125.413 295.193 125.24C294.593 125.067 294.04 124.84 293.533 124.56C293.04 124.28 292.64 123.907 292.333 123.44C292.04 122.973 291.893 122.367 291.893 121.62C291.893 120.833 292.1 120.14 292.513 119.54C292.927 118.927 293.5 118.453 294.233 118.12C294.967 117.773 295.8 117.6 296.733 117.6C297.333 117.6 297.913 117.673 298.473 117.82C299.047 117.967 299.58 118.18 300.073 118.46C300.58 118.727 301.027 119.06 301.413 119.46L300.913 120.44C299.767 119.28 298.373 118.7 296.733 118.7C295.627 118.7 294.753 118.96 294.113 119.48C293.473 120 293.153 120.707 293.153 121.6C293.153 122.2 293.3 122.673 293.593 123.02C293.9 123.367 294.307 123.647 294.813 123.86C295.32 124.06 295.867 124.233 296.453 124.38C297.053 124.527 297.647 124.68 298.233 124.84C298.833 125 299.38 125.213 299.873 125.48C300.38 125.733 300.78 126.08 301.073 126.52C301.38 126.96 301.533 127.527 301.533 128.22C301.533 129.007 301.327 129.693 300.913 130.28C300.5 130.867 299.927 131.327 299.193 131.66C298.46 131.993 297.62 132.16 296.673 132.16ZM296.253 134.32V131.94L296.273 131.32V118.36L296.253 117.82V115.44H297.373V117.82L297.353 118.36V131.32L297.373 131.94V134.32H296.253ZM308.525 132.14C307.619 132.14 306.752 131.98 305.925 131.66C305.099 131.34 304.392 130.893 303.805 130.32L304.325 129.34C304.979 129.913 305.645 130.347 306.325 130.64C307.019 130.92 307.752 131.06 308.525 131.06C309.565 131.06 310.365 130.813 310.925 130.32C311.499 129.813 311.785 129.093 311.785 128.16C311.785 127.2 311.485 126.487 310.885 126.02C310.299 125.54 309.432 125.3 308.285 125.3H306.745V124.22H307.965C309.085 124.22 309.945 123.96 310.545 123.44C311.159 122.92 311.465 122.187 311.465 121.24C311.465 120.427 311.219 119.8 310.725 119.36C310.232 118.907 309.539 118.68 308.645 118.68C307.912 118.68 307.212 118.827 306.545 119.12C305.879 119.4 305.212 119.827 304.545 120.4L304.025 119.42C304.599 118.847 305.292 118.4 306.105 118.08C306.932 117.76 307.785 117.6 308.665 117.6C309.492 117.6 310.212 117.747 310.825 118.04C311.439 118.333 311.905 118.753 312.225 119.3C312.559 119.833 312.725 120.473 312.725 121.22C312.712 122.1 312.472 122.86 312.005 123.5C311.552 124.14 310.925 124.567 310.125 124.78L310.045 124.58C311.019 124.78 311.759 125.187 312.265 125.8C312.772 126.4 313.025 127.187 313.025 128.16C313.025 129.387 312.619 130.36 311.805 131.08C310.992 131.787 309.899 132.14 308.525 132.14ZM322.398 132V119.3H322.858L316.478 128.52L316.498 127.7H325.838V128.76H315.678V127.82L322.618 117.76H323.638V132H322.398ZM328.61 134.14L327.99 133.64C328.31 133.28 328.517 132.953 328.61 132.66C328.703 132.38 328.75 132.087 328.75 131.78L329.17 132H327.97V130.26H329.67V131.56C329.67 132.027 329.59 132.473 329.43 132.9C329.283 133.327 329.01 133.74 328.61 134.14ZM337.023 132.16C335.423 132.16 334.21 131.547 333.383 130.32C332.557 129.08 332.143 127.267 332.143 124.88C332.143 122.48 332.55 120.667 333.363 119.44C334.19 118.213 335.41 117.6 337.023 117.6C338.637 117.6 339.85 118.213 340.663 119.44C341.49 120.667 341.903 122.473 341.903 124.86C341.903 127.247 341.49 129.06 340.663 130.3C339.837 131.54 338.623 132.16 337.023 132.16ZM337.023 131.06C338.25 131.06 339.157 130.56 339.743 129.56C340.343 128.547 340.643 126.98 340.643 124.86C340.643 122.74 340.35 121.187 339.763 120.2C339.177 119.2 338.263 118.7 337.023 118.7C335.797 118.7 334.883 119.2 334.283 120.2C333.697 121.2 333.403 122.753 333.403 124.86C333.403 126.967 333.697 128.527 334.283 129.54C334.883 130.553 335.797 131.06 337.023 131.06ZM349.016 132.16C347.416 132.16 346.202 131.547 345.376 130.32C344.549 129.08 344.136 127.267 344.136 124.88C344.136 122.48 344.542 120.667 345.356 119.44C346.182 118.213 347.402 117.6 349.016 117.6C350.629 117.6 351.842 118.213 352.656 119.44C353.482 120.667 353.896 122.473 353.896 124.86C353.896 127.247 353.482 129.06 352.656 130.3C351.829 131.54 350.616 132.16 349.016 132.16ZM349.016 131.06C350.242 131.06 351.149 130.56 351.736 129.56C352.336 128.547 352.636 126.98 352.636 124.86C352.636 122.74 352.342 121.187 351.756 120.2C351.169 119.2 350.256 118.7 349.016 118.7C347.789 118.7 346.876 119.2 346.276 120.2C345.689 121.2 345.396 122.753 345.396 124.86C345.396 126.967 345.689 128.527 346.276 129.54C346.876 130.553 347.789 131.06 349.016 131.06ZM361.008 132.16C359.408 132.16 358.194 131.547 357.368 130.32C356.541 129.08 356.128 127.267 356.128 124.88C356.128 122.48 356.534 120.667 357.348 119.44C358.174 118.213 359.394 117.6 361.008 117.6C362.621 117.6 363.834 118.213 364.648 119.44C365.474 120.667 365.888 122.473 365.888 124.86C365.888 127.247 365.474 129.06 364.648 130.3C363.821 131.54 362.608 132.16 361.008 132.16ZM361.008 131.06C362.234 131.06 363.141 130.56 363.728 129.56C364.328 128.547 364.628 126.98 364.628 124.86C364.628 122.74 364.334 121.187 363.748 120.2C363.161 119.2 362.248 118.7 361.008 118.7C359.781 118.7 358.868 119.2 358.268 120.2C357.681 121.2 357.388 122.753 357.388 124.86C357.388 126.967 357.681 128.527 358.268 129.54C358.868 130.553 359.781 131.06 361.008 131.06Z" fill="#969EAC"/>
<path d="M59.376 132V120.608H60.592L65.136 130.96H64.496L69.008 120.608H70.208V132H68.864V122.624L69.36 122.688L65.312 132H64.288L60.176 122.688L60.72 122.624L60.736 132H59.376ZM75.6581 132.112C74.6875 132.112 73.9568 131.845 73.4661 131.312C72.9861 130.768 72.7461 129.968 72.7461 128.912V123.952H74.2021V128.896C74.2021 129.589 74.3408 130.101 74.6181 130.432C74.9061 130.752 75.3435 130.912 75.9301 130.912C76.6128 130.912 77.1621 130.693 77.5781 130.256C77.9941 129.808 78.2021 129.216 78.2021 128.48V123.952H79.6741V132H78.2501V130.272L78.4421 130.192C78.2288 130.821 77.8715 131.301 77.3701 131.632C76.8688 131.952 76.2981 132.112 75.6581 132.112ZM82.091 132V126.208C82.091 125.835 82.0803 125.461 82.059 125.088C82.0483 124.704 82.0163 124.325 81.963 123.952H83.339L83.483 125.6L83.323 125.696C83.5577 125.067 83.931 124.587 84.443 124.256C84.9657 123.915 85.563 123.744 86.235 123.744C88.1657 123.744 89.131 124.816 89.131 126.96V132H87.675V127.04C87.675 126.315 87.531 125.787 87.243 125.456C86.9657 125.115 86.5177 124.944 85.899 124.944C85.1843 124.944 84.6137 125.168 84.187 125.616C83.7603 126.053 83.547 126.645 83.547 127.392V132H82.091ZM91.5129 132V123.952H92.9689V132H91.5129ZM91.3849 120.48H93.0969V122.064H91.3849V120.48ZM98.1715 132.112C96.7955 132.112 95.7022 131.765 94.8915 131.072L95.3555 130.016C95.7822 130.347 96.2248 130.592 96.6835 130.752C97.1528 130.901 97.6648 130.976 98.2195 130.976C98.7955 130.976 99.2328 130.88 99.5315 130.688C99.8408 130.485 99.9955 130.197 99.9955 129.824C99.9955 129.525 99.8888 129.291 99.6755 129.12C99.4728 128.939 99.1315 128.789 98.6515 128.672L97.3075 128.352C96.6142 128.203 96.0808 127.936 95.7075 127.552C95.3448 127.168 95.1635 126.704 95.1635 126.16C95.1635 125.691 95.2915 125.275 95.5475 124.912C95.8142 124.549 96.1822 124.267 96.6515 124.064C97.1208 123.851 97.6755 123.744 98.3155 123.744C98.8808 123.744 99.4142 123.835 99.9155 124.016C100.428 124.197 100.86 124.459 101.212 124.8L100.748 125.84C100.364 125.52 99.9688 125.285 99.5635 125.136C99.1582 124.976 98.7368 124.896 98.2995 124.896C97.7555 124.896 97.3288 125.003 97.0195 125.216C96.7208 125.429 96.5715 125.717 96.5715 126.08C96.5715 126.389 96.6675 126.635 96.8595 126.816C97.0515 126.997 97.3555 127.141 97.7715 127.248L99.1315 127.584C99.8995 127.744 100.465 128.011 100.828 128.384C101.19 128.747 101.372 129.216 101.372 129.792C101.372 130.496 101.084 131.061 100.508 131.488C99.9315 131.904 99.1528 132.112 98.1715 132.112ZM107.511 128.288V127.104H112.103V128.288H107.511ZM119.186 132V122.464H119.602L115.042 129.024L115.058 128.368H122.354V129.568H114.002V128.464L119.442 120.608H120.658V132H119.186ZM127.788 132.112C127.084 132.112 126.39 131.989 125.708 131.744C125.036 131.499 124.47 131.157 124.012 130.72L124.556 129.6C125.078 130.027 125.606 130.352 126.14 130.576C126.673 130.789 127.222 130.896 127.788 130.896C128.566 130.896 129.174 130.683 129.612 130.256C130.049 129.819 130.268 129.221 130.268 128.464C130.268 127.984 130.166 127.563 129.964 127.2C129.772 126.837 129.494 126.555 129.132 126.352C128.78 126.139 128.364 126.032 127.884 126.032C127.361 126.032 126.886 126.139 126.46 126.352C126.033 126.555 125.66 126.864 125.34 127.28H124.348V120.608H131.244V121.808H125.82V126.224L125.356 126.176C125.665 125.739 126.06 125.403 126.54 125.168C127.02 124.933 127.558 124.816 128.156 124.816C128.881 124.816 129.51 124.971 130.044 125.28C130.577 125.579 130.988 126 131.276 126.544C131.564 127.088 131.708 127.717 131.708 128.432C131.708 129.157 131.548 129.797 131.228 130.352C130.908 130.907 130.454 131.339 129.868 131.648C129.281 131.957 128.588 132.112 127.788 132.112ZM135.478 127.504C134.688 127.504 134.064 127.216 133.606 126.64C133.147 126.064 132.918 125.189 132.918 124.016C132.918 122.832 133.147 121.957 133.606 121.392C134.064 120.827 134.688 120.544 135.478 120.544C136.267 120.544 136.886 120.827 137.334 121.392C137.792 121.957 138.022 122.832 138.022 124.016C138.022 125.189 137.792 126.064 137.334 126.64C136.886 127.216 136.267 127.504 135.478 127.504ZM135.478 126.496C135.894 126.496 136.203 126.304 136.406 125.92C136.619 125.525 136.726 124.891 136.726 124.016C136.726 123.152 136.619 122.528 136.406 122.144C136.203 121.749 135.894 121.552 135.478 121.552C135.062 121.552 134.747 121.749 134.534 122.144C134.331 122.528 134.23 123.152 134.23 124.016C134.23 124.891 134.331 125.525 134.534 125.92C134.747 126.304 135.062 126.496 135.478 126.496ZM135.254 132L141.845 120.608H143.238L136.661 132H135.254ZM143.014 132.064C142.224 132.064 141.6 131.776 141.142 131.2C140.683 130.624 140.454 129.749 140.454 128.576C140.454 127.392 140.683 126.517 141.142 125.952C141.6 125.387 142.224 125.104 143.014 125.104C143.803 125.104 144.422 125.387 144.87 125.952C145.328 126.517 145.558 127.392 145.558 128.576C145.558 129.749 145.328 130.624 144.87 131.2C144.422 131.776 143.803 132.064 143.014 132.064ZM143.014 131.056C143.43 131.056 143.739 130.864 143.942 130.48C144.155 130.085 144.262 129.451 144.262 128.576C144.262 127.712 144.155 127.088 143.942 126.704C143.739 126.309 143.43 126.112 143.014 126.112C142.598 126.112 142.283 126.309 142.07 126.704C141.867 127.088 141.766 127.712 141.766 128.576C141.766 129.451 141.867 130.085 142.07 130.48C142.283 130.864 142.598 131.056 143.014 131.056Z" fill="#969EAC"/>
<rect x="18" y="116" width="18" height="18" rx="2" fill="#29CFD6"/>
<path d="M296.673 96.16C295.687 96.16 294.753 96 293.873 95.68C293.007 95.3467 292.253 94.8667 291.613 94.24L292.113 93.26C292.833 93.9 293.553 94.36 294.273 94.64C294.993 94.92 295.793 95.06 296.673 95.06C297.807 95.06 298.687 94.8133 299.313 94.32C299.953 93.8133 300.273 93.12 300.273 92.24C300.273 91.6933 300.12 91.2667 299.813 90.96C299.52 90.64 299.12 90.3867 298.613 90.2C298.12 90.0133 297.573 89.8533 296.973 89.72C296.387 89.5733 295.793 89.4133 295.193 89.24C294.593 89.0667 294.04 88.84 293.533 88.56C293.04 88.28 292.64 87.9067 292.333 87.44C292.04 86.9733 291.893 86.3667 291.893 85.62C291.893 84.8333 292.1 84.14 292.513 83.54C292.927 82.9267 293.5 82.4533 294.233 82.12C294.967 81.7733 295.8 81.6 296.733 81.6C297.333 81.6 297.913 81.6733 298.473 81.82C299.047 81.9667 299.58 82.18 300.073 82.46C300.58 82.7267 301.027 83.06 301.413 83.46L300.913 84.44C299.767 83.28 298.373 82.7 296.733 82.7C295.627 82.7 294.753 82.96 294.113 83.48C293.473 84 293.153 84.7067 293.153 85.6C293.153 86.2 293.3 86.6733 293.593 87.02C293.9 87.3667 294.307 87.6467 294.813 87.86C295.32 88.06 295.867 88.2333 296.453 88.38C297.053 88.5267 297.647 88.68 298.233 88.84C298.833 89 299.38 89.2133 299.873 89.48C300.38 89.7333 300.78 90.08 301.073 90.52C301.38 90.96 301.533 91.5267 301.533 92.22C301.533 93.0067 301.327 93.6933 300.913 94.28C300.5 94.8667 299.927 95.3267 299.193 95.66C298.46 95.9933 297.62 96.16 296.673 96.16ZM296.253 98.32V95.94L296.273 95.32V82.36L296.253 81.82V79.44H297.373V81.82L297.353 82.36V95.32L297.373 95.94V98.32H296.253ZM308.525 96.14C307.619 96.14 306.752 95.98 305.925 95.66C305.099 95.34 304.392 94.8933 303.805 94.32L304.325 93.34C304.979 93.9133 305.645 94.3467 306.325 94.64C307.019 94.92 307.752 95.06 308.525 95.06C309.565 95.06 310.365 94.8133 310.925 94.32C311.499 93.8133 311.785 93.0933 311.785 92.16C311.785 91.2 311.485 90.4867 310.885 90.02C310.299 89.54 309.432 89.3 308.285 89.3H306.745V88.22H307.965C309.085 88.22 309.945 87.96 310.545 87.44C311.159 86.92 311.465 86.1867 311.465 85.24C311.465 84.4267 311.219 83.8 310.725 83.36C310.232 82.9067 309.539 82.68 308.645 82.68C307.912 82.68 307.212 82.8267 306.545 83.12C305.879 83.4 305.212 83.8267 304.545 84.4L304.025 83.42C304.599 82.8467 305.292 82.4 306.105 82.08C306.932 81.76 307.785 81.6 308.665 81.6C309.492 81.6 310.212 81.7467 310.825 82.04C311.439 82.3333 311.905 82.7533 312.225 83.3C312.559 83.8333 312.725 84.4733 312.725 85.22C312.712 86.1 312.472 86.86 312.005 87.5C311.552 88.14 310.925 88.5667 310.125 88.78L310.045 88.58C311.019 88.78 311.759 89.1867 312.265 89.8C312.772 90.4 313.025 91.1867 313.025 92.16C313.025 93.3867 312.619 94.36 311.805 95.08C310.992 95.7867 309.899 96.14 308.525 96.14ZM322.398 96V83.3H322.858L316.478 92.52L316.498 91.7H325.838V92.76H315.678V91.82L322.618 81.76H323.638V96H322.398ZM328.61 98.14L327.99 97.64C328.31 97.28 328.517 96.9533 328.61 96.66C328.703 96.38 328.75 96.0867 328.75 95.78L329.17 96H327.97V94.26H329.67V95.56C329.67 96.0267 329.59 96.4733 329.43 96.9C329.283 97.3267 329.01 97.74 328.61 98.14ZM337.023 96.16C335.423 96.16 334.21 95.5467 333.383 94.32C332.557 93.08 332.143 91.2667 332.143 88.88C332.143 86.48 332.55 84.6667 333.363 83.44C334.19 82.2133 335.41 81.6 337.023 81.6C338.637 81.6 339.85 82.2133 340.663 83.44C341.49 84.6667 341.903 86.4733 341.903 88.86C341.903 91.2467 341.49 93.06 340.663 94.3C339.837 95.54 338.623 96.16 337.023 96.16ZM337.023 95.06C338.25 95.06 339.157 94.56 339.743 93.56C340.343 92.5467 340.643 90.98 340.643 88.86C340.643 86.74 340.35 85.1867 339.763 84.2C339.177 83.2 338.263 82.7 337.023 82.7C335.797 82.7 334.883 83.2 334.283 84.2C333.697 85.2 333.403 86.7533 333.403 88.86C333.403 90.9667 333.697 92.5267 334.283 93.54C334.883 94.5533 335.797 95.06 337.023 95.06ZM349.016 96.16C347.416 96.16 346.202 95.5467 345.376 94.32C344.549 93.08 344.136 91.2667 344.136 88.88C344.136 86.48 344.542 84.6667 345.356 83.44C346.182 82.2133 347.402 81.6 349.016 81.6C350.629 81.6 351.842 82.2133 352.656 83.44C353.482 84.6667 353.896 86.4733 353.896 88.86C353.896 91.2467 353.482 93.06 352.656 94.3C351.829 95.54 350.616 96.16 349.016 96.16ZM349.016 95.06C350.242 95.06 351.149 94.56 351.736 93.56C352.336 92.5467 352.636 90.98 352.636 88.86C352.636 86.74 352.342 85.1867 351.756 84.2C351.169 83.2 350.256 82.7 349.016 82.7C347.789 82.7 346.876 83.2 346.276 84.2C345.689 85.2 345.396 86.7533 345.396 88.86C345.396 90.9667 345.689 92.5267 346.276 93.54C346.876 94.5533 347.789 95.06 349.016 95.06ZM361.008 96.16C359.408 96.16 358.194 95.5467 357.368 94.32C356.541 93.08 356.128 91.2667 356.128 88.88C356.128 86.48 356.534 84.6667 357.348 83.44C358.174 82.2133 359.394 81.6 361.008 81.6C362.621 81.6 363.834 82.2133 364.648 83.44C365.474 84.6667 365.888 86.4733 365.888 88.86C365.888 91.2467 365.474 93.06 364.648 94.3C363.821 95.54 362.608 96.16 361.008 96.16ZM361.008 95.06C362.234 95.06 363.141 94.56 363.728 93.56C364.328 92.5467 364.628 90.98 364.628 88.86C364.628 86.74 364.334 85.1867 363.748 84.2C363.161 83.2 362.248 82.7 361.008 82.7C359.781 82.7 358.868 83.2 358.268 84.2C357.681 85.2 357.388 86.7533 357.388 88.86C357.388 90.9667 357.681 92.5267 358.268 93.54C358.868 94.5533 359.781 95.06 361.008 95.06Z" fill="#969EAC"/>
<path d="M59.376 96V84.608H60.592L65.136 94.96H64.496L69.008 84.608H70.208V96H68.864V86.624L69.36 86.688L65.312 96H64.288L60.176 86.688L60.72 86.624L60.736 96H59.376ZM75.6581 96.112C74.6875 96.112 73.9568 95.8453 73.4661 95.312C72.9861 94.768 72.7461 93.968 72.7461 92.912V87.952H74.2021V92.896C74.2021 93.5893 74.3408 94.1013 74.6181 94.432C74.9061 94.752 75.3435 94.912 75.9301 94.912C76.6128 94.912 77.1621 94.6933 77.5781 94.256C77.9941 93.808 78.2021 93.216 78.2021 92.48V87.952H79.6741V96H78.2501V94.272L78.4421 94.192C78.2288 94.8213 77.8715 95.3013 77.3701 95.632C76.8688 95.952 76.2981 96.112 75.6581 96.112ZM80.987 89.072V87.952H86.267V89.072H80.987ZM86.235 94.736V95.952C86.0537 96.0053 85.867 96.0427 85.675 96.064C85.4937 96.096 85.2963 96.112 85.083 96.112C84.2937 96.112 83.6697 95.888 83.211 95.44C82.763 94.992 82.539 94.3307 82.539 93.456V85.904L83.995 85.392V93.296C83.995 93.712 84.0537 94.0373 84.171 94.272C84.299 94.496 84.4643 94.656 84.667 94.752C84.8803 94.8373 85.1203 94.88 85.387 94.88C85.5363 94.88 85.675 94.8693 85.803 94.848C85.931 94.8267 86.075 94.7893 86.235 94.736ZM90.6738 96.112C89.7031 96.112 88.9724 95.8453 88.4818 95.312C88.0018 94.768 87.7618 93.968 87.7618 92.912V87.952H89.2178V92.896C89.2178 93.5893 89.3564 94.1013 89.6338 94.432C89.9218 94.752 90.3591 94.912 90.9458 94.912C91.6284 94.912 92.1778 94.6933 92.5938 94.256C93.0098 93.808 93.2178 93.216 93.2178 92.48V87.952H94.6898V96H93.2658V94.272L93.4578 94.192C93.2444 94.8213 92.8871 95.3013 92.3858 95.632C91.8844 95.952 91.3138 96.112 90.6738 96.112ZM100.195 96.112C99.4906 96.112 98.8666 95.9467 98.3226 95.616C97.7893 95.2747 97.3733 94.7947 97.0746 94.176C96.776 93.5467 96.6266 92.8107 96.6266 91.968C96.6266 91.1253 96.776 90.3893 97.0746 89.76C97.384 89.1307 97.8053 88.64 98.3386 88.288C98.8826 87.9253 99.5013 87.744 100.195 87.744C100.92 87.744 101.539 87.9253 102.051 88.288C102.563 88.64 102.909 89.1467 103.091 89.808L102.899 89.92V87.952H104.339V96H102.899V93.984L103.091 94.064C102.909 94.7147 102.563 95.2213 102.051 95.584C101.539 95.936 100.92 96.112 100.195 96.112ZM100.515 94.928C101.283 94.928 101.869 94.672 102.275 94.16C102.691 93.6373 102.899 92.896 102.899 91.936C102.899 90.976 102.691 90.24 102.275 89.728C101.859 89.2053 101.272 88.944 100.515 88.944C99.7573 88.944 99.1653 89.2107 98.7386 89.744C98.312 90.2773 98.0986 91.0187 98.0986 91.968C98.0986 92.9173 98.312 93.648 98.7386 94.16C99.1653 94.672 99.7573 94.928 100.515 94.928ZM106.763 96V84.224H108.219V96H106.763ZM115.032 96V84.608H122.152V85.84H116.488V89.6H121.832V90.832H116.488V96H115.032ZM126.627 96.112C125.656 96.112 124.926 95.8453 124.435 95.312C123.955 94.768 123.715 93.968 123.715 92.912V87.952H125.171V92.896C125.171 93.5893 125.31 94.1013 125.587 94.432C125.875 94.752 126.312 94.912 126.899 94.912C127.582 94.912 128.131 94.6933 128.547 94.256C128.963 93.808 129.171 93.216 129.171 92.48V87.952H130.643V96H129.219V94.272L129.411 94.192C129.198 94.8213 128.84 95.3013 128.339 95.632C127.838 95.952 127.267 96.112 126.627 96.112ZM133.06 96V90.208C133.06 89.8347 133.049 89.4613 133.028 89.088C133.017 88.704 132.985 88.3253 132.932 87.952H134.308L134.452 89.6L134.292 89.696C134.526 89.0667 134.9 88.5867 135.412 88.256C135.934 87.9147 136.532 87.744 137.204 87.744C139.134 87.744 140.1 88.816 140.1 90.96V96H138.644V91.04C138.644 90.3147 138.5 89.7867 138.212 89.456C137.934 89.1147 137.486 88.944 136.868 88.944C136.153 88.944 135.582 89.168 135.156 89.616C134.729 90.0533 134.516 90.6453 134.516 91.392V96H133.06ZM149.714 96H148.274V93.872L148.466 94.064C148.284 94.7147 147.938 95.2213 147.426 95.584C146.914 95.936 146.295 96.112 145.57 96.112C144.876 96.112 144.258 95.9413 143.714 95.6C143.18 95.248 142.759 94.7573 142.45 94.128C142.151 93.488 142.002 92.7467 142.002 91.904C142.002 91.0613 142.151 90.3307 142.45 89.712C142.748 89.0827 143.164 88.5973 143.698 88.256C144.242 87.9147 144.866 87.744 145.57 87.744C146.295 87.744 146.914 87.9253 147.426 88.288C147.938 88.6507 148.284 89.152 148.466 89.792L148.258 89.984V84.224H149.714V96ZM145.89 94.928C146.647 94.928 147.234 94.672 147.65 94.16C148.066 93.6373 148.274 92.896 148.274 91.936C148.274 90.9867 148.066 90.2507 147.65 89.728C147.244 89.2053 146.658 88.944 145.89 88.944C145.132 88.944 144.54 89.2053 144.114 89.728C143.687 90.24 143.474 90.9653 143.474 91.904C143.474 92.864 143.687 93.6107 144.114 94.144C144.54 94.6667 145.132 94.928 145.89 94.928ZM154.906 96.112C153.53 96.112 152.437 95.7653 151.626 95.072L152.09 94.016C152.517 94.3467 152.959 94.592 153.418 94.752C153.887 94.9013 154.399 94.976 154.954 94.976C155.53 94.976 155.967 94.88 156.266 94.688C156.575 94.4853 156.73 94.1973 156.73 93.824C156.73 93.5253 156.623 93.2907 156.41 93.12C156.207 92.9387 155.866 92.7893 155.386 92.672L154.042 92.352C153.349 92.2027 152.815 91.936 152.442 91.552C152.079 91.168 151.898 90.704 151.898 90.16C151.898 89.6907 152.026 89.2747 152.282 88.912C152.549 88.5493 152.917 88.2667 153.386 88.064C153.855 87.8507 154.41 87.744 155.05 87.744C155.615 87.744 156.149 87.8347 156.65 88.016C157.162 88.1973 157.594 88.4587 157.946 88.8L157.482 89.84C157.098 89.52 156.703 89.2853 156.298 89.136C155.893 88.976 155.471 88.896 155.034 88.896C154.49 88.896 154.063 89.0027 153.754 89.216C153.455 89.4293 153.306 89.7173 153.306 90.08C153.306 90.3893 153.402 90.6347 153.594 90.816C153.786 90.9973 154.09 91.1413 154.506 91.248L155.866 91.584C156.634 91.744 157.199 92.0107 157.562 92.384C157.925 92.7467 158.106 93.216 158.106 93.792C158.106 94.496 157.818 95.0613 157.242 95.488C156.666 95.904 155.887 96.112 154.906 96.112ZM164.246 92.288V91.104H168.838V92.288H164.246ZM171.264 96V94.88L175.232 90.528C175.744 89.952 176.118 89.4347 176.352 88.976C176.598 88.5067 176.72 88.0373 176.72 87.568C176.72 86.9707 176.544 86.512 176.192 86.192C175.84 85.8613 175.344 85.696 174.704 85.696C174.16 85.696 173.622 85.808 173.088 86.032C172.555 86.2453 172.027 86.5653 171.504 86.992L170.96 85.872C171.408 85.4453 171.974 85.1093 172.656 84.864C173.35 84.608 174.043 84.48 174.736 84.48C175.451 84.48 176.064 84.6027 176.576 84.848C177.088 85.0827 177.488 85.4293 177.776 85.888C178.064 86.336 178.208 86.8693 178.208 87.488C178.208 88.1387 178.059 88.7627 177.76 89.36C177.472 89.9573 176.992 90.6293 176.32 91.376L172.56 95.424L172.432 94.768H178.672V96H171.264ZM184.522 96.112C183.818 96.112 183.125 95.9893 182.442 95.744C181.77 95.4987 181.205 95.1573 180.746 94.72L181.29 93.6C181.813 94.0267 182.341 94.352 182.874 94.576C183.407 94.7893 183.957 94.896 184.522 94.896C185.301 94.896 185.909 94.6827 186.346 94.256C186.783 93.8187 187.002 93.2213 187.002 92.464C187.002 91.984 186.901 91.5627 186.698 91.2C186.506 90.8373 186.229 90.5547 185.866 90.352C185.514 90.1387 185.098 90.032 184.618 90.032C184.095 90.032 183.621 90.1387 183.194 90.352C182.767 90.5547 182.394 90.864 182.074 91.28H181.082V84.608H187.978V85.808H182.554V90.224L182.09 90.176C182.399 89.7387 182.794 89.4027 183.274 89.168C183.754 88.9333 184.293 88.816 184.89 88.816C185.615 88.816 186.245 88.9707 186.778 89.28C187.311 89.5787 187.722 90 188.01 90.544C188.298 91.088 188.442 91.7173 188.442 92.432C188.442 93.1573 188.282 93.7973 187.962 94.352C187.642 94.9067 187.189 95.3387 186.602 95.648C186.015 95.9573 185.322 96.112 184.522 96.112ZM192.212 91.504C191.423 91.504 190.799 91.216 190.34 90.64C189.881 90.064 189.652 89.1893 189.652 88.016C189.652 86.832 189.881 85.9573 190.34 85.392C190.799 84.8267 191.423 84.544 192.212 84.544C193.001 84.544 193.62 84.8267 194.068 85.392C194.527 85.9573 194.756 86.832 194.756 88.016C194.756 89.1893 194.527 90.064 194.068 90.64C193.62 91.216 193.001 91.504 192.212 91.504ZM192.212 90.496C192.628 90.496 192.937 90.304 193.14 89.92C193.353 89.5253 193.46 88.8907 193.46 88.016C193.46 87.152 193.353 86.528 193.14 86.144C192.937 85.7493 192.628 85.552 192.212 85.552C191.796 85.552 191.481 85.7493 191.268 86.144C191.065 86.528 190.964 87.152 190.964 88.016C190.964 88.8907 191.065 89.5253 191.268 89.92C191.481 90.304 191.796 90.496 192.212 90.496ZM191.988 96L198.58 84.608H199.972L193.396 96H191.988ZM199.748 96.064C198.959 96.064 198.335 95.776 197.876 95.2C197.417 94.624 197.188 93.7493 197.188 92.576C197.188 91.392 197.417 90.5173 197.876 89.952C198.335 89.3867 198.959 89.104 199.748 89.104C200.537 89.104 201.156 89.3867 201.604 89.952C202.063 90.5173 202.292 91.392 202.292 92.576C202.292 93.7493 202.063 94.624 201.604 95.2C201.156 95.776 200.537 96.064 199.748 96.064ZM199.748 95.056C200.164 95.056 200.473 94.864 200.676 94.48C200.889 94.0853 200.996 93.4507 200.996 92.576C200.996 91.712 200.889 91.088 200.676 90.704C200.473 90.3093 200.164 90.112 199.748 90.112C199.332 90.112 199.017 90.3093 198.804 90.704C198.601 91.088 198.5 91.712 198.5 92.576C198.5 93.4507 198.601 94.0853 198.804 94.48C199.017 94.864 199.332 95.056 199.748 95.056Z" fill="#969EAC"/>
<rect x="18" y="80" width="18" height="18" rx="2" fill="#FFBC02"/>
<path d="M284.681 60.16C283.694 60.16 282.761 60 281.881 59.68C281.014 59.3467 280.261 58.8667 279.621 58.24L280.121 57.26C280.841 57.9 281.561 58.36 282.281 58.64C283.001 58.92 283.801 59.06 284.681 59.06C285.814 59.06 286.694 58.8133 287.321 58.32C287.961 57.8133 288.281 57.12 288.281 56.24C288.281 55.6933 288.128 55.2667 287.821 54.96C287.528 54.64 287.128 54.3867 286.621 54.2C286.128 54.0133 285.581 53.8533 284.981 53.72C284.394 53.5733 283.801 53.4133 283.201 53.24C282.601 53.0667 282.048 52.84 281.541 52.56C281.048 52.28 280.648 51.9067 280.341 51.44C280.048 50.9733 279.901 50.3667 279.901 49.62C279.901 48.8333 280.108 48.14 280.521 47.54C280.934 46.9267 281.508 46.4533 282.241 46.12C282.974 45.7733 283.808 45.6 284.741 45.6C285.341 45.6 285.921 45.6733 286.481 45.82C287.054 45.9667 287.588 46.18 288.081 46.46C288.588 46.7267 289.034 47.06 289.421 47.46L288.921 48.44C287.774 47.28 286.381 46.7 284.741 46.7C283.634 46.7 282.761 46.96 282.121 47.48C281.481 48 281.161 48.7067 281.161 49.6C281.161 50.2 281.308 50.6733 281.601 51.02C281.908 51.3667 282.314 51.6467 282.821 51.86C283.328 52.06 283.874 52.2333 284.461 52.38C285.061 52.5267 285.654 52.68 286.241 52.84C286.841 53 287.388 53.2133 287.881 53.48C288.388 53.7333 288.788 54.08 289.081 54.52C289.388 54.96 289.541 55.5267 289.541 56.22C289.541 57.0067 289.334 57.6933 288.921 58.28C288.508 58.8667 287.934 59.3267 287.201 59.66C286.468 59.9933 285.628 60.16 284.681 60.16ZM284.261 62.32V59.94L284.281 59.32V46.36L284.261 45.82V43.44H285.381V45.82L285.361 46.36V59.32L285.381 59.94V62.32H284.261ZM296.473 59.46V46.28L297.273 46.88L293.533 49.3V48.04L297.013 45.76H297.713V59.46H296.473ZM293.313 60V58.94H300.873V60H293.313ZM304.365 60V59.06L309.425 53.42C310.132 52.6067 310.645 51.8867 310.965 51.26C311.299 50.62 311.465 49.9733 311.465 49.32C311.465 48.48 311.219 47.8333 310.725 47.38C310.245 46.9133 309.552 46.68 308.645 46.68C307.925 46.68 307.225 46.8267 306.545 47.12C305.879 47.4 305.212 47.8267 304.545 48.4L304.025 47.42C304.585 46.8733 305.285 46.4333 306.125 46.1C306.965 45.7667 307.805 45.6 308.645 45.6C309.485 45.6 310.205 45.7467 310.805 46.04C311.419 46.3333 311.892 46.76 312.225 47.32C312.559 47.8667 312.725 48.52 312.725 49.28C312.725 50.0933 312.532 50.8867 312.145 51.66C311.772 52.42 311.159 53.28 310.305 54.24L305.285 59.72L305.265 58.94H313.345V60H304.365ZM322.398 60V47.3H322.858L316.478 56.52L316.498 55.7H325.838V56.76H315.678V55.82L322.618 45.76H323.638V60H322.398ZM328.61 62.14L327.99 61.64C328.31 61.28 328.517 60.9533 328.61 60.66C328.703 60.38 328.75 60.0867 328.75 59.78L329.17 60H327.97V58.26H329.67V59.56C329.67 60.0267 329.59 60.4733 329.43 60.9C329.283 61.3267 329.01 61.74 328.61 62.14ZM337.023 60.16C335.423 60.16 334.21 59.5467 333.383 58.32C332.557 57.08 332.143 55.2667 332.143 52.88C332.143 50.48 332.55 48.6667 333.363 47.44C334.19 46.2133 335.41 45.6 337.023 45.6C338.637 45.6 339.85 46.2133 340.663 47.44C341.49 48.6667 341.903 50.4733 341.903 52.86C341.903 55.2467 341.49 57.06 340.663 58.3C339.837 59.54 338.623 60.16 337.023 60.16ZM337.023 59.06C338.25 59.06 339.157 58.56 339.743 57.56C340.343 56.5467 340.643 54.98 340.643 52.86C340.643 50.74 340.35 49.1867 339.763 48.2C339.177 47.2 338.263 46.7 337.023 46.7C335.797 46.7 334.883 47.2 334.283 48.2C333.697 49.2 333.403 50.7533 333.403 52.86C333.403 54.9667 333.697 56.5267 334.283 57.54C334.883 58.5533 335.797 59.06 337.023 59.06ZM349.016 60.16C347.416 60.16 346.202 59.5467 345.376 58.32C344.549 57.08 344.136 55.2667 344.136 52.88C344.136 50.48 344.542 48.6667 345.356 47.44C346.182 46.2133 347.402 45.6 349.016 45.6C350.629 45.6 351.842 46.2133 352.656 47.44C353.482 48.6667 353.896 50.4733 353.896 52.86C353.896 55.2467 353.482 57.06 352.656 58.3C351.829 59.54 350.616 60.16 349.016 60.16ZM349.016 59.06C350.242 59.06 351.149 58.56 351.736 57.56C352.336 56.5467 352.636 54.98 352.636 52.86C352.636 50.74 352.342 49.1867 351.756 48.2C351.169 47.2 350.256 46.7 349.016 46.7C347.789 46.7 346.876 47.2 346.276 48.2C345.689 49.2 345.396 50.7533 345.396 52.86C345.396 54.9667 345.689 56.5267 346.276 57.54C346.876 58.5533 347.789 59.06 349.016 59.06ZM361.008 60.16C359.408 60.16 358.194 59.5467 357.368 58.32C356.541 57.08 356.128 55.2667 356.128 52.88C356.128 50.48 356.534 48.6667 357.348 47.44C358.174 46.2133 359.394 45.6 361.008 45.6C362.621 45.6 363.834 46.2133 364.648 47.44C365.474 48.6667 365.888 50.4733 365.888 52.86C365.888 55.2467 365.474 57.06 364.648 58.3C363.821 59.54 362.608 60.16 361.008 60.16ZM361.008 59.06C362.234 59.06 363.141 58.56 363.728 57.56C364.328 56.5467 364.628 54.98 364.628 52.86C364.628 50.74 364.334 49.1867 363.748 48.2C363.161 47.2 362.248 46.7 361.008 46.7C359.781 46.7 358.868 47.2 358.268 48.2C357.681 49.2 357.388 50.7533 357.388 52.86C357.388 54.9667 357.681 56.5267 358.268 57.54C358.868 58.5533 359.781 59.06 361.008 59.06Z" fill="#969EAC"/>
<path d="M59.376 60V48.608H64.048C65.2 48.608 66.1013 48.8693 66.752 49.392C67.4133 49.904 67.744 50.6347 67.744 51.584C67.744 52.2453 67.5627 52.8053 67.2 53.264C66.848 53.712 66.3573 54.032 65.728 54.224V54.096C66.4427 54.2347 67.0027 54.5493 67.408 55.04C67.8133 55.5307 68.016 56.1493 68.016 56.896C68.016 57.888 67.68 58.656 67.008 59.2C66.3467 59.7333 65.408 60 64.192 60H59.376ZM60.832 58.8H64.064C64.928 58.8 65.5627 58.64 65.968 58.32C66.3733 58 66.576 57.504 66.576 56.832C66.576 56.16 66.368 55.6587 65.952 55.328C65.5467 54.9973 64.9173 54.832 64.064 54.832H60.832V58.8ZM60.832 53.6H63.808C64.64 53.6 65.264 53.44 65.68 53.12C66.096 52.8 66.304 52.32 66.304 51.68C66.304 51.0613 66.096 50.5973 65.68 50.288C65.2747 49.968 64.6507 49.808 63.808 49.808H60.832V53.6ZM73.5299 60.112C72.7512 60.112 72.0685 59.9413 71.4819 59.6C70.9059 59.2587 70.4579 58.7787 70.1379 58.16C69.8179 57.5307 69.6579 56.7893 69.6579 55.936C69.6579 55.0933 69.8179 54.3573 70.1379 53.728C70.4579 53.088 70.9059 52.5973 71.4819 52.256C72.0685 51.9147 72.7512 51.744 73.5299 51.744C74.3192 51.744 75.0019 51.9147 75.5779 52.256C76.1539 52.5973 76.6019 53.088 76.9219 53.728C77.2419 54.3573 77.4019 55.0933 77.4019 55.936C77.4019 56.7893 77.2419 57.5307 76.9219 58.16C76.6019 58.7787 76.1539 59.2587 75.5779 59.6C75.0019 59.9413 74.3192 60.112 73.5299 60.112ZM73.5299 58.928C74.2979 58.928 74.8899 58.6773 75.3059 58.176C75.7219 57.664 75.9299 56.9173 75.9299 55.936C75.9299 54.9653 75.7165 54.224 75.2899 53.712C74.8739 53.2 74.2872 52.944 73.5299 52.944C72.7832 52.944 72.1965 53.2 71.7699 53.712C71.3432 54.224 71.1299 54.9653 71.1299 55.936C71.1299 56.9173 71.3379 57.664 71.7539 58.176C72.1699 58.6773 72.7619 58.928 73.5299 58.928ZM79.3723 60V54.208C79.3723 53.8347 79.3616 53.4613 79.3403 53.088C79.3296 52.704 79.2976 52.3253 79.2443 51.952H80.6203L80.7643 53.6L80.6043 53.696C80.8389 53.0667 81.2123 52.5867 81.7243 52.256C82.2469 51.9147 82.8443 51.744 83.5163 51.744C85.4469 51.744 86.4123 52.816 86.4123 54.96V60H84.9563V55.04C84.9563 54.3147 84.8123 53.7867 84.5243 53.456C84.2469 53.1147 83.7989 52.944 83.1803 52.944C82.4656 52.944 81.8949 53.168 81.4683 53.616C81.0416 54.0533 80.8283 54.6453 80.8283 55.392V60H79.3723ZM96.0261 60H94.5861V57.872L94.7781 58.064C94.5968 58.7147 94.2501 59.2213 93.7381 59.584C93.2261 59.936 92.6075 60.112 91.8821 60.112C91.1888 60.112 90.5701 59.9413 90.0261 59.6C89.4928 59.248 89.0715 58.7573 88.7621 58.128C88.4635 57.488 88.3141 56.7467 88.3141 55.904C88.3141 55.0613 88.4635 54.3307 88.7621 53.712C89.0608 53.0827 89.4768 52.5973 90.0101 52.256C90.5541 51.9147 91.1781 51.744 91.8821 51.744C92.6075 51.744 93.2261 51.9253 93.7381 52.288C94.2501 52.6507 94.5968 53.152 94.7781 53.792L94.5701 53.984V48.224H96.0261V60ZM92.2021 58.928C92.9595 58.928 93.5461 58.672 93.9621 58.16C94.3781 57.6373 94.5861 56.896 94.5861 55.936C94.5861 54.9867 94.3781 54.2507 93.9621 53.728C93.5568 53.2053 92.9701 52.944 92.2021 52.944C91.4448 52.944 90.8528 53.2053 90.4261 53.728C89.9995 54.24 89.7861 54.9653 89.7861 55.904C89.7861 56.864 89.9995 57.6107 90.4261 58.144C90.8528 58.6667 91.4448 58.928 92.2021 58.928ZM101.218 60.112C99.8424 60.112 98.749 59.7653 97.9384 59.072L98.4024 58.016C98.829 58.3467 99.2717 58.592 99.7304 58.752C100.2 58.9013 100.712 58.976 101.266 58.976C101.842 58.976 102.28 58.88 102.578 58.688C102.888 58.4853 103.042 58.1973 103.042 57.824C103.042 57.5253 102.936 57.2907 102.722 57.12C102.52 56.9387 102.178 56.7893 101.698 56.672L100.354 56.352C99.661 56.2027 99.1277 55.936 98.7544 55.552C98.3917 55.168 98.2104 54.704 98.2104 54.16C98.2104 53.6907 98.3384 53.2747 98.5944 52.912C98.861 52.5493 99.229 52.2667 99.6984 52.064C100.168 51.8507 100.722 51.744 101.362 51.744C101.928 51.744 102.461 51.8347 102.962 52.016C103.474 52.1973 103.906 52.4587 104.258 52.8L103.794 53.84C103.41 53.52 103.016 53.2853 102.61 53.136C102.205 52.976 101.784 52.896 101.346 52.896C100.802 52.896 100.376 53.0027 100.066 53.216C99.7677 53.4293 99.6184 53.7173 99.6184 54.08C99.6184 54.3893 99.7144 54.6347 99.9064 54.816C100.098 54.9973 100.402 55.1413 100.818 55.248L102.178 55.584C102.946 55.744 103.512 56.0107 103.874 56.384C104.237 56.7467 104.418 57.216 104.418 57.792C104.418 58.496 104.13 59.0613 103.554 59.488C102.978 59.904 102.2 60.112 101.218 60.112ZM110.558 56.288V55.104H115.15V56.288H110.558ZM120.793 59.328V49.552L121.609 49.888L118.457 51.872V50.48L121.433 48.608H122.281V59.328H120.793ZM118.281 60V58.768H124.793V60H118.281ZM130.835 60.112C130.131 60.112 129.437 59.9893 128.755 59.744C128.083 59.4987 127.517 59.1573 127.059 58.72L127.603 57.6C128.125 58.0267 128.653 58.352 129.187 58.576C129.72 58.7893 130.269 58.896 130.835 58.896C131.613 58.896 132.221 58.6827 132.659 58.256C133.096 57.8187 133.315 57.2213 133.315 56.464C133.315 55.984 133.213 55.5627 133.011 55.2C132.819 54.8373 132.541 54.5547 132.179 54.352C131.827 54.1387 131.411 54.032 130.931 54.032C130.408 54.032 129.933 54.1387 129.507 54.352C129.08 54.5547 128.707 54.864 128.387 55.28H127.395V48.608H134.291V49.808H128.867V54.224L128.403 54.176C128.712 53.7387 129.107 53.4027 129.587 53.168C130.067 52.9333 130.605 52.816 131.203 52.816C131.928 52.816 132.557 52.9707 133.091 53.28C133.624 53.5787 134.035 54 134.323 54.544C134.611 55.088 134.755 55.7173 134.755 56.432C134.755 57.1573 134.595 57.7973 134.275 58.352C133.955 58.9067 133.501 59.3387 132.915 59.648C132.328 59.9573 131.635 60.112 130.835 60.112ZM138.524 55.504C137.735 55.504 137.111 55.216 136.652 54.64C136.194 54.064 135.964 53.1893 135.964 52.016C135.964 50.832 136.194 49.9573 136.652 49.392C137.111 48.8267 137.735 48.544 138.524 48.544C139.314 48.544 139.932 48.8267 140.38 49.392C140.839 49.9573 141.068 50.832 141.068 52.016C141.068 53.1893 140.839 54.064 140.38 54.64C139.932 55.216 139.314 55.504 138.524 55.504ZM138.524 54.496C138.94 54.496 139.25 54.304 139.452 53.92C139.666 53.5253 139.772 52.8907 139.772 52.016C139.772 51.152 139.666 50.528 139.452 50.144C139.25 49.7493 138.94 49.552 138.524 49.552C138.108 49.552 137.794 49.7493 137.58 50.144C137.378 50.528 137.276 51.152 137.276 52.016C137.276 52.8907 137.378 53.5253 137.58 53.92C137.794 54.304 138.108 54.496 138.524 54.496ZM138.3 60L144.892 48.608H146.284L139.708 60H138.3ZM146.06 60.064C145.271 60.064 144.647 59.776 144.188 59.2C143.73 58.624 143.5 57.7493 143.5 56.576C143.5 55.392 143.73 54.5173 144.188 53.952C144.647 53.3867 145.271 53.104 146.06 53.104C146.85 53.104 147.468 53.3867 147.916 53.952C148.375 54.5173 148.604 55.392 148.604 56.576C148.604 57.7493 148.375 58.624 147.916 59.2C147.468 59.776 146.85 60.064 146.06 60.064ZM146.06 59.056C146.476 59.056 146.786 58.864 146.988 58.48C147.202 58.0853 147.308 57.4507 147.308 56.576C147.308 55.712 147.202 55.088 146.988 54.704C146.786 54.3093 146.476 54.112 146.06 54.112C145.644 54.112 145.33 54.3093 145.116 54.704C144.914 55.088 144.812 55.712 144.812 56.576C144.812 57.4507 144.914 58.0853 145.116 58.48C145.33 58.864 145.644 59.056 146.06 59.056Z" fill="#969EAC"/>
<rect x="18" y="44" width="18" height="18" rx="2" fill="#1F32AD"/>
<path d="M284.681 24.16C283.694 24.16 282.761 24 281.881 23.68C281.014 23.3467 280.261 22.8667 279.621 22.24L280.121 21.26C280.841 21.9 281.561 22.36 282.281 22.64C283.001 22.92 283.801 23.06 284.681 23.06C285.814 23.06 286.694 22.8133 287.321 22.32C287.961 21.8133 288.281 21.12 288.281 20.24C288.281 19.6933 288.128 19.2667 287.821 18.96C287.528 18.64 287.128 18.3867 286.621 18.2C286.128 18.0133 285.581 17.8533 284.981 17.72C284.394 17.5733 283.801 17.4133 283.201 17.24C282.601 17.0667 282.048 16.84 281.541 16.56C281.048 16.28 280.648 15.9067 280.341 15.44C280.048 14.9733 279.901 14.3667 279.901 13.62C279.901 12.8333 280.108 12.14 280.521 11.54C280.934 10.9267 281.508 10.4533 282.241 10.12C282.974 9.77333 283.808 9.6 284.741 9.6C285.341 9.6 285.921 9.67333 286.481 9.82C287.054 9.96667 287.588 10.18 288.081 10.46C288.588 10.7267 289.034 11.06 289.421 11.46L288.921 12.44C287.774 11.28 286.381 10.7 284.741 10.7C283.634 10.7 282.761 10.96 282.121 11.48C281.481 12 281.161 12.7067 281.161 13.6C281.161 14.2 281.308 14.6733 281.601 15.02C281.908 15.3667 282.314 15.6467 282.821 15.86C283.328 16.06 283.874 16.2333 284.461 16.38C285.061 16.5267 285.654 16.68 286.241 16.84C286.841 17 287.388 17.2133 287.881 17.48C288.388 17.7333 288.788 18.08 289.081 18.52C289.388 18.96 289.541 19.5267 289.541 20.22C289.541 21.0067 289.334 21.6933 288.921 22.28C288.508 22.8667 287.934 23.3267 287.201 23.66C286.468 23.9933 285.628 24.16 284.681 24.16ZM284.261 26.32V23.94L284.281 23.32V10.36L284.261 9.82V7.44H285.381V9.82L285.361 10.36V23.32L285.381 23.94V26.32H284.261ZM292.373 24V23.06L297.433 17.42C298.14 16.6067 298.653 15.8867 298.973 15.26C299.307 14.62 299.473 13.9733 299.473 13.32C299.473 12.48 299.227 11.8333 298.733 11.38C298.253 10.9133 297.56 10.68 296.653 10.68C295.933 10.68 295.233 10.8267 294.553 11.12C293.887 11.4 293.22 11.8267 292.553 12.4L292.033 11.42C292.593 10.8733 293.293 10.4333 294.133 10.1C294.973 9.76667 295.813 9.6 296.653 9.6C297.493 9.6 298.213 9.74667 298.813 10.04C299.427 10.3333 299.9 10.76 300.233 11.32C300.567 11.8667 300.733 12.52 300.733 13.28C300.733 14.0933 300.54 14.8867 300.153 15.66C299.78 16.42 299.167 17.28 298.313 18.24L293.293 23.72L293.273 22.94H301.353V24H292.373ZM308.525 24.14C307.619 24.14 306.752 23.98 305.925 23.66C305.099 23.34 304.392 22.8933 303.805 22.32L304.325 21.34C304.979 21.9133 305.645 22.3467 306.325 22.64C307.019 22.92 307.752 23.06 308.525 23.06C309.565 23.06 310.365 22.8133 310.925 22.32C311.499 21.8133 311.785 21.0933 311.785 20.16C311.785 19.2 311.485 18.4867 310.885 18.02C310.299 17.54 309.432 17.3 308.285 17.3H306.745V16.22H307.965C309.085 16.22 309.945 15.96 310.545 15.44C311.159 14.92 311.465 14.1867 311.465 13.24C311.465 12.4267 311.219 11.8 310.725 11.36C310.232 10.9067 309.539 10.68 308.645 10.68C307.912 10.68 307.212 10.8267 306.545 11.12C305.879 11.4 305.212 11.8267 304.545 12.4L304.025 11.42C304.599 10.8467 305.292 10.4 306.105 10.08C306.932 9.76 307.785 9.6 308.665 9.6C309.492 9.6 310.212 9.74667 310.825 10.04C311.439 10.3333 311.905 10.7533 312.225 11.3C312.559 11.8333 312.725 12.4733 312.725 13.22C312.712 14.1 312.472 14.86 312.005 15.5C311.552 16.14 310.925 16.5667 310.125 16.78L310.045 16.58C311.019 16.78 311.759 17.1867 312.265 17.8C312.772 18.4 313.025 19.1867 313.025 20.16C313.025 21.3867 312.619 22.36 311.805 23.08C310.992 23.7867 309.899 24.14 308.525 24.14ZM320.918 24.14C320.064 24.14 319.224 23.98 318.398 23.66C317.571 23.34 316.864 22.8933 316.278 22.32L316.798 21.34C317.451 21.9 318.118 22.3267 318.798 22.62C319.478 22.9133 320.184 23.06 320.918 23.06C321.958 23.06 322.778 22.7533 323.378 22.14C323.991 21.5133 324.298 20.68 324.298 19.64C324.298 18.9733 324.164 18.3867 323.898 17.88C323.631 17.36 323.251 16.96 322.758 16.68C322.278 16.3867 321.704 16.24 321.038 16.24C320.291 16.24 319.638 16.3933 319.078 16.7C318.518 16.9933 318.031 17.4533 317.618 18.08H316.658V9.76H325.018V10.82H317.898V17.08L317.498 17.02C317.871 16.4333 318.371 15.9733 318.998 15.64C319.624 15.3067 320.331 15.14 321.118 15.14C322.038 15.14 322.824 15.3333 323.478 15.72C324.144 16.0933 324.651 16.62 324.998 17.3C325.358 17.98 325.538 18.76 325.538 19.64C325.538 20.52 325.351 21.3 324.978 21.98C324.604 22.66 324.071 23.1933 323.378 23.58C322.684 23.9533 321.864 24.14 320.918 24.14ZM328.61 26.14L327.99 25.64C328.31 25.28 328.517 24.9533 328.61 24.66C328.703 24.38 328.75 24.0867 328.75 23.78L329.17 24H327.97V22.26H329.67V23.56C329.67 24.0267 329.59 24.4733 329.43 24.9C329.283 25.3267 329.01 25.74 328.61 26.14ZM337.023 24.16C335.423 24.16 334.21 23.5467 333.383 22.32C332.557 21.08 332.143 19.2667 332.143 16.88C332.143 14.48 332.55 12.6667 333.363 11.44C334.19 10.2133 335.41 9.6 337.023 9.6C338.637 9.6 339.85 10.2133 340.663 11.44C341.49 12.6667 341.903 14.4733 341.903 16.86C341.903 19.2467 341.49 21.06 340.663 22.3C339.837 23.54 338.623 24.16 337.023 24.16ZM337.023 23.06C338.25 23.06 339.157 22.56 339.743 21.56C340.343 20.5467 340.643 18.98 340.643 16.86C340.643 14.74 340.35 13.1867 339.763 12.2C339.177 11.2 338.263 10.7 337.023 10.7C335.797 10.7 334.883 11.2 334.283 12.2C333.697 13.2 333.403 14.7533 333.403 16.86C333.403 18.9667 333.697 20.5267 334.283 21.54C334.883 22.5533 335.797 23.06 337.023 23.06ZM349.016 24.16C347.416 24.16 346.202 23.5467 345.376 22.32C344.549 21.08 344.136 19.2667 344.136 16.88C344.136 14.48 344.542 12.6667 345.356 11.44C346.182 10.2133 347.402 9.6 349.016 9.6C350.629 9.6 351.842 10.2133 352.656 11.44C353.482 12.6667 353.896 14.4733 353.896 16.86C353.896 19.2467 353.482 21.06 352.656 22.3C351.829 23.54 350.616 24.16 349.016 24.16ZM349.016 23.06C350.242 23.06 351.149 22.56 351.736 21.56C352.336 20.5467 352.636 18.98 352.636 16.86C352.636 14.74 352.342 13.1867 351.756 12.2C351.169 11.2 350.256 10.7 349.016 10.7C347.789 10.7 346.876 11.2 346.276 12.2C345.689 13.2 345.396 14.7533 345.396 16.86C345.396 18.9667 345.689 20.5267 346.276 21.54C346.876 22.5533 347.789 23.06 349.016 23.06ZM361.008 24.16C359.408 24.16 358.194 23.5467 357.368 22.32C356.541 21.08 356.128 19.2667 356.128 16.88C356.128 14.48 356.534 12.6667 357.348 11.44C358.174 10.2133 359.394 9.6 361.008 9.6C362.621 9.6 363.834 10.2133 364.648 11.44C365.474 12.6667 365.888 14.4733 365.888 16.86C365.888 19.2467 365.474 21.06 364.648 22.3C363.821 23.54 362.608 24.16 361.008 24.16ZM361.008 23.06C362.234 23.06 363.141 22.56 363.728 21.56C364.328 20.5467 364.628 18.98 364.628 16.86C364.628 14.74 364.334 13.1867 363.748 12.2C363.161 11.2 362.248 10.7 361.008 10.7C359.781 10.7 358.868 11.2 358.268 12.2C357.681 13.2 357.388 14.7533 357.388 16.86C357.388 18.9667 357.681 20.5267 358.268 21.54C358.868 22.5533 359.781 23.06 361.008 23.06Z" fill="#10C273"/>
<path d="M63.04 24.128C62.4533 24.128 61.8987 24.08 61.376 23.984C60.864 23.8773 60.384 23.7173 59.936 23.504C59.4987 23.2907 59.104 23.024 58.752 22.704L59.296 21.584C59.8613 22.0533 60.4373 22.3893 61.024 22.592C61.6107 22.7947 62.288 22.896 63.056 22.896C63.9413 22.896 64.624 22.7253 65.104 22.384C65.584 22.0427 65.824 21.5627 65.824 20.944C65.824 20.5707 65.7067 20.272 65.472 20.048C65.2373 19.8133 64.9067 19.6267 64.48 19.488C64.064 19.3387 63.584 19.2 63.04 19.072C62.464 18.9547 61.9253 18.816 61.424 18.656C60.9333 18.496 60.5013 18.2987 60.128 18.064C59.7547 17.8187 59.4667 17.5147 59.264 17.152C59.0613 16.7893 58.96 16.3413 58.96 15.808C58.96 15.1573 59.1307 14.5813 59.472 14.08C59.824 13.5787 60.3147 13.1893 60.944 12.912C61.5733 12.624 62.3147 12.48 63.168 12.48C63.6907 12.48 64.192 12.5387 64.672 12.656C65.1627 12.7627 65.616 12.9227 66.032 13.136C66.448 13.3387 66.8107 13.5947 67.12 13.904L66.576 15.024C66.0533 14.576 65.5147 14.2453 64.96 14.032C64.4053 13.8187 63.808 13.712 63.168 13.712C62.3147 13.712 61.6427 13.8933 61.152 14.256C60.672 14.608 60.432 15.104 60.432 15.744C60.432 16.1387 60.5387 16.4587 60.752 16.704C60.9653 16.9493 61.2693 17.1467 61.664 17.296C62.0587 17.4453 62.528 17.584 63.072 17.712C63.648 17.84 64.192 17.984 64.704 18.144C65.216 18.304 65.664 18.496 66.048 18.72C66.4427 18.944 66.752 19.232 66.976 19.584C67.2 19.9253 67.312 20.3573 67.312 20.88C67.312 21.5413 67.1413 22.1173 66.8 22.608C66.4587 23.088 65.968 23.4613 65.328 23.728C64.688 23.9947 63.9253 24.128 63.04 24.128ZM68.0964 17.072V15.952H73.3764V17.072H68.0964ZM73.3444 22.736V23.952C73.163 24.0053 72.9764 24.0427 72.7844 24.064C72.603 24.096 72.4057 24.112 72.1924 24.112C71.403 24.112 70.779 23.888 70.3204 23.44C69.8724 22.992 69.6484 22.3307 69.6484 21.456V13.904L71.1044 13.392V21.296C71.1044 21.712 71.163 22.0373 71.2804 22.272C71.4084 22.496 71.5737 22.656 71.7764 22.752C71.9897 22.8373 72.2297 22.88 72.4964 22.88C72.6457 22.88 72.7844 22.8693 72.9124 22.848C73.0404 22.8267 73.1844 22.7893 73.3444 22.736ZM78.3111 24.112C77.5325 24.112 76.8498 23.9413 76.2631 23.6C75.6871 23.2587 75.2391 22.7787 74.9191 22.16C74.5991 21.5307 74.4391 20.7893 74.4391 19.936C74.4391 19.0933 74.5991 18.3573 74.9191 17.728C75.2391 17.088 75.6871 16.5973 76.2631 16.256C76.8498 15.9147 77.5325 15.744 78.3111 15.744C79.1005 15.744 79.7831 15.9147 80.3591 16.256C80.9351 16.5973 81.3831 17.088 81.7031 17.728C82.0231 18.3573 82.1831 19.0933 82.1831 19.936C82.1831 20.7893 82.0231 21.5307 81.7031 22.16C81.3831 22.7787 80.9351 23.2587 80.3591 23.6C79.7831 23.9413 79.1005 24.112 78.3111 24.112ZM78.3111 22.928C79.0791 22.928 79.6711 22.6773 80.0871 22.176C80.5031 21.664 80.7111 20.9173 80.7111 19.936C80.7111 18.9653 80.4978 18.224 80.0711 17.712C79.6551 17.2 79.0685 16.944 78.3111 16.944C77.5645 16.944 76.9778 17.2 76.5511 17.712C76.1245 18.224 75.9111 18.9653 75.9111 19.936C75.9111 20.9173 76.1191 21.664 76.5351 22.176C76.9511 22.6773 77.5431 22.928 78.3111 22.928ZM87.5935 24.112C86.7828 24.112 86.0842 23.9413 85.4975 23.6C84.9215 23.2587 84.4735 22.7787 84.1535 22.16C83.8335 21.5413 83.6735 20.8107 83.6735 19.968C83.6735 19.136 83.8335 18.4 84.1535 17.76C84.4842 17.12 84.9482 16.624 85.5455 16.272C86.1428 15.92 86.8468 15.744 87.6575 15.744C88.2122 15.744 88.7455 15.84 89.2575 16.032C89.7695 16.2133 90.1908 16.4693 90.5215 16.8L90.0575 17.856C89.6735 17.5573 89.2895 17.3333 88.9055 17.184C88.5322 17.024 88.1428 16.944 87.7375 16.944C86.9588 16.944 86.3348 17.2053 85.8655 17.728C85.4068 18.2507 85.1775 18.9973 85.1775 19.968C85.1775 20.9173 85.4068 21.648 85.8655 22.16C86.3242 22.672 86.9535 22.928 87.7535 22.928C88.1375 22.928 88.5215 22.8533 88.9055 22.704C89.2895 22.5547 89.6735 22.3253 90.0575 22.016L90.5215 23.072C90.1802 23.392 89.7482 23.648 89.2255 23.84C88.7028 24.0213 88.1588 24.112 87.5935 24.112ZM97.5466 24L93.2746 19.888L97.2426 15.968H99.0666L94.6506 20.272L94.7146 19.424L99.4186 24H97.5466ZM92.1066 24V12.224H93.5626V24H92.1066ZM103.109 24.112C101.733 24.112 100.64 23.7653 99.829 23.072L100.293 22.016C100.72 22.3467 101.162 22.592 101.621 22.752C102.09 22.9013 102.602 22.976 103.157 22.976C103.733 22.976 104.17 22.88 104.469 22.688C104.778 22.4853 104.933 22.1973 104.933 21.824C104.933 21.5253 104.826 21.2907 104.613 21.12C104.41 20.9387 104.069 20.7893 103.589 20.672L102.245 20.352C101.552 20.2027 101.018 19.936 100.645 19.552C100.282 19.168 100.101 18.704 100.101 18.16C100.101 17.6907 100.229 17.2747 100.485 16.912C100.752 16.5493 101.12 16.2667 101.589 16.064C102.058 15.8507 102.613 15.744 103.253 15.744C103.818 15.744 104.352 15.8347 104.853 16.016C105.365 16.1973 105.797 16.4587 106.149 16.8L105.685 17.84C105.301 17.52 104.906 17.2853 104.501 17.136C104.096 16.976 103.674 16.896 103.237 16.896C102.693 16.896 102.266 17.0027 101.957 17.216C101.658 17.4293 101.509 17.7173 101.509 18.08C101.509 18.3893 101.605 18.6347 101.797 18.816C101.989 18.9973 102.293 19.1413 102.709 19.248L104.069 19.584C104.837 19.744 105.402 20.0107 105.765 20.384C106.128 20.7467 106.309 21.216 106.309 21.792C106.309 22.496 106.021 23.0613 105.445 23.488C104.869 23.904 104.09 24.112 103.109 24.112ZM112.449 20.288V19.104H117.041V20.288H112.449ZM122.684 23.328V13.552L123.5 13.888L120.348 15.872V14.48L123.324 12.608H124.172V23.328H122.684ZM120.172 24V22.768H126.684V24H120.172ZM132.581 24.128C131.269 24.128 130.272 23.6373 129.589 22.656C128.907 21.664 128.565 20.2133 128.565 18.304C128.565 16.3947 128.901 14.9493 129.573 13.968C130.256 12.976 131.259 12.48 132.581 12.48C133.904 12.48 134.901 12.976 135.573 13.968C136.256 14.9493 136.597 16.3893 136.597 18.288C136.597 20.1973 136.256 21.648 135.573 22.64C134.891 23.632 133.893 24.128 132.581 24.128ZM132.581 22.912C133.445 22.912 134.08 22.5387 134.485 21.792C134.901 21.0453 135.109 19.8773 135.109 18.288C135.109 16.6987 134.901 15.5413 134.485 14.816C134.08 14.08 133.445 13.712 132.581 13.712C131.717 13.712 131.077 14.08 130.661 14.816C130.256 15.552 130.053 16.7093 130.053 18.288C130.053 19.8773 130.256 21.0453 130.661 21.792C131.077 22.5387 131.717 22.912 132.581 22.912ZM140.415 19.504C139.626 19.504 139.002 19.216 138.543 18.64C138.084 18.064 137.855 17.1893 137.855 16.016C137.855 14.832 138.084 13.9573 138.543 13.392C139.002 12.8267 139.626 12.544 140.415 12.544C141.204 12.544 141.823 12.8267 142.271 13.392C142.73 13.9573 142.959 14.832 142.959 16.016C142.959 17.1893 142.73 18.064 142.271 18.64C141.823 19.216 141.204 19.504 140.415 19.504ZM140.415 18.496C140.831 18.496 141.14 18.304 141.343 17.92C141.556 17.5253 141.663 16.8907 141.663 16.016C141.663 15.152 141.556 14.528 141.343 14.144C141.14 13.7493 140.831 13.552 140.415 13.552C139.999 13.552 139.684 13.7493 139.471 14.144C139.268 14.528 139.167 15.152 139.167 16.016C139.167 16.8907 139.268 17.5253 139.471 17.92C139.684 18.304 139.999 18.496 140.415 18.496ZM140.191 24L146.783 12.608H148.175L141.599 24H140.191ZM147.951 24.064C147.162 24.064 146.538 23.776 146.079 23.2C145.62 22.624 145.391 21.7493 145.391 20.576C145.391 19.392 145.62 18.5173 146.079 17.952C146.538 17.3867 147.162 17.104 147.951 17.104C148.74 17.104 149.359 17.3867 149.807 17.952C150.266 18.5173 150.495 19.392 150.495 20.576C150.495 21.7493 150.266 22.624 149.807 23.2C149.359 23.776 148.74 24.064 147.951 24.064ZM147.951 23.056C148.367 23.056 148.676 22.864 148.879 22.48C149.092 22.0853 149.199 21.4507 149.199 20.576C149.199 19.712 149.092 19.088 148.879 18.704C148.676 18.3093 148.367 18.112 147.951 18.112C147.535 18.112 147.22 18.3093 147.007 18.704C146.804 19.088 146.703 19.712 146.703 20.576C146.703 21.4507 146.804 22.0853 147.007 22.48C147.22 22.864 147.535 23.056 147.951 23.056Z" fill="#10C273"/>
<g filter="url(#filter0_d)">
<rect x="16" y="6" width="22" height="22" rx="2" fill="#235EE7"/>
</g>
<path d="M1.25 20.75L5.75 16.25L1.25 11.75" stroke="#969EAC" stroke-width="1.3" stroke-linejoin="round"/>
<defs>
<filter id="filter0_d" x="8" y="0" width="38" height="38" filterUnits="userSpaceOnUse" color-interpolation-filters="sRGB">
<feFlood flood-opacity="0" result="BackgroundImageFix"/>
<feColorMatrix in="SourceAlpha" type="matrix" values="0 0 0 0 0 0 0 0 0 0 0 0 0 0 0 0 0 0 127 0"/>
<feOffset dy="2"/>
<feGaussianBlur stdDeviation="4"/>
<feColorMatrix type="matrix" values="0 0 0 0 0.18 0 0 0 0 0.252615 0 0 0 0 0.42 0 0 0 0.4 0"/>
<feBlend mode="normal" in2="BackgroundImageFix" result="effect1_dropShadow"/>
<feBlend mode="normal" in="SourceGraphic" in2="effect1_dropShadow" result="shape"/>
</filter>
</defs>
</svg>
