<svg width="325" height="321" viewBox="0 0 325 321" fill="none" xmlns="http://www.w3.org/2000/svg">
<path d="M154.5 12C127.38 12 100.737 19.1389 77.25 32.6991C53.763 46.2593 34.2593 65.763 20.6991 89.25L74.2194 120.15C82.3556 106.058 94.0578 94.3556 108.15 86.2194C122.242 78.0833 138.228 73.8 154.5 73.8V12Z" fill="#D3365F"/>
<path d="M20.6991 89.25C7.13886 112.737 -4.09507e-06 139.38 0 166.5L61.8 166.5C61.8 150.228 66.0833 134.242 74.2194 120.15L20.6991 89.25Z" fill="#29CFD6"/>
<path d="M0 166.5C-2.37094e-06 193.62 7.13886 220.263 20.6991 243.75C34.2593 267.237 53.763 286.741 77.25 300.301L108.15 246.781C94.0578 238.644 82.3556 226.942 74.2194 212.85C66.0833 198.758 61.8 182.772 61.8 166.5H0Z" fill="#FFBC02"/>
<path d="M77.25 300.301C94.821 310.446 114.218 317.03 134.334 319.678C154.449 322.327 174.89 320.987 194.488 315.736C214.085 310.484 232.457 301.424 248.554 289.073C264.65 276.722 278.156 261.321 288.301 243.75L234.781 212.85C228.694 223.393 220.59 232.633 210.932 240.044C201.274 247.455 190.251 252.891 178.493 256.041C166.734 259.192 154.47 259.996 142.4 258.407C130.331 256.818 118.693 252.867 108.15 246.781L77.25 300.301Z" fill="#1F32AD"/>
<g filter="url(#filter0_d)">
<path d="M288.301 243.75C301.861 220.263 309 193.62 309 166.5C309 139.38 301.861 112.737 288.301 89.25C274.741 65.763 255.237 46.2593 231.75 32.6991C208.263 19.1389 181.62 12 154.5 12V73.8C170.772 73.8 186.758 78.0833 200.85 86.2194C214.942 94.3556 226.644 106.058 234.781 120.15C242.917 134.242 247.2 150.228 247.2 166.5C247.2 182.772 242.917 198.758 234.781 212.85L288.301 243.75Z" fill="#235EE7"/>
</g>
<defs>
<filter id="filter0_d" x="138.5" y="0" width="186.5" height="263.75" filterUnits="userSpaceOnUse" color-interpolation-filters="sRGB">
<feFlood flood-opacity="0" result="BackgroundImageFix"/>
<feColorMatrix in="SourceAlpha" type="matrix" values="0 0 0 0 0 0 0 0 0 0 0 0 0 0 0 0 0 0 127 0"/>
<feOffset dy="4"/>
<feGaussianBlur stdDeviation="8"/>
<feColorMatrix type="matrix" values="0 0 0 0 0.18 0 0 0 0 0.252615 0 0 0 0 0.42 0 0 0 0.4 0"/>
<feBlend mode="normal" in2="BackgroundImageFix" result="effect1_dropShadow"/>
<feBlend mode="normal" in="SourceGraphic" in2="effect1_dropShadow" result="shape"/>
</filter>
</defs>
</svg>
