<svg width="22" height="22" viewBox="0 0 22 22" fill="none" xmlns="http://www.w3.org/2000/svg">
<path class="icon-link" fill-rule="evenodd" clip-rule="evenodd" d="M9.78736 3.03176C10.0966 3.37505 10.537 3.57105 10.999 3.57105C11.4611 3.57105 11.9014 3.37505 12.2107 3.03176L12.999 2.16676C13.462 1.65438 14.1973 1.48873 14.8352 1.75308C15.4732 2.01743 15.8758 2.6546 15.8407 3.34426L15.7815 4.51093C15.7584 4.97116 15.9309 5.41971 16.2565 5.74579C16.5821 6.07187 17.0304 6.24507 17.4907 6.2226L18.6574 6.16343C19.3466 6.12945 19.9827 6.53248 20.2464 7.17015C20.51 7.80783 20.3443 8.54242 19.8324 9.0051L18.964 9.78843C18.6212 10.0981 18.4255 10.5385 18.4255 11.0005C18.4255 11.4625 18.6212 11.9029 18.964 12.2126L19.8324 12.9959C20.3447 13.4589 20.5104 14.1942 20.246 14.8321C19.9817 15.4701 19.3445 15.8727 18.6549 15.8376L17.4882 15.7784C17.0269 15.7547 16.5772 15.9276 16.2506 16.2542C15.924 16.5808 15.7511 17.0305 15.7749 17.4918L15.834 18.6584C15.8646 19.3445 15.4626 19.9763 14.8282 20.2392C14.1938 20.5021 13.4627 20.3399 12.999 19.8334L12.2149 18.9659C11.9053 18.6231 11.4651 18.4275 11.0032 18.4275C10.5413 18.4275 10.1011 18.6231 9.79152 18.9659L9.00402 19.8334C8.54102 20.3424 7.80864 20.5064 7.17281 20.2435C6.53698 19.9807 6.13419 19.3474 6.16569 18.6601L6.22569 17.4934C6.24942 17.0322 6.07654 16.5824 5.74994 16.2558C5.42334 15.9292 4.97363 15.7564 4.51236 15.7801L3.34569 15.8393C2.6563 15.8752 2.01887 15.4735 1.75393 14.836C1.48899 14.1986 1.65388 13.4634 2.16569 13.0001L3.03319 12.2168C3.37604 11.9071 3.5717 11.4667 3.5717 11.0047C3.5717 10.5427 3.37604 10.1023 3.03319 9.7926L2.16569 9.0051C1.6556 8.54239 1.49095 7.80923 1.75421 7.17284C2.01747 6.53646 2.65195 6.13388 3.33986 6.16676L4.50652 6.22593C4.96869 6.25023 5.41942 6.07712 5.74651 5.74972C6.0736 5.42231 6.24627 4.9714 6.22152 4.50926L6.16569 3.34176C6.13343 2.65416 6.53595 2.0202 7.17197 1.7569C7.80799 1.4936 8.54083 1.65755 9.00402 2.16676L9.78736 3.03176Z" stroke="#969EAC" stroke-width="1.5" stroke-linecap="round" stroke-linejoin="round"/>
<path class="icon-link" fill-rule="evenodd" clip-rule="evenodd" d="M11 14.7509C13.0711 14.7509 14.75 13.072 14.75 11.0009C14.75 8.92986 13.0711 7.25093 11 7.25093C8.92893 7.25093 7.25 8.92986 7.25 11.0009C7.25 13.072 8.92893 14.7509 11 14.7509Z" stroke="#969EAC" stroke-width="1.5" stroke-linecap="round" stroke-linejoin="round"/>
</svg>
