<svg width="23" height="24" viewBox="0 0 23 24" fill="none" xmlns="http://www.w3.org/2000/svg">
<path class="icon-link" fill-rule="evenodd" clip-rule="evenodd" d="M13.9673 5.69428C10.2991 6.34072 7.29681 8.97712 6.18169 12.5309C5.06658 16.0848 6.0245 19.9638 8.66575 22.59C6.22497 20.1492 6.22497 16.1919 8.66575 13.7512C10.0567 12.3619 12.0259 11.7177 13.969 12.0164L13.9673 15.7764C13.9674 16.0292 14.1198 16.257 14.3534 16.3536C14.587 16.4502 14.8558 16.3966 15.0344 16.2178L21.0383 10.2139C21.5265 9.72571 21.5265 8.93425 21.0383 8.4461L15.0344 2.44217C14.8558 2.26336 14.587 2.20976 14.3534 2.30636C14.1198 2.40297 13.9674 2.63076 13.9673 2.88353L13.9673 5.69428Z" stroke="#969EAC" stroke-width="1.5" stroke-linecap="round" stroke-linejoin="round"/>
</svg>
