<svg width="201" height="24" viewBox="0 0 201 24" fill="none"
    xmlns="http://www.w3.org/2000/svg">
    <path d="M42.847 19V11.168H46.246C47.0967 11.168 47.753 11.3733 48.215 11.784C48.6843 12.1873 48.919 12.741 48.919 13.445C48.919 14.1417 48.6807 14.6953 48.204 15.106C47.7347 15.5167 47.082 15.722 46.246 15.722H44.266V19H42.847ZM44.266 14.633H46.081C46.5797 14.633 46.95 14.5303 47.192 14.325C47.4413 14.1197 47.566 13.83 47.566 13.456C47.566 13.0747 47.445 12.785 47.203 12.587C46.961 12.3817 46.587 12.279 46.081 12.279H44.266V14.633ZM52.3732 19V11.168H55.7282C56.6155 11.168 57.2902 11.3623 57.7522 11.751C58.2142 12.1397 58.4452 12.697 58.4452 13.423C58.4452 14.1123 58.2068 14.6623 57.7302 15.073C57.2535 15.4763 56.5898 15.678 55.7392 15.678L56.6192 15.502C56.8905 15.502 57.1325 15.5827 57.3452 15.744C57.5578 15.9053 57.7265 16.1547 57.8512 16.492L58.8192 19H57.3232L56.3332 16.393C56.2305 16.1363 56.0838 15.964 55.8932 15.876C55.7098 15.788 55.4788 15.744 55.2002 15.744H53.7702V19H52.3732ZM53.7592 14.644H55.5302C56.0728 14.644 56.4688 14.545 56.7182 14.347C56.9675 14.149 57.0922 13.852 57.0922 13.456C57.0922 13.0527 56.9675 12.7557 56.7182 12.565C56.4688 12.3743 56.0728 12.279 55.5302 12.279H53.7592V14.644ZM65.7191 19.088C64.9564 19.088 64.2964 18.9267 63.7391 18.604C63.1818 18.2813 62.7528 17.8193 62.4521 17.218C62.1514 16.6167 62.0011 15.9053 62.0011 15.084C62.0011 14.2553 62.1514 13.544 62.4521 12.95C62.7528 12.3487 63.1818 11.8867 63.7391 11.564C64.2964 11.2413 64.9564 11.08 65.7191 11.08C66.4891 11.08 67.1528 11.2413 67.7101 11.564C68.2674 11.8867 68.6964 12.3487 68.9971 12.95C69.2978 13.544 69.4481 14.2517 69.4481 15.073C69.4481 15.9017 69.2941 16.6167 68.9861 17.218C68.6854 17.8193 68.2564 18.2813 67.6991 18.604C67.1491 18.9267 66.4891 19.088 65.7191 19.088ZM65.7191 17.966C66.4378 17.966 67.0024 17.7203 67.4131 17.229C67.8238 16.7303 68.0291 16.0117 68.0291 15.073C68.0291 14.1343 67.8238 13.423 67.4131 12.939C67.0024 12.4477 66.4378 12.202 65.7191 12.202C65.0078 12.202 64.4468 12.4477 64.0361 12.939C63.6254 13.423 63.4201 14.1343 63.4201 15.073C63.4201 16.0117 63.6254 16.7303 64.0361 17.229C64.4468 17.7203 65.0078 17.966 65.7191 17.966ZM75.4382 19L71.9512 11.168H73.4362L76.2522 17.746H75.8012L78.6502 11.168H80.0802L76.6042 19H75.4382ZM83.0249 19V11.168H84.4439V19H83.0249ZM88.3509 19V11.168H91.2329C92.0909 11.168 92.8206 11.322 93.4219 11.63C94.0232 11.938 94.4816 12.3853 94.7969 12.972C95.1196 13.5513 95.2809 14.2517 95.2809 15.073C95.2809 15.9017 95.1196 16.6093 94.7969 17.196C94.4816 17.7827 94.0196 18.23 93.4109 18.538C92.8096 18.846 92.0836 19 91.2329 19H88.3509ZM89.7699 17.845H91.1449C92.0469 17.845 92.7216 17.614 93.1689 17.152C93.6236 16.69 93.8509 15.997 93.8509 15.073C93.8509 13.2397 92.9489 12.323 91.1449 12.323H89.7699V17.845ZM98.9191 19V11.168H104.155V12.279H100.305V14.457H103.935V15.579H100.305V17.889H104.155V19H98.9191ZM107.661 19V11.168H110.543C111.401 11.168 112.131 11.322 112.732 11.63C113.333 11.938 113.792 12.3853 114.107 12.972C114.43 13.5513 114.591 14.2517 114.591 15.073C114.591 15.9017 114.43 16.6093 114.107 17.196C113.792 17.7827 113.33 18.23 112.721 18.538C112.12 18.846 111.394 19 110.543 19H107.661ZM109.08 17.845H110.455C111.357 17.845 112.032 17.614 112.479 17.152C112.934 16.69 113.161 15.997 113.161 15.073C113.161 13.2397 112.259 12.323 110.455 12.323H109.08V17.845ZM123.448 19V11.168H126.891C127.69 11.168 128.321 11.3477 128.783 11.707C129.252 12.0663 129.487 12.5687 129.487 13.214C129.487 13.654 129.366 14.0317 129.124 14.347C128.882 14.6623 128.541 14.8823 128.101 15.007V14.919C128.607 15.029 128.995 15.2527 129.267 15.59C129.545 15.9273 129.685 16.3527 129.685 16.866C129.685 17.5333 129.446 18.0577 128.97 18.439C128.5 18.813 127.84 19 126.99 19H123.448ZM124.834 17.889H126.847C127.367 17.889 127.745 17.801 127.98 17.625C128.222 17.4417 128.343 17.1483 128.343 16.745C128.343 16.349 128.222 16.0557 127.98 15.865C127.738 15.6743 127.36 15.579 126.847 15.579H124.834V17.889ZM124.834 14.468H126.649C127.155 14.468 127.529 14.3763 127.771 14.193C128.013 14.0097 128.134 13.7347 128.134 13.368C128.134 12.994 128.013 12.719 127.771 12.543C127.529 12.367 127.155 12.279 126.649 12.279H124.834V14.468ZM135.017 19V15.48L135.314 16.338L131.838 11.168H133.455L135.93 15.018H135.523L137.998 11.168H139.615L136.15 16.338L136.436 15.48V19H135.017ZM147.142 19V17.966L151.509 11.828L151.498 12.301H147.142V11.168H152.774V12.191L148.385 18.34L148.407 17.867H152.895V19H147.142ZM156.343 19V11.168H157.762V19H156.343ZM161.668 19V11.168H163.087V17.834H166.739V19H161.668ZM170.024 19V11.168H171.443V17.834H175.095V19H170.024ZM181.425 19.088C180.663 19.088 180.003 18.9267 179.445 18.604C178.888 18.2813 178.459 17.8193 178.158 17.218C177.858 16.6167 177.707 15.9053 177.707 15.084C177.707 14.2553 177.858 13.544 178.158 12.95C178.459 12.3487 178.888 11.8867 179.445 11.564C180.003 11.2413 180.663 11.08 181.425 11.08C182.195 11.08 182.859 11.2413 183.416 11.564C183.974 11.8867 184.403 12.3487 184.703 12.95C185.004 13.544 185.154 14.2517 185.154 15.073C185.154 15.9017 185 16.6167 184.692 17.218C184.392 17.8193 183.963 18.2813 183.405 18.604C182.855 18.9267 182.195 19.088 181.425 19.088ZM181.425 17.966C182.144 17.966 182.709 17.7203 183.119 17.229C183.53 16.7303 183.735 16.0117 183.735 15.073C183.735 14.1343 183.53 13.423 183.119 12.939C182.709 12.4477 182.144 12.202 181.425 12.202C180.714 12.202 180.153 12.4477 179.742 12.939C179.332 13.423 179.126 14.1343 179.126 15.073C179.126 16.0117 179.332 16.7303 179.742 17.229C180.153 17.7203 180.714 17.966 181.425 17.966ZM190.792 19L188.02 11.168H189.461L191.606 17.603H191.21L193.454 11.168L194.466 11.179L196.644 17.603H196.27L198.459 11.168H199.812L197.051 19H195.896L193.795 12.994H194.059L191.936 19H190.792Z" fill="#006AFF"/>
    <g clip-path="url(#clip0)">
        <path d="M14.8759 6.47175C14.9865 6.44735 15.0356 6.48395 15.1027 6.55714C15.4835 6.97752 16.7004 8.45353 17.031 8.85608C17.0925 8.92927 17.0499 9.00903 17.0008 9.05125C14.5443 10.9542 11.811 13.6501 10.288 15.5774C10.2578 15.6206 10.2823 15.6206 10.3069 15.614C12.9599 14.4796 19.1928 12.6676 21.9998 12.1619V8.63087L11.0136 0L0.00854097 8.62431V12.4846C3.41644 10.4728 11.3018 7.35567 14.8759 6.47175Z" fill="#006AFF"/>
        <path d="M5.93437 21.3051C5.84272 21.3539 5.76808 21.3417 5.69439 21.2685L3.64322 18.841C3.58842 18.7734 3.58181 18.7368 3.6555 18.6336C5.24088 16.3281 8.47683 12.7352 10.5403 11.217C10.5771 11.1926 10.5648 11.1616 10.5214 11.1804C8.37196 11.8757 2.26192 14.4861 0.00195312 15.7548V24H21.9941V16.0597C18.9972 16.5655 10.0187 19.2191 5.93437 21.3051Z" fill="#006AFF"/>
    </g>
    <defs>
        <clipPath id="clip0">
            <rect width="22" height="24" fill="white"/>
        </clipPath>
    </defs>
</svg>
