<svg width="736" height="370" viewBox="0 0 736 370" fill="none" xmlns="http://www.w3.org/2000/svg">
<g filter="url(#filter0_di)">
<rect x="8" y="6" width="720" height="354" rx="6" fill="white"/>
</g>
<path d="M47.272 80.192C46.088 80.192 44.968 80 43.912 79.616C42.872 79.216 41.968 78.64 41.2 77.888L41.8 76.712C42.664 77.48 43.528 78.032 44.392 78.368C45.256 78.704 46.216 78.872 47.272 78.872C48.632 78.872 49.688 78.576 50.44 77.984C51.208 77.376 51.592 76.544 51.592 75.488C51.592 74.832 51.408 74.32 51.04 73.952C50.688 73.568 50.208 73.264 49.6 73.04C49.008 72.816 48.352 72.624 47.632 72.464C46.928 72.288 46.216 72.096 45.496 71.888C44.776 71.68 44.112 71.408 43.504 71.072C42.912 70.736 42.432 70.288 42.064 69.728C41.712 69.168 41.536 68.44 41.536 67.544C41.536 66.6 41.784 65.768 42.28 65.048C42.776 64.312 43.464 63.744 44.344 63.344C45.224 62.928 46.224 62.72 47.344 62.72C48.064 62.72 48.76 62.808 49.432 62.984C50.12 63.16 50.76 63.416 51.352 63.752C51.96 64.072 52.496 64.472 52.96 64.952L52.36 66.128C50.984 64.736 49.312 64.04 47.344 64.04C46.016 64.04 44.968 64.352 44.2 64.976C43.432 65.6 43.048 66.448 43.048 67.52C43.048 68.24 43.224 68.808 43.576 69.224C43.944 69.64 44.432 69.976 45.04 70.232C45.648 70.472 46.304 70.68 47.008 70.856C47.728 71.032 48.44 71.216 49.144 71.408C49.864 71.6 50.52 71.856 51.112 72.176C51.72 72.48 52.2 72.896 52.552 73.424C52.92 73.952 53.104 74.632 53.104 75.464C53.104 76.408 52.856 77.232 52.36 77.936C51.864 78.64 51.176 79.192 50.296 79.592C49.416 79.992 48.408 80.192 47.272 80.192ZM46.768 82.784V79.928L46.792 79.184V63.632L46.768 62.984V60.128H48.112V62.984L48.088 63.632V79.184L48.112 79.928V82.784H46.768ZM61.9746 80.168C60.9506 80.168 59.9426 79.976 58.9506 79.592C57.9586 79.208 57.1106 78.672 56.4066 77.984L57.0306 76.808C57.8146 77.48 58.6146 77.992 59.4306 78.344C60.2466 78.696 61.0946 78.872 61.9746 78.872C63.2226 78.872 64.2066 78.504 64.9266 77.768C65.6626 77.016 66.0306 76.016 66.0306 74.768C66.0306 73.968 65.8706 73.264 65.5506 72.656C65.2306 72.032 64.7746 71.552 64.1826 71.216C63.6066 70.864 62.9186 70.688 62.1186 70.688C61.2226 70.688 60.4386 70.872 59.7666 71.24C59.0946 71.592 58.5106 72.144 58.0146 72.896H56.8626V62.912H66.8946V64.184H58.3506V71.696L57.8706 71.624C58.3186 70.92 58.9186 70.368 59.6706 69.968C60.4226 69.568 61.2706 69.368 62.2146 69.368C63.3186 69.368 64.2626 69.6 65.0466 70.064C65.8466 70.512 66.4546 71.144 66.8706 71.96C67.3026 72.776 67.5186 73.712 67.5186 74.768C67.5186 75.824 67.2946 76.76 66.8466 77.576C66.3986 78.392 65.7586 79.032 64.9266 79.496C64.0946 79.944 63.1106 80.168 61.9746 80.168ZM75.8853 80.168C74.7973 80.168 73.7573 79.976 72.7653 79.592C71.7733 79.208 70.9253 78.672 70.2213 77.984L70.8453 76.808C71.6293 77.496 72.4293 78.016 73.2453 78.368C74.0773 78.704 74.9573 78.872 75.8853 78.872C77.1333 78.872 78.0933 78.576 78.7653 77.984C79.4533 77.376 79.7973 76.512 79.7973 75.392C79.7973 74.24 79.4373 73.384 78.7173 72.824C78.0133 72.248 76.9733 71.96 75.5973 71.96H73.7493V70.664H75.2133C76.5573 70.664 77.5893 70.352 78.3093 69.728C79.0453 69.104 79.4133 68.224 79.4133 67.088C79.4133 66.112 79.1173 65.36 78.5253 64.832C77.9333 64.288 77.1013 64.016 76.0293 64.016C75.1493 64.016 74.3093 64.192 73.5093 64.544C72.7093 64.88 71.9093 65.392 71.1093 66.08L70.4853 64.904C71.1733 64.216 72.0053 63.68 72.9813 63.296C73.9733 62.912 74.9973 62.72 76.0533 62.72C77.0453 62.72 77.9093 62.896 78.6453 63.248C79.3813 63.6 79.9413 64.104 80.3253 64.76C80.7253 65.4 80.9253 66.168 80.9253 67.064C80.9093 68.12 80.6213 69.032 80.0613 69.8C79.5173 70.568 78.7653 71.08 77.8053 71.336L77.7093 71.096C78.8773 71.336 79.7653 71.824 80.3733 72.56C80.9813 73.28 81.2853 74.224 81.2853 75.392C81.2853 76.864 80.7973 78.032 79.8213 78.896C78.8453 79.744 77.5333 80.168 75.8853 80.168ZM90.7559 80.168C89.7319 80.168 88.7239 79.976 87.7319 79.592C86.7399 79.208 85.8919 78.672 85.1879 77.984L85.8119 76.808C86.5959 77.48 87.3959 77.992 88.2119 78.344C89.0279 78.696 89.8759 78.872 90.7559 78.872C92.0039 78.872 92.9879 78.504 93.7079 77.768C94.4439 77.016 94.8119 76.016 94.8119 74.768C94.8119 73.968 94.6519 73.264 94.3319 72.656C94.0119 72.032 93.5559 71.552 92.9639 71.216C92.3879 70.864 91.6999 70.688 90.8999 70.688C90.0039 70.688 89.2199 70.872 88.5479 71.24C87.8759 71.592 87.2919 72.144 86.7959 72.896H85.6439V62.912H95.6759V64.184H87.1319V71.696L86.6519 71.624C87.0999 70.92 87.6999 70.368 88.4519 69.968C89.2039 69.568 90.0519 69.368 90.9959 69.368C92.0999 69.368 93.0439 69.6 93.8279 70.064C94.6279 70.512 95.2359 71.144 95.6519 71.96C96.0839 72.776 96.2999 73.712 96.2999 74.768C96.2999 75.824 96.0759 76.76 95.6279 77.576C95.1799 78.392 94.5399 79.032 93.7079 79.496C92.8759 79.944 91.8919 80.168 90.7559 80.168ZM99.9865 82.568L99.2425 81.968C99.6265 81.536 99.8745 81.144 99.9865 80.792C100.099 80.456 100.155 80.104 100.155 79.736L100.659 80H99.2185V77.912H101.259V79.472C101.259 80.032 101.163 80.568 100.971 81.08C100.795 81.592 100.467 82.088 99.9865 82.568ZM110.083 80.192C108.163 80.192 106.707 79.456 105.715 77.984C104.723 76.496 104.227 74.32 104.227 71.456C104.227 68.576 104.715 66.4 105.691 64.928C106.683 63.456 108.147 62.72 110.083 62.72C112.019 62.72 113.475 63.456 114.451 64.928C115.443 66.4 115.939 68.568 115.939 71.432C115.939 74.296 115.443 76.472 114.451 77.96C113.459 79.448 112.003 80.192 110.083 80.192ZM110.083 78.872C111.555 78.872 112.643 78.272 113.347 77.072C114.067 75.856 114.427 73.976 114.427 71.432C114.427 68.888 114.075 67.024 113.371 65.84C112.667 64.64 111.571 64.04 110.083 64.04C108.611 64.04 107.515 64.64 106.795 65.84C106.091 67.04 105.739 68.904 105.739 71.432C105.739 73.96 106.091 75.832 106.795 77.048C107.515 78.264 108.611 78.872 110.083 78.872ZM124.473 80.192C122.553 80.192 121.097 79.456 120.105 77.984C119.113 76.496 118.617 74.32 118.617 71.456C118.617 68.576 119.105 66.4 120.081 64.928C121.073 63.456 122.537 62.72 124.473 62.72C126.409 62.72 127.865 63.456 128.841 64.928C129.833 66.4 130.329 68.568 130.329 71.432C130.329 74.296 129.833 76.472 128.841 77.96C127.849 79.448 126.393 80.192 124.473 80.192ZM124.473 78.872C125.945 78.872 127.033 78.272 127.737 77.072C128.457 75.856 128.817 73.976 128.817 71.432C128.817 68.888 128.465 67.024 127.761 65.84C127.057 64.64 125.961 64.04 124.473 64.04C123.001 64.04 121.905 64.64 121.185 65.84C120.481 67.04 120.129 68.904 120.129 71.432C120.129 73.96 120.481 75.832 121.185 77.048C121.905 78.264 123.001 78.872 124.473 78.872ZM138.864 80.192C136.944 80.192 135.488 79.456 134.496 77.984C133.504 76.496 133.008 74.32 133.008 71.456C133.008 68.576 133.496 66.4 134.472 64.928C135.464 63.456 136.928 62.72 138.864 62.72C140.8 62.72 142.256 63.456 143.232 64.928C144.224 66.4 144.72 68.568 144.72 71.432C144.72 74.296 144.224 76.472 143.232 77.96C142.24 79.448 140.784 80.192 138.864 80.192ZM138.864 78.872C140.336 78.872 141.424 78.272 142.128 77.072C142.848 75.856 143.208 73.976 143.208 71.432C143.208 68.888 142.856 67.024 142.152 65.84C141.448 64.64 140.352 64.04 138.864 64.04C137.392 64.04 136.296 64.64 135.576 65.84C134.872 67.04 134.52 68.904 134.52 71.432C134.52 73.96 134.872 75.832 135.576 77.048C136.296 78.264 137.392 78.872 138.864 78.872Z" fill="#235EE7"/>
<path d="M44.976 50L39.952 38.608H41.696L45.968 48.592H45.392L49.696 38.608H51.392L46.368 50H44.976ZM54.6943 50.112C53.9796 50.112 53.3503 49.9467 52.8063 49.616C52.2729 49.2747 51.8569 48.7947 51.5583 48.176C51.2703 47.5467 51.1263 46.8107 51.1263 45.968C51.1263 45.1253 51.2756 44.3893 51.5743 43.76C51.8729 43.12 52.2889 42.624 52.8223 42.272C53.3663 41.92 53.9903 41.744 54.6943 41.744C55.4089 41.744 56.0169 41.92 56.5183 42.272C57.0303 42.6133 57.3769 43.104 57.5583 43.744L57.3663 43.872V41.936H58.9663V50H57.3663V48.032L57.5583 48.112C57.3769 48.752 57.0303 49.248 56.5183 49.6C56.0169 49.9413 55.4089 50.112 54.6943 50.112ZM55.0783 48.832C55.8036 48.832 56.3636 48.5813 56.7583 48.08C57.1636 47.5787 57.3663 46.864 57.3663 45.936C57.3663 45.008 57.1636 44.2933 56.7583 43.792C56.3636 43.2907 55.8036 43.04 55.0783 43.04C54.3423 43.04 53.7663 43.3013 53.3503 43.824C52.9449 44.336 52.7423 45.0507 52.7423 45.968C52.7423 46.8853 52.9449 47.5947 53.3503 48.096C53.7663 48.5867 54.3423 48.832 55.0783 48.832ZM61.3243 50V38.224H62.9403V50H61.3243ZM68.173 50.112C67.2023 50.112 66.4717 49.8453 65.981 49.312C65.4903 48.768 65.245 47.9573 65.245 46.88V41.936H66.861V46.864C66.861 47.5253 66.9943 48.016 67.261 48.336C67.5383 48.6453 67.9597 48.8 68.525 48.8C69.1757 48.8 69.6983 48.5867 70.093 48.16C70.4983 47.7333 70.701 47.168 70.701 46.464V41.936H72.317V50H70.749V48.288L70.941 48.224C70.717 48.8427 70.3597 49.312 69.869 49.632C69.3783 49.952 68.813 50.112 68.173 50.112ZM81.4044 49.072C81.0417 49.392 80.583 49.648 80.0284 49.84C79.4737 50.0213 78.9084 50.112 78.3324 50.112C77.479 50.112 76.743 49.9467 76.1244 49.616C75.5057 49.2853 75.031 48.8053 74.7004 48.176C74.3697 47.5467 74.2044 46.8 74.2044 45.936C74.2044 45.104 74.3644 44.3733 74.6844 43.744C75.015 43.1147 75.4684 42.624 76.0444 42.272C76.6204 41.92 77.287 41.744 78.0444 41.744C78.7697 41.744 79.3937 41.904 79.9164 42.224C80.439 42.544 80.839 43.0027 81.1164 43.6C81.4044 44.1867 81.5484 44.896 81.5484 45.728V46H75.6124L75.6284 45.04H80.6044L80.1404 45.616C80.151 44.752 79.9804 44.0907 79.6284 43.632C79.2764 43.1733 78.759 42.944 78.0764 42.944C77.3617 42.944 76.8017 43.2 76.3964 43.712C75.991 44.2133 75.7884 44.9173 75.7884 45.824C75.7884 46.8373 76.007 47.5947 76.4444 48.096C76.8817 48.5867 77.5217 48.832 78.3644 48.832C78.823 48.832 79.2657 48.7573 79.6924 48.608C80.119 48.4587 80.5244 48.2293 80.9084 47.92L81.4044 49.072Z" fill="#235EE7"/>
<rect opacity="0.1" x="470" y="6" width="140" height="288" fill="url(#paint0_linear)"/>
<path opacity="0.4" d="M487.094 28V20.168H490.493C491.344 20.168 492 20.3733 492.462 20.784C492.931 21.1873 493.166 21.741 493.166 22.445C493.166 23.1417 492.928 23.6953 492.451 24.106C491.982 24.5167 491.329 24.722 490.493 24.722H488.513V28H487.094ZM488.513 23.633H490.328C490.827 23.633 491.197 23.5303 491.439 23.325C491.688 23.1197 491.813 22.83 491.813 22.456C491.813 22.0747 491.692 21.785 491.45 21.587C491.208 21.3817 490.834 21.279 490.328 21.279H488.513V23.633ZM496.62 28V20.168H499.975C500.862 20.168 501.537 20.3623 501.999 20.751C502.461 21.1397 502.692 21.697 502.692 22.423C502.692 23.1123 502.454 23.6623 501.977 24.073C501.5 24.4763 500.837 24.678 499.986 24.678L500.866 24.502C501.137 24.502 501.379 24.5827 501.592 24.744C501.805 24.9053 501.973 25.1547 502.098 25.492L503.066 28H501.57L500.58 25.393C500.477 25.1363 500.331 24.964 500.14 24.876C499.957 24.788 499.726 24.744 499.447 24.744H498.017V28H496.62ZM498.006 23.644H499.777C500.32 23.644 500.716 23.545 500.965 23.347C501.214 23.149 501.339 22.852 501.339 22.456C501.339 22.0527 501.214 21.7557 500.965 21.565C500.716 21.3743 500.32 21.279 499.777 21.279H498.006V23.644ZM509.966 28.088C509.203 28.088 508.543 27.9267 507.986 27.604C507.429 27.2813 507 26.8193 506.699 26.218C506.398 25.6167 506.248 24.9053 506.248 24.084C506.248 23.2553 506.398 22.544 506.699 21.95C507 21.3487 507.429 20.8867 507.986 20.564C508.543 20.2413 509.203 20.08 509.966 20.08C510.736 20.08 511.4 20.2413 511.957 20.564C512.514 20.8867 512.943 21.3487 513.244 21.95C513.545 22.544 513.695 23.2517 513.695 24.073C513.695 24.9017 513.541 25.6167 513.233 26.218C512.932 26.8193 512.503 27.2813 511.946 27.604C511.396 27.9267 510.736 28.088 509.966 28.088ZM509.966 26.966C510.685 26.966 511.249 26.7203 511.66 26.229C512.071 25.7303 512.276 25.0117 512.276 24.073C512.276 23.1343 512.071 22.423 511.66 21.939C511.249 21.4477 510.685 21.202 509.966 21.202C509.255 21.202 508.694 21.4477 508.283 21.939C507.872 22.423 507.667 23.1343 507.667 24.073C507.667 25.0117 507.872 25.7303 508.283 26.229C508.694 26.7203 509.255 26.966 509.966 26.966ZM516.103 29.958V28.803C516.565 28.869 516.921 28.8837 517.17 28.847C517.42 28.8177 517.592 28.7113 517.687 28.528C517.783 28.3447 517.83 28.0623 517.83 27.681V20.168H519.249V27.67C519.249 28.3153 519.15 28.8287 518.952 29.21C518.754 29.5913 518.424 29.8407 517.962 29.958C517.508 30.0827 516.888 30.0827 516.103 29.958ZM523.158 28V20.168H528.394V21.279H524.544V23.457H528.174V24.579H524.544V26.889H528.394V28H523.158ZM535.431 28.088C534.654 28.088 533.979 27.9267 533.407 27.604C532.835 27.274 532.395 26.8083 532.087 26.207C531.786 25.6057 531.636 24.8943 531.636 24.073C531.636 23.259 531.786 22.555 532.087 21.961C532.395 21.3597 532.835 20.8977 533.407 20.575C533.979 20.245 534.654 20.08 535.431 20.08C535.959 20.08 536.454 20.1607 536.916 20.322C537.385 20.476 537.774 20.7033 538.082 21.004L537.62 22.038C537.261 21.752 536.909 21.5467 536.564 21.422C536.219 21.29 535.849 21.224 535.453 21.224C534.698 21.224 534.111 21.4697 533.693 21.961C533.282 22.445 533.077 23.149 533.077 24.073C533.077 24.997 533.282 25.7083 533.693 26.207C534.111 26.6983 534.698 26.944 535.453 26.944C535.849 26.944 536.219 26.8817 536.564 26.757C536.909 26.625 537.261 26.416 537.62 26.13L538.082 27.164C537.774 27.4647 537.385 27.6957 536.916 27.857C536.454 28.011 535.959 28.088 535.431 28.088ZM543.327 28V21.334H540.775V20.168H547.309V21.334H544.757V28H543.327ZM550.49 28V20.168H555.726V21.279H551.876V23.457H555.506V24.579H551.876V26.889H555.726V28H550.49ZM559.232 28V20.168H562.114C562.972 20.168 563.702 20.322 564.303 20.63C564.904 20.938 565.363 21.3853 565.678 21.972C566.001 22.5513 566.162 23.2517 566.162 24.073C566.162 24.9017 566.001 25.6093 565.678 26.196C565.363 26.7827 564.901 27.23 564.292 27.538C563.691 27.846 562.965 28 562.114 28H559.232ZM560.651 26.845H562.026C562.928 26.845 563.603 26.614 564.05 26.152C564.505 25.69 564.732 24.997 564.732 24.073C564.732 22.2397 563.83 21.323 562.026 21.323H560.651V26.845Z" fill="#534CEA"/>
<path d="M573.904 324H572.574L576.984 314.032H578.09L582.514 324H581.198L577.334 314.998H577.768L573.904 324ZM574.464 321.494L574.926 320.43H580.134L580.596 321.494H574.464ZM586.27 324.098C585.421 324.098 584.782 323.865 584.352 323.398C583.932 322.922 583.722 322.222 583.722 321.298V316.958H584.996V321.284C584.996 321.891 585.118 322.339 585.36 322.628C585.612 322.908 585.995 323.048 586.508 323.048C587.106 323.048 587.586 322.857 587.95 322.474C588.314 322.082 588.496 321.564 588.496 320.92V316.958H589.784V324H588.538V322.488L588.706 322.418C588.52 322.969 588.207 323.389 587.768 323.678C587.33 323.958 586.83 324.098 586.27 324.098ZM595.021 327.122C593.948 327.122 593.014 326.884 592.221 326.408L592.445 325.386C592.884 325.638 593.299 325.82 593.691 325.932C594.092 326.044 594.536 326.1 595.021 326.1C595.684 326.1 596.183 325.923 596.519 325.568C596.864 325.223 597.037 324.705 597.037 324.014V322.138L597.191 321.998C597.079 322.362 596.902 322.679 596.659 322.95C596.426 323.211 596.136 323.417 595.791 323.566C595.455 323.715 595.068 323.79 594.629 323.79C594.013 323.79 593.467 323.645 592.991 323.356C592.515 323.057 592.142 322.647 591.871 322.124C591.61 321.601 591.479 320.99 591.479 320.29C591.479 319.59 591.61 318.979 591.871 318.456C592.142 317.924 592.515 317.513 592.991 317.224C593.467 316.925 594.013 316.776 594.629 316.776C595.273 316.776 595.819 316.935 596.267 317.252C596.724 317.569 597.032 318.008 597.191 318.568L597.023 318.456V316.958H598.297V323.902C598.297 324.975 598.017 325.778 597.457 326.31C596.906 326.851 596.094 327.122 595.021 327.122ZM594.909 322.74C595.572 322.74 596.09 322.525 596.463 322.096C596.836 321.657 597.023 321.055 597.023 320.29C597.023 319.525 596.836 318.923 596.463 318.484C596.09 318.045 595.572 317.826 594.909 317.826C594.246 317.826 593.724 318.045 593.341 318.484C592.958 318.923 592.767 319.525 592.767 320.29C592.767 321.065 592.958 321.667 593.341 322.096C593.724 322.525 594.246 322.74 594.909 322.74ZM604.164 324V323.02L607.636 319.212C608.084 318.708 608.411 318.255 608.616 317.854C608.831 317.443 608.938 317.033 608.938 316.622C608.938 316.099 608.784 315.698 608.476 315.418C608.168 315.129 607.734 314.984 607.174 314.984C606.698 314.984 606.227 315.082 605.76 315.278C605.293 315.465 604.831 315.745 604.374 316.118L603.898 315.138C604.29 314.765 604.785 314.471 605.382 314.256C605.989 314.032 606.595 313.92 607.202 313.92C607.827 313.92 608.364 314.027 608.812 314.242C609.26 314.447 609.61 314.751 609.862 315.152C610.114 315.544 610.24 316.011 610.24 316.552C610.24 317.121 610.109 317.667 609.848 318.19C609.596 318.713 609.176 319.301 608.588 319.954L605.298 323.496L605.186 322.922H610.646V324H604.164ZM615.638 324.112C614.49 324.112 613.618 323.683 613.02 322.824C612.423 321.956 612.124 320.687 612.124 319.016C612.124 317.345 612.418 316.081 613.006 315.222C613.604 314.354 614.481 313.92 615.638 313.92C616.796 313.92 617.668 314.354 618.256 315.222C618.854 316.081 619.152 317.341 619.152 319.002C619.152 320.673 618.854 321.942 618.256 322.81C617.659 323.678 616.786 324.112 615.638 324.112ZM615.638 323.048C616.394 323.048 616.95 322.721 617.304 322.068C617.668 321.415 617.85 320.393 617.85 319.002C617.85 317.611 617.668 316.599 617.304 315.964C616.95 315.32 616.394 314.998 615.638 314.998C614.882 314.998 614.322 315.32 613.958 315.964C613.604 316.608 613.426 317.621 613.426 319.002C613.426 320.393 613.604 321.415 613.958 322.068C614.322 322.721 614.882 323.048 615.638 323.048ZM620.953 324V323.02L624.425 319.212C624.873 318.708 625.2 318.255 625.405 317.854C625.62 317.443 625.727 317.033 625.727 316.622C625.727 316.099 625.573 315.698 625.265 315.418C624.957 315.129 624.523 314.984 623.963 314.984C623.487 314.984 623.016 315.082 622.549 315.278C622.082 315.465 621.62 315.745 621.163 316.118L620.687 315.138C621.079 314.765 621.574 314.471 622.171 314.256C622.778 314.032 623.384 313.92 623.991 313.92C624.616 313.92 625.153 314.027 625.601 314.242C626.049 314.447 626.399 314.751 626.651 315.152C626.903 315.544 627.029 316.011 627.029 316.552C627.029 317.121 626.898 317.667 626.637 318.19C626.385 318.713 625.965 319.301 625.377 319.954L622.087 323.496L621.975 322.922H627.435V324H620.953ZM632.428 324.112C631.28 324.112 630.407 323.683 629.81 322.824C629.212 321.956 628.914 320.687 628.914 319.016C628.914 317.345 629.208 316.081 629.796 315.222C630.393 314.354 631.27 313.92 632.428 313.92C633.585 313.92 634.458 314.354 635.046 315.222C635.643 316.081 635.942 317.341 635.942 319.002C635.942 320.673 635.643 321.942 635.046 322.81C634.448 323.678 633.576 324.112 632.428 324.112ZM632.428 323.048C633.184 323.048 633.739 322.721 634.094 322.068C634.458 321.415 634.64 320.393 634.64 319.002C634.64 317.611 634.458 316.599 634.094 315.964C633.739 315.32 633.184 314.998 632.428 314.998C631.672 314.998 631.112 315.32 630.748 315.964C630.393 316.608 630.216 317.621 630.216 319.002C630.216 320.393 630.393 321.415 630.748 322.068C631.112 322.721 631.672 323.048 632.428 323.048Z" fill="#969EAC"/>
<path d="M488.188 326.492V325.386C488.767 325.489 489.219 325.512 489.546 325.456C489.882 325.409 490.115 325.251 490.246 324.98C490.386 324.719 490.456 324.322 490.456 323.79V314.032H491.758V323.79C491.758 324.583 491.641 325.199 491.408 325.638C491.175 326.086 490.797 326.375 490.274 326.506C489.761 326.637 489.065 326.632 488.188 326.492ZM496.517 324.098C495.668 324.098 495.029 323.865 494.599 323.398C494.179 322.922 493.969 322.222 493.969 321.298V316.958H495.243V321.284C495.243 321.891 495.365 322.339 495.607 322.628C495.859 322.908 496.242 323.048 496.755 323.048C497.353 323.048 497.833 322.857 498.197 322.474C498.561 322.082 498.743 321.564 498.743 320.92V316.958H500.031V324H498.785V322.488L498.953 322.418C498.767 322.969 498.454 323.389 498.015 323.678C497.577 323.958 497.077 324.098 496.517 324.098ZM502.146 324V313.696H503.42V324H502.146ZM509.298 324V323.02L512.77 319.212C513.218 318.708 513.544 318.255 513.75 317.854C513.964 317.443 514.072 317.033 514.072 316.622C514.072 316.099 513.918 315.698 513.61 315.418C513.302 315.129 512.868 314.984 512.308 314.984C511.832 314.984 511.36 315.082 510.894 315.278C510.427 315.465 509.965 315.745 509.508 316.118L509.032 315.138C509.424 314.765 509.918 314.471 510.516 314.256C511.122 314.032 511.729 313.92 512.336 313.92C512.961 313.92 513.498 314.027 513.946 314.242C514.394 314.447 514.744 314.751 514.996 315.152C515.248 315.544 515.374 316.011 515.374 316.552C515.374 317.121 515.243 317.667 514.982 318.19C514.73 318.713 514.31 319.301 513.722 319.954L510.432 323.496L510.32 322.922H515.78V324H509.298ZM520.772 324.112C519.624 324.112 518.752 323.683 518.154 322.824C517.557 321.956 517.258 320.687 517.258 319.016C517.258 317.345 517.552 316.081 518.14 315.222C518.738 314.354 519.615 313.92 520.772 313.92C521.93 313.92 522.802 314.354 523.39 315.222C523.988 316.081 524.286 317.341 524.286 319.002C524.286 320.673 523.988 321.942 523.39 322.81C522.793 323.678 521.92 324.112 520.772 324.112ZM520.772 323.048C521.528 323.048 522.084 322.721 522.438 322.068C522.802 321.415 522.984 320.393 522.984 319.002C522.984 317.611 522.802 316.599 522.438 315.964C522.084 315.32 521.528 314.998 520.772 314.998C520.016 314.998 519.456 315.32 519.092 315.964C518.738 316.608 518.56 317.621 518.56 319.002C518.56 320.393 518.738 321.415 519.092 322.068C519.456 322.721 520.016 323.048 520.772 323.048ZM526.087 324V323.02L529.559 319.212C530.007 318.708 530.333 318.255 530.539 317.854C530.753 317.443 530.861 317.033 530.861 316.622C530.861 316.099 530.707 315.698 530.399 315.418C530.091 315.129 529.657 314.984 529.097 314.984C528.621 314.984 528.149 315.082 527.683 315.278C527.216 315.465 526.754 315.745 526.297 316.118L525.821 315.138C526.213 314.765 526.707 314.471 527.305 314.256C527.911 314.032 528.518 313.92 529.125 313.92C529.75 313.92 530.287 314.027 530.735 314.242C531.183 314.447 531.533 314.751 531.785 315.152C532.037 315.544 532.163 316.011 532.163 316.552C532.163 317.121 532.032 317.667 531.771 318.19C531.519 318.713 531.099 319.301 530.511 319.954L527.221 323.496L527.109 322.922H532.569V324H526.087ZM537.561 324.112C536.413 324.112 535.541 323.683 534.943 322.824C534.346 321.956 534.047 320.687 534.047 319.016C534.047 317.345 534.341 316.081 534.929 315.222C535.527 314.354 536.404 313.92 537.561 313.92C538.719 313.92 539.591 314.354 540.179 315.222C540.777 316.081 541.075 317.341 541.075 319.002C541.075 320.673 540.777 321.942 540.179 322.81C539.582 323.678 538.709 324.112 537.561 324.112ZM537.561 323.048C538.317 323.048 538.873 322.721 539.227 322.068C539.591 321.415 539.773 320.393 539.773 319.002C539.773 317.611 539.591 316.599 539.227 315.964C538.873 315.32 538.317 314.998 537.561 314.998C536.805 314.998 536.245 315.32 535.881 315.964C535.527 316.608 535.349 317.621 535.349 319.002C535.349 320.393 535.527 321.415 535.881 322.068C536.245 322.721 536.805 323.048 537.561 323.048Z" fill="#969EAC"/>
<path d="M396.268 326.492V325.386C396.847 325.489 397.3 325.512 397.626 325.456C397.962 325.409 398.196 325.251 398.326 324.98C398.466 324.719 398.536 324.322 398.536 323.79V314.032H399.838V323.79C399.838 324.583 399.722 325.199 399.488 325.638C399.255 326.086 398.877 326.375 398.354 326.506C397.841 326.637 397.146 326.632 396.268 326.492ZM404.597 324.098C403.748 324.098 403.109 323.865 402.679 323.398C402.259 322.922 402.049 322.222 402.049 321.298V316.958H403.323V321.284C403.323 321.891 403.445 322.339 403.687 322.628C403.939 322.908 404.322 323.048 404.835 323.048C405.433 323.048 405.913 322.857 406.277 322.474C406.641 322.082 406.823 321.564 406.823 320.92V316.958H408.111V324H406.865V322.488L407.033 322.418C406.847 322.969 406.534 323.389 406.095 323.678C405.657 323.958 405.157 324.098 404.597 324.098ZM410.226 324V318.932C410.226 318.605 410.217 318.279 410.198 317.952C410.189 317.616 410.161 317.285 410.114 316.958H411.318L411.444 318.4L411.304 318.484C411.509 317.933 411.836 317.513 412.284 317.224C412.741 316.925 413.264 316.776 413.852 316.776C415.541 316.776 416.386 317.714 416.386 319.59V324H415.112V319.66C415.112 319.025 414.986 318.563 414.734 318.274C414.491 317.975 414.099 317.826 413.558 317.826C412.933 317.826 412.433 318.022 412.06 318.414C411.687 318.797 411.5 319.315 411.5 319.968V324H410.226ZM422.218 324V323.02L425.69 319.212C426.138 318.708 426.464 318.255 426.67 317.854C426.884 317.443 426.992 317.033 426.992 316.622C426.992 316.099 426.838 315.698 426.53 315.418C426.222 315.129 425.788 314.984 425.228 314.984C424.752 314.984 424.28 315.082 423.814 315.278C423.347 315.465 422.885 315.745 422.428 316.118L421.952 315.138C422.344 314.765 422.838 314.471 423.436 314.256C424.042 314.032 424.649 313.92 425.256 313.92C425.881 313.92 426.418 314.027 426.866 314.242C427.314 314.447 427.664 314.751 427.916 315.152C428.168 315.544 428.294 316.011 428.294 316.552C428.294 317.121 428.163 317.667 427.902 318.19C427.65 318.713 427.23 319.301 426.642 319.954L423.352 323.496L423.24 322.922H428.7V324H422.218ZM433.692 324.112C432.544 324.112 431.672 323.683 431.074 322.824C430.477 321.956 430.178 320.687 430.178 319.016C430.178 317.345 430.472 316.081 431.06 315.222C431.658 314.354 432.535 313.92 433.692 313.92C434.85 313.92 435.722 314.354 436.31 315.222C436.908 316.081 437.206 317.341 437.206 319.002C437.206 320.673 436.908 321.942 436.31 322.81C435.713 323.678 434.84 324.112 433.692 324.112ZM433.692 323.048C434.448 323.048 435.004 322.721 435.358 322.068C435.722 321.415 435.904 320.393 435.904 319.002C435.904 317.611 435.722 316.599 435.358 315.964C435.004 315.32 434.448 314.998 433.692 314.998C432.936 314.998 432.376 315.32 432.012 315.964C431.658 316.608 431.48 317.621 431.48 319.002C431.48 320.393 431.658 321.415 432.012 322.068C432.376 322.721 432.936 323.048 433.692 323.048ZM439.007 324V323.02L442.479 319.212C442.927 318.708 443.253 318.255 443.459 317.854C443.673 317.443 443.781 317.033 443.781 316.622C443.781 316.099 443.627 315.698 443.319 315.418C443.011 315.129 442.577 314.984 442.017 314.984C441.541 314.984 441.069 315.082 440.603 315.278C440.136 315.465 439.674 315.745 439.217 316.118L438.741 315.138C439.133 314.765 439.627 314.471 440.225 314.256C440.831 314.032 441.438 313.92 442.045 313.92C442.67 313.92 443.207 314.027 443.655 314.242C444.103 314.447 444.453 314.751 444.705 315.152C444.957 315.544 445.083 316.011 445.083 316.552C445.083 317.121 444.952 317.667 444.691 318.19C444.439 318.713 444.019 319.301 443.431 319.954L440.141 323.496L440.029 322.922H445.489V324H439.007ZM450.481 324.112C449.333 324.112 448.461 323.683 447.863 322.824C447.266 321.956 446.967 320.687 446.967 319.016C446.967 317.345 447.261 316.081 447.849 315.222C448.447 314.354 449.324 313.92 450.481 313.92C451.639 313.92 452.511 314.354 453.099 315.222C453.697 316.081 453.995 317.341 453.995 319.002C453.995 320.673 453.697 321.942 453.099 322.81C452.502 323.678 451.629 324.112 450.481 324.112ZM450.481 323.048C451.237 323.048 451.793 322.721 452.147 322.068C452.511 321.415 452.693 320.393 452.693 319.002C452.693 317.611 452.511 316.599 452.147 315.964C451.793 315.32 451.237 314.998 450.481 314.998C449.725 314.998 449.165 315.32 448.801 315.964C448.447 316.608 448.269 317.621 448.269 319.002C448.269 320.393 448.447 321.415 448.801 322.068C449.165 322.721 449.725 323.048 450.481 323.048Z" fill="#969EAC"/>
<path d="M303.665 324V314.032H304.729L308.705 323.09H308.145L312.093 314.032H313.143V324H311.967V315.796L312.401 315.852L308.859 324H307.963L304.365 315.852L304.841 315.796L304.855 324H303.665ZM318.108 324.098C317.492 324.098 316.946 323.953 316.47 323.664C316.003 323.365 315.639 322.945 315.378 322.404C315.116 321.853 314.986 321.209 314.986 320.472C314.986 319.735 315.116 319.091 315.378 318.54C315.648 317.989 316.017 317.56 316.484 317.252C316.96 316.935 317.501 316.776 318.108 316.776C318.742 316.776 319.284 316.935 319.732 317.252C320.18 317.56 320.483 318.003 320.642 318.582L320.474 318.68V316.958H321.734V324H320.474V322.236L320.642 322.306C320.483 322.875 320.18 323.319 319.732 323.636C319.284 323.944 318.742 324.098 318.108 324.098ZM318.388 323.062C319.06 323.062 319.573 322.838 319.928 322.39C320.292 321.933 320.474 321.284 320.474 320.444C320.474 319.604 320.292 318.96 319.928 318.512C319.564 318.055 319.05 317.826 318.388 317.826C317.725 317.826 317.207 318.059 316.834 318.526C316.46 318.993 316.274 319.641 316.274 320.472C316.274 321.303 316.46 321.942 316.834 322.39C317.207 322.838 317.725 323.062 318.388 323.062ZM323.547 327.178L323.281 326.198C323.71 326.095 324.07 325.974 324.359 325.834C324.658 325.703 324.905 325.531 325.101 325.316C325.297 325.111 325.47 324.835 325.619 324.49L326.081 323.44L326.375 323.02L328.881 316.958H330.155L326.865 324.602C326.613 325.181 326.324 325.643 325.997 325.988C325.67 326.343 325.302 326.609 324.891 326.786C324.49 326.963 324.042 327.094 323.547 327.178ZM326.095 324.392L322.917 316.958H324.247L326.725 323.02L326.095 324.392ZM335.081 324V323.02L338.553 319.212C339.001 318.708 339.328 318.255 339.533 317.854C339.748 317.443 339.855 317.033 339.855 316.622C339.855 316.099 339.701 315.698 339.393 315.418C339.085 315.129 338.651 314.984 338.091 314.984C337.615 314.984 337.144 315.082 336.677 315.278C336.21 315.465 335.748 315.745 335.291 316.118L334.815 315.138C335.207 314.765 335.702 314.471 336.299 314.256C336.906 314.032 337.512 313.92 338.119 313.92C338.744 313.92 339.281 314.027 339.729 314.242C340.177 314.447 340.527 314.751 340.779 315.152C341.031 315.544 341.157 316.011 341.157 316.552C341.157 317.121 341.026 317.667 340.765 318.19C340.513 318.713 340.093 319.301 339.505 319.954L336.215 323.496L336.103 322.922H341.563V324H335.081ZM346.555 324.112C345.407 324.112 344.535 323.683 343.937 322.824C343.34 321.956 343.041 320.687 343.041 319.016C343.041 317.345 343.335 316.081 343.923 315.222C344.521 314.354 345.398 313.92 346.555 313.92C347.713 313.92 348.585 314.354 349.173 315.222C349.771 316.081 350.069 317.341 350.069 319.002C350.069 320.673 349.771 321.942 349.173 322.81C348.576 323.678 347.703 324.112 346.555 324.112ZM346.555 323.048C347.311 323.048 347.867 322.721 348.221 322.068C348.585 321.415 348.767 320.393 348.767 319.002C348.767 317.611 348.585 316.599 348.221 315.964C347.867 315.32 347.311 314.998 346.555 314.998C345.799 314.998 345.239 315.32 344.875 315.964C344.521 316.608 344.343 317.621 344.343 319.002C344.343 320.393 344.521 321.415 344.875 322.068C345.239 322.721 345.799 323.048 346.555 323.048ZM351.87 324V323.02L355.342 319.212C355.79 318.708 356.117 318.255 356.322 317.854C356.537 317.443 356.644 317.033 356.644 316.622C356.644 316.099 356.49 315.698 356.182 315.418C355.874 315.129 355.44 314.984 354.88 314.984C354.404 314.984 353.933 315.082 353.466 315.278C352.999 315.465 352.537 315.745 352.08 316.118L351.604 315.138C351.996 314.765 352.491 314.471 353.088 314.256C353.695 314.032 354.301 313.92 354.908 313.92C355.533 313.92 356.07 314.027 356.518 314.242C356.966 314.447 357.316 314.751 357.568 315.152C357.82 315.544 357.946 316.011 357.946 316.552C357.946 317.121 357.815 317.667 357.554 318.19C357.302 318.713 356.882 319.301 356.294 319.954L353.004 323.496L352.892 322.922H358.352V324H351.87ZM363.345 324.112C362.197 324.112 361.324 323.683 360.727 322.824C360.129 321.956 359.831 320.687 359.831 319.016C359.831 317.345 360.125 316.081 360.713 315.222C361.31 314.354 362.187 313.92 363.345 313.92C364.502 313.92 365.375 314.354 365.963 315.222C366.56 316.081 366.859 317.341 366.859 319.002C366.859 320.673 366.56 321.942 365.963 322.81C365.365 323.678 364.493 324.112 363.345 324.112ZM363.345 323.048C364.101 323.048 364.656 322.721 365.011 322.068C365.375 321.415 365.557 320.393 365.557 319.002C365.557 317.611 365.375 316.599 365.011 315.964C364.656 315.32 364.101 314.998 363.345 314.998C362.589 314.998 362.029 315.32 361.665 315.964C361.31 316.608 361.133 317.621 361.133 319.002C361.133 320.393 361.31 321.415 361.665 322.068C362.029 322.721 362.589 323.048 363.345 323.048Z" fill="#969EAC"/>
<path d="M215.922 324H214.592L219.002 314.032H220.108L224.532 324H223.216L219.352 314.998H219.786L215.922 324ZM216.482 321.494L216.944 320.43H222.152L222.614 321.494H216.482ZM225.782 327.024V318.932C225.782 318.605 225.772 318.279 225.754 317.952C225.744 317.616 225.716 317.285 225.67 316.958H226.874L227 318.4L226.888 318.582C227.046 318.003 227.35 317.56 227.798 317.252C228.246 316.935 228.782 316.776 229.408 316.776C230.024 316.776 230.565 316.935 231.032 317.252C231.508 317.56 231.876 317.989 232.138 318.54C232.408 319.091 232.544 319.735 232.544 320.472C232.544 321.209 232.408 321.853 232.138 322.404C231.876 322.945 231.512 323.365 231.046 323.664C230.579 323.953 230.033 324.098 229.408 324.098C228.782 324.098 228.246 323.944 227.798 323.636C227.35 323.319 227.046 322.875 226.888 322.306L227.056 322.152V327.024H225.782ZM229.142 323.062C229.804 323.062 230.318 322.838 230.682 322.39C231.046 321.942 231.228 321.303 231.228 320.472C231.228 319.641 231.046 318.993 230.682 318.526C230.318 318.059 229.804 317.826 229.142 317.826C228.47 317.826 227.952 318.055 227.588 318.512C227.224 318.96 227.042 319.604 227.042 320.444C227.042 321.284 227.224 321.933 227.588 322.39C227.952 322.838 228.47 323.062 229.142 323.062ZM234.231 324V318.932C234.231 318.605 234.222 318.279 234.203 317.952C234.194 317.616 234.166 317.285 234.119 316.958H235.323L235.477 318.708L235.323 318.652C235.444 318.036 235.72 317.574 236.149 317.266C236.588 316.949 237.078 316.79 237.619 316.79C237.75 316.79 237.866 316.799 237.969 316.818C238.081 316.827 238.184 316.846 238.277 316.874L238.263 318.036C238.03 317.952 237.768 317.91 237.479 317.91C237.003 317.91 236.62 318.013 236.331 318.218C236.042 318.423 235.832 318.685 235.701 319.002C235.57 319.319 235.505 319.66 235.505 320.024V324H234.231ZM243.146 324V323.02L246.618 319.212C247.066 318.708 247.393 318.255 247.598 317.854C247.813 317.443 247.92 317.033 247.92 316.622C247.92 316.099 247.766 315.698 247.458 315.418C247.15 315.129 246.716 314.984 246.156 314.984C245.68 314.984 245.209 315.082 244.742 315.278C244.276 315.465 243.814 315.745 243.356 316.118L242.88 315.138C243.272 314.765 243.767 314.471 244.364 314.256C244.971 314.032 245.578 313.92 246.184 313.92C246.81 313.92 247.346 314.027 247.794 314.242C248.242 314.447 248.592 314.751 248.844 315.152C249.096 315.544 249.222 316.011 249.222 316.552C249.222 317.121 249.092 317.667 248.83 318.19C248.578 318.713 248.158 319.301 247.57 319.954L244.28 323.496L244.168 322.922H249.628V324H243.146ZM254.621 324.112C253.473 324.112 252.6 323.683 252.003 322.824C251.406 321.956 251.107 320.687 251.107 319.016C251.107 317.345 251.401 316.081 251.989 315.222C252.586 314.354 253.464 313.92 254.621 313.92C255.778 313.92 256.651 314.354 257.239 315.222C257.836 316.081 258.135 317.341 258.135 319.002C258.135 320.673 257.836 321.942 257.239 322.81C256.642 323.678 255.769 324.112 254.621 324.112ZM254.621 323.048C255.377 323.048 255.932 322.721 256.287 322.068C256.651 321.415 256.833 320.393 256.833 319.002C256.833 317.611 256.651 316.599 256.287 315.964C255.932 315.32 255.377 314.998 254.621 314.998C253.865 314.998 253.305 315.32 252.941 315.964C252.586 316.608 252.409 317.621 252.409 319.002C252.409 320.393 252.586 321.415 252.941 322.068C253.305 322.721 253.865 323.048 254.621 323.048ZM259.935 324V323.02L263.407 319.212C263.855 318.708 264.182 318.255 264.387 317.854C264.602 317.443 264.709 317.033 264.709 316.622C264.709 316.099 264.555 315.698 264.247 315.418C263.939 315.129 263.505 314.984 262.945 314.984C262.469 314.984 261.998 315.082 261.531 315.278C261.065 315.465 260.603 315.745 260.145 316.118L259.669 315.138C260.061 314.765 260.556 314.471 261.153 314.256C261.76 314.032 262.367 313.92 262.973 313.92C263.599 313.92 264.135 314.027 264.583 314.242C265.031 314.447 265.381 314.751 265.633 315.152C265.885 315.544 266.011 316.011 266.011 316.552C266.011 317.121 265.881 317.667 265.619 318.19C265.367 318.713 264.947 319.301 264.359 319.954L261.069 323.496L260.957 322.922H266.417V324H259.935ZM271.41 324.112C270.262 324.112 269.389 323.683 268.792 322.824C268.195 321.956 267.896 320.687 267.896 319.016C267.896 317.345 268.19 316.081 268.778 315.222C269.375 314.354 270.253 313.92 271.41 313.92C272.567 313.92 273.44 314.354 274.028 315.222C274.625 316.081 274.924 317.341 274.924 319.002C274.924 320.673 274.625 321.942 274.028 322.81C273.431 323.678 272.558 324.112 271.41 324.112ZM271.41 323.048C272.166 323.048 272.721 322.721 273.076 322.068C273.44 321.415 273.622 320.393 273.622 319.002C273.622 317.611 273.44 316.599 273.076 315.964C272.721 315.32 272.166 314.998 271.41 314.998C270.654 314.998 270.094 315.32 269.73 315.964C269.375 316.608 269.198 317.621 269.198 319.002C269.198 320.393 269.375 321.415 269.73 322.068C270.094 322.721 270.654 323.048 271.41 323.048Z" fill="#969EAC"/>
<path opacity="0.24" d="M240 294.25H610" stroke="#969EAC"/>
<path d="M650.228 299.112C649.509 299.112 648.837 299.005 648.212 298.79C647.596 298.575 647.059 298.263 646.602 297.852L647.064 296.872C647.559 297.283 648.053 297.581 648.548 297.768C649.052 297.945 649.603 298.034 650.2 298.034C650.928 298.034 651.488 297.885 651.88 297.586C652.281 297.278 652.482 296.853 652.482 296.312C652.482 295.976 652.379 295.71 652.174 295.514C651.969 295.318 651.693 295.159 651.348 295.038C651.012 294.907 650.639 294.795 650.228 294.702C649.827 294.609 649.421 294.501 649.01 294.38C648.609 294.249 648.235 294.086 647.89 293.89C647.554 293.685 647.283 293.419 647.078 293.092C646.873 292.765 646.77 292.341 646.77 291.818C646.77 291.249 646.919 290.749 647.218 290.32C647.526 289.881 647.946 289.541 648.478 289.298C649.019 289.046 649.631 288.92 650.312 288.92C650.741 288.92 651.161 288.971 651.572 289.074C651.983 289.167 652.365 289.307 652.72 289.494C653.084 289.671 653.397 289.891 653.658 290.152L653.196 291.132C652.356 290.376 651.399 289.998 650.326 289.998C649.635 289.998 649.089 290.157 648.688 290.474C648.287 290.782 648.086 291.211 648.086 291.762C648.086 292.126 648.189 292.42 648.394 292.644C648.599 292.868 648.87 293.045 649.206 293.176C649.551 293.307 649.925 293.419 650.326 293.512C650.737 293.605 651.143 293.713 651.544 293.834C651.955 293.955 652.328 294.109 652.664 294.296C653.009 294.483 653.28 294.735 653.476 295.052C653.681 295.369 653.784 295.775 653.784 296.27C653.784 296.839 653.635 297.339 653.336 297.768C653.037 298.188 652.617 298.519 652.076 298.762C651.544 298.995 650.928 299.112 650.228 299.112ZM649.794 300.624V298.888L649.85 298.272V289.634L649.794 289.116V287.408H650.886V289.116L650.83 289.634V298.272L650.886 298.888V300.624H649.794ZM658.595 299.112C657.447 299.112 656.574 298.683 655.977 297.824C655.379 296.956 655.081 295.687 655.081 294.016C655.081 292.345 655.375 291.081 655.963 290.222C656.56 289.354 657.437 288.92 658.595 288.92C659.752 288.92 660.625 289.354 661.213 290.222C661.81 291.081 662.109 292.341 662.109 294.002C662.109 295.673 661.81 296.942 661.213 297.81C660.615 298.678 659.743 299.112 658.595 299.112ZM658.595 298.048C659.351 298.048 659.906 297.721 660.261 297.068C660.625 296.415 660.807 295.393 660.807 294.002C660.807 292.611 660.625 291.599 660.261 290.964C659.906 290.32 659.351 289.998 658.595 289.998C657.839 289.998 657.279 290.32 656.915 290.964C656.56 291.608 656.383 292.621 656.383 294.002C656.383 295.393 656.56 296.415 656.915 297.068C657.279 297.721 657.839 298.048 658.595 298.048ZM668.613 299L664.875 295.402L668.347 291.972H669.943L666.079 295.738L666.135 294.996L670.251 299H668.613ZM663.853 299V288.696H665.127V299H663.853Z" fill="#969EAC"/>
<path d="M650.228 263.112C649.509 263.112 648.837 263.005 648.212 262.79C647.596 262.575 647.059 262.263 646.602 261.852L647.064 260.872C647.559 261.283 648.053 261.581 648.548 261.768C649.052 261.945 649.603 262.034 650.2 262.034C650.928 262.034 651.488 261.885 651.88 261.586C652.281 261.278 652.482 260.853 652.482 260.312C652.482 259.976 652.379 259.71 652.174 259.514C651.969 259.318 651.693 259.159 651.348 259.038C651.012 258.907 650.639 258.795 650.228 258.702C649.827 258.609 649.421 258.501 649.01 258.38C648.609 258.249 648.235 258.086 647.89 257.89C647.554 257.685 647.283 257.419 647.078 257.092C646.873 256.765 646.77 256.341 646.77 255.818C646.77 255.249 646.919 254.749 647.218 254.32C647.526 253.881 647.946 253.541 648.478 253.298C649.019 253.046 649.631 252.92 650.312 252.92C650.741 252.92 651.161 252.971 651.572 253.074C651.983 253.167 652.365 253.307 652.72 253.494C653.084 253.671 653.397 253.891 653.658 254.152L653.196 255.132C652.356 254.376 651.399 253.998 650.326 253.998C649.635 253.998 649.089 254.157 648.688 254.474C648.287 254.782 648.086 255.211 648.086 255.762C648.086 256.126 648.189 256.42 648.394 256.644C648.599 256.868 648.87 257.045 649.206 257.176C649.551 257.307 649.925 257.419 650.326 257.512C650.737 257.605 651.143 257.713 651.544 257.834C651.955 257.955 652.328 258.109 652.664 258.296C653.009 258.483 653.28 258.735 653.476 259.052C653.681 259.369 653.784 259.775 653.784 260.27C653.784 260.839 653.635 261.339 653.336 261.768C653.037 262.188 652.617 262.519 652.076 262.762C651.544 262.995 650.928 263.112 650.228 263.112ZM649.794 264.624V262.888L649.85 262.272V253.634L649.794 253.116V251.408H650.886V253.116L650.83 253.634V262.272L650.886 262.888V264.624H649.794ZM655.515 263V262.02L658.987 258.212C659.435 257.708 659.761 257.255 659.967 256.854C660.181 256.443 660.289 256.033 660.289 255.622C660.289 255.099 660.135 254.698 659.827 254.418C659.519 254.129 659.085 253.984 658.525 253.984C658.049 253.984 657.577 254.082 657.111 254.278C656.644 254.465 656.182 254.745 655.725 255.118L655.249 254.138C655.641 253.765 656.135 253.471 656.733 253.256C657.339 253.032 657.946 252.92 658.553 252.92C659.178 252.92 659.715 253.027 660.163 253.242C660.611 253.447 660.961 253.751 661.213 254.152C661.465 254.544 661.591 255.011 661.591 255.552C661.591 256.121 661.46 256.667 661.199 257.19C660.947 257.713 660.527 258.301 659.939 258.954L656.649 262.496L656.537 261.922H661.997V263H655.515ZM667.115 263.098C666.499 263.098 665.892 262.991 665.295 262.776C664.707 262.561 664.212 262.263 663.811 261.88L664.287 260.9C664.744 261.273 665.206 261.558 665.673 261.754C666.14 261.941 666.62 262.034 667.115 262.034C667.796 262.034 668.328 261.847 668.711 261.474C669.094 261.091 669.285 260.569 669.285 259.906C669.285 259.486 669.196 259.117 669.019 258.8C668.851 258.483 668.608 258.235 668.291 258.058C667.983 257.871 667.619 257.778 667.199 257.778C666.742 257.778 666.326 257.871 665.953 258.058C665.58 258.235 665.253 258.506 664.973 258.87H664.105V253.032H670.139V254.082H665.393V257.946L664.987 257.904C665.258 257.521 665.603 257.227 666.023 257.022C666.443 256.817 666.914 256.714 667.437 256.714C668.072 256.714 668.622 256.849 669.089 257.12C669.556 257.381 669.915 257.75 670.167 258.226C670.419 258.702 670.545 259.253 670.545 259.878C670.545 260.513 670.405 261.073 670.125 261.558C669.845 262.043 669.448 262.421 668.935 262.692C668.422 262.963 667.815 263.098 667.115 263.098ZM675.384 263.112C674.236 263.112 673.363 262.683 672.766 261.824C672.168 260.956 671.87 259.687 671.87 258.016C671.87 256.345 672.164 255.081 672.752 254.222C673.349 253.354 674.226 252.92 675.384 252.92C676.541 252.92 677.414 253.354 678.002 254.222C678.599 255.081 678.898 256.341 678.898 258.002C678.898 259.673 678.599 260.942 678.002 261.81C677.404 262.678 676.532 263.112 675.384 263.112ZM675.384 262.048C676.14 262.048 676.695 261.721 677.05 261.068C677.414 260.415 677.596 259.393 677.596 258.002C677.596 256.611 677.414 255.599 677.05 254.964C676.695 254.32 676.14 253.998 675.384 253.998C674.628 253.998 674.068 254.32 673.704 254.964C673.349 255.608 673.172 256.621 673.172 258.002C673.172 259.393 673.349 260.415 673.704 261.068C674.068 261.721 674.628 262.048 675.384 262.048ZM685.402 263L681.664 259.402L685.136 255.972H686.732L682.868 259.738L682.924 258.996L687.04 263H685.402ZM680.642 263V252.696H681.916V263H680.642Z" fill="#969EAC"/>
<path d="M650.228 227.112C649.509 227.112 648.837 227.005 648.212 226.79C647.596 226.575 647.059 226.263 646.602 225.852L647.064 224.872C647.559 225.283 648.053 225.581 648.548 225.768C649.052 225.945 649.603 226.034 650.2 226.034C650.928 226.034 651.488 225.885 651.88 225.586C652.281 225.278 652.482 224.853 652.482 224.312C652.482 223.976 652.379 223.71 652.174 223.514C651.969 223.318 651.693 223.159 651.348 223.038C651.012 222.907 650.639 222.795 650.228 222.702C649.827 222.609 649.421 222.501 649.01 222.38C648.609 222.249 648.235 222.086 647.89 221.89C647.554 221.685 647.283 221.419 647.078 221.092C646.873 220.765 646.77 220.341 646.77 219.818C646.77 219.249 646.919 218.749 647.218 218.32C647.526 217.881 647.946 217.541 648.478 217.298C649.019 217.046 649.631 216.92 650.312 216.92C650.741 216.92 651.161 216.971 651.572 217.074C651.983 217.167 652.365 217.307 652.72 217.494C653.084 217.671 653.397 217.891 653.658 218.152L653.196 219.132C652.356 218.376 651.399 217.998 650.326 217.998C649.635 217.998 649.089 218.157 648.688 218.474C648.287 218.782 648.086 219.211 648.086 219.762C648.086 220.126 648.189 220.42 648.394 220.644C648.599 220.868 648.87 221.045 649.206 221.176C649.551 221.307 649.925 221.419 650.326 221.512C650.737 221.605 651.143 221.713 651.544 221.834C651.955 221.955 652.328 222.109 652.664 222.296C653.009 222.483 653.28 222.735 653.476 223.052C653.681 223.369 653.784 223.775 653.784 224.27C653.784 224.839 653.635 225.339 653.336 225.768C653.037 226.188 652.617 226.519 652.076 226.762C651.544 226.995 650.928 227.112 650.228 227.112ZM649.794 228.624V226.888L649.85 226.272V217.634L649.794 217.116V215.408H650.886V217.116L650.83 217.634V226.272L650.886 226.888V228.624H649.794ZM658.721 227.098C658.105 227.098 657.498 226.991 656.901 226.776C656.313 226.561 655.818 226.263 655.417 225.88L655.893 224.9C656.35 225.273 656.812 225.558 657.279 225.754C657.745 225.941 658.226 226.034 658.721 226.034C659.402 226.034 659.934 225.847 660.317 225.474C660.699 225.091 660.891 224.569 660.891 223.906C660.891 223.486 660.802 223.117 660.625 222.8C660.457 222.483 660.214 222.235 659.897 222.058C659.589 221.871 659.225 221.778 658.805 221.778C658.347 221.778 657.932 221.871 657.559 222.058C657.185 222.235 656.859 222.506 656.579 222.87H655.711V217.032H661.745V218.082H656.999V221.946L656.593 221.904C656.863 221.521 657.209 221.227 657.629 221.022C658.049 220.817 658.52 220.714 659.043 220.714C659.677 220.714 660.228 220.849 660.695 221.12C661.161 221.381 661.521 221.75 661.773 222.226C662.025 222.702 662.151 223.253 662.151 223.878C662.151 224.513 662.011 225.073 661.731 225.558C661.451 226.043 661.054 226.421 660.541 226.692C660.027 226.963 659.421 227.098 658.721 227.098ZM666.989 227.112C665.841 227.112 664.968 226.683 664.371 225.824C663.774 224.956 663.475 223.687 663.475 222.016C663.475 220.345 663.769 219.081 664.357 218.222C664.954 217.354 665.832 216.92 666.989 216.92C668.146 216.92 669.019 217.354 669.607 218.222C670.204 219.081 670.503 220.341 670.503 222.002C670.503 223.673 670.204 224.942 669.607 225.81C669.01 226.678 668.137 227.112 666.989 227.112ZM666.989 226.048C667.745 226.048 668.3 225.721 668.655 225.068C669.019 224.415 669.201 223.393 669.201 222.002C669.201 220.611 669.019 219.599 668.655 218.964C668.3 218.32 667.745 217.998 666.989 217.998C666.233 217.998 665.673 218.32 665.309 218.964C664.954 219.608 664.777 220.621 664.777 222.002C664.777 223.393 664.954 224.415 665.309 225.068C665.673 225.721 666.233 226.048 666.989 226.048ZM675.384 227.112C674.236 227.112 673.363 226.683 672.766 225.824C672.168 224.956 671.87 223.687 671.87 222.016C671.87 220.345 672.164 219.081 672.752 218.222C673.349 217.354 674.226 216.92 675.384 216.92C676.541 216.92 677.414 217.354 678.002 218.222C678.599 219.081 678.898 220.341 678.898 222.002C678.898 223.673 678.599 224.942 678.002 225.81C677.404 226.678 676.532 227.112 675.384 227.112ZM675.384 226.048C676.14 226.048 676.695 225.721 677.05 225.068C677.414 224.415 677.596 223.393 677.596 222.002C677.596 220.611 677.414 219.599 677.05 218.964C676.695 218.32 676.14 217.998 675.384 217.998C674.628 217.998 674.068 218.32 673.704 218.964C673.349 219.608 673.172 220.621 673.172 222.002C673.172 223.393 673.349 224.415 673.704 225.068C674.068 225.721 674.628 226.048 675.384 226.048ZM685.402 227L681.664 223.402L685.136 219.972H686.732L682.868 223.738L682.924 222.996L687.04 227H685.402ZM680.642 227V216.696H681.916V227H680.642Z" fill="#969EAC"/>
<path d="M650.228 191.112C649.509 191.112 648.837 191.005 648.212 190.79C647.596 190.575 647.059 190.263 646.602 189.852L647.064 188.872C647.559 189.283 648.053 189.581 648.548 189.768C649.052 189.945 649.603 190.034 650.2 190.034C650.928 190.034 651.488 189.885 651.88 189.586C652.281 189.278 652.482 188.853 652.482 188.312C652.482 187.976 652.379 187.71 652.174 187.514C651.969 187.318 651.693 187.159 651.348 187.038C651.012 186.907 650.639 186.795 650.228 186.702C649.827 186.609 649.421 186.501 649.01 186.38C648.609 186.249 648.235 186.086 647.89 185.89C647.554 185.685 647.283 185.419 647.078 185.092C646.873 184.765 646.77 184.341 646.77 183.818C646.77 183.249 646.919 182.749 647.218 182.32C647.526 181.881 647.946 181.541 648.478 181.298C649.019 181.046 649.631 180.92 650.312 180.92C650.741 180.92 651.161 180.971 651.572 181.074C651.983 181.167 652.365 181.307 652.72 181.494C653.084 181.671 653.397 181.891 653.658 182.152L653.196 183.132C652.356 182.376 651.399 181.998 650.326 181.998C649.635 181.998 649.089 182.157 648.688 182.474C648.287 182.782 648.086 183.211 648.086 183.762C648.086 184.126 648.189 184.42 648.394 184.644C648.599 184.868 648.87 185.045 649.206 185.176C649.551 185.307 649.925 185.419 650.326 185.512C650.737 185.605 651.143 185.713 651.544 185.834C651.955 185.955 652.328 186.109 652.664 186.296C653.009 186.483 653.28 186.735 653.476 187.052C653.681 187.369 653.784 187.775 653.784 188.27C653.784 188.839 653.635 189.339 653.336 189.768C653.037 190.188 652.617 190.519 652.076 190.762C651.544 190.995 650.928 191.112 650.228 191.112ZM649.794 192.624V190.888L649.85 190.272V181.634L649.794 181.116V179.408H650.886V181.116L650.83 181.634V190.272L650.886 190.888V192.624H649.794ZM657.279 191H655.893L660.765 181.62L660.849 182.11H655.263V181.032H661.927V181.998L657.279 191ZM667.115 191.098C666.499 191.098 665.892 190.991 665.295 190.776C664.707 190.561 664.212 190.263 663.811 189.88L664.287 188.9C664.744 189.273 665.206 189.558 665.673 189.754C666.14 189.941 666.62 190.034 667.115 190.034C667.796 190.034 668.328 189.847 668.711 189.474C669.094 189.091 669.285 188.569 669.285 187.906C669.285 187.486 669.196 187.117 669.019 186.8C668.851 186.483 668.608 186.235 668.291 186.058C667.983 185.871 667.619 185.778 667.199 185.778C666.742 185.778 666.326 185.871 665.953 186.058C665.58 186.235 665.253 186.506 664.973 186.87H664.105V181.032H670.139V182.082H665.393V185.946L664.987 185.904C665.258 185.521 665.603 185.227 666.023 185.022C666.443 184.817 666.914 184.714 667.437 184.714C668.072 184.714 668.622 184.849 669.089 185.12C669.556 185.381 669.915 185.75 670.167 186.226C670.419 186.702 670.545 187.253 670.545 187.878C670.545 188.513 670.405 189.073 670.125 189.558C669.845 190.043 669.448 190.421 668.935 190.692C668.422 190.963 667.815 191.098 667.115 191.098ZM675.384 191.112C674.236 191.112 673.363 190.683 672.766 189.824C672.168 188.956 671.87 187.687 671.87 186.016C671.87 184.345 672.164 183.081 672.752 182.222C673.349 181.354 674.226 180.92 675.384 180.92C676.541 180.92 677.414 181.354 678.002 182.222C678.599 183.081 678.898 184.341 678.898 186.002C678.898 187.673 678.599 188.942 678.002 189.81C677.404 190.678 676.532 191.112 675.384 191.112ZM675.384 190.048C676.14 190.048 676.695 189.721 677.05 189.068C677.414 188.415 677.596 187.393 677.596 186.002C677.596 184.611 677.414 183.599 677.05 182.964C676.695 182.32 676.14 181.998 675.384 181.998C674.628 181.998 674.068 182.32 673.704 182.964C673.349 183.608 673.172 184.621 673.172 186.002C673.172 187.393 673.349 188.415 673.704 189.068C674.068 189.721 674.628 190.048 675.384 190.048ZM685.402 191L681.664 187.402L685.136 183.972H686.732L682.868 187.738L682.924 186.996L687.04 191H685.402ZM680.642 191V180.696H681.916V191H680.642Z" fill="#969EAC"/>
<path d="M650.228 155.112C649.509 155.112 648.837 155.005 648.212 154.79C647.596 154.575 647.059 154.263 646.602 153.852L647.064 152.872C647.559 153.283 648.053 153.581 648.548 153.768C649.052 153.945 649.603 154.034 650.2 154.034C650.928 154.034 651.488 153.885 651.88 153.586C652.281 153.278 652.482 152.853 652.482 152.312C652.482 151.976 652.379 151.71 652.174 151.514C651.969 151.318 651.693 151.159 651.348 151.038C651.012 150.907 650.639 150.795 650.228 150.702C649.827 150.609 649.421 150.501 649.01 150.38C648.609 150.249 648.235 150.086 647.89 149.89C647.554 149.685 647.283 149.419 647.078 149.092C646.873 148.765 646.77 148.341 646.77 147.818C646.77 147.249 646.919 146.749 647.218 146.32C647.526 145.881 647.946 145.541 648.478 145.298C649.019 145.046 649.631 144.92 650.312 144.92C650.741 144.92 651.161 144.971 651.572 145.074C651.983 145.167 652.365 145.307 652.72 145.494C653.084 145.671 653.397 145.891 653.658 146.152L653.196 147.132C652.356 146.376 651.399 145.998 650.326 145.998C649.635 145.998 649.089 146.157 648.688 146.474C648.287 146.782 648.086 147.211 648.086 147.762C648.086 148.126 648.189 148.42 648.394 148.644C648.599 148.868 648.87 149.045 649.206 149.176C649.551 149.307 649.925 149.419 650.326 149.512C650.737 149.605 651.143 149.713 651.544 149.834C651.955 149.955 652.328 150.109 652.664 150.296C653.009 150.483 653.28 150.735 653.476 151.052C653.681 151.369 653.784 151.775 653.784 152.27C653.784 152.839 653.635 153.339 653.336 153.768C653.037 154.188 652.617 154.519 652.076 154.762C651.544 154.995 650.928 155.112 650.228 155.112ZM649.794 156.624V154.888L649.85 154.272V145.634L649.794 145.116V143.408H650.886V145.116L650.83 145.634V154.272L650.886 154.888V156.624H649.794ZM658.329 154.412V145.858L659.043 146.152L656.285 147.888V146.67L658.889 145.032H659.631V154.412H658.329ZM656.131 155V153.922H661.829V155H656.131ZM663.853 155V149.932C663.853 149.605 663.844 149.279 663.825 148.952C663.816 148.616 663.788 148.285 663.741 147.958H664.945L665.071 149.4L664.931 149.47C665.099 148.929 665.388 148.513 665.799 148.224C666.219 147.925 666.714 147.776 667.283 147.776C667.964 147.776 668.492 147.944 668.865 148.28C669.248 148.616 669.49 149.129 669.593 149.82L669.257 149.61C669.416 149.05 669.719 148.607 670.167 148.28C670.615 147.944 671.152 147.776 671.777 147.776C672.561 147.776 673.149 148.009 673.541 148.476C673.933 148.943 674.129 149.647 674.129 150.59V155H672.855V150.646C672.855 150.021 672.743 149.563 672.519 149.274C672.304 148.975 671.954 148.826 671.469 148.826C670.9 148.826 670.452 149.022 670.125 149.414C669.798 149.797 669.635 150.324 669.635 150.996V155H668.361V150.646C668.361 150.021 668.249 149.563 668.025 149.274C667.801 148.975 667.446 148.826 666.961 148.826C666.382 148.826 665.93 149.022 665.603 149.414C665.286 149.797 665.127 150.324 665.127 150.996V155H663.853Z" fill="#969EAC"/>
<path d="M650.228 119.112C649.509 119.112 648.837 119.005 648.212 118.79C647.596 118.575 647.059 118.263 646.602 117.852L647.064 116.872C647.559 117.283 648.053 117.581 648.548 117.768C649.052 117.945 649.603 118.034 650.2 118.034C650.928 118.034 651.488 117.885 651.88 117.586C652.281 117.278 652.482 116.853 652.482 116.312C652.482 115.976 652.379 115.71 652.174 115.514C651.969 115.318 651.693 115.159 651.348 115.038C651.012 114.907 650.639 114.795 650.228 114.702C649.827 114.609 649.421 114.501 649.01 114.38C648.609 114.249 648.235 114.086 647.89 113.89C647.554 113.685 647.283 113.419 647.078 113.092C646.873 112.765 646.77 112.341 646.77 111.818C646.77 111.249 646.919 110.749 647.218 110.32C647.526 109.881 647.946 109.541 648.478 109.298C649.019 109.046 649.631 108.92 650.312 108.92C650.741 108.92 651.161 108.971 651.572 109.074C651.983 109.167 652.365 109.307 652.72 109.494C653.084 109.671 653.397 109.891 653.658 110.152L653.196 111.132C652.356 110.376 651.399 109.998 650.326 109.998C649.635 109.998 649.089 110.157 648.688 110.474C648.287 110.782 648.086 111.211 648.086 111.762C648.086 112.126 648.189 112.42 648.394 112.644C648.599 112.868 648.87 113.045 649.206 113.176C649.551 113.307 649.925 113.419 650.326 113.512C650.737 113.605 651.143 113.713 651.544 113.834C651.955 113.955 652.328 114.109 652.664 114.296C653.009 114.483 653.28 114.735 653.476 115.052C653.681 115.369 653.784 115.775 653.784 116.27C653.784 116.839 653.635 117.339 653.336 117.768C653.037 118.188 652.617 118.519 652.076 118.762C651.544 118.995 650.928 119.112 650.228 119.112ZM649.794 120.624V118.888L649.85 118.272V109.634L649.794 109.116V107.408H650.886V109.116L650.83 109.634V118.272L650.886 118.888V120.624H649.794ZM658.329 118.412V109.858L659.043 110.152L656.285 111.888V110.67L658.889 109.032H659.631V118.412H658.329ZM656.131 119V117.922H661.829V119H656.131ZM663.657 117.446H665.211V119H663.657V117.446ZM667.204 119V118.02L670.676 114.212C671.124 113.708 671.451 113.255 671.656 112.854C671.871 112.443 671.978 112.033 671.978 111.622C671.978 111.099 671.824 110.698 671.516 110.418C671.208 110.129 670.774 109.984 670.214 109.984C669.738 109.984 669.267 110.082 668.8 110.278C668.333 110.465 667.871 110.745 667.414 111.118L666.938 110.138C667.33 109.765 667.825 109.471 668.422 109.256C669.029 109.032 669.635 108.92 670.242 108.92C670.867 108.92 671.404 109.027 671.852 109.242C672.3 109.447 672.65 109.751 672.902 110.152C673.154 110.544 673.28 111.011 673.28 111.552C673.28 112.121 673.149 112.667 672.888 113.19C672.636 113.713 672.216 114.301 671.628 114.954L668.338 118.496L668.226 117.922H673.686V119H667.204ZM678.805 119.098C678.189 119.098 677.582 118.991 676.985 118.776C676.397 118.561 675.902 118.263 675.501 117.88L675.977 116.9C676.434 117.273 676.896 117.558 677.363 117.754C677.829 117.941 678.31 118.034 678.805 118.034C679.486 118.034 680.018 117.847 680.401 117.474C680.783 117.091 680.975 116.569 680.975 115.906C680.975 115.486 680.886 115.117 680.709 114.8C680.541 114.483 680.298 114.235 679.981 114.058C679.673 113.871 679.309 113.778 678.889 113.778C678.431 113.778 678.016 113.871 677.643 114.058C677.269 114.235 676.943 114.506 676.663 114.87H675.795V109.032H681.829V110.082H677.083V113.946L676.677 113.904C676.947 113.521 677.293 113.227 677.713 113.022C678.133 112.817 678.604 112.714 679.127 112.714C679.761 112.714 680.312 112.849 680.779 113.12C681.245 113.381 681.605 113.75 681.857 114.226C682.109 114.702 682.235 115.253 682.235 115.878C682.235 116.513 682.095 117.073 681.815 117.558C681.535 118.043 681.138 118.421 680.625 118.692C680.111 118.963 679.505 119.098 678.805 119.098ZM683.937 119V113.932C683.937 113.605 683.928 113.279 683.909 112.952C683.9 112.616 683.872 112.285 683.825 111.958H685.029L685.155 113.4L685.015 113.47C685.183 112.929 685.472 112.513 685.883 112.224C686.303 111.925 686.798 111.776 687.367 111.776C688.048 111.776 688.576 111.944 688.949 112.28C689.332 112.616 689.574 113.129 689.677 113.82L689.341 113.61C689.5 113.05 689.803 112.607 690.251 112.28C690.699 111.944 691.236 111.776 691.861 111.776C692.645 111.776 693.233 112.009 693.625 112.476C694.017 112.943 694.213 113.647 694.213 114.59V119H692.939V114.646C692.939 114.021 692.827 113.563 692.603 113.274C692.388 112.975 692.038 112.826 691.553 112.826C690.984 112.826 690.536 113.022 690.209 113.414C689.882 113.797 689.719 114.324 689.719 114.996V119H688.445V114.646C688.445 114.021 688.333 113.563 688.109 113.274C687.885 112.975 687.53 112.826 687.045 112.826C686.466 112.826 686.014 113.022 685.687 113.414C685.37 113.797 685.211 114.324 685.211 114.996V119H683.937Z" fill="#969EAC"/>
<path d="M650.228 83.112C649.509 83.112 648.837 83.0047 648.212 82.79C647.596 82.5753 647.059 82.2627 646.602 81.852L647.064 80.872C647.559 81.2827 648.053 81.5813 648.548 81.768C649.052 81.9453 649.603 82.034 650.2 82.034C650.928 82.034 651.488 81.8847 651.88 81.586C652.281 81.278 652.482 80.8533 652.482 80.312C652.482 79.976 652.379 79.71 652.174 79.514C651.969 79.318 651.693 79.1593 651.348 79.038C651.012 78.9073 650.639 78.7953 650.228 78.702C649.827 78.6087 649.421 78.5013 649.01 78.38C648.609 78.2493 648.235 78.086 647.89 77.89C647.554 77.6847 647.283 77.4187 647.078 77.092C646.873 76.7653 646.77 76.3407 646.77 75.818C646.77 75.2487 646.919 74.7493 647.218 74.32C647.526 73.8813 647.946 73.5407 648.478 73.298C649.019 73.046 649.631 72.92 650.312 72.92C650.741 72.92 651.161 72.9713 651.572 73.074C651.983 73.1673 652.365 73.3073 652.72 73.494C653.084 73.6713 653.397 73.8907 653.658 74.152L653.196 75.132C652.356 74.376 651.399 73.998 650.326 73.998C649.635 73.998 649.089 74.1567 648.688 74.474C648.287 74.782 648.086 75.2113 648.086 75.762C648.086 76.126 648.189 76.42 648.394 76.644C648.599 76.868 648.87 77.0453 649.206 77.176C649.551 77.3067 649.925 77.4187 650.326 77.512C650.737 77.6053 651.143 77.7127 651.544 77.834C651.955 77.9553 652.328 78.1093 652.664 78.296C653.009 78.4827 653.28 78.7347 653.476 79.052C653.681 79.3693 653.784 79.7753 653.784 80.27C653.784 80.8393 653.635 81.3387 653.336 81.768C653.037 82.188 652.617 82.5193 652.076 82.762C651.544 82.9953 650.928 83.112 650.228 83.112ZM649.794 84.624V82.888L649.85 82.272V73.634L649.794 73.116V71.408H650.886V73.116L650.83 73.634V82.272L650.886 82.888V84.624H649.794ZM658.329 82.412V73.858L659.043 74.152L656.285 75.888V74.67L658.889 73.032H659.631V82.412H658.329ZM656.131 83V81.922H661.829V83H656.131ZM663.657 81.446H665.211V83H663.657V81.446ZM670.41 83.098C669.794 83.098 669.187 82.9907 668.59 82.776C668.002 82.5613 667.507 82.2627 667.106 81.88L667.582 80.9C668.039 81.2733 668.501 81.558 668.968 81.754C669.435 81.9407 669.915 82.034 670.41 82.034C671.091 82.034 671.623 81.8473 672.006 81.474C672.389 81.0913 672.58 80.5687 672.58 79.906C672.58 79.486 672.491 79.1173 672.314 78.8C672.146 78.4827 671.903 78.2353 671.586 78.058C671.278 77.8713 670.914 77.778 670.494 77.778C670.037 77.778 669.621 77.8713 669.248 78.058C668.875 78.2353 668.548 78.506 668.268 78.87H667.4V73.032H673.434V74.082H668.688V77.946L668.282 77.904C668.553 77.5213 668.898 77.2273 669.318 77.022C669.738 76.8167 670.209 76.714 670.732 76.714C671.367 76.714 671.917 76.8493 672.384 77.12C672.851 77.3813 673.21 77.75 673.462 78.226C673.714 78.702 673.84 79.2527 673.84 79.878C673.84 80.5127 673.7 81.0727 673.42 81.558C673.14 82.0433 672.743 82.4213 672.23 82.692C671.717 82.9627 671.11 83.098 670.41 83.098ZM675.543 83V77.932C675.543 77.6053 675.533 77.2787 675.515 76.952C675.505 76.616 675.477 76.2847 675.431 75.958H676.635L676.761 77.4L676.621 77.47C676.789 76.9287 677.078 76.5133 677.489 76.224C677.909 75.9253 678.403 75.776 678.973 75.776C679.654 75.776 680.181 75.944 680.555 76.28C680.937 76.616 681.18 77.1293 681.283 77.82L680.947 77.61C681.105 77.05 681.409 76.6067 681.857 76.28C682.305 75.944 682.841 75.776 683.467 75.776C684.251 75.776 684.839 76.0093 685.231 76.476C685.623 76.9427 685.819 77.6473 685.819 78.59V83H684.545V78.646C684.545 78.0207 684.433 77.5633 684.209 77.274C683.994 76.9753 683.644 76.826 683.159 76.826C682.589 76.826 682.141 77.022 681.815 77.414C681.488 77.7967 681.325 78.324 681.325 78.996V83H680.051V78.646C680.051 78.0207 679.939 77.5633 679.715 77.274C679.491 76.9753 679.136 76.826 678.651 76.826C678.072 76.826 677.619 77.022 677.293 77.414C676.975 77.7967 676.817 78.324 676.817 78.996V83H675.543Z" fill="#969EAC"/>
<path d="M650.228 47.112C649.509 47.112 648.837 47.0047 648.212 46.79C647.596 46.5753 647.059 46.2627 646.602 45.852L647.064 44.872C647.559 45.2827 648.053 45.5813 648.548 45.768C649.052 45.9453 649.603 46.034 650.2 46.034C650.928 46.034 651.488 45.8847 651.88 45.586C652.281 45.278 652.482 44.8533 652.482 44.312C652.482 43.976 652.379 43.71 652.174 43.514C651.969 43.318 651.693 43.1593 651.348 43.038C651.012 42.9073 650.639 42.7953 650.228 42.702C649.827 42.6087 649.421 42.5013 649.01 42.38C648.609 42.2493 648.235 42.086 647.89 41.89C647.554 41.6847 647.283 41.4187 647.078 41.092C646.873 40.7653 646.77 40.3407 646.77 39.818C646.77 39.2487 646.919 38.7493 647.218 38.32C647.526 37.8813 647.946 37.5407 648.478 37.298C649.019 37.046 649.631 36.92 650.312 36.92C650.741 36.92 651.161 36.9713 651.572 37.074C651.983 37.1673 652.365 37.3073 652.72 37.494C653.084 37.6713 653.397 37.8907 653.658 38.152L653.196 39.132C652.356 38.376 651.399 37.998 650.326 37.998C649.635 37.998 649.089 38.1567 648.688 38.474C648.287 38.782 648.086 39.2113 648.086 39.762C648.086 40.126 648.189 40.42 648.394 40.644C648.599 40.868 648.87 41.0453 649.206 41.176C649.551 41.3067 649.925 41.4187 650.326 41.512C650.737 41.6053 651.143 41.7127 651.544 41.834C651.955 41.9553 652.328 42.1093 652.664 42.296C653.009 42.4827 653.28 42.7347 653.476 43.052C653.681 43.3693 653.784 43.7753 653.784 44.27C653.784 44.8393 653.635 45.3387 653.336 45.768C653.037 46.188 652.617 46.5193 652.076 46.762C651.544 46.9953 650.928 47.112 650.228 47.112ZM649.794 48.624V46.888L649.85 46.272V37.634L649.794 37.116V35.408H650.886V37.116L650.83 37.634V46.272L650.886 46.888V48.624H649.794ZM658.329 46.412V37.858L659.043 38.152L656.285 39.888V38.67L658.889 37.032H659.631V46.412H658.329ZM656.131 47V45.922H661.829V47H656.131ZM663.657 45.446H665.211V47H663.657V45.446ZM668.968 47H667.582L672.454 37.62L672.538 38.11H666.952V37.032H673.616V37.998L668.968 47ZM678.805 47.098C678.189 47.098 677.582 46.9907 676.985 46.776C676.397 46.5613 675.902 46.2627 675.501 45.88L675.977 44.9C676.434 45.2733 676.896 45.558 677.363 45.754C677.829 45.9407 678.31 46.034 678.805 46.034C679.486 46.034 680.018 45.8473 680.401 45.474C680.783 45.0913 680.975 44.5687 680.975 43.906C680.975 43.486 680.886 43.1173 680.709 42.8C680.541 42.4827 680.298 42.2353 679.981 42.058C679.673 41.8713 679.309 41.778 678.889 41.778C678.431 41.778 678.016 41.8713 677.643 42.058C677.269 42.2353 676.943 42.506 676.663 42.87H675.795V37.032H681.829V38.082H677.083V41.946L676.677 41.904C676.947 41.5213 677.293 41.2273 677.713 41.022C678.133 40.8167 678.604 40.714 679.127 40.714C679.761 40.714 680.312 40.8493 680.779 41.12C681.245 41.3813 681.605 41.75 681.857 42.226C682.109 42.702 682.235 43.2527 682.235 43.878C682.235 44.5127 682.095 45.0727 681.815 45.558C681.535 46.0433 681.138 46.4213 680.625 46.692C680.111 46.9627 679.505 47.098 678.805 47.098ZM683.937 47V41.932C683.937 41.6053 683.928 41.2787 683.909 40.952C683.9 40.616 683.872 40.2847 683.825 39.958H685.029L685.155 41.4L685.015 41.47C685.183 40.9287 685.472 40.5133 685.883 40.224C686.303 39.9253 686.798 39.776 687.367 39.776C688.048 39.776 688.576 39.944 688.949 40.28C689.332 40.616 689.574 41.1293 689.677 41.82L689.341 41.61C689.5 41.05 689.803 40.6067 690.251 40.28C690.699 39.944 691.236 39.776 691.861 39.776C692.645 39.776 693.233 40.0093 693.625 40.476C694.017 40.9427 694.213 41.6473 694.213 42.59V47H692.939V42.646C692.939 42.0207 692.827 41.5633 692.603 41.274C692.388 40.9753 692.038 40.826 691.553 40.826C690.984 40.826 690.536 41.022 690.209 41.414C689.882 41.7967 689.719 42.324 689.719 42.996V47H688.445V42.646C688.445 42.0207 688.333 41.5633 688.109 41.274C687.885 40.9753 687.53 40.826 687.045 40.826C686.466 40.826 686.014 41.022 685.687 41.414C685.37 41.7967 685.211 42.324 685.211 42.996V47H683.937Z" fill="#969EAC"/>
<path opacity="0.1" d="M240 258H610" stroke="#969EAC"/>
<path opacity="0.1" d="M240 222H610" stroke="#969EAC"/>
<path opacity="0.1" d="M240 186H610" stroke="#969EAC"/>
<path opacity="0.1" d="M240 150H610" stroke="#969EAC"/>
<path opacity="0.1" d="M240 114H610" stroke="#969EAC"/>
<path opacity="0.1" d="M240 78H610" stroke="#969EAC"/>
<path opacity="0.1" d="M240 42H610" stroke="#969EAC"/>
<path d="M600 162C600 160.895 600.895 160 602 160H608C609.105 160 610 160.895 610 162V294H600V162Z" fill="#235EE7"/>
<path d="M510 128C510 126.895 510.895 126 512 126H518C519.105 126 520 126.895 520 128V294H510V128Z" fill="#235EE7"/>
<path d="M330 44C330 42.8954 330.895 42 332 42H338C339.105 42 340 42.8954 340 44V294H330V44Z" fill="#235EE7"/>
<path d="M240 116C240 114.895 240.895 114 242 114H248C249.105 114 250 114.895 250 116V294H240V116Z" fill="#235EE7"/>
<path d="M420 206C420 204.895 420.895 204 422 204H428C429.105 204 430 204.895 430 206V294H420V206Z" fill="#235EE7"/>
<circle cx="470" cy="294" r="4" fill="#FAFBFD"/>
<circle cx="470" cy="294" r="3" stroke="#969EAC" stroke-opacity="0.3" stroke-width="2"/>
<defs>
<filter id="filter0_di" x="0" y="0" width="736" height="370" filterUnits="userSpaceOnUse" color-interpolation-filters="sRGB">
<feFlood flood-opacity="0" result="BackgroundImageFix"/>
<feColorMatrix in="SourceAlpha" type="matrix" values="0 0 0 0 0 0 0 0 0 0 0 0 0 0 0 0 0 0 127 0"/>
<feOffset dy="2"/>
<feGaussianBlur stdDeviation="4"/>
<feColorMatrix type="matrix" values="0 0 0 0 0.888 0 0 0 0 0.911467 0 0 0 0 0.952 0 0 0 1 0"/>
<feBlend mode="normal" in2="BackgroundImageFix" result="effect1_dropShadow"/>
<feBlend mode="normal" in="SourceGraphic" in2="effect1_dropShadow" result="shape"/>
<feColorMatrix in="SourceAlpha" type="matrix" values="0 0 0 0 0 0 0 0 0 0 0 0 0 0 0 0 0 0 127 0" result="hardAlpha"/>
<feOffset dy="-1"/>
<feComposite in2="hardAlpha" operator="arithmetic" k2="-1" k3="1"/>
<feColorMatrix type="matrix" values="0 0 0 0 0.921569 0 0 0 0 0.92549 0 0 0 0 0.945098 0 0 0 1 0"/>
<feBlend mode="normal" in2="shape" result="effect2_innerShadow"/>
</filter>
<linearGradient id="paint0_linear" x1="470" y1="133.5" x2="610" y2="133.5" gradientUnits="userSpaceOnUse">
<stop stop-color="#534CEA"/>
<stop offset="1" stop-color="#534CEA" stop-opacity="0"/>
</linearGradient>
</defs>
</svg>
