<svg width="1376" height="370" viewBox="0 0 1376 370" fill="none" xmlns="http://www.w3.org/2000/svg">
<g filter="url(#filter0_di)">
<rect x="8" y="6" width="1360" height="354" rx="6" fill="white"/>
</g>
<rect opacity="0.1" x="935" y="6" width="319" height="288" fill="url(#paint0_linear)"/>
<path opacity="0.4" d="M956.094 28V20.168H959.493C960.344 20.168 961 20.3733 961.462 20.784C961.931 21.1873 962.166 21.741 962.166 22.445C962.166 23.1417 961.928 23.6953 961.451 24.106C960.982 24.5167 960.329 24.722 959.493 24.722H957.513V28H956.094ZM957.513 23.633H959.328C959.827 23.633 960.197 23.5303 960.439 23.325C960.688 23.1197 960.813 22.83 960.813 22.456C960.813 22.0747 960.692 21.785 960.45 21.587C960.208 21.3817 959.834 21.279 959.328 21.279H957.513V23.633ZM965.62 28V20.168H968.975C969.862 20.168 970.537 20.3623 970.999 20.751C971.461 21.1397 971.692 21.697 971.692 22.423C971.692 23.1123 971.454 23.6623 970.977 24.073C970.5 24.4763 969.837 24.678 968.986 24.678L969.866 24.502C970.137 24.502 970.379 24.5827 970.592 24.744C970.805 24.9053 970.973 25.1547 971.098 25.492L972.066 28H970.57L969.58 25.393C969.477 25.1363 969.331 24.964 969.14 24.876C968.957 24.788 968.726 24.744 968.447 24.744H967.017V28H965.62ZM967.006 23.644H968.777C969.32 23.644 969.716 23.545 969.965 23.347C970.214 23.149 970.339 22.852 970.339 22.456C970.339 22.0527 970.214 21.7557 969.965 21.565C969.716 21.3743 969.32 21.279 968.777 21.279H967.006V23.644ZM978.966 28.088C978.203 28.088 977.543 27.9267 976.986 27.604C976.429 27.2813 976 26.8193 975.699 26.218C975.398 25.6167 975.248 24.9053 975.248 24.084C975.248 23.2553 975.398 22.544 975.699 21.95C976 21.3487 976.429 20.8867 976.986 20.564C977.543 20.2413 978.203 20.08 978.966 20.08C979.736 20.08 980.4 20.2413 980.957 20.564C981.514 20.8867 981.943 21.3487 982.244 21.95C982.545 22.544 982.695 23.2517 982.695 24.073C982.695 24.9017 982.541 25.6167 982.233 26.218C981.932 26.8193 981.503 27.2813 980.946 27.604C980.396 27.9267 979.736 28.088 978.966 28.088ZM978.966 26.966C979.685 26.966 980.249 26.7203 980.66 26.229C981.071 25.7303 981.276 25.0117 981.276 24.073C981.276 23.1343 981.071 22.423 980.66 21.939C980.249 21.4477 979.685 21.202 978.966 21.202C978.255 21.202 977.694 21.4477 977.283 21.939C976.872 22.423 976.667 23.1343 976.667 24.073C976.667 25.0117 976.872 25.7303 977.283 26.229C977.694 26.7203 978.255 26.966 978.966 26.966ZM985.103 29.958V28.803C985.565 28.869 985.921 28.8837 986.17 28.847C986.42 28.8177 986.592 28.7113 986.687 28.528C986.783 28.3447 986.83 28.0623 986.83 27.681V20.168H988.249V27.67C988.249 28.3153 988.15 28.8287 987.952 29.21C987.754 29.5913 987.424 29.8407 986.962 29.958C986.508 30.0827 985.888 30.0827 985.103 29.958ZM992.158 28V20.168H997.394V21.279H993.544V23.457H997.174V24.579H993.544V26.889H997.394V28H992.158ZM1004.43 28.088C1003.65 28.088 1002.98 27.9267 1002.41 27.604C1001.84 27.274 1001.4 26.8083 1001.09 26.207C1000.79 25.6057 1000.64 24.8943 1000.64 24.073C1000.64 23.259 1000.79 22.555 1001.09 21.961C1001.4 21.3597 1001.84 20.8977 1002.41 20.575C1002.98 20.245 1003.65 20.08 1004.43 20.08C1004.96 20.08 1005.45 20.1607 1005.92 20.322C1006.39 20.476 1006.77 20.7033 1007.08 21.004L1006.62 22.038C1006.26 21.752 1005.91 21.5467 1005.56 21.422C1005.22 21.29 1004.85 21.224 1004.45 21.224C1003.7 21.224 1003.11 21.4697 1002.69 21.961C1002.28 22.445 1002.08 23.149 1002.08 24.073C1002.08 24.997 1002.28 25.7083 1002.69 26.207C1003.11 26.6983 1003.7 26.944 1004.45 26.944C1004.85 26.944 1005.22 26.8817 1005.56 26.757C1005.91 26.625 1006.26 26.416 1006.62 26.13L1007.08 27.164C1006.77 27.4647 1006.39 27.6957 1005.92 27.857C1005.45 28.011 1004.96 28.088 1004.43 28.088ZM1012.33 28V21.334H1009.78V20.168H1016.31V21.334H1013.76V28H1012.33ZM1019.49 28V20.168H1024.73V21.279H1020.88V23.457H1024.51V24.579H1020.88V26.889H1024.73V28H1019.49ZM1028.23 28V20.168H1031.11C1031.97 20.168 1032.7 20.322 1033.3 20.63C1033.9 20.938 1034.36 21.3853 1034.68 21.972C1035 22.5513 1035.16 23.2517 1035.16 24.073C1035.16 24.9017 1035 25.6093 1034.68 26.196C1034.36 26.7827 1033.9 27.23 1033.29 27.538C1032.69 27.846 1031.96 28 1031.11 28H1028.23ZM1029.65 26.845H1031.03C1031.93 26.845 1032.6 26.614 1033.05 26.152C1033.5 25.69 1033.73 24.997 1033.73 24.073C1033.73 22.2397 1032.83 21.323 1031.03 21.323H1029.65V26.845Z" fill="#534CEA"/>
<path d="M1221.84 324.112C1221.33 324.112 1220.84 324.07 1220.38 323.986C1219.94 323.893 1219.52 323.753 1219.12 323.566C1218.74 323.379 1218.4 323.146 1218.09 322.866L1218.56 321.886C1219.06 322.297 1219.56 322.591 1220.08 322.768C1220.59 322.945 1221.18 323.034 1221.85 323.034C1222.63 323.034 1223.23 322.885 1223.65 322.586C1224.07 322.287 1224.28 321.867 1224.28 321.326C1224.28 320.999 1224.17 320.738 1223.97 320.542C1223.76 320.337 1223.47 320.173 1223.1 320.052C1222.74 319.921 1222.32 319.8 1221.84 319.688C1221.34 319.585 1220.87 319.464 1220.43 319.324C1220 319.184 1219.62 319.011 1219.29 318.806C1218.97 318.591 1218.71 318.325 1218.54 318.008C1218.36 317.691 1218.27 317.299 1218.27 316.832C1218.27 316.263 1218.42 315.759 1218.72 315.32C1219.03 314.881 1219.46 314.541 1220.01 314.298C1220.56 314.046 1221.21 313.92 1221.95 313.92C1222.41 313.92 1222.85 313.971 1223.27 314.074C1223.7 314.167 1224.09 314.307 1224.46 314.494C1224.82 314.671 1225.14 314.895 1225.41 315.166L1224.93 316.146C1224.48 315.754 1224.01 315.465 1223.52 315.278C1223.04 315.091 1222.51 314.998 1221.95 314.998C1221.21 314.998 1220.62 315.157 1220.19 315.474C1219.77 315.782 1219.56 316.216 1219.56 316.776C1219.56 317.121 1219.65 317.401 1219.84 317.616C1220.03 317.831 1220.29 318.003 1220.64 318.134C1220.98 318.265 1221.39 318.386 1221.87 318.498C1222.37 318.61 1222.85 318.736 1223.3 318.876C1223.74 319.016 1224.14 319.184 1224.47 319.38C1224.82 319.576 1225.09 319.828 1225.28 320.136C1225.48 320.435 1225.58 320.813 1225.58 321.27C1225.58 321.849 1225.43 322.353 1225.13 322.782C1224.83 323.202 1224.4 323.529 1223.84 323.762C1223.28 323.995 1222.62 324.112 1221.84 324.112ZM1233.11 323.174C1232.8 323.463 1232.41 323.692 1231.92 323.86C1231.43 324.019 1230.94 324.098 1230.44 324.098C1229.7 324.098 1229.06 323.953 1228.53 323.664C1228 323.375 1227.59 322.959 1227.3 322.418C1227.01 321.867 1226.87 321.214 1226.87 320.458C1226.87 319.73 1227.01 319.091 1227.29 318.54C1227.58 317.989 1227.97 317.56 1228.48 317.252C1228.98 316.935 1229.56 316.776 1230.21 316.776C1230.85 316.776 1231.39 316.916 1231.84 317.196C1232.29 317.476 1232.64 317.877 1232.87 318.4C1233.11 318.913 1233.24 319.529 1233.24 320.248V320.472H1227.99V319.688H1232.51L1232.12 320.192C1232.13 319.399 1231.98 318.792 1231.65 318.372C1231.33 317.952 1230.85 317.742 1230.23 317.742C1229.57 317.742 1229.06 317.975 1228.69 318.442C1228.32 318.899 1228.14 319.543 1228.14 320.374C1228.14 321.27 1228.34 321.947 1228.73 322.404C1229.12 322.852 1229.7 323.076 1230.46 323.076C1230.87 323.076 1231.27 323.011 1231.64 322.88C1232.01 322.74 1232.37 322.535 1232.7 322.264L1233.11 323.174ZM1234.91 327.024V318.932C1234.91 318.605 1234.91 318.279 1234.89 317.952C1234.88 317.616 1234.85 317.285 1234.8 316.958H1236.01L1236.13 318.4L1236.02 318.582C1236.18 318.003 1236.48 317.56 1236.93 317.252C1237.38 316.935 1237.92 316.776 1238.54 316.776C1239.16 316.776 1239.7 316.935 1240.16 317.252C1240.64 317.56 1241.01 317.989 1241.27 318.54C1241.54 319.091 1241.68 319.735 1241.68 320.472C1241.68 321.209 1241.54 321.853 1241.27 322.404C1241.01 322.945 1240.65 323.365 1240.18 323.664C1239.71 323.953 1239.17 324.098 1238.54 324.098C1237.92 324.098 1237.38 323.944 1236.93 323.636C1236.48 323.319 1236.18 322.875 1236.02 322.306L1236.19 322.152V327.024H1234.91ZM1238.27 323.062C1238.94 323.062 1239.45 322.838 1239.81 322.39C1240.18 321.942 1240.36 321.303 1240.36 320.472C1240.36 319.641 1240.18 318.993 1239.81 318.526C1239.45 318.059 1238.94 317.826 1238.27 317.826C1237.6 317.826 1237.08 318.055 1236.72 318.512C1236.36 318.96 1236.17 319.604 1236.17 320.444C1236.17 321.284 1236.36 321.933 1236.72 322.39C1237.08 322.838 1237.6 323.062 1238.27 323.062ZM1247.11 324V323.02L1250.58 319.212C1251.03 318.708 1251.36 318.255 1251.56 317.854C1251.78 317.443 1251.89 317.033 1251.89 316.622C1251.89 316.099 1251.73 315.698 1251.42 315.418C1251.12 315.129 1250.68 314.984 1250.12 314.984C1249.65 314.984 1249.17 315.082 1248.71 315.278C1248.24 315.465 1247.78 315.745 1247.32 316.118L1246.85 315.138C1247.24 314.765 1247.73 314.471 1248.33 314.256C1248.94 314.032 1249.54 313.92 1250.15 313.92C1250.77 313.92 1251.31 314.027 1251.76 314.242C1252.21 314.447 1252.56 314.751 1252.81 315.152C1253.06 315.544 1253.19 316.011 1253.19 316.552C1253.19 317.121 1253.06 317.667 1252.8 318.19C1252.54 318.713 1252.12 319.301 1251.54 319.954L1248.25 323.496L1248.13 322.922H1253.59V324H1247.11ZM1258.59 324.112C1257.44 324.112 1256.57 323.683 1255.97 322.824C1255.37 321.956 1255.07 320.687 1255.07 319.016C1255.07 317.345 1255.37 316.081 1255.95 315.222C1256.55 314.354 1257.43 313.92 1258.59 313.92C1259.74 313.92 1260.62 314.354 1261.2 315.222C1261.8 316.081 1262.1 317.341 1262.1 319.002C1262.1 320.673 1261.8 321.942 1261.2 322.81C1260.61 323.678 1259.73 324.112 1258.59 324.112ZM1258.59 323.048C1259.34 323.048 1259.9 322.721 1260.25 322.068C1260.62 321.415 1260.8 320.393 1260.8 319.002C1260.8 317.611 1260.62 316.599 1260.25 315.964C1259.9 315.32 1259.34 314.998 1258.59 314.998C1257.83 314.998 1257.27 315.32 1256.91 315.964C1256.55 316.608 1256.37 317.621 1256.37 319.002C1256.37 320.393 1256.55 321.415 1256.91 322.068C1257.27 322.721 1257.83 323.048 1258.59 323.048ZM1263.9 324V323.02L1267.37 319.212C1267.82 318.708 1268.15 318.255 1268.35 317.854C1268.57 317.443 1268.67 317.033 1268.67 316.622C1268.67 316.099 1268.52 315.698 1268.21 315.418C1267.9 315.129 1267.47 314.984 1266.91 314.984C1266.43 314.984 1265.96 315.082 1265.5 315.278C1265.03 315.465 1264.57 315.745 1264.11 316.118L1263.63 315.138C1264.03 314.765 1264.52 314.471 1265.12 314.256C1265.72 314.032 1266.33 313.92 1266.94 313.92C1267.56 313.92 1268.1 314.027 1268.55 314.242C1269 314.447 1269.35 314.751 1269.6 315.152C1269.85 315.544 1269.98 316.011 1269.98 316.552C1269.98 317.121 1269.85 317.667 1269.58 318.19C1269.33 318.713 1268.91 319.301 1268.32 319.954L1265.03 323.496L1264.92 322.922H1270.38V324H1263.9ZM1275.37 324.112C1274.23 324.112 1273.35 323.683 1272.76 322.824C1272.16 321.956 1271.86 320.687 1271.86 319.016C1271.86 317.345 1272.15 316.081 1272.74 315.222C1273.34 314.354 1274.22 313.92 1275.37 313.92C1276.53 313.92 1277.4 314.354 1277.99 315.222C1278.59 316.081 1278.89 317.341 1278.89 319.002C1278.89 320.673 1278.59 321.942 1277.99 322.81C1277.4 323.678 1276.52 324.112 1275.37 324.112ZM1275.37 323.048C1276.13 323.048 1276.69 322.721 1277.04 322.068C1277.4 321.415 1277.59 320.393 1277.59 319.002C1277.59 317.611 1277.4 316.599 1277.04 315.964C1276.69 315.32 1276.13 314.998 1275.37 314.998C1274.62 314.998 1274.06 315.32 1273.69 315.964C1273.34 316.608 1273.16 317.621 1273.16 319.002C1273.16 320.393 1273.34 321.415 1273.69 322.068C1274.06 322.721 1274.62 323.048 1275.37 323.048Z" fill="#969EAC"/>
<path d="M1092.9 324H1091.57L1095.98 314.032H1097.09L1101.51 324H1100.2L1096.33 314.998H1096.77L1092.9 324ZM1093.46 321.494L1093.93 320.43H1099.13L1099.6 321.494H1093.46ZM1105.27 324.098C1104.42 324.098 1103.78 323.865 1103.35 323.398C1102.93 322.922 1102.72 322.222 1102.72 321.298V316.958H1104V321.284C1104 321.891 1104.12 322.339 1104.36 322.628C1104.61 322.908 1104.99 323.048 1105.51 323.048C1106.11 323.048 1106.59 322.857 1106.95 322.474C1107.31 322.082 1107.5 321.564 1107.5 320.92V316.958H1108.78V324H1107.54V322.488L1107.71 322.418C1107.52 322.969 1107.21 323.389 1106.77 323.678C1106.33 323.958 1105.83 324.098 1105.27 324.098ZM1114.02 327.122C1112.95 327.122 1112.01 326.884 1111.22 326.408L1111.44 325.386C1111.88 325.638 1112.3 325.82 1112.69 325.932C1113.09 326.044 1113.54 326.1 1114.02 326.1C1114.68 326.1 1115.18 325.923 1115.52 325.568C1115.86 325.223 1116.04 324.705 1116.04 324.014V322.138L1116.19 321.998C1116.08 322.362 1115.9 322.679 1115.66 322.95C1115.43 323.211 1115.14 323.417 1114.79 323.566C1114.45 323.715 1114.07 323.79 1113.63 323.79C1113.01 323.79 1112.47 323.645 1111.99 323.356C1111.51 323.057 1111.14 322.647 1110.87 322.124C1110.61 321.601 1110.48 320.99 1110.48 320.29C1110.48 319.59 1110.61 318.979 1110.87 318.456C1111.14 317.924 1111.51 317.513 1111.99 317.224C1112.47 316.925 1113.01 316.776 1113.63 316.776C1114.27 316.776 1114.82 316.935 1115.27 317.252C1115.72 317.569 1116.03 318.008 1116.19 318.568L1116.02 318.456V316.958H1117.3V323.902C1117.3 324.975 1117.02 325.778 1116.46 326.31C1115.91 326.851 1115.09 327.122 1114.02 327.122ZM1113.91 322.74C1114.57 322.74 1115.09 322.525 1115.46 322.096C1115.84 321.657 1116.02 321.055 1116.02 320.29C1116.02 319.525 1115.84 318.923 1115.46 318.484C1115.09 318.045 1114.57 317.826 1113.91 317.826C1113.25 317.826 1112.72 318.045 1112.34 318.484C1111.96 318.923 1111.77 319.525 1111.77 320.29C1111.77 321.065 1111.96 321.667 1112.34 322.096C1112.72 322.525 1113.25 322.74 1113.91 322.74ZM1123.16 324V323.02L1126.64 319.212C1127.08 318.708 1127.41 318.255 1127.62 317.854C1127.83 317.443 1127.94 317.033 1127.94 316.622C1127.94 316.099 1127.78 315.698 1127.48 315.418C1127.17 315.129 1126.73 314.984 1126.17 314.984C1125.7 314.984 1125.23 315.082 1124.76 315.278C1124.29 315.465 1123.83 315.745 1123.37 316.118L1122.9 315.138C1123.29 314.765 1123.78 314.471 1124.38 314.256C1124.99 314.032 1125.6 313.92 1126.2 313.92C1126.83 313.92 1127.36 314.027 1127.81 314.242C1128.26 314.447 1128.61 314.751 1128.86 315.152C1129.11 315.544 1129.24 316.011 1129.24 316.552C1129.24 317.121 1129.11 317.667 1128.85 318.19C1128.6 318.713 1128.18 319.301 1127.59 319.954L1124.3 323.496L1124.19 322.922H1129.65V324H1123.16ZM1134.64 324.112C1133.49 324.112 1132.62 323.683 1132.02 322.824C1131.42 321.956 1131.12 320.687 1131.12 319.016C1131.12 317.345 1131.42 316.081 1132.01 315.222C1132.6 314.354 1133.48 313.92 1134.64 313.92C1135.8 313.92 1136.67 314.354 1137.26 315.222C1137.85 316.081 1138.15 317.341 1138.15 319.002C1138.15 320.673 1137.85 321.942 1137.26 322.81C1136.66 323.678 1135.79 324.112 1134.64 324.112ZM1134.64 323.048C1135.39 323.048 1135.95 322.721 1136.3 322.068C1136.67 321.415 1136.85 320.393 1136.85 319.002C1136.85 317.611 1136.67 316.599 1136.3 315.964C1135.95 315.32 1135.39 314.998 1134.64 314.998C1133.88 314.998 1133.32 315.32 1132.96 315.964C1132.6 316.608 1132.43 317.621 1132.43 319.002C1132.43 320.393 1132.6 321.415 1132.96 322.068C1133.32 322.721 1133.88 323.048 1134.64 323.048ZM1139.95 324V323.02L1143.43 319.212C1143.87 318.708 1144.2 318.255 1144.41 317.854C1144.62 317.443 1144.73 317.033 1144.73 316.622C1144.73 316.099 1144.57 315.698 1144.27 315.418C1143.96 315.129 1143.52 314.984 1142.96 314.984C1142.49 314.984 1142.02 315.082 1141.55 315.278C1141.08 315.465 1140.62 315.745 1140.16 316.118L1139.69 315.138C1140.08 314.765 1140.57 314.471 1141.17 314.256C1141.78 314.032 1142.38 313.92 1142.99 313.92C1143.62 313.92 1144.15 314.027 1144.6 314.242C1145.05 314.447 1145.4 314.751 1145.65 315.152C1145.9 315.544 1146.03 316.011 1146.03 316.552C1146.03 317.121 1145.9 317.667 1145.64 318.19C1145.39 318.713 1144.97 319.301 1144.38 319.954L1141.09 323.496L1140.98 322.922H1146.44V324H1139.95ZM1151.43 324.112C1150.28 324.112 1149.41 323.683 1148.81 322.824C1148.21 321.956 1147.91 320.687 1147.91 319.016C1147.91 317.345 1148.21 316.081 1148.8 315.222C1149.39 314.354 1150.27 313.92 1151.43 313.92C1152.58 313.92 1153.46 314.354 1154.05 315.222C1154.64 316.081 1154.94 317.341 1154.94 319.002C1154.94 320.673 1154.64 321.942 1154.05 322.81C1153.45 323.678 1152.58 324.112 1151.43 324.112ZM1151.43 323.048C1152.18 323.048 1152.74 322.721 1153.09 322.068C1153.46 321.415 1153.64 320.393 1153.64 319.002C1153.64 317.611 1153.46 316.599 1153.09 315.964C1152.74 315.32 1152.18 314.998 1151.43 314.998C1150.67 314.998 1150.11 315.32 1149.75 315.964C1149.39 316.608 1149.22 317.621 1149.22 319.002C1149.22 320.393 1149.39 321.415 1149.75 322.068C1150.11 322.721 1150.67 323.048 1151.43 323.048Z" fill="#969EAC"/>
<path d="M972.188 326.492V325.386C972.767 325.489 973.219 325.512 973.546 325.456C973.882 325.409 974.115 325.251 974.246 324.98C974.386 324.719 974.456 324.322 974.456 323.79V314.032H975.758V323.79C975.758 324.583 975.641 325.199 975.408 325.638C975.175 326.086 974.797 326.375 974.274 326.506C973.761 326.637 973.065 326.632 972.188 326.492ZM980.517 324.098C979.668 324.098 979.029 323.865 978.599 323.398C978.179 322.922 977.969 322.222 977.969 321.298V316.958H979.243V321.284C979.243 321.891 979.365 322.339 979.607 322.628C979.859 322.908 980.242 323.048 980.755 323.048C981.353 323.048 981.833 322.857 982.197 322.474C982.561 322.082 982.743 321.564 982.743 320.92V316.958H984.031V324H982.785V322.488L982.953 322.418C982.767 322.969 982.454 323.389 982.015 323.678C981.577 323.958 981.077 324.098 980.517 324.098ZM986.146 324V313.696H987.42V324H986.146ZM993.298 324V323.02L996.77 319.212C997.218 318.708 997.544 318.255 997.75 317.854C997.964 317.443 998.072 317.033 998.072 316.622C998.072 316.099 997.918 315.698 997.61 315.418C997.302 315.129 996.868 314.984 996.308 314.984C995.832 314.984 995.36 315.082 994.894 315.278C994.427 315.465 993.965 315.745 993.508 316.118L993.032 315.138C993.424 314.765 993.918 314.471 994.516 314.256C995.122 314.032 995.729 313.92 996.336 313.92C996.961 313.92 997.498 314.027 997.946 314.242C998.394 314.447 998.744 314.751 998.996 315.152C999.248 315.544 999.374 316.011 999.374 316.552C999.374 317.121 999.243 317.667 998.982 318.19C998.73 318.713 998.31 319.301 997.722 319.954L994.432 323.496L994.32 322.922H999.78V324H993.298ZM1004.77 324.112C1003.62 324.112 1002.75 323.683 1002.15 322.824C1001.56 321.956 1001.26 320.687 1001.26 319.016C1001.26 317.345 1001.55 316.081 1002.14 315.222C1002.74 314.354 1003.61 313.92 1004.77 313.92C1005.93 313.92 1006.8 314.354 1007.39 315.222C1007.99 316.081 1008.29 317.341 1008.29 319.002C1008.29 320.673 1007.99 321.942 1007.39 322.81C1006.79 323.678 1005.92 324.112 1004.77 324.112ZM1004.77 323.048C1005.53 323.048 1006.08 322.721 1006.44 322.068C1006.8 321.415 1006.98 320.393 1006.98 319.002C1006.98 317.611 1006.8 316.599 1006.44 315.964C1006.08 315.32 1005.53 314.998 1004.77 314.998C1004.02 314.998 1003.46 315.32 1003.09 315.964C1002.74 316.608 1002.56 317.621 1002.56 319.002C1002.56 320.393 1002.74 321.415 1003.09 322.068C1003.46 322.721 1004.02 323.048 1004.77 323.048ZM1010.09 324V323.02L1013.56 319.212C1014.01 318.708 1014.33 318.255 1014.54 317.854C1014.75 317.443 1014.86 317.033 1014.86 316.622C1014.86 316.099 1014.71 315.698 1014.4 315.418C1014.09 315.129 1013.66 314.984 1013.1 314.984C1012.62 314.984 1012.15 315.082 1011.68 315.278C1011.22 315.465 1010.75 315.745 1010.3 316.118L1009.82 315.138C1010.21 314.765 1010.71 314.471 1011.3 314.256C1011.91 314.032 1012.52 313.92 1013.12 313.92C1013.75 313.92 1014.29 314.027 1014.73 314.242C1015.18 314.447 1015.53 314.751 1015.78 315.152C1016.04 315.544 1016.16 316.011 1016.16 316.552C1016.16 317.121 1016.03 317.667 1015.77 318.19C1015.52 318.713 1015.1 319.301 1014.51 319.954L1011.22 323.496L1011.11 322.922H1016.57V324H1010.09ZM1021.56 324.112C1020.41 324.112 1019.54 323.683 1018.94 322.824C1018.35 321.956 1018.05 320.687 1018.05 319.016C1018.05 317.345 1018.34 316.081 1018.93 315.222C1019.53 314.354 1020.4 313.92 1021.56 313.92C1022.72 313.92 1023.59 314.354 1024.18 315.222C1024.78 316.081 1025.08 317.341 1025.08 319.002C1025.08 320.673 1024.78 321.942 1024.18 322.81C1023.58 323.678 1022.71 324.112 1021.56 324.112ZM1021.56 323.048C1022.32 323.048 1022.87 322.721 1023.23 322.068C1023.59 321.415 1023.77 320.393 1023.77 319.002C1023.77 317.611 1023.59 316.599 1023.23 315.964C1022.87 315.32 1022.32 314.998 1021.56 314.998C1020.81 314.998 1020.25 315.32 1019.88 315.964C1019.53 316.608 1019.35 317.621 1019.35 319.002C1019.35 320.393 1019.53 321.415 1019.88 322.068C1020.25 322.721 1020.81 323.048 1021.56 323.048Z" fill="#969EAC"/>
<path d="M844.268 326.492V325.386C844.847 325.489 845.3 325.512 845.626 325.456C845.962 325.409 846.196 325.251 846.326 324.98C846.466 324.719 846.536 324.322 846.536 323.79V314.032H847.838V323.79C847.838 324.583 847.722 325.199 847.488 325.638C847.255 326.086 846.877 326.375 846.354 326.506C845.841 326.637 845.146 326.632 844.268 326.492ZM852.597 324.098C851.748 324.098 851.109 323.865 850.679 323.398C850.259 322.922 850.049 322.222 850.049 321.298V316.958H851.323V321.284C851.323 321.891 851.445 322.339 851.687 322.628C851.939 322.908 852.322 323.048 852.835 323.048C853.433 323.048 853.913 322.857 854.277 322.474C854.641 322.082 854.823 321.564 854.823 320.92V316.958H856.111V324H854.865V322.488L855.033 322.418C854.847 322.969 854.534 323.389 854.095 323.678C853.657 323.958 853.157 324.098 852.597 324.098ZM858.226 324V318.932C858.226 318.605 858.217 318.279 858.198 317.952C858.189 317.616 858.161 317.285 858.114 316.958H859.318L859.444 318.4L859.304 318.484C859.509 317.933 859.836 317.513 860.284 317.224C860.741 316.925 861.264 316.776 861.852 316.776C863.541 316.776 864.386 317.714 864.386 319.59V324H863.112V319.66C863.112 319.025 862.986 318.563 862.734 318.274C862.491 317.975 862.099 317.826 861.558 317.826C860.933 317.826 860.433 318.022 860.06 318.414C859.687 318.797 859.5 319.315 859.5 319.968V324H858.226ZM870.218 324V323.02L873.69 319.212C874.138 318.708 874.464 318.255 874.67 317.854C874.884 317.443 874.992 317.033 874.992 316.622C874.992 316.099 874.838 315.698 874.53 315.418C874.222 315.129 873.788 314.984 873.228 314.984C872.752 314.984 872.28 315.082 871.814 315.278C871.347 315.465 870.885 315.745 870.428 316.118L869.952 315.138C870.344 314.765 870.838 314.471 871.436 314.256C872.042 314.032 872.649 313.92 873.256 313.92C873.881 313.92 874.418 314.027 874.866 314.242C875.314 314.447 875.664 314.751 875.916 315.152C876.168 315.544 876.294 316.011 876.294 316.552C876.294 317.121 876.163 317.667 875.902 318.19C875.65 318.713 875.23 319.301 874.642 319.954L871.352 323.496L871.24 322.922H876.7V324H870.218ZM881.692 324.112C880.544 324.112 879.672 323.683 879.074 322.824C878.477 321.956 878.178 320.687 878.178 319.016C878.178 317.345 878.472 316.081 879.06 315.222C879.658 314.354 880.535 313.92 881.692 313.92C882.85 313.92 883.722 314.354 884.31 315.222C884.908 316.081 885.206 317.341 885.206 319.002C885.206 320.673 884.908 321.942 884.31 322.81C883.713 323.678 882.84 324.112 881.692 324.112ZM881.692 323.048C882.448 323.048 883.004 322.721 883.358 322.068C883.722 321.415 883.904 320.393 883.904 319.002C883.904 317.611 883.722 316.599 883.358 315.964C883.004 315.32 882.448 314.998 881.692 314.998C880.936 314.998 880.376 315.32 880.012 315.964C879.658 316.608 879.48 317.621 879.48 319.002C879.48 320.393 879.658 321.415 880.012 322.068C880.376 322.721 880.936 323.048 881.692 323.048ZM887.007 324V323.02L890.479 319.212C890.927 318.708 891.253 318.255 891.459 317.854C891.673 317.443 891.781 317.033 891.781 316.622C891.781 316.099 891.627 315.698 891.319 315.418C891.011 315.129 890.577 314.984 890.017 314.984C889.541 314.984 889.069 315.082 888.603 315.278C888.136 315.465 887.674 315.745 887.217 316.118L886.741 315.138C887.133 314.765 887.627 314.471 888.225 314.256C888.831 314.032 889.438 313.92 890.045 313.92C890.67 313.92 891.207 314.027 891.655 314.242C892.103 314.447 892.453 314.751 892.705 315.152C892.957 315.544 893.083 316.011 893.083 316.552C893.083 317.121 892.952 317.667 892.691 318.19C892.439 318.713 892.019 319.301 891.431 319.954L888.141 323.496L888.029 322.922H893.489V324H887.007ZM898.481 324.112C897.333 324.112 896.461 323.683 895.863 322.824C895.266 321.956 894.967 320.687 894.967 319.016C894.967 317.345 895.261 316.081 895.849 315.222C896.447 314.354 897.324 313.92 898.481 313.92C899.639 313.92 900.511 314.354 901.099 315.222C901.697 316.081 901.995 317.341 901.995 319.002C901.995 320.673 901.697 321.942 901.099 322.81C900.502 323.678 899.629 324.112 898.481 324.112ZM898.481 323.048C899.237 323.048 899.793 322.721 900.147 322.068C900.511 321.415 900.693 320.393 900.693 319.002C900.693 317.611 900.511 316.599 900.147 315.964C899.793 315.32 899.237 314.998 898.481 314.998C897.725 314.998 897.165 315.32 896.801 315.964C896.447 316.608 896.269 317.621 896.269 319.002C896.269 320.393 896.447 321.415 896.801 322.068C897.165 322.721 897.725 323.048 898.481 323.048Z" fill="#969EAC"/>
<path d="M717.665 324V314.032H718.729L722.705 323.09H722.145L726.093 314.032H727.143V324H725.967V315.796L726.401 315.852L722.859 324H721.963L718.365 315.852L718.841 315.796L718.855 324H717.665ZM732.108 324.098C731.492 324.098 730.946 323.953 730.47 323.664C730.003 323.365 729.639 322.945 729.378 322.404C729.116 321.853 728.986 321.209 728.986 320.472C728.986 319.735 729.116 319.091 729.378 318.54C729.648 317.989 730.017 317.56 730.484 317.252C730.96 316.935 731.501 316.776 732.108 316.776C732.742 316.776 733.284 316.935 733.732 317.252C734.18 317.56 734.483 318.003 734.642 318.582L734.474 318.68V316.958H735.734V324H734.474V322.236L734.642 322.306C734.483 322.875 734.18 323.319 733.732 323.636C733.284 323.944 732.742 324.098 732.108 324.098ZM732.388 323.062C733.06 323.062 733.573 322.838 733.928 322.39C734.292 321.933 734.474 321.284 734.474 320.444C734.474 319.604 734.292 318.96 733.928 318.512C733.564 318.055 733.05 317.826 732.388 317.826C731.725 317.826 731.207 318.059 730.834 318.526C730.46 318.993 730.274 319.641 730.274 320.472C730.274 321.303 730.46 321.942 730.834 322.39C731.207 322.838 731.725 323.062 732.388 323.062ZM737.547 327.178L737.281 326.198C737.71 326.095 738.07 325.974 738.359 325.834C738.658 325.703 738.905 325.531 739.101 325.316C739.297 325.111 739.47 324.835 739.619 324.49L740.081 323.44L740.375 323.02L742.881 316.958H744.155L740.865 324.602C740.613 325.181 740.324 325.643 739.997 325.988C739.67 326.343 739.302 326.609 738.891 326.786C738.49 326.963 738.042 327.094 737.547 327.178ZM740.095 324.392L736.917 316.958H738.247L740.725 323.02L740.095 324.392ZM749.081 324V323.02L752.553 319.212C753.001 318.708 753.328 318.255 753.533 317.854C753.748 317.443 753.855 317.033 753.855 316.622C753.855 316.099 753.701 315.698 753.393 315.418C753.085 315.129 752.651 314.984 752.091 314.984C751.615 314.984 751.144 315.082 750.677 315.278C750.21 315.465 749.748 315.745 749.291 316.118L748.815 315.138C749.207 314.765 749.702 314.471 750.299 314.256C750.906 314.032 751.512 313.92 752.119 313.92C752.744 313.92 753.281 314.027 753.729 314.242C754.177 314.447 754.527 314.751 754.779 315.152C755.031 315.544 755.157 316.011 755.157 316.552C755.157 317.121 755.026 317.667 754.765 318.19C754.513 318.713 754.093 319.301 753.505 319.954L750.215 323.496L750.103 322.922H755.563V324H749.081ZM760.555 324.112C759.407 324.112 758.535 323.683 757.937 322.824C757.34 321.956 757.041 320.687 757.041 319.016C757.041 317.345 757.335 316.081 757.923 315.222C758.521 314.354 759.398 313.92 760.555 313.92C761.713 313.92 762.585 314.354 763.173 315.222C763.771 316.081 764.069 317.341 764.069 319.002C764.069 320.673 763.771 321.942 763.173 322.81C762.576 323.678 761.703 324.112 760.555 324.112ZM760.555 323.048C761.311 323.048 761.867 322.721 762.221 322.068C762.585 321.415 762.767 320.393 762.767 319.002C762.767 317.611 762.585 316.599 762.221 315.964C761.867 315.32 761.311 314.998 760.555 314.998C759.799 314.998 759.239 315.32 758.875 315.964C758.521 316.608 758.343 317.621 758.343 319.002C758.343 320.393 758.521 321.415 758.875 322.068C759.239 322.721 759.799 323.048 760.555 323.048ZM765.87 324V323.02L769.342 319.212C769.79 318.708 770.117 318.255 770.322 317.854C770.537 317.443 770.644 317.033 770.644 316.622C770.644 316.099 770.49 315.698 770.182 315.418C769.874 315.129 769.44 314.984 768.88 314.984C768.404 314.984 767.933 315.082 767.466 315.278C766.999 315.465 766.537 315.745 766.08 316.118L765.604 315.138C765.996 314.765 766.491 314.471 767.088 314.256C767.695 314.032 768.301 313.92 768.908 313.92C769.533 313.92 770.07 314.027 770.518 314.242C770.966 314.447 771.316 314.751 771.568 315.152C771.82 315.544 771.946 316.011 771.946 316.552C771.946 317.121 771.815 317.667 771.554 318.19C771.302 318.713 770.882 319.301 770.294 319.954L767.004 323.496L766.892 322.922H772.352V324H765.87ZM777.345 324.112C776.197 324.112 775.324 323.683 774.727 322.824C774.129 321.956 773.831 320.687 773.831 319.016C773.831 317.345 774.125 316.081 774.713 315.222C775.31 314.354 776.187 313.92 777.345 313.92C778.502 313.92 779.375 314.354 779.963 315.222C780.56 316.081 780.859 317.341 780.859 319.002C780.859 320.673 780.56 321.942 779.963 322.81C779.365 323.678 778.493 324.112 777.345 324.112ZM777.345 323.048C778.101 323.048 778.656 322.721 779.011 322.068C779.375 321.415 779.557 320.393 779.557 319.002C779.557 317.611 779.375 316.599 779.011 315.964C778.656 315.32 778.101 314.998 777.345 314.998C776.589 314.998 776.029 315.32 775.665 315.964C775.31 316.608 775.133 317.621 775.133 319.002C775.133 320.393 775.31 321.415 775.665 322.068C776.029 322.721 776.589 323.048 777.345 323.048Z" fill="#969EAC"/>
<path d="M593.922 324H592.592L597.002 314.032H598.108L602.532 324H601.216L597.352 314.998H597.786L593.922 324ZM594.482 321.494L594.944 320.43H600.152L600.614 321.494H594.482ZM603.782 327.024V318.932C603.782 318.605 603.772 318.279 603.754 317.952C603.744 317.616 603.716 317.285 603.67 316.958H604.874L605 318.4L604.888 318.582C605.046 318.003 605.35 317.56 605.798 317.252C606.246 316.935 606.782 316.776 607.408 316.776C608.024 316.776 608.565 316.935 609.032 317.252C609.508 317.56 609.876 317.989 610.138 318.54C610.408 319.091 610.544 319.735 610.544 320.472C610.544 321.209 610.408 321.853 610.138 322.404C609.876 322.945 609.512 323.365 609.046 323.664C608.579 323.953 608.033 324.098 607.408 324.098C606.782 324.098 606.246 323.944 605.798 323.636C605.35 323.319 605.046 322.875 604.888 322.306L605.056 322.152V327.024H603.782ZM607.142 323.062C607.804 323.062 608.318 322.838 608.682 322.39C609.046 321.942 609.228 321.303 609.228 320.472C609.228 319.641 609.046 318.993 608.682 318.526C608.318 318.059 607.804 317.826 607.142 317.826C606.47 317.826 605.952 318.055 605.588 318.512C605.224 318.96 605.042 319.604 605.042 320.444C605.042 321.284 605.224 321.933 605.588 322.39C605.952 322.838 606.47 323.062 607.142 323.062ZM612.231 324V318.932C612.231 318.605 612.222 318.279 612.203 317.952C612.194 317.616 612.166 317.285 612.119 316.958H613.323L613.477 318.708L613.323 318.652C613.444 318.036 613.72 317.574 614.149 317.266C614.588 316.949 615.078 316.79 615.619 316.79C615.75 316.79 615.866 316.799 615.969 316.818C616.081 316.827 616.184 316.846 616.277 316.874L616.263 318.036C616.03 317.952 615.768 317.91 615.479 317.91C615.003 317.91 614.62 318.013 614.331 318.218C614.042 318.423 613.832 318.685 613.701 319.002C613.57 319.319 613.505 319.66 613.505 320.024V324H612.231ZM621.146 324V323.02L624.618 319.212C625.066 318.708 625.393 318.255 625.598 317.854C625.813 317.443 625.92 317.033 625.92 316.622C625.92 316.099 625.766 315.698 625.458 315.418C625.15 315.129 624.716 314.984 624.156 314.984C623.68 314.984 623.209 315.082 622.742 315.278C622.276 315.465 621.814 315.745 621.356 316.118L620.88 315.138C621.272 314.765 621.767 314.471 622.364 314.256C622.971 314.032 623.578 313.92 624.184 313.92C624.81 313.92 625.346 314.027 625.794 314.242C626.242 314.447 626.592 314.751 626.844 315.152C627.096 315.544 627.222 316.011 627.222 316.552C627.222 317.121 627.092 317.667 626.83 318.19C626.578 318.713 626.158 319.301 625.57 319.954L622.28 323.496L622.168 322.922H627.628V324H621.146ZM632.621 324.112C631.473 324.112 630.6 323.683 630.003 322.824C629.406 321.956 629.107 320.687 629.107 319.016C629.107 317.345 629.401 316.081 629.989 315.222C630.586 314.354 631.464 313.92 632.621 313.92C633.778 313.92 634.651 314.354 635.239 315.222C635.836 316.081 636.135 317.341 636.135 319.002C636.135 320.673 635.836 321.942 635.239 322.81C634.642 323.678 633.769 324.112 632.621 324.112ZM632.621 323.048C633.377 323.048 633.932 322.721 634.287 322.068C634.651 321.415 634.833 320.393 634.833 319.002C634.833 317.611 634.651 316.599 634.287 315.964C633.932 315.32 633.377 314.998 632.621 314.998C631.865 314.998 631.305 315.32 630.941 315.964C630.586 316.608 630.409 317.621 630.409 319.002C630.409 320.393 630.586 321.415 630.941 322.068C631.305 322.721 631.865 323.048 632.621 323.048ZM637.935 324V323.02L641.407 319.212C641.855 318.708 642.182 318.255 642.387 317.854C642.602 317.443 642.709 317.033 642.709 316.622C642.709 316.099 642.555 315.698 642.247 315.418C641.939 315.129 641.505 314.984 640.945 314.984C640.469 314.984 639.998 315.082 639.531 315.278C639.065 315.465 638.603 315.745 638.145 316.118L637.669 315.138C638.061 314.765 638.556 314.471 639.153 314.256C639.76 314.032 640.367 313.92 640.973 313.92C641.599 313.92 642.135 314.027 642.583 314.242C643.031 314.447 643.381 314.751 643.633 315.152C643.885 315.544 644.011 316.011 644.011 316.552C644.011 317.121 643.881 317.667 643.619 318.19C643.367 318.713 642.947 319.301 642.359 319.954L639.069 323.496L638.957 322.922H644.417V324H637.935ZM649.41 324.112C648.262 324.112 647.389 323.683 646.792 322.824C646.195 321.956 645.896 320.687 645.896 319.016C645.896 317.345 646.19 316.081 646.778 315.222C647.375 314.354 648.253 313.92 649.41 313.92C650.567 313.92 651.44 314.354 652.028 315.222C652.625 316.081 652.924 317.341 652.924 319.002C652.924 320.673 652.625 321.942 652.028 322.81C651.431 323.678 650.558 324.112 649.41 324.112ZM649.41 323.048C650.166 323.048 650.721 322.721 651.076 322.068C651.44 321.415 651.622 320.393 651.622 319.002C651.622 317.611 651.44 316.599 651.076 315.964C650.721 315.32 650.166 314.998 649.41 314.998C648.654 314.998 648.094 315.32 647.73 315.964C647.375 316.608 647.198 317.621 647.198 319.002C647.198 320.393 647.375 321.415 647.73 322.068C648.094 322.721 648.654 323.048 649.41 323.048Z" fill="#969EAC"/>
<path d="M466.32 324V314.032H467.384L471.36 323.09H470.8L474.748 314.032H475.798V324H474.622V315.796L475.056 315.852L471.514 324H470.618L467.02 315.852L467.496 315.796L467.51 324H466.32ZM480.763 324.098C480.147 324.098 479.601 323.953 479.125 323.664C478.658 323.365 478.294 322.945 478.033 322.404C477.772 321.853 477.641 321.209 477.641 320.472C477.641 319.735 477.772 319.091 478.033 318.54C478.304 317.989 478.672 317.56 479.139 317.252C479.615 316.935 480.156 316.776 480.763 316.776C481.398 316.776 481.939 316.935 482.387 317.252C482.835 317.56 483.138 318.003 483.297 318.582L483.129 318.68V316.958H484.389V324H483.129V322.236L483.297 322.306C483.138 322.875 482.835 323.319 482.387 323.636C481.939 323.944 481.398 324.098 480.763 324.098ZM481.043 323.062C481.715 323.062 482.228 322.838 482.583 322.39C482.947 321.933 483.129 321.284 483.129 320.444C483.129 319.604 482.947 318.96 482.583 318.512C482.219 318.055 481.706 317.826 481.043 317.826C480.38 317.826 479.862 318.059 479.489 318.526C479.116 318.993 478.929 319.641 478.929 320.472C478.929 321.303 479.116 321.942 479.489 322.39C479.862 322.838 480.38 323.062 481.043 323.062ZM486.51 324V318.932C486.51 318.605 486.501 318.279 486.482 317.952C486.473 317.616 486.445 317.285 486.398 316.958H487.602L487.756 318.708L487.602 318.652C487.724 318.036 487.999 317.574 488.428 317.266C488.867 316.949 489.357 316.79 489.898 316.79C490.029 316.79 490.146 316.799 490.248 316.818C490.36 316.827 490.463 316.846 490.556 316.874L490.542 318.036C490.309 317.952 490.048 317.91 489.758 317.91C489.282 317.91 488.9 318.013 488.61 318.218C488.321 318.423 488.111 318.685 487.98 319.002C487.85 319.319 487.784 319.66 487.784 320.024V324H486.51ZM495.426 324V323.02L498.898 319.212C499.346 318.708 499.672 318.255 499.878 317.854C500.092 317.443 500.2 317.033 500.2 316.622C500.2 316.099 500.046 315.698 499.738 315.418C499.43 315.129 498.996 314.984 498.436 314.984C497.96 314.984 497.488 315.082 497.022 315.278C496.555 315.465 496.093 315.745 495.636 316.118L495.16 315.138C495.552 314.765 496.046 314.471 496.644 314.256C497.25 314.032 497.857 313.92 498.464 313.92C499.089 313.92 499.626 314.027 500.074 314.242C500.522 314.447 500.872 314.751 501.124 315.152C501.376 315.544 501.502 316.011 501.502 316.552C501.502 317.121 501.371 317.667 501.11 318.19C500.858 318.713 500.438 319.301 499.85 319.954L496.56 323.496L496.448 322.922H501.908V324H495.426ZM506.9 324.112C505.752 324.112 504.88 323.683 504.282 322.824C503.685 321.956 503.386 320.687 503.386 319.016C503.386 317.345 503.68 316.081 504.268 315.222C504.866 314.354 505.743 313.92 506.9 313.92C508.058 313.92 508.93 314.354 509.518 315.222C510.116 316.081 510.414 317.341 510.414 319.002C510.414 320.673 510.116 321.942 509.518 322.81C508.921 323.678 508.048 324.112 506.9 324.112ZM506.9 323.048C507.656 323.048 508.212 322.721 508.566 322.068C508.93 321.415 509.112 320.393 509.112 319.002C509.112 317.611 508.93 316.599 508.566 315.964C508.212 315.32 507.656 314.998 506.9 314.998C506.144 314.998 505.584 315.32 505.22 315.964C504.866 316.608 504.688 317.621 504.688 319.002C504.688 320.393 504.866 321.415 505.22 322.068C505.584 322.721 506.144 323.048 506.9 323.048ZM512.215 324V323.02L515.687 319.212C516.135 318.708 516.461 318.255 516.667 317.854C516.881 317.443 516.989 317.033 516.989 316.622C516.989 316.099 516.835 315.698 516.527 315.418C516.219 315.129 515.785 314.984 515.225 314.984C514.749 314.984 514.277 315.082 513.811 315.278C513.344 315.465 512.882 315.745 512.425 316.118L511.949 315.138C512.341 314.765 512.835 314.471 513.433 314.256C514.039 314.032 514.646 313.92 515.253 313.92C515.878 313.92 516.415 314.027 516.863 314.242C517.311 314.447 517.661 314.751 517.913 315.152C518.165 315.544 518.291 316.011 518.291 316.552C518.291 317.121 518.16 317.667 517.899 318.19C517.647 318.713 517.227 319.301 516.639 319.954L513.349 323.496L513.237 322.922H518.697V324H512.215ZM523.689 324.112C522.541 324.112 521.669 323.683 521.071 322.824C520.474 321.956 520.175 320.687 520.175 319.016C520.175 317.345 520.469 316.081 521.057 315.222C521.655 314.354 522.532 313.92 523.689 313.92C524.847 313.92 525.719 314.354 526.307 315.222C526.905 316.081 527.203 317.341 527.203 319.002C527.203 320.673 526.905 321.942 526.307 322.81C525.71 323.678 524.837 324.112 523.689 324.112ZM523.689 323.048C524.445 323.048 525.001 322.721 525.355 322.068C525.719 321.415 525.901 320.393 525.901 319.002C525.901 317.611 525.719 316.599 525.355 315.964C525.001 315.32 524.445 314.998 523.689 314.998C522.933 314.998 522.373 315.32 522.009 315.964C521.655 316.608 521.477 317.621 521.477 319.002C521.477 320.393 521.655 321.415 522.009 322.068C522.373 322.721 522.933 323.048 523.689 323.048Z" fill="#969EAC"/>
<path d="M341.641 324V314.032H347.871V315.11H342.915V318.4H347.591V319.478H342.915V324H341.641ZM355.104 323.174C354.796 323.463 354.399 323.692 353.914 323.86C353.428 324.019 352.934 324.098 352.43 324.098C351.692 324.098 351.058 323.953 350.526 323.664C349.994 323.375 349.583 322.959 349.294 322.418C349.004 321.867 348.86 321.214 348.86 320.458C348.86 319.73 349 319.091 349.28 318.54C349.569 317.989 349.966 317.56 350.47 317.252C350.974 316.935 351.552 316.776 352.206 316.776C352.84 316.776 353.382 316.916 353.83 317.196C354.287 317.476 354.632 317.877 354.866 318.4C355.108 318.913 355.23 319.529 355.23 320.248V320.472H349.98V319.688H354.502L354.11 320.192C354.128 319.399 353.974 318.792 353.648 318.372C353.321 317.952 352.845 317.742 352.22 317.742C351.566 317.742 351.053 317.975 350.68 318.442C350.316 318.899 350.134 319.543 350.134 320.374C350.134 321.27 350.33 321.947 350.722 322.404C351.114 322.852 351.692 323.076 352.458 323.076C352.868 323.076 353.26 323.011 353.634 322.88C354.007 322.74 354.362 322.535 354.698 322.264L355.104 323.174ZM356.909 324V313.696H358.183V318.736L358.015 318.568C358.173 318.008 358.477 317.569 358.925 317.252C359.373 316.935 359.909 316.776 360.535 316.776C361.16 316.776 361.706 316.925 362.173 317.224C362.639 317.523 363.003 317.947 363.265 318.498C363.535 319.039 363.671 319.679 363.671 320.416C363.671 321.153 363.535 321.802 363.265 322.362C363.003 322.913 362.635 323.342 362.159 323.65C361.692 323.949 361.151 324.098 360.535 324.098C359.909 324.098 359.373 323.944 358.925 323.636C358.477 323.319 358.173 322.875 358.015 322.306L358.169 322.138V324H356.909ZM360.269 323.062C360.931 323.062 361.445 322.833 361.809 322.376C362.173 321.909 362.355 321.256 362.355 320.416C362.355 319.595 362.173 318.96 361.809 318.512C361.445 318.055 360.931 317.826 360.269 317.826C359.597 317.826 359.079 318.055 358.715 318.512C358.351 318.969 358.169 319.613 358.169 320.444C358.169 321.284 358.351 321.933 358.715 322.39C359.079 322.838 359.597 323.062 360.269 323.062ZM369.105 324V323.02L372.577 319.212C373.025 318.708 373.352 318.255 373.557 317.854C373.772 317.443 373.879 317.033 373.879 316.622C373.879 316.099 373.725 315.698 373.417 315.418C373.109 315.129 372.675 314.984 372.115 314.984C371.639 314.984 371.168 315.082 370.701 315.278C370.235 315.465 369.773 315.745 369.315 316.118L368.839 315.138C369.231 314.765 369.726 314.471 370.323 314.256C370.93 314.032 371.537 313.92 372.143 313.92C372.769 313.92 373.305 314.027 373.753 314.242C374.201 314.447 374.551 314.751 374.803 315.152C375.055 315.544 375.181 316.011 375.181 316.552C375.181 317.121 375.051 317.667 374.789 318.19C374.537 318.713 374.117 319.301 373.529 319.954L370.239 323.496L370.127 322.922H375.587V324H369.105ZM380.58 324.112C379.432 324.112 378.559 323.683 377.962 322.824C377.365 321.956 377.066 320.687 377.066 319.016C377.066 317.345 377.36 316.081 377.948 315.222C378.545 314.354 379.423 313.92 380.58 313.92C381.737 313.92 382.61 314.354 383.198 315.222C383.795 316.081 384.094 317.341 384.094 319.002C384.094 320.673 383.795 321.942 383.198 322.81C382.601 323.678 381.728 324.112 380.58 324.112ZM380.58 323.048C381.336 323.048 381.891 322.721 382.246 322.068C382.61 321.415 382.792 320.393 382.792 319.002C382.792 317.611 382.61 316.599 382.246 315.964C381.891 315.32 381.336 314.998 380.58 314.998C379.824 314.998 379.264 315.32 378.9 315.964C378.545 316.608 378.368 317.621 378.368 319.002C378.368 320.393 378.545 321.415 378.9 322.068C379.264 322.721 379.824 323.048 380.58 323.048ZM385.894 324V323.02L389.366 319.212C389.814 318.708 390.141 318.255 390.346 317.854C390.561 317.443 390.668 317.033 390.668 316.622C390.668 316.099 390.514 315.698 390.206 315.418C389.898 315.129 389.464 314.984 388.904 314.984C388.428 314.984 387.957 315.082 387.49 315.278C387.024 315.465 386.562 315.745 386.104 316.118L385.628 315.138C386.02 314.765 386.515 314.471 387.112 314.256C387.719 314.032 388.326 313.92 388.932 313.92C389.558 313.92 390.094 314.027 390.542 314.242C390.99 314.447 391.34 314.751 391.592 315.152C391.844 315.544 391.97 316.011 391.97 316.552C391.97 317.121 391.84 317.667 391.578 318.19C391.326 318.713 390.906 319.301 390.318 319.954L387.028 323.496L386.916 322.922H392.376V324H385.894ZM397.369 324.112C396.221 324.112 395.348 323.683 394.751 322.824C394.154 321.956 393.855 320.687 393.855 319.016C393.855 317.345 394.149 316.081 394.737 315.222C395.334 314.354 396.212 313.92 397.369 313.92C398.526 313.92 399.399 314.354 399.987 315.222C400.584 316.081 400.883 317.341 400.883 319.002C400.883 320.673 400.584 321.942 399.987 322.81C399.39 323.678 398.517 324.112 397.369 324.112ZM397.369 323.048C398.125 323.048 398.68 322.721 399.035 322.068C399.399 321.415 399.581 320.393 399.581 319.002C399.581 317.611 399.399 316.599 399.035 315.964C398.68 315.32 398.125 314.998 397.369 314.998C396.613 314.998 396.053 315.32 395.689 315.964C395.334 316.608 395.157 317.621 395.157 319.002C395.157 320.393 395.334 321.415 395.689 322.068C396.053 322.721 396.613 323.048 397.369 323.048Z" fill="#969EAC"/>
<path d="M215.111 326.492V325.386C215.69 325.489 216.142 325.512 216.469 325.456C216.805 325.409 217.038 325.251 217.169 324.98C217.309 324.719 217.379 324.322 217.379 323.79V314.032H218.681V323.79C218.681 324.583 218.564 325.199 218.331 325.638C218.098 326.086 217.72 326.375 217.197 326.506C216.684 326.637 215.988 326.632 215.111 326.492ZM223.636 324.098C223.02 324.098 222.474 323.953 221.998 323.664C221.531 323.365 221.167 322.945 220.906 322.404C220.645 321.853 220.514 321.209 220.514 320.472C220.514 319.735 220.645 319.091 220.906 318.54C221.177 317.989 221.545 317.56 222.012 317.252C222.488 316.935 223.029 316.776 223.636 316.776C224.271 316.776 224.812 316.935 225.26 317.252C225.708 317.56 226.011 318.003 226.17 318.582L226.002 318.68V316.958H227.262V324H226.002V322.236L226.17 322.306C226.011 322.875 225.708 323.319 225.26 323.636C224.812 323.944 224.271 324.098 223.636 324.098ZM223.916 323.062C224.588 323.062 225.101 322.838 225.456 322.39C225.82 321.933 226.002 321.284 226.002 320.444C226.002 319.604 225.82 318.96 225.456 318.512C225.092 318.055 224.579 317.826 223.916 317.826C223.253 317.826 222.735 318.059 222.362 318.526C221.989 318.993 221.802 319.641 221.802 320.472C221.802 321.303 221.989 321.942 222.362 322.39C222.735 322.838 223.253 323.062 223.916 323.062ZM229.383 324V318.932C229.383 318.605 229.374 318.279 229.355 317.952C229.346 317.616 229.318 317.285 229.271 316.958H230.475L230.601 318.4L230.461 318.484C230.667 317.933 230.993 317.513 231.441 317.224C231.899 316.925 232.421 316.776 233.009 316.776C234.699 316.776 235.543 317.714 235.543 319.59V324H234.269V319.66C234.269 319.025 234.143 318.563 233.891 318.274C233.649 317.975 233.257 317.826 232.715 317.826C232.09 317.826 231.591 318.022 231.217 318.414C230.844 318.797 230.657 319.315 230.657 319.968V324H229.383ZM241.375 324V323.02L244.847 319.212C245.295 318.708 245.622 318.255 245.827 317.854C246.042 317.443 246.149 317.033 246.149 316.622C246.149 316.099 245.995 315.698 245.687 315.418C245.379 315.129 244.945 314.984 244.385 314.984C243.909 314.984 243.438 315.082 242.971 315.278C242.504 315.465 242.042 315.745 241.585 316.118L241.109 315.138C241.501 314.765 241.996 314.471 242.593 314.256C243.2 314.032 243.806 313.92 244.413 313.92C245.038 313.92 245.575 314.027 246.023 314.242C246.471 314.447 246.821 314.751 247.073 315.152C247.325 315.544 247.451 316.011 247.451 316.552C247.451 317.121 247.32 317.667 247.059 318.19C246.807 318.713 246.387 319.301 245.799 319.954L242.509 323.496L242.397 322.922H247.857V324H241.375ZM252.849 324.112C251.701 324.112 250.829 323.683 250.231 322.824C249.634 321.956 249.335 320.687 249.335 319.016C249.335 317.345 249.629 316.081 250.217 315.222C250.815 314.354 251.692 313.92 252.849 313.92C254.007 313.92 254.879 314.354 255.467 315.222C256.065 316.081 256.363 317.341 256.363 319.002C256.363 320.673 256.065 321.942 255.467 322.81C254.87 323.678 253.997 324.112 252.849 324.112ZM252.849 323.048C253.605 323.048 254.161 322.721 254.515 322.068C254.879 321.415 255.061 320.393 255.061 319.002C255.061 317.611 254.879 316.599 254.515 315.964C254.161 315.32 253.605 314.998 252.849 314.998C252.093 314.998 251.533 315.32 251.169 315.964C250.815 316.608 250.637 317.621 250.637 319.002C250.637 320.393 250.815 321.415 251.169 322.068C251.533 322.721 252.093 323.048 252.849 323.048ZM258.164 324V323.02L261.636 319.212C262.084 318.708 262.411 318.255 262.616 317.854C262.831 317.443 262.938 317.033 262.938 316.622C262.938 316.099 262.784 315.698 262.476 315.418C262.168 315.129 261.734 314.984 261.174 314.984C260.698 314.984 260.227 315.082 259.76 315.278C259.293 315.465 258.831 315.745 258.374 316.118L257.898 315.138C258.29 314.765 258.785 314.471 259.382 314.256C259.989 314.032 260.595 313.92 261.202 313.92C261.827 313.92 262.364 314.027 262.812 314.242C263.26 314.447 263.61 314.751 263.862 315.152C264.114 315.544 264.24 316.011 264.24 316.552C264.24 317.121 264.109 317.667 263.848 318.19C263.596 318.713 263.176 319.301 262.588 319.954L259.298 323.496L259.186 322.922H264.646V324H258.164ZM269.638 324.112C268.49 324.112 267.618 323.683 267.02 322.824C266.423 321.956 266.124 320.687 266.124 319.016C266.124 317.345 266.418 316.081 267.006 315.222C267.604 314.354 268.481 313.92 269.638 313.92C270.796 313.92 271.668 314.354 272.256 315.222C272.854 316.081 273.152 317.341 273.152 319.002C273.152 320.673 272.854 321.942 272.256 322.81C271.659 323.678 270.786 324.112 269.638 324.112ZM269.638 323.048C270.394 323.048 270.95 322.721 271.304 322.068C271.668 321.415 271.85 320.393 271.85 319.002C271.85 317.611 271.668 316.599 271.304 315.964C270.95 315.32 270.394 314.998 269.638 314.998C268.882 314.998 268.322 315.32 267.958 315.964C267.604 316.608 267.426 317.621 267.426 319.002C267.426 320.393 267.604 321.415 267.958 322.068C268.322 322.721 268.882 323.048 269.638 323.048Z" fill="#969EAC"/>
<path opacity="0.24" d="M240 294.5H1254" stroke="#969EAC"/>
<path d="M1290.23 299.112C1289.51 299.112 1288.84 299.005 1288.21 298.79C1287.6 298.575 1287.06 298.263 1286.6 297.852L1287.06 296.872C1287.56 297.283 1288.05 297.581 1288.55 297.768C1289.05 297.945 1289.6 298.034 1290.2 298.034C1290.93 298.034 1291.49 297.885 1291.88 297.586C1292.28 297.278 1292.48 296.853 1292.48 296.312C1292.48 295.976 1292.38 295.71 1292.17 295.514C1291.97 295.318 1291.69 295.159 1291.35 295.038C1291.01 294.907 1290.64 294.795 1290.23 294.702C1289.83 294.609 1289.42 294.501 1289.01 294.38C1288.61 294.249 1288.24 294.086 1287.89 293.89C1287.55 293.685 1287.28 293.419 1287.08 293.092C1286.87 292.765 1286.77 292.341 1286.77 291.818C1286.77 291.249 1286.92 290.749 1287.22 290.32C1287.53 289.881 1287.95 289.541 1288.48 289.298C1289.02 289.046 1289.63 288.92 1290.31 288.92C1290.74 288.92 1291.16 288.971 1291.57 289.074C1291.98 289.167 1292.37 289.307 1292.72 289.494C1293.08 289.671 1293.4 289.891 1293.66 290.152L1293.2 291.132C1292.36 290.376 1291.4 289.998 1290.33 289.998C1289.64 289.998 1289.09 290.157 1288.69 290.474C1288.29 290.782 1288.09 291.211 1288.09 291.762C1288.09 292.126 1288.19 292.42 1288.39 292.644C1288.6 292.868 1288.87 293.045 1289.21 293.176C1289.55 293.307 1289.92 293.419 1290.33 293.512C1290.74 293.605 1291.14 293.713 1291.54 293.834C1291.95 293.955 1292.33 294.109 1292.66 294.296C1293.01 294.483 1293.28 294.735 1293.48 295.052C1293.68 295.369 1293.78 295.775 1293.78 296.27C1293.78 296.839 1293.63 297.339 1293.34 297.768C1293.04 298.188 1292.62 298.519 1292.08 298.762C1291.54 298.995 1290.93 299.112 1290.23 299.112ZM1289.79 300.624V298.888L1289.85 298.272V289.634L1289.79 289.116V287.408H1290.89V289.116L1290.83 289.634V298.272L1290.89 298.888V300.624H1289.79ZM1298.59 299.112C1297.45 299.112 1296.57 298.683 1295.98 297.824C1295.38 296.956 1295.08 295.687 1295.08 294.016C1295.08 292.345 1295.37 291.081 1295.96 290.222C1296.56 289.354 1297.44 288.92 1298.59 288.92C1299.75 288.92 1300.62 289.354 1301.21 290.222C1301.81 291.081 1302.11 292.341 1302.11 294.002C1302.11 295.673 1301.81 296.942 1301.21 297.81C1300.62 298.678 1299.74 299.112 1298.59 299.112ZM1298.59 298.048C1299.35 298.048 1299.91 297.721 1300.26 297.068C1300.62 296.415 1300.81 295.393 1300.81 294.002C1300.81 292.611 1300.62 291.599 1300.26 290.964C1299.91 290.32 1299.35 289.998 1298.59 289.998C1297.84 289.998 1297.28 290.32 1296.91 290.964C1296.56 291.608 1296.38 292.621 1296.38 294.002C1296.38 295.393 1296.56 296.415 1296.91 297.068C1297.28 297.721 1297.84 298.048 1298.59 298.048ZM1308.61 299L1304.88 295.402L1308.35 291.972H1309.94L1306.08 295.738L1306.14 294.996L1310.25 299H1308.61ZM1303.85 299V288.696H1305.13V299H1303.85Z" fill="#969EAC"/>
<path d="M1290.23 263.112C1289.51 263.112 1288.84 263.005 1288.21 262.79C1287.6 262.575 1287.06 262.263 1286.6 261.852L1287.06 260.872C1287.56 261.283 1288.05 261.581 1288.55 261.768C1289.05 261.945 1289.6 262.034 1290.2 262.034C1290.93 262.034 1291.49 261.885 1291.88 261.586C1292.28 261.278 1292.48 260.853 1292.48 260.312C1292.48 259.976 1292.38 259.71 1292.17 259.514C1291.97 259.318 1291.69 259.159 1291.35 259.038C1291.01 258.907 1290.64 258.795 1290.23 258.702C1289.83 258.609 1289.42 258.501 1289.01 258.38C1288.61 258.249 1288.24 258.086 1287.89 257.89C1287.55 257.685 1287.28 257.419 1287.08 257.092C1286.87 256.765 1286.77 256.341 1286.77 255.818C1286.77 255.249 1286.92 254.749 1287.22 254.32C1287.53 253.881 1287.95 253.541 1288.48 253.298C1289.02 253.046 1289.63 252.92 1290.31 252.92C1290.74 252.92 1291.16 252.971 1291.57 253.074C1291.98 253.167 1292.37 253.307 1292.72 253.494C1293.08 253.671 1293.4 253.891 1293.66 254.152L1293.2 255.132C1292.36 254.376 1291.4 253.998 1290.33 253.998C1289.64 253.998 1289.09 254.157 1288.69 254.474C1288.29 254.782 1288.09 255.211 1288.09 255.762C1288.09 256.126 1288.19 256.42 1288.39 256.644C1288.6 256.868 1288.87 257.045 1289.21 257.176C1289.55 257.307 1289.92 257.419 1290.33 257.512C1290.74 257.605 1291.14 257.713 1291.54 257.834C1291.95 257.955 1292.33 258.109 1292.66 258.296C1293.01 258.483 1293.28 258.735 1293.48 259.052C1293.68 259.369 1293.78 259.775 1293.78 260.27C1293.78 260.839 1293.63 261.339 1293.34 261.768C1293.04 262.188 1292.62 262.519 1292.08 262.762C1291.54 262.995 1290.93 263.112 1290.23 263.112ZM1289.79 264.624V262.888L1289.85 262.272V253.634L1289.79 253.116V251.408H1290.89V253.116L1290.83 253.634V262.272L1290.89 262.888V264.624H1289.79ZM1295.51 263V262.02L1298.99 258.212C1299.43 257.708 1299.76 257.255 1299.97 256.854C1300.18 256.443 1300.29 256.033 1300.29 255.622C1300.29 255.099 1300.13 254.698 1299.83 254.418C1299.52 254.129 1299.08 253.984 1298.52 253.984C1298.05 253.984 1297.58 254.082 1297.11 254.278C1296.64 254.465 1296.18 254.745 1295.72 255.118L1295.25 254.138C1295.64 253.765 1296.14 253.471 1296.73 253.256C1297.34 253.032 1297.95 252.92 1298.55 252.92C1299.18 252.92 1299.71 253.027 1300.16 253.242C1300.61 253.447 1300.96 253.751 1301.21 254.152C1301.46 254.544 1301.59 255.011 1301.59 255.552C1301.59 256.121 1301.46 256.667 1301.2 257.19C1300.95 257.713 1300.53 258.301 1299.94 258.954L1296.65 262.496L1296.54 261.922H1302V263H1295.51ZM1307.12 263.098C1306.5 263.098 1305.89 262.991 1305.3 262.776C1304.71 262.561 1304.21 262.263 1303.81 261.88L1304.29 260.9C1304.74 261.273 1305.21 261.558 1305.67 261.754C1306.14 261.941 1306.62 262.034 1307.12 262.034C1307.8 262.034 1308.33 261.847 1308.71 261.474C1309.09 261.091 1309.29 260.569 1309.29 259.906C1309.29 259.486 1309.2 259.117 1309.02 258.8C1308.85 258.483 1308.61 258.235 1308.29 258.058C1307.98 257.871 1307.62 257.778 1307.2 257.778C1306.74 257.778 1306.33 257.871 1305.95 258.058C1305.58 258.235 1305.25 258.506 1304.97 258.87H1304.11V253.032H1310.14V254.082H1305.39V257.946L1304.99 257.904C1305.26 257.521 1305.6 257.227 1306.02 257.022C1306.44 256.817 1306.91 256.714 1307.44 256.714C1308.07 256.714 1308.62 256.849 1309.09 257.12C1309.56 257.381 1309.92 257.75 1310.17 258.226C1310.42 258.702 1310.55 259.253 1310.55 259.878C1310.55 260.513 1310.41 261.073 1310.13 261.558C1309.85 262.043 1309.45 262.421 1308.94 262.692C1308.42 262.963 1307.82 263.098 1307.12 263.098ZM1315.38 263.112C1314.24 263.112 1313.36 262.683 1312.77 261.824C1312.17 260.956 1311.87 259.687 1311.87 258.016C1311.87 256.345 1312.16 255.081 1312.75 254.222C1313.35 253.354 1314.23 252.92 1315.38 252.92C1316.54 252.92 1317.41 253.354 1318 254.222C1318.6 255.081 1318.9 256.341 1318.9 258.002C1318.9 259.673 1318.6 260.942 1318 261.81C1317.4 262.678 1316.53 263.112 1315.38 263.112ZM1315.38 262.048C1316.14 262.048 1316.69 261.721 1317.05 261.068C1317.41 260.415 1317.6 259.393 1317.6 258.002C1317.6 256.611 1317.41 255.599 1317.05 254.964C1316.69 254.32 1316.14 253.998 1315.38 253.998C1314.63 253.998 1314.07 254.32 1313.7 254.964C1313.35 255.608 1313.17 256.621 1313.17 258.002C1313.17 259.393 1313.35 260.415 1313.7 261.068C1314.07 261.721 1314.63 262.048 1315.38 262.048ZM1325.4 263L1321.66 259.402L1325.14 255.972H1326.73L1322.87 259.738L1322.92 258.996L1327.04 263H1325.4ZM1320.64 263V252.696H1321.92V263H1320.64Z" fill="#969EAC"/>
<path d="M1290.23 227.112C1289.51 227.112 1288.84 227.005 1288.21 226.79C1287.6 226.575 1287.06 226.263 1286.6 225.852L1287.06 224.872C1287.56 225.283 1288.05 225.581 1288.55 225.768C1289.05 225.945 1289.6 226.034 1290.2 226.034C1290.93 226.034 1291.49 225.885 1291.88 225.586C1292.28 225.278 1292.48 224.853 1292.48 224.312C1292.48 223.976 1292.38 223.71 1292.17 223.514C1291.97 223.318 1291.69 223.159 1291.35 223.038C1291.01 222.907 1290.64 222.795 1290.23 222.702C1289.83 222.609 1289.42 222.501 1289.01 222.38C1288.61 222.249 1288.24 222.086 1287.89 221.89C1287.55 221.685 1287.28 221.419 1287.08 221.092C1286.87 220.765 1286.77 220.341 1286.77 219.818C1286.77 219.249 1286.92 218.749 1287.22 218.32C1287.53 217.881 1287.95 217.541 1288.48 217.298C1289.02 217.046 1289.63 216.92 1290.31 216.92C1290.74 216.92 1291.16 216.971 1291.57 217.074C1291.98 217.167 1292.37 217.307 1292.72 217.494C1293.08 217.671 1293.4 217.891 1293.66 218.152L1293.2 219.132C1292.36 218.376 1291.4 217.998 1290.33 217.998C1289.64 217.998 1289.09 218.157 1288.69 218.474C1288.29 218.782 1288.09 219.211 1288.09 219.762C1288.09 220.126 1288.19 220.42 1288.39 220.644C1288.6 220.868 1288.87 221.045 1289.21 221.176C1289.55 221.307 1289.92 221.419 1290.33 221.512C1290.74 221.605 1291.14 221.713 1291.54 221.834C1291.95 221.955 1292.33 222.109 1292.66 222.296C1293.01 222.483 1293.28 222.735 1293.48 223.052C1293.68 223.369 1293.78 223.775 1293.78 224.27C1293.78 224.839 1293.63 225.339 1293.34 225.768C1293.04 226.188 1292.62 226.519 1292.08 226.762C1291.54 226.995 1290.93 227.112 1290.23 227.112ZM1289.79 228.624V226.888L1289.85 226.272V217.634L1289.79 217.116V215.408H1290.89V217.116L1290.83 217.634V226.272L1290.89 226.888V228.624H1289.79ZM1298.72 227.098C1298.1 227.098 1297.5 226.991 1296.9 226.776C1296.31 226.561 1295.82 226.263 1295.42 225.88L1295.89 224.9C1296.35 225.273 1296.81 225.558 1297.28 225.754C1297.75 225.941 1298.23 226.034 1298.72 226.034C1299.4 226.034 1299.93 225.847 1300.32 225.474C1300.7 225.091 1300.89 224.569 1300.89 223.906C1300.89 223.486 1300.8 223.117 1300.62 222.8C1300.46 222.483 1300.21 222.235 1299.9 222.058C1299.59 221.871 1299.22 221.778 1298.8 221.778C1298.35 221.778 1297.93 221.871 1297.56 222.058C1297.19 222.235 1296.86 222.506 1296.58 222.87H1295.71V217.032H1301.74V218.082H1297V221.946L1296.59 221.904C1296.86 221.521 1297.21 221.227 1297.63 221.022C1298.05 220.817 1298.52 220.714 1299.04 220.714C1299.68 220.714 1300.23 220.849 1300.69 221.12C1301.16 221.381 1301.52 221.75 1301.77 222.226C1302.02 222.702 1302.15 223.253 1302.15 223.878C1302.15 224.513 1302.01 225.073 1301.73 225.558C1301.45 226.043 1301.05 226.421 1300.54 226.692C1300.03 226.963 1299.42 227.098 1298.72 227.098ZM1306.99 227.112C1305.84 227.112 1304.97 226.683 1304.37 225.824C1303.77 224.956 1303.48 223.687 1303.48 222.016C1303.48 220.345 1303.77 219.081 1304.36 218.222C1304.95 217.354 1305.83 216.92 1306.99 216.92C1308.15 216.92 1309.02 217.354 1309.61 218.222C1310.2 219.081 1310.5 220.341 1310.5 222.002C1310.5 223.673 1310.2 224.942 1309.61 225.81C1309.01 226.678 1308.14 227.112 1306.99 227.112ZM1306.99 226.048C1307.75 226.048 1308.3 225.721 1308.66 225.068C1309.02 224.415 1309.2 223.393 1309.2 222.002C1309.2 220.611 1309.02 219.599 1308.66 218.964C1308.3 218.32 1307.75 217.998 1306.99 217.998C1306.23 217.998 1305.67 218.32 1305.31 218.964C1304.95 219.608 1304.78 220.621 1304.78 222.002C1304.78 223.393 1304.95 224.415 1305.31 225.068C1305.67 225.721 1306.23 226.048 1306.99 226.048ZM1315.38 227.112C1314.24 227.112 1313.36 226.683 1312.77 225.824C1312.17 224.956 1311.87 223.687 1311.87 222.016C1311.87 220.345 1312.16 219.081 1312.75 218.222C1313.35 217.354 1314.23 216.92 1315.38 216.92C1316.54 216.92 1317.41 217.354 1318 218.222C1318.6 219.081 1318.9 220.341 1318.9 222.002C1318.9 223.673 1318.6 224.942 1318 225.81C1317.4 226.678 1316.53 227.112 1315.38 227.112ZM1315.38 226.048C1316.14 226.048 1316.69 225.721 1317.05 225.068C1317.41 224.415 1317.6 223.393 1317.6 222.002C1317.6 220.611 1317.41 219.599 1317.05 218.964C1316.69 218.32 1316.14 217.998 1315.38 217.998C1314.63 217.998 1314.07 218.32 1313.7 218.964C1313.35 219.608 1313.17 220.621 1313.17 222.002C1313.17 223.393 1313.35 224.415 1313.7 225.068C1314.07 225.721 1314.63 226.048 1315.38 226.048ZM1325.4 227L1321.66 223.402L1325.14 219.972H1326.73L1322.87 223.738L1322.92 222.996L1327.04 227H1325.4ZM1320.64 227V216.696H1321.92V227H1320.64Z" fill="#969EAC"/>
<path d="M1290.23 191.112C1289.51 191.112 1288.84 191.005 1288.21 190.79C1287.6 190.575 1287.06 190.263 1286.6 189.852L1287.06 188.872C1287.56 189.283 1288.05 189.581 1288.55 189.768C1289.05 189.945 1289.6 190.034 1290.2 190.034C1290.93 190.034 1291.49 189.885 1291.88 189.586C1292.28 189.278 1292.48 188.853 1292.48 188.312C1292.48 187.976 1292.38 187.71 1292.17 187.514C1291.97 187.318 1291.69 187.159 1291.35 187.038C1291.01 186.907 1290.64 186.795 1290.23 186.702C1289.83 186.609 1289.42 186.501 1289.01 186.38C1288.61 186.249 1288.24 186.086 1287.89 185.89C1287.55 185.685 1287.28 185.419 1287.08 185.092C1286.87 184.765 1286.77 184.341 1286.77 183.818C1286.77 183.249 1286.92 182.749 1287.22 182.32C1287.53 181.881 1287.95 181.541 1288.48 181.298C1289.02 181.046 1289.63 180.92 1290.31 180.92C1290.74 180.92 1291.16 180.971 1291.57 181.074C1291.98 181.167 1292.37 181.307 1292.72 181.494C1293.08 181.671 1293.4 181.891 1293.66 182.152L1293.2 183.132C1292.36 182.376 1291.4 181.998 1290.33 181.998C1289.64 181.998 1289.09 182.157 1288.69 182.474C1288.29 182.782 1288.09 183.211 1288.09 183.762C1288.09 184.126 1288.19 184.42 1288.39 184.644C1288.6 184.868 1288.87 185.045 1289.21 185.176C1289.55 185.307 1289.92 185.419 1290.33 185.512C1290.74 185.605 1291.14 185.713 1291.54 185.834C1291.95 185.955 1292.33 186.109 1292.66 186.296C1293.01 186.483 1293.28 186.735 1293.48 187.052C1293.68 187.369 1293.78 187.775 1293.78 188.27C1293.78 188.839 1293.63 189.339 1293.34 189.768C1293.04 190.188 1292.62 190.519 1292.08 190.762C1291.54 190.995 1290.93 191.112 1290.23 191.112ZM1289.79 192.624V190.888L1289.85 190.272V181.634L1289.79 181.116V179.408H1290.89V181.116L1290.83 181.634V190.272L1290.89 190.888V192.624H1289.79ZM1297.28 191H1295.89L1300.76 181.62L1300.85 182.11H1295.26V181.032H1301.93V181.998L1297.28 191ZM1307.12 191.098C1306.5 191.098 1305.89 190.991 1305.3 190.776C1304.71 190.561 1304.21 190.263 1303.81 189.88L1304.29 188.9C1304.74 189.273 1305.21 189.558 1305.67 189.754C1306.14 189.941 1306.62 190.034 1307.12 190.034C1307.8 190.034 1308.33 189.847 1308.71 189.474C1309.09 189.091 1309.29 188.569 1309.29 187.906C1309.29 187.486 1309.2 187.117 1309.02 186.8C1308.85 186.483 1308.61 186.235 1308.29 186.058C1307.98 185.871 1307.62 185.778 1307.2 185.778C1306.74 185.778 1306.33 185.871 1305.95 186.058C1305.58 186.235 1305.25 186.506 1304.97 186.87H1304.11V181.032H1310.14V182.082H1305.39V185.946L1304.99 185.904C1305.26 185.521 1305.6 185.227 1306.02 185.022C1306.44 184.817 1306.91 184.714 1307.44 184.714C1308.07 184.714 1308.62 184.849 1309.09 185.12C1309.56 185.381 1309.92 185.75 1310.17 186.226C1310.42 186.702 1310.55 187.253 1310.55 187.878C1310.55 188.513 1310.41 189.073 1310.13 189.558C1309.85 190.043 1309.45 190.421 1308.94 190.692C1308.42 190.963 1307.82 191.098 1307.12 191.098ZM1315.38 191.112C1314.24 191.112 1313.36 190.683 1312.77 189.824C1312.17 188.956 1311.87 187.687 1311.87 186.016C1311.87 184.345 1312.16 183.081 1312.75 182.222C1313.35 181.354 1314.23 180.92 1315.38 180.92C1316.54 180.92 1317.41 181.354 1318 182.222C1318.6 183.081 1318.9 184.341 1318.9 186.002C1318.9 187.673 1318.6 188.942 1318 189.81C1317.4 190.678 1316.53 191.112 1315.38 191.112ZM1315.38 190.048C1316.14 190.048 1316.69 189.721 1317.05 189.068C1317.41 188.415 1317.6 187.393 1317.6 186.002C1317.6 184.611 1317.41 183.599 1317.05 182.964C1316.69 182.32 1316.14 181.998 1315.38 181.998C1314.63 181.998 1314.07 182.32 1313.7 182.964C1313.35 183.608 1313.17 184.621 1313.17 186.002C1313.17 187.393 1313.35 188.415 1313.7 189.068C1314.07 189.721 1314.63 190.048 1315.38 190.048ZM1325.4 191L1321.66 187.402L1325.14 183.972H1326.73L1322.87 187.738L1322.92 186.996L1327.04 191H1325.4ZM1320.64 191V180.696H1321.92V191H1320.64Z" fill="#969EAC"/>
<path d="M1290.23 155.112C1289.51 155.112 1288.84 155.005 1288.21 154.79C1287.6 154.575 1287.06 154.263 1286.6 153.852L1287.06 152.872C1287.56 153.283 1288.05 153.581 1288.55 153.768C1289.05 153.945 1289.6 154.034 1290.2 154.034C1290.93 154.034 1291.49 153.885 1291.88 153.586C1292.28 153.278 1292.48 152.853 1292.48 152.312C1292.48 151.976 1292.38 151.71 1292.17 151.514C1291.97 151.318 1291.69 151.159 1291.35 151.038C1291.01 150.907 1290.64 150.795 1290.23 150.702C1289.83 150.609 1289.42 150.501 1289.01 150.38C1288.61 150.249 1288.24 150.086 1287.89 149.89C1287.55 149.685 1287.28 149.419 1287.08 149.092C1286.87 148.765 1286.77 148.341 1286.77 147.818C1286.77 147.249 1286.92 146.749 1287.22 146.32C1287.53 145.881 1287.95 145.541 1288.48 145.298C1289.02 145.046 1289.63 144.92 1290.31 144.92C1290.74 144.92 1291.16 144.971 1291.57 145.074C1291.98 145.167 1292.37 145.307 1292.72 145.494C1293.08 145.671 1293.4 145.891 1293.66 146.152L1293.2 147.132C1292.36 146.376 1291.4 145.998 1290.33 145.998C1289.64 145.998 1289.09 146.157 1288.69 146.474C1288.29 146.782 1288.09 147.211 1288.09 147.762C1288.09 148.126 1288.19 148.42 1288.39 148.644C1288.6 148.868 1288.87 149.045 1289.21 149.176C1289.55 149.307 1289.92 149.419 1290.33 149.512C1290.74 149.605 1291.14 149.713 1291.54 149.834C1291.95 149.955 1292.33 150.109 1292.66 150.296C1293.01 150.483 1293.28 150.735 1293.48 151.052C1293.68 151.369 1293.78 151.775 1293.78 152.27C1293.78 152.839 1293.63 153.339 1293.34 153.768C1293.04 154.188 1292.62 154.519 1292.08 154.762C1291.54 154.995 1290.93 155.112 1290.23 155.112ZM1289.79 156.624V154.888L1289.85 154.272V145.634L1289.79 145.116V143.408H1290.89V145.116L1290.83 145.634V154.272L1290.89 154.888V156.624H1289.79ZM1298.33 154.412V145.858L1299.04 146.152L1296.28 147.888V146.67L1298.89 145.032H1299.63V154.412H1298.33ZM1296.13 155V153.922H1301.83V155H1296.13ZM1303.85 155V149.932C1303.85 149.605 1303.84 149.279 1303.83 148.952C1303.82 148.616 1303.79 148.285 1303.74 147.958H1304.95L1305.07 149.4L1304.93 149.47C1305.1 148.929 1305.39 148.513 1305.8 148.224C1306.22 147.925 1306.71 147.776 1307.28 147.776C1307.96 147.776 1308.49 147.944 1308.87 148.28C1309.25 148.616 1309.49 149.129 1309.59 149.82L1309.26 149.61C1309.42 149.05 1309.72 148.607 1310.17 148.28C1310.62 147.944 1311.15 147.776 1311.78 147.776C1312.56 147.776 1313.15 148.009 1313.54 148.476C1313.93 148.943 1314.13 149.647 1314.13 150.59V155H1312.86V150.646C1312.86 150.021 1312.74 149.563 1312.52 149.274C1312.3 148.975 1311.95 148.826 1311.47 148.826C1310.9 148.826 1310.45 149.022 1310.13 149.414C1309.8 149.797 1309.64 150.324 1309.64 150.996V155H1308.36V150.646C1308.36 150.021 1308.25 149.563 1308.03 149.274C1307.8 148.975 1307.45 148.826 1306.96 148.826C1306.38 148.826 1305.93 149.022 1305.6 149.414C1305.29 149.797 1305.13 150.324 1305.13 150.996V155H1303.85Z" fill="#969EAC"/>
<path d="M1290.23 119.112C1289.51 119.112 1288.84 119.005 1288.21 118.79C1287.6 118.575 1287.06 118.263 1286.6 117.852L1287.06 116.872C1287.56 117.283 1288.05 117.581 1288.55 117.768C1289.05 117.945 1289.6 118.034 1290.2 118.034C1290.93 118.034 1291.49 117.885 1291.88 117.586C1292.28 117.278 1292.48 116.853 1292.48 116.312C1292.48 115.976 1292.38 115.71 1292.17 115.514C1291.97 115.318 1291.69 115.159 1291.35 115.038C1291.01 114.907 1290.64 114.795 1290.23 114.702C1289.83 114.609 1289.42 114.501 1289.01 114.38C1288.61 114.249 1288.24 114.086 1287.89 113.89C1287.55 113.685 1287.28 113.419 1287.08 113.092C1286.87 112.765 1286.77 112.341 1286.77 111.818C1286.77 111.249 1286.92 110.749 1287.22 110.32C1287.53 109.881 1287.95 109.541 1288.48 109.298C1289.02 109.046 1289.63 108.92 1290.31 108.92C1290.74 108.92 1291.16 108.971 1291.57 109.074C1291.98 109.167 1292.37 109.307 1292.72 109.494C1293.08 109.671 1293.4 109.891 1293.66 110.152L1293.2 111.132C1292.36 110.376 1291.4 109.998 1290.33 109.998C1289.64 109.998 1289.09 110.157 1288.69 110.474C1288.29 110.782 1288.09 111.211 1288.09 111.762C1288.09 112.126 1288.19 112.42 1288.39 112.644C1288.6 112.868 1288.87 113.045 1289.21 113.176C1289.55 113.307 1289.92 113.419 1290.33 113.512C1290.74 113.605 1291.14 113.713 1291.54 113.834C1291.95 113.955 1292.33 114.109 1292.66 114.296C1293.01 114.483 1293.28 114.735 1293.48 115.052C1293.68 115.369 1293.78 115.775 1293.78 116.27C1293.78 116.839 1293.63 117.339 1293.34 117.768C1293.04 118.188 1292.62 118.519 1292.08 118.762C1291.54 118.995 1290.93 119.112 1290.23 119.112ZM1289.79 120.624V118.888L1289.85 118.272V109.634L1289.79 109.116V107.408H1290.89V109.116L1290.83 109.634V118.272L1290.89 118.888V120.624H1289.79ZM1298.33 118.412V109.858L1299.04 110.152L1296.28 111.888V110.67L1298.89 109.032H1299.63V118.412H1298.33ZM1296.13 119V117.922H1301.83V119H1296.13ZM1303.66 117.446H1305.21V119H1303.66V117.446ZM1307.2 119V118.02L1310.68 114.212C1311.12 113.708 1311.45 113.255 1311.66 112.854C1311.87 112.443 1311.98 112.033 1311.98 111.622C1311.98 111.099 1311.82 110.698 1311.52 110.418C1311.21 110.129 1310.77 109.984 1310.21 109.984C1309.74 109.984 1309.27 110.082 1308.8 110.278C1308.33 110.465 1307.87 110.745 1307.41 111.118L1306.94 110.138C1307.33 109.765 1307.82 109.471 1308.42 109.256C1309.03 109.032 1309.64 108.92 1310.24 108.92C1310.87 108.92 1311.4 109.027 1311.85 109.242C1312.3 109.447 1312.65 109.751 1312.9 110.152C1313.15 110.544 1313.28 111.011 1313.28 111.552C1313.28 112.121 1313.15 112.667 1312.89 113.19C1312.64 113.713 1312.22 114.301 1311.63 114.954L1308.34 118.496L1308.23 117.922H1313.69V119H1307.2ZM1318.8 119.098C1318.19 119.098 1317.58 118.991 1316.98 118.776C1316.4 118.561 1315.9 118.263 1315.5 117.88L1315.98 116.9C1316.43 117.273 1316.9 117.558 1317.36 117.754C1317.83 117.941 1318.31 118.034 1318.8 118.034C1319.49 118.034 1320.02 117.847 1320.4 117.474C1320.78 117.091 1320.97 116.569 1320.97 115.906C1320.97 115.486 1320.89 115.117 1320.71 114.8C1320.54 114.483 1320.3 114.235 1319.98 114.058C1319.67 113.871 1319.31 113.778 1318.89 113.778C1318.43 113.778 1318.02 113.871 1317.64 114.058C1317.27 114.235 1316.94 114.506 1316.66 114.87H1315.79V109.032H1321.83V110.082H1317.08V113.946L1316.68 113.904C1316.95 113.521 1317.29 113.227 1317.71 113.022C1318.13 112.817 1318.6 112.714 1319.13 112.714C1319.76 112.714 1320.31 112.849 1320.78 113.12C1321.25 113.381 1321.6 113.75 1321.86 114.226C1322.11 114.702 1322.23 115.253 1322.23 115.878C1322.23 116.513 1322.09 117.073 1321.81 117.558C1321.53 118.043 1321.14 118.421 1320.62 118.692C1320.11 118.963 1319.5 119.098 1318.8 119.098ZM1323.94 119V113.932C1323.94 113.605 1323.93 113.279 1323.91 112.952C1323.9 112.616 1323.87 112.285 1323.83 111.958H1325.03L1325.16 113.4L1325.02 113.47C1325.18 112.929 1325.47 112.513 1325.88 112.224C1326.3 111.925 1326.8 111.776 1327.37 111.776C1328.05 111.776 1328.58 111.944 1328.95 112.28C1329.33 112.616 1329.57 113.129 1329.68 113.82L1329.34 113.61C1329.5 113.05 1329.8 112.607 1330.25 112.28C1330.7 111.944 1331.24 111.776 1331.86 111.776C1332.65 111.776 1333.23 112.009 1333.63 112.476C1334.02 112.943 1334.21 113.647 1334.21 114.59V119H1332.94V114.646C1332.94 114.021 1332.83 113.563 1332.6 113.274C1332.39 112.975 1332.04 112.826 1331.55 112.826C1330.98 112.826 1330.54 113.022 1330.21 113.414C1329.88 113.797 1329.72 114.324 1329.72 114.996V119H1328.45V114.646C1328.45 114.021 1328.33 113.563 1328.11 113.274C1327.89 112.975 1327.53 112.826 1327.05 112.826C1326.47 112.826 1326.01 113.022 1325.69 113.414C1325.37 113.797 1325.21 114.324 1325.21 114.996V119H1323.94Z" fill="#969EAC"/>
<path d="M1290.23 83.112C1289.51 83.112 1288.84 83.0047 1288.21 82.79C1287.6 82.5753 1287.06 82.2627 1286.6 81.852L1287.06 80.872C1287.56 81.2827 1288.05 81.5813 1288.55 81.768C1289.05 81.9453 1289.6 82.034 1290.2 82.034C1290.93 82.034 1291.49 81.8847 1291.88 81.586C1292.28 81.278 1292.48 80.8533 1292.48 80.312C1292.48 79.976 1292.38 79.71 1292.17 79.514C1291.97 79.318 1291.69 79.1593 1291.35 79.038C1291.01 78.9073 1290.64 78.7953 1290.23 78.702C1289.83 78.6087 1289.42 78.5013 1289.01 78.38C1288.61 78.2493 1288.24 78.086 1287.89 77.89C1287.55 77.6847 1287.28 77.4187 1287.08 77.092C1286.87 76.7653 1286.77 76.3407 1286.77 75.818C1286.77 75.2487 1286.92 74.7493 1287.22 74.32C1287.53 73.8813 1287.95 73.5407 1288.48 73.298C1289.02 73.046 1289.63 72.92 1290.31 72.92C1290.74 72.92 1291.16 72.9713 1291.57 73.074C1291.98 73.1673 1292.37 73.3073 1292.72 73.494C1293.08 73.6713 1293.4 73.8907 1293.66 74.152L1293.2 75.132C1292.36 74.376 1291.4 73.998 1290.33 73.998C1289.64 73.998 1289.09 74.1567 1288.69 74.474C1288.29 74.782 1288.09 75.2113 1288.09 75.762C1288.09 76.126 1288.19 76.42 1288.39 76.644C1288.6 76.868 1288.87 77.0453 1289.21 77.176C1289.55 77.3067 1289.92 77.4187 1290.33 77.512C1290.74 77.6053 1291.14 77.7127 1291.54 77.834C1291.95 77.9553 1292.33 78.1093 1292.66 78.296C1293.01 78.4827 1293.28 78.7347 1293.48 79.052C1293.68 79.3693 1293.78 79.7753 1293.78 80.27C1293.78 80.8393 1293.63 81.3387 1293.34 81.768C1293.04 82.188 1292.62 82.5193 1292.08 82.762C1291.54 82.9953 1290.93 83.112 1290.23 83.112ZM1289.79 84.624V82.888L1289.85 82.272V73.634L1289.79 73.116V71.408H1290.89V73.116L1290.83 73.634V82.272L1290.89 82.888V84.624H1289.79ZM1298.33 82.412V73.858L1299.04 74.152L1296.28 75.888V74.67L1298.89 73.032H1299.63V82.412H1298.33ZM1296.13 83V81.922H1301.83V83H1296.13ZM1303.66 81.446H1305.21V83H1303.66V81.446ZM1310.41 83.098C1309.79 83.098 1309.19 82.9907 1308.59 82.776C1308 82.5613 1307.51 82.2627 1307.11 81.88L1307.58 80.9C1308.04 81.2733 1308.5 81.558 1308.97 81.754C1309.43 81.9407 1309.92 82.034 1310.41 82.034C1311.09 82.034 1311.62 81.8473 1312.01 81.474C1312.39 81.0913 1312.58 80.5687 1312.58 79.906C1312.58 79.486 1312.49 79.1173 1312.31 78.8C1312.15 78.4827 1311.9 78.2353 1311.59 78.058C1311.28 77.8713 1310.91 77.778 1310.49 77.778C1310.04 77.778 1309.62 77.8713 1309.25 78.058C1308.87 78.2353 1308.55 78.506 1308.27 78.87H1307.4V73.032H1313.43V74.082H1308.69V77.946L1308.28 77.904C1308.55 77.5213 1308.9 77.2273 1309.32 77.022C1309.74 76.8167 1310.21 76.714 1310.73 76.714C1311.37 76.714 1311.92 76.8493 1312.38 77.12C1312.85 77.3813 1313.21 77.75 1313.46 78.226C1313.71 78.702 1313.84 79.2527 1313.84 79.878C1313.84 80.5127 1313.7 81.0727 1313.42 81.558C1313.14 82.0433 1312.74 82.4213 1312.23 82.692C1311.72 82.9627 1311.11 83.098 1310.41 83.098ZM1315.54 83V77.932C1315.54 77.6053 1315.53 77.2787 1315.51 76.952C1315.51 76.616 1315.48 76.2847 1315.43 75.958H1316.63L1316.76 77.4L1316.62 77.47C1316.79 76.9287 1317.08 76.5133 1317.49 76.224C1317.91 75.9253 1318.4 75.776 1318.97 75.776C1319.65 75.776 1320.18 75.944 1320.55 76.28C1320.94 76.616 1321.18 77.1293 1321.28 77.82L1320.95 77.61C1321.11 77.05 1321.41 76.6067 1321.86 76.28C1322.3 75.944 1322.84 75.776 1323.47 75.776C1324.25 75.776 1324.84 76.0093 1325.23 76.476C1325.62 76.9427 1325.82 77.6473 1325.82 78.59V83H1324.54V78.646C1324.54 78.0207 1324.43 77.5633 1324.21 77.274C1323.99 76.9753 1323.64 76.826 1323.16 76.826C1322.59 76.826 1322.14 77.022 1321.81 77.414C1321.49 77.7967 1321.32 78.324 1321.32 78.996V83H1320.05V78.646C1320.05 78.0207 1319.94 77.5633 1319.71 77.274C1319.49 76.9753 1319.14 76.826 1318.65 76.826C1318.07 76.826 1317.62 77.022 1317.29 77.414C1316.98 77.7967 1316.82 78.324 1316.82 78.996V83H1315.54Z" fill="#969EAC"/>
<path d="M1290.23 47.112C1289.51 47.112 1288.84 47.0047 1288.21 46.79C1287.6 46.5753 1287.06 46.2627 1286.6 45.852L1287.06 44.872C1287.56 45.2827 1288.05 45.5813 1288.55 45.768C1289.05 45.9453 1289.6 46.034 1290.2 46.034C1290.93 46.034 1291.49 45.8847 1291.88 45.586C1292.28 45.278 1292.48 44.8533 1292.48 44.312C1292.48 43.976 1292.38 43.71 1292.17 43.514C1291.97 43.318 1291.69 43.1593 1291.35 43.038C1291.01 42.9073 1290.64 42.7953 1290.23 42.702C1289.83 42.6087 1289.42 42.5013 1289.01 42.38C1288.61 42.2493 1288.24 42.086 1287.89 41.89C1287.55 41.6847 1287.28 41.4187 1287.08 41.092C1286.87 40.7653 1286.77 40.3407 1286.77 39.818C1286.77 39.2487 1286.92 38.7493 1287.22 38.32C1287.53 37.8813 1287.95 37.5407 1288.48 37.298C1289.02 37.046 1289.63 36.92 1290.31 36.92C1290.74 36.92 1291.16 36.9713 1291.57 37.074C1291.98 37.1673 1292.37 37.3073 1292.72 37.494C1293.08 37.6713 1293.4 37.8907 1293.66 38.152L1293.2 39.132C1292.36 38.376 1291.4 37.998 1290.33 37.998C1289.64 37.998 1289.09 38.1567 1288.69 38.474C1288.29 38.782 1288.09 39.2113 1288.09 39.762C1288.09 40.126 1288.19 40.42 1288.39 40.644C1288.6 40.868 1288.87 41.0453 1289.21 41.176C1289.55 41.3067 1289.92 41.4187 1290.33 41.512C1290.74 41.6053 1291.14 41.7127 1291.54 41.834C1291.95 41.9553 1292.33 42.1093 1292.66 42.296C1293.01 42.4827 1293.28 42.7347 1293.48 43.052C1293.68 43.3693 1293.78 43.7753 1293.78 44.27C1293.78 44.8393 1293.63 45.3387 1293.34 45.768C1293.04 46.188 1292.62 46.5193 1292.08 46.762C1291.54 46.9953 1290.93 47.112 1290.23 47.112ZM1289.79 48.624V46.888L1289.85 46.272V37.634L1289.79 37.116V35.408H1290.89V37.116L1290.83 37.634V46.272L1290.89 46.888V48.624H1289.79ZM1298.33 46.412V37.858L1299.04 38.152L1296.28 39.888V38.67L1298.89 37.032H1299.63V46.412H1298.33ZM1296.13 47V45.922H1301.83V47H1296.13ZM1303.66 45.446H1305.21V47H1303.66V45.446ZM1308.97 47H1307.58L1312.45 37.62L1312.54 38.11H1306.95V37.032H1313.62V37.998L1308.97 47ZM1318.8 47.098C1318.19 47.098 1317.58 46.9907 1316.98 46.776C1316.4 46.5613 1315.9 46.2627 1315.5 45.88L1315.98 44.9C1316.43 45.2733 1316.9 45.558 1317.36 45.754C1317.83 45.9407 1318.31 46.034 1318.8 46.034C1319.49 46.034 1320.02 45.8473 1320.4 45.474C1320.78 45.0913 1320.97 44.5687 1320.97 43.906C1320.97 43.486 1320.89 43.1173 1320.71 42.8C1320.54 42.4827 1320.3 42.2353 1319.98 42.058C1319.67 41.8713 1319.31 41.778 1318.89 41.778C1318.43 41.778 1318.02 41.8713 1317.64 42.058C1317.27 42.2353 1316.94 42.506 1316.66 42.87H1315.79V37.032H1321.83V38.082H1317.08V41.946L1316.68 41.904C1316.95 41.5213 1317.29 41.2273 1317.71 41.022C1318.13 40.8167 1318.6 40.714 1319.13 40.714C1319.76 40.714 1320.31 40.8493 1320.78 41.12C1321.25 41.3813 1321.6 41.75 1321.86 42.226C1322.11 42.702 1322.23 43.2527 1322.23 43.878C1322.23 44.5127 1322.09 45.0727 1321.81 45.558C1321.53 46.0433 1321.14 46.4213 1320.62 46.692C1320.11 46.9627 1319.5 47.098 1318.8 47.098ZM1323.94 47V41.932C1323.94 41.6053 1323.93 41.2787 1323.91 40.952C1323.9 40.616 1323.87 40.2847 1323.83 39.958H1325.03L1325.16 41.4L1325.02 41.47C1325.18 40.9287 1325.47 40.5133 1325.88 40.224C1326.3 39.9253 1326.8 39.776 1327.37 39.776C1328.05 39.776 1328.58 39.944 1328.95 40.28C1329.33 40.616 1329.57 41.1293 1329.68 41.82L1329.34 41.61C1329.5 41.05 1329.8 40.6067 1330.25 40.28C1330.7 39.944 1331.24 39.776 1331.86 39.776C1332.65 39.776 1333.23 40.0093 1333.63 40.476C1334.02 40.9427 1334.21 41.6473 1334.21 42.59V47H1332.94V42.646C1332.94 42.0207 1332.83 41.5633 1332.6 41.274C1332.39 40.9753 1332.04 40.826 1331.55 40.826C1330.98 40.826 1330.54 41.022 1330.21 41.414C1329.88 41.7967 1329.72 42.324 1329.72 42.996V47H1328.45V42.646C1328.45 42.0207 1328.33 41.5633 1328.11 41.274C1327.89 40.9753 1327.53 40.826 1327.05 40.826C1326.47 40.826 1326.01 41.022 1325.69 41.414C1325.37 41.7967 1325.21 42.324 1325.21 42.996V47H1323.94Z" fill="#969EAC"/>
<path opacity="0.1" d="M240 258H1254" stroke="#969EAC"/>
<path opacity="0.1" d="M240 222H1254" stroke="#969EAC"/>
<path opacity="0.1" d="M240 186H1254" stroke="#969EAC"/>
<path opacity="0.1" d="M240 150H1254" stroke="#969EAC"/>
<path opacity="0.1" d="M240 114H1254" stroke="#969EAC"/>
<path opacity="0.1" d="M240 78H1254" stroke="#969EAC"/>
<path opacity="0.1" d="M240 42H1254" stroke="#969EAC"/>
<path d="M1244 84C1244 82.8954 1244.9 82 1246 82H1252C1253.1 82 1254 82.8954 1254 84V294H1244V84Z" fill="#235EE7"/>
<path d="M1119 270C1119 268.895 1119.9 268 1121 268H1127C1128.1 268 1129 268.895 1129 270V294H1119V270Z" fill="#235EE7"/>
<path d="M994 162C994 160.895 994.895 160 996 160H1002C1003.1 160 1004 160.895 1004 162V294H994V162Z" fill="#235EE7"/>
<path d="M869 128C869 126.895 869.895 126 871 126H877C878.105 126 879 126.895 879 128V294H869V128Z" fill="#235EE7"/>
<path d="M618 44C618 42.8954 618.895 42 620 42H626C627.105 42 628 42.8954 628 44V294H618V44Z" fill="#235EE7"/>
<path d="M492 116C492 114.895 492.895 114 494 114H500C501.105 114 502 114.895 502 116V294H492V116Z" fill="#235EE7"/>
<path d="M366 206C366 204.895 366.895 204 368 204H374C375.105 204 376 204.895 376 206V294H366V206Z" fill="#235EE7"/>
<path d="M240 128C240 126.895 240.895 126 242 126H248C249.105 126 250 126.895 250 128V294H240V128Z" fill="#235EE7"/>
<path d="M744 206C744 204.895 744.895 204 746 204H752C753.105 204 754 204.895 754 206V294H744V206Z" fill="#235EE7"/>
<circle cx="935" cy="294" r="4" fill="#FAFBFD"/>
<circle cx="935" cy="294" r="3" stroke="#969EAC" stroke-opacity="0.3" stroke-width="2"/>
<path d="M53.104 75.488C53.104 76.752 52.648 77.808 51.736 78.656C50.824 79.504 49.616 80 48.112 80.144V82.784H46.768V80.168C45.664 80.12 44.632 79.904 43.672 79.52C42.728 79.136 41.896 78.592 41.176 77.888L41.8 76.712C42.616 77.416 43.416 77.944 44.2 78.296C45 78.632 45.864 78.824 46.792 78.872V72.248C45.688 71.96 44.776 71.664 44.056 71.36C43.336 71.04 42.736 70.576 42.256 69.968C41.776 69.36 41.536 68.552 41.536 67.544C41.536 66.664 41.752 65.872 42.184 65.168C42.632 64.464 43.248 63.904 44.032 63.488C44.832 63.056 45.744 62.808 46.768 62.744V60.128H48.112V62.744C49.056 62.824 49.944 63.056 50.776 63.44C51.624 63.824 52.36 64.328 52.984 64.952L52.36 66.128C51.144 64.912 49.72 64.224 48.088 64.064V71.12C49.16 71.392 50.032 71.68 50.704 71.984C51.392 72.272 51.96 72.696 52.408 73.256C52.872 73.816 53.104 74.56 53.104 75.488ZM43.048 67.544C43.048 68.472 43.368 69.168 44.008 69.632C44.648 70.096 45.576 70.488 46.792 70.808V64.064C45.624 64.144 44.704 64.496 44.032 65.12C43.376 65.728 43.048 66.536 43.048 67.544ZM48.088 78.824C49.208 78.696 50.072 78.344 50.68 77.768C51.288 77.192 51.592 76.424 51.592 75.464C51.592 74.648 51.288 74.04 50.68 73.64C50.088 73.224 49.224 72.864 48.088 72.56V78.824ZM62.2146 69.392C63.3026 69.392 64.2466 69.616 65.0466 70.064C65.8466 70.512 66.4626 71.144 66.8946 71.96C67.3266 72.776 67.5426 73.712 67.5426 74.768C67.5426 75.824 67.3106 76.76 66.8466 77.576C66.3986 78.392 65.7506 79.032 64.9026 79.496C64.0546 79.944 63.0706 80.168 61.9506 80.168C60.9426 80.168 59.9346 79.976 58.9266 79.592C57.9346 79.192 57.0946 78.656 56.4066 77.984L57.0306 76.808C58.6306 78.184 60.2786 78.872 61.9746 78.872C63.2226 78.872 64.2066 78.504 64.9266 77.768C65.6626 77.016 66.0306 76.016 66.0306 74.768C66.0306 73.568 65.6706 72.592 64.9506 71.84C64.2306 71.072 63.2866 70.688 62.1186 70.688C61.2226 70.688 60.4386 70.872 59.7666 71.24C59.0946 71.592 58.5106 72.144 58.0146 72.896H56.8626V62.912H66.8946V64.184H58.3506V71C58.8146 70.488 59.3746 70.096 60.0306 69.824C60.7026 69.536 61.4306 69.392 62.2146 69.392ZM78.1893 71.216C79.1973 71.504 79.9653 72.008 80.4933 72.728C81.0213 73.432 81.2853 74.32 81.2853 75.392C81.2853 76.864 80.7973 78.032 79.8213 78.896C78.8613 79.744 77.5493 80.168 75.8853 80.168C74.7973 80.168 73.7573 79.976 72.7653 79.592C71.7733 79.208 70.9253 78.672 70.2213 77.984L70.8453 76.808C71.6293 77.496 72.4293 78.016 73.2453 78.368C74.0773 78.704 74.9573 78.872 75.8853 78.872C77.1333 78.872 78.0933 78.576 78.7653 77.984C79.4533 77.376 79.7973 76.512 79.7973 75.392C79.7973 73.12 78.3893 71.984 75.5733 71.984H73.7493V70.664H75.2133C76.5573 70.664 77.5893 70.36 78.3093 69.752C79.0453 69.128 79.4133 68.24 79.4133 67.088C79.4133 66.112 79.1173 65.36 78.5253 64.832C77.9333 64.288 77.1013 64.016 76.0293 64.016C74.3493 64.016 72.7093 64.704 71.1093 66.08L70.4853 64.904C71.1733 64.216 72.0053 63.68 72.9813 63.296C73.9733 62.912 74.9973 62.72 76.0533 62.72C77.5413 62.72 78.7253 63.112 79.6053 63.896C80.4853 64.664 80.9253 65.704 80.9253 67.016C80.9253 68.008 80.6773 68.88 80.1813 69.632C79.7013 70.368 79.0373 70.896 78.1893 71.216ZM90.9959 69.392C92.0839 69.392 93.0279 69.616 93.8279 70.064C94.6279 70.512 95.2439 71.144 95.6759 71.96C96.1079 72.776 96.3239 73.712 96.3239 74.768C96.3239 75.824 96.0919 76.76 95.6279 77.576C95.1799 78.392 94.5319 79.032 93.6839 79.496C92.8359 79.944 91.8519 80.168 90.7319 80.168C89.7239 80.168 88.7159 79.976 87.7079 79.592C86.7159 79.192 85.8759 78.656 85.1879 77.984L85.8119 76.808C87.4119 78.184 89.0599 78.872 90.7559 78.872C92.0039 78.872 92.9879 78.504 93.7079 77.768C94.4439 77.016 94.8119 76.016 94.8119 74.768C94.8119 73.568 94.4519 72.592 93.7319 71.84C93.0119 71.072 92.0679 70.688 90.8999 70.688C90.0039 70.688 89.2199 70.872 88.5479 71.24C87.8759 71.592 87.2919 72.144 86.7959 72.896H85.6439V62.912H95.6759V64.184H87.1319V71C87.5959 70.488 88.1559 70.096 88.8119 69.824C89.4839 69.536 90.2119 69.392 90.9959 69.392ZM101.259 77.912V79.448C101.259 80.056 101.163 80.616 100.971 81.128C100.779 81.64 100.459 82.12 100.011 82.568L99.2425 81.968C99.7865 81.36 100.091 80.704 100.155 80H99.2185V77.912H101.259ZM110.083 80.192C108.163 80.192 106.699 79.456 105.691 77.984C104.699 76.496 104.203 74.32 104.203 71.456C104.203 68.592 104.699 66.424 105.691 64.952C106.683 63.464 108.147 62.72 110.083 62.72C112.019 62.72 113.483 63.456 114.475 64.928C115.467 66.4 115.963 68.568 115.963 71.432C115.963 74.296 115.459 76.472 114.451 77.96C113.459 79.448 112.003 80.192 110.083 80.192ZM110.083 78.872C111.555 78.872 112.643 78.272 113.347 77.072C114.067 75.856 114.427 73.976 114.427 71.432C114.427 68.888 114.075 67.024 113.371 65.84C112.667 64.64 111.571 64.04 110.083 64.04C108.611 64.04 107.515 64.64 106.795 65.84C106.091 67.04 105.739 68.904 105.739 71.432C105.739 73.96 106.091 75.832 106.795 77.048C107.515 78.264 108.611 78.872 110.083 78.872ZM124.473 80.192C122.553 80.192 121.089 79.456 120.081 77.984C119.089 76.496 118.593 74.32 118.593 71.456C118.593 68.592 119.089 66.424 120.081 64.952C121.073 63.464 122.537 62.72 124.473 62.72C126.409 62.72 127.873 63.456 128.865 64.928C129.857 66.4 130.353 68.568 130.353 71.432C130.353 74.296 129.849 76.472 128.841 77.96C127.849 79.448 126.393 80.192 124.473 80.192ZM124.473 78.872C125.945 78.872 127.033 78.272 127.737 77.072C128.457 75.856 128.817 73.976 128.817 71.432C128.817 68.888 128.465 67.024 127.761 65.84C127.057 64.64 125.961 64.04 124.473 64.04C123.001 64.04 121.905 64.64 121.185 65.84C120.481 67.04 120.129 68.904 120.129 71.432C120.129 73.96 120.481 75.832 121.185 77.048C121.905 78.264 123.001 78.872 124.473 78.872ZM138.864 80.192C136.944 80.192 135.48 79.456 134.472 77.984C133.48 76.496 132.984 74.32 132.984 71.456C132.984 68.592 133.48 66.424 134.472 64.952C135.464 63.464 136.928 62.72 138.864 62.72C140.8 62.72 142.264 63.456 143.256 64.928C144.248 66.4 144.744 68.568 144.744 71.432C144.744 74.296 144.24 76.472 143.232 77.96C142.24 79.448 140.784 80.192 138.864 80.192ZM138.864 78.872C140.336 78.872 141.424 78.272 142.128 77.072C142.848 75.856 143.208 73.976 143.208 71.432C143.208 68.888 142.856 67.024 142.152 65.84C141.448 64.64 140.352 64.04 138.864 64.04C137.392 64.04 136.296 64.64 135.576 65.84C134.872 67.04 134.52 68.904 134.52 71.432C134.52 73.96 134.872 75.832 135.576 77.048C136.296 78.264 137.392 78.872 138.864 78.872Z" fill="#235EE7"/>
<path d="M44.976 50L39.952 38.608H41.696L45.968 48.592H45.392L49.696 38.608H51.392L46.368 50H44.976ZM54.6943 50.112C53.9796 50.112 53.3503 49.9467 52.8063 49.616C52.2729 49.2747 51.8569 48.7947 51.5583 48.176C51.2703 47.5467 51.1263 46.8107 51.1263 45.968C51.1263 45.1253 51.2756 44.3893 51.5743 43.76C51.8729 43.12 52.2889 42.624 52.8223 42.272C53.3663 41.92 53.9903 41.744 54.6943 41.744C55.4089 41.744 56.0169 41.92 56.5183 42.272C57.0303 42.6133 57.3769 43.104 57.5583 43.744L57.3663 43.872V41.936H58.9663V50H57.3663V48.032L57.5583 48.112C57.3769 48.752 57.0303 49.248 56.5183 49.6C56.0169 49.9413 55.4089 50.112 54.6943 50.112ZM55.0783 48.832C55.8036 48.832 56.3636 48.5813 56.7583 48.08C57.1636 47.5787 57.3663 46.864 57.3663 45.936C57.3663 45.008 57.1636 44.2933 56.7583 43.792C56.3636 43.2907 55.8036 43.04 55.0783 43.04C54.3423 43.04 53.7663 43.3013 53.3503 43.824C52.9449 44.336 52.7423 45.0507 52.7423 45.968C52.7423 46.8853 52.9449 47.5947 53.3503 48.096C53.7663 48.5867 54.3423 48.832 55.0783 48.832ZM61.3243 50V38.224H62.9403V50H61.3243ZM68.173 50.112C67.2023 50.112 66.4717 49.8453 65.981 49.312C65.4903 48.768 65.245 47.9573 65.245 46.88V41.936H66.861V46.864C66.861 47.5253 66.9943 48.016 67.261 48.336C67.5383 48.6453 67.9597 48.8 68.525 48.8C69.1757 48.8 69.6983 48.5867 70.093 48.16C70.4983 47.7333 70.701 47.168 70.701 46.464V41.936H72.317V50H70.749V48.288L70.941 48.224C70.717 48.8427 70.3597 49.312 69.869 49.632C69.3783 49.952 68.813 50.112 68.173 50.112ZM81.4044 49.072C81.0417 49.392 80.583 49.648 80.0284 49.84C79.4737 50.0213 78.9084 50.112 78.3324 50.112C77.479 50.112 76.743 49.9467 76.1244 49.616C75.5057 49.2853 75.031 48.8053 74.7004 48.176C74.3697 47.5467 74.2044 46.8 74.2044 45.936C74.2044 45.104 74.3644 44.3733 74.6844 43.744C75.015 43.1147 75.4684 42.624 76.0444 42.272C76.6204 41.92 77.287 41.744 78.0444 41.744C78.7697 41.744 79.3937 41.904 79.9164 42.224C80.439 42.544 80.839 43.0027 81.1164 43.6C81.4044 44.1867 81.5484 44.896 81.5484 45.728V46H75.6124L75.6284 45.04H80.6044L80.1404 45.616C80.151 44.752 79.9804 44.0907 79.6284 43.632C79.2764 43.1733 78.759 42.944 78.0764 42.944C77.3617 42.944 76.8017 43.2 76.3964 43.712C75.991 44.2133 75.7884 44.9173 75.7884 45.824C75.7884 46.8373 76.007 47.5947 76.4444 48.096C76.8817 48.5867 77.5217 48.832 78.3644 48.832C78.823 48.832 79.2657 48.7573 79.6924 48.608C80.119 48.4587 80.5244 48.2293 80.9084 47.92L81.4044 49.072Z" fill="#235EE7"/>
<path d="M8.75 94L8.75 26" stroke="#235EE7" stroke-width="1.5"/>
<defs>
<filter id="filter0_di" x="0" y="0" width="1376" height="370" filterUnits="userSpaceOnUse" color-interpolation-filters="sRGB">
<feFlood flood-opacity="0" result="BackgroundImageFix"/>
<feColorMatrix in="SourceAlpha" type="matrix" values="0 0 0 0 0 0 0 0 0 0 0 0 0 0 0 0 0 0 127 0"/>
<feOffset dy="2"/>
<feGaussianBlur stdDeviation="4"/>
<feColorMatrix type="matrix" values="0 0 0 0 0.888 0 0 0 0 0.911467 0 0 0 0 0.952 0 0 0 1 0"/>
<feBlend mode="normal" in2="BackgroundImageFix" result="effect1_dropShadow"/>
<feBlend mode="normal" in="SourceGraphic" in2="effect1_dropShadow" result="shape"/>
<feColorMatrix in="SourceAlpha" type="matrix" values="0 0 0 0 0 0 0 0 0 0 0 0 0 0 0 0 0 0 127 0" result="hardAlpha"/>
<feOffset dy="-1"/>
<feComposite in2="hardAlpha" operator="arithmetic" k2="-1" k3="1"/>
<feColorMatrix type="matrix" values="0 0 0 0 0.921569 0 0 0 0 0.92549 0 0 0 0 0.945098 0 0 0 1 0"/>
<feBlend mode="normal" in2="shape" result="effect2_innerShadow"/>
</filter>
<linearGradient id="paint0_linear" x1="935" y1="133.5" x2="1254" y2="133.5" gradientUnits="userSpaceOnUse">
<stop stop-color="#534CEA"/>
<stop offset="1" stop-color="#534CEA" stop-opacity="0"/>
</linearGradient>
</defs>
</svg>
