<svg width="351" height="472" viewBox="0 0 351 472" fill="none" xmlns="http://www.w3.org/2000/svg">
<g filter="url(#filter0_di)">
<rect x="8" y="6" width="335" height="456" rx="6" fill="white"/>
</g>
<path d="M37.104 423.488C37.104 424.752 36.648 425.808 35.736 426.656C34.824 427.504 33.616 428 32.112 428.144V430.784H30.768V428.168C29.664 428.12 28.632 427.904 27.672 427.52C26.728 427.136 25.896 426.592 25.176 425.888L25.8 424.712C26.616 425.416 27.416 425.944 28.2 426.296C29 426.632 29.864 426.824 30.792 426.872V420.248C29.688 419.96 28.776 419.664 28.056 419.36C27.336 419.04 26.736 418.576 26.256 417.968C25.776 417.36 25.536 416.552 25.536 415.544C25.536 414.664 25.752 413.872 26.184 413.168C26.632 412.464 27.248 411.904 28.032 411.488C28.832 411.056 29.744 410.808 30.768 410.744V408.128H32.112V410.744C33.056 410.824 33.944 411.056 34.776 411.44C35.624 411.824 36.36 412.328 36.984 412.952L36.36 414.128C35.144 412.912 33.72 412.224 32.088 412.064V419.12C33.16 419.392 34.032 419.68 34.704 419.984C35.392 420.272 35.96 420.696 36.408 421.256C36.872 421.816 37.104 422.56 37.104 423.488ZM27.048 415.544C27.048 416.472 27.368 417.168 28.008 417.632C28.648 418.096 29.576 418.488 30.792 418.808V412.064C29.624 412.144 28.704 412.496 28.032 413.12C27.376 413.728 27.048 414.536 27.048 415.544ZM32.088 426.824C33.208 426.696 34.072 426.344 34.68 425.768C35.288 425.192 35.592 424.424 35.592 423.464C35.592 422.648 35.288 422.04 34.68 421.64C34.088 421.224 33.224 420.864 32.088 420.56V426.824ZM46.2146 417.392C47.3026 417.392 48.2466 417.616 49.0466 418.064C49.8466 418.512 50.4626 419.144 50.8946 419.96C51.3266 420.776 51.5426 421.712 51.5426 422.768C51.5426 423.824 51.3106 424.76 50.8466 425.576C50.3986 426.392 49.7506 427.032 48.9026 427.496C48.0546 427.944 47.0706 428.168 45.9506 428.168C44.9426 428.168 43.9346 427.976 42.9266 427.592C41.9346 427.192 41.0946 426.656 40.4066 425.984L41.0306 424.808C42.6306 426.184 44.2786 426.872 45.9746 426.872C47.2226 426.872 48.2066 426.504 48.9266 425.768C49.6626 425.016 50.0306 424.016 50.0306 422.768C50.0306 421.568 49.6706 420.592 48.9506 419.84C48.2306 419.072 47.2866 418.688 46.1186 418.688C45.2226 418.688 44.4386 418.872 43.7666 419.24C43.0946 419.592 42.5106 420.144 42.0146 420.896H40.8626V410.912H50.8946V412.184H42.3506V419C42.8146 418.488 43.3746 418.096 44.0306 417.824C44.7026 417.536 45.4306 417.392 46.2146 417.392ZM62.1893 419.216C63.1973 419.504 63.9653 420.008 64.4933 420.728C65.0213 421.432 65.2853 422.32 65.2853 423.392C65.2853 424.864 64.7973 426.032 63.8213 426.896C62.8613 427.744 61.5493 428.168 59.8853 428.168C58.7973 428.168 57.7573 427.976 56.7653 427.592C55.7733 427.208 54.9253 426.672 54.2213 425.984L54.8453 424.808C55.6293 425.496 56.4293 426.016 57.2453 426.368C58.0773 426.704 58.9573 426.872 59.8853 426.872C61.1333 426.872 62.0933 426.576 62.7653 425.984C63.4533 425.376 63.7973 424.512 63.7973 423.392C63.7973 421.12 62.3893 419.984 59.5733 419.984H57.7493V418.664H59.2133C60.5573 418.664 61.5893 418.36 62.3093 417.752C63.0453 417.128 63.4133 416.24 63.4133 415.088C63.4133 414.112 63.1173 413.36 62.5253 412.832C61.9333 412.288 61.1013 412.016 60.0293 412.016C58.3493 412.016 56.7093 412.704 55.1093 414.08L54.4853 412.904C55.1733 412.216 56.0053 411.68 56.9813 411.296C57.9733 410.912 58.9973 410.72 60.0533 410.72C61.5413 410.72 62.7253 411.112 63.6053 411.896C64.4853 412.664 64.9253 413.704 64.9253 415.016C64.9253 416.008 64.6773 416.88 64.1813 417.632C63.7013 418.368 63.0373 418.896 62.1893 419.216ZM74.9959 417.392C76.0839 417.392 77.0279 417.616 77.8279 418.064C78.6279 418.512 79.2439 419.144 79.6759 419.96C80.1079 420.776 80.3239 421.712 80.3239 422.768C80.3239 423.824 80.0919 424.76 79.6279 425.576C79.1799 426.392 78.5319 427.032 77.6839 427.496C76.8359 427.944 75.8519 428.168 74.7319 428.168C73.7239 428.168 72.7159 427.976 71.7079 427.592C70.7159 427.192 69.8759 426.656 69.1879 425.984L69.8119 424.808C71.4119 426.184 73.0599 426.872 74.7559 426.872C76.0039 426.872 76.9879 426.504 77.7079 425.768C78.4439 425.016 78.8119 424.016 78.8119 422.768C78.8119 421.568 78.4519 420.592 77.7319 419.84C77.0119 419.072 76.0679 418.688 74.8999 418.688C74.0039 418.688 73.2199 418.872 72.5479 419.24C71.8759 419.592 71.2919 420.144 70.7959 420.896H69.6439V410.912H79.6759V412.184H71.1319V419C71.5959 418.488 72.1559 418.096 72.8119 417.824C73.4839 417.536 74.2119 417.392 74.9959 417.392ZM85.2585 425.912V427.448C85.2585 428.056 85.1625 428.616 84.9705 429.128C84.7785 429.64 84.4585 430.12 84.0105 430.568L83.2425 429.968C83.7865 429.36 84.0905 428.704 84.1545 428H83.2185V425.912H85.2585ZM94.0828 428.192C92.1628 428.192 90.6988 427.456 89.6908 425.984C88.6988 424.496 88.2028 422.32 88.2028 419.456C88.2028 416.592 88.6988 414.424 89.6908 412.952C90.6828 411.464 92.1468 410.72 94.0828 410.72C96.0188 410.72 97.4828 411.456 98.4748 412.928C99.4668 414.4 99.9628 416.568 99.9628 419.432C99.9628 422.296 99.4588 424.472 98.4508 425.96C97.4588 427.448 96.0028 428.192 94.0828 428.192ZM94.0828 426.872C95.5548 426.872 96.6428 426.272 97.3468 425.072C98.0668 423.856 98.4268 421.976 98.4268 419.432C98.4268 416.888 98.0748 415.024 97.3708 413.84C96.6668 412.64 95.5708 412.04 94.0828 412.04C92.6108 412.04 91.5148 412.64 90.7948 413.84C90.0908 415.04 89.7388 416.904 89.7388 419.432C89.7388 421.96 90.0908 423.832 90.7948 425.048C91.5148 426.264 92.6108 426.872 94.0828 426.872ZM108.473 428.192C106.553 428.192 105.089 427.456 104.081 425.984C103.089 424.496 102.593 422.32 102.593 419.456C102.593 416.592 103.089 414.424 104.081 412.952C105.073 411.464 106.537 410.72 108.473 410.72C110.409 410.72 111.873 411.456 112.865 412.928C113.857 414.4 114.353 416.568 114.353 419.432C114.353 422.296 113.849 424.472 112.841 425.96C111.849 427.448 110.393 428.192 108.473 428.192ZM108.473 426.872C109.945 426.872 111.033 426.272 111.737 425.072C112.457 423.856 112.817 421.976 112.817 419.432C112.817 416.888 112.465 415.024 111.761 413.84C111.057 412.64 109.961 412.04 108.473 412.04C107.001 412.04 105.905 412.64 105.185 413.84C104.481 415.04 104.129 416.904 104.129 419.432C104.129 421.96 104.481 423.832 105.185 425.048C105.905 426.264 107.001 426.872 108.473 426.872ZM122.864 428.192C120.944 428.192 119.48 427.456 118.472 425.984C117.48 424.496 116.984 422.32 116.984 419.456C116.984 416.592 117.48 414.424 118.472 412.952C119.464 411.464 120.928 410.72 122.864 410.72C124.8 410.72 126.264 411.456 127.256 412.928C128.248 414.4 128.744 416.568 128.744 419.432C128.744 422.296 128.24 424.472 127.232 425.96C126.24 427.448 124.784 428.192 122.864 428.192ZM122.864 426.872C124.336 426.872 125.424 426.272 126.128 425.072C126.848 423.856 127.208 421.976 127.208 419.432C127.208 416.888 126.856 415.024 126.152 413.84C125.448 412.64 124.352 412.04 122.864 412.04C121.392 412.04 120.296 412.64 119.576 413.84C118.872 415.04 118.52 416.904 118.52 419.432C118.52 421.96 118.872 423.832 119.576 425.048C120.296 426.264 121.392 426.872 122.864 426.872Z" fill="#235EE7"/>
<path d="M28.976 398L23.952 386.608H25.696L29.968 396.592H29.392L33.696 386.608H35.392L30.368 398H28.976ZM38.6943 398.112C37.9796 398.112 37.3503 397.947 36.8063 397.616C36.2729 397.275 35.8569 396.795 35.5583 396.176C35.2703 395.547 35.1263 394.811 35.1263 393.968C35.1263 393.125 35.2756 392.389 35.5743 391.76C35.8729 391.12 36.2889 390.624 36.8223 390.272C37.3663 389.92 37.9903 389.744 38.6943 389.744C39.4089 389.744 40.0169 389.92 40.5183 390.272C41.0303 390.613 41.3769 391.104 41.5583 391.744L41.3663 391.872V389.936H42.9663V398H41.3663V396.032L41.5583 396.112C41.3769 396.752 41.0303 397.248 40.5183 397.6C40.0169 397.941 39.4089 398.112 38.6943 398.112ZM39.0783 396.832C39.8036 396.832 40.3636 396.581 40.7583 396.08C41.1636 395.579 41.3663 394.864 41.3663 393.936C41.3663 393.008 41.1636 392.293 40.7583 391.792C40.3636 391.291 39.8036 391.04 39.0783 391.04C38.3423 391.04 37.7663 391.301 37.3503 391.824C36.9449 392.336 36.7423 393.051 36.7423 393.968C36.7423 394.885 36.9449 395.595 37.3503 396.096C37.7663 396.587 38.3423 396.832 39.0783 396.832ZM45.3243 398V386.224H46.9403V398H45.3243ZM52.173 398.112C51.2023 398.112 50.4717 397.845 49.981 397.312C49.4903 396.768 49.245 395.957 49.245 394.88V389.936H50.861V394.864C50.861 395.525 50.9943 396.016 51.261 396.336C51.5383 396.645 51.9597 396.8 52.525 396.8C53.1757 396.8 53.6983 396.587 54.093 396.16C54.4983 395.733 54.701 395.168 54.701 394.464V389.936H56.317V398H54.749V396.288L54.941 396.224C54.717 396.843 54.3597 397.312 53.869 397.632C53.3783 397.952 52.813 398.112 52.173 398.112ZM65.4044 397.072C65.0417 397.392 64.583 397.648 64.0284 397.84C63.4737 398.021 62.9084 398.112 62.3324 398.112C61.479 398.112 60.743 397.947 60.1244 397.616C59.5057 397.285 59.031 396.805 58.7004 396.176C58.3697 395.547 58.2044 394.8 58.2044 393.936C58.2044 393.104 58.3644 392.373 58.6844 391.744C59.015 391.115 59.4684 390.624 60.0444 390.272C60.6204 389.92 61.287 389.744 62.0444 389.744C62.7697 389.744 63.3937 389.904 63.9164 390.224C64.439 390.544 64.839 391.003 65.1164 391.6C65.4044 392.187 65.5484 392.896 65.5484 393.728V394H59.6124L59.6284 393.04H64.6044L64.1404 393.616C64.151 392.752 63.9804 392.091 63.6284 391.632C63.2764 391.173 62.759 390.944 62.0764 390.944C61.3617 390.944 60.8017 391.2 60.3964 391.712C59.991 392.213 59.7884 392.917 59.7884 393.824C59.7884 394.837 60.007 395.595 60.4444 396.096C60.8817 396.587 61.5217 396.832 62.3644 396.832C62.823 396.832 63.2657 396.757 63.6924 396.608C64.119 396.459 64.5244 396.229 64.9084 395.92L65.4044 397.072Z" fill="#235EE7"/>
<path opacity="0.1" d="M24 362H327" stroke="#969EAC"/>
<rect opacity="0.1" x="177" y="6" width="93" height="288" fill="url(#paint0_linear)"/>
<path opacity="0.4" d="M190.094 28V20.168H193.493C194.344 20.168 195 20.3733 195.462 20.784C195.931 21.1873 196.166 21.741 196.166 22.445C196.166 23.1417 195.928 23.6953 195.451 24.106C194.982 24.5167 194.329 24.722 193.493 24.722H191.513V28H190.094ZM191.513 23.633H193.328C193.827 23.633 194.197 23.5303 194.439 23.325C194.688 23.1197 194.813 22.83 194.813 22.456C194.813 22.0747 194.692 21.785 194.45 21.587C194.208 21.3817 193.834 21.279 193.328 21.279H191.513V23.633ZM199.62 28V20.168H202.975C203.862 20.168 204.537 20.3623 204.999 20.751C205.461 21.1397 205.692 21.697 205.692 22.423C205.692 23.1123 205.454 23.6623 204.977 24.073C204.5 24.4763 203.837 24.678 202.986 24.678L203.866 24.502C204.137 24.502 204.379 24.5827 204.592 24.744C204.805 24.9053 204.973 25.1547 205.098 25.492L206.066 28H204.57L203.58 25.393C203.477 25.1363 203.331 24.964 203.14 24.876C202.957 24.788 202.726 24.744 202.447 24.744H201.017V28H199.62ZM201.006 23.644H202.777C203.32 23.644 203.716 23.545 203.965 23.347C204.214 23.149 204.339 22.852 204.339 22.456C204.339 22.0527 204.214 21.7557 203.965 21.565C203.716 21.3743 203.32 21.279 202.777 21.279H201.006V23.644ZM212.966 28.088C212.203 28.088 211.543 27.9267 210.986 27.604C210.429 27.2813 210 26.8193 209.699 26.218C209.398 25.6167 209.248 24.9053 209.248 24.084C209.248 23.2553 209.398 22.544 209.699 21.95C210 21.3487 210.429 20.8867 210.986 20.564C211.543 20.2413 212.203 20.08 212.966 20.08C213.736 20.08 214.4 20.2413 214.957 20.564C215.514 20.8867 215.943 21.3487 216.244 21.95C216.545 22.544 216.695 23.2517 216.695 24.073C216.695 24.9017 216.541 25.6167 216.233 26.218C215.932 26.8193 215.503 27.2813 214.946 27.604C214.396 27.9267 213.736 28.088 212.966 28.088ZM212.966 26.966C213.685 26.966 214.249 26.7203 214.66 26.229C215.071 25.7303 215.276 25.0117 215.276 24.073C215.276 23.1343 215.071 22.423 214.66 21.939C214.249 21.4477 213.685 21.202 212.966 21.202C212.255 21.202 211.694 21.4477 211.283 21.939C210.872 22.423 210.667 23.1343 210.667 24.073C210.667 25.0117 210.872 25.7303 211.283 26.229C211.694 26.7203 212.255 26.966 212.966 26.966ZM219.103 29.958V28.803C219.565 28.869 219.921 28.8837 220.17 28.847C220.42 28.8177 220.592 28.7113 220.687 28.528C220.783 28.3447 220.83 28.0623 220.83 27.681V20.168H222.249V27.67C222.249 28.3153 222.15 28.8287 221.952 29.21C221.754 29.5913 221.424 29.8407 220.962 29.958C220.508 30.0827 219.888 30.0827 219.103 29.958ZM226.158 28V20.168H231.394V21.279H227.544V23.457H231.174V24.579H227.544V26.889H231.394V28H226.158ZM238.431 28.088C237.654 28.088 236.979 27.9267 236.407 27.604C235.835 27.274 235.395 26.8083 235.087 26.207C234.786 25.6057 234.636 24.8943 234.636 24.073C234.636 23.259 234.786 22.555 235.087 21.961C235.395 21.3597 235.835 20.8977 236.407 20.575C236.979 20.245 237.654 20.08 238.431 20.08C238.959 20.08 239.454 20.1607 239.916 20.322C240.385 20.476 240.774 20.7033 241.082 21.004L240.62 22.038C240.261 21.752 239.909 21.5467 239.564 21.422C239.219 21.29 238.849 21.224 238.453 21.224C237.698 21.224 237.111 21.4697 236.693 21.961C236.282 22.445 236.077 23.149 236.077 24.073C236.077 24.997 236.282 25.7083 236.693 26.207C237.111 26.6983 237.698 26.944 238.453 26.944C238.849 26.944 239.219 26.8817 239.564 26.757C239.909 26.625 240.261 26.416 240.62 26.13L241.082 27.164C240.774 27.4647 240.385 27.6957 239.916 27.857C239.454 28.011 238.959 28.088 238.431 28.088ZM246.327 28V21.334H243.775V20.168H250.309V21.334H247.757V28H246.327ZM253.49 28V20.168H258.726V21.279H254.876V23.457H258.506V24.579H254.876V26.889H258.726V28H253.49ZM262.232 28V20.168H265.114C265.972 20.168 266.702 20.322 267.303 20.63C267.904 20.938 268.363 21.3853 268.678 21.972C269.001 22.5513 269.162 23.2517 269.162 24.073C269.162 24.9017 269.001 25.6093 268.678 26.196C268.363 26.7827 267.901 27.23 267.292 27.538C266.691 27.846 265.965 28 265.114 28H262.232ZM263.651 26.845H265.026C265.928 26.845 266.603 26.614 267.05 26.152C267.505 25.69 267.732 24.997 267.732 24.073C267.732 22.2397 266.83 21.323 265.026 21.323H263.651V26.845Z" fill="#534CEA"/>
<path d="M253.247 323H252.107L255.887 314.456H256.835L260.627 323H259.499L256.187 315.284H256.559L253.247 323ZM253.727 320.852L254.123 319.94H258.587L258.983 320.852H253.727ZM263.847 323.084C263.119 323.084 262.571 322.884 262.203 322.484C261.843 322.076 261.663 321.476 261.663 320.684V316.964H262.755V320.672C262.755 321.192 262.859 321.576 263.067 321.824C263.283 322.064 263.611 322.184 264.051 322.184C264.563 322.184 264.975 322.02 265.287 321.692C265.599 321.356 265.755 320.912 265.755 320.36V316.964H266.859V323H265.791V321.704L265.935 321.644C265.775 322.116 265.507 322.476 265.131 322.724C264.755 322.964 264.327 323.084 263.847 323.084ZM271.348 325.676C270.428 325.676 269.628 325.472 268.948 325.064L269.14 324.188C269.516 324.404 269.872 324.56 270.208 324.656C270.552 324.752 270.932 324.8 271.348 324.8C271.916 324.8 272.344 324.648 272.632 324.344C272.928 324.048 273.076 323.604 273.076 323.012V321.404L273.208 321.284C273.112 321.596 272.96 321.868 272.752 322.1C272.552 322.324 272.304 322.5 272.008 322.628C271.72 322.756 271.388 322.82 271.012 322.82C270.484 322.82 270.016 322.696 269.608 322.448C269.2 322.192 268.88 321.84 268.648 321.392C268.424 320.944 268.312 320.42 268.312 319.82C268.312 319.22 268.424 318.696 268.648 318.248C268.88 317.792 269.2 317.44 269.608 317.192C270.016 316.936 270.484 316.808 271.012 316.808C271.564 316.808 272.032 316.944 272.416 317.216C272.808 317.488 273.072 317.864 273.208 318.344L273.064 318.248V316.964H274.156V322.916C274.156 323.836 273.916 324.524 273.436 324.98C272.964 325.444 272.268 325.676 271.348 325.676ZM271.252 321.92C271.82 321.92 272.264 321.736 272.584 321.368C272.904 320.992 273.064 320.476 273.064 319.82C273.064 319.164 272.904 318.648 272.584 318.272C272.264 317.896 271.82 317.708 271.252 317.708C270.684 317.708 270.236 317.896 269.908 318.272C269.58 318.648 269.416 319.164 269.416 319.82C269.416 320.484 269.58 321 269.908 321.368C270.236 321.736 270.684 321.92 271.252 321.92ZM250.069 339V338.16L253.045 334.896C253.429 334.464 253.709 334.076 253.885 333.732C254.069 333.38 254.161 333.028 254.161 332.676C254.161 332.228 254.029 331.884 253.765 331.644C253.501 331.396 253.129 331.272 252.649 331.272C252.241 331.272 251.837 331.356 251.437 331.524C251.037 331.684 250.641 331.924 250.249 332.244L249.841 331.404C250.177 331.084 250.601 330.832 251.113 330.648C251.633 330.456 252.153 330.36 252.673 330.36C253.209 330.36 253.669 330.452 254.053 330.636C254.437 330.812 254.737 331.072 254.953 331.416C255.169 331.752 255.277 332.152 255.277 332.616C255.277 333.104 255.165 333.572 254.941 334.02C254.725 334.468 254.365 334.972 253.861 335.532L251.041 338.568L250.945 338.076H255.625V339H250.069ZM259.905 339.096C258.921 339.096 258.173 338.728 257.661 337.992C257.149 337.248 256.893 336.16 256.893 334.728C256.893 333.296 257.145 332.212 257.649 331.476C258.161 330.732 258.913 330.36 259.905 330.36C260.897 330.36 261.645 330.732 262.149 331.476C262.661 332.212 262.917 333.292 262.917 334.716C262.917 336.148 262.661 337.236 262.149 337.98C261.637 338.724 260.889 339.096 259.905 339.096ZM259.905 338.184C260.553 338.184 261.029 337.904 261.333 337.344C261.645 336.784 261.801 335.908 261.801 334.716C261.801 333.524 261.645 332.656 261.333 332.112C261.029 331.56 260.553 331.284 259.905 331.284C259.257 331.284 258.777 331.56 258.465 332.112C258.161 332.664 258.009 333.532 258.009 334.716C258.009 335.908 258.161 336.784 258.465 337.344C258.777 337.904 259.257 338.184 259.905 338.184ZM264.46 339V338.16L267.436 334.896C267.82 334.464 268.1 334.076 268.276 333.732C268.46 333.38 268.552 333.028 268.552 332.676C268.552 332.228 268.42 331.884 268.156 331.644C267.892 331.396 267.52 331.272 267.04 331.272C266.632 331.272 266.228 331.356 265.828 331.524C265.428 331.684 265.032 331.924 264.64 332.244L264.232 331.404C264.568 331.084 264.992 330.832 265.504 330.648C266.024 330.456 266.544 330.36 267.064 330.36C267.6 330.36 268.06 330.452 268.444 330.636C268.828 330.812 269.128 331.072 269.344 331.416C269.56 331.752 269.668 332.152 269.668 332.616C269.668 333.104 269.556 333.572 269.332 334.02C269.116 334.468 268.756 334.972 268.252 335.532L265.432 338.568L265.336 338.076H270.016V339H264.46ZM274.295 339.096C273.311 339.096 272.563 338.728 272.051 337.992C271.539 337.248 271.283 336.16 271.283 334.728C271.283 333.296 271.535 332.212 272.039 331.476C272.551 330.732 273.303 330.36 274.295 330.36C275.287 330.36 276.035 330.732 276.539 331.476C277.051 332.212 277.307 333.292 277.307 334.716C277.307 336.148 277.051 337.236 276.539 337.98C276.027 338.724 275.279 339.096 274.295 339.096ZM274.295 338.184C274.943 338.184 275.419 337.904 275.723 337.344C276.035 336.784 276.191 335.908 276.191 334.716C276.191 333.524 276.035 332.656 275.723 332.112C275.419 331.56 274.943 331.284 274.295 331.284C273.647 331.284 273.167 331.56 272.855 332.112C272.551 332.664 272.399 333.532 272.399 334.716C272.399 335.908 272.551 336.784 272.855 337.344C273.167 337.904 273.647 338.184 274.295 338.184Z" fill="#969EAC"/>
<path d="M199.491 325.136V324.188C199.987 324.276 200.375 324.296 200.655 324.248C200.943 324.208 201.143 324.072 201.255 323.84C201.375 323.616 201.435 323.276 201.435 322.82V314.456H202.551V322.82C202.551 323.5 202.451 324.028 202.251 324.404C202.051 324.788 201.727 325.036 201.279 325.148C200.839 325.26 200.243 325.256 199.491 325.136ZM206.63 323.084C205.902 323.084 205.354 322.884 204.986 322.484C204.626 322.076 204.446 321.476 204.446 320.684V316.964H205.538V320.672C205.538 321.192 205.642 321.576 205.85 321.824C206.066 322.064 206.394 322.184 206.834 322.184C207.346 322.184 207.758 322.02 208.07 321.692C208.382 321.356 208.538 320.912 208.538 320.36V316.964H209.642V323H208.574V321.704L208.718 321.644C208.558 322.116 208.29 322.476 207.914 322.724C207.538 322.964 207.11 323.084 206.63 323.084ZM211.455 323V314.168H212.547V323H211.455ZM193.069 339V338.16L196.045 334.896C196.429 334.464 196.709 334.076 196.885 333.732C197.069 333.38 197.161 333.028 197.161 332.676C197.161 332.228 197.029 331.884 196.765 331.644C196.501 331.396 196.129 331.272 195.649 331.272C195.241 331.272 194.837 331.356 194.437 331.524C194.037 331.684 193.641 331.924 193.249 332.244L192.841 331.404C193.177 331.084 193.601 330.832 194.113 330.648C194.633 330.456 195.153 330.36 195.673 330.36C196.209 330.36 196.669 330.452 197.053 330.636C197.437 330.812 197.737 331.072 197.953 331.416C198.169 331.752 198.277 332.152 198.277 332.616C198.277 333.104 198.165 333.572 197.941 334.02C197.725 334.468 197.365 334.972 196.861 335.532L194.041 338.568L193.945 338.076H198.625V339H193.069ZM202.905 339.096C201.921 339.096 201.173 338.728 200.661 337.992C200.149 337.248 199.893 336.16 199.893 334.728C199.893 333.296 200.145 332.212 200.649 331.476C201.161 330.732 201.913 330.36 202.905 330.36C203.897 330.36 204.645 330.732 205.149 331.476C205.661 332.212 205.917 333.292 205.917 334.716C205.917 336.148 205.661 337.236 205.149 337.98C204.637 338.724 203.889 339.096 202.905 339.096ZM202.905 338.184C203.553 338.184 204.029 337.904 204.333 337.344C204.645 336.784 204.801 335.908 204.801 334.716C204.801 333.524 204.645 332.656 204.333 332.112C204.029 331.56 203.553 331.284 202.905 331.284C202.257 331.284 201.777 331.56 201.465 332.112C201.161 332.664 201.009 333.532 201.009 334.716C201.009 335.908 201.161 336.784 201.465 337.344C201.777 337.904 202.257 338.184 202.905 338.184ZM207.46 339V338.16L210.436 334.896C210.82 334.464 211.1 334.076 211.276 333.732C211.46 333.38 211.552 333.028 211.552 332.676C211.552 332.228 211.42 331.884 211.156 331.644C210.892 331.396 210.52 331.272 210.04 331.272C209.632 331.272 209.228 331.356 208.828 331.524C208.428 331.684 208.032 331.924 207.64 332.244L207.232 331.404C207.568 331.084 207.992 330.832 208.504 330.648C209.024 330.456 209.544 330.36 210.064 330.36C210.6 330.36 211.06 330.452 211.444 330.636C211.828 330.812 212.128 331.072 212.344 331.416C212.56 331.752 212.668 332.152 212.668 332.616C212.668 333.104 212.556 333.572 212.332 334.02C212.116 334.468 211.756 334.972 211.252 335.532L208.432 338.568L208.336 338.076H213.016V339H207.46ZM217.295 339.096C216.311 339.096 215.563 338.728 215.051 337.992C214.539 337.248 214.283 336.16 214.283 334.728C214.283 333.296 214.535 332.212 215.039 331.476C215.551 330.732 216.303 330.36 217.295 330.36C218.287 330.36 219.035 330.732 219.539 331.476C220.051 332.212 220.307 333.292 220.307 334.716C220.307 336.148 220.051 337.236 219.539 337.98C219.027 338.724 218.279 339.096 217.295 339.096ZM217.295 338.184C217.943 338.184 218.419 337.904 218.723 337.344C219.035 336.784 219.191 335.908 219.191 334.716C219.191 333.524 219.035 332.656 218.723 332.112C218.419 331.56 217.943 331.284 217.295 331.284C216.647 331.284 216.167 331.56 215.855 332.112C215.551 332.664 215.399 333.532 215.399 334.716C215.399 335.908 215.551 336.784 215.855 337.344C216.167 337.904 216.647 338.184 217.295 338.184Z" fill="#969EAC"/>
<path d="M138.417 325.136V324.188C138.913 324.276 139.301 324.296 139.581 324.248C139.869 324.208 140.069 324.072 140.181 323.84C140.301 323.616 140.361 323.276 140.361 322.82V314.456H141.477V322.82C141.477 323.5 141.377 324.028 141.177 324.404C140.977 324.788 140.653 325.036 140.205 325.148C139.765 325.26 139.169 325.256 138.417 325.136ZM145.556 323.084C144.828 323.084 144.28 322.884 143.912 322.484C143.552 322.076 143.372 321.476 143.372 320.684V316.964H144.464V320.672C144.464 321.192 144.568 321.576 144.776 321.824C144.992 322.064 145.32 322.184 145.76 322.184C146.272 322.184 146.684 322.02 146.996 321.692C147.308 321.356 147.464 320.912 147.464 320.36V316.964H148.568V323H147.5V321.704L147.644 321.644C147.484 322.116 147.216 322.476 146.84 322.724C146.464 322.964 146.036 323.084 145.556 323.084ZM150.381 323V318.656C150.381 318.376 150.373 318.096 150.357 317.816C150.349 317.528 150.325 317.244 150.285 316.964H151.317L151.425 318.2L151.305 318.272C151.481 317.8 151.761 317.44 152.145 317.192C152.537 316.936 152.985 316.808 153.489 316.808C154.937 316.808 155.661 317.612 155.661 319.22V323H154.569V319.28C154.569 318.736 154.461 318.34 154.245 318.092C154.037 317.836 153.701 317.708 153.237 317.708C152.701 317.708 152.273 317.876 151.953 318.212C151.633 318.54 151.473 318.984 151.473 319.544V323H150.381ZM134.069 339V338.16L137.045 334.896C137.429 334.464 137.709 334.076 137.885 333.732C138.069 333.38 138.161 333.028 138.161 332.676C138.161 332.228 138.029 331.884 137.765 331.644C137.501 331.396 137.129 331.272 136.649 331.272C136.241 331.272 135.837 331.356 135.437 331.524C135.037 331.684 134.641 331.924 134.249 332.244L133.841 331.404C134.177 331.084 134.601 330.832 135.113 330.648C135.633 330.456 136.153 330.36 136.673 330.36C137.209 330.36 137.669 330.452 138.053 330.636C138.437 330.812 138.737 331.072 138.953 331.416C139.169 331.752 139.277 332.152 139.277 332.616C139.277 333.104 139.165 333.572 138.941 334.02C138.725 334.468 138.365 334.972 137.861 335.532L135.041 338.568L134.945 338.076H139.625V339H134.069ZM143.905 339.096C142.921 339.096 142.173 338.728 141.661 337.992C141.149 337.248 140.893 336.16 140.893 334.728C140.893 333.296 141.145 332.212 141.649 331.476C142.161 330.732 142.913 330.36 143.905 330.36C144.897 330.36 145.645 330.732 146.149 331.476C146.661 332.212 146.917 333.292 146.917 334.716C146.917 336.148 146.661 337.236 146.149 337.98C145.637 338.724 144.889 339.096 143.905 339.096ZM143.905 338.184C144.553 338.184 145.029 337.904 145.333 337.344C145.645 336.784 145.801 335.908 145.801 334.716C145.801 333.524 145.645 332.656 145.333 332.112C145.029 331.56 144.553 331.284 143.905 331.284C143.257 331.284 142.777 331.56 142.465 332.112C142.161 332.664 142.009 333.532 142.009 334.716C142.009 335.908 142.161 336.784 142.465 337.344C142.777 337.904 143.257 338.184 143.905 338.184ZM148.46 339V338.16L151.436 334.896C151.82 334.464 152.1 334.076 152.276 333.732C152.46 333.38 152.552 333.028 152.552 332.676C152.552 332.228 152.42 331.884 152.156 331.644C151.892 331.396 151.52 331.272 151.04 331.272C150.632 331.272 150.228 331.356 149.828 331.524C149.428 331.684 149.032 331.924 148.64 332.244L148.232 331.404C148.568 331.084 148.992 330.832 149.504 330.648C150.024 330.456 150.544 330.36 151.064 330.36C151.6 330.36 152.06 330.452 152.444 330.636C152.828 330.812 153.128 331.072 153.344 331.416C153.56 331.752 153.668 332.152 153.668 332.616C153.668 333.104 153.556 333.572 153.332 334.02C153.116 334.468 152.756 334.972 152.252 335.532L149.432 338.568L149.336 338.076H154.016V339H148.46ZM158.295 339.096C157.311 339.096 156.563 338.728 156.051 337.992C155.539 337.248 155.283 336.16 155.283 334.728C155.283 333.296 155.535 332.212 156.039 331.476C156.551 330.732 157.303 330.36 158.295 330.36C159.287 330.36 160.035 330.732 160.539 331.476C161.051 332.212 161.307 333.292 161.307 334.716C161.307 336.148 161.051 337.236 160.539 337.98C160.027 338.724 159.279 339.096 158.295 339.096ZM158.295 338.184C158.943 338.184 159.419 337.904 159.723 337.344C160.035 336.784 160.191 335.908 160.191 334.716C160.191 333.524 160.035 332.656 159.723 332.112C159.419 331.56 158.943 331.284 158.295 331.284C157.647 331.284 157.167 331.56 156.855 332.112C156.551 332.664 156.399 333.532 156.399 334.716C156.399 335.908 156.551 336.784 156.855 337.344C157.167 337.904 157.647 338.184 158.295 338.184Z" fill="#969EAC"/>
<path d="M75.614 323V314.456H76.526L79.934 322.22H79.454L82.838 314.456H83.738V323H82.73V315.968L83.102 316.016L80.066 323H79.298L76.214 316.016L76.622 315.968L76.634 323H75.614ZM87.9936 323.084C87.4656 323.084 86.9976 322.96 86.5896 322.712C86.1896 322.456 85.8776 322.096 85.6536 321.632C85.4296 321.16 85.3176 320.608 85.3176 319.976C85.3176 319.344 85.4296 318.792 85.6536 318.32C85.8856 317.848 86.2016 317.48 86.6016 317.216C87.0096 316.944 87.4736 316.808 87.9936 316.808C88.5376 316.808 89.0016 316.944 89.3856 317.216C89.7696 317.48 90.0296 317.86 90.1656 318.356L90.0216 318.44V316.964H91.1016V323H90.0216V321.488L90.1656 321.548C90.0296 322.036 89.7696 322.416 89.3856 322.688C89.0016 322.952 88.5376 323.084 87.9936 323.084ZM88.2336 322.196C88.8096 322.196 89.2496 322.004 89.5536 321.62C89.8656 321.228 90.0216 320.672 90.0216 319.952C90.0216 319.232 89.8656 318.68 89.5536 318.296C89.2416 317.904 88.8016 317.708 88.2336 317.708C87.6656 317.708 87.2216 317.908 86.9016 318.308C86.5816 318.708 86.4216 319.264 86.4216 319.976C86.4216 320.688 86.5816 321.236 86.9016 321.62C87.2216 322.004 87.6656 322.196 88.2336 322.196ZM92.6558 325.724L92.4278 324.884C92.7958 324.796 93.1038 324.692 93.3518 324.572C93.6078 324.46 93.8198 324.312 93.9878 324.128C94.1558 323.952 94.3038 323.716 94.4318 323.42L94.8278 322.52L95.0798 322.16L97.2278 316.964H98.3198L95.4998 323.516C95.2838 324.012 95.0358 324.408 94.7558 324.704C94.4758 325.008 94.1598 325.236 93.8078 325.388C93.4638 325.54 93.0798 325.652 92.6558 325.724ZM94.8398 323.336L92.1158 316.964H93.2558L95.3798 322.16L94.8398 323.336ZM73.0694 339V338.16L76.0454 334.896C76.4294 334.464 76.7094 334.076 76.8854 333.732C77.0694 333.38 77.1614 333.028 77.1614 332.676C77.1614 332.228 77.0294 331.884 76.7654 331.644C76.5014 331.396 76.1294 331.272 75.6494 331.272C75.2414 331.272 74.8374 331.356 74.4374 331.524C74.0374 331.684 73.6414 331.924 73.2494 332.244L72.8414 331.404C73.1774 331.084 73.6014 330.832 74.1134 330.648C74.6334 330.456 75.1534 330.36 75.6734 330.36C76.2094 330.36 76.6694 330.452 77.0534 330.636C77.4374 330.812 77.7374 331.072 77.9534 331.416C78.1694 331.752 78.2774 332.152 78.2774 332.616C78.2774 333.104 78.1654 333.572 77.9414 334.02C77.7254 334.468 77.3654 334.972 76.8614 335.532L74.0414 338.568L73.9454 338.076H78.6254V339H73.0694ZM82.9047 339.096C81.9207 339.096 81.1727 338.728 80.6607 337.992C80.1487 337.248 79.8927 336.16 79.8927 334.728C79.8927 333.296 80.1447 332.212 80.6487 331.476C81.1607 330.732 81.9127 330.36 82.9047 330.36C83.8967 330.36 84.6447 330.732 85.1487 331.476C85.6607 332.212 85.9167 333.292 85.9167 334.716C85.9167 336.148 85.6607 337.236 85.1487 337.98C84.6367 338.724 83.8887 339.096 82.9047 339.096ZM82.9047 338.184C83.5527 338.184 84.0287 337.904 84.3327 337.344C84.6447 336.784 84.8007 335.908 84.8007 334.716C84.8007 333.524 84.6447 332.656 84.3327 332.112C84.0287 331.56 83.5527 331.284 82.9047 331.284C82.2567 331.284 81.7767 331.56 81.4647 332.112C81.1607 332.664 81.0087 333.532 81.0087 334.716C81.0087 335.908 81.1607 336.784 81.4647 337.344C81.7767 337.904 82.2567 338.184 82.9047 338.184ZM87.46 339V338.16L90.436 334.896C90.82 334.464 91.1 334.076 91.276 333.732C91.46 333.38 91.552 333.028 91.552 332.676C91.552 332.228 91.42 331.884 91.156 331.644C90.892 331.396 90.52 331.272 90.04 331.272C89.632 331.272 89.228 331.356 88.828 331.524C88.428 331.684 88.032 331.924 87.64 332.244L87.232 331.404C87.568 331.084 87.992 330.832 88.504 330.648C89.024 330.456 89.544 330.36 90.064 330.36C90.6 330.36 91.06 330.452 91.444 330.636C91.828 330.812 92.128 331.072 92.344 331.416C92.56 331.752 92.668 332.152 92.668 332.616C92.668 333.104 92.556 333.572 92.332 334.02C92.116 334.468 91.756 334.972 91.252 335.532L88.432 338.568L88.336 338.076H93.016V339H87.46ZM97.2953 339.096C96.3113 339.096 95.5633 338.728 95.0513 337.992C94.5393 337.248 94.2833 336.16 94.2833 334.728C94.2833 333.296 94.5353 332.212 95.0393 331.476C95.5513 330.732 96.3033 330.36 97.2953 330.36C98.2873 330.36 99.0353 330.732 99.5393 331.476C100.051 332.212 100.307 333.292 100.307 334.716C100.307 336.148 100.051 337.236 99.5393 337.98C99.0273 338.724 98.2793 339.096 97.2953 339.096ZM97.2953 338.184C97.9433 338.184 98.4193 337.904 98.7233 337.344C99.0353 336.784 99.1913 335.908 99.1913 334.716C99.1913 333.524 99.0353 332.656 98.7233 332.112C98.4193 331.56 97.9433 331.284 97.2953 331.284C96.6473 331.284 96.1673 331.56 95.8553 332.112C95.5513 332.664 95.3993 333.532 95.3993 334.716C95.3993 335.908 95.5513 336.784 95.8553 337.344C96.1673 337.904 96.6473 338.184 97.2953 338.184Z" fill="#969EAC"/>
<path d="M23.5482 323H22.4082L26.1882 314.456H27.1362L30.9282 323H29.8002L26.4882 315.284H26.8602L23.5482 323ZM24.0282 320.852L24.4242 319.94H28.8882L29.2842 320.852H24.0282ZM31.9999 325.592V318.656C31.9999 318.376 31.9919 318.096 31.9759 317.816C31.9679 317.528 31.9439 317.244 31.9039 316.964H32.9359L33.0439 318.2L32.9479 318.356C33.0839 317.86 33.3439 317.48 33.7279 317.216C34.1119 316.944 34.5719 316.808 35.1079 316.808C35.6359 316.808 36.0999 316.944 36.4999 317.216C36.9079 317.48 37.2239 317.848 37.4479 318.32C37.6799 318.792 37.7959 319.344 37.7959 319.976C37.7959 320.608 37.6799 321.16 37.4479 321.632C37.2239 322.096 36.9119 322.456 36.5119 322.712C36.1119 322.96 35.6439 323.084 35.1079 323.084C34.5719 323.084 34.1119 322.952 33.7279 322.688C33.3439 322.416 33.0839 322.036 32.9479 321.548L33.0919 321.416V325.592H31.9999ZM34.8799 322.196C35.4479 322.196 35.8879 322.004 36.1999 321.62C36.5119 321.236 36.6679 320.688 36.6679 319.976C36.6679 319.264 36.5119 318.708 36.1999 318.308C35.8879 317.908 35.4479 317.708 34.8799 317.708C34.3039 317.708 33.8599 317.904 33.5479 318.296C33.2359 318.68 33.0799 319.232 33.0799 319.952C33.0799 320.672 33.2359 321.228 33.5479 321.62C33.8599 322.004 34.3039 322.196 34.8799 322.196ZM39.2421 323V318.656C39.2421 318.376 39.2341 318.096 39.2181 317.816C39.2101 317.528 39.1861 317.244 39.1461 316.964H40.1781L40.3101 318.464L40.1781 318.416C40.2821 317.888 40.5181 317.492 40.8861 317.228C41.2621 316.956 41.6821 316.82 42.1461 316.82C42.2581 316.82 42.3581 316.828 42.4461 316.844C42.5421 316.852 42.6301 316.868 42.7101 316.892L42.6981 317.888C42.4981 317.816 42.2741 317.78 42.0261 317.78C41.6181 317.78 41.2901 317.868 41.0421 318.044C40.7941 318.22 40.6141 318.444 40.5021 318.716C40.3901 318.988 40.3341 319.28 40.3341 319.592V323H39.2421ZM19.0694 339V338.16L22.0454 334.896C22.4294 334.464 22.7094 334.076 22.8854 333.732C23.0694 333.38 23.1614 333.028 23.1614 332.676C23.1614 332.228 23.0294 331.884 22.7654 331.644C22.5014 331.396 22.1294 331.272 21.6494 331.272C21.2414 331.272 20.8374 331.356 20.4374 331.524C20.0374 331.684 19.6414 331.924 19.2494 332.244L18.8414 331.404C19.1774 331.084 19.6014 330.832 20.1134 330.648C20.6334 330.456 21.1534 330.36 21.6734 330.36C22.2094 330.36 22.6694 330.452 23.0534 330.636C23.4374 330.812 23.7374 331.072 23.9534 331.416C24.1694 331.752 24.2774 332.152 24.2774 332.616C24.2774 333.104 24.1654 333.572 23.9414 334.02C23.7254 334.468 23.3654 334.972 22.8614 335.532L20.0414 338.568L19.9454 338.076H24.6254V339H19.0694ZM28.9047 339.096C27.9207 339.096 27.1727 338.728 26.6607 337.992C26.1487 337.248 25.8927 336.16 25.8927 334.728C25.8927 333.296 26.1447 332.212 26.6487 331.476C27.1607 330.732 27.9127 330.36 28.9047 330.36C29.8967 330.36 30.6447 330.732 31.1487 331.476C31.6607 332.212 31.9167 333.292 31.9167 334.716C31.9167 336.148 31.6607 337.236 31.1487 337.98C30.6367 338.724 29.8887 339.096 28.9047 339.096ZM28.9047 338.184C29.5527 338.184 30.0287 337.904 30.3327 337.344C30.6447 336.784 30.8007 335.908 30.8007 334.716C30.8007 333.524 30.6447 332.656 30.3327 332.112C30.0287 331.56 29.5527 331.284 28.9047 331.284C28.2567 331.284 27.7767 331.56 27.4647 332.112C27.1607 332.664 27.0087 333.532 27.0087 334.716C27.0087 335.908 27.1607 336.784 27.4647 337.344C27.7767 337.904 28.2567 338.184 28.9047 338.184ZM33.46 339V338.16L36.436 334.896C36.82 334.464 37.1 334.076 37.276 333.732C37.46 333.38 37.552 333.028 37.552 332.676C37.552 332.228 37.42 331.884 37.156 331.644C36.892 331.396 36.52 331.272 36.04 331.272C35.632 331.272 35.228 331.356 34.828 331.524C34.428 331.684 34.032 331.924 33.64 332.244L33.232 331.404C33.568 331.084 33.992 330.832 34.504 330.648C35.024 330.456 35.544 330.36 36.064 330.36C36.6 330.36 37.06 330.452 37.444 330.636C37.828 330.812 38.128 331.072 38.344 331.416C38.56 331.752 38.668 332.152 38.668 332.616C38.668 333.104 38.556 333.572 38.332 334.02C38.116 334.468 37.756 334.972 37.252 335.532L34.432 338.568L34.336 338.076H39.016V339H33.46ZM43.2953 339.096C42.3113 339.096 41.5633 338.728 41.0513 337.992C40.5393 337.248 40.2833 336.16 40.2833 334.728C40.2833 333.296 40.5353 332.212 41.0393 331.476C41.5513 330.732 42.3033 330.36 43.2953 330.36C44.2873 330.36 45.0353 330.732 45.5393 331.476C46.0513 332.212 46.3073 333.292 46.3073 334.716C46.3073 336.148 46.0513 337.236 45.5393 337.98C45.0273 338.724 44.2793 339.096 43.2953 339.096ZM43.2953 338.184C43.9433 338.184 44.4193 337.904 44.7233 337.344C45.0353 336.784 45.1913 335.908 45.1913 334.716C45.1913 333.524 45.0353 332.656 44.7233 332.112C44.4193 331.56 43.9433 331.284 43.2953 331.284C42.6473 331.284 42.1673 331.56 41.8553 332.112C41.5513 332.664 41.3993 333.532 41.3993 334.716C41.3993 335.908 41.5513 336.784 41.8553 337.344C42.1673 337.904 42.6473 338.184 43.2953 338.184Z" fill="#969EAC"/>
<path opacity="0.24" d="M24 294.5H269" stroke="#969EAC"/>
<path d="M287.624 299.096C287.008 299.096 286.432 299.004 285.896 298.82C285.368 298.636 284.908 298.368 284.516 298.016L284.912 297.176C285.336 297.528 285.76 297.784 286.184 297.944C286.616 298.096 287.088 298.172 287.6 298.172C288.224 298.172 288.704 298.044 289.04 297.788C289.384 297.524 289.556 297.16 289.556 296.696C289.556 296.408 289.468 296.18 289.292 296.012C289.116 295.844 288.88 295.708 288.584 295.604C288.296 295.492 287.976 295.396 287.624 295.316C287.28 295.236 286.932 295.144 286.58 295.04C286.236 294.928 285.916 294.788 285.62 294.62C285.332 294.444 285.1 294.216 284.924 293.936C284.748 293.656 284.66 293.292 284.66 292.844C284.66 292.356 284.788 291.928 285.044 291.56C285.308 291.184 285.668 290.892 286.124 290.684C286.588 290.468 287.112 290.36 287.696 290.36C288.064 290.36 288.424 290.404 288.776 290.492C289.128 290.572 289.456 290.692 289.76 290.852C290.072 291.004 290.34 291.192 290.564 291.416L290.168 292.256C289.448 291.608 288.628 291.284 287.708 291.284C287.116 291.284 286.648 291.42 286.304 291.692C285.96 291.956 285.788 292.324 285.788 292.796C285.788 293.108 285.876 293.36 286.052 293.552C286.228 293.744 286.46 293.896 286.748 294.008C287.044 294.12 287.364 294.216 287.708 294.296C288.06 294.376 288.408 294.468 288.752 294.572C289.104 294.676 289.424 294.808 289.712 294.968C290.008 295.128 290.24 295.344 290.408 295.616C290.584 295.888 290.672 296.236 290.672 296.66C290.672 297.148 290.544 297.576 290.288 297.944C290.032 298.304 289.672 298.588 289.208 298.796C288.752 298.996 288.224 299.096 287.624 299.096ZM287.252 300.392V298.904L287.3 298.376V290.972L287.252 290.528V289.064H288.188V290.528L288.14 290.972V298.376L288.188 298.904V300.392H287.252ZM294.795 299.096C293.811 299.096 293.063 298.728 292.551 297.992C292.039 297.248 291.783 296.16 291.783 294.728C291.783 293.296 292.035 292.212 292.539 291.476C293.051 290.732 293.803 290.36 294.795 290.36C295.787 290.36 296.535 290.732 297.039 291.476C297.551 292.212 297.807 293.292 297.807 294.716C297.807 296.148 297.551 297.236 297.039 297.98C296.527 298.724 295.779 299.096 294.795 299.096ZM294.795 298.184C295.443 298.184 295.919 297.904 296.223 297.344C296.535 296.784 296.691 295.908 296.691 294.716C296.691 293.524 296.535 292.656 296.223 292.112C295.919 291.56 295.443 291.284 294.795 291.284C294.147 291.284 293.667 291.56 293.355 292.112C293.051 292.664 292.899 293.532 292.899 294.716C292.899 295.908 293.051 296.784 293.355 297.344C293.667 297.904 294.147 298.184 294.795 298.184ZM303.383 299L300.179 295.916L303.155 292.976H304.523L301.211 296.204L301.259 295.568L304.787 299H303.383ZM299.303 299V290.168H300.395V299H299.303Z" fill="#969EAC"/>
<path d="M287.624 263.096C287.008 263.096 286.432 263.004 285.896 262.82C285.368 262.636 284.908 262.368 284.516 262.016L284.912 261.176C285.336 261.528 285.76 261.784 286.184 261.944C286.616 262.096 287.088 262.172 287.6 262.172C288.224 262.172 288.704 262.044 289.04 261.788C289.384 261.524 289.556 261.16 289.556 260.696C289.556 260.408 289.468 260.18 289.292 260.012C289.116 259.844 288.88 259.708 288.584 259.604C288.296 259.492 287.976 259.396 287.624 259.316C287.28 259.236 286.932 259.144 286.58 259.04C286.236 258.928 285.916 258.788 285.62 258.62C285.332 258.444 285.1 258.216 284.924 257.936C284.748 257.656 284.66 257.292 284.66 256.844C284.66 256.356 284.788 255.928 285.044 255.56C285.308 255.184 285.668 254.892 286.124 254.684C286.588 254.468 287.112 254.36 287.696 254.36C288.064 254.36 288.424 254.404 288.776 254.492C289.128 254.572 289.456 254.692 289.76 254.852C290.072 255.004 290.34 255.192 290.564 255.416L290.168 256.256C289.448 255.608 288.628 255.284 287.708 255.284C287.116 255.284 286.648 255.42 286.304 255.692C285.96 255.956 285.788 256.324 285.788 256.796C285.788 257.108 285.876 257.36 286.052 257.552C286.228 257.744 286.46 257.896 286.748 258.008C287.044 258.12 287.364 258.216 287.708 258.296C288.06 258.376 288.408 258.468 288.752 258.572C289.104 258.676 289.424 258.808 289.712 258.968C290.008 259.128 290.24 259.344 290.408 259.616C290.584 259.888 290.672 260.236 290.672 260.66C290.672 261.148 290.544 261.576 290.288 261.944C290.032 262.304 289.672 262.588 289.208 262.796C288.752 262.996 288.224 263.096 287.624 263.096ZM287.252 264.392V262.904L287.3 262.376V254.972L287.252 254.528V253.064H288.188V254.528L288.14 254.972V262.376L288.188 262.904V264.392H287.252ZM292.155 263V262.16L295.131 258.896C295.515 258.464 295.795 258.076 295.971 257.732C296.155 257.38 296.247 257.028 296.247 256.676C296.247 256.228 296.115 255.884 295.851 255.644C295.587 255.396 295.215 255.272 294.735 255.272C294.327 255.272 293.923 255.356 293.523 255.524C293.123 255.684 292.727 255.924 292.335 256.244L291.927 255.404C292.263 255.084 292.687 254.832 293.199 254.648C293.719 254.456 294.239 254.36 294.759 254.36C295.295 254.36 295.755 254.452 296.139 254.636C296.523 254.812 296.823 255.072 297.039 255.416C297.255 255.752 297.363 256.152 297.363 256.616C297.363 257.104 297.251 257.572 297.027 258.02C296.811 258.468 296.451 258.972 295.947 259.532L293.127 262.568L293.031 262.076H297.711V263H292.155ZM302.099 263.084C301.571 263.084 301.051 262.992 300.539 262.808C300.035 262.624 299.611 262.368 299.267 262.04L299.675 261.2C300.067 261.52 300.463 261.764 300.863 261.932C301.263 262.092 301.675 262.172 302.099 262.172C302.683 262.172 303.139 262.012 303.467 261.692C303.795 261.364 303.959 260.916 303.959 260.348C303.959 259.988 303.883 259.672 303.731 259.4C303.587 259.128 303.379 258.916 303.107 258.764C302.843 258.604 302.531 258.524 302.171 258.524C301.779 258.524 301.423 258.604 301.103 258.764C300.783 258.916 300.503 259.148 300.263 259.46H299.519V254.456H304.691V255.356H300.623V258.668L300.275 258.632C300.507 258.304 300.803 258.052 301.163 257.876C301.523 257.7 301.927 257.612 302.375 257.612C302.919 257.612 303.391 257.728 303.791 257.96C304.191 258.184 304.499 258.5 304.715 258.908C304.931 259.316 305.039 259.788 305.039 260.324C305.039 260.868 304.919 261.348 304.679 261.764C304.439 262.18 304.099 262.504 303.659 262.736C303.219 262.968 302.699 263.084 302.099 263.084ZM309.186 263.096C308.202 263.096 307.454 262.728 306.942 261.992C306.43 261.248 306.174 260.16 306.174 258.728C306.174 257.296 306.426 256.212 306.93 255.476C307.442 254.732 308.194 254.36 309.186 254.36C310.178 254.36 310.926 254.732 311.43 255.476C311.942 256.212 312.198 257.292 312.198 258.716C312.198 260.148 311.942 261.236 311.43 261.98C310.918 262.724 310.17 263.096 309.186 263.096ZM309.186 262.184C309.834 262.184 310.31 261.904 310.614 261.344C310.926 260.784 311.082 259.908 311.082 258.716C311.082 257.524 310.926 256.656 310.614 256.112C310.31 255.56 309.834 255.284 309.186 255.284C308.538 255.284 308.058 255.56 307.746 256.112C307.442 256.664 307.29 257.532 307.29 258.716C307.29 259.908 307.442 260.784 307.746 261.344C308.058 261.904 308.538 262.184 309.186 262.184ZM317.773 263L314.569 259.916L317.545 256.976H318.913L315.601 260.204L315.649 259.568L319.177 263H317.773ZM313.693 263V254.168H314.785V263H313.693Z" fill="#969EAC"/>
<path d="M287.624 227.096C287.008 227.096 286.432 227.004 285.896 226.82C285.368 226.636 284.908 226.368 284.516 226.016L284.912 225.176C285.336 225.528 285.76 225.784 286.184 225.944C286.616 226.096 287.088 226.172 287.6 226.172C288.224 226.172 288.704 226.044 289.04 225.788C289.384 225.524 289.556 225.16 289.556 224.696C289.556 224.408 289.468 224.18 289.292 224.012C289.116 223.844 288.88 223.708 288.584 223.604C288.296 223.492 287.976 223.396 287.624 223.316C287.28 223.236 286.932 223.144 286.58 223.04C286.236 222.928 285.916 222.788 285.62 222.62C285.332 222.444 285.1 222.216 284.924 221.936C284.748 221.656 284.66 221.292 284.66 220.844C284.66 220.356 284.788 219.928 285.044 219.56C285.308 219.184 285.668 218.892 286.124 218.684C286.588 218.468 287.112 218.36 287.696 218.36C288.064 218.36 288.424 218.404 288.776 218.492C289.128 218.572 289.456 218.692 289.76 218.852C290.072 219.004 290.34 219.192 290.564 219.416L290.168 220.256C289.448 219.608 288.628 219.284 287.708 219.284C287.116 219.284 286.648 219.42 286.304 219.692C285.96 219.956 285.788 220.324 285.788 220.796C285.788 221.108 285.876 221.36 286.052 221.552C286.228 221.744 286.46 221.896 286.748 222.008C287.044 222.12 287.364 222.216 287.708 222.296C288.06 222.376 288.408 222.468 288.752 222.572C289.104 222.676 289.424 222.808 289.712 222.968C290.008 223.128 290.24 223.344 290.408 223.616C290.584 223.888 290.672 224.236 290.672 224.66C290.672 225.148 290.544 225.576 290.288 225.944C290.032 226.304 289.672 226.588 289.208 226.796C288.752 226.996 288.224 227.096 287.624 227.096ZM287.252 228.392V226.904L287.3 226.376V218.972L287.252 218.528V217.064H288.188V218.528L288.14 218.972V226.376L288.188 226.904V228.392H287.252ZM294.903 227.084C294.375 227.084 293.855 226.992 293.343 226.808C292.839 226.624 292.415 226.368 292.071 226.04L292.479 225.2C292.871 225.52 293.267 225.764 293.667 225.932C294.067 226.092 294.479 226.172 294.903 226.172C295.487 226.172 295.943 226.012 296.271 225.692C296.599 225.364 296.763 224.916 296.763 224.348C296.763 223.988 296.687 223.672 296.535 223.4C296.391 223.128 296.183 222.916 295.911 222.764C295.647 222.604 295.335 222.524 294.975 222.524C294.583 222.524 294.227 222.604 293.907 222.764C293.587 222.916 293.307 223.148 293.067 223.46H292.323V218.456H297.495V219.356H293.427V222.668L293.079 222.632C293.311 222.304 293.607 222.052 293.967 221.876C294.327 221.7 294.731 221.612 295.179 221.612C295.723 221.612 296.195 221.728 296.595 221.96C296.995 222.184 297.303 222.5 297.519 222.908C297.735 223.316 297.843 223.788 297.843 224.324C297.843 224.868 297.723 225.348 297.483 225.764C297.243 226.18 296.903 226.504 296.463 226.736C296.023 226.968 295.503 227.084 294.903 227.084ZM301.991 227.096C301.007 227.096 300.259 226.728 299.747 225.992C299.235 225.248 298.979 224.16 298.979 222.728C298.979 221.296 299.231 220.212 299.735 219.476C300.247 218.732 300.999 218.36 301.991 218.36C302.983 218.36 303.731 218.732 304.235 219.476C304.747 220.212 305.003 221.292 305.003 222.716C305.003 224.148 304.747 225.236 304.235 225.98C303.723 226.724 302.975 227.096 301.991 227.096ZM301.991 226.184C302.639 226.184 303.115 225.904 303.419 225.344C303.731 224.784 303.887 223.908 303.887 222.716C303.887 221.524 303.731 220.656 303.419 220.112C303.115 219.56 302.639 219.284 301.991 219.284C301.343 219.284 300.863 219.56 300.551 220.112C300.247 220.664 300.095 221.532 300.095 222.716C300.095 223.908 300.247 224.784 300.551 225.344C300.863 225.904 301.343 226.184 301.991 226.184ZM309.186 227.096C308.202 227.096 307.454 226.728 306.942 225.992C306.43 225.248 306.174 224.16 306.174 222.728C306.174 221.296 306.426 220.212 306.93 219.476C307.442 218.732 308.194 218.36 309.186 218.36C310.178 218.36 310.926 218.732 311.43 219.476C311.942 220.212 312.198 221.292 312.198 222.716C312.198 224.148 311.942 225.236 311.43 225.98C310.918 226.724 310.17 227.096 309.186 227.096ZM309.186 226.184C309.834 226.184 310.31 225.904 310.614 225.344C310.926 224.784 311.082 223.908 311.082 222.716C311.082 221.524 310.926 220.656 310.614 220.112C310.31 219.56 309.834 219.284 309.186 219.284C308.538 219.284 308.058 219.56 307.746 220.112C307.442 220.664 307.29 221.532 307.29 222.716C307.29 223.908 307.442 224.784 307.746 225.344C308.058 225.904 308.538 226.184 309.186 226.184ZM317.773 227L314.569 223.916L317.545 220.976H318.913L315.601 224.204L315.649 223.568L319.177 227H317.773ZM313.693 227V218.168H314.785V227H313.693Z" fill="#969EAC"/>
<path d="M287.624 191.096C287.008 191.096 286.432 191.004 285.896 190.82C285.368 190.636 284.908 190.368 284.516 190.016L284.912 189.176C285.336 189.528 285.76 189.784 286.184 189.944C286.616 190.096 287.088 190.172 287.6 190.172C288.224 190.172 288.704 190.044 289.04 189.788C289.384 189.524 289.556 189.16 289.556 188.696C289.556 188.408 289.468 188.18 289.292 188.012C289.116 187.844 288.88 187.708 288.584 187.604C288.296 187.492 287.976 187.396 287.624 187.316C287.28 187.236 286.932 187.144 286.58 187.04C286.236 186.928 285.916 186.788 285.62 186.62C285.332 186.444 285.1 186.216 284.924 185.936C284.748 185.656 284.66 185.292 284.66 184.844C284.66 184.356 284.788 183.928 285.044 183.56C285.308 183.184 285.668 182.892 286.124 182.684C286.588 182.468 287.112 182.36 287.696 182.36C288.064 182.36 288.424 182.404 288.776 182.492C289.128 182.572 289.456 182.692 289.76 182.852C290.072 183.004 290.34 183.192 290.564 183.416L290.168 184.256C289.448 183.608 288.628 183.284 287.708 183.284C287.116 183.284 286.648 183.42 286.304 183.692C285.96 183.956 285.788 184.324 285.788 184.796C285.788 185.108 285.876 185.36 286.052 185.552C286.228 185.744 286.46 185.896 286.748 186.008C287.044 186.12 287.364 186.216 287.708 186.296C288.06 186.376 288.408 186.468 288.752 186.572C289.104 186.676 289.424 186.808 289.712 186.968C290.008 187.128 290.24 187.344 290.408 187.616C290.584 187.888 290.672 188.236 290.672 188.66C290.672 189.148 290.544 189.576 290.288 189.944C290.032 190.304 289.672 190.588 289.208 190.796C288.752 190.996 288.224 191.096 287.624 191.096ZM287.252 192.392V190.904L287.3 190.376V182.972L287.252 182.528V181.064H288.188V182.528L288.14 182.972V190.376L288.188 190.904V192.392H287.252ZM293.667 191H292.479L296.655 182.96L296.727 183.38H291.939V182.456H297.651V183.284L293.667 191ZM302.099 191.084C301.571 191.084 301.051 190.992 300.539 190.808C300.035 190.624 299.611 190.368 299.267 190.04L299.675 189.2C300.067 189.52 300.463 189.764 300.863 189.932C301.263 190.092 301.675 190.172 302.099 190.172C302.683 190.172 303.139 190.012 303.467 189.692C303.795 189.364 303.959 188.916 303.959 188.348C303.959 187.988 303.883 187.672 303.731 187.4C303.587 187.128 303.379 186.916 303.107 186.764C302.843 186.604 302.531 186.524 302.171 186.524C301.779 186.524 301.423 186.604 301.103 186.764C300.783 186.916 300.503 187.148 300.263 187.46H299.519V182.456H304.691V183.356H300.623V186.668L300.275 186.632C300.507 186.304 300.803 186.052 301.163 185.876C301.523 185.7 301.927 185.612 302.375 185.612C302.919 185.612 303.391 185.728 303.791 185.96C304.191 186.184 304.499 186.5 304.715 186.908C304.931 187.316 305.039 187.788 305.039 188.324C305.039 188.868 304.919 189.348 304.679 189.764C304.439 190.18 304.099 190.504 303.659 190.736C303.219 190.968 302.699 191.084 302.099 191.084ZM309.186 191.096C308.202 191.096 307.454 190.728 306.942 189.992C306.43 189.248 306.174 188.16 306.174 186.728C306.174 185.296 306.426 184.212 306.93 183.476C307.442 182.732 308.194 182.36 309.186 182.36C310.178 182.36 310.926 182.732 311.43 183.476C311.942 184.212 312.198 185.292 312.198 186.716C312.198 188.148 311.942 189.236 311.43 189.98C310.918 190.724 310.17 191.096 309.186 191.096ZM309.186 190.184C309.834 190.184 310.31 189.904 310.614 189.344C310.926 188.784 311.082 187.908 311.082 186.716C311.082 185.524 310.926 184.656 310.614 184.112C310.31 183.56 309.834 183.284 309.186 183.284C308.538 183.284 308.058 183.56 307.746 184.112C307.442 184.664 307.29 185.532 307.29 186.716C307.29 187.908 307.442 188.784 307.746 189.344C308.058 189.904 308.538 190.184 309.186 190.184ZM317.773 191L314.569 187.916L317.545 184.976H318.913L315.601 188.204L315.649 187.568L319.177 191H317.773ZM313.693 191V182.168H314.785V191H313.693Z" fill="#969EAC"/>
<path d="M287.624 155.096C287.008 155.096 286.432 155.004 285.896 154.82C285.368 154.636 284.908 154.368 284.516 154.016L284.912 153.176C285.336 153.528 285.76 153.784 286.184 153.944C286.616 154.096 287.088 154.172 287.6 154.172C288.224 154.172 288.704 154.044 289.04 153.788C289.384 153.524 289.556 153.16 289.556 152.696C289.556 152.408 289.468 152.18 289.292 152.012C289.116 151.844 288.88 151.708 288.584 151.604C288.296 151.492 287.976 151.396 287.624 151.316C287.28 151.236 286.932 151.144 286.58 151.04C286.236 150.928 285.916 150.788 285.62 150.62C285.332 150.444 285.1 150.216 284.924 149.936C284.748 149.656 284.66 149.292 284.66 148.844C284.66 148.356 284.788 147.928 285.044 147.56C285.308 147.184 285.668 146.892 286.124 146.684C286.588 146.468 287.112 146.36 287.696 146.36C288.064 146.36 288.424 146.404 288.776 146.492C289.128 146.572 289.456 146.692 289.76 146.852C290.072 147.004 290.34 147.192 290.564 147.416L290.168 148.256C289.448 147.608 288.628 147.284 287.708 147.284C287.116 147.284 286.648 147.42 286.304 147.692C285.96 147.956 285.788 148.324 285.788 148.796C285.788 149.108 285.876 149.36 286.052 149.552C286.228 149.744 286.46 149.896 286.748 150.008C287.044 150.12 287.364 150.216 287.708 150.296C288.06 150.376 288.408 150.468 288.752 150.572C289.104 150.676 289.424 150.808 289.712 150.968C290.008 151.128 290.24 151.344 290.408 151.616C290.584 151.888 290.672 152.236 290.672 152.66C290.672 153.148 290.544 153.576 290.288 153.944C290.032 154.304 289.672 154.588 289.208 154.796C288.752 154.996 288.224 155.096 287.624 155.096ZM287.252 156.392V154.904L287.3 154.376V146.972L287.252 146.528V145.064H288.188V146.528L288.14 146.972V154.376L288.188 154.904V156.392H287.252ZM294.567 154.496V147.164L295.179 147.416L292.815 148.904V147.86L295.047 146.456H295.683V154.496H294.567ZM292.683 155V154.076H297.567V155H292.683ZM299.303 155V150.656C299.303 150.376 299.295 150.096 299.279 149.816C299.271 149.528 299.247 149.244 299.207 148.964H300.239L300.347 150.2L300.227 150.26C300.371 149.796 300.619 149.44 300.971 149.192C301.331 148.936 301.755 148.808 302.243 148.808C302.827 148.808 303.279 148.952 303.599 149.24C303.927 149.528 304.135 149.968 304.223 150.56L303.935 150.38C304.071 149.9 304.331 149.52 304.715 149.24C305.099 148.952 305.559 148.808 306.095 148.808C306.767 148.808 307.271 149.008 307.607 149.408C307.943 149.808 308.111 150.412 308.111 151.22V155H307.019V151.268C307.019 150.732 306.923 150.34 306.731 150.092C306.547 149.836 306.247 149.708 305.831 149.708C305.343 149.708 304.959 149.876 304.679 150.212C304.399 150.54 304.259 150.992 304.259 151.568V155H303.167V151.268C303.167 150.732 303.071 150.34 302.879 150.092C302.687 149.836 302.383 149.708 301.967 149.708C301.471 149.708 301.083 149.876 300.803 150.212C300.531 150.54 300.395 150.992 300.395 151.568V155H299.303Z" fill="#969EAC"/>
<path d="M287.624 119.096C287.008 119.096 286.432 119.004 285.896 118.82C285.368 118.636 284.908 118.368 284.516 118.016L284.912 117.176C285.336 117.528 285.76 117.784 286.184 117.944C286.616 118.096 287.088 118.172 287.6 118.172C288.224 118.172 288.704 118.044 289.04 117.788C289.384 117.524 289.556 117.16 289.556 116.696C289.556 116.408 289.468 116.18 289.292 116.012C289.116 115.844 288.88 115.708 288.584 115.604C288.296 115.492 287.976 115.396 287.624 115.316C287.28 115.236 286.932 115.144 286.58 115.04C286.236 114.928 285.916 114.788 285.62 114.62C285.332 114.444 285.1 114.216 284.924 113.936C284.748 113.656 284.66 113.292 284.66 112.844C284.66 112.356 284.788 111.928 285.044 111.56C285.308 111.184 285.668 110.892 286.124 110.684C286.588 110.468 287.112 110.36 287.696 110.36C288.064 110.36 288.424 110.404 288.776 110.492C289.128 110.572 289.456 110.692 289.76 110.852C290.072 111.004 290.34 111.192 290.564 111.416L290.168 112.256C289.448 111.608 288.628 111.284 287.708 111.284C287.116 111.284 286.648 111.42 286.304 111.692C285.96 111.956 285.788 112.324 285.788 112.796C285.788 113.108 285.876 113.36 286.052 113.552C286.228 113.744 286.46 113.896 286.748 114.008C287.044 114.12 287.364 114.216 287.708 114.296C288.06 114.376 288.408 114.468 288.752 114.572C289.104 114.676 289.424 114.808 289.712 114.968C290.008 115.128 290.24 115.344 290.408 115.616C290.584 115.888 290.672 116.236 290.672 116.66C290.672 117.148 290.544 117.576 290.288 117.944C290.032 118.304 289.672 118.588 289.208 118.796C288.752 118.996 288.224 119.096 287.624 119.096ZM287.252 120.392V118.904L287.3 118.376V110.972L287.252 110.528V109.064H288.188V110.528L288.14 110.972V118.376L288.188 118.904V120.392H287.252ZM294.567 118.496V111.164L295.179 111.416L292.815 112.904V111.86L295.047 110.456H295.683V118.496H294.567ZM292.683 119V118.076H297.567V119H292.683ZM299.135 117.668H300.467V119H299.135V117.668ZM302.175 119V118.16L305.151 114.896C305.535 114.464 305.815 114.076 305.991 113.732C306.175 113.38 306.267 113.028 306.267 112.676C306.267 112.228 306.135 111.884 305.871 111.644C305.607 111.396 305.235 111.272 304.755 111.272C304.347 111.272 303.943 111.356 303.543 111.524C303.143 111.684 302.747 111.924 302.355 112.244L301.947 111.404C302.283 111.084 302.707 110.832 303.219 110.648C303.739 110.456 304.259 110.36 304.779 110.36C305.315 110.36 305.775 110.452 306.159 110.636C306.543 110.812 306.843 111.072 307.059 111.416C307.275 111.752 307.383 112.152 307.383 112.616C307.383 113.104 307.271 113.572 307.047 114.02C306.831 114.468 306.471 114.972 305.967 115.532L303.147 118.568L303.051 118.076H307.731V119H302.175ZM312.118 119.084C311.59 119.084 311.07 118.992 310.558 118.808C310.054 118.624 309.63 118.368 309.286 118.04L309.694 117.2C310.086 117.52 310.482 117.764 310.882 117.932C311.282 118.092 311.694 118.172 312.118 118.172C312.702 118.172 313.158 118.012 313.486 117.692C313.814 117.364 313.978 116.916 313.978 116.348C313.978 115.988 313.902 115.672 313.75 115.4C313.606 115.128 313.398 114.916 313.126 114.764C312.862 114.604 312.55 114.524 312.19 114.524C311.798 114.524 311.442 114.604 311.122 114.764C310.802 114.916 310.522 115.148 310.282 115.46H309.538V110.456H314.71V111.356H310.642V114.668L310.294 114.632C310.526 114.304 310.822 114.052 311.182 113.876C311.542 113.7 311.946 113.612 312.394 113.612C312.938 113.612 313.41 113.728 313.81 113.96C314.21 114.184 314.518 114.5 314.734 114.908C314.95 115.316 315.058 115.788 315.058 116.324C315.058 116.868 314.938 117.348 314.698 117.764C314.458 118.18 314.118 118.504 313.678 118.736C313.238 118.968 312.718 119.084 312.118 119.084ZM316.517 119V114.656C316.517 114.376 316.509 114.096 316.493 113.816C316.485 113.528 316.461 113.244 316.421 112.964H317.453L317.561 114.2L317.441 114.26C317.585 113.796 317.833 113.44 318.185 113.192C318.545 112.936 318.969 112.808 319.457 112.808C320.041 112.808 320.493 112.952 320.813 113.24C321.141 113.528 321.349 113.968 321.437 114.56L321.149 114.38C321.285 113.9 321.545 113.52 321.929 113.24C322.313 112.952 322.773 112.808 323.309 112.808C323.981 112.808 324.485 113.008 324.821 113.408C325.157 113.808 325.325 114.412 325.325 115.22V119H324.233V115.268C324.233 114.732 324.137 114.34 323.945 114.092C323.761 113.836 323.461 113.708 323.045 113.708C322.557 113.708 322.173 113.876 321.893 114.212C321.613 114.54 321.473 114.992 321.473 115.568V119H320.381V115.268C320.381 114.732 320.285 114.34 320.093 114.092C319.901 113.836 319.597 113.708 319.181 113.708C318.685 113.708 318.297 113.876 318.017 114.212C317.745 114.54 317.609 114.992 317.609 115.568V119H316.517Z" fill="#969EAC"/>
<path d="M287.624 83.096C287.008 83.096 286.432 83.004 285.896 82.82C285.368 82.636 284.908 82.368 284.516 82.016L284.912 81.176C285.336 81.528 285.76 81.784 286.184 81.944C286.616 82.096 287.088 82.172 287.6 82.172C288.224 82.172 288.704 82.044 289.04 81.788C289.384 81.524 289.556 81.16 289.556 80.696C289.556 80.408 289.468 80.18 289.292 80.012C289.116 79.844 288.88 79.708 288.584 79.604C288.296 79.492 287.976 79.396 287.624 79.316C287.28 79.236 286.932 79.144 286.58 79.04C286.236 78.928 285.916 78.788 285.62 78.62C285.332 78.444 285.1 78.216 284.924 77.936C284.748 77.656 284.66 77.292 284.66 76.844C284.66 76.356 284.788 75.928 285.044 75.56C285.308 75.184 285.668 74.892 286.124 74.684C286.588 74.468 287.112 74.36 287.696 74.36C288.064 74.36 288.424 74.404 288.776 74.492C289.128 74.572 289.456 74.692 289.76 74.852C290.072 75.004 290.34 75.192 290.564 75.416L290.168 76.256C289.448 75.608 288.628 75.284 287.708 75.284C287.116 75.284 286.648 75.42 286.304 75.692C285.96 75.956 285.788 76.324 285.788 76.796C285.788 77.108 285.876 77.36 286.052 77.552C286.228 77.744 286.46 77.896 286.748 78.008C287.044 78.12 287.364 78.216 287.708 78.296C288.06 78.376 288.408 78.468 288.752 78.572C289.104 78.676 289.424 78.808 289.712 78.968C290.008 79.128 290.24 79.344 290.408 79.616C290.584 79.888 290.672 80.236 290.672 80.66C290.672 81.148 290.544 81.576 290.288 81.944C290.032 82.304 289.672 82.588 289.208 82.796C288.752 82.996 288.224 83.096 287.624 83.096ZM287.252 84.392V82.904L287.3 82.376V74.972L287.252 74.528V73.064H288.188V74.528L288.14 74.972V82.376L288.188 82.904V84.392H287.252ZM294.567 82.496V75.164L295.179 75.416L292.815 76.904V75.86L295.047 74.456H295.683V82.496H294.567ZM292.683 83V82.076H297.567V83H292.683ZM299.135 81.668H300.467V83H299.135V81.668ZM304.923 83.084C304.395 83.084 303.875 82.992 303.363 82.808C302.859 82.624 302.435 82.368 302.091 82.04L302.499 81.2C302.891 81.52 303.287 81.764 303.687 81.932C304.087 82.092 304.499 82.172 304.923 82.172C305.507 82.172 305.963 82.012 306.291 81.692C306.619 81.364 306.783 80.916 306.783 80.348C306.783 79.988 306.707 79.672 306.555 79.4C306.411 79.128 306.203 78.916 305.931 78.764C305.667 78.604 305.355 78.524 304.995 78.524C304.603 78.524 304.247 78.604 303.927 78.764C303.607 78.916 303.327 79.148 303.087 79.46H302.343V74.456H307.515V75.356H303.447V78.668L303.099 78.632C303.331 78.304 303.627 78.052 303.987 77.876C304.347 77.7 304.751 77.612 305.199 77.612C305.743 77.612 306.215 77.728 306.615 77.96C307.015 78.184 307.323 78.5 307.539 78.908C307.755 79.316 307.863 79.788 307.863 80.324C307.863 80.868 307.743 81.348 307.503 81.764C307.263 82.18 306.923 82.504 306.483 82.736C306.043 82.968 305.523 83.084 304.923 83.084ZM309.322 83V78.656C309.322 78.376 309.314 78.096 309.298 77.816C309.29 77.528 309.266 77.244 309.226 76.964H310.258L310.366 78.2L310.246 78.26C310.39 77.796 310.638 77.44 310.99 77.192C311.35 76.936 311.774 76.808 312.262 76.808C312.846 76.808 313.298 76.952 313.618 77.24C313.946 77.528 314.154 77.968 314.242 78.56L313.954 78.38C314.09 77.9 314.35 77.52 314.734 77.24C315.118 76.952 315.578 76.808 316.114 76.808C316.786 76.808 317.29 77.008 317.626 77.408C317.962 77.808 318.13 78.412 318.13 79.22V83H317.038V79.268C317.038 78.732 316.942 78.34 316.75 78.092C316.566 77.836 316.266 77.708 315.85 77.708C315.362 77.708 314.978 77.876 314.698 78.212C314.418 78.54 314.278 78.992 314.278 79.568V83H313.186V79.268C313.186 78.732 313.09 78.34 312.898 78.092C312.706 77.836 312.402 77.708 311.986 77.708C311.49 77.708 311.102 77.876 310.822 78.212C310.55 78.54 310.414 78.992 310.414 79.568V83H309.322Z" fill="#969EAC"/>
<path d="M287.624 47.096C287.008 47.096 286.432 47.004 285.896 46.82C285.368 46.636 284.908 46.368 284.516 46.016L284.912 45.176C285.336 45.528 285.76 45.784 286.184 45.944C286.616 46.096 287.088 46.172 287.6 46.172C288.224 46.172 288.704 46.044 289.04 45.788C289.384 45.524 289.556 45.16 289.556 44.696C289.556 44.408 289.468 44.18 289.292 44.012C289.116 43.844 288.88 43.708 288.584 43.604C288.296 43.492 287.976 43.396 287.624 43.316C287.28 43.236 286.932 43.144 286.58 43.04C286.236 42.928 285.916 42.788 285.62 42.62C285.332 42.444 285.1 42.216 284.924 41.936C284.748 41.656 284.66 41.292 284.66 40.844C284.66 40.356 284.788 39.928 285.044 39.56C285.308 39.184 285.668 38.892 286.124 38.684C286.588 38.468 287.112 38.36 287.696 38.36C288.064 38.36 288.424 38.404 288.776 38.492C289.128 38.572 289.456 38.692 289.76 38.852C290.072 39.004 290.34 39.192 290.564 39.416L290.168 40.256C289.448 39.608 288.628 39.284 287.708 39.284C287.116 39.284 286.648 39.42 286.304 39.692C285.96 39.956 285.788 40.324 285.788 40.796C285.788 41.108 285.876 41.36 286.052 41.552C286.228 41.744 286.46 41.896 286.748 42.008C287.044 42.12 287.364 42.216 287.708 42.296C288.06 42.376 288.408 42.468 288.752 42.572C289.104 42.676 289.424 42.808 289.712 42.968C290.008 43.128 290.24 43.344 290.408 43.616C290.584 43.888 290.672 44.236 290.672 44.66C290.672 45.148 290.544 45.576 290.288 45.944C290.032 46.304 289.672 46.588 289.208 46.796C288.752 46.996 288.224 47.096 287.624 47.096ZM287.252 48.392V46.904L287.3 46.376V38.972L287.252 38.528V37.064H288.188V38.528L288.14 38.972V46.376L288.188 46.904V48.392H287.252ZM294.567 46.496V39.164L295.179 39.416L292.815 40.904V39.86L295.047 38.456H295.683V46.496H294.567ZM292.683 47V46.076H297.567V47H292.683ZM299.135 45.668H300.467V47H299.135V45.668ZM303.687 47H302.499L306.675 38.96L306.747 39.38H301.959V38.456H307.671V39.284L303.687 47ZM312.118 47.084C311.59 47.084 311.07 46.992 310.558 46.808C310.054 46.624 309.63 46.368 309.286 46.04L309.694 45.2C310.086 45.52 310.482 45.764 310.882 45.932C311.282 46.092 311.694 46.172 312.118 46.172C312.702 46.172 313.158 46.012 313.486 45.692C313.814 45.364 313.978 44.916 313.978 44.348C313.978 43.988 313.902 43.672 313.75 43.4C313.606 43.128 313.398 42.916 313.126 42.764C312.862 42.604 312.55 42.524 312.19 42.524C311.798 42.524 311.442 42.604 311.122 42.764C310.802 42.916 310.522 43.148 310.282 43.46H309.538V38.456H314.71V39.356H310.642V42.668L310.294 42.632C310.526 42.304 310.822 42.052 311.182 41.876C311.542 41.7 311.946 41.612 312.394 41.612C312.938 41.612 313.41 41.728 313.81 41.96C314.21 42.184 314.518 42.5 314.734 42.908C314.95 43.316 315.058 43.788 315.058 44.324C315.058 44.868 314.938 45.348 314.698 45.764C314.458 46.18 314.118 46.504 313.678 46.736C313.238 46.968 312.718 47.084 312.118 47.084ZM316.517 47V42.656C316.517 42.376 316.509 42.096 316.493 41.816C316.485 41.528 316.461 41.244 316.421 40.964H317.453L317.561 42.2L317.441 42.26C317.585 41.796 317.833 41.44 318.185 41.192C318.545 40.936 318.969 40.808 319.457 40.808C320.041 40.808 320.493 40.952 320.813 41.24C321.141 41.528 321.349 41.968 321.437 42.56L321.149 42.38C321.285 41.9 321.545 41.52 321.929 41.24C322.313 40.952 322.773 40.808 323.309 40.808C323.981 40.808 324.485 41.008 324.821 41.408C325.157 41.808 325.325 42.412 325.325 43.22V47H324.233V43.268C324.233 42.732 324.137 42.34 323.945 42.092C323.761 41.836 323.461 41.708 323.045 41.708C322.557 41.708 322.173 41.876 321.893 42.212C321.613 42.54 321.473 42.992 321.473 43.568V47H320.381V43.268C320.381 42.732 320.285 42.34 320.093 42.092C319.901 41.836 319.597 41.708 319.181 41.708C318.685 41.708 318.297 41.876 318.017 42.212C317.745 42.54 317.609 42.992 317.609 43.568V47H316.517Z" fill="#969EAC"/>
<path opacity="0.1" d="M24 258H269" stroke="#969EAC"/>
<path opacity="0.1" d="M24 222H269" stroke="#969EAC"/>
<path opacity="0.1" d="M24 186H269" stroke="#969EAC"/>
<path opacity="0.1" d="M24 150H269" stroke="#969EAC"/>
<path opacity="0.1" d="M24 114H269" stroke="#969EAC"/>
<path opacity="0.1" d="M24 78H269" stroke="#969EAC"/>
<path opacity="0.1" d="M24 42H269" stroke="#969EAC"/>
<path d="M264 134C264 132.895 264.895 132 266 132H268C269.105 132 270 132.895 270 134V294H264V134Z" fill="#235EE7"/>
<path d="M204 113C204 111.895 204.895 111 206 111H208C209.105 111 210 111.895 210 113V294H204V113Z" fill="#235EE7"/>
<path d="M144 243C144 241.895 144.895 241 146 241H148C149.105 241 150 241.895 150 243V294H144V243Z" fill="#235EE7"/>
<path d="M84 44C84 42.8954 84.8954 42 86 42H88C89.1046 42 90 42.8954 90 44V294H84V44Z" fill="#235EE7"/>
<path d="M24 134C24 132.895 24.8954 132 26 132H28C29.1046 132 30 132.895 30 134V294H24V134Z" fill="#235EE7"/>
<circle cx="177" cy="294" r="4" fill="#FAFBFD"/>
<circle cx="177" cy="294" r="3" stroke="#969EAC" stroke-opacity="0.3" stroke-width="2"/>
<defs>
<filter id="filter0_di" x="0" y="0" width="351" height="472" filterUnits="userSpaceOnUse" color-interpolation-filters="sRGB">
<feFlood flood-opacity="0" result="BackgroundImageFix"/>
<feColorMatrix in="SourceAlpha" type="matrix" values="0 0 0 0 0 0 0 0 0 0 0 0 0 0 0 0 0 0 127 0"/>
<feOffset dy="2"/>
<feGaussianBlur stdDeviation="4"/>
<feColorMatrix type="matrix" values="0 0 0 0 0.888 0 0 0 0 0.911467 0 0 0 0 0.952 0 0 0 1 0"/>
<feBlend mode="normal" in2="BackgroundImageFix" result="effect1_dropShadow"/>
<feBlend mode="normal" in="SourceGraphic" in2="effect1_dropShadow" result="shape"/>
<feColorMatrix in="SourceAlpha" type="matrix" values="0 0 0 0 0 0 0 0 0 0 0 0 0 0 0 0 0 0 127 0" result="hardAlpha"/>
<feOffset dy="-1"/>
<feComposite in2="hardAlpha" operator="arithmetic" k2="-1" k3="1"/>
<feColorMatrix type="matrix" values="0 0 0 0 0.921569 0 0 0 0 0.92549 0 0 0 0 0.945098 0 0 0 1 0"/>
<feBlend mode="normal" in2="shape" result="effect2_innerShadow"/>
</filter>
<linearGradient id="paint0_linear" x1="177" y1="133.5" x2="270" y2="133.5" gradientUnits="userSpaceOnUse">
<stop stop-color="#534CEA"/>
<stop offset="1" stop-color="#534CEA" stop-opacity="0"/>
</linearGradient>
</defs>
</svg>
