<svg width="100" height="18" viewBox="0 0 100 18" fill="none" xmlns="http://www.w3.org/2000/svg">
<path d="M88.0602 0.00781252C87.886 0.00776675 87.7189 0.0746464 87.5957 0.193753C87.4724 0.31286 87.4031 0.474448 87.4029 0.643004V5.09417H99.5551L94.021 0.00919113L88.0602 0.00781252ZM100 6.44072C100 6.35731 99.9834 6.2747 99.9504 6.19764C99.9174 6.12058 99.869 6.05058 99.808 5.99166C99.747 5.93275 99.6745 5.88607 99.5948 5.8543C99.5151 5.82254 99.4297 5.80631 99.3435 5.80656H94.7444V17.5664L99.9981 12.2095L100 6.44072ZM93.3508 17.9932C93.5247 17.9928 93.6912 17.9256 93.814 17.8065C93.9368 17.6874 94.0057 17.526 94.0057 17.3577V12.9071H81.8541L87.3872 17.992L93.3508 17.9932ZM81.4102 11.561C81.4101 11.6445 81.4271 11.7271 81.4601 11.8042C81.493 11.8813 81.5414 11.9513 81.6023 12.0103C81.6633 12.0694 81.7356 12.1162 81.8153 12.1481C81.8949 12.1801 81.9803 12.1965 82.0665 12.1966H86.6661V0.435869L81.4109 5.7914L81.4102 11.561Z" fill="#0659A5"/>
<path d="M25.7095 2.1528V7.58347H17.8905V2.1528L15.0437 2.15177V15.8449H17.8905V9.96225H25.7095V15.8449H28.5615V2.1528H25.7095ZM63.5928 2.1528V15.8425L76.0869 15.8418L74.5037 13.4327H66.4496V9.96225H74.2485V7.64068H66.4496V4.50642H74.4905L76.0417 2.1528H63.5928ZM4.4594 2.15108C1.4965 2.15108 0 3.8926 0 6.42871V11.5408C0 14.4748 1.92743 15.8453 4.44409 15.8453L13.3768 15.8435L11.722 13.3412H4.99539C3.56709 13.3412 2.94492 12.8416 2.94492 11.2938V6.65653C2.94492 5.16006 3.46827 4.57622 5.0335 4.57622H11.7921L13.3819 2.15125L4.4594 2.15108ZM51.0966 2.14712C49.3848 2.14712 47.633 3.14161 47.633 5.70133V6.35892C47.633 9.02566 49.3204 10.0448 51.0072 10.0522H56.9325C57.5477 10.0522 58.0479 10.1508 58.0479 11.1578L58.0472 12.3217C58.0319 13.224 57.5645 13.4327 56.9113 13.4327H49.117L47.5202 15.8417H57.0936C59.4036 15.8417 60.9707 14.7307 60.9707 12.162V11.2183C60.9707 8.73546 59.5149 7.56382 57.2564 7.56382H51.5991C50.9714 7.56382 50.535 7.39718 50.535 6.49816L50.5343 5.55175C50.5343 4.78611 50.8348 4.50642 51.5655 4.50642L58.9879 4.50367L60.5398 2.14453L51.0966 2.14712ZM36.8361 2.15487L30.1266 15.8435H33.2982L34.6048 13.0165H41.8952L43.1978 15.8435H46.382L39.6572 2.1547L36.8361 2.15487ZM38.2421 4.99617L40.8204 10.6865H35.68L38.2421 4.99617Z" fill="#010101"/>
</svg>
