<svg width="48" height="48" viewBox="0 0 48 48" fill="none" xmlns="http://www.w3.org/2000/svg">
<rect x="0.5" y="0.5" width="47" height="47" rx="3.5" stroke="#534CEA"/>
<path fill-rule="evenodd" clip-rule="evenodd" d="M22.546 14.6378C22.9171 15.0498 23.4455 15.285 24 15.285C24.5545 15.285 25.0829 15.0498 25.454 14.6378L26.4 13.5998C26.9556 12.985 27.8379 12.7862 28.6035 13.1034C29.369 13.4206 29.8521 14.1852 29.81 15.0128L29.739 16.4128C29.7112 16.9651 29.9183 17.5034 30.309 17.8947C30.6997 18.286 31.2377 18.4938 31.79 18.4668L33.19 18.3958C34.017 18.355 34.7804 18.8387 35.0968 19.6039C35.4132 20.3691 35.2143 21.2506 34.6 21.8058L33.558 22.7458C33.1466 23.1174 32.9118 23.6459 32.9118 24.2003C32.9118 24.7547 33.1466 25.2832 33.558 25.6548L34.6 26.5948C35.2149 27.1504 35.4136 28.0327 35.0964 28.7983C34.7792 29.5638 34.0146 30.047 33.187 30.0048L31.787 29.9338C31.2335 29.9054 30.6938 30.1128 30.3019 30.5047C29.91 30.8966 29.7025 31.4363 29.731 31.9898L29.802 33.3898C29.8387 34.2131 29.3563 34.9712 28.595 35.2867C27.8337 35.6022 26.9564 35.4076 26.4 34.7998L25.459 33.7588C25.0876 33.3475 24.5593 33.1127 24.005 33.1127C23.4507 33.1127 22.9224 33.3475 22.551 33.7588L21.606 34.7998C21.0504 35.4105 20.1715 35.6073 19.4085 35.2919C18.6455 34.9765 18.1622 34.2166 18.2 33.3918L18.272 31.9918C18.3005 31.4383 18.093 30.8986 17.7011 30.5067C17.3092 30.1148 16.7695 29.9074 16.216 29.9358L14.816 30.0068C13.9887 30.05 13.2238 29.5679 12.9059 28.8029C12.588 28.038 12.7858 27.1557 13.4 26.5998L14.441 25.6598C14.8524 25.2882 15.0872 24.7597 15.0872 24.2053C15.0872 23.6509 14.8524 23.1224 14.441 22.7508L13.4 21.8058C12.7879 21.2506 12.5903 20.3708 12.9062 19.6071C13.2221 18.8435 13.9835 18.3604 14.809 18.3998L16.209 18.4708C16.7636 18.5 17.3045 18.2923 17.697 17.8994C18.0895 17.5065 18.2967 16.9654 18.267 16.4108L18.2 15.0098C18.1613 14.1847 18.6443 13.4239 19.4075 13.108C20.1708 12.792 21.0502 12.9888 21.606 13.5998L22.546 14.6378Z" stroke="#534CEA" stroke-width="1.5" stroke-linecap="round" stroke-linejoin="round"/>
<path fill-rule="evenodd" clip-rule="evenodd" d="M24 28.7008C26.4853 28.7008 28.5 26.6861 28.5 24.2008C28.5 21.7155 26.4853 19.7008 24 19.7008C21.5147 19.7008 19.5 21.7155 19.5 24.2008C19.5 26.6861 21.5147 28.7008 24 28.7008Z" stroke="#534CEA" stroke-width="1.5" stroke-linecap="round" stroke-linejoin="round"/>
</svg>
