<svg width="36" height="36" viewBox="0 0 36 36" fill="none" xmlns="http://www.w3.org/2000/svg">
<rect width="36" height="36" fill="#534CEA"/>
<path d="M25.3739 27.4677C23.4225 25.5041 20.7684 24.3998 18 24.3998C15.2316 24.3998 12.5775 25.5041 10.6261 27.4677M18 21.2C21.0928 21.2 23.6 18.6928 23.6 15.6C23.6 12.5072 21.0928 10 18 10C14.9072 10 12.4 12.5072 12.4 15.6C12.4 18.6928 14.9072 21.2 18 21.2ZM18 30C24.6274 30 30 24.6274 30 18C30 11.3726 24.6274 6 18 6C11.3726 6 6 11.3726 6 18C6 24.6274 11.3726 30 18 30Z" stroke="white" stroke-width="1.5" stroke-linecap="round" stroke-linejoin="round"/>
</svg>
