<svg width="162" height="49" viewBox="0 0 162 49" fill="none"
    xmlns="http://www.w3.org/2000/svg">
    <path d="M156.322 48.0067H5.67832C2.54098 48.0067 0 45.4664 0 42.3299V5.67682C0 2.54031 2.54098 0 5.67832 0H156.322C159.46 0 162.001 2.54031 162.001 5.67682V42.3299C162.001 45.4664 159.46 48.0067 156.322 48.0067Z" fill="#969EAC"/>
    <path d="M160.938 42.3306C160.938 44.8709 158.89 46.9187 156.349 46.9187H5.70461C3.16363 46.9187 1.08936 44.8709 1.08936 42.3306V5.67751C1.08936 3.1372 3.16363 1.06348 5.70461 1.06348H156.349C158.89 1.06348 160.964 3.11128 160.964 5.67751L160.938 42.3306Z" fill="black"/>
    <path d="M64.4335 37.8188H61.711L60.2072 33.127H55.0215L53.5954 37.8188H50.9507L56.0845 21.8512H59.2737L64.4335 37.8188ZM59.7664 31.157L58.4181 26.9836C58.2625 26.5689 58.0032 25.5579 57.6143 23.9767H57.5625C57.4069 24.6507 57.1476 25.6616 56.8105 26.9836L55.4882 31.157H59.7664ZM77.6311 31.9087C77.6311 33.8788 77.0866 35.4081 76.0236 36.5487C75.0642 37.5596 73.8974 38.078 72.4713 38.078C70.9416 38.078 69.8526 37.5337 69.1784 36.445V42.4847H66.6374V30.0683C66.6374 28.85 66.6115 27.5798 66.5337 26.2837H68.7895L68.9451 28.0983H68.9969C69.8526 26.7244 71.149 26.0245 72.8862 26.0245C74.2345 26.0245 75.3753 26.5689 76.2828 27.6317C77.1903 28.7463 77.6311 30.172 77.6311 31.9087ZM75.0383 32.0124C75.0383 30.8978 74.779 29.9646 74.2863 29.2388C73.7418 28.4871 72.9899 28.0983 72.0565 28.0983C71.4342 28.0983 70.8638 28.3056 70.3452 28.7204C69.8266 29.1351 69.4896 29.6795 69.334 30.3793C69.2562 30.6386 69.2303 30.8978 69.2043 31.157V33.0752C69.2043 33.9047 69.4636 34.6305 69.9822 35.2008C70.5008 35.771 71.1749 36.0562 71.9787 36.0562C72.9381 36.0562 73.69 35.6933 74.2345 34.9415C74.779 34.2157 75.0383 33.2307 75.0383 32.0124ZM90.9065 31.9087C90.9065 33.8788 90.362 35.4081 89.2989 36.5487C88.3396 37.5596 87.1728 38.078 85.7467 38.078C84.217 38.078 83.128 37.5337 82.4538 36.445V42.4847H79.8869V30.0683C79.8869 28.85 79.861 27.5798 79.7832 26.2837H82.039L82.1945 28.0983H82.2464C83.102 26.7244 84.3985 26.0245 86.1357 26.0245C87.4839 26.0245 88.6248 26.5689 89.5323 27.6317C90.4398 28.7463 90.9065 30.172 90.9065 31.9087ZM88.2877 32.0124C88.2877 30.8978 88.0284 29.9646 87.5358 29.2388C86.9913 28.4871 86.2394 28.0983 85.306 28.0983C84.6837 28.0983 84.1132 28.3056 83.5947 28.7204C83.0761 29.1351 82.739 29.6795 82.5835 30.3793C82.5057 30.6904 82.4538 30.9496 82.4538 31.157V33.0752C82.4538 33.9047 82.7131 34.6305 83.2317 35.2008C83.7502 35.771 84.4244 36.0562 85.2282 36.0562C86.1875 36.0562 86.9394 35.6933 87.4839 34.9415C88.0284 34.2157 88.2877 33.2307 88.2877 32.0124ZM105.712 33.3344C105.712 34.6823 105.245 35.797 104.286 36.6524C103.248 37.5855 101.796 38.0521 99.9296 38.0521C98.2183 38.0521 96.8441 37.7151 95.7811 37.0671L96.3774 34.9415C97.4924 35.6155 98.7369 35.9266 100.085 35.9266C101.045 35.9266 101.796 35.7192 102.341 35.2785C102.885 34.8379 103.145 34.2676 103.145 33.5418C103.145 32.8937 102.911 32.3494 102.471 31.9087C102.03 31.4681 101.304 31.0533 100.267 30.6645C97.4664 29.6276 96.0663 28.0983 96.0663 26.0764C96.0663 24.7544 96.5589 23.6916 97.5442 22.8621C98.5295 22.0326 99.8518 21.6179 101.459 21.6179C102.911 21.6179 104.13 21.8771 105.089 22.3696L104.441 24.4433C103.534 23.9508 102.522 23.7175 101.382 23.7175C100.474 23.7175 99.7741 23.9508 99.2555 24.3915C98.8406 24.7803 98.6073 25.2728 98.6073 25.8431C98.6073 26.4652 98.8406 27.0095 99.3333 27.3984C99.7481 27.7872 100.526 28.176 101.667 28.6426C103.041 29.187 104.052 29.835 104.7 30.5867C105.401 31.3125 105.712 32.2198 105.712 33.3344ZM114.19 28.2279H111.364V33.8269C111.364 35.2526 111.857 35.9525 112.868 35.9525C113.335 35.9525 113.698 35.9266 114.009 35.8229L114.087 37.767C113.594 37.9484 112.92 38.0521 112.09 38.0521C111.079 38.0521 110.301 37.7411 109.731 37.119C109.16 36.4968 108.875 35.46 108.875 34.0084V28.2019H107.19V26.2837H108.875V24.1841L111.39 23.4324V26.3097H114.216L114.19 28.2279ZM126.895 31.9606C126.895 33.7232 126.377 35.1748 125.365 36.3154C124.302 37.4819 122.902 38.078 121.139 38.078C119.454 38.078 118.106 37.5078 117.094 36.3931C116.083 35.2785 115.59 33.8528 115.59 32.142C115.59 30.3534 116.109 28.9018 117.146 27.7613C118.183 26.6207 119.583 26.0504 121.321 26.0504C123.006 26.0504 124.38 26.6207 125.391 27.7353C126.403 28.8241 126.895 30.2497 126.895 31.9606ZM124.251 32.0124C124.251 30.9496 124.017 30.0424 123.576 29.2906C123.032 28.3834 122.28 27.9168 121.269 27.9168C120.232 27.9168 119.454 28.3834 118.909 29.2906C118.443 30.0424 118.235 30.9755 118.235 32.0642C118.235 33.127 118.469 34.0343 118.909 34.786C119.454 35.6933 120.232 36.1599 121.243 36.1599C122.228 36.1599 122.98 35.6933 123.55 34.7601C124.017 33.9824 124.251 33.0752 124.251 32.0124ZM135.218 28.5389C134.959 28.4871 134.674 28.4612 134.415 28.4612C133.507 28.4612 132.807 28.7981 132.34 29.4721C131.925 30.0683 131.692 30.82 131.692 31.7532V37.7929H129.125V29.9128C129.125 28.6944 129.099 27.5021 129.047 26.2837H131.277L131.381 28.4871H131.459C131.718 27.7354 132.159 27.1132 132.729 26.6726C133.274 26.2837 133.922 26.0504 134.57 26.0504C134.803 26.0504 135.011 26.0764 135.218 26.1023V28.5389ZM146.679 31.5199C146.679 31.9087 146.653 32.2975 146.575 32.6864H138.9C138.926 33.8269 139.289 34.7082 140.015 35.3044C140.663 35.8488 141.493 36.108 142.53 36.108C143.671 36.108 144.708 35.9266 145.642 35.5637L146.031 37.3263C144.942 37.7929 143.645 38.0262 142.167 38.0262C140.378 38.0262 138.978 37.5078 137.967 36.445C136.956 35.3822 136.437 33.9824 136.437 32.2198C136.437 30.483 136.904 29.0314 137.863 27.8909C138.848 26.6466 140.197 26.0504 141.882 26.0504C143.541 26.0504 144.812 26.6726 145.642 27.8909C146.342 28.8759 146.679 30.0683 146.679 31.5199ZM144.241 30.8459C144.267 30.0942 144.086 29.4203 143.749 28.8759C143.308 28.1501 142.634 27.8131 141.7 27.8131C140.871 27.8131 140.171 28.1501 139.652 28.85C139.237 29.3943 138.978 30.0683 138.9 30.8459H144.241ZM54.2955 16.2003C53.5954 16.2003 52.9731 16.1743 52.4545 16.0966V8.37195C53.1805 8.26826 53.9065 8.21642 54.6325 8.21642C57.5625 8.21642 58.9107 9.66803 58.9107 12.0269C58.9107 14.7227 57.3032 16.2003 54.2955 16.2003ZM54.7103 9.20144C54.3214 9.20144 53.9843 9.22736 53.6991 9.2792V15.1375C53.8547 15.1634 54.1399 15.1634 54.5547 15.1634C56.4735 15.1634 57.5625 14.0747 57.5625 12.0269C57.5625 10.2124 56.5772 9.20144 54.7103 9.20144ZM63.1111 16.2521C61.4517 16.2521 60.3887 15.0079 60.3887 13.3489C60.3887 11.6121 61.4777 10.3679 63.2149 10.3679C64.8484 10.3679 65.9374 11.5344 65.9374 13.2711C65.9374 15.0079 64.7965 16.2521 63.1111 16.2521ZM63.163 11.2752C62.2555 11.2752 61.6592 12.1306 61.6592 13.323C61.6592 14.4894 62.2555 15.3448 63.1371 15.3448C64.0186 15.3448 64.615 14.4376 64.615 13.297C64.6409 12.1306 64.0446 11.2752 63.163 11.2752ZM75.3753 10.4716L73.6122 16.1225H72.4454L71.7194 13.6599C71.5379 13.0637 71.3823 12.4416 71.2527 11.8195H71.2268C71.1231 12.4416 70.9675 13.0637 70.7601 13.6599L69.9822 16.1225H68.8154L67.156 10.4716H68.4524L69.1006 13.1674C69.2562 13.8155 69.3858 14.4117 69.4896 14.9819H69.5155C69.6192 14.5154 69.7488 13.9192 69.9822 13.1674L70.786 10.4716H71.8231L72.601 13.1156C72.7825 13.7636 72.9381 14.3857 73.0677 14.9819H73.0936C73.1714 14.4117 73.3011 13.7896 73.4826 13.1156L74.1826 10.4716H75.3753ZM81.8834 16.1225H80.6388V12.8823C80.6388 11.8714 80.2499 11.3788 79.498 11.3788C78.746 11.3788 78.2275 12.0269 78.2275 12.7527V16.1225H76.957V12.0787C76.957 11.5862 76.957 11.0419 76.9051 10.4716H78.02L78.0719 11.3529H78.0978C78.4349 10.7567 79.135 10.3679 79.8869 10.3679C81.0796 10.3679 81.8575 11.2752 81.8575 12.7527L81.8834 16.1225ZM85.3578 16.1225H84.0873V7.85352H85.3578V16.1225ZM89.9472 16.2521C88.2877 16.2521 87.2247 15.0079 87.2247 13.3489C87.2247 11.6121 88.3137 10.3679 90.0509 10.3679C91.6844 10.3679 92.7734 11.5344 92.7734 13.2711C92.7734 15.0079 91.6325 16.2521 89.9472 16.2521ZM89.999 11.2752C89.0915 11.2752 88.4952 12.1306 88.4952 13.323C88.4952 14.4894 89.0915 15.3448 89.9731 15.3448C90.8546 15.3448 91.451 14.4376 91.451 13.297C91.451 12.1306 90.8806 11.2752 89.999 11.2752ZM97.7257 16.1225L97.622 15.4745H97.5961C97.2071 15.9929 96.6626 16.2521 95.9366 16.2521C94.9254 16.2521 94.1994 15.5522 94.1994 14.5931C94.1994 13.1934 95.4181 12.4676 97.5183 12.4676V12.3639C97.5183 11.6121 97.1293 11.2492 96.3515 11.2492C95.7811 11.2492 95.3144 11.3788 94.8736 11.664L94.6143 10.8345C95.1329 10.4975 95.7811 10.342 96.5589 10.342C98.0368 10.342 98.7888 11.1196 98.7888 12.6749V14.7487C98.7888 15.3189 98.8147 15.7596 98.8666 16.0966L97.7257 16.1225ZM97.5442 13.297C96.1441 13.297 95.444 13.634 95.444 14.4376C95.444 15.0338 95.807 15.3189 96.2996 15.3189C96.9478 15.3189 97.5442 14.8264 97.5442 14.1784V13.297ZM104.882 16.1225L104.83 15.2152H104.804C104.441 15.8892 103.845 16.2521 102.989 16.2521C101.615 16.2521 100.604 15.0597 100.604 13.3748C100.604 11.6121 101.641 10.3679 103.093 10.3679C103.845 10.3679 104.389 10.6271 104.7 11.1456H104.726V7.85352H105.997V14.5931C105.997 15.1375 106.023 15.6559 106.049 16.1225H104.882ZM104.7 12.8045C104.7 12.001 104.182 11.327 103.378 11.327C102.445 11.327 101.874 12.1565 101.874 13.323C101.874 14.4635 102.471 15.2412 103.352 15.2412C104.156 15.2412 104.7 14.5413 104.7 13.7377V12.8045ZM113.957 16.2521C112.298 16.2521 111.234 15.0079 111.234 13.3489C111.234 11.6121 112.323 10.3679 114.061 10.3679C115.694 10.3679 116.783 11.5344 116.783 13.2711C116.783 15.0079 115.642 16.2521 113.957 16.2521ZM114.009 11.2752C113.101 11.2752 112.531 12.1306 112.531 13.323C112.531 14.4894 113.127 15.3448 114.009 15.3448C114.89 15.3448 115.487 14.4376 115.487 13.297C115.461 12.1306 114.89 11.2752 114.009 11.2752ZM123.55 16.1225H122.28V12.8823C122.28 11.8714 121.891 11.3788 121.139 11.3788C120.387 11.3788 119.895 12.0269 119.895 12.7527V16.1225H118.624V12.0787C118.624 11.5862 118.624 11.0419 118.572 10.4716H119.687L119.739 11.3529H119.765C120.102 10.7567 120.802 10.3679 121.554 10.3679C122.747 10.3679 123.525 11.2752 123.525 12.7527V16.1225H123.55ZM132.003 11.4048H130.629V14.1525C130.629 14.8523 130.862 15.1893 131.355 15.1893C131.588 15.1893 131.77 15.1634 131.925 15.1375L131.951 16.0966C131.718 16.2003 131.381 16.2262 130.966 16.2262C129.981 16.2262 129.384 15.6818 129.384 14.2561V11.4048H128.555V10.4716H129.384V9.43473L130.629 9.07183V10.4716H132.003V11.4048ZM138.667 16.1225H137.422V12.9082C137.422 11.8973 137.033 11.3788 136.281 11.3788C135.633 11.3788 135.011 11.8195 135.011 12.7268V16.1484H133.766V7.85352H135.011V11.2492H135.037C135.426 10.6271 135.996 10.3161 136.748 10.3161C137.941 10.3161 138.667 11.2492 138.667 12.7268V16.1225ZM145.486 13.6081H141.7C141.726 14.6709 142.426 15.293 143.49 15.293C144.06 15.293 144.553 15.1893 145.019 15.0338L145.227 15.9151C144.682 16.1484 144.06 16.2521 143.334 16.2521C141.571 16.2521 140.508 15.1375 140.508 13.4007C140.508 11.664 141.571 10.3679 143.178 10.3679C144.63 10.3679 145.538 11.4307 145.538 13.0637C145.538 13.2193 145.538 13.4007 145.486 13.6081ZM144.345 12.7008C144.345 11.8195 143.904 11.1974 143.101 11.1974C142.375 11.1974 141.804 11.8195 141.726 12.7008H144.345Z" fill="white"/>
    <path d="M36.1689 23.7446C36.143 19.8823 39.3322 17.99 39.4877 17.9122C37.6727 15.2682 34.8725 14.9053 33.8612 14.8794C31.5018 14.6202 29.22 16.3051 28.0014 16.3051C26.7828 16.3051 24.9159 14.9053 22.9194 14.9572C20.3525 15.009 17.9412 16.4865 16.6188 18.7936C13.8963 23.5113 15.9187 30.4324 18.5375 34.2169C19.8339 36.0833 21.3637 38.157 23.3602 38.0792C25.3048 38.0015 26.0308 36.835 28.3903 36.835C30.7239 36.835 31.398 38.0792 33.4464 38.0274C35.5466 38.0015 36.8689 36.161 38.1135 34.2687C39.6174 32.1432 40.2137 30.0176 40.2396 29.9139C40.2396 29.9139 36.2207 28.3845 36.1689 23.7446ZM32.3315 12.365C33.3686 11.043 34.0946 9.28033 33.8872 7.46582C32.3574 7.54359 30.4646 8.52861 29.3756 9.79876C28.4163 10.9393 27.5347 12.7797 27.7681 14.5165C29.4793 14.6461 31.2425 13.6611 32.3315 12.365Z" fill="white"/>
</svg>
