<svg width="53" height="21" viewBox="0 0 53 21" fill="none" xmlns="http://www.w3.org/2000/svg">
<rect opacity="0.2" width="53" height="20.2237" rx="4.18421" fill="#534CEA"/>
<path d="M13.5946 15.0923V6.15481H17.3353C18.2474 6.15481 18.9629 6.35984 19.4818 6.76989C20.0006 7.17994 20.2601 7.75318 20.2601 8.4896C20.2601 9.00007 20.1178 9.43523 19.8333 9.79507C19.5571 10.1465 19.1722 10.3976 18.6784 10.5482V10.4478C19.2475 10.565 19.691 10.816 20.009 11.201C20.327 11.5859 20.486 12.0713 20.486 12.6571C20.486 13.4353 20.2182 14.0379 19.6826 14.4647C19.1554 14.8831 18.4148 15.0923 17.4608 15.0923H13.5946ZM14.875 14.0504H17.3353C17.988 14.0504 18.465 13.9333 18.7663 13.6989C19.0759 13.4646 19.2307 13.0922 19.2307 12.5818C19.2307 12.0797 19.0759 11.7031 18.7663 11.452C18.4567 11.201 17.9797 11.0754 17.3353 11.0754H14.875V14.0504ZM14.875 10.0336H17.1219C17.7579 10.0336 18.2307 9.91223 18.5403 9.66955C18.85 9.42686 19.0048 9.06702 19.0048 8.59002C19.0048 8.12139 18.85 7.7741 18.5403 7.54815C18.2307 7.31384 17.7579 7.19668 17.1219 7.19668H14.875V10.0336ZM27.3594 14.3642C27.0749 14.6153 26.7151 14.8161 26.2799 14.9668C25.8448 15.109 25.4012 15.1802 24.9493 15.1802C24.2799 15.1802 23.7024 15.0504 23.2171 14.791C22.7317 14.5316 22.3593 14.155 22.0999 13.6613C21.8405 13.1675 21.7108 12.5818 21.7108 11.9039C21.7108 11.2512 21.8363 10.6779 22.0873 10.1842C22.3468 9.69047 22.7024 9.30552 23.1543 9.02936C23.6062 8.75321 24.1292 8.61513 24.7234 8.61513C25.2924 8.61513 25.782 8.74065 26.1921 8.99171C26.6021 9.24276 26.9159 9.6026 27.1335 10.0712C27.3594 10.5315 27.4724 11.088 27.4724 11.7407V11.9541H22.8154L22.8279 11.201H26.7318L26.3678 11.6529C26.3762 10.975 26.2423 10.4562 25.9661 10.0963C25.6899 9.7365 25.2841 9.55657 24.7485 9.55657C24.1878 9.55657 23.7485 9.75742 23.4305 10.1591C23.1125 10.5524 22.9535 11.1047 22.9535 11.816C22.9535 12.611 23.125 13.2052 23.4681 13.5985C23.8112 13.9835 24.3133 14.1759 24.9744 14.1759C25.3343 14.1759 25.6816 14.1174 26.0163 14.0002C26.3511 13.883 26.6691 13.7031 26.9703 13.4604L27.3594 14.3642ZM28.0124 9.74486V8.76576H32.2552V9.74486H28.0124ZM32.2426 14.0128V15.0421C32.092 15.0923 31.9414 15.1258 31.7907 15.1425C31.6401 15.1676 31.4769 15.1802 31.3012 15.1802C30.6568 15.1802 30.1505 15.0002 29.7823 14.6404C29.4225 14.2722 29.2425 13.7324 29.2425 13.0211V7.18413L30.5104 6.74478V12.9207C30.5104 13.2303 30.5564 13.473 30.6484 13.6487C30.7405 13.8161 30.866 13.9374 31.025 14.0128C31.1924 14.0797 31.3765 14.1132 31.5773 14.1132C31.6945 14.1132 31.8033 14.1048 31.9037 14.0881C32.0041 14.0713 32.1171 14.0462 32.2426 14.0128ZM35.8613 15.1802C35.3006 15.1802 34.8069 15.0504 34.3801 14.791C33.9617 14.5232 33.6353 14.1467 33.401 13.6613C33.175 13.1675 33.0621 12.5901 33.0621 11.929C33.0621 11.2679 33.1792 10.6905 33.4135 10.1968C33.6479 9.69465 33.9742 9.30552 34.3926 9.02936C34.8194 8.75321 35.309 8.61513 35.8613 8.61513C36.422 8.61513 36.899 8.75321 37.2923 9.02936C37.694 9.29715 37.966 9.6821 38.1082 10.1842L37.9576 10.2846V8.76576H39.2129V15.0923H37.9576V13.5483L38.1082 13.6111C37.966 14.1132 37.694 14.5023 37.2923 14.7785C36.899 15.0463 36.422 15.1802 35.8613 15.1802ZM36.1626 14.1759C36.7316 14.1759 37.171 13.9793 37.4806 13.586C37.7986 13.1927 37.9576 12.632 37.9576 11.9039C37.9576 11.1759 37.7986 10.6152 37.4806 10.2219C37.171 9.82855 36.7316 9.63189 36.1626 9.63189C35.5851 9.63189 35.1333 9.83692 34.8069 10.247C34.4889 10.6487 34.3299 11.2093 34.3299 11.929C34.3299 12.6487 34.4889 13.2052 34.8069 13.5985C35.1333 13.9835 35.5851 14.1759 36.1626 14.1759Z" fill="#534CEA"/>
</svg>
