<svg width="22" height="22" viewBox="0 0 22 22" fill="none" xmlns="http://www.w3.org/2000/svg">
<path fill-rule="evenodd" clip-rule="evenodd" d="M11.125 20.375H2.45833C1.9981 20.375 1.625 20.0019 1.625 19.5417V2.45833C1.625 1.9981 1.9981 1.625 2.45833 1.625H19.5417C20.0019 1.625 20.375 1.9981 20.375 2.45833V19.5417C20.375 20.0019 20.0019 20.375 19.5417 20.375H14.4583V13.2917H16.5917C16.8036 13.2932 16.9829 13.1354 17.0083 12.925L17.325 10.425C17.3394 10.3061 17.3019 10.1868 17.2222 10.0975C17.1424 10.0082 17.0281 9.95747 16.9083 9.95833H14.4583V9.075C14.4583 8.70149 14.6067 8.34327 14.8708 8.07916C15.1349 7.81504 15.4932 7.66667 15.8667 7.66667H17.375C17.6051 7.66667 17.7917 7.48012 17.7917 7.25V4.75C17.7917 4.51988 17.6051 4.33333 17.375 4.33333H15.8667C13.2479 4.33333 11.125 6.45625 11.125 9.075V9.95833H9.04167C8.81155 9.95833 8.625 10.1449 8.625 10.375V12.875C8.625 13.1051 8.81155 13.2917 9.04167 13.2917H11.125V20.375Z" stroke="white" stroke-width="1.5" stroke-linecap="round" stroke-linejoin="round"/>
</svg>
