<svg width="162" height="49" viewBox="0 0 162 49" fill="none"
    xmlns="http://www.w3.org/2000/svg">
    <path d="M155.945 48.6189H5.9979C2.63908 48.6189 0 45.9799 0 42.621V6.63364C0 3.27482 2.63908 0.635742 5.9979 0.635742H155.945C159.304 0.635742 161.943 3.27482 161.943 6.63364V42.621C161.943 45.9799 159.304 48.6189 155.945 48.6189Z" fill="black"/>
    <path d="M155.945 1.59541C158.704 1.59541 160.984 3.87461 160.984 6.63364V42.621C160.984 45.3801 158.704 47.6593 155.945 47.6593H5.9979C3.23887 47.6593 0.959664 45.3801 0.959664 42.621V6.63364C0.959664 3.87461 3.23887 1.59541 5.9979 1.59541H155.945ZM155.945 0.635742H5.9979C2.63908 0.635742 0 3.39478 0 6.63364V42.621C0 45.9799 2.63908 48.6189 5.9979 48.6189H155.945C159.304 48.6189 161.943 45.9799 161.943 42.621V6.63364C161.943 3.39478 159.304 0.635742 155.945 0.635742Z" fill="#969EAC"/>
    <path d="M81.6915 26.7874C78.8125 26.7874 76.5333 28.9467 76.5333 31.9456C76.5333 34.8246 78.8125 37.1038 81.6915 37.1038C84.5705 37.1038 86.8497 34.9446 86.8497 31.9456C86.8497 28.8267 84.5705 26.7874 81.6915 26.7874ZM81.6915 34.9446C80.132 34.9446 78.8125 33.625 78.8125 31.8257C78.8125 30.0263 80.132 28.7068 81.6915 28.7068C83.2509 28.7068 84.5705 29.9063 84.5705 31.8257C84.5705 33.625 83.2509 34.9446 81.6915 34.9446ZM70.5353 26.7874C67.6563 26.7874 65.3771 28.9467 65.3771 31.9456C65.3771 34.8246 67.6563 37.1038 70.5353 37.1038C73.4143 37.1038 75.6936 34.9446 75.6936 31.9456C75.6936 28.8267 73.4143 26.7874 70.5353 26.7874ZM70.5353 34.9446C68.9759 34.9446 67.6564 33.625 67.6564 31.8257C67.6564 30.0263 68.9759 28.7068 70.5353 28.7068C72.0948 28.7068 73.4143 29.9063 73.4143 31.8257C73.4143 33.625 72.0948 34.9446 70.5353 34.9446ZM57.22 28.3469V30.5061H62.3782C62.2582 31.7057 61.7784 32.6654 61.1786 33.2652C60.4589 33.9849 59.2593 34.8246 57.22 34.8246C53.9811 34.8246 51.5819 32.3055 51.5819 29.0666C51.5819 25.8278 54.1011 23.3087 57.22 23.3087C58.8994 23.3087 60.2189 24.0284 61.1786 24.8681L62.7381 23.3087C61.4185 22.1091 59.7391 21.1494 57.3399 21.1494C53.0214 21.1494 49.3027 24.7482 49.3027 29.0666C49.3027 33.3851 53.0214 36.9839 57.3399 36.9839C59.7391 36.9839 61.4185 36.2641 62.858 34.7047C64.2975 33.2652 64.7774 31.2259 64.7774 29.6664C64.7774 29.1866 64.7774 28.7068 64.6574 28.3469H57.22ZM111.681 30.0263C111.201 28.8267 110.002 26.7874 107.363 26.7874C104.723 26.7874 102.564 28.8267 102.564 31.9456C102.564 34.8246 104.723 37.1038 107.602 37.1038C109.882 37.1038 111.321 35.6643 111.801 34.8246L110.122 33.625C109.522 34.4648 108.802 35.0645 107.602 35.0645C106.403 35.0645 105.683 34.5847 105.083 33.5051L111.921 30.6261L111.681 30.0263ZM104.723 31.7057C104.723 29.7864 106.283 28.7068 107.363 28.7068C108.202 28.7068 109.042 29.1866 109.282 29.7864L104.723 31.7057ZM99.0854 36.624H101.365V21.6292H99.0854V36.624ZM95.4867 27.8671C94.8869 27.2673 93.9272 26.6675 92.7276 26.6675C90.2085 26.6675 87.8093 28.9467 87.8093 31.8257C87.8093 34.7047 90.0885 36.8639 92.7276 36.8639C93.9272 36.8639 94.8869 36.2641 95.3667 35.6643H95.4867V36.3841C95.4867 38.3034 94.407 39.383 92.7276 39.383C91.4081 39.383 90.4484 38.4234 90.2085 37.5837L88.2892 38.4234C88.889 39.7429 90.3285 41.4223 92.8476 41.4223C95.4867 41.4223 97.6459 39.8629 97.6459 36.1442V27.0274H95.4867V27.8671ZM92.8476 34.9446C91.2881 34.9446 89.9686 33.625 89.9686 31.8257C89.9686 30.0263 91.2881 28.7068 92.8476 28.7068C94.407 28.7068 95.6066 30.0263 95.6066 31.8257C95.6066 33.625 94.407 34.9446 92.8476 34.9446ZM122.117 21.6292H116.719V36.624H118.998V30.986H122.117C124.637 30.986 127.036 29.1866 127.036 26.3076C127.036 23.4286 124.637 21.6292 122.117 21.6292ZM122.237 28.8267H118.998V23.6685H122.237C123.917 23.6685 124.876 25.108 124.876 26.1876C124.756 27.5072 123.797 28.8267 122.237 28.8267ZM136.033 26.6675C134.353 26.6675 132.674 27.3872 132.074 28.9467L134.113 29.7864C134.593 28.9467 135.313 28.7068 136.153 28.7068C137.352 28.7068 138.432 29.4265 138.552 30.6261V30.7461C138.192 30.5061 137.232 30.1463 136.272 30.1463C134.113 30.1463 131.954 31.3458 131.954 33.5051C131.954 35.5444 133.753 36.8639 135.673 36.8639C137.232 36.8639 137.952 36.1442 138.552 35.4244H138.672V36.624H140.831V30.866C140.591 28.2269 138.552 26.6675 136.033 26.6675ZM135.793 34.9446C135.073 34.9446 133.993 34.5847 133.993 33.625C133.993 32.4255 135.313 32.0656 136.392 32.0656C137.352 32.0656 137.832 32.3055 138.432 32.5454C138.192 33.9849 136.992 34.9446 135.793 34.9446ZM148.388 27.0274L145.869 33.5051H145.749L143.11 27.0274H140.711L144.67 36.1442L142.39 41.1824H144.67L150.787 27.0274H148.388ZM128.235 36.624H130.514V21.6292H128.235V36.624Z" fill="white"/>
    <path d="M56.8615 12.8717C56.8615 13.8313 56.6216 14.6711 56.0218 15.2708C55.3021 15.9906 54.4624 16.3505 53.3828 16.3505C52.3031 16.3505 51.4634 15.9906 50.7437 15.2708C50.0239 14.5511 49.6641 13.7114 49.6641 12.6318C49.6641 11.5522 50.0239 10.7125 50.7437 9.9927C51.4634 9.27296 52.3031 8.91309 53.3828 8.91309C53.8626 8.91309 54.3424 9.03304 54.8223 9.27296C55.3021 9.51287 55.662 9.75279 55.9019 10.1127L55.3021 10.7124C54.8223 10.1127 54.2225 9.87275 53.3828 9.87275C52.663 9.87275 51.9433 10.1127 51.4634 10.7124C50.8636 11.1923 50.6237 11.912 50.6237 12.7517C50.6237 13.5914 50.8636 14.3112 51.4634 14.791C52.0632 15.2708 52.663 15.6307 53.3828 15.6307C54.2225 15.6307 54.8223 15.3908 55.422 14.791C55.7819 14.4311 56.0218 13.9513 56.0218 13.3515H53.3828V12.3919H56.8615V12.8717ZM62.3796 9.87275H59.1407V12.1519H62.1397V12.9916H59.1407V15.2708H62.3796V16.2305H58.1811V9.03304H62.3796V9.87275ZM66.3382 16.2305H65.3786V9.87275H63.3393V9.03304H68.3775V9.87275H66.3382V16.2305ZM71.8563 16.2305V9.03304H72.816V16.2305H71.8563ZM76.8945 16.2305H75.9349V9.87275H73.8956V9.03304H78.8139V9.87275H76.7746V16.2305H76.8945ZM88.2905 15.2708C87.5708 15.9906 86.7311 16.3505 85.6515 16.3505C84.5718 16.3505 83.7321 15.9906 83.0124 15.2708C82.2926 14.5511 81.9328 13.7114 81.9328 12.6318C81.9328 11.5522 82.2926 10.7125 83.0124 9.9927C83.7321 9.27296 84.5718 8.91309 85.6515 8.91309C86.7311 8.91309 87.5708 9.27296 88.2905 9.9927C89.0103 10.7125 89.3702 11.5522 89.3702 12.6318C89.3702 13.7114 89.0103 14.5511 88.2905 15.2708ZM83.7321 14.6711C84.212 15.1509 84.9317 15.5108 85.6515 15.5108C86.3712 15.5108 87.091 15.2708 87.5708 14.6711C88.0506 14.1912 88.4105 13.4715 88.4105 12.6318C88.4105 11.7921 88.1706 11.0723 87.5708 10.5925C87.091 10.1127 86.3712 9.75279 85.6515 9.75279C84.9317 9.75279 84.212 9.9927 83.7321 10.5925C83.2523 11.0723 82.8924 11.7921 82.8924 12.6318C82.8924 13.4715 83.1324 14.1912 83.7321 14.6711ZM90.6897 16.2305V9.03304H91.7693L95.2481 14.6711V9.03304H96.2078V16.2305H95.2481L91.5294 10.3526V16.2305H90.6897Z" fill="white"/>
    <path d="M12.474 9.63281C12.1141 9.99269 11.9941 10.5925 11.9941 11.3122V37.8229C11.9941 38.5427 12.2341 39.1425 12.5939 39.5024L12.7139 39.6223L27.5887 24.7475V24.5076L12.474 9.63281Z" fill="url(#paint0_linear)"/>
    <path d="M32.388 29.7853L27.4697 24.867V24.5072L32.388 19.5889L32.508 19.7088L38.3859 23.0677C40.0653 24.0273 40.0653 25.5868 38.3859 26.5464L32.388 29.7853Z" fill="url(#paint1_linear)"/>
    <path d="M32.5052 29.6652L27.4669 24.627L12.4722 39.6217C13.072 40.2215 13.9117 40.2215 14.9913 39.7417L32.5052 29.6652Z" fill="url(#paint2_linear)"/>
    <path d="M32.5052 19.5881L14.9913 9.63164C13.9117 9.03185 13.072 9.15181 12.4722 9.75159L27.4669 24.6263L32.5052 19.5881Z" fill="url(#paint3_linear)"/>
    <path opacity="0.2" d="M32.3852 29.5459L14.9913 39.3824C14.0316 39.9822 13.1919 39.8622 12.5921 39.3824L12.4722 39.5023L12.5921 39.6223C13.1919 40.1021 14.0316 40.2221 14.9913 39.6223L32.3852 29.5459Z" fill="black"/>
    <path opacity="0.2" d="M12.474 39.3818C12.1141 39.0219 11.9941 38.4221 11.9941 37.7024V37.8224C11.9941 38.5421 12.2341 39.1419 12.5939 39.5018V39.3818H12.474ZM38.3849 26.1864L32.387 29.5452L32.5069 29.6652L38.3849 26.3064C39.2246 25.8265 39.5844 25.2267 39.5844 24.627C39.5844 25.2267 39.1046 25.7066 38.3849 26.1864Z" fill="black"/>
    <path opacity="0.2" d="M14.9931 9.75216L38.3849 23.0675C39.1046 23.5473 39.5844 24.0271 39.5844 24.6269C39.5844 24.0271 39.2246 23.4274 38.3849 22.9475L14.9931 9.63221C13.3137 8.67254 11.9941 9.39229 11.9941 11.3116V11.4316C11.9941 9.63221 13.3137 8.7925 14.9931 9.75216Z" fill="white"/>
    <defs>
        <linearGradient id="paint0_linear" x1="26.1492" y1="11.0843" x2="6.01662" y2="31.2156" gradientUnits="userSpaceOnUse">
            <stop stop-color="#00A0FF"/>
            <stop offset="0.007" stop-color="#00A1FF"/>
            <stop offset="0.26" stop-color="#00BEFF"/>
            <stop offset="0.512" stop-color="#00D2FF"/>
            <stop offset="0.76" stop-color="#00DFFF"/>
            <stop offset="1" stop-color="#00E3FF"/>
        </linearGradient>
        <linearGradient id="paint1_linear" x1="40.586" y1="24.6283" x2="11.5597" y2="24.6283" gradientUnits="userSpaceOnUse">
            <stop stop-color="#FFE000"/>
            <stop offset="0.409" stop-color="#FFBD00"/>
            <stop offset="0.775" stop-color="#FFA500"/>
            <stop offset="1" stop-color="#FF9C00"/>
        </linearGradient>
        <linearGradient id="paint2_linear" x1="29.7785" y1="27.3812" x2="2.47839" y2="54.6812" gradientUnits="userSpaceOnUse">
            <stop stop-color="#FF3A44"/>
            <stop offset="1" stop-color="#C31162"/>
        </linearGradient>
        <linearGradient id="paint3_linear" x1="8.74987" y1="0.845938" x2="20.9412" y2="13.0373" gradientUnits="userSpaceOnUse">
            <stop stop-color="#32A071"/>
            <stop offset="0.069" stop-color="#2DA771"/>
            <stop offset="0.476" stop-color="#15CF74"/>
            <stop offset="0.801" stop-color="#06E775"/>
            <stop offset="1" stop-color="#00F076"/>
        </linearGradient>
    </defs>
</svg>
