<svg class="settings-gear-button"  width="23" height="23" viewBox="0 0 24 25" fill="none" xmlns="http://www.w3.org/2000/svg">
<path class="gear-color" fill-rule="evenodd" clip-rule="evenodd" d="M10.546 2.63782C10.9171 3.04977 11.4455 3.28496 12 3.28496C12.5545 3.28496 13.0829 3.04977 13.454 2.63782L14.4 1.59982C14.9556 0.984966 15.8379 0.786183 16.6035 1.1034C17.369 1.42063 17.8521 2.18522 17.81 3.01282L17.739 4.41282C17.7112 4.9651 17.9183 5.50336 18.309 5.89466C18.6997 6.28595 19.2377 6.49379 19.79 6.46682L21.19 6.39582C22.017 6.35505 22.7804 6.83868 23.0968 7.60389C23.4132 8.3691 23.2143 9.25061 22.6 9.80582L21.558 10.7458C21.1466 11.1174 20.9118 11.6459 20.9118 12.2003C20.9118 12.7547 21.1466 13.2832 21.558 13.6548L22.6 14.5948C23.2149 15.1504 23.4136 16.0327 23.0964 16.7983C22.7792 17.5638 22.0146 18.047 21.187 18.0048L19.787 17.9338C19.2335 17.9054 18.6938 18.1128 18.3019 18.5047C17.91 18.8966 17.7025 19.4363 17.731 19.9898L17.802 21.3898C17.8387 22.2131 17.3563 22.9712 16.595 23.2867C15.8337 23.6022 14.9564 23.4076 14.4 22.7998L13.459 21.7588C13.0876 21.3475 12.5593 21.1127 12.005 21.1127C11.4507 21.1127 10.9224 21.3475 10.551 21.7588L9.606 22.7998C9.0504 23.4105 8.17154 23.6073 7.40854 23.2919C6.64554 22.9765 6.1622 22.2166 6.2 21.3918L6.272 19.9918C6.30047 19.4383 6.09302 18.8986 5.7011 18.5067C5.30918 18.1148 4.76952 17.9074 4.216 17.9358L2.816 18.0068C1.98873 18.05 1.22381 17.5679 0.905883 16.8029C0.587955 16.038 0.785828 15.1557 1.4 14.5998L2.441 13.6598C2.85242 13.2882 3.08722 12.7597 3.08722 12.2053C3.08722 11.6509 2.85242 11.1224 2.441 10.7508L1.4 9.80582C0.787888 9.25057 0.590308 8.37078 0.906222 7.60712C1.22214 6.84345 1.98351 6.36037 2.809 6.39982L4.209 6.47082C4.76359 6.49998 5.30448 6.29226 5.69699 5.89937C6.0895 5.50648 6.2967 4.96539 6.267 4.41082L6.2 3.00982C6.16129 2.18469 6.64431 1.42394 7.40754 1.10799C8.17076 0.792031 9.05017 0.98877 9.606 1.59982L10.546 2.63782Z" stroke="#534CEA" stroke-width="1.5" stroke-linecap="round" stroke-linejoin="round"/>
<path class="gear-color" fill-rule="evenodd" clip-rule="evenodd" d="M12 16.7008C14.4853 16.7008 16.5 14.6861 16.5 12.2008C16.5 9.71554 14.4853 7.70082 12 7.70082C9.51472 7.70082 7.5 9.71554 7.5 12.2008C7.5 14.6861 9.51472 16.7008 12 16.7008Z" stroke="#534CEA" stroke-width="1.5" stroke-linecap="round" stroke-linejoin="round"/>
</svg>
