<svg width="18" height="18" viewBox="0 0 22 22" fill="none" xmlns="http://www.w3.org/2000/svg">
<path d="M7.75 8.49986C7.74992 8.91407 8.08564 9.24992 8.49986 9.25C8.91407 9.25008 9.24992 8.91436 9.25 8.50014L7.75 8.49986ZM11.8333 10.8575L12.0833 11.5646L11.8333 10.8575ZM11 12.0367H11.75V12.0363L11 12.0367ZM10.25 12.875C10.25 13.2892 10.5858 13.625 11 13.625C11.4142 13.625 11.75 13.2892 11.75 12.875H10.25ZM9.25 8.50014C9.25017 7.61023 9.91818 6.86215 10.8024 6.76167L10.633 5.27126C8.99091 5.45787 7.75032 6.84715 7.75 8.49986L9.25 8.50014ZM10.8024 6.76167C11.6866 6.66119 12.5055 7.2403 12.7053 8.10749L14.167 7.77065C13.7959 6.16016 12.2752 5.08465 10.633 5.27126L10.8024 6.76167ZM12.7053 8.10749C12.9051 8.97468 12.4224 9.85375 11.5833 10.1504L12.0833 11.5646C13.6415 11.0137 14.5381 9.38114 14.167 7.77065L12.7053 8.10749ZM11.5833 10.1504C10.7839 10.433 10.2496 11.1891 10.25 12.0371L11.75 12.0363C11.7499 11.8243 11.8835 11.6353 12.0833 11.5646L11.5833 10.1504ZM10.25 12.0367V12.875H11.75V12.0367H10.25ZM11 21.125C16.5919 21.125 21.125 16.5919 21.125 11H19.625C19.625 15.7635 15.7635 19.625 11 19.625V21.125ZM21.125 11C21.125 5.40812 16.5919 0.875 11 0.875V2.375C15.7635 2.375 19.625 6.23654 19.625 11H21.125ZM11 0.875C5.40812 0.875 0.875 5.40812 0.875 11H2.375C2.375 6.23654 6.23654 2.375 11 2.375V0.875ZM0.875 11C0.875 16.5919 5.40812 21.125 11 21.125V19.625C6.23654 19.625 2.375 15.7635 2.375 11H0.875Z" fill="#969EAC"/>
<path fill-rule="evenodd" clip-rule="evenodd" d="M11 14.5C10.4477 14.5 10 14.9477 10 15.5C10 16.0523 10.4477 16.5 11 16.5C11.5523 16.5 12 16.0523 12 15.5C12 14.9477 11.5523 14.5 11 14.5Z" fill="#969EAC"/>
</svg>
