<svg width="22" height="22" viewBox="0 0 22 22" fill="none" xmlns="http://www.w3.org/2000/svg">
<path d="M1.61719 6.625C1.61719 3.86358 3.85576 1.625 6.61719 1.625H15.3672C18.1286 1.625 20.3672 3.86358 20.3672 6.625V15.375C20.3672 18.1364 18.1286 20.375 15.3672 20.375H6.61719C3.85576 20.375 1.61719 18.1364 1.61719 15.375V6.625Z" stroke="white" stroke-width="1.5" stroke-linecap="round" stroke-linejoin="round"/>
<path fill-rule="evenodd" clip-rule="evenodd" d="M10.9922 15.1667C13.2934 15.1667 15.1589 13.3012 15.1589 11C15.1589 8.69881 13.2934 6.83333 10.9922 6.83333C8.691 6.83333 6.82552 8.69881 6.82552 11C6.82552 13.3012 8.691 15.1667 10.9922 15.1667Z" stroke="white" stroke-width="1.5" stroke-linecap="round" stroke-linejoin="round"/>
<path fill-rule="evenodd" clip-rule="evenodd" d="M17.1172 5.29167C17.1172 5.52179 16.9306 5.70833 16.7005 5.70833C16.4704 5.70833 16.2839 5.52179 16.2839 5.29167" stroke="white" stroke-width="1.5" stroke-linecap="round" stroke-linejoin="round"/>
<path fill-rule="evenodd" clip-rule="evenodd" d="M16.2839 5.29167C16.2839 5.06155 16.4704 4.875 16.7005 4.875C16.9306 4.875 17.1172 5.06155 17.1172 5.29167" stroke="white" stroke-width="1.5" stroke-linecap="round" stroke-linejoin="round"/>
</svg>
