<svg width="22" height="20" viewBox="0 0 22 20" fill="none" xmlns="http://www.w3.org/2000/svg">
<path fill-rule="evenodd" clip-rule="evenodd" d="M5.72448 18.8582H1.67448V7.2499H5.72448V18.8582ZM14.1328 11.0332C13.1479 11.0332 12.3495 11.8317 12.3495 12.8166V18.8582H8.09115V7.2499H12.3495V8.5749C13.3476 7.72995 14.6085 7.25856 15.9161 7.24157C18.5578 7.24157 20.3911 9.1999 20.3911 12.9166V18.8582H15.9161V12.8166C15.9184 12.3422 15.7315 11.8864 15.3968 11.5502C15.0621 11.2139 14.6072 11.0249 14.1328 11.0249V11.0332ZM5.79948 3.23324C5.79948 4.38383 4.86674 5.31657 3.71615 5.31657C2.56555 5.31657 1.63281 4.38383 1.63281 3.23324C1.63281 2.08264 2.56555 1.1499 3.71615 1.1499C4.86022 1.15906 5.78285 2.08912 5.78281 3.23324H5.79948Z" stroke="white" stroke-width="1.5" stroke-linecap="round" stroke-linejoin="round"/>
</svg>
