<svg width="152" height="48" viewBox="0 0 152 48" fill="none"
    xmlns="http://www.w3.org/2000/svg">
    <g clip-path="url(#clip0)">
        <path d="M56.6548 4.41357H59.9541L65.3186 12.6696L70.6831 4.41357H73.9824V21.8734H70.8846V9.35221L65.3186 17.5833H65.2178L59.7022 9.40209V21.8734H56.6548V4.41357Z" fill="#534CEA"/>
        <path d="M86.9318 22.1727C85.5718 22.1727 84.3293 21.9399 83.2044 21.4743C82.0794 20.9921 81.114 20.3436 80.3081 19.5288C79.5021 18.714 78.8725 17.7662 78.4192 16.6853C77.9658 15.5879 77.7391 14.4239 77.7391 13.1934V13.1435C77.7391 11.913 77.9658 10.7573 78.4192 9.67646C78.8725 8.57899 79.5105 7.62285 80.3333 6.80806C81.156 5.97664 82.1298 5.31982 83.2548 4.83759C84.3797 4.35537 85.6222 4.11426 86.9822 4.11426C88.3422 4.11426 89.5847 4.35537 90.7097 4.83759C91.8346 5.30319 92.8001 5.94338 93.606 6.75818C94.4119 7.57297 95.0416 8.5291 95.4949 9.62658C95.9482 10.7074 96.1749 11.8631 96.1749 13.0936V13.1435C96.1749 14.374 95.9482 15.538 95.4949 16.6355C95.0416 17.7163 94.4035 18.6724 93.5808 19.5039C92.7581 20.3186 91.7842 20.9672 90.6593 21.4494C89.5343 21.9316 88.2919 22.1727 86.9318 22.1727Z" fill="#534CEA"/>
        <path d="M99.9177 4.41357H102.789L112.233 16.4858V4.41357H115.281V21.8734H112.687L102.965 9.45198V21.8734H99.9177V4.41357Z" fill="#534CEA"/>
        <path d="M119.815 4.41357H132.886V7.15726H122.913V11.6968H131.753V14.4405H122.913V19.1297H133.012V21.8734H119.815V4.41357Z" fill="#534CEA"/>
        <path d="M141.876 14.9892L134.874 4.41357H138.526L143.462 12.1458L148.449 4.41357H152L144.999 14.9144V21.8734H141.876V14.9892Z" fill="#534CEA"/>
        <path d="M56.6548 27.7973H59.9541L65.3186 36.0533L70.6831 27.7973H73.9824V45.2571H70.8846V32.7359L65.3186 40.967H65.2178L59.7022 32.7858V45.2571H56.6548V27.7973Z" fill="#534CEA"/>
        <path d="M78.6962 27.7973H81.794V45.2571H78.6962V27.7973Z" fill="#534CEA"/>
        <path d="M86.5133 27.7973H89.3845L98.829 39.8695V27.7973H101.876V45.2571H99.2824L89.5608 32.8357V45.2571H86.5133V27.7973Z" fill="#534CEA"/>
        <path d="M111.498 36.3775L105.328 27.7973H108.98L113.362 34.0579L117.769 27.7973H121.321L115.175 36.3277L121.572 45.2571H117.921L113.286 38.6473L108.627 45.2571H105.076L111.498 36.3775Z" fill="#534CEA"/>
        <path d="M20.7273 46.6285C10.0431 46.6285 1.38184 38.0238 1.38184 27.4094C1.38184 23.9737 2.2893 20.7485 3.87909 17.9575M20.7273 46.6285C31.4115 46.6285 40.0727 38.0238 40.0727 27.4094H20.7273M20.7273 46.6285V27.4094M20.7273 8.19026C15.4543 8.19026 10.674 10.2861 7.1845 13.6851C7.29953 13.809 16.261 22.8862 20.7273 27.4094M20.7273 8.19026C26.0003 8.19026 30.7806 10.2861 34.2701 13.6851L20.7273 27.4094M20.7273 8.19026L27.5566 4.11426L37.5071 17.8385L20.7273 27.4094M20.7273 8.19026L13.7681 4.11426L3.87909 17.9575M20.7273 27.4094L3.87909 17.9575" stroke="#534CEA" stroke-width="2"/>
    </g>
    <defs>
        <clipPath id="clip0">
            <rect width="152" height="48" fill="white"/>
        </clipPath>
    </defs>
</svg>
