<svg class="sidebar-icon" width="20" height="20" viewBox="0 0 20 20" fill="none" xmlns="http://www.w3.org/2000/svg">
<path class="sidebar-icon" d="M5.625 15.6233C5.625 17.004 4.50571 18.1233 3.125 18.1233C1.74429 18.1233 0.625 17.004 0.625 15.6233C0.625 14.2426 1.74429 13.1233 3.125 13.1233C4.50571 13.1233 5.625 14.2426 5.625 15.6233ZM5.625 15.6233H14.375M14.375 15.6233C14.375 14.2426 15.4943 13.1233 16.875 13.1233C18.2557 13.1233 19.375 14.2426 19.375 15.6233C19.375 17.004 18.2557 18.1233 16.875 18.1233C15.4943 18.1233 14.375 17.004 14.375 15.6233ZM11.3825 6.45662L15.7842 13.3733M8.61749 6.45662L4.21582 13.3733M10 6.87329C11.3807 6.87329 12.5 5.754 12.5 4.37329C12.5 2.99258 11.3807 1.87329 10 1.87329C8.61929 1.87329 7.5 2.99258 7.5 4.37329C7.5 5.754 8.61929 6.87329 10 6.87329Z" stroke="#969EAC" stroke-linecap="round" stroke-linejoin="round"/>
</svg>
