<svg width="40" height="40" viewBox="0 0 40 40" fill="none" xmlns="http://www.w3.org/2000/svg">
<rect width="40" height="40" rx="20" fill="#534CEA"/>
<path d="M20 30C14.4772 30 10 25.7497 10 20.5067C10 18.8096 10.4691 17.2165 11.2909 15.8379M20 30C25.5228 30 30 25.7497 30 20.5067H20M20 30V20.5067M20 11.0133C17.2743 11.0133 14.8033 12.0486 12.9995 13.7275C13.059 13.7887 17.6913 18.2725 20 20.5067M20 11.0133C22.7257 11.0133 25.1967 12.0486 27.0005 13.7275L20 20.5067M20 11.0133L23.5302 9L28.6738 15.7791L20 20.5067M20 11.0133L16.4027 9L11.2909 15.8379M20 20.5067L11.2909 15.8379" stroke="white"/>
</svg>
