<svg width="30" height="33" viewBox="0 0 30 33" fill="none" xmlns="http://www.w3.org/2000/svg">
<path d="M15 32C7.26801 32 1 25.7257 1 17.986C1 15.4808 1.65671 13.1291 2.80722 11.0941M15 32C22.732 32 29 25.7257 29 17.986H15M15 32V17.986M15 3.97209C11.184 3.97209 7.72461 5.50034 5.1993 7.97876C5.28254 8.06905 11.7678 14.6879 15 17.986M15 3.97209C18.816 3.97209 22.2754 5.50034 24.8007 7.97876L15 17.986M15 3.97209L19.9423 1L27.1433 11.0073L15 17.986M15 3.97209L9.96376 1L2.80722 11.0941M15 17.986L2.80722 11.0941" stroke="#534CEA" stroke-width="1.5"/>
</svg>
