<svg width="110" height="35" viewBox="0 0 110 35" fill="none" xmlns="http://www.w3.org/2000/svg">
<path d="M41 3.21825H43.3876L47.2699 9.23825L51.1521 3.21825H53.5397V15.9494H51.2979V6.81934L47.2699 12.8212H47.1969L43.2054 6.85571V15.9494H41V3.21825Z" fill="white"/>
<path d="M62.911 16.1676C61.9268 16.1676 61.0276 15.9979 60.2135 15.6584C59.3994 15.3068 58.7007 14.8339 58.1175 14.2398C57.5343 13.6457 57.0786 12.9545 56.7505 12.1664C56.4225 11.3662 56.2584 10.5174 56.2584 9.62019V9.58381C56.2584 8.68657 56.4225 7.84389 56.7505 7.05577C57.0786 6.25553 57.5403 5.55835 58.1357 4.96423C58.7311 4.35799 59.4359 3.87905 60.25 3.52743C61.0641 3.17581 61.9633 3 62.9475 3C63.9317 3 64.8309 3.17581 65.645 3.52743C66.4591 3.86693 67.1578 4.33374 67.741 4.92786C68.3242 5.52198 68.7799 6.21916 69.108 7.0194C69.436 7.80752 69.6001 8.6502 69.6001 9.54744V9.58381C69.6001 10.4811 69.436 11.3298 69.108 12.13C68.7799 12.9182 68.3182 13.6153 67.7228 14.2216C67.1274 14.8157 66.4226 15.2886 65.6085 15.6402C64.7944 15.9918 63.8952 16.1676 62.911 16.1676Z" fill="white"/>
<path d="M72.3087 3.21825H74.3865L81.2214 12.0209V3.21825H83.4267V15.9494H81.5494L74.5141 6.89209V15.9494H72.3087V3.21825Z" fill="white"/>
<path d="M86.7082 3.21825H96.1676V5.21885H88.95V8.52895H95.3475V10.5296H88.95V13.9488H96.2588V15.9494H86.7082V3.21825Z" fill="white"/>
<path d="M102.673 10.9297L97.6061 3.21825H100.249L103.821 8.85632L107.43 3.21825H110L104.933 10.8751V15.9494H102.673V10.9297Z" fill="white"/>
<path d="M41 20.2689H43.3876L47.2699 26.2889L51.1521 20.2689H53.5397V33H51.2979V23.87L47.2699 29.8718H47.1969L43.2054 23.9063V33H41V20.2689Z" fill="white"/>
<path d="M56.951 20.2689H59.1929V33H56.951V20.2689Z" fill="white"/>
<path d="M62.6082 20.2689H64.686L71.5208 29.0715V20.2689H73.7262V33H71.8489L64.8135 23.9427V33H62.6082V20.2689Z" fill="white"/>
<path d="M80.6894 26.5253L76.2239 20.2689H78.8667L82.0381 24.8339L85.2277 20.2689H87.7976L83.3504 26.4889L87.9799 33H85.3371L81.9834 28.1804L78.6116 33H76.0417L80.6894 26.5253Z" fill="white"/>
<path d="M15 34C7.26801 34 1 27.7257 1 19.986C1 17.4808 1.65671 15.1291 2.80722 13.0941M15 34C22.732 34 29 27.7257 29 19.986H15M15 34V19.986M15 5.97209C11.184 5.97209 7.72461 7.50034 5.1993 9.97876C5.28254 10.0691 11.7678 16.6879 15 19.986M15 5.97209C18.816 5.97209 22.2754 7.50034 24.8007 9.97876L15 19.986M15 5.97209L19.9423 3L27.1433 13.0073L15 19.986M15 5.97209L9.96376 3L2.80722 13.0941M15 19.986L2.80722 13.0941" stroke="white" stroke-width="1.5"/>
</svg>
