<svg width="107" height="33" viewBox="0 0 107 33" fill="none" xmlns="http://www.w3.org/2000/svg">
<g clip-path="url(#clip0)">
<path d="M39.8809 3.03439H42.2034L45.9797 8.7104L49.756 3.03439H52.0786V15.038H49.8979V6.4297L45.9797 12.0886H45.9088L42.0261 6.464V15.038H39.8809V3.03439Z" fill="white"/>
<path d="M61.1943 15.2438C60.2369 15.2438 59.3623 15.0838 58.5704 14.7637C57.7785 14.4321 57.0989 13.9863 56.5315 13.4261C55.9642 12.8659 55.521 12.2143 55.2018 11.4712C54.8827 10.7167 54.7231 9.91648 54.7231 9.0705V9.03621C54.7231 8.19024 54.8827 7.39571 55.2018 6.65263C55.521 5.89811 55.9701 5.24077 56.5493 4.6806C57.1284 4.109 57.8139 3.65744 58.6058 3.32591C59.3977 2.99438 60.2724 2.82861 61.2298 2.82861C62.1871 2.82861 63.0618 2.99438 63.8537 3.32591C64.6456 3.646 65.3252 4.08614 65.8926 4.64631C66.4599 5.20648 66.9031 5.86382 67.2223 6.61833C67.5414 7.36142 67.7009 8.15594 67.7009 9.00191V9.03621C67.7009 9.88218 67.5414 10.6824 67.2223 11.4369C66.9031 12.18 66.454 12.8374 65.8748 13.409C65.2957 13.9691 64.6101 14.415 63.8182 14.7465C63.0263 15.078 62.1517 15.2438 61.1943 15.2438Z" fill="white"/>
<path d="M70.3357 3.03439H72.3568L79.0053 11.334V3.03439H81.1505V15.038H79.3244L72.4809 6.4983V15.038H70.3357V3.03439Z" fill="white"/>
<path d="M84.3425 3.03439H93.5439V4.92068H86.5232V8.04162H92.7461V9.92791H86.5232V13.1517H93.6326V15.038H84.3425V3.03439Z" fill="white"/>
<path d="M99.8719 10.3052L94.9432 3.03439H97.5139L100.989 8.35029L104.499 3.03439H106.999L102.07 10.2537V15.038H99.8719V10.3052Z" fill="white"/>
<path d="M39.8809 19.1107H42.2034L45.9797 24.7867L49.756 19.1107H52.0786V31.1143H49.8979V22.506L45.9797 28.1649H45.9088L42.0261 22.5403V31.1143H39.8809V19.1107Z" fill="white"/>
<path d="M55.3968 19.1107H57.5775V31.1143H55.3968V19.1107Z" fill="white"/>
<path d="M60.8997 19.1107H62.9208L69.5693 27.4103V19.1107H71.7145V31.1143H69.8884L63.0449 22.5746V31.1143H60.8997V19.1107Z" fill="white"/>
<path d="M78.4878 25.0096L74.1441 19.1107H76.7149L79.7998 23.4149L82.9024 19.1107H85.4022L81.0763 24.9753L85.5795 31.1143H83.0088L79.7466 26.5701L76.4667 31.1143H73.9668L78.4878 25.0096Z" fill="white"/>
<path d="M14.5908 32.0572C7.06972 32.0572 0.972656 26.1415 0.972656 18.844C0.972656 16.482 1.61146 14.2647 2.73059 12.3459M14.5908 32.0572C22.112 32.0572 28.209 26.1415 28.209 18.844H14.5908M14.5908 32.0572V18.844M14.5908 5.63087C10.8789 5.63087 7.51387 7.07179 5.05743 9.40859C5.1384 9.49372 11.4468 15.7344 14.5908 18.844M14.5908 5.63087C18.3028 5.63087 21.6678 7.07179 24.1243 9.40859L14.5908 18.844M14.5908 5.63087L19.3983 2.82861L26.403 12.2641L14.5908 18.844M14.5908 5.63087L9.69195 2.82861L2.73059 12.3459M14.5908 18.844L2.73059 12.3459" stroke="white" stroke-width="2"/>
</g>
<defs>
<clipPath id="clip0">
<rect width="107" height="33" fill="white"/>
</clipPath>
</defs>
</svg>
