<svg width="25" height="16" viewBox="0 0 25 16" fill="none"
    xmlns="http://www.w3.org/2000/svg">
    <path fill-rule="evenodd" clip-rule="evenodd" d="M11.9998 1.25099C7.96883 1.18299 3.79983 3.99999 1.17883 6.88499C0.609011 7.5176 0.609011 8.47839 1.17883 9.11099C3.74283 11.935 7.89983 14.817 11.9998 14.748C16.0998 14.817 20.2578 11.935 22.8238 9.11099C23.3936 8.47839 23.3936 7.5176 22.8238 6.88499C20.1998 3.99999 16.0308 1.18299 11.9998 1.25099Z" stroke="#969EAC" stroke-width="1.5" stroke-linecap="round" stroke-linejoin="round"/>
    <path fill-rule="evenodd" clip-rule="evenodd" d="M15.7498 7.99999C15.7493 10.0709 14.0701 11.7494 11.9992 11.749C9.92822 11.7486 8.24964 10.0696 8.24983 7.99866C8.25001 5.92772 9.92889 4.24899 11.9998 4.24899C12.9946 4.24873 13.9488 4.64387 14.6521 5.3474C15.3555 6.05094 15.7504 7.00518 15.7498 7.99999Z" stroke="#969EAC" stroke-width="1.5" stroke-linecap="round" stroke-linejoin="round"/>
</svg>
