<svg width="25" height="24" viewBox="0 0 25 24" fill="none"
    xmlns="http://www.w3.org/2000/svg">
    <path d="M2.78283 21L21.5328 3M8.96383 19.051C9.94664 19.3562 10.9707 19.5077 11.9998 19.5C16.0998 19.569 20.2578 16.687 22.8238 13.863C23.3936 13.2304 23.3936 12.2696 22.8238 11.637C21.8942 10.6172 20.8644 9.69356 19.7498 8.88M14.4128 6.282C13.6238 6.08565 12.8129 5.99088 11.9998 6C7.96883 5.933 3.79983 8.752 1.17883 11.635C0.609011 12.2676 0.609011 13.2284 1.17883 13.861C1.97575 14.7334 2.84557 15.5363 3.77883 16.261M8.24983 12.75C8.24956 11.7554 8.64457 10.8014 9.34788 10.0981C10.0512 9.39474 11.0052 8.99973 11.9998 9M15.7498 12.749C15.7501 13.7437 15.3551 14.6978 14.6518 15.4013C13.9485 16.1048 12.9946 16.5 11.9998 16.5" stroke="#969EAC" stroke-width="1.5" stroke-linecap="round" stroke-linejoin="round"/>
</svg>
