<svg width="18" height="22" viewBox="0 0 18 22" fill="none" xmlns="http://www.w3.org/2000/svg">
<path fill-rule="evenodd" clip-rule="evenodd" d="M4.50024 9.55817C4.40942 9.24691 4.3645 8.92407 4.3669 8.59984C4.35217 7.352 4.85061 6.15288 5.74554 5.28316C6.64047 4.41344 7.85333 3.94947 9.10024 3.99984C11.6836 3.99984 13.1002 5.57484 13.1002 7.68317C13.1002 10.4498 11.8752 12.7915 10.0502 12.7915C9.0419 12.7915 8.6919 12.0248 8.92524 11.0082C9.27524 9.54984 11.1836 7.12484 8.92524 6.62484C6.6669 6.12484 6.3169 8.9915 6.27524 10.2915L4.8919 16.1248C4.65947 17.4788 4.65947 18.8625 4.8919 20.2165C4.89733 20.2761 4.93963 20.3259 4.99759 20.3408C5.05554 20.3558 5.11664 20.3327 5.15024 20.2832C5.97951 19.2511 6.62504 18.0841 7.05857 16.8332C7.1919 16.3498 7.68357 14.4998 7.68357 14.4998C8.27587 15.366 9.26801 15.8715 10.3169 15.8415C13.7752 15.8415 16.2586 12.0582 16.2586 7.83317C16.2586 4.6415 13.5502 1.6665 9.4419 1.6665C4.32524 1.6665 1.7419 5.33317 1.7419 8.3915C1.63688 9.85787 2.26015 11.282 3.40857 12.1998L4.50024 9.55817Z" stroke="white" stroke-width="1.5" stroke-linecap="round" stroke-linejoin="round"/>
</svg>
