<svg class="sidebar-icon" width="20" height="20" viewBox="0 0 20 20" fill="none" xmlns="http://www.w3.org/2000/svg">
<path class="sidebar-icon" d="M15.7608 17.3967C14.2363 15.8625 12.1628 14.9999 10 14.9999C7.8372 14.9999 5.76372 15.8625 4.23918 17.3967M10 12.5C12.4162 12.5 14.375 10.5412 14.375 8.125C14.375 5.70875 12.4162 3.75 10 3.75C7.58375 3.75 5.625 5.70875 5.625 8.125C5.625 10.5412 7.58375 12.5 10 12.5ZM10 19.375C15.1777 19.375 19.375 15.1777 19.375 10C19.375 4.82233 15.1777 0.625 10 0.625C4.82233 0.625 0.625 4.82233 0.625 10C0.625 15.1777 4.82233 19.375 10 19.375Z" stroke="#969EAC" stroke-linecap="round" stroke-linejoin="round"/>
</svg>
