<svg class="sidebar-icon" width="20" height="20" viewBox="0 0 20 20" fill="none" xmlns="http://www.w3.org/2000/svg">
<path class="sidebar-icon" fill-rule="evenodd" clip-rule="evenodd" d="M8.78736 2.03176C9.09662 2.37505 9.53698 2.57105 9.99902 2.57105C10.4611 2.57105 10.9014 2.37505 11.2107 2.03176L11.999 1.16676C12.462 0.654383 13.1973 0.48873 13.8352 0.753081C14.4732 1.01743 14.8758 1.6546 14.8407 2.34426L14.7815 3.51093C14.7584 3.97116 14.9309 4.41971 15.2565 4.74579C15.5821 5.07187 16.0304 5.24507 16.4907 5.2226L17.6574 5.16343C18.3466 5.12945 18.9827 5.53248 19.2464 6.17015C19.51 6.80783 19.3443 7.54242 18.8324 8.0051L17.964 8.78843C17.6212 9.09811 17.4255 9.53851 17.4255 10.0005C17.4255 10.4625 17.6212 10.9029 17.964 11.2126L18.8324 11.9959C19.3447 12.4589 19.5104 13.1942 19.246 13.8321C18.9817 14.4701 18.3445 14.8727 17.6549 14.8376L16.4882 14.7784C16.0269 14.7547 15.5772 14.9276 15.2506 15.2542C14.924 15.5808 14.7511 16.0305 14.7749 16.4918L14.834 17.6584C14.8646 18.3445 14.4626 18.9763 13.8282 19.2392C13.1938 19.5021 12.4627 19.3399 11.999 18.8334L11.2149 17.9659C10.9053 17.6231 10.4651 17.4275 10.0032 17.4275C9.54132 17.4275 9.10106 17.6231 8.79152 17.9659L8.00402 18.8334C7.54102 19.3424 6.80864 19.5064 6.17281 19.2435C5.53698 18.9807 5.13419 18.3474 5.16569 17.6601L5.22569 16.4934C5.24942 16.0322 5.07654 15.5824 4.74994 15.2558C4.42334 14.9292 3.97363 14.7564 3.51236 14.7801L2.34569 14.8393C1.6563 14.8752 1.01887 14.4735 0.753926 13.836C0.488986 13.1986 0.65388 12.4634 1.16569 12.0001L2.03319 11.2168C2.37604 10.9071 2.5717 10.4667 2.5717 10.0047C2.5717 9.54268 2.37604 9.10228 2.03319 8.7926L1.16569 8.0051C0.655597 7.54239 0.490947 6.80923 0.754209 6.17284C1.01747 5.53646 1.65195 5.13388 2.33986 5.16676L3.50652 5.22593C3.96869 5.25023 4.41942 5.07712 4.74651 4.74972C5.0736 4.42231 5.24627 3.9714 5.22152 3.50926L5.16569 2.34176C5.13343 1.65416 5.53595 1.0202 6.17197 0.7569C6.80799 0.493603 7.54083 0.657552 8.00402 1.16676L8.78736 2.03176Z" stroke="#969EAC" stroke-linecap="round" stroke-linejoin="round"/>
<path class="sidebar-icon" fill-rule="evenodd" clip-rule="evenodd" d="M9.99902 13.7509C12.0701 13.7509 13.749 12.072 13.749 10.0009C13.749 7.92987 12.0701 6.25093 9.99902 6.25093C7.92796 6.25093 6.24902 7.92987 6.24902 10.0009C6.24902 12.072 7.92796 13.7509 9.99902 13.7509Z" stroke="#969EAC" stroke-linecap="round" stroke-linejoin="round"/>
</svg>
