<svg width="19" height="22" viewBox="0 0 22 25" fill="none" xmlns="http://www.w3.org/2000/svg">
<path d="M2.11804 2.56096C3.11282 2.11457 4.1439 1.75392 5.20004 1.48296L19.769 16.269C19.0577 17.9101 17.9862 19.3701 16.634 20.541L1.25004 5.16196V3.92296M2.11804 2.56096C1.58571 2.80438 1.24587 3.33763 1.25004 3.92296M2.11804 2.56096C4.9182 1.33875 7.94489 0.721617 11 0.749957C14.0552 0.721617 17.0819 1.33875 19.882 2.56096C20.4142 2.80458 20.754 3.3377 20.75 3.92296V11.537C20.75 16.4635 17.7161 20.8812 13.118 22.65L12.077 23.05C11.0138 23.4451 11.0039 23.4492 9.92304 23.05L8.88204 22.65C4.28402 20.8812 1.25008 16.4635 1.25004 11.537L1.25004 3.92296" stroke="#534CEA" stroke-width="1.5" stroke-linecap="round" stroke-linejoin="round"/>
</svg>
