<svg width="106" height="35" viewBox="0 0 106 35" fill="none" xmlns="http://www.w3.org/2000/svg">
<g clip-path="url(#clip0)">
<path d="M23.6898 13.8451H19.8691V10.9676C19.8691 9.05715 19.1003 7.22499 17.732 5.87413C16.3636 4.52327 14.5077 3.76437 12.5726 3.76437C10.6374 3.76437 8.78153 4.52327 7.41317 5.87413C6.04481 7.22499 5.27608 9.05715 5.27608 10.9676V13.8451H1.46484V10.9676C1.46484 8.05878 2.63532 5.26914 4.71878 3.21232C6.80223 1.15551 9.62801 0 12.5745 0C15.5209 0 18.3467 1.15551 20.4301 3.21232C22.5136 5.26914 23.6841 8.05878 23.6841 10.9676L23.6898 13.8451Z" fill="#969EAC"/>
<path d="M0.627311 13.7795H24.5219C24.6049 13.7795 24.6871 13.7958 24.7637 13.8274C24.8403 13.859 24.9098 13.9053 24.9682 13.9636C25.0265 14.0219 25.0726 14.091 25.1036 14.167C25.1347 14.243 25.1502 14.3244 25.1492 14.4063V29.0297C25.1492 29.8142 24.9927 30.5911 24.6886 31.3159C24.3845 32.0406 23.9387 32.6992 23.3768 33.2539C22.8149 33.8087 22.1478 34.2487 21.4136 34.5489C20.6794 34.8492 19.8925 35.0037 19.0979 35.0037H6.05135C5.2562 35.0037 4.46884 34.849 3.73429 34.5484C2.99973 34.2478 2.33238 33.8073 1.77039 33.252C1.2084 32.6966 0.762776 32.0374 0.459001 31.312C0.155227 30.5865 -0.000744419 29.8091 2.6712e-06 29.0241V14.4063C2.6712e-06 14.2421 0.0660939 14.0845 0.183737 13.9684C0.30138 13.8523 0.460939 13.787 0.627311 13.787V13.7795Z" fill="#534CEA"/>
<g style="mix-blend-mode:multiply" opacity="0.1">
<path d="M25.1488 13.7795H12.5742V34.9981H25.1488V13.7795Z" fill="#134200"/>
</g>
<path d="M11.4562 28.6069L5.55078 23.1419L8.06949 20.8125L11.4562 23.9464L18.2618 17.6469L20.7786 19.9781L11.4562 28.6069Z" fill="white"/>
<path d="M35.3789 14.1726C34.9249 14.0052 34.4851 13.8025 34.0636 13.5664C33.6922 13.3585 33.3575 13.0925 33.0725 12.7787C32.7899 12.4576 32.5736 12.0852 32.4357 11.6823C32.2774 11.187 32.2037 10.6692 32.2177 10.15C32.2045 9.49142 32.3337 8.83762 32.5968 8.23227C32.8379 7.69214 33.2033 7.2149 33.6638 6.8384C34.1505 6.4481 34.7119 6.15858 35.3145 5.98712C36.0222 5.78664 36.7558 5.68957 37.492 5.69899C38.1834 5.69288 38.8735 5.75557 39.5521 5.88609C40.236 6.02918 40.9097 6.21668 41.5686 6.44737C41.4775 7.29039 41.2443 8.11246 40.8787 8.87962L40.2211 8.62517C39.9893 8.53656 39.7511 8.46527 39.5085 8.41188C39.2276 8.35075 38.9435 8.30454 38.6576 8.27343C38.2994 8.23611 37.9394 8.21862 37.5792 8.22104C37.3296 8.22115 37.0804 8.24243 36.8344 8.28465C36.5961 8.32273 36.3664 8.40189 36.1559 8.51852C35.9488 8.63908 35.7776 8.81138 35.6594 9.01807C35.5212 9.28437 35.4559 9.58169 35.4699 9.88058C35.4608 10.1268 35.5129 10.3716 35.6215 10.5934C35.7205 10.7841 35.8601 10.9513 36.0308 11.0836C36.2082 11.2178 36.4025 11.3285 36.6089 11.4129C36.8249 11.5046 37.0391 11.6 37.2551 11.6786L38.5496 12.1688C39.0954 12.382 39.5913 12.6016 40.0373 12.8273C40.4638 13.0394 40.8488 13.3245 41.1744 13.6693C41.4906 14.0238 41.7316 14.4373 41.8832 14.8854C42.0737 15.4548 42.1641 16.0521 42.1504 16.6516C42.1588 17.3317 42.0226 18.0061 41.7505 18.631C41.489 19.2214 41.095 19.7454 40.5983 20.1634C40.0489 20.6142 39.4153 20.9542 38.7334 21.1643C37.9055 21.4147 37.0425 21.5335 36.1768 21.5161C35.703 21.5161 35.2785 21.503 34.9051 21.473C34.547 21.4476 34.1907 21.4014 33.8381 21.3346C33.4998 21.2712 33.1651 21.19 32.8356 21.0914C32.5045 20.9916 32.1596 20.8706 31.8008 20.7284C31.8479 20.2942 31.9271 19.864 32.0377 19.4412C32.1527 18.9934 32.2891 18.5431 32.447 18.0903C33.0004 18.3149 33.5707 18.4964 34.1527 18.6329C34.7124 18.7583 35.2845 18.821 35.8584 18.82C36.7643 18.82 37.4756 18.6535 37.9924 18.3205C38.5091 17.9874 38.7681 17.4804 38.7694 16.7994C38.7772 16.504 38.7122 16.2112 38.5799 15.9462C38.4618 15.7259 38.3007 15.5307 38.1061 15.3718C37.9054 15.2129 37.6842 15.0807 37.4485 14.9789C37.2033 14.8729 36.9506 14.77 36.6904 14.6702L35.3789 14.1726Z" fill="black"/>
<path d="M44.4141 5.95715H53.2115C53.2974 6.38477 53.3405 6.81967 53.3404 7.2556C53.3419 7.70522 53.2987 8.1539 53.2115 8.5952H47.5696V11.9162H52.0555C52.1393 12.3516 52.1824 12.7938 52.1844 13.237C52.1844 13.6866 52.1412 14.1351 52.0555 14.5767H47.5696V18.6217H53.3707C53.4566 19.0493 53.4997 19.4842 53.4996 19.9201C53.501 20.3703 53.4578 20.8196 53.3707 21.2616H44.4141V5.95715Z" fill="black"/>
<path d="M66.1047 18.3672C66.2912 18.7626 66.4465 19.1717 66.569 19.5908C66.6904 20.0059 66.7804 20.4292 66.8382 20.8575C66.1841 21.1017 65.5065 21.2798 64.816 21.3888C64.1767 21.4762 63.532 21.5187 62.8867 21.516C61.7835 21.5405 60.6869 21.3412 59.6649 20.9304C58.7767 20.5641 57.9842 20.0038 57.347 19.2915C56.7064 18.5636 56.2256 17.7125 55.9351 16.7919C55.61 15.7728 55.4495 14.7095 55.4594 13.6412C55.4549 12.5662 55.6277 11.4976 55.9711 10.4774C56.2759 9.55142 56.7635 8.69424 57.4058 7.95534C58.0397 7.23933 58.8277 6.67232 59.7122 6.2958C60.6969 5.8834 61.7585 5.68005 62.8279 5.69896C63.4664 5.69582 64.1042 5.73834 64.7364 5.82619C65.384 5.93111 66.0169 6.11071 66.6221 6.36128C66.5932 6.78556 66.5065 7.20405 66.3644 7.60547C66.2203 8.01209 66.0618 8.42058 65.8887 8.83094C65.4528 8.67821 65.0062 8.5569 64.5525 8.46798C64.0968 8.39141 63.6351 8.35571 63.1728 8.36133C61.7931 8.36133 60.7331 8.80475 59.9927 9.69158C59.2523 10.5784 58.8821 11.8949 58.8821 13.6412C58.8821 17.1024 60.3699 18.8337 63.3453 18.835C63.8144 18.8399 64.2831 18.8042 64.7459 18.7283C65.2075 18.6423 65.6617 18.5216 66.1047 18.3672V18.3672Z" fill="black"/>
<path d="M69.1016 5.95711C69.3653 5.91528 69.6309 5.88655 69.8975 5.87104C70.1572 5.85795 70.4225 5.85046 70.6954 5.85046C70.9683 5.85046 71.192 5.85046 71.4535 5.87104C71.715 5.89162 71.9766 5.91408 72.2514 5.95711V13.8956C72.2458 14.6382 72.278 15.3807 72.348 16.1201C72.389 16.6489 72.5204 17.167 72.7365 17.6525C72.9041 18.0303 73.1914 18.3441 73.5553 18.5468C73.9794 18.7553 74.4502 18.8544 74.9236 18.8349C75.3941 18.8554 75.862 18.7562 76.2824 18.5468C76.6413 18.3408 76.9247 18.0277 77.0917 17.6525C77.3037 17.1661 77.4318 16.6482 77.4707 16.1201C77.5424 15.3808 77.5753 14.6383 77.5693 13.8956V5.95711C77.8555 5.91408 78.1378 5.88601 78.388 5.87104C78.6382 5.85608 78.8978 5.85046 79.1461 5.85046C79.3944 5.85046 79.6673 5.85046 79.9326 5.87104C80.2036 5.88614 80.4737 5.91487 80.7418 5.95711V14.5635C80.7505 15.515 80.6641 16.4651 80.4841 17.3999C80.3409 18.1917 80.0247 18.9432 79.5573 19.602C79.0991 20.2227 78.4815 20.7115 77.7683 21.0183C77.0216 21.3513 76.074 21.5179 74.9255 21.5179C73.777 21.5179 72.8294 21.3513 72.0827 21.0183C71.3686 20.712 70.7503 20.2231 70.2917 19.602C69.8245 18.9429 69.5077 18.1916 69.3631 17.3999C69.1837 16.4631 69.0974 15.5112 69.1054 14.5579L69.1016 5.95711Z" fill="black"/>
<path d="M83.8043 5.95713C84.4361 5.88603 85.0293 5.82367 85.5839 5.77003C86.1373 5.72139 86.7514 5.69519 87.4279 5.69519C88.2125 5.6947 88.9954 5.76611 89.7666 5.90848C90.5007 6.03501 91.2064 6.28835 91.8513 6.65687C92.4669 7.01579 92.9822 7.52059 93.3504 8.12557C93.7295 8.74298 93.919 9.52691 93.919 10.4774C93.9274 10.9844 93.8544 11.4896 93.7029 11.9741C93.5741 12.3772 93.3891 12.7607 93.1533 13.1135C92.9469 13.4206 92.7045 13.7025 92.4313 13.9536C92.2043 14.162 91.9589 14.3499 91.6978 14.5149L91.332 14.7488L95.1054 21.2185C94.8173 21.2466 94.516 21.2765 94.1995 21.3046C93.883 21.3327 93.5589 21.3476 93.2291 21.3476C92.6876 21.348 92.1469 21.3048 91.6125 21.2185L87.5568 14.1295L88.0742 13.875C88.2751 13.7759 88.5196 13.6486 88.8076 13.5008C89.1071 13.3352 89.3868 13.1368 89.6415 12.9096C89.9155 12.6664 90.145 12.3784 90.32 12.0583C90.5115 11.693 90.6042 11.2851 90.5891 10.874C90.5891 9.97969 90.3301 9.32298 89.8121 8.90389C89.2396 8.46785 88.5293 8.24582 87.807 8.27711C87.5183 8.27482 87.2298 8.2961 86.9447 8.34073V21.2616C86.6869 21.2896 86.4273 21.3139 86.1695 21.3345C85.9118 21.3551 85.6578 21.3682 85.4115 21.3682C85.1651 21.3682 84.9073 21.3682 84.6344 21.3458C84.3615 21.3233 84.081 21.3027 83.793 21.2616L83.8043 5.95713Z" fill="black"/>
<path d="M96.8281 5.95715H105.626C105.711 6.38477 105.755 6.81967 105.754 7.2556C105.756 7.70522 105.713 8.1539 105.626 8.5952H99.976V11.9162H104.46C104.545 12.3514 104.589 12.7937 104.591 13.237C104.591 13.6867 104.547 14.1353 104.46 14.5767H99.976V18.6217H105.775C105.862 19.0491 105.905 19.4841 105.904 19.9201C105.907 20.3704 105.863 20.8198 105.775 21.2616H96.8281V5.95715Z" fill="black"/>
<path d="M33.319 29.127C33.1117 29.0504 32.9109 28.9578 32.7183 28.8501C32.5481 28.7553 32.395 28.6333 32.2653 28.489C32.1359 28.3422 32.0368 28.1719 31.9734 27.9876C31.9004 27.7615 31.8659 27.5251 31.8711 27.2879C31.8648 26.9866 31.9236 26.6875 32.0436 26.4104C32.1533 26.1637 32.3201 25.9458 32.5306 25.7743C32.7542 25.5951 33.012 25.4621 33.2887 25.3832C33.6123 25.2928 33.9474 25.2487 34.2837 25.2523C34.6017 25.2504 34.9192 25.2798 35.2313 25.3402C35.5443 25.4038 35.8527 25.4882 36.1542 25.5928C36.112 25.9774 36.0051 26.3524 35.8377 26.7023L35.5364 26.5863C35.4309 26.5461 35.3226 26.5135 35.2123 26.489C35.0834 26.461 34.9531 26.4397 34.8219 26.4254C34.6582 26.4088 34.4937 26.4007 34.3292 26.401C34.2154 26.4009 34.1019 26.4109 33.9899 26.431C33.8806 26.4474 33.7752 26.4836 33.6791 26.5376C33.5841 26.5924 33.5056 26.6712 33.4517 26.7659C33.3876 26.8875 33.3569 27.0236 33.3626 27.1607C33.3578 27.2658 33.3784 27.3706 33.423 27.4663C33.4675 27.562 33.5345 27.6458 33.6185 27.7107C33.7002 27.774 33.79 27.8262 33.8857 27.866C33.9842 27.909 34.0752 27.9483 34.1813 27.9876L34.7726 28.2121C35.0228 28.3094 35.2502 28.4105 35.453 28.5134C35.6476 28.61 35.8229 28.7406 35.9704 28.8988C36.1184 29.0617 36.2313 29.2527 36.3021 29.4601C36.3864 29.7199 36.4261 29.9918 36.4196 30.2646C36.4212 30.5756 36.3566 30.8834 36.23 31.1682C36.1106 31.439 35.9297 31.6791 35.7013 31.8699C35.4503 32.0765 35.1605 32.2323 34.8484 32.3282C34.4707 32.4441 34.0766 32.4997 33.681 32.4929C33.4631 32.4929 33.2698 32.4929 33.0992 32.4742C32.9352 32.4613 32.772 32.4401 32.6102 32.4106C32.4567 32.3806 32.3032 32.3432 32.1516 32.2983C32 32.2534 31.8427 32.1973 31.6797 32.1318C31.7006 31.9336 31.7367 31.7372 31.7877 31.5443C31.8408 31.3385 31.9033 31.1327 31.9772 30.925C32.2295 31.0289 32.4901 31.1121 32.7562 31.1739C33.0154 31.2268 33.2799 31.2506 33.5446 31.245C33.8854 31.2636 34.2244 31.1843 34.5206 31.0167C34.6367 30.9419 34.7306 30.8381 34.7929 30.7159C34.8551 30.5936 34.8834 30.4573 34.875 30.3207C34.8794 30.1862 34.8508 30.0527 34.7916 29.9315C34.7373 29.8308 34.6639 29.7413 34.5755 29.6677C34.4841 29.5923 34.3827 29.5294 34.2742 29.4806C34.1624 29.432 34.0468 29.3852 33.9293 29.3403L33.319 29.127Z" fill="#697588"/>
<path d="M38.4972 29.127C38.2925 29.05 38.0942 28.9574 37.904 28.8501C37.7342 28.7548 37.5812 28.6329 37.451 28.4891C37.3216 28.3426 37.2231 28.1721 37.1611 27.9876C37.0865 27.7619 37.0512 27.5253 37.0568 27.2879C37.0505 26.9866 37.1093 26.6875 37.2293 26.4104C37.3404 26.164 37.5078 25.9463 37.7182 25.7743C37.9414 25.5945 38.1994 25.4615 38.4763 25.3833C38.8005 25.2927 39.1363 25.2486 39.4732 25.2523C39.7912 25.2505 40.1087 25.2799 40.4208 25.3402C40.7332 25.4038 41.0409 25.4882 41.3419 25.5928C41.3003 25.9774 41.194 26.3523 41.0272 26.7023L40.7259 26.5863C40.6198 26.5461 40.5108 26.5136 40.3999 26.489C40.2717 26.461 40.142 26.4397 40.0114 26.4254C39.8471 26.4088 39.682 26.4007 39.5168 26.4011C39.403 26.401 39.2895 26.411 39.1775 26.431C39.0683 26.4477 38.963 26.4839 38.8667 26.5376C38.7722 26.593 38.6938 26.6717 38.6393 26.7659C38.5759 26.8877 38.5458 27.0238 38.5521 27.1607C38.5485 27.273 38.5719 27.3845 38.6204 27.4862C38.666 27.5739 38.7307 27.6506 38.8099 27.7107C38.8906 27.7744 38.9799 27.8267 39.0752 27.866C39.1737 27.9091 39.2647 27.9483 39.3709 27.9876L39.964 28.2121C40.2123 28.3094 40.4397 28.4105 40.6444 28.5134C40.8384 28.6109 41.0135 28.7414 41.1618 28.8988C41.3086 29.0623 41.4207 29.2531 41.4916 29.4601C41.5775 29.7196 41.6179 29.9917 41.611 30.2646C41.6126 30.5756 41.548 30.8835 41.4214 31.1683C41.302 31.4386 41.1218 31.6785 40.8946 31.8699C40.6431 32.0758 40.3534 32.2315 40.0417 32.3283C39.6633 32.4441 39.2686 32.4997 38.8724 32.4929C38.6564 32.4929 38.4631 32.4929 38.2906 32.4742C38.1272 32.4615 37.9646 32.4402 37.8035 32.4106C37.6481 32.3806 37.4965 32.3432 37.3449 32.2983C37.1933 32.2534 37.036 32.1973 36.8711 32.1318C36.8939 31.9338 36.9299 31.7376 36.9791 31.5443C37.0322 31.3385 37.0947 31.1327 37.1686 30.925C37.4211 31.0284 37.6816 31.1116 37.9476 31.1739C38.2033 31.2296 38.4646 31.2573 38.7265 31.2562C39.0674 31.275 39.4064 31.1957 39.7025 31.0279C39.8188 30.9533 39.913 30.8495 39.9756 30.7273C40.0382 30.6051 40.0669 30.4687 40.0588 30.3319C40.0636 30.1972 40.0343 30.0635 39.9735 29.9428C39.9204 29.8413 39.8469 29.7515 39.7575 29.679C39.666 29.6035 39.5646 29.5406 39.4561 29.4919C39.3443 29.4432 39.2306 29.3965 39.1112 29.3516L38.4972 29.127Z" fill="#697588"/>
<path d="M42.6289 25.3702C42.86 25.3315 43.0939 25.3115 43.3282 25.3103C43.5695 25.3115 43.8103 25.3315 44.0484 25.3702V31.1421H46.5122C46.5323 31.2465 46.5456 31.3521 46.552 31.4583C46.552 31.5593 46.552 31.6547 46.552 31.7464C46.552 31.8381 46.552 31.9522 46.552 32.0514C46.5456 32.1581 46.5323 32.2644 46.5122 32.3694H42.6289V25.3702Z" fill="#697588"/>
<path d="M49.6543 25.3702H53.6778C53.7173 25.5655 53.737 25.7642 53.7365 25.9633C53.7377 26.1693 53.718 26.3749 53.6778 26.577H51.0984V28.0944H53.149C53.1876 28.2936 53.2072 28.4959 53.2078 28.6987C53.2082 28.9046 53.1886 29.1101 53.149 29.3123H51.0984V31.1609H53.7517C53.792 31.3567 53.8123 31.556 53.8123 31.7558C53.8127 31.9618 53.7924 32.1674 53.7517 32.3695H49.6543V25.3702Z" fill="#697588"/>
<path d="M54.8945 25.3702C55.0861 25.3318 55.2809 25.3117 55.4764 25.3103C55.6812 25.3114 55.8855 25.3314 56.0866 25.3702L58.829 29.8287V25.3702C59.0537 25.3316 59.2812 25.3115 59.5093 25.3103C59.708 25.3102 59.9061 25.3303 60.1006 25.3702V32.3676C59.9132 32.4032 59.7229 32.4226 59.5321 32.4256C59.3305 32.4233 59.1295 32.4039 58.9313 32.3676L56.17 27.9184V32.3676C55.9586 32.4057 55.7443 32.4251 55.5294 32.4256C55.3177 32.4255 55.1064 32.4061 54.8983 32.3676L54.8945 25.3702Z" fill="#697588"/>
<path d="M66.1661 31.0447C66.251 31.2261 66.3214 31.4138 66.3764 31.606C66.433 31.7959 66.4748 31.9898 66.5015 32.186C66.203 32.2977 65.8937 32.3792 65.5786 32.4292C65.286 32.4696 64.9908 32.4889 64.6954 32.4872C64.1925 32.4972 63.6928 32.4062 63.2266 32.2197C62.8208 32.0524 62.4586 31.7965 62.1672 31.4713C61.8738 31.1386 61.6537 30.7493 61.5209 30.3282C61.3732 29.862 61.3003 29.3759 61.3049 28.8875C61.3007 28.3966 61.3769 27.9082 61.5304 27.4413C61.6706 27.0185 61.8933 26.6269 62.1862 26.2888C62.4762 25.961 62.8369 25.7014 63.2418 25.5292C63.6923 25.3408 64.1778 25.2478 64.667 25.256C64.9586 25.255 65.2499 25.2744 65.5388 25.314C65.8356 25.3619 66.1256 25.4442 66.403 25.5591C66.3891 25.7507 66.3489 25.9395 66.2836 26.1204C66.2172 26.3075 66.1452 26.4946 66.0675 26.6817C65.868 26.6116 65.6633 26.5566 65.4554 26.517C65.247 26.4815 65.0357 26.4652 64.8243 26.4684C64.1925 26.4684 63.708 26.6711 63.3707 27.0764C63.0333 27.4818 62.864 28.0836 62.8627 28.8819C62.8627 30.4647 63.5431 31.2562 64.9039 31.2562C65.1184 31.259 65.3328 31.2427 65.5444 31.2075C65.7556 31.1694 65.9635 31.1149 66.1661 31.0447V31.0447Z" fill="#697588"/>
<path d="M67.6426 25.3702C67.9325 25.3365 68.2111 25.3103 68.4556 25.286C68.7001 25.2617 68.9901 25.2523 69.299 25.2523C69.6581 25.2527 70.0165 25.2853 70.3698 25.3496C70.7036 25.4099 71.0242 25.527 71.3174 25.6957C71.5985 25.8598 71.8337 26.0907 72.0015 26.3674C72.1874 26.6954 72.2779 27.0677 72.263 27.4432C72.2674 27.6758 72.2341 27.9076 72.1645 28.1299C72.0522 28.4759 71.8519 28.7877 71.5827 29.0354C71.4796 29.1314 71.3672 29.2173 71.2472 29.2917L71.0805 29.4002L72.8051 32.3582L72.3919 32.3975C72.2479 32.4106 72.0982 32.4181 71.9485 32.4181C71.7008 32.418 71.4536 32.398 71.2093 32.3582L69.3634 29.1084L69.6003 28.9905C69.6932 28.9456 69.805 28.8876 69.9358 28.8146C70.0719 28.7398 70.1991 28.6501 70.3148 28.5471C70.4397 28.4358 70.5442 28.3042 70.6237 28.1579C70.738 27.9234 70.7777 27.6602 70.7374 27.403C70.6972 27.1459 70.5789 26.9068 70.3982 26.7173C70.136 26.5184 69.8112 26.417 69.4809 26.431C69.349 26.4301 69.2172 26.4395 69.0867 26.4591V32.3676C68.9673 32.3788 68.8498 32.3919 68.7304 32.4012C68.611 32.4106 68.4973 32.4162 68.3855 32.4162C68.2737 32.4162 68.1562 32.4162 68.0311 32.405C67.906 32.3938 67.7771 32.3863 67.6521 32.3676L67.6426 25.3702Z" fill="#697588"/>
<path d="M75.0184 29.8661L72.8086 25.3758C73.0829 25.3364 73.3596 25.3164 73.6368 25.3159C73.8907 25.3159 74.1442 25.3359 74.3949 25.3758L75.7954 28.5564L77.1751 25.3758C77.4226 25.3358 77.673 25.3158 77.9237 25.3159C78.1775 25.3177 78.4309 25.3377 78.6818 25.3758L76.4739 29.8661V32.3788C76.3475 32.3975 76.2212 32.4106 76.0949 32.4181C75.9774 32.4181 75.858 32.4181 75.7405 32.4181C75.623 32.4181 75.5111 32.4181 75.3898 32.4181C75.2686 32.4181 75.1454 32.3975 75.0108 32.3788L75.0184 29.8661Z" fill="#697588"/>
<path d="M79.4648 25.3403C79.7681 25.3141 80.0732 25.2935 80.3821 25.2766C80.691 25.2598 81.0037 25.2523 81.3202 25.2523C81.6555 25.2536 81.9899 25.2862 82.319 25.3496C82.6462 25.41 82.958 25.5341 83.2363 25.7144C83.5187 25.9047 83.7481 26.1621 83.9034 26.4628C84.0887 26.8486 84.1764 27.2729 84.1592 27.6995C84.1772 28.1244 84.0893 28.5471 83.9034 28.9306C83.7481 29.2296 83.521 29.4866 83.242 29.679C82.9706 29.8637 82.6634 29.9911 82.3399 30.0532C82.0167 30.1175 81.6878 30.1501 81.3581 30.1505C81.2729 30.1505 81.1933 30.1505 81.1175 30.1505C81.0416 30.1505 80.9696 30.1505 80.9052 30.1374V32.3825C80.784 32.4012 80.6619 32.4137 80.5394 32.42C80.4219 32.42 80.3063 32.4312 80.1945 32.4312C80.0827 32.4312 79.9747 32.4312 79.8496 32.42C79.7245 32.4087 79.5975 32.4012 79.4705 32.3825L79.4648 25.3403ZM80.9052 28.9418C80.9784 28.9547 81.0526 28.9616 81.1269 28.9624H81.379C81.5422 28.9619 81.7046 28.9405 81.8623 28.8988C82.015 28.8581 82.1575 28.7868 82.2811 28.6893C82.4073 28.5853 82.5067 28.4532 82.5711 28.3038C82.6482 28.1176 82.685 27.9175 82.6791 27.7164C82.685 27.508 82.6483 27.3005 82.5711 27.1064C82.5102 26.9565 82.4143 26.8229 82.2911 26.7165C82.1679 26.6102 82.0209 26.5341 81.8623 26.4946C81.7048 26.4521 81.5422 26.4307 81.379 26.431H81.1762L80.9052 26.4553V28.9418Z" fill="#697588"/>
<path d="M86.5946 26.577H84.8302C84.7893 26.375 84.769 26.1694 84.7695 25.9633C84.7697 25.7641 84.79 25.5655 84.8302 25.3702H89.8089C89.8484 25.5655 89.8681 25.7642 89.8676 25.9633C89.8688 26.1693 89.8491 26.3749 89.8089 26.577H88.0444V32.377C87.925 32.3882 87.8075 32.4013 87.6881 32.4106C87.5687 32.42 87.455 32.4256 87.3432 32.4256C87.2314 32.4256 87.112 32.4256 86.9831 32.4144C86.8543 32.4032 86.7254 32.3957 86.5946 32.377V26.577Z" fill="#697588"/>
<path d="M90.8047 25.3702C91.0427 25.3311 91.2836 25.311 91.5249 25.3103C91.7693 25.3113 92.0133 25.3313 92.2545 25.3702V32.3676C91.7744 32.4449 91.2848 32.4449 90.8047 32.3676V25.3702Z" fill="#697588"/>
<path d="M96.5233 32.4855C96.0485 32.497 95.5771 32.4037 95.1436 32.2123C94.7717 32.0411 94.4467 31.7845 94.196 31.4639C93.9367 31.1236 93.7474 30.7366 93.6388 30.3245C93.511 29.8567 93.4472 29.374 93.4493 28.8895C93.4477 28.4013 93.5114 27.915 93.6388 27.4432C93.7466 27.0268 93.9359 26.6353 94.196 26.2907C94.4447 25.9654 94.77 25.7047 95.1436 25.5311C95.5806 25.3508 96.0496 25.2579 96.5233 25.2579C96.9969 25.2579 97.4659 25.3508 97.903 25.5311C98.2766 25.7047 98.6018 25.9654 98.8506 26.2907C99.1106 26.6353 99.2999 27.0268 99.4077 27.4432C99.5351 27.915 99.5988 28.4013 99.5973 28.8895C99.5993 29.374 99.5355 29.8567 99.4077 30.3245C99.2991 30.7366 99.1098 31.1236 98.8506 31.4639C98.5998 31.7845 98.2749 32.0411 97.903 32.2123C97.4694 32.4037 96.998 32.497 96.5233 32.4855V32.4855ZM96.5233 31.2974C97.5429 31.2974 98.052 30.4929 98.0508 28.8839C98.0508 28.0793 97.9244 27.4756 97.6717 27.0728C97.555 26.8778 97.386 26.7183 97.1834 26.612C96.9807 26.5057 96.7523 26.4567 96.5233 26.4703C95.4923 26.4703 94.9762 27.2748 94.9749 28.8839C94.9736 30.4929 95.4898 31.2974 96.5233 31.2974Z" fill="#697588"/>
<path d="M100.795 25.3702C100.986 25.3318 101.181 25.3117 101.377 25.3103C101.582 25.3114 101.786 25.3314 101.987 25.3702L104.729 29.8287V25.3702C104.954 25.3316 105.182 25.3115 105.41 25.3103C105.608 25.3102 105.807 25.3303 106.001 25.3702V32.3676C105.814 32.4032 105.623 32.4226 105.432 32.4256C105.231 32.4233 105.03 32.4039 104.832 32.3676L102.07 27.9184V32.3676C101.859 32.4057 101.645 32.4251 101.43 32.4256C101.218 32.4255 101.007 32.4061 100.799 32.3676L100.795 25.3702Z" fill="#697588"/>
</g>
<defs>
<clipPath id="clip0">
<rect width="106" height="35" fill="white"/>
</clipPath>
</defs>
</svg>
