<svg class="sidebar-icon" width="20" height="20" viewBox="0 0 20 20" fill="none" xmlns="http://www.w3.org/2000/svg">
<path class="sidebar-icon" d="M3.125 7.5C1.74429 7.5 0.625 8.61929 0.625 10V12.5C0.625 13.8807 1.74429 15 3.125 15H3.75C4.09518 15 4.375 14.7202 4.375 14.375V8.125C4.375 7.77982 4.09518 7.5 3.75 7.5H3.125ZM3.125 7.5C3.125 3.70304 6.20304 0.625 10 0.625C11.8234 0.625 13.572 1.34933 14.8614 2.63864C16.1507 3.92795 16.875 5.67664 16.875 7.5M16.875 15H16.25C15.9048 15 15.625 14.7202 15.625 14.375V8.125C15.625 7.77982 15.9048 7.5 16.25 7.5H16.875M16.875 15C18.2557 15 19.375 13.8807 19.375 12.5V10C19.375 8.61929 18.2557 7.5 16.875 7.5M16.875 15V15.625C16.875 17.0057 15.7557 18.125 14.375 18.125H12.5M12.5 18.125C12.5 17.4346 11.9404 16.875 11.25 16.875H10C9.30964 16.875 8.75 17.4346 8.75 18.125C8.75 18.8154 9.30964 19.375 10 19.375H11.25C11.9404 19.375 12.5 18.8154 12.5 18.125Z" stroke="#969EAC" stroke-linecap="round" stroke-linejoin="round"/>
</svg>
