<svg width="22" height="18" viewBox="0 0 22 18" fill="none" xmlns="http://www.w3.org/2000/svg">
<path fill-rule="evenodd" clip-rule="evenodd" d="M20.3164 4.59147L18.5664 3.84147L19.4831 1.84147L17.3497 2.5498C16.6702 1.91641 15.7786 1.55976 14.8497 1.5498C12.7806 1.55439 11.1043 3.23064 11.0997 5.2998V6.13314C8.14974 6.74147 5.57474 5.13314 3.18307 2.38314C2.76641 4.60536 3.18307 6.27203 4.43307 7.38314L1.69141 6.96647C1.91001 8.78812 3.40153 10.1919 5.23307 10.2998L2.94141 11.1331C3.77474 12.7998 5.29141 13.0581 7.31641 13.2165C5.66126 14.3454 3.69438 14.9282 1.69141 14.8831C12.3247 19.6081 18.5664 12.6665 18.5664 6.5498V5.85814L20.3164 4.59147Z" stroke="white" stroke-width="1.5" stroke-linecap="round" stroke-linejoin="round"/>
</svg>
