<svg width="20" height="20" viewBox="0 0 20 20" fill="none" xmlns="http://www.w3.org/2000/svg">
<path d="M10.0026 2C9.82253 2 9.65124 2.07764 9.53257 2.21302L6.00924 7.36302C5.91052 7.50766 5.75566 7.60425 5.58235 7.62928C5.40904 7.65431 5.23317 7.60548 5.09757 7.49469L1.53007 4.77802C1.32212 4.67399 1.07361 4.69399 0.884981 4.82995C0.696353 4.96591 0.598794 5.19535 0.631736 5.42552L1.73174 13.7189M10 2C10.18 2 10.3513 2.07764 10.47 2.21302L13.9933 7.36302C14.092 7.50766 14.2469 7.60425 14.4202 7.62928C14.5935 7.65431 14.7694 7.60548 14.905 7.49469L18.4725 4.77802C18.6805 4.67399 18.929 4.69399 19.1176 4.82995C19.3062 4.96591 19.4038 5.19535 19.3708 5.42552L18.2708 13.7189M2.5 13.5505C1.46447 13.5505 0.625 14.39 0.625 15.4255C0.625 16.4611 1.46447 17.3005 2.5 17.3005H17.5026C18.5381 17.3005 19.3776 16.4611 19.3776 15.4255C19.3776 14.39 18.5381 13.5505 17.5026 13.5505H2.5Z" stroke="#534CEA" stroke-linecap="round" stroke-linejoin="round"/>
</svg>
