<?xml version="1.0" standalone="no"?>
<!DOCTYPE svg PUBLIC "-//W3C//DTD SVG 20010904//EN"
 "http://www.w3.org/TR/2001/REC-SVG-20010904/DTD/svg10.dtd">
<svg version="1.0" xmlns="http://www.w3.org/2000/svg"
 width="700.000000pt" height="700.000000pt" viewBox="0 0 700.000000 700.000000"
 preserveAspectRatio="xMidYMid meet">
<metadata>
Created by potrace 1.11, written by Peter Selinger 2001-2013
</metadata>
<g transform="translate(0.000000,700.000000) scale(0.100000,-0.100000)"
fill="#000000" stroke="none">
<path d="M2579 6378 c-35 -49 -71 -100 -79 -112 -23 -33 -637 -899 -938 -1324
-246 -347 -286 -412 -253 -412 4 0 16 -7 27 -16 11 -9 4 -8 -18 4 -44 25 -40
28 -102 -95 -104 -208 -201 -491 -231 -673 -3 -19 -8 -42 -10 -50 -2 -8 -7
-37 -10 -65 -3 -27 -7 -61 -10 -74 -8 -45 -19 -224 -19 -326 0 -168 11 -296
39 -460 24 -138 24 -138 60 -265 124 -434 352 -825 665 -1139 142 -143 168
-166 299 -264 325 -242 678 -401 1075 -482 43 -8 98 -18 121 -21 24 -2 54 -7
66 -9 43 -9 242 -19 349 -19 570 3 1115 188 1577 535 550 414 920 1032 1027
1715 19 121 30 268 30 424 l1 115 -1070 5 -1070 5 130 74 c72 40 146 82 165
94 19 11 55 31 80 45 25 14 57 33 72 43 14 11 29 19 32 19 4 0 23 10 44 23 20
13 62 37 92 54 30 17 127 72 215 123 88 51 176 101 195 112 19 11 96 55 170
98 74 43 151 86 170 97 19 11 109 63 200 115 91 53 182 105 203 117 31 17 76
44 95 57 3 2 -299 428 -433 609 -28 39 -114 158 -191 265 -76 107 -141 197
-144 200 -3 3 -14 19 -26 35 -11 17 -133 185 -269 375 -137 190 -280 389 -318
442 -38 54 -72 96 -76 94 -3 -2 -103 -61 -221 -131 -218 -130 -273 -163 -322
-197 -15 -10 -29 -18 -32 -18 -2 0 -81 -47 -176 -104 l-173 -104 -86 52 c-48
29 -107 64 -131 78 -25 14 -137 80 -249 147 -112 66 -205 121 -206 121 -1 0
-49 29 -106 63 -57 35 -118 71 -135 80 l-31 16 -64 -91z m365 -399 l210 -124
-45 -8 c-98 -19 -220 -50 -329 -84 -113 -35 -334 -126 -398 -164 -18 -10 -30
-13 -26 -7 7 12 117 168 297 421 38 53 72 95 75 93 4 -2 101 -59 216 -127z
m1611 -25 c61 -85 142 -198 182 -252 39 -53 70 -98 69 -100 -2 -1 -43 16 -92
39 -139 64 -315 128 -449 163 -62 15 -68 17 -172 37 -35 7 -63 15 -63 18 1 6
400 249 410 250 3 0 55 -70 115 -155z m-700 -347 c11 -2 41 -7 66 -11 75 -11
128 -21 224 -40 59 -13 232 -68 315 -101 233 -93 507 -255 657 -389 39 -35 41
-46 11 -73 -13 -11 -126 -125 -253 -255 -126 -129 -405 -414 -620 -632 -214
-219 -452 -462 -528 -540 l-137 -141 -141 145 c-78 80 -300 306 -493 503 -193
197 -427 435 -519 530 -92 95 -224 229 -292 298 l-125 125 33 31 c41 39 203
157 288 210 98 61 340 176 454 216 141 50 300 90 400 103 22 3 46 7 54 10 8 2
50 7 95 10 45 4 83 8 86 11 5 5 397 -4 425 -10z m-1947 -844 c41 -43 226 -233
412 -423 478 -489 498 -510 493 -510 -3 0 -78 41 -167 92 -88 50 -186 105
-216 121 -30 17 -67 38 -82 49 -14 10 -28 18 -31 18 -2 0 -49 25 -103 56 -55
31 -124 70 -154 87 -48 27 -209 117 -265 149 -157 89 -195 113 -195 120 0 5
14 28 31 51 17 23 66 93 110 155 44 61 83 112 86 112 3 0 40 -35 81 -77z
m3500 7 c9 -14 51 -73 93 -131 l77 -105 -43 -27 c-23 -15 -47 -27 -54 -27 -6
0 -11 -3 -11 -7 0 -5 -10 -13 -23 -19 -12 -6 -193 -109 -402 -229 -209 -121
-407 -234 -440 -253 -33 -18 -94 -53 -135 -76 -41 -24 -76 -42 -78 -41 -1 1
70 76 158 166 89 90 306 312 483 492 l321 328 18 -23 c11 -13 27 -34 36 -48z
m-3910 -510 c20 -11 51 -29 67 -39 17 -9 66 -37 110 -61 44 -23 85 -46 90 -50
8 -6 428 -244 615 -348 25 -14 142 -80 260 -147 352 -199 453 -257 490 -278
94 -52 297 -168 310 -176 13 -9 15 -153 15 -1148 1 -626 -1 -1144 -3 -1151 -4
-11 -20 -12 -71 -7 -83 8 -201 24 -221 30 -8 2 -30 7 -47 10 -92 15 -301 74
-368 104 -11 5 -54 23 -95 41 -562 239 -1029 712 -1264 1282 -58 140 -113 321
-131 428 -3 19 -8 42 -10 50 -4 14 -13 72 -21 130 -22 163 -22 494 0 605 2 11
7 40 10 65 3 25 8 56 11 70 3 14 10 50 16 80 27 141 167 530 190 530 6 0 26
-9 47 -20z m4467 -1243 c-4 -45 -8 -89 -10 -97 -1 -8 -8 -49 -15 -90 -62 -384
-241 -781 -495 -1095 -320 -395 -749 -675 -1240 -808 -49 -14 -106 -28 -125
-31 -19 -3 -46 -8 -60 -11 -60 -12 -78 -15 -135 -22 -33 -3 -82 -7 -110 -7
l-50 -1 0 1105 c-1 608 1 1112 3 1121 3 16 93 17 1124 17 l1119 0 -6 -81z"/>
</g>
</svg>
