<svg width="206" height="370" viewBox="0 0 206 370" fill="none" xmlns="http://www.w3.org/2000/svg">
<g filter="url(#filter0_di)">
<rect x="-242" y="6" width="440" height="354" rx="6" fill="white"/>
</g>
<path d="M108.268 326.492V325.386C108.847 325.489 109.3 325.512 109.626 325.456C109.962 325.409 110.196 325.251 110.326 324.98C110.466 324.719 110.536 324.322 110.536 323.79V314.032H111.838V323.79C111.838 324.583 111.722 325.199 111.488 325.638C111.255 326.086 110.877 326.375 110.354 326.506C109.841 326.637 109.146 326.632 108.268 326.492ZM116.597 324.098C115.748 324.098 115.109 323.865 114.679 323.398C114.259 322.922 114.049 322.222 114.049 321.298V316.958H115.323V321.284C115.323 321.891 115.445 322.339 115.687 322.628C115.939 322.908 116.322 323.048 116.835 323.048C117.433 323.048 117.913 322.857 118.277 322.474C118.641 322.082 118.823 321.564 118.823 320.92V316.958H120.111V324H118.865V322.488L119.033 322.418C118.847 322.969 118.534 323.389 118.095 323.678C117.657 323.958 117.157 324.098 116.597 324.098ZM122.226 324V318.932C122.226 318.605 122.217 318.279 122.198 317.952C122.189 317.616 122.161 317.285 122.114 316.958H123.318L123.444 318.4L123.304 318.484C123.509 317.933 123.836 317.513 124.284 317.224C124.741 316.925 125.264 316.776 125.852 316.776C127.541 316.776 128.386 317.714 128.386 319.59V324H127.112V319.66C127.112 319.025 126.986 318.563 126.734 318.274C126.491 317.975 126.099 317.826 125.558 317.826C124.933 317.826 124.433 318.022 124.06 318.414C123.687 318.797 123.5 319.315 123.5 319.968V324H122.226ZM134.218 324V323.02L137.69 319.212C138.138 318.708 138.464 318.255 138.67 317.854C138.884 317.443 138.992 317.033 138.992 316.622C138.992 316.099 138.838 315.698 138.53 315.418C138.222 315.129 137.788 314.984 137.228 314.984C136.752 314.984 136.28 315.082 135.814 315.278C135.347 315.465 134.885 315.745 134.428 316.118L133.952 315.138C134.344 314.765 134.838 314.471 135.436 314.256C136.042 314.032 136.649 313.92 137.256 313.92C137.881 313.92 138.418 314.027 138.866 314.242C139.314 314.447 139.664 314.751 139.916 315.152C140.168 315.544 140.294 316.011 140.294 316.552C140.294 317.121 140.163 317.667 139.902 318.19C139.65 318.713 139.23 319.301 138.642 319.954L135.352 323.496L135.24 322.922H140.7V324H134.218ZM145.692 324.112C144.544 324.112 143.672 323.683 143.074 322.824C142.477 321.956 142.178 320.687 142.178 319.016C142.178 317.345 142.472 316.081 143.06 315.222C143.658 314.354 144.535 313.92 145.692 313.92C146.85 313.92 147.722 314.354 148.31 315.222C148.908 316.081 149.206 317.341 149.206 319.002C149.206 320.673 148.908 321.942 148.31 322.81C147.713 323.678 146.84 324.112 145.692 324.112ZM145.692 323.048C146.448 323.048 147.004 322.721 147.358 322.068C147.722 321.415 147.904 320.393 147.904 319.002C147.904 317.611 147.722 316.599 147.358 315.964C147.004 315.32 146.448 314.998 145.692 314.998C144.936 314.998 144.376 315.32 144.012 315.964C143.658 316.608 143.48 317.621 143.48 319.002C143.48 320.393 143.658 321.415 144.012 322.068C144.376 322.721 144.936 323.048 145.692 323.048ZM151.007 324V323.02L154.479 319.212C154.927 318.708 155.253 318.255 155.459 317.854C155.673 317.443 155.781 317.033 155.781 316.622C155.781 316.099 155.627 315.698 155.319 315.418C155.011 315.129 154.577 314.984 154.017 314.984C153.541 314.984 153.069 315.082 152.603 315.278C152.136 315.465 151.674 315.745 151.217 316.118L150.741 315.138C151.133 314.765 151.627 314.471 152.225 314.256C152.831 314.032 153.438 313.92 154.045 313.92C154.67 313.92 155.207 314.027 155.655 314.242C156.103 314.447 156.453 314.751 156.705 315.152C156.957 315.544 157.083 316.011 157.083 316.552C157.083 317.121 156.952 317.667 156.691 318.19C156.439 318.713 156.019 319.301 155.431 319.954L152.141 323.496L152.029 322.922H157.489V324H151.007ZM162.481 324.112C161.333 324.112 160.461 323.683 159.863 322.824C159.266 321.956 158.967 320.687 158.967 319.016C158.967 317.345 159.261 316.081 159.849 315.222C160.447 314.354 161.324 313.92 162.481 313.92C163.639 313.92 164.511 314.354 165.099 315.222C165.697 316.081 165.995 317.341 165.995 319.002C165.995 320.673 165.697 321.942 165.099 322.81C164.502 323.678 163.629 324.112 162.481 324.112ZM162.481 323.048C163.237 323.048 163.793 322.721 164.147 322.068C164.511 321.415 164.693 320.393 164.693 319.002C164.693 317.611 164.511 316.599 164.147 315.964C163.793 315.32 163.237 314.998 162.481 314.998C161.725 314.998 161.165 315.32 160.801 315.964C160.447 316.608 160.269 317.621 160.269 319.002C160.269 320.393 160.447 321.415 160.801 322.068C161.165 322.721 161.725 323.048 162.481 323.048Z" fill="#969EAC"/>
<path d="M-0.335062 324V314.032H0.728938L4.70494 323.09H4.14494L8.09294 314.032H9.14294V324H7.96694V315.796L8.40094 315.852L4.85894 324H3.96294L0.364938 315.852L0.840938 315.796L0.854938 324H-0.335062ZM14.1078 324.098C13.4918 324.098 12.9458 323.953 12.4698 323.664C12.0031 323.365 11.6391 322.945 11.3778 322.404C11.1165 321.853 10.9858 321.209 10.9858 320.472C10.9858 319.735 11.1165 319.091 11.3778 318.54C11.6485 317.989 12.0171 317.56 12.4838 317.252C12.9598 316.935 13.5011 316.776 14.1078 316.776C14.7425 316.776 15.2838 316.935 15.7318 317.252C16.1798 317.56 16.4831 318.003 16.6418 318.582L16.4738 318.68V316.958H17.7338V324H16.4738V322.236L16.6418 322.306C16.4831 322.875 16.1798 323.319 15.7318 323.636C15.2838 323.944 14.7425 324.098 14.1078 324.098ZM14.3878 323.062C15.0598 323.062 15.5731 322.838 15.9278 322.39C16.2918 321.933 16.4738 321.284 16.4738 320.444C16.4738 319.604 16.2918 318.96 15.9278 318.512C15.5638 318.055 15.0505 317.826 14.3878 317.826C13.7251 317.826 13.2071 318.059 12.8338 318.526C12.4605 318.993 12.2738 319.641 12.2738 320.472C12.2738 321.303 12.4605 321.942 12.8338 322.39C13.2071 322.838 13.7251 323.062 14.3878 323.062ZM19.547 327.178L19.281 326.198C19.7103 326.095 20.0697 325.974 20.359 325.834C20.6577 325.703 20.905 325.531 21.101 325.316C21.297 325.111 21.4697 324.835 21.619 324.49L22.081 323.44L22.375 323.02L24.881 316.958H26.155L22.865 324.602C22.613 325.181 22.3237 325.643 21.997 325.988C21.6703 326.343 21.3017 326.609 20.891 326.786C20.4897 326.963 20.0417 327.094 19.547 327.178ZM22.095 324.392L18.917 316.958H20.247L22.725 323.02L22.095 324.392ZM31.0809 324V323.02L34.5529 319.212C35.0009 318.708 35.3276 318.255 35.5329 317.854C35.7476 317.443 35.8549 317.033 35.8549 316.622C35.8549 316.099 35.7009 315.698 35.3929 315.418C35.0849 315.129 34.6509 314.984 34.0909 314.984C33.6149 314.984 33.1436 315.082 32.6769 315.278C32.2103 315.465 31.7483 315.745 31.2909 316.118L30.8149 315.138C31.2069 314.765 31.7016 314.471 32.2989 314.256C32.9056 314.032 33.5123 313.92 34.1189 313.92C34.7443 313.92 35.2809 314.027 35.7289 314.242C36.1769 314.447 36.5269 314.751 36.7789 315.152C37.0309 315.544 37.1569 316.011 37.1569 316.552C37.1569 317.121 37.0263 317.667 36.7649 318.19C36.5129 318.713 36.0929 319.301 35.5049 319.954L32.2149 323.496L32.1029 322.922H37.5629V324H31.0809ZM42.5555 324.112C41.4075 324.112 40.5348 323.683 39.9375 322.824C39.3401 321.956 39.0415 320.687 39.0415 319.016C39.0415 317.345 39.3355 316.081 39.9235 315.222C40.5208 314.354 41.3981 313.92 42.5555 313.92C43.7128 313.92 44.5855 314.354 45.1735 315.222C45.7708 316.081 46.0695 317.341 46.0695 319.002C46.0695 320.673 45.7708 321.942 45.1735 322.81C44.5761 323.678 43.7035 324.112 42.5555 324.112ZM42.5555 323.048C43.3115 323.048 43.8668 322.721 44.2215 322.068C44.5855 321.415 44.7675 320.393 44.7675 319.002C44.7675 317.611 44.5855 316.599 44.2215 315.964C43.8668 315.32 43.3115 314.998 42.5555 314.998C41.7995 314.998 41.2395 315.32 40.8755 315.964C40.5208 316.608 40.3435 317.621 40.3435 319.002C40.3435 320.393 40.5208 321.415 40.8755 322.068C41.2395 322.721 41.7995 323.048 42.5555 323.048ZM47.87 324V323.02L51.342 319.212C51.79 318.708 52.1167 318.255 52.322 317.854C52.5367 317.443 52.644 317.033 52.644 316.622C52.644 316.099 52.49 315.698 52.182 315.418C51.874 315.129 51.44 314.984 50.88 314.984C50.404 314.984 49.9327 315.082 49.466 315.278C48.9993 315.465 48.5373 315.745 48.08 316.118L47.604 315.138C47.996 314.765 48.4907 314.471 49.088 314.256C49.6947 314.032 50.3013 313.92 50.908 313.92C51.5333 313.92 52.07 314.027 52.518 314.242C52.966 314.447 53.316 314.751 53.568 315.152C53.82 315.544 53.946 316.011 53.946 316.552C53.946 317.121 53.8153 317.667 53.554 318.19C53.302 318.713 52.882 319.301 52.294 319.954L49.004 323.496L48.892 322.922H54.352V324H47.87ZM59.3445 324.112C58.1965 324.112 57.3239 323.683 56.7265 322.824C56.1292 321.956 55.8305 320.687 55.8305 319.016C55.8305 317.345 56.1245 316.081 56.7125 315.222C57.3099 314.354 58.1872 313.92 59.3445 313.92C60.5019 313.92 61.3745 314.354 61.9625 315.222C62.5599 316.081 62.8585 317.341 62.8585 319.002C62.8585 320.673 62.5599 321.942 61.9625 322.81C61.3652 323.678 60.4925 324.112 59.3445 324.112ZM59.3445 323.048C60.1005 323.048 60.6559 322.721 61.0105 322.068C61.3745 321.415 61.5565 320.393 61.5565 319.002C61.5565 317.611 61.3745 316.599 61.0105 315.964C60.6559 315.32 60.1005 314.998 59.3445 314.998C58.5885 314.998 58.0285 315.32 57.6645 315.964C57.3099 316.608 57.1325 317.621 57.1325 319.002C57.1325 320.393 57.3099 321.415 57.6645 322.068C58.0285 322.721 58.5885 323.048 59.3445 323.048Z" fill="#969EAC"/>
<path opacity="0.24" d="M-202 294H158" stroke="#969EAC"/>
<path opacity="0.1" d="M-202 258H158" stroke="#969EAC"/>
<path opacity="0.1" d="M-202 222H158" stroke="#969EAC"/>
<path opacity="0.1" d="M-202 186H158" stroke="#969EAC"/>
<path opacity="0.1" d="M-202 150H158" stroke="#969EAC"/>
<path opacity="0.1" d="M-202 114H158" stroke="#969EAC"/>
<path opacity="0.1" d="M-202 78H158" stroke="#969EAC"/>
<path opacity="0.1" d="M-202 42H158" stroke="#969EAC"/>
<path d="M148 136C148 134.895 148.895 134 150 134H156C157.105 134 158 134.895 158 136V294H148V136Z" fill="#D3365F"/>
<path d="M132 44C132 42.8954 132.895 42 134 42H140C141.105 42 142 42.8954 142 44V294H132V44Z" fill="#235EE7"/>
<path d="M116 270C116 268.895 116.895 268 118 268H124C125.105 268 126 268.895 126 270V294H116V270Z" fill="#29CFD6"/>
<path d="M42 84C42 82.8954 42.8954 82 44 82H50C51.1046 82 52 82.8954 52 84V294H42V84Z" fill="#D3365F"/>
<path d="M26 116C26 114.895 26.8954 114 28 114H34C35.1046 114 36 114.895 36 116V294H26V116Z" fill="#235EE7"/>
<path d="M10 178C10 176.895 10.8954 176 12 176H18C19.1046 176 20 176.895 20 178V294H10V178Z" fill="#29CFD6"/>
<defs>
<filter id="filter0_di" x="-250" y="0" width="456" height="370" filterUnits="userSpaceOnUse" color-interpolation-filters="sRGB">
<feFlood flood-opacity="0" result="BackgroundImageFix"/>
<feColorMatrix in="SourceAlpha" type="matrix" values="0 0 0 0 0 0 0 0 0 0 0 0 0 0 0 0 0 0 127 0"/>
<feOffset dy="2"/>
<feGaussianBlur stdDeviation="4"/>
<feColorMatrix type="matrix" values="0 0 0 0 0 0 0 0 0 0 0 0 0 0 0 0 0 0 1 0"/>
<feBlend mode="normal" in2="BackgroundImageFix" result="effect1_dropShadow"/>
<feBlend mode="normal" in="SourceGraphic" in2="effect1_dropShadow" result="shape"/>
<feColorMatrix in="SourceAlpha" type="matrix" values="0 0 0 0 0 0 0 0 0 0 0 0 0 0 0 0 0 0 127 0" result="hardAlpha"/>
<feOffset dy="-1"/>
<feComposite in2="hardAlpha" operator="arithmetic" k2="-1" k3="1"/>
<feColorMatrix type="matrix" values="0 0 0 0 0.921569 0 0 0 0 0.92549 0 0 0 0 0.945098 0 0 0 1 0"/>
<feBlend mode="normal" in2="shape" result="effect2_innerShadow"/>
</filter>
</defs>
</svg>
