<svg width="220" height="333" viewBox="0 0 220 333" fill="none"
    xmlns="http://www.w3.org/2000/svg">
    <path d="M41.5 24C14.3796 24 -12.263 31.1389 -35.75 44.6991C-59.237 58.2593 -78.7407 77.763 -92.3009 101.25L-38.7806 132.15C-30.6444 118.058 -18.9422 106.356 -4.85001 98.2194C9.24218 90.0833 25.2278 85.8 41.5 85.8V24Z" fill="#D3365F"/>
    <path d="M-35.75 312.301C-18.179 322.446 1.21804 329.03 21.3337 331.678C41.4493 334.327 61.8896 332.987 81.4875 327.736C101.085 322.484 119.457 313.424 135.554 301.073C151.65 288.722 165.156 273.321 175.301 255.75L121.781 224.85C115.694 235.393 107.59 244.633 97.9322 252.044C88.2743 259.455 77.2513 264.891 65.4925 268.041C53.7338 271.192 41.4696 271.996 29.4002 270.407C17.3308 268.818 5.69259 264.867 -4.85001 258.781L-35.75 312.301Z" fill="#1F32AD"/>
    <g filter="url(#filter0_d)">
        <path d="M175.301 255.75C188.861 232.263 196 205.62 196 178.5C196 151.38 188.861 124.737 175.301 101.25C161.741 77.763 142.237 58.2593 118.75 44.6991C95.263 31.1389 68.6204 24 41.5 24V85.8C57.7722 85.8 73.7578 90.0833 87.85 98.2194C101.942 106.356 113.644 118.058 121.781 132.15C129.917 146.242 134.2 162.228 134.2 178.5C134.2 194.772 129.917 210.758 121.781 224.85L175.301 255.75Z" fill="#235EE7"/>
    </g>
    <defs>
        <filter id="filter0_d" x="1.5" y="0" width="218.5" height="295.75" filterUnits="userSpaceOnUse" color-interpolation-filters="sRGB">
            <feFlood flood-opacity="0" result="BackgroundImageFix"/>
            <feColorMatrix in="SourceAlpha" type="matrix" values="0 0 0 0 0 0 0 0 0 0 0 0 0 0 0 0 0 0 127 0"/>
            <feOffset dx="-8" dy="8"/>
            <feGaussianBlur stdDeviation="16"/>
            <feColorMatrix type="matrix" values="0 0 0 0 0.32549 0 0 0 0 0.298039 0 0 0 0 0.917647 0 0 0 0.2 0"/>
            <feBlend mode="normal" in2="BackgroundImageFix" result="effect1_dropShadow"/>
            <feBlend mode="normal" in="SourceGraphic" in2="effect1_dropShadow" result="shape"/>
        </filter>
    </defs>
</svg>
