<svg width="60" height="60" viewBox="0 0 60 60" fill="none" xmlns="http://www.w3.org/2000/svg">
<circle cx="30" cy="30" r="29.25" stroke="#534CEA" stroke-width="1.5"/>
<path d="M21.118 21.254C22.1128 20.8611 23.1439 20.5437 24.2 20.3052L38.769 33.3193C38.0577 34.7638 36.9862 36.0489 35.634 37.0794L20.25 23.5433V22.4528M21.118 21.254C20.5857 21.4682 20.2459 21.9376 20.25 22.4528M21.118 21.254C23.9182 20.1782 26.9449 19.6351 30 19.66C33.0552 19.6351 36.0819 20.1782 38.882 21.254C39.4142 21.4684 39.754 21.9376 39.75 22.4528V29.1544C39.75 33.4905 36.7161 37.3789 32.118 38.9357L31.077 39.2877C30.0138 39.6355 30.0039 39.6391 28.923 39.2877L27.882 38.9357C23.284 37.3789 20.2501 33.4905 20.25 29.1544L20.25 22.4528" stroke="#534CEA" stroke-width="1.5" stroke-linecap="round" stroke-linejoin="round"/>
</svg>
