<svg width="351" height="370" viewBox="0 0 351 370" fill="none" xmlns="http://www.w3.org/2000/svg">
<g filter="url(#filter0_di)">
<rect x="8" y="6" width="335" height="354" rx="6" fill="white"/>
</g>
<path d="M253.518 326.492V325.386C254.097 325.489 254.55 325.512 254.876 325.456C255.212 325.409 255.446 325.251 255.576 324.98C255.716 324.719 255.786 324.322 255.786 323.79V314.032H257.088V323.79C257.088 324.583 256.972 325.199 256.738 325.638C256.505 326.086 256.127 326.375 255.604 326.506C255.091 326.637 254.396 326.632 253.518 326.492ZM261.847 324.098C260.998 324.098 260.359 323.865 259.929 323.398C259.509 322.922 259.299 322.222 259.299 321.298V316.958H260.573V321.284C260.573 321.891 260.695 322.339 260.937 322.628C261.189 322.908 261.572 323.048 262.085 323.048C262.683 323.048 263.163 322.857 263.527 322.474C263.891 322.082 264.073 321.564 264.073 320.92V316.958H265.361V324H264.115V322.488L264.283 322.418C264.097 322.969 263.784 323.389 263.345 323.678C262.907 323.958 262.407 324.098 261.847 324.098ZM267.476 324V318.932C267.476 318.605 267.467 318.279 267.448 317.952C267.439 317.616 267.411 317.285 267.364 316.958H268.568L268.694 318.4L268.554 318.484C268.759 317.933 269.086 317.513 269.534 317.224C269.991 316.925 270.514 316.776 271.102 316.776C272.791 316.776 273.636 317.714 273.636 319.59V324H272.362V319.66C272.362 319.025 272.236 318.563 271.984 318.274C271.741 317.975 271.349 317.826 270.808 317.826C270.183 317.826 269.683 318.022 269.31 318.414C268.937 318.797 268.75 319.315 268.75 319.968V324H267.476ZM279.468 324V323.02L282.94 319.212C283.388 318.708 283.714 318.255 283.92 317.854C284.134 317.443 284.242 317.033 284.242 316.622C284.242 316.099 284.088 315.698 283.78 315.418C283.472 315.129 283.038 314.984 282.478 314.984C282.002 314.984 281.53 315.082 281.064 315.278C280.597 315.465 280.135 315.745 279.678 316.118L279.202 315.138C279.594 314.765 280.088 314.471 280.686 314.256C281.292 314.032 281.899 313.92 282.506 313.92C283.131 313.92 283.668 314.027 284.116 314.242C284.564 314.447 284.914 314.751 285.166 315.152C285.418 315.544 285.544 316.011 285.544 316.552C285.544 317.121 285.413 317.667 285.152 318.19C284.9 318.713 284.48 319.301 283.892 319.954L280.602 323.496L280.49 322.922H285.95V324H279.468ZM290.942 324.112C289.794 324.112 288.922 323.683 288.324 322.824C287.727 321.956 287.428 320.687 287.428 319.016C287.428 317.345 287.722 316.081 288.31 315.222C288.908 314.354 289.785 313.92 290.942 313.92C292.1 313.92 292.972 314.354 293.56 315.222C294.158 316.081 294.456 317.341 294.456 319.002C294.456 320.673 294.158 321.942 293.56 322.81C292.963 323.678 292.09 324.112 290.942 324.112ZM290.942 323.048C291.698 323.048 292.254 322.721 292.608 322.068C292.972 321.415 293.154 320.393 293.154 319.002C293.154 317.611 292.972 316.599 292.608 315.964C292.254 315.32 291.698 314.998 290.942 314.998C290.186 314.998 289.626 315.32 289.262 315.964C288.908 316.608 288.73 317.621 288.73 319.002C288.73 320.393 288.908 321.415 289.262 322.068C289.626 322.721 290.186 323.048 290.942 323.048ZM296.257 324V323.02L299.729 319.212C300.177 318.708 300.503 318.255 300.709 317.854C300.923 317.443 301.031 317.033 301.031 316.622C301.031 316.099 300.877 315.698 300.569 315.418C300.261 315.129 299.827 314.984 299.267 314.984C298.791 314.984 298.319 315.082 297.853 315.278C297.386 315.465 296.924 315.745 296.467 316.118L295.991 315.138C296.383 314.765 296.877 314.471 297.475 314.256C298.081 314.032 298.688 313.92 299.295 313.92C299.92 313.92 300.457 314.027 300.905 314.242C301.353 314.447 301.703 314.751 301.955 315.152C302.207 315.544 302.333 316.011 302.333 316.552C302.333 317.121 302.202 317.667 301.941 318.19C301.689 318.713 301.269 319.301 300.681 319.954L297.391 323.496L297.279 322.922H302.739V324H296.257ZM307.731 324.112C306.583 324.112 305.711 323.683 305.113 322.824C304.516 321.956 304.217 320.687 304.217 319.016C304.217 317.345 304.511 316.081 305.099 315.222C305.697 314.354 306.574 313.92 307.731 313.92C308.889 313.92 309.761 314.354 310.349 315.222C310.947 316.081 311.245 317.341 311.245 319.002C311.245 320.673 310.947 321.942 310.349 322.81C309.752 323.678 308.879 324.112 307.731 324.112ZM307.731 323.048C308.487 323.048 309.043 322.721 309.397 322.068C309.761 321.415 309.943 320.393 309.943 319.002C309.943 317.611 309.761 316.599 309.397 315.964C309.043 315.32 308.487 314.998 307.731 314.998C306.975 314.998 306.415 315.32 306.051 315.964C305.697 316.608 305.519 317.621 305.519 319.002C305.519 320.393 305.697 321.415 306.051 322.068C306.415 322.721 306.975 323.048 307.731 323.048Z" fill="#969EAC"/>
<path d="M143.915 324V314.032H144.979L148.955 323.09H148.395L152.343 314.032H153.393V324H152.217V315.796L152.651 315.852L149.109 324H148.213L144.615 315.852L145.091 315.796L145.105 324H143.915ZM158.358 324.098C157.742 324.098 157.196 323.953 156.72 323.664C156.253 323.365 155.889 322.945 155.628 322.404C155.366 321.853 155.236 321.209 155.236 320.472C155.236 319.735 155.366 319.091 155.628 318.54C155.898 317.989 156.267 317.56 156.734 317.252C157.21 316.935 157.751 316.776 158.358 316.776C158.992 316.776 159.534 316.935 159.982 317.252C160.43 317.56 160.733 318.003 160.892 318.582L160.724 318.68V316.958H161.984V324H160.724V322.236L160.892 322.306C160.733 322.875 160.43 323.319 159.982 323.636C159.534 323.944 158.992 324.098 158.358 324.098ZM158.638 323.062C159.31 323.062 159.823 322.838 160.178 322.39C160.542 321.933 160.724 321.284 160.724 320.444C160.724 319.604 160.542 318.96 160.178 318.512C159.814 318.055 159.3 317.826 158.638 317.826C157.975 317.826 157.457 318.059 157.084 318.526C156.71 318.993 156.524 319.641 156.524 320.472C156.524 321.303 156.71 321.942 157.084 322.39C157.457 322.838 157.975 323.062 158.638 323.062ZM163.797 327.178L163.531 326.198C163.96 326.095 164.32 325.974 164.609 325.834C164.908 325.703 165.155 325.531 165.351 325.316C165.547 325.111 165.72 324.835 165.869 324.49L166.331 323.44L166.625 323.02L169.131 316.958H170.405L167.115 324.602C166.863 325.181 166.574 325.643 166.247 325.988C165.92 326.343 165.552 326.609 165.141 326.786C164.74 326.963 164.292 327.094 163.797 327.178ZM166.345 324.392L163.167 316.958H164.497L166.975 323.02L166.345 324.392ZM175.331 324V323.02L178.803 319.212C179.251 318.708 179.578 318.255 179.783 317.854C179.998 317.443 180.105 317.033 180.105 316.622C180.105 316.099 179.951 315.698 179.643 315.418C179.335 315.129 178.901 314.984 178.341 314.984C177.865 314.984 177.394 315.082 176.927 315.278C176.46 315.465 175.998 315.745 175.541 316.118L175.065 315.138C175.457 314.765 175.952 314.471 176.549 314.256C177.156 314.032 177.762 313.92 178.369 313.92C178.994 313.92 179.531 314.027 179.979 314.242C180.427 314.447 180.777 314.751 181.029 315.152C181.281 315.544 181.407 316.011 181.407 316.552C181.407 317.121 181.276 317.667 181.015 318.19C180.763 318.713 180.343 319.301 179.755 319.954L176.465 323.496L176.353 322.922H181.813V324H175.331ZM186.805 324.112C185.657 324.112 184.785 323.683 184.187 322.824C183.59 321.956 183.291 320.687 183.291 319.016C183.291 317.345 183.585 316.081 184.173 315.222C184.771 314.354 185.648 313.92 186.805 313.92C187.963 313.92 188.835 314.354 189.423 315.222C190.021 316.081 190.319 317.341 190.319 319.002C190.319 320.673 190.021 321.942 189.423 322.81C188.826 323.678 187.953 324.112 186.805 324.112ZM186.805 323.048C187.561 323.048 188.117 322.721 188.471 322.068C188.835 321.415 189.017 320.393 189.017 319.002C189.017 317.611 188.835 316.599 188.471 315.964C188.117 315.32 187.561 314.998 186.805 314.998C186.049 314.998 185.489 315.32 185.125 315.964C184.771 316.608 184.593 317.621 184.593 319.002C184.593 320.393 184.771 321.415 185.125 322.068C185.489 322.721 186.049 323.048 186.805 323.048ZM192.12 324V323.02L195.592 319.212C196.04 318.708 196.367 318.255 196.572 317.854C196.787 317.443 196.894 317.033 196.894 316.622C196.894 316.099 196.74 315.698 196.432 315.418C196.124 315.129 195.69 314.984 195.13 314.984C194.654 314.984 194.183 315.082 193.716 315.278C193.249 315.465 192.787 315.745 192.33 316.118L191.854 315.138C192.246 314.765 192.741 314.471 193.338 314.256C193.945 314.032 194.551 313.92 195.158 313.92C195.783 313.92 196.32 314.027 196.768 314.242C197.216 314.447 197.566 314.751 197.818 315.152C198.07 315.544 198.196 316.011 198.196 316.552C198.196 317.121 198.065 317.667 197.804 318.19C197.552 318.713 197.132 319.301 196.544 319.954L193.254 323.496L193.142 322.922H198.602V324H192.12ZM203.595 324.112C202.447 324.112 201.574 323.683 200.977 322.824C200.379 321.956 200.081 320.687 200.081 319.016C200.081 317.345 200.375 316.081 200.963 315.222C201.56 314.354 202.437 313.92 203.595 313.92C204.752 313.92 205.625 314.354 206.213 315.222C206.81 316.081 207.109 317.341 207.109 319.002C207.109 320.673 206.81 321.942 206.213 322.81C205.615 323.678 204.743 324.112 203.595 324.112ZM203.595 323.048C204.351 323.048 204.906 322.721 205.261 322.068C205.625 321.415 205.807 320.393 205.807 319.002C205.807 317.611 205.625 316.599 205.261 315.964C204.906 315.32 204.351 314.998 203.595 314.998C202.839 314.998 202.279 315.32 201.915 315.964C201.56 316.608 201.383 317.621 201.383 319.002C201.383 320.393 201.56 321.415 201.915 322.068C202.279 322.721 202.839 323.048 203.595 323.048Z" fill="#969EAC"/>
<path d="M38.9215 324H37.5915L42.0015 314.032H43.1075L47.5315 324H46.2155L42.3515 314.998H42.7855L38.9215 324ZM39.4815 321.494L39.9435 320.43H45.1515L45.6135 321.494H39.4815ZM48.7818 327.024V318.932C48.7818 318.605 48.7724 318.279 48.7538 317.952C48.7444 317.616 48.7164 317.285 48.6698 316.958H49.8738L49.9998 318.4L49.8878 318.582C50.0464 318.003 50.3498 317.56 50.7978 317.252C51.2458 316.935 51.7824 316.776 52.4078 316.776C53.0238 316.776 53.5651 316.935 54.0318 317.252C54.5078 317.56 54.8764 317.989 55.1378 318.54C55.4084 319.091 55.5438 319.735 55.5438 320.472C55.5438 321.209 55.4084 321.853 55.1378 322.404C54.8764 322.945 54.5124 323.365 54.0458 323.664C53.5791 323.953 53.0331 324.098 52.4078 324.098C51.7824 324.098 51.2458 323.944 50.7978 323.636C50.3498 323.319 50.0464 322.875 49.8878 322.306L50.0558 322.152V327.024H48.7818ZM52.1418 323.062C52.8044 323.062 53.3178 322.838 53.6818 322.39C54.0458 321.942 54.2278 321.303 54.2278 320.472C54.2278 319.641 54.0458 318.993 53.6818 318.526C53.3178 318.059 52.8044 317.826 52.1418 317.826C51.4698 317.826 50.9518 318.055 50.5878 318.512C50.2238 318.96 50.0418 319.604 50.0418 320.444C50.0418 321.284 50.2238 321.933 50.5878 322.39C50.9518 322.838 51.4698 323.062 52.1418 323.062ZM57.231 324V318.932C57.231 318.605 57.2217 318.279 57.203 317.952C57.1937 317.616 57.1657 317.285 57.119 316.958H58.323L58.477 318.708L58.323 318.652C58.4443 318.036 58.7197 317.574 59.149 317.266C59.5877 316.949 60.0777 316.79 60.619 316.79C60.7497 316.79 60.8663 316.799 60.969 316.818C61.081 316.827 61.1837 316.846 61.277 316.874L61.263 318.036C61.0297 317.952 60.7683 317.91 60.479 317.91C60.003 317.91 59.6203 318.013 59.331 318.218C59.0417 318.423 58.8317 318.685 58.701 319.002C58.5703 319.319 58.505 319.66 58.505 320.024V324H57.231ZM66.1464 324V323.02L69.6184 319.212C70.0664 318.708 70.393 318.255 70.5984 317.854C70.813 317.443 70.9204 317.033 70.9204 316.622C70.9204 316.099 70.7664 315.698 70.4584 315.418C70.1504 315.129 69.7164 314.984 69.1564 314.984C68.6804 314.984 68.209 315.082 67.7424 315.278C67.2757 315.465 66.8137 315.745 66.3564 316.118L65.8804 315.138C66.2724 314.765 66.767 314.471 67.3644 314.256C67.971 314.032 68.5777 313.92 69.1844 313.92C69.8097 313.92 70.3464 314.027 70.7944 314.242C71.2424 314.447 71.5924 314.751 71.8444 315.152C72.0964 315.544 72.2224 316.011 72.2224 316.552C72.2224 317.121 72.0917 317.667 71.8304 318.19C71.5784 318.713 71.1584 319.301 70.5704 319.954L67.2804 323.496L67.1684 322.922H72.6284V324H66.1464ZM77.6209 324.112C76.4729 324.112 75.6002 323.683 75.0029 322.824C74.4056 321.956 74.1069 320.687 74.1069 319.016C74.1069 317.345 74.4009 316.081 74.9889 315.222C75.5862 314.354 76.4636 313.92 77.6209 313.92C78.7782 313.92 79.6509 314.354 80.2389 315.222C80.8362 316.081 81.1349 317.341 81.1349 319.002C81.1349 320.673 80.8362 321.942 80.2389 322.81C79.6416 323.678 78.7689 324.112 77.6209 324.112ZM77.6209 323.048C78.3769 323.048 78.9322 322.721 79.2869 322.068C79.6509 321.415 79.8329 320.393 79.8329 319.002C79.8329 317.611 79.6509 316.599 79.2869 315.964C78.9322 315.32 78.3769 314.998 77.6209 314.998C76.8649 314.998 76.3049 315.32 75.9409 315.964C75.5862 316.608 75.4089 317.621 75.4089 319.002C75.4089 320.393 75.5862 321.415 75.9409 322.068C76.3049 322.721 76.8649 323.048 77.6209 323.048ZM82.9354 324V323.02L86.4074 319.212C86.8554 318.708 87.1821 318.255 87.3874 317.854C87.6021 317.443 87.7094 317.033 87.7094 316.622C87.7094 316.099 87.5554 315.698 87.2474 315.418C86.9394 315.129 86.5054 314.984 85.9454 314.984C85.4694 314.984 84.9981 315.082 84.5314 315.278C84.0648 315.465 83.6028 315.745 83.1454 316.118L82.6694 315.138C83.0614 314.765 83.5561 314.471 84.1534 314.256C84.7601 314.032 85.3668 313.92 85.9734 313.92C86.5988 313.92 87.1354 314.027 87.5834 314.242C88.0314 314.447 88.3814 314.751 88.6334 315.152C88.8854 315.544 89.0114 316.011 89.0114 316.552C89.0114 317.121 88.8808 317.667 88.6194 318.19C88.3674 318.713 87.9474 319.301 87.3594 319.954L84.0694 323.496L83.9574 322.922H89.4174V324H82.9354ZM94.41 324.112C93.262 324.112 92.3893 323.683 91.792 322.824C91.1946 321.956 90.896 320.687 90.896 319.016C90.896 317.345 91.19 316.081 91.778 315.222C92.3753 314.354 93.2526 313.92 94.41 313.92C95.5673 313.92 96.44 314.354 97.028 315.222C97.6253 316.081 97.924 317.341 97.924 319.002C97.924 320.673 97.6253 321.942 97.028 322.81C96.4306 323.678 95.558 324.112 94.41 324.112ZM94.41 323.048C95.166 323.048 95.7213 322.721 96.076 322.068C96.44 321.415 96.622 320.393 96.622 319.002C96.622 317.611 96.44 316.599 96.076 315.964C95.7213 315.32 95.166 314.998 94.41 314.998C93.654 314.998 93.094 315.32 92.73 315.964C92.3753 316.608 92.198 317.621 92.198 319.002C92.198 320.393 92.3753 321.415 92.73 322.068C93.094 322.721 93.654 323.048 94.41 323.048Z" fill="#969EAC"/>
<path opacity="0.24" d="M47 294.5H304" stroke="#969EAC"/>
<path opacity="0.1" d="M47 258H304" stroke="#969EAC"/>
<path opacity="0.1" d="M47 222H304" stroke="#969EAC"/>
<path opacity="0.1" d="M47 186H304" stroke="#969EAC"/>
<path opacity="0.1" d="M47 150H304" stroke="#969EAC"/>
<path opacity="0.1" d="M47 114H304" stroke="#969EAC"/>
<path opacity="0.1" d="M47 78H304" stroke="#969EAC"/>
<path opacity="0.1" d="M47 42H304" stroke="#969EAC"/>
<path d="M293.25 136C293.25 134.895 294.145 134 295.25 134H301.25C302.355 134 303.25 134.895 303.25 136V294H293.25V136Z" fill="#D3365F"/>
<path d="M277.25 44C277.25 42.8954 278.145 42 279.25 42H285.25C286.355 42 287.25 42.8954 287.25 44V294H277.25V44Z" fill="#235EE7"/>
<path d="M261.25 270C261.25 268.895 262.145 268 263.25 268H269.25C270.355 268 271.25 268.895 271.25 270V294H261.25V270Z" fill="#29CFD6"/>
<path d="M186.25 84C186.25 82.8954 187.145 82 188.25 82H194.25C195.355 82 196.25 82.8954 196.25 84V294H186.25V84Z" fill="#D3365F"/>
<path d="M170.25 116C170.25 114.895 171.145 114 172.25 114H178.25C179.355 114 180.25 114.895 180.25 116V294H170.25V116Z" fill="#235EE7"/>
<path d="M154.25 178C154.25 176.895 155.145 176 156.25 176H162.25C163.355 176 164.25 176.895 164.25 178V294H154.25V178Z" fill="#29CFD6"/>
<path d="M79 162C79 160.895 79.8954 160 81 160H87C88.1046 160 89 160.895 89 162V294H79V162Z" fill="#D3365F"/>
<path d="M63 206C63 204.895 63.8954 204 65 204H71C72.1046 204 73 204.895 73 206V294H63V206Z" fill="#235EE7"/>
<path d="M47 191C47 189.895 47.8954 189 49 189H55C56.1046 189 57 189.895 57 191V294H47V191Z" fill="#29CFD6"/>
<defs>
<filter id="filter0_di" x="0" y="0" width="351" height="370" filterUnits="userSpaceOnUse" color-interpolation-filters="sRGB">
<feFlood flood-opacity="0" result="BackgroundImageFix"/>
<feColorMatrix in="SourceAlpha" type="matrix" values="0 0 0 0 0 0 0 0 0 0 0 0 0 0 0 0 0 0 127 0"/>
<feOffset dy="2"/>
<feGaussianBlur stdDeviation="4"/>
<feColorMatrix type="matrix" values="0 0 0 0 0.888 0 0 0 0 0.911467 0 0 0 0 0.952 0 0 0 1 0"/>
<feBlend mode="normal" in2="BackgroundImageFix" result="effect1_dropShadow"/>
<feBlend mode="normal" in="SourceGraphic" in2="effect1_dropShadow" result="shape"/>
<feColorMatrix in="SourceAlpha" type="matrix" values="0 0 0 0 0 0 0 0 0 0 0 0 0 0 0 0 0 0 127 0" result="hardAlpha"/>
<feOffset dy="-1"/>
<feComposite in2="hardAlpha" operator="arithmetic" k2="-1" k3="1"/>
<feColorMatrix type="matrix" values="0 0 0 0 0.921569 0 0 0 0 0.92549 0 0 0 0 0.945098 0 0 0 1 0"/>
<feBlend mode="normal" in2="shape" result="effect2_innerShadow"/>
</filter>
</defs>
</svg>
