<svg width="24" height="20" viewBox="0 0 24 20" fill="none"
    xmlns="http://www.w3.org/2000/svg">
    <path fill-rule="evenodd" clip-rule="evenodd" d="M23.1801 4.70957L21.0801 3.80957L22.1801 1.40957L19.6201 2.25957C18.8047 1.4995 17.7347 1.07151 16.6201 1.05957C14.1371 1.06507 12.1256 3.07657 12.1201 5.55957V6.55957C8.58008 7.28957 5.49008 5.35957 2.62008 2.05957C2.12008 4.72624 2.62008 6.72624 4.12008 8.05957L0.830078 7.55957C1.0924 9.74555 2.88223 11.4301 5.08008 11.5596L2.33008 12.5596C3.33008 14.5596 5.15008 14.8696 7.58008 15.0596C5.5939 16.4143 3.23365 17.1136 0.830078 17.0596C13.5901 22.7296 21.0801 14.3996 21.0801 7.05957V6.22957L23.1801 4.70957Z" stroke="#00ACEE" stroke-width="1.5" stroke-linecap="round" stroke-linejoin="round"/>
</svg>
