<svg width="740" height="370" viewBox="0 0 740 370" fill="none" xmlns="http://www.w3.org/2000/svg">
<g filter="url(#filter0_di)">
<rect x="8" y="6" width="1069" height="354" rx="6" fill="white"/>
</g>
<rect opacity="0.1" x="542" y="6" width="286" height="288" fill="url(#paint0_linear)"/>
<path opacity="0.4" d="M563.094 28V20.168H566.493C567.344 20.168 568 20.3733 568.462 20.784C568.931 21.1873 569.166 21.741 569.166 22.445C569.166 23.1417 568.928 23.6953 568.451 24.106C567.982 24.5167 567.329 24.722 566.493 24.722H564.513V28H563.094ZM564.513 23.633H566.328C566.827 23.633 567.197 23.5303 567.439 23.325C567.688 23.1197 567.813 22.83 567.813 22.456C567.813 22.0747 567.692 21.785 567.45 21.587C567.208 21.3817 566.834 21.279 566.328 21.279H564.513V23.633ZM572.62 28V20.168H575.975C576.862 20.168 577.537 20.3623 577.999 20.751C578.461 21.1397 578.692 21.697 578.692 22.423C578.692 23.1123 578.454 23.6623 577.977 24.073C577.5 24.4763 576.837 24.678 575.986 24.678L576.866 24.502C577.137 24.502 577.379 24.5827 577.592 24.744C577.805 24.9053 577.973 25.1547 578.098 25.492L579.066 28H577.57L576.58 25.393C576.477 25.1363 576.331 24.964 576.14 24.876C575.957 24.788 575.726 24.744 575.447 24.744H574.017V28H572.62ZM574.006 23.644H575.777C576.32 23.644 576.716 23.545 576.965 23.347C577.214 23.149 577.339 22.852 577.339 22.456C577.339 22.0527 577.214 21.7557 576.965 21.565C576.716 21.3743 576.32 21.279 575.777 21.279H574.006V23.644ZM585.966 28.088C585.203 28.088 584.543 27.9267 583.986 27.604C583.429 27.2813 583 26.8193 582.699 26.218C582.398 25.6167 582.248 24.9053 582.248 24.084C582.248 23.2553 582.398 22.544 582.699 21.95C583 21.3487 583.429 20.8867 583.986 20.564C584.543 20.2413 585.203 20.08 585.966 20.08C586.736 20.08 587.4 20.2413 587.957 20.564C588.514 20.8867 588.943 21.3487 589.244 21.95C589.545 22.544 589.695 23.2517 589.695 24.073C589.695 24.9017 589.541 25.6167 589.233 26.218C588.932 26.8193 588.503 27.2813 587.946 27.604C587.396 27.9267 586.736 28.088 585.966 28.088ZM585.966 26.966C586.685 26.966 587.249 26.7203 587.66 26.229C588.071 25.7303 588.276 25.0117 588.276 24.073C588.276 23.1343 588.071 22.423 587.66 21.939C587.249 21.4477 586.685 21.202 585.966 21.202C585.255 21.202 584.694 21.4477 584.283 21.939C583.872 22.423 583.667 23.1343 583.667 24.073C583.667 25.0117 583.872 25.7303 584.283 26.229C584.694 26.7203 585.255 26.966 585.966 26.966ZM592.103 29.958V28.803C592.565 28.869 592.921 28.8837 593.17 28.847C593.42 28.8177 593.592 28.7113 593.687 28.528C593.783 28.3447 593.83 28.0623 593.83 27.681V20.168H595.249V27.67C595.249 28.3153 595.15 28.8287 594.952 29.21C594.754 29.5913 594.424 29.8407 593.962 29.958C593.508 30.0827 592.888 30.0827 592.103 29.958ZM599.158 28V20.168H604.394V21.279H600.544V23.457H604.174V24.579H600.544V26.889H604.394V28H599.158ZM611.431 28.088C610.654 28.088 609.979 27.9267 609.407 27.604C608.835 27.274 608.395 26.8083 608.087 26.207C607.786 25.6057 607.636 24.8943 607.636 24.073C607.636 23.259 607.786 22.555 608.087 21.961C608.395 21.3597 608.835 20.8977 609.407 20.575C609.979 20.245 610.654 20.08 611.431 20.08C611.959 20.08 612.454 20.1607 612.916 20.322C613.385 20.476 613.774 20.7033 614.082 21.004L613.62 22.038C613.261 21.752 612.909 21.5467 612.564 21.422C612.219 21.29 611.849 21.224 611.453 21.224C610.698 21.224 610.111 21.4697 609.693 21.961C609.282 22.445 609.077 23.149 609.077 24.073C609.077 24.997 609.282 25.7083 609.693 26.207C610.111 26.6983 610.698 26.944 611.453 26.944C611.849 26.944 612.219 26.8817 612.564 26.757C612.909 26.625 613.261 26.416 613.62 26.13L614.082 27.164C613.774 27.4647 613.385 27.6957 612.916 27.857C612.454 28.011 611.959 28.088 611.431 28.088ZM619.327 28V21.334H616.775V20.168H623.309V21.334H620.757V28H619.327ZM626.49 28V20.168H631.726V21.279H627.876V23.457H631.506V24.579H627.876V26.889H631.726V28H626.49ZM635.232 28V20.168H638.114C638.972 20.168 639.702 20.322 640.303 20.63C640.904 20.938 641.363 21.3853 641.678 21.972C642.001 22.5513 642.162 23.2517 642.162 24.073C642.162 24.9017 642.001 25.6093 641.678 26.196C641.363 26.7827 640.901 27.23 640.292 27.538C639.691 27.846 638.965 28 638.114 28H635.232ZM636.651 26.845H638.026C638.928 26.845 639.603 26.614 640.05 26.152C640.505 25.69 640.732 24.997 640.732 24.073C640.732 22.2397 639.83 21.323 638.026 21.323H636.651V26.845Z" fill="#534CEA"/>
<path d="M638.904 324H637.574L641.984 314.032H643.09L647.514 324H646.198L642.334 314.998H642.768L638.904 324ZM639.464 321.494L639.926 320.43H645.134L645.596 321.494H639.464ZM651.27 324.098C650.421 324.098 649.782 323.865 649.352 323.398C648.932 322.922 648.722 322.222 648.722 321.298V316.958H649.996V321.284C649.996 321.891 650.118 322.339 650.36 322.628C650.612 322.908 650.995 323.048 651.508 323.048C652.106 323.048 652.586 322.857 652.95 322.474C653.314 322.082 653.496 321.564 653.496 320.92V316.958H654.784V324H653.538V322.488L653.706 322.418C653.52 322.969 653.207 323.389 652.768 323.678C652.33 323.958 651.83 324.098 651.27 324.098ZM660.021 327.122C658.948 327.122 658.014 326.884 657.221 326.408L657.445 325.386C657.884 325.638 658.299 325.82 658.691 325.932C659.092 326.044 659.536 326.1 660.021 326.1C660.684 326.1 661.183 325.923 661.519 325.568C661.864 325.223 662.037 324.705 662.037 324.014V322.138L662.191 321.998C662.079 322.362 661.902 322.679 661.659 322.95C661.426 323.211 661.136 323.417 660.791 323.566C660.455 323.715 660.068 323.79 659.629 323.79C659.013 323.79 658.467 323.645 657.991 323.356C657.515 323.057 657.142 322.647 656.871 322.124C656.61 321.601 656.479 320.99 656.479 320.29C656.479 319.59 656.61 318.979 656.871 318.456C657.142 317.924 657.515 317.513 657.991 317.224C658.467 316.925 659.013 316.776 659.629 316.776C660.273 316.776 660.819 316.935 661.267 317.252C661.724 317.569 662.032 318.008 662.191 318.568L662.023 318.456V316.958H663.297V323.902C663.297 324.975 663.017 325.778 662.457 326.31C661.906 326.851 661.094 327.122 660.021 327.122ZM659.909 322.74C660.572 322.74 661.09 322.525 661.463 322.096C661.836 321.657 662.023 321.055 662.023 320.29C662.023 319.525 661.836 318.923 661.463 318.484C661.09 318.045 660.572 317.826 659.909 317.826C659.246 317.826 658.724 318.045 658.341 318.484C657.958 318.923 657.767 319.525 657.767 320.29C657.767 321.065 657.958 321.667 658.341 322.096C658.724 322.525 659.246 322.74 659.909 322.74ZM669.164 324V323.02L672.636 319.212C673.084 318.708 673.411 318.255 673.616 317.854C673.831 317.443 673.938 317.033 673.938 316.622C673.938 316.099 673.784 315.698 673.476 315.418C673.168 315.129 672.734 314.984 672.174 314.984C671.698 314.984 671.227 315.082 670.76 315.278C670.293 315.465 669.831 315.745 669.374 316.118L668.898 315.138C669.29 314.765 669.785 314.471 670.382 314.256C670.989 314.032 671.595 313.92 672.202 313.92C672.827 313.92 673.364 314.027 673.812 314.242C674.26 314.447 674.61 314.751 674.862 315.152C675.114 315.544 675.24 316.011 675.24 316.552C675.24 317.121 675.109 317.667 674.848 318.19C674.596 318.713 674.176 319.301 673.588 319.954L670.298 323.496L670.186 322.922H675.646V324H669.164ZM680.638 324.112C679.49 324.112 678.618 323.683 678.02 322.824C677.423 321.956 677.124 320.687 677.124 319.016C677.124 317.345 677.418 316.081 678.006 315.222C678.604 314.354 679.481 313.92 680.638 313.92C681.796 313.92 682.668 314.354 683.256 315.222C683.854 316.081 684.152 317.341 684.152 319.002C684.152 320.673 683.854 321.942 683.256 322.81C682.659 323.678 681.786 324.112 680.638 324.112ZM680.638 323.048C681.394 323.048 681.95 322.721 682.304 322.068C682.668 321.415 682.85 320.393 682.85 319.002C682.85 317.611 682.668 316.599 682.304 315.964C681.95 315.32 681.394 314.998 680.638 314.998C679.882 314.998 679.322 315.32 678.958 315.964C678.604 316.608 678.426 317.621 678.426 319.002C678.426 320.393 678.604 321.415 678.958 322.068C679.322 322.721 679.882 323.048 680.638 323.048ZM685.953 324V323.02L689.425 319.212C689.873 318.708 690.2 318.255 690.405 317.854C690.62 317.443 690.727 317.033 690.727 316.622C690.727 316.099 690.573 315.698 690.265 315.418C689.957 315.129 689.523 314.984 688.963 314.984C688.487 314.984 688.016 315.082 687.549 315.278C687.082 315.465 686.62 315.745 686.163 316.118L685.687 315.138C686.079 314.765 686.574 314.471 687.171 314.256C687.778 314.032 688.384 313.92 688.991 313.92C689.616 313.92 690.153 314.027 690.601 314.242C691.049 314.447 691.399 314.751 691.651 315.152C691.903 315.544 692.029 316.011 692.029 316.552C692.029 317.121 691.898 317.667 691.637 318.19C691.385 318.713 690.965 319.301 690.377 319.954L687.087 323.496L686.975 322.922H692.435V324H685.953ZM697.428 324.112C696.28 324.112 695.407 323.683 694.81 322.824C694.212 321.956 693.914 320.687 693.914 319.016C693.914 317.345 694.208 316.081 694.796 315.222C695.393 314.354 696.27 313.92 697.428 313.92C698.585 313.92 699.458 314.354 700.046 315.222C700.643 316.081 700.942 317.341 700.942 319.002C700.942 320.673 700.643 321.942 700.046 322.81C699.448 323.678 698.576 324.112 697.428 324.112ZM697.428 323.048C698.184 323.048 698.739 322.721 699.094 322.068C699.458 321.415 699.64 320.393 699.64 319.002C699.64 317.611 699.458 316.599 699.094 315.964C698.739 315.32 698.184 314.998 697.428 314.998C696.672 314.998 696.112 315.32 695.748 315.964C695.393 316.608 695.216 317.621 695.216 319.002C695.216 320.393 695.393 321.415 695.748 322.068C696.112 322.721 696.672 323.048 697.428 323.048Z" fill="#969EAC"/>
<path d="M541.188 326.492V325.386C541.767 325.489 542.219 325.512 542.546 325.456C542.882 325.409 543.115 325.251 543.246 324.98C543.386 324.719 543.456 324.322 543.456 323.79V314.032H544.758V323.79C544.758 324.583 544.641 325.199 544.408 325.638C544.175 326.086 543.797 326.375 543.274 326.506C542.761 326.637 542.065 326.632 541.188 326.492ZM549.517 324.098C548.668 324.098 548.029 323.865 547.599 323.398C547.179 322.922 546.969 322.222 546.969 321.298V316.958H548.243V321.284C548.243 321.891 548.365 322.339 548.607 322.628C548.859 322.908 549.242 323.048 549.755 323.048C550.353 323.048 550.833 322.857 551.197 322.474C551.561 322.082 551.743 321.564 551.743 320.92V316.958H553.031V324H551.785V322.488L551.953 322.418C551.767 322.969 551.454 323.389 551.015 323.678C550.577 323.958 550.077 324.098 549.517 324.098ZM555.146 324V313.696H556.42V324H555.146ZM562.298 324V323.02L565.77 319.212C566.218 318.708 566.544 318.255 566.75 317.854C566.964 317.443 567.072 317.033 567.072 316.622C567.072 316.099 566.918 315.698 566.61 315.418C566.302 315.129 565.868 314.984 565.308 314.984C564.832 314.984 564.36 315.082 563.894 315.278C563.427 315.465 562.965 315.745 562.508 316.118L562.032 315.138C562.424 314.765 562.918 314.471 563.516 314.256C564.122 314.032 564.729 313.92 565.336 313.92C565.961 313.92 566.498 314.027 566.946 314.242C567.394 314.447 567.744 314.751 567.996 315.152C568.248 315.544 568.374 316.011 568.374 316.552C568.374 317.121 568.243 317.667 567.982 318.19C567.73 318.713 567.31 319.301 566.722 319.954L563.432 323.496L563.32 322.922H568.78V324H562.298ZM573.772 324.112C572.624 324.112 571.752 323.683 571.154 322.824C570.557 321.956 570.258 320.687 570.258 319.016C570.258 317.345 570.552 316.081 571.14 315.222C571.738 314.354 572.615 313.92 573.772 313.92C574.93 313.92 575.802 314.354 576.39 315.222C576.988 316.081 577.286 317.341 577.286 319.002C577.286 320.673 576.988 321.942 576.39 322.81C575.793 323.678 574.92 324.112 573.772 324.112ZM573.772 323.048C574.528 323.048 575.084 322.721 575.438 322.068C575.802 321.415 575.984 320.393 575.984 319.002C575.984 317.611 575.802 316.599 575.438 315.964C575.084 315.32 574.528 314.998 573.772 314.998C573.016 314.998 572.456 315.32 572.092 315.964C571.738 316.608 571.56 317.621 571.56 319.002C571.56 320.393 571.738 321.415 572.092 322.068C572.456 322.721 573.016 323.048 573.772 323.048ZM579.087 324V323.02L582.559 319.212C583.007 318.708 583.333 318.255 583.539 317.854C583.753 317.443 583.861 317.033 583.861 316.622C583.861 316.099 583.707 315.698 583.399 315.418C583.091 315.129 582.657 314.984 582.097 314.984C581.621 314.984 581.149 315.082 580.683 315.278C580.216 315.465 579.754 315.745 579.297 316.118L578.821 315.138C579.213 314.765 579.707 314.471 580.305 314.256C580.911 314.032 581.518 313.92 582.125 313.92C582.75 313.92 583.287 314.027 583.735 314.242C584.183 314.447 584.533 314.751 584.785 315.152C585.037 315.544 585.163 316.011 585.163 316.552C585.163 317.121 585.032 317.667 584.771 318.19C584.519 318.713 584.099 319.301 583.511 319.954L580.221 323.496L580.109 322.922H585.569V324H579.087ZM590.561 324.112C589.413 324.112 588.541 323.683 587.943 322.824C587.346 321.956 587.047 320.687 587.047 319.016C587.047 317.345 587.341 316.081 587.929 315.222C588.527 314.354 589.404 313.92 590.561 313.92C591.719 313.92 592.591 314.354 593.179 315.222C593.777 316.081 594.075 317.341 594.075 319.002C594.075 320.673 593.777 321.942 593.179 322.81C592.582 323.678 591.709 324.112 590.561 324.112ZM590.561 323.048C591.317 323.048 591.873 322.721 592.227 322.068C592.591 321.415 592.773 320.393 592.773 319.002C592.773 317.611 592.591 316.599 592.227 315.964C591.873 315.32 591.317 314.998 590.561 314.998C589.805 314.998 589.245 315.32 588.881 315.964C588.527 316.608 588.349 317.621 588.349 319.002C588.349 320.393 588.527 321.415 588.881 322.068C589.245 322.721 589.805 323.048 590.561 323.048Z" fill="#969EAC"/>
<path d="M431.268 326.492V325.386C431.847 325.489 432.3 325.512 432.626 325.456C432.962 325.409 433.196 325.251 433.326 324.98C433.466 324.719 433.536 324.322 433.536 323.79V314.032H434.838V323.79C434.838 324.583 434.722 325.199 434.488 325.638C434.255 326.086 433.877 326.375 433.354 326.506C432.841 326.637 432.146 326.632 431.268 326.492ZM439.597 324.098C438.748 324.098 438.109 323.865 437.679 323.398C437.259 322.922 437.049 322.222 437.049 321.298V316.958H438.323V321.284C438.323 321.891 438.445 322.339 438.687 322.628C438.939 322.908 439.322 323.048 439.835 323.048C440.433 323.048 440.913 322.857 441.277 322.474C441.641 322.082 441.823 321.564 441.823 320.92V316.958H443.111V324H441.865V322.488L442.033 322.418C441.847 322.969 441.534 323.389 441.095 323.678C440.657 323.958 440.157 324.098 439.597 324.098ZM445.226 324V318.932C445.226 318.605 445.217 318.279 445.198 317.952C445.189 317.616 445.161 317.285 445.114 316.958H446.318L446.444 318.4L446.304 318.484C446.509 317.933 446.836 317.513 447.284 317.224C447.741 316.925 448.264 316.776 448.852 316.776C450.541 316.776 451.386 317.714 451.386 319.59V324H450.112V319.66C450.112 319.025 449.986 318.563 449.734 318.274C449.491 317.975 449.099 317.826 448.558 317.826C447.933 317.826 447.433 318.022 447.06 318.414C446.687 318.797 446.5 319.315 446.5 319.968V324H445.226ZM457.218 324V323.02L460.69 319.212C461.138 318.708 461.464 318.255 461.67 317.854C461.884 317.443 461.992 317.033 461.992 316.622C461.992 316.099 461.838 315.698 461.53 315.418C461.222 315.129 460.788 314.984 460.228 314.984C459.752 314.984 459.28 315.082 458.814 315.278C458.347 315.465 457.885 315.745 457.428 316.118L456.952 315.138C457.344 314.765 457.838 314.471 458.436 314.256C459.042 314.032 459.649 313.92 460.256 313.92C460.881 313.92 461.418 314.027 461.866 314.242C462.314 314.447 462.664 314.751 462.916 315.152C463.168 315.544 463.294 316.011 463.294 316.552C463.294 317.121 463.163 317.667 462.902 318.19C462.65 318.713 462.23 319.301 461.642 319.954L458.352 323.496L458.24 322.922H463.7V324H457.218ZM468.692 324.112C467.544 324.112 466.672 323.683 466.074 322.824C465.477 321.956 465.178 320.687 465.178 319.016C465.178 317.345 465.472 316.081 466.06 315.222C466.658 314.354 467.535 313.92 468.692 313.92C469.85 313.92 470.722 314.354 471.31 315.222C471.908 316.081 472.206 317.341 472.206 319.002C472.206 320.673 471.908 321.942 471.31 322.81C470.713 323.678 469.84 324.112 468.692 324.112ZM468.692 323.048C469.448 323.048 470.004 322.721 470.358 322.068C470.722 321.415 470.904 320.393 470.904 319.002C470.904 317.611 470.722 316.599 470.358 315.964C470.004 315.32 469.448 314.998 468.692 314.998C467.936 314.998 467.376 315.32 467.012 315.964C466.658 316.608 466.48 317.621 466.48 319.002C466.48 320.393 466.658 321.415 467.012 322.068C467.376 322.721 467.936 323.048 468.692 323.048ZM474.007 324V323.02L477.479 319.212C477.927 318.708 478.253 318.255 478.459 317.854C478.673 317.443 478.781 317.033 478.781 316.622C478.781 316.099 478.627 315.698 478.319 315.418C478.011 315.129 477.577 314.984 477.017 314.984C476.541 314.984 476.069 315.082 475.603 315.278C475.136 315.465 474.674 315.745 474.217 316.118L473.741 315.138C474.133 314.765 474.627 314.471 475.225 314.256C475.831 314.032 476.438 313.92 477.045 313.92C477.67 313.92 478.207 314.027 478.655 314.242C479.103 314.447 479.453 314.751 479.705 315.152C479.957 315.544 480.083 316.011 480.083 316.552C480.083 317.121 479.952 317.667 479.691 318.19C479.439 318.713 479.019 319.301 478.431 319.954L475.141 323.496L475.029 322.922H480.489V324H474.007ZM485.481 324.112C484.333 324.112 483.461 323.683 482.863 322.824C482.266 321.956 481.967 320.687 481.967 319.016C481.967 317.345 482.261 316.081 482.849 315.222C483.447 314.354 484.324 313.92 485.481 313.92C486.639 313.92 487.511 314.354 488.099 315.222C488.697 316.081 488.995 317.341 488.995 319.002C488.995 320.673 488.697 321.942 488.099 322.81C487.502 323.678 486.629 324.112 485.481 324.112ZM485.481 323.048C486.237 323.048 486.793 322.721 487.147 322.068C487.511 321.415 487.693 320.393 487.693 319.002C487.693 317.611 487.511 316.599 487.147 315.964C486.793 315.32 486.237 314.998 485.481 314.998C484.725 314.998 484.165 315.32 483.801 315.964C483.447 316.608 483.269 317.621 483.269 319.002C483.269 320.393 483.447 321.415 483.801 322.068C484.165 322.721 484.725 323.048 485.481 323.048Z" fill="#969EAC"/>
<path d="M319.665 324V314.032H320.729L324.705 323.09H324.145L328.093 314.032H329.143V324H327.967V315.796L328.401 315.852L324.859 324H323.963L320.365 315.852L320.841 315.796L320.855 324H319.665ZM334.108 324.098C333.492 324.098 332.946 323.953 332.47 323.664C332.003 323.365 331.639 322.945 331.378 322.404C331.116 321.853 330.986 321.209 330.986 320.472C330.986 319.735 331.116 319.091 331.378 318.54C331.648 317.989 332.017 317.56 332.484 317.252C332.96 316.935 333.501 316.776 334.108 316.776C334.742 316.776 335.284 316.935 335.732 317.252C336.18 317.56 336.483 318.003 336.642 318.582L336.474 318.68V316.958H337.734V324H336.474V322.236L336.642 322.306C336.483 322.875 336.18 323.319 335.732 323.636C335.284 323.944 334.742 324.098 334.108 324.098ZM334.388 323.062C335.06 323.062 335.573 322.838 335.928 322.39C336.292 321.933 336.474 321.284 336.474 320.444C336.474 319.604 336.292 318.96 335.928 318.512C335.564 318.055 335.05 317.826 334.388 317.826C333.725 317.826 333.207 318.059 332.834 318.526C332.46 318.993 332.274 319.641 332.274 320.472C332.274 321.303 332.46 321.942 332.834 322.39C333.207 322.838 333.725 323.062 334.388 323.062ZM339.547 327.178L339.281 326.198C339.71 326.095 340.07 325.974 340.359 325.834C340.658 325.703 340.905 325.531 341.101 325.316C341.297 325.111 341.47 324.835 341.619 324.49L342.081 323.44L342.375 323.02L344.881 316.958H346.155L342.865 324.602C342.613 325.181 342.324 325.643 341.997 325.988C341.67 326.343 341.302 326.609 340.891 326.786C340.49 326.963 340.042 327.094 339.547 327.178ZM342.095 324.392L338.917 316.958H340.247L342.725 323.02L342.095 324.392ZM351.081 324V323.02L354.553 319.212C355.001 318.708 355.328 318.255 355.533 317.854C355.748 317.443 355.855 317.033 355.855 316.622C355.855 316.099 355.701 315.698 355.393 315.418C355.085 315.129 354.651 314.984 354.091 314.984C353.615 314.984 353.144 315.082 352.677 315.278C352.21 315.465 351.748 315.745 351.291 316.118L350.815 315.138C351.207 314.765 351.702 314.471 352.299 314.256C352.906 314.032 353.512 313.92 354.119 313.92C354.744 313.92 355.281 314.027 355.729 314.242C356.177 314.447 356.527 314.751 356.779 315.152C357.031 315.544 357.157 316.011 357.157 316.552C357.157 317.121 357.026 317.667 356.765 318.19C356.513 318.713 356.093 319.301 355.505 319.954L352.215 323.496L352.103 322.922H357.563V324H351.081ZM362.555 324.112C361.407 324.112 360.535 323.683 359.937 322.824C359.34 321.956 359.041 320.687 359.041 319.016C359.041 317.345 359.335 316.081 359.923 315.222C360.521 314.354 361.398 313.92 362.555 313.92C363.713 313.92 364.585 314.354 365.173 315.222C365.771 316.081 366.069 317.341 366.069 319.002C366.069 320.673 365.771 321.942 365.173 322.81C364.576 323.678 363.703 324.112 362.555 324.112ZM362.555 323.048C363.311 323.048 363.867 322.721 364.221 322.068C364.585 321.415 364.767 320.393 364.767 319.002C364.767 317.611 364.585 316.599 364.221 315.964C363.867 315.32 363.311 314.998 362.555 314.998C361.799 314.998 361.239 315.32 360.875 315.964C360.521 316.608 360.343 317.621 360.343 319.002C360.343 320.393 360.521 321.415 360.875 322.068C361.239 322.721 361.799 323.048 362.555 323.048ZM367.87 324V323.02L371.342 319.212C371.79 318.708 372.117 318.255 372.322 317.854C372.537 317.443 372.644 317.033 372.644 316.622C372.644 316.099 372.49 315.698 372.182 315.418C371.874 315.129 371.44 314.984 370.88 314.984C370.404 314.984 369.933 315.082 369.466 315.278C368.999 315.465 368.537 315.745 368.08 316.118L367.604 315.138C367.996 314.765 368.491 314.471 369.088 314.256C369.695 314.032 370.301 313.92 370.908 313.92C371.533 313.92 372.07 314.027 372.518 314.242C372.966 314.447 373.316 314.751 373.568 315.152C373.82 315.544 373.946 316.011 373.946 316.552C373.946 317.121 373.815 317.667 373.554 318.19C373.302 318.713 372.882 319.301 372.294 319.954L369.004 323.496L368.892 322.922H374.352V324H367.87ZM379.345 324.112C378.197 324.112 377.324 323.683 376.727 322.824C376.129 321.956 375.831 320.687 375.831 319.016C375.831 317.345 376.125 316.081 376.713 315.222C377.31 314.354 378.187 313.92 379.345 313.92C380.502 313.92 381.375 314.354 381.963 315.222C382.56 316.081 382.859 317.341 382.859 319.002C382.859 320.673 382.56 321.942 381.963 322.81C381.365 323.678 380.493 324.112 379.345 324.112ZM379.345 323.048C380.101 323.048 380.656 322.721 381.011 322.068C381.375 321.415 381.557 320.393 381.557 319.002C381.557 317.611 381.375 316.599 381.011 315.964C380.656 315.32 380.101 314.998 379.345 314.998C378.589 314.998 378.029 315.32 377.665 315.964C377.31 316.608 377.133 317.621 377.133 319.002C377.133 320.393 377.31 321.415 377.665 322.068C378.029 322.721 378.589 323.048 379.345 323.048Z" fill="#969EAC"/>
<path d="M217.922 324H216.592L221.002 314.032H222.108L226.532 324H225.216L221.352 314.998H221.786L217.922 324ZM218.482 321.494L218.944 320.43H224.152L224.614 321.494H218.482ZM227.782 327.024V318.932C227.782 318.605 227.772 318.279 227.754 317.952C227.744 317.616 227.716 317.285 227.67 316.958H228.874L229 318.4L228.888 318.582C229.046 318.003 229.35 317.56 229.798 317.252C230.246 316.935 230.782 316.776 231.408 316.776C232.024 316.776 232.565 316.935 233.032 317.252C233.508 317.56 233.876 317.989 234.138 318.54C234.408 319.091 234.544 319.735 234.544 320.472C234.544 321.209 234.408 321.853 234.138 322.404C233.876 322.945 233.512 323.365 233.046 323.664C232.579 323.953 232.033 324.098 231.408 324.098C230.782 324.098 230.246 323.944 229.798 323.636C229.35 323.319 229.046 322.875 228.888 322.306L229.056 322.152V327.024H227.782ZM231.142 323.062C231.804 323.062 232.318 322.838 232.682 322.39C233.046 321.942 233.228 321.303 233.228 320.472C233.228 319.641 233.046 318.993 232.682 318.526C232.318 318.059 231.804 317.826 231.142 317.826C230.47 317.826 229.952 318.055 229.588 318.512C229.224 318.96 229.042 319.604 229.042 320.444C229.042 321.284 229.224 321.933 229.588 322.39C229.952 322.838 230.47 323.062 231.142 323.062ZM236.231 324V318.932C236.231 318.605 236.222 318.279 236.203 317.952C236.194 317.616 236.166 317.285 236.119 316.958H237.323L237.477 318.708L237.323 318.652C237.444 318.036 237.72 317.574 238.149 317.266C238.588 316.949 239.078 316.79 239.619 316.79C239.75 316.79 239.866 316.799 239.969 316.818C240.081 316.827 240.184 316.846 240.277 316.874L240.263 318.036C240.03 317.952 239.768 317.91 239.479 317.91C239.003 317.91 238.62 318.013 238.331 318.218C238.042 318.423 237.832 318.685 237.701 319.002C237.57 319.319 237.505 319.66 237.505 320.024V324H236.231ZM245.146 324V323.02L248.618 319.212C249.066 318.708 249.393 318.255 249.598 317.854C249.813 317.443 249.92 317.033 249.92 316.622C249.92 316.099 249.766 315.698 249.458 315.418C249.15 315.129 248.716 314.984 248.156 314.984C247.68 314.984 247.209 315.082 246.742 315.278C246.276 315.465 245.814 315.745 245.356 316.118L244.88 315.138C245.272 314.765 245.767 314.471 246.364 314.256C246.971 314.032 247.578 313.92 248.184 313.92C248.81 313.92 249.346 314.027 249.794 314.242C250.242 314.447 250.592 314.751 250.844 315.152C251.096 315.544 251.222 316.011 251.222 316.552C251.222 317.121 251.092 317.667 250.83 318.19C250.578 318.713 250.158 319.301 249.57 319.954L246.28 323.496L246.168 322.922H251.628V324H245.146ZM256.621 324.112C255.473 324.112 254.6 323.683 254.003 322.824C253.406 321.956 253.107 320.687 253.107 319.016C253.107 317.345 253.401 316.081 253.989 315.222C254.586 314.354 255.464 313.92 256.621 313.92C257.778 313.92 258.651 314.354 259.239 315.222C259.836 316.081 260.135 317.341 260.135 319.002C260.135 320.673 259.836 321.942 259.239 322.81C258.642 323.678 257.769 324.112 256.621 324.112ZM256.621 323.048C257.377 323.048 257.932 322.721 258.287 322.068C258.651 321.415 258.833 320.393 258.833 319.002C258.833 317.611 258.651 316.599 258.287 315.964C257.932 315.32 257.377 314.998 256.621 314.998C255.865 314.998 255.305 315.32 254.941 315.964C254.586 316.608 254.409 317.621 254.409 319.002C254.409 320.393 254.586 321.415 254.941 322.068C255.305 322.721 255.865 323.048 256.621 323.048ZM261.935 324V323.02L265.407 319.212C265.855 318.708 266.182 318.255 266.387 317.854C266.602 317.443 266.709 317.033 266.709 316.622C266.709 316.099 266.555 315.698 266.247 315.418C265.939 315.129 265.505 314.984 264.945 314.984C264.469 314.984 263.998 315.082 263.531 315.278C263.065 315.465 262.603 315.745 262.145 316.118L261.669 315.138C262.061 314.765 262.556 314.471 263.153 314.256C263.76 314.032 264.367 313.92 264.973 313.92C265.599 313.92 266.135 314.027 266.583 314.242C267.031 314.447 267.381 314.751 267.633 315.152C267.885 315.544 268.011 316.011 268.011 316.552C268.011 317.121 267.881 317.667 267.619 318.19C267.367 318.713 266.947 319.301 266.359 319.954L263.069 323.496L262.957 322.922H268.417V324H261.935ZM273.41 324.112C272.262 324.112 271.389 323.683 270.792 322.824C270.195 321.956 269.896 320.687 269.896 319.016C269.896 317.345 270.19 316.081 270.778 315.222C271.375 314.354 272.253 313.92 273.41 313.92C274.567 313.92 275.44 314.354 276.028 315.222C276.625 316.081 276.924 317.341 276.924 319.002C276.924 320.673 276.625 321.942 276.028 322.81C275.431 323.678 274.558 324.112 273.41 324.112ZM273.41 323.048C274.166 323.048 274.721 322.721 275.076 322.068C275.44 321.415 275.622 320.393 275.622 319.002C275.622 317.611 275.44 316.599 275.076 315.964C274.721 315.32 274.166 314.998 273.41 314.998C272.654 314.998 272.094 315.32 271.73 315.964C271.375 316.608 271.198 317.621 271.198 319.002C271.198 320.393 271.375 321.415 271.73 322.068C272.094 322.721 272.654 323.048 273.41 323.048Z" fill="#969EAC"/>
<path d="M109.32 324V314.032H110.384L114.36 323.09H113.8L117.748 314.032H118.798V324H117.622V315.796L118.056 315.852L114.514 324H113.618L110.02 315.852L110.496 315.796L110.51 324H109.32ZM123.763 324.098C123.147 324.098 122.601 323.953 122.125 323.664C121.658 323.365 121.294 322.945 121.033 322.404C120.772 321.853 120.641 321.209 120.641 320.472C120.641 319.735 120.772 319.091 121.033 318.54C121.304 317.989 121.672 317.56 122.139 317.252C122.615 316.935 123.156 316.776 123.763 316.776C124.398 316.776 124.939 316.935 125.387 317.252C125.835 317.56 126.138 318.003 126.297 318.582L126.129 318.68V316.958H127.389V324H126.129V322.236L126.297 322.306C126.138 322.875 125.835 323.319 125.387 323.636C124.939 323.944 124.398 324.098 123.763 324.098ZM124.043 323.062C124.715 323.062 125.228 322.838 125.583 322.39C125.947 321.933 126.129 321.284 126.129 320.444C126.129 319.604 125.947 318.96 125.583 318.512C125.219 318.055 124.706 317.826 124.043 317.826C123.38 317.826 122.862 318.059 122.489 318.526C122.116 318.993 121.929 319.641 121.929 320.472C121.929 321.303 122.116 321.942 122.489 322.39C122.862 322.838 123.38 323.062 124.043 323.062ZM129.51 324V318.932C129.51 318.605 129.501 318.279 129.482 317.952C129.473 317.616 129.445 317.285 129.398 316.958H130.602L130.756 318.708L130.602 318.652C130.724 318.036 130.999 317.574 131.428 317.266C131.867 316.949 132.357 316.79 132.898 316.79C133.029 316.79 133.146 316.799 133.248 316.818C133.36 316.827 133.463 316.846 133.556 316.874L133.542 318.036C133.309 317.952 133.048 317.91 132.758 317.91C132.282 317.91 131.9 318.013 131.61 318.218C131.321 318.423 131.111 318.685 130.98 319.002C130.85 319.319 130.784 319.66 130.784 320.024V324H129.51ZM138.426 324V323.02L141.898 319.212C142.346 318.708 142.672 318.255 142.878 317.854C143.092 317.443 143.2 317.033 143.2 316.622C143.2 316.099 143.046 315.698 142.738 315.418C142.43 315.129 141.996 314.984 141.436 314.984C140.96 314.984 140.488 315.082 140.022 315.278C139.555 315.465 139.093 315.745 138.636 316.118L138.16 315.138C138.552 314.765 139.046 314.471 139.644 314.256C140.25 314.032 140.857 313.92 141.464 313.92C142.089 313.92 142.626 314.027 143.074 314.242C143.522 314.447 143.872 314.751 144.124 315.152C144.376 315.544 144.502 316.011 144.502 316.552C144.502 317.121 144.371 317.667 144.11 318.19C143.858 318.713 143.438 319.301 142.85 319.954L139.56 323.496L139.448 322.922H144.908V324H138.426ZM149.9 324.112C148.752 324.112 147.88 323.683 147.282 322.824C146.685 321.956 146.386 320.687 146.386 319.016C146.386 317.345 146.68 316.081 147.268 315.222C147.866 314.354 148.743 313.92 149.9 313.92C151.058 313.92 151.93 314.354 152.518 315.222C153.116 316.081 153.414 317.341 153.414 319.002C153.414 320.673 153.116 321.942 152.518 322.81C151.921 323.678 151.048 324.112 149.9 324.112ZM149.9 323.048C150.656 323.048 151.212 322.721 151.566 322.068C151.93 321.415 152.112 320.393 152.112 319.002C152.112 317.611 151.93 316.599 151.566 315.964C151.212 315.32 150.656 314.998 149.9 314.998C149.144 314.998 148.584 315.32 148.22 315.964C147.866 316.608 147.688 317.621 147.688 319.002C147.688 320.393 147.866 321.415 148.22 322.068C148.584 322.721 149.144 323.048 149.9 323.048ZM155.215 324V323.02L158.687 319.212C159.135 318.708 159.461 318.255 159.667 317.854C159.881 317.443 159.989 317.033 159.989 316.622C159.989 316.099 159.835 315.698 159.527 315.418C159.219 315.129 158.785 314.984 158.225 314.984C157.749 314.984 157.277 315.082 156.811 315.278C156.344 315.465 155.882 315.745 155.425 316.118L154.949 315.138C155.341 314.765 155.835 314.471 156.433 314.256C157.039 314.032 157.646 313.92 158.253 313.92C158.878 313.92 159.415 314.027 159.863 314.242C160.311 314.447 160.661 314.751 160.913 315.152C161.165 315.544 161.291 316.011 161.291 316.552C161.291 317.121 161.16 317.667 160.899 318.19C160.647 318.713 160.227 319.301 159.639 319.954L156.349 323.496L156.237 322.922H161.697V324H155.215ZM166.689 324.112C165.541 324.112 164.669 323.683 164.071 322.824C163.474 321.956 163.175 320.687 163.175 319.016C163.175 317.345 163.469 316.081 164.057 315.222C164.655 314.354 165.532 313.92 166.689 313.92C167.847 313.92 168.719 314.354 169.307 315.222C169.905 316.081 170.203 317.341 170.203 319.002C170.203 320.673 169.905 321.942 169.307 322.81C168.71 323.678 167.837 324.112 166.689 324.112ZM166.689 323.048C167.445 323.048 168.001 322.721 168.355 322.068C168.719 321.415 168.901 320.393 168.901 319.002C168.901 317.611 168.719 316.599 168.355 315.964C168.001 315.32 167.445 314.998 166.689 314.998C165.933 314.998 165.373 315.32 165.009 315.964C164.655 316.608 164.477 317.621 164.477 319.002C164.477 320.393 164.655 321.415 165.009 322.068C165.373 322.721 165.933 323.048 166.689 323.048Z" fill="#969EAC"/>
<path d="M5.64052 324V314.032H11.8705V315.11H6.91452V318.4H11.5905V319.478H6.91452V324H5.64052ZM19.1038 323.174C18.7958 323.463 18.3992 323.692 17.9138 323.86C17.4285 324.019 16.9338 324.098 16.4298 324.098C15.6925 324.098 15.0578 323.953 14.5258 323.664C13.9938 323.375 13.5832 322.959 13.2938 322.418C13.0045 321.867 12.8598 321.214 12.8598 320.458C12.8598 319.73 12.9998 319.091 13.2798 318.54C13.5692 317.989 13.9658 317.56 14.4698 317.252C14.9738 316.935 15.5525 316.776 16.2058 316.776C16.8405 316.776 17.3818 316.916 17.8298 317.196C18.2872 317.476 18.6325 317.877 18.8658 318.4C19.1085 318.913 19.2298 319.529 19.2298 320.248V320.472H13.9798V319.688H18.5018L18.1098 320.192C18.1285 319.399 17.9745 318.792 17.6478 318.372C17.3212 317.952 16.8452 317.742 16.2198 317.742C15.5665 317.742 15.0532 317.975 14.6798 318.442C14.3158 318.899 14.1338 319.543 14.1338 320.374C14.1338 321.27 14.3298 321.947 14.7218 322.404C15.1138 322.852 15.6925 323.076 16.4578 323.076C16.8685 323.076 17.2605 323.011 17.6338 322.88C18.0072 322.74 18.3618 322.535 18.6978 322.264L19.1038 323.174ZM20.9087 324V313.696H22.1827V318.736L22.0147 318.568C22.1734 318.008 22.4767 317.569 22.9247 317.252C23.3727 316.935 23.9094 316.776 24.5347 316.776C25.1601 316.776 25.7061 316.925 26.1727 317.224C26.6394 317.523 27.0034 317.947 27.2647 318.498C27.5354 319.039 27.6707 319.679 27.6707 320.416C27.6707 321.153 27.5354 321.802 27.2647 322.362C27.0034 322.913 26.6347 323.342 26.1587 323.65C25.6921 323.949 25.1507 324.098 24.5347 324.098C23.9094 324.098 23.3727 323.944 22.9247 323.636C22.4767 323.319 22.1734 322.875 22.0147 322.306L22.1687 322.138V324H20.9087ZM24.2687 323.062C24.9314 323.062 25.4447 322.833 25.8087 322.376C26.1727 321.909 26.3547 321.256 26.3547 320.416C26.3547 319.595 26.1727 318.96 25.8087 318.512C25.4447 318.055 24.9314 317.826 24.2687 317.826C23.5967 317.826 23.0787 318.055 22.7147 318.512C22.3507 318.969 22.1687 319.613 22.1687 320.444C22.1687 321.284 22.3507 321.933 22.7147 322.39C23.0787 322.838 23.5967 323.062 24.2687 323.062ZM33.1054 324V323.02L36.5774 319.212C37.0254 318.708 37.352 318.255 37.5574 317.854C37.772 317.443 37.8794 317.033 37.8794 316.622C37.8794 316.099 37.7254 315.698 37.4174 315.418C37.1094 315.129 36.6754 314.984 36.1154 314.984C35.6394 314.984 35.168 315.082 34.7014 315.278C34.2347 315.465 33.7727 315.745 33.3154 316.118L32.8394 315.138C33.2314 314.765 33.726 314.471 34.3234 314.256C34.93 314.032 35.5367 313.92 36.1434 313.92C36.7687 313.92 37.3054 314.027 37.7534 314.242C38.2014 314.447 38.5514 314.751 38.8034 315.152C39.0554 315.544 39.1814 316.011 39.1814 316.552C39.1814 317.121 39.0507 317.667 38.7894 318.19C38.5374 318.713 38.1174 319.301 37.5294 319.954L34.2394 323.496L34.1274 322.922H39.5874V324H33.1054ZM44.5799 324.112C43.4319 324.112 42.5592 323.683 41.9619 322.824C41.3645 321.956 41.0659 320.687 41.0659 319.016C41.0659 317.345 41.3599 316.081 41.9479 315.222C42.5452 314.354 43.4225 313.92 44.5799 313.92C45.7372 313.92 46.6099 314.354 47.1979 315.222C47.7952 316.081 48.0939 317.341 48.0939 319.002C48.0939 320.673 47.7952 321.942 47.1979 322.81C46.6005 323.678 45.7279 324.112 44.5799 324.112ZM44.5799 323.048C45.3359 323.048 45.8912 322.721 46.2459 322.068C46.6099 321.415 46.7919 320.393 46.7919 319.002C46.7919 317.611 46.6099 316.599 46.2459 315.964C45.8912 315.32 45.3359 314.998 44.5799 314.998C43.8239 314.998 43.2639 315.32 42.8999 315.964C42.5452 316.608 42.3679 317.621 42.3679 319.002C42.3679 320.393 42.5452 321.415 42.8999 322.068C43.2639 322.721 43.8239 323.048 44.5799 323.048ZM49.8944 324V323.02L53.3664 319.212C53.8144 318.708 54.1411 318.255 54.3464 317.854C54.5611 317.443 54.6684 317.033 54.6684 316.622C54.6684 316.099 54.5144 315.698 54.2064 315.418C53.8984 315.129 53.4644 314.984 52.9044 314.984C52.4284 314.984 51.9571 315.082 51.4904 315.278C51.0237 315.465 50.5617 315.745 50.1044 316.118L49.6284 315.138C50.0204 314.765 50.5151 314.471 51.1124 314.256C51.7191 314.032 52.3257 313.92 52.9324 313.92C53.5577 313.92 54.0944 314.027 54.5424 314.242C54.9904 314.447 55.3404 314.751 55.5924 315.152C55.8444 315.544 55.9704 316.011 55.9704 316.552C55.9704 317.121 55.8397 317.667 55.5784 318.19C55.3264 318.713 54.9064 319.301 54.3184 319.954L51.0284 323.496L50.9164 322.922H56.3764V324H49.8944ZM61.3689 324.112C60.2209 324.112 59.3483 323.683 58.7509 322.824C58.1536 321.956 57.8549 320.687 57.8549 319.016C57.8549 317.345 58.1489 316.081 58.7369 315.222C59.3343 314.354 60.2116 313.92 61.3689 313.92C62.5263 313.92 63.3989 314.354 63.9869 315.222C64.5843 316.081 64.8829 317.341 64.8829 319.002C64.8829 320.673 64.5843 321.942 63.9869 322.81C63.3896 323.678 62.5169 324.112 61.3689 324.112ZM61.3689 323.048C62.1249 323.048 62.6803 322.721 63.0349 322.068C63.3989 321.415 63.5809 320.393 63.5809 319.002C63.5809 317.611 63.3989 316.599 63.0349 315.964C62.6803 315.32 62.1249 314.998 61.3689 314.998C60.6129 314.998 60.0529 315.32 59.6889 315.964C59.3343 316.608 59.1569 317.621 59.1569 319.002C59.1569 320.393 59.3343 321.415 59.6889 322.068C60.0529 322.721 60.6129 323.048 61.3689 323.048Z" fill="#969EAC"/>
<path opacity="0.24" d="M44 294.5L828 294.5" stroke="#969EAC"/>
<path opacity="0.1" d="M44 258H828" stroke="#969EAC"/>
<path opacity="0.1" d="M44 222H828" stroke="#969EAC"/>
<path opacity="0.1" d="M44 186H828" stroke="#969EAC"/>
<path opacity="0.1" d="M44 150H828" stroke="#969EAC"/>
<path opacity="0.1" d="M44 114H828" stroke="#969EAC"/>
<path opacity="0.1" d="M44 78H828" stroke="#969EAC"/>
<path opacity="0.1" d="M44 42H828" stroke="#969EAC"/>
<path d="M712 44C712 42.8954 712.895 42 714 42H720C721.105 42 722 42.8954 722 44V294H712V44Z" fill="#D3365F"/>
<path d="M696 270C696 268.895 696.895 268 698 268H704C705.105 268 706 268.895 706 270V294H696V270Z" fill="#235EE7"/>
<path d="M680 206C680 204.895 680.895 204 682 204H688C689.105 204 690 204.895 690 206V294H680V206Z" fill="#29CFD6"/>
<path d="M606 136C606 134.895 606.895 134 608 134H614C615.105 134 616 134.895 616 136V294H606V136Z" fill="#D3365F"/>
<path d="M590 162C590 160.895 590.895 160 592 160H598C599.105 160 600 160.895 600 162V294H590V162Z" fill="#235EE7"/>
<path d="M574 191C574 189.895 574.895 189 576 189H582C583.105 189 584 189.895 584 191V294H574V191Z" fill="#29CFD6"/>
<path d="M500 77C500 75.8954 500.895 75 502 75H508C509.105 75 510 75.8954 510 77V294H500V77Z" fill="#D3365F"/>
<path d="M484 128C484 126.895 484.895 126 486 126H492C493.105 126 494 126.895 494 128V294H484V128Z" fill="#235EE7"/>
<path d="M468 91C468 89.8954 468.895 89 470 89H476C477.105 89 478 89.8954 478 91V294H468V91Z" fill="#29CFD6"/>
<path d="M288 136C288 134.895 288.895 134 290 134H296C297.105 134 298 134.895 298 136V294H288V136Z" fill="#D3365F"/>
<path d="M272 44C272 42.8954 272.895 42 274 42H280C281.105 42 282 42.8954 282 44V294H272V44Z" fill="#235EE7"/>
<path d="M256 270C256 268.895 256.895 268 258 268H264C265.105 268 266 268.895 266 270V294H256V270Z" fill="#29CFD6"/>
<path d="M182 84C182 82.8954 182.895 82 184 82H190C191.105 82 192 82.8954 192 84V294H182V84Z" fill="#D3365F"/>
<path d="M166 116C166 114.895 166.895 114 168 114H174C175.105 114 176 114.895 176 116V294H166V116Z" fill="#235EE7"/>
<path d="M150 178C150 176.895 150.895 176 152 176H158C159.105 176 160 176.895 160 178V294H150V178Z" fill="#29CFD6"/>
<path d="M76 162C76 160.895 76.8954 160 78 160H84C85.1046 160 86 160.895 86 162V294H76V162Z" fill="#D3365F"/>
<path d="M60 206C60 204.895 60.8954 204 62 204H68C69.1046 204 70 204.895 70 206V294H60V206Z" fill="#235EE7"/>
<path d="M44 191C44 189.895 44.8954 189 46 189H52C53.1046 189 54 189.895 54 191V294H44V191Z" fill="#29CFD6"/>
<path d="M394 162C394 160.895 394.895 160 396 160H402C403.105 160 404 160.895 404 162V294H394V162Z" fill="#D3365F"/>
<path d="M378 206C378 204.895 378.895 204 380 204H386C387.105 204 388 204.895 388 206V294H378V206Z" fill="#235EE7"/>
<path d="M362 103C362 101.895 362.895 101 364 101H370C371.105 101 372 101.895 372 103V294H362V103Z" fill="#29CFD6"/>
<circle cx="542" cy="294" r="4" fill="#FAFBFD"/>
<circle cx="542" cy="294" r="3" stroke="#969EAC" stroke-opacity="0.3" stroke-width="2"/>
<defs>
<filter id="filter0_di" x="0" y="0" width="1085" height="370" filterUnits="userSpaceOnUse" color-interpolation-filters="sRGB">
<feFlood flood-opacity="0" result="BackgroundImageFix"/>
<feColorMatrix in="SourceAlpha" type="matrix" values="0 0 0 0 0 0 0 0 0 0 0 0 0 0 0 0 0 0 127 0"/>
<feOffset dy="2"/>
<feGaussianBlur stdDeviation="4"/>
<feColorMatrix type="matrix" values="0 0 0 0 0.888 0 0 0 0 0.911467 0 0 0 0 0.952 0 0 0 1 0"/>
<feBlend mode="normal" in2="BackgroundImageFix" result="effect1_dropShadow"/>
<feBlend mode="normal" in="SourceGraphic" in2="effect1_dropShadow" result="shape"/>
<feColorMatrix in="SourceAlpha" type="matrix" values="0 0 0 0 0 0 0 0 0 0 0 0 0 0 0 0 0 0 127 0" result="hardAlpha"/>
<feOffset dy="-1"/>
<feComposite in2="hardAlpha" operator="arithmetic" k2="-1" k3="1"/>
<feColorMatrix type="matrix" values="0 0 0 0 0.921569 0 0 0 0 0.92549 0 0 0 0 0.945098 0 0 0 1 0"/>
<feBlend mode="normal" in2="shape" result="effect2_innerShadow"/>
</filter>
<linearGradient id="paint0_linear" x1="542" y1="133.5" x2="828" y2="133.5" gradientUnits="userSpaceOnUse">
<stop stop-color="#534CEA"/>
<stop offset="1" stop-color="#534CEA" stop-opacity="0"/>
</linearGradient>
</defs>
</svg>
