<svg width="366" height="332" viewBox="0 0 366 332" fill="none" xmlns="http://www.w3.org/2000/svg">
<path d="M222.196 328V316.608H226.788C228.036 316.608 228.986 316.885 229.636 317.44C230.298 317.984 230.628 318.773 230.628 319.808C230.628 320.789 230.292 321.563 229.62 322.128C228.948 322.693 228.01 322.976 226.804 322.976L228.004 322.752C228.42 322.752 228.778 322.869 229.076 323.104C229.375 323.328 229.615 323.691 229.796 324.192L231.236 328H229.652L228.244 324.208C228.074 323.749 227.834 323.445 227.524 323.296C227.226 323.147 226.826 323.072 226.324 323.072H223.652V328H222.196ZM223.652 321.872H226.644C227.508 321.872 228.148 321.701 228.564 321.36C228.98 321.008 229.188 320.496 229.188 319.824C229.188 319.141 228.98 318.635 228.564 318.304C228.159 317.973 227.519 317.808 226.644 317.808H223.652V321.872ZM239.817 327.056C239.465 327.387 239.012 327.648 238.457 327.84C237.903 328.021 237.337 328.112 236.761 328.112C235.919 328.112 235.193 327.947 234.585 327.616C233.977 327.285 233.508 326.811 233.177 326.192C232.847 325.563 232.681 324.816 232.681 323.952C232.681 323.12 232.841 322.389 233.161 321.76C233.492 321.131 233.945 320.64 234.521 320.288C235.097 319.925 235.759 319.744 236.505 319.744C237.231 319.744 237.849 319.904 238.361 320.224C238.884 320.544 239.279 321.003 239.545 321.6C239.823 322.187 239.961 322.891 239.961 323.712V323.968H233.961V323.072H239.129L238.681 323.648C238.703 322.741 238.527 322.048 238.153 321.568C237.78 321.088 237.236 320.848 236.521 320.848C235.775 320.848 235.188 321.115 234.761 321.648C234.345 322.171 234.137 322.907 234.137 323.856C234.137 324.88 234.361 325.653 234.809 326.176C235.257 326.688 235.919 326.944 236.793 326.944C237.263 326.944 237.711 326.869 238.137 326.72C238.564 326.56 238.969 326.325 239.353 326.016L239.817 327.056ZM244.968 328.112C244.264 328.112 243.64 327.947 243.096 327.616C242.563 327.275 242.147 326.795 241.848 326.176C241.549 325.547 241.4 324.811 241.4 323.968C241.4 323.125 241.549 322.389 241.848 321.76C242.157 321.131 242.579 320.64 243.112 320.288C243.656 319.925 244.275 319.744 244.968 319.744C245.693 319.744 246.312 319.925 246.824 320.288C247.336 320.64 247.683 321.147 247.864 321.808L247.672 321.92V319.952H249.112V328H247.672V325.984L247.864 326.064C247.683 326.715 247.336 327.221 246.824 327.584C246.312 327.936 245.693 328.112 244.968 328.112ZM245.288 326.928C246.056 326.928 246.643 326.672 247.048 326.16C247.464 325.637 247.672 324.896 247.672 323.936C247.672 322.976 247.464 322.24 247.048 321.728C246.632 321.205 246.045 320.944 245.288 320.944C244.531 320.944 243.939 321.211 243.512 321.744C243.085 322.277 242.872 323.019 242.872 323.968C242.872 324.917 243.085 325.648 243.512 326.16C243.939 326.672 244.531 326.928 245.288 326.928ZM251.536 328V316.224H252.992V328H251.536ZM259.806 328V316.608H267.086V317.824H261.262V321.6H266.766V322.832H261.262V326.784H267.086V328H259.806ZM271.851 328.112C270.475 328.112 269.382 327.765 268.571 327.072L269.035 326.016C269.462 326.347 269.905 326.592 270.363 326.752C270.833 326.901 271.345 326.976 271.899 326.976C272.475 326.976 272.913 326.88 273.211 326.688C273.521 326.485 273.675 326.197 273.675 325.824C273.675 325.525 273.569 325.291 273.355 325.12C273.153 324.939 272.811 324.789 272.331 324.672L270.987 324.352C270.294 324.203 269.761 323.936 269.387 323.552C269.025 323.168 268.843 322.704 268.843 322.16C268.843 321.691 268.971 321.275 269.227 320.912C269.494 320.549 269.862 320.267 270.331 320.064C270.801 319.851 271.355 319.744 271.995 319.744C272.561 319.744 273.094 319.835 273.595 320.016C274.107 320.197 274.539 320.459 274.891 320.8L274.427 321.84C274.043 321.52 273.649 321.285 273.243 321.136C272.838 320.976 272.417 320.896 271.979 320.896C271.435 320.896 271.009 321.003 270.699 321.216C270.401 321.429 270.251 321.717 270.251 322.08C270.251 322.389 270.347 322.635 270.539 322.816C270.731 322.997 271.035 323.141 271.451 323.248L272.811 323.584C273.579 323.744 274.145 324.011 274.507 324.384C274.87 324.747 275.051 325.216 275.051 325.792C275.051 326.496 274.763 327.061 274.187 327.488C273.611 327.904 272.833 328.112 271.851 328.112ZM275.854 321.072V319.952H281.134V321.072H275.854ZM281.102 326.736V327.952C280.921 328.005 280.734 328.043 280.542 328.064C280.361 328.096 280.164 328.112 279.95 328.112C279.161 328.112 278.537 327.888 278.078 327.44C277.63 326.992 277.406 326.331 277.406 325.456V317.904L278.862 317.392V325.296C278.862 325.712 278.921 326.037 279.038 326.272C279.166 326.496 279.332 326.656 279.534 326.752C279.748 326.837 279.988 326.88 280.254 326.88C280.404 326.88 280.542 326.869 280.67 326.848C280.798 326.827 280.942 326.789 281.102 326.736ZM285.765 328.112C285.061 328.112 284.437 327.947 283.893 327.616C283.36 327.275 282.944 326.795 282.645 326.176C282.346 325.547 282.197 324.811 282.197 323.968C282.197 323.125 282.346 322.389 282.645 321.76C282.954 321.131 283.376 320.64 283.909 320.288C284.453 319.925 285.072 319.744 285.765 319.744C286.49 319.744 287.109 319.925 287.621 320.288C288.133 320.64 288.48 321.147 288.661 321.808L288.469 321.92V319.952H289.909V328H288.469V325.984L288.661 326.064C288.48 326.715 288.133 327.221 287.621 327.584C287.109 327.936 286.49 328.112 285.765 328.112ZM286.085 326.928C286.853 326.928 287.44 326.672 287.845 326.16C288.261 325.637 288.469 324.896 288.469 323.936C288.469 322.976 288.261 322.24 287.845 321.728C287.429 321.205 286.842 320.944 286.085 320.944C285.328 320.944 284.736 321.211 284.309 321.744C283.882 322.277 283.669 323.019 283.669 323.968C283.669 324.917 283.882 325.648 284.309 326.16C284.736 326.672 285.328 326.928 286.085 326.928ZM291.229 321.072V319.952H296.509V321.072H291.229ZM296.477 326.736V327.952C296.296 328.005 296.109 328.043 295.917 328.064C295.736 328.096 295.539 328.112 295.325 328.112C294.536 328.112 293.912 327.888 293.453 327.44C293.005 326.992 292.781 326.331 292.781 325.456V317.904L294.237 317.392V325.296C294.237 325.712 294.296 326.037 294.413 326.272C294.541 326.496 294.707 326.656 294.909 326.752C295.123 326.837 295.363 326.88 295.629 326.88C295.779 326.88 295.917 326.869 296.045 326.848C296.173 326.827 296.317 326.789 296.477 326.736ZM304.708 327.056C304.356 327.387 303.903 327.648 303.348 327.84C302.793 328.021 302.228 328.112 301.652 328.112C300.809 328.112 300.084 327.947 299.476 327.616C298.868 327.285 298.399 326.811 298.068 326.192C297.737 325.563 297.572 324.816 297.572 323.952C297.572 323.12 297.732 322.389 298.052 321.76C298.383 321.131 298.836 320.64 299.412 320.288C299.988 319.925 300.649 319.744 301.396 319.744C302.121 319.744 302.74 319.904 303.252 320.224C303.775 320.544 304.169 321.003 304.436 321.6C304.713 322.187 304.852 322.891 304.852 323.712V323.968H298.852V323.072H304.02L303.572 323.648C303.593 322.741 303.417 322.048 303.044 321.568C302.671 321.088 302.127 320.848 301.412 320.848C300.665 320.848 300.079 321.115 299.652 321.648C299.236 322.171 299.028 322.907 299.028 323.856C299.028 324.88 299.252 325.653 299.7 326.176C300.148 326.688 300.809 326.944 301.684 326.944C302.153 326.944 302.601 326.869 303.028 326.72C303.455 326.56 303.86 326.325 304.244 326.016L304.708 327.056ZM310.925 324.288V323.104H315.517V324.288H310.925ZM321.16 327.328V317.552L321.976 317.888L318.824 319.872V318.48L321.8 316.608H322.648V327.328H321.16ZM318.648 328V326.768H325.16V328H318.648ZM331.058 328.128C329.746 328.128 328.748 327.637 328.066 326.656C327.383 325.664 327.042 324.213 327.042 322.304C327.042 320.395 327.378 318.949 328.05 317.968C328.732 316.976 329.735 316.48 331.058 316.48C332.38 316.48 333.378 316.976 334.05 317.968C334.732 318.949 335.074 320.389 335.074 322.288C335.074 324.197 334.732 325.648 334.05 326.64C333.367 327.632 332.37 328.128 331.058 328.128ZM331.058 326.912C331.922 326.912 332.556 326.539 332.962 325.792C333.378 325.045 333.586 323.877 333.586 322.288C333.586 320.699 333.378 319.541 332.962 318.816C332.556 318.08 331.922 317.712 331.058 317.712C330.194 317.712 329.554 318.08 329.138 318.816C328.732 319.552 328.53 320.709 328.53 322.288C328.53 323.877 328.732 325.045 329.138 325.792C329.554 326.539 330.194 326.912 331.058 326.912ZM338.892 323.504C338.102 323.504 337.478 323.216 337.02 322.64C336.561 322.064 336.332 321.189 336.332 320.016C336.332 318.832 336.561 317.957 337.02 317.392C337.478 316.827 338.102 316.544 338.892 316.544C339.681 316.544 340.3 316.827 340.748 317.392C341.206 317.957 341.436 318.832 341.436 320.016C341.436 321.189 341.206 322.064 340.748 322.64C340.3 323.216 339.681 323.504 338.892 323.504ZM338.892 322.496C339.308 322.496 339.617 322.304 339.82 321.92C340.033 321.525 340.14 320.891 340.14 320.016C340.14 319.152 340.033 318.528 339.82 318.144C339.617 317.749 339.308 317.552 338.892 317.552C338.476 317.552 338.161 317.749 337.948 318.144C337.745 318.528 337.644 319.152 337.644 320.016C337.644 320.891 337.745 321.525 337.948 321.92C338.161 322.304 338.476 322.496 338.892 322.496ZM338.668 328L345.26 316.608H346.652L340.076 328H338.668ZM346.428 328.064C345.638 328.064 345.014 327.776 344.556 327.2C344.097 326.624 343.868 325.749 343.868 324.576C343.868 323.392 344.097 322.517 344.556 321.952C345.014 321.387 345.638 321.104 346.428 321.104C347.217 321.104 347.836 321.387 348.284 321.952C348.742 322.517 348.972 323.392 348.972 324.576C348.972 325.749 348.742 326.624 348.284 327.2C347.836 327.776 347.217 328.064 346.428 328.064ZM346.428 327.056C346.844 327.056 347.153 326.864 347.356 326.48C347.569 326.085 347.676 325.451 347.676 324.576C347.676 323.712 347.569 323.088 347.356 322.704C347.153 322.309 346.844 322.112 346.428 322.112C346.012 322.112 345.697 322.309 345.484 322.704C345.281 323.088 345.18 323.712 345.18 324.576C345.18 325.451 345.281 326.085 345.484 326.48C345.697 326.864 346.012 327.056 346.428 327.056Z" fill="#969EAC"/>
<rect x="180.771" y="312" width="18.0222" height="18" rx="2" fill="#D3365F"/>
<path d="M222.196 292V280.608H223.412L227.956 290.96H227.316L231.828 280.608H233.028V292H231.684V282.624L232.18 282.688L228.132 292H227.108L222.996 282.688L223.54 282.624L223.556 292H222.196ZM238.478 292.112C237.508 292.112 236.777 291.845 236.286 291.312C235.806 290.768 235.566 289.968 235.566 288.912V283.952H237.022V288.896C237.022 289.589 237.161 290.101 237.438 290.432C237.726 290.752 238.164 290.912 238.75 290.912C239.433 290.912 239.982 290.693 240.398 290.256C240.814 289.808 241.022 289.216 241.022 288.48V283.952H242.494V292H241.07V290.272L241.262 290.192C241.049 290.821 240.692 291.301 240.19 291.632C239.689 291.952 239.118 292.112 238.478 292.112ZM244.911 292V286.208C244.911 285.835 244.901 285.461 244.879 285.088C244.869 284.704 244.837 284.325 244.783 283.952H246.159L246.303 285.6L246.143 285.696C246.378 285.067 246.751 284.587 247.263 284.256C247.786 283.915 248.383 283.744 249.055 283.744C250.986 283.744 251.951 284.816 251.951 286.96V292H250.495V287.04C250.495 286.315 250.351 285.787 250.063 285.456C249.786 285.115 249.338 284.944 248.719 284.944C248.005 284.944 247.434 285.168 247.007 285.616C246.581 286.053 246.367 286.645 246.367 287.392V292H244.911ZM254.333 292V283.952H255.789V292H254.333ZM254.205 280.48H255.917V282.064H254.205V280.48ZM260.992 292.112C259.616 292.112 258.522 291.765 257.712 291.072L258.176 290.016C258.602 290.347 259.045 290.592 259.504 290.752C259.973 290.901 260.485 290.976 261.04 290.976C261.616 290.976 262.053 290.88 262.352 290.688C262.661 290.485 262.816 290.197 262.816 289.824C262.816 289.525 262.709 289.291 262.496 289.12C262.293 288.939 261.952 288.789 261.472 288.672L260.128 288.352C259.434 288.203 258.901 287.936 258.528 287.552C258.165 287.168 257.984 286.704 257.984 286.16C257.984 285.691 258.112 285.275 258.368 284.912C258.634 284.549 259.002 284.267 259.472 284.064C259.941 283.851 260.496 283.744 261.136 283.744C261.701 283.744 262.234 283.835 262.736 284.016C263.248 284.197 263.68 284.459 264.032 284.8L263.568 285.84C263.184 285.52 262.789 285.285 262.384 285.136C261.978 284.976 261.557 284.896 261.12 284.896C260.576 284.896 260.149 285.003 259.84 285.216C259.541 285.429 259.392 285.717 259.392 286.08C259.392 286.389 259.488 286.635 259.68 286.816C259.872 286.997 260.176 287.141 260.592 287.248L261.952 287.584C262.72 287.744 263.285 288.011 263.648 288.384C264.01 288.747 264.192 289.216 264.192 289.792C264.192 290.496 263.904 291.061 263.328 291.488C262.752 291.904 261.973 292.112 260.992 292.112ZM270.332 288.288V287.104H274.924V288.288H270.332ZM282.006 292V282.464H282.422L277.862 289.024L277.878 288.368H285.174V289.568H276.822V288.464L282.262 280.608H283.478V292H282.006ZM290.608 292.112C289.904 292.112 289.211 291.989 288.528 291.744C287.856 291.499 287.291 291.157 286.832 290.72L287.376 289.6C287.899 290.027 288.427 290.352 288.96 290.576C289.493 290.789 290.043 290.896 290.608 290.896C291.387 290.896 291.995 290.683 292.432 290.256C292.869 289.819 293.088 289.221 293.088 288.464C293.088 287.984 292.987 287.563 292.784 287.2C292.592 286.837 292.315 286.555 291.952 286.352C291.6 286.139 291.184 286.032 290.704 286.032C290.181 286.032 289.707 286.139 289.28 286.352C288.853 286.555 288.48 286.864 288.16 287.28H287.168V280.608H294.064V281.808H288.64V286.224L288.176 286.176C288.485 285.739 288.88 285.403 289.36 285.168C289.84 284.933 290.379 284.816 290.976 284.816C291.701 284.816 292.331 284.971 292.864 285.28C293.397 285.579 293.808 286 294.096 286.544C294.384 287.088 294.528 287.717 294.528 288.432C294.528 289.157 294.368 289.797 294.048 290.352C293.728 290.907 293.275 291.339 292.688 291.648C292.101 291.957 291.408 292.112 290.608 292.112ZM298.298 287.504C297.508 287.504 296.884 287.216 296.426 286.64C295.967 286.064 295.738 285.189 295.738 284.016C295.738 282.832 295.967 281.957 296.426 281.392C296.884 280.827 297.508 280.544 298.298 280.544C299.087 280.544 299.706 280.827 300.154 281.392C300.612 281.957 300.842 282.832 300.842 284.016C300.842 285.189 300.612 286.064 300.154 286.64C299.706 287.216 299.087 287.504 298.298 287.504ZM298.298 286.496C298.714 286.496 299.023 286.304 299.226 285.92C299.439 285.525 299.546 284.891 299.546 284.016C299.546 283.152 299.439 282.528 299.226 282.144C299.023 281.749 298.714 281.552 298.298 281.552C297.882 281.552 297.567 281.749 297.354 282.144C297.151 282.528 297.05 283.152 297.05 284.016C297.05 284.891 297.151 285.525 297.354 285.92C297.567 286.304 297.882 286.496 298.298 286.496ZM298.074 292L304.666 280.608H306.058L299.482 292H298.074ZM305.834 292.064C305.044 292.064 304.42 291.776 303.962 291.2C303.503 290.624 303.274 289.749 303.274 288.576C303.274 287.392 303.503 286.517 303.962 285.952C304.42 285.387 305.044 285.104 305.834 285.104C306.623 285.104 307.242 285.387 307.69 285.952C308.148 286.517 308.378 287.392 308.378 288.576C308.378 289.749 308.148 290.624 307.69 291.2C307.242 291.776 306.623 292.064 305.834 292.064ZM305.834 291.056C306.25 291.056 306.559 290.864 306.762 290.48C306.975 290.085 307.082 289.451 307.082 288.576C307.082 287.712 306.975 287.088 306.762 286.704C306.559 286.309 306.25 286.112 305.834 286.112C305.418 286.112 305.103 286.309 304.89 286.704C304.687 287.088 304.586 287.712 304.586 288.576C304.586 289.451 304.687 290.085 304.89 290.48C305.103 290.864 305.418 291.056 305.834 291.056Z" fill="#969EAC"/>
<rect x="180.771" y="276" width="18.0222" height="18" rx="2" fill="#29CFD6"/>
<path d="M222.196 256V244.608H223.412L227.956 254.96H227.316L231.828 244.608H233.028V256H231.684V246.624L232.18 246.688L228.132 256H227.108L222.996 246.688L223.54 246.624L223.556 256H222.196ZM238.478 256.112C237.508 256.112 236.777 255.845 236.286 255.312C235.806 254.768 235.566 253.968 235.566 252.912V247.952H237.022V252.896C237.022 253.589 237.161 254.101 237.438 254.432C237.726 254.752 238.164 254.912 238.75 254.912C239.433 254.912 239.982 254.693 240.398 254.256C240.814 253.808 241.022 253.216 241.022 252.48V247.952H242.494V256H241.07V254.272L241.262 254.192C241.049 254.821 240.692 255.301 240.19 255.632C239.689 255.952 239.118 256.112 238.478 256.112ZM243.807 249.072V247.952H249.087V249.072H243.807ZM249.055 254.736V255.952C248.874 256.005 248.687 256.043 248.495 256.064C248.314 256.096 248.117 256.112 247.903 256.112C247.114 256.112 246.49 255.888 246.031 255.44C245.583 254.992 245.359 254.331 245.359 253.456V245.904L246.815 245.392V253.296C246.815 253.712 246.874 254.037 246.991 254.272C247.119 254.496 247.285 254.656 247.487 254.752C247.701 254.837 247.941 254.88 248.207 254.88C248.357 254.88 248.495 254.869 248.623 254.848C248.751 254.827 248.895 254.789 249.055 254.736ZM253.494 256.112C252.523 256.112 251.793 255.845 251.302 255.312C250.822 254.768 250.582 253.968 250.582 252.912V247.952H252.038V252.896C252.038 253.589 252.177 254.101 252.454 254.432C252.742 254.752 253.179 254.912 253.766 254.912C254.449 254.912 254.998 254.693 255.414 254.256C255.83 253.808 256.038 253.216 256.038 252.48V247.952H257.51V256H256.086V254.272L256.278 254.192C256.065 254.821 255.707 255.301 255.206 255.632C254.705 255.952 254.134 256.112 253.494 256.112ZM263.015 256.112C262.311 256.112 261.687 255.947 261.143 255.616C260.61 255.275 260.194 254.795 259.895 254.176C259.596 253.547 259.447 252.811 259.447 251.968C259.447 251.125 259.596 250.389 259.895 249.76C260.204 249.131 260.626 248.64 261.159 248.288C261.703 247.925 262.322 247.744 263.015 247.744C263.74 247.744 264.359 247.925 264.871 248.288C265.383 248.64 265.73 249.147 265.911 249.808L265.719 249.92V247.952H267.159V256H265.719V253.984L265.911 254.064C265.73 254.715 265.383 255.221 264.871 255.584C264.359 255.936 263.74 256.112 263.015 256.112ZM263.335 254.928C264.103 254.928 264.69 254.672 265.095 254.16C265.511 253.637 265.719 252.896 265.719 251.936C265.719 250.976 265.511 250.24 265.095 249.728C264.679 249.205 264.092 248.944 263.335 248.944C262.578 248.944 261.986 249.211 261.559 249.744C261.132 250.277 260.919 251.019 260.919 251.968C260.919 252.917 261.132 253.648 261.559 254.16C261.986 254.672 262.578 254.928 263.335 254.928ZM269.583 256V244.224H271.039V256H269.583ZM277.853 256V244.608H284.973V245.84H279.309V249.6H284.653V250.832H279.309V256H277.853ZM289.447 256.112C288.477 256.112 287.746 255.845 287.255 255.312C286.775 254.768 286.535 253.968 286.535 252.912V247.952H287.991V252.896C287.991 253.589 288.13 254.101 288.407 254.432C288.695 254.752 289.133 254.912 289.719 254.912C290.402 254.912 290.951 254.693 291.367 254.256C291.783 253.808 291.991 253.216 291.991 252.48V247.952H293.463V256H292.039V254.272L292.231 254.192C292.018 254.821 291.661 255.301 291.159 255.632C290.658 255.952 290.087 256.112 289.447 256.112ZM295.88 256V250.208C295.88 249.835 295.869 249.461 295.848 249.088C295.837 248.704 295.805 248.325 295.752 247.952H297.128L297.272 249.6L297.112 249.696C297.347 249.067 297.72 248.587 298.232 248.256C298.755 247.915 299.352 247.744 300.024 247.744C301.955 247.744 302.92 248.816 302.92 250.96V256H301.464V251.04C301.464 250.315 301.32 249.787 301.032 249.456C300.755 249.115 300.307 248.944 299.688 248.944C298.973 248.944 298.403 249.168 297.976 249.616C297.549 250.053 297.336 250.645 297.336 251.392V256H295.88ZM312.534 256H311.094V253.872L311.286 254.064C311.105 254.715 310.758 255.221 310.246 255.584C309.734 255.936 309.115 256.112 308.39 256.112C307.697 256.112 307.078 255.941 306.534 255.6C306.001 255.248 305.579 254.757 305.27 254.128C304.971 253.488 304.822 252.747 304.822 251.904C304.822 251.061 304.971 250.331 305.27 249.712C305.569 249.083 305.985 248.597 306.518 248.256C307.062 247.915 307.686 247.744 308.39 247.744C309.115 247.744 309.734 247.925 310.246 248.288C310.758 248.651 311.105 249.152 311.286 249.792L311.078 249.984V244.224H312.534V256ZM308.71 254.928C309.467 254.928 310.054 254.672 310.47 254.16C310.886 253.637 311.094 252.896 311.094 251.936C311.094 250.987 310.886 250.251 310.47 249.728C310.065 249.205 309.478 248.944 308.71 248.944C307.953 248.944 307.361 249.205 306.934 249.728C306.507 250.24 306.294 250.965 306.294 251.904C306.294 252.864 306.507 253.611 306.934 254.144C307.361 254.667 307.953 254.928 308.71 254.928ZM317.726 256.112C316.35 256.112 315.257 255.765 314.446 255.072L314.91 254.016C315.337 254.347 315.78 254.592 316.238 254.752C316.708 254.901 317.22 254.976 317.774 254.976C318.35 254.976 318.788 254.88 319.086 254.688C319.396 254.485 319.55 254.197 319.55 253.824C319.55 253.525 319.444 253.291 319.23 253.12C319.028 252.939 318.686 252.789 318.206 252.672L316.862 252.352C316.169 252.203 315.636 251.936 315.262 251.552C314.9 251.168 314.718 250.704 314.718 250.16C314.718 249.691 314.846 249.275 315.102 248.912C315.369 248.549 315.737 248.267 316.206 248.064C316.676 247.851 317.23 247.744 317.87 247.744C318.436 247.744 318.969 247.835 319.47 248.016C319.982 248.197 320.414 248.459 320.766 248.8L320.302 249.84C319.918 249.52 319.524 249.285 319.118 249.136C318.713 248.976 318.292 248.896 317.854 248.896C317.31 248.896 316.884 249.003 316.574 249.216C316.276 249.429 316.126 249.717 316.126 250.08C316.126 250.389 316.222 250.635 316.414 250.816C316.606 250.997 316.91 251.141 317.326 251.248L318.686 251.584C319.454 251.744 320.02 252.011 320.382 252.384C320.745 252.747 320.926 253.216 320.926 253.792C320.926 254.496 320.638 255.061 320.062 255.488C319.486 255.904 318.708 256.112 317.726 256.112ZM327.066 252.288V251.104H331.658V252.288H327.066ZM334.085 256V254.88L338.053 250.528C338.565 249.952 338.938 249.435 339.173 248.976C339.418 248.507 339.541 248.037 339.541 247.568C339.541 246.971 339.365 246.512 339.013 246.192C338.661 245.861 338.165 245.696 337.525 245.696C336.981 245.696 336.442 245.808 335.909 246.032C335.375 246.245 334.847 246.565 334.325 246.992L333.781 245.872C334.229 245.445 334.794 245.109 335.477 244.864C336.17 244.608 336.863 244.48 337.557 244.48C338.271 244.48 338.885 244.603 339.397 244.848C339.909 245.083 340.309 245.429 340.597 245.888C340.885 246.336 341.029 246.869 341.029 247.488C341.029 248.139 340.879 248.763 340.581 249.36C340.293 249.957 339.813 250.629 339.141 251.376L335.381 255.424L335.253 254.768H341.493V256H334.085ZM347.342 256.112C346.638 256.112 345.945 255.989 345.262 255.744C344.59 255.499 344.025 255.157 343.566 254.72L344.11 253.6C344.633 254.027 345.161 254.352 345.694 254.576C346.228 254.789 346.777 254.896 347.342 254.896C348.121 254.896 348.729 254.683 349.166 254.256C349.604 253.819 349.822 253.221 349.822 252.464C349.822 251.984 349.721 251.563 349.518 251.2C349.326 250.837 349.049 250.555 348.686 250.352C348.334 250.139 347.918 250.032 347.438 250.032C346.916 250.032 346.441 250.139 346.014 250.352C345.588 250.555 345.214 250.864 344.894 251.28H343.902V244.608H350.798V245.808H345.374V250.224L344.91 250.176C345.22 249.739 345.614 249.403 346.094 249.168C346.574 248.933 347.113 248.816 347.71 248.816C348.436 248.816 349.065 248.971 349.598 249.28C350.132 249.579 350.542 250 350.83 250.544C351.118 251.088 351.262 251.717 351.262 252.432C351.262 253.157 351.102 253.797 350.782 254.352C350.462 254.907 350.009 255.339 349.422 255.648C348.836 255.957 348.142 256.112 347.342 256.112ZM355.032 251.504C354.243 251.504 353.619 251.216 353.16 250.64C352.702 250.064 352.472 249.189 352.472 248.016C352.472 246.832 352.702 245.957 353.16 245.392C353.619 244.827 354.243 244.544 355.032 244.544C355.822 244.544 356.44 244.827 356.888 245.392C357.347 245.957 357.576 246.832 357.576 248.016C357.576 249.189 357.347 250.064 356.888 250.64C356.44 251.216 355.822 251.504 355.032 251.504ZM355.032 250.496C355.448 250.496 355.758 250.304 355.96 249.92C356.174 249.525 356.28 248.891 356.28 248.016C356.28 247.152 356.174 246.528 355.96 246.144C355.758 245.749 355.448 245.552 355.032 245.552C354.616 245.552 354.302 245.749 354.088 246.144C353.886 246.528 353.784 247.152 353.784 248.016C353.784 248.891 353.886 249.525 354.088 249.92C354.302 250.304 354.616 250.496 355.032 250.496ZM354.808 256L361.4 244.608H362.792L356.216 256H354.808ZM362.568 256.064C361.779 256.064 361.155 255.776 360.696 255.2C360.238 254.624 360.008 253.749 360.008 252.576C360.008 251.392 360.238 250.517 360.696 249.952C361.155 249.387 361.779 249.104 362.568 249.104C363.358 249.104 363.976 249.387 364.424 249.952C364.883 250.517 365.112 251.392 365.112 252.576C365.112 253.749 364.883 254.624 364.424 255.2C363.976 255.776 363.358 256.064 362.568 256.064ZM362.568 255.056C362.984 255.056 363.294 254.864 363.496 254.48C363.71 254.085 363.816 253.451 363.816 252.576C363.816 251.712 363.71 251.088 363.496 250.704C363.294 250.309 362.984 250.112 362.568 250.112C362.152 250.112 361.838 250.309 361.624 250.704C361.422 251.088 361.32 251.712 361.32 252.576C361.32 253.451 361.422 254.085 361.624 254.48C361.838 254.864 362.152 255.056 362.568 255.056Z" fill="#969EAC"/>
<rect x="180.771" y="240" width="18.0222" height="18" rx="2" fill="#FFBC02"/>
<path d="M222.196 220V208.608H226.868C228.02 208.608 228.922 208.869 229.572 209.392C230.234 209.904 230.564 210.635 230.564 211.584C230.564 212.245 230.383 212.805 230.02 213.264C229.668 213.712 229.178 214.032 228.548 214.224V214.096C229.263 214.235 229.823 214.549 230.228 215.04C230.634 215.531 230.836 216.149 230.836 216.896C230.836 217.888 230.5 218.656 229.828 219.2C229.167 219.733 228.228 220 227.012 220H222.196ZM223.652 218.8H226.884C227.748 218.8 228.383 218.64 228.788 218.32C229.194 218 229.396 217.504 229.396 216.832C229.396 216.16 229.188 215.659 228.772 215.328C228.367 214.997 227.738 214.832 226.884 214.832H223.652V218.8ZM223.652 213.6H226.628C227.46 213.6 228.084 213.44 228.5 213.12C228.916 212.8 229.124 212.32 229.124 211.68C229.124 211.061 228.916 210.597 228.5 210.288C228.095 209.968 227.471 209.808 226.628 209.808H223.652V213.6ZM236.35 220.112C235.572 220.112 234.889 219.941 234.302 219.6C233.726 219.259 233.278 218.779 232.958 218.16C232.638 217.531 232.478 216.789 232.478 215.936C232.478 215.093 232.638 214.357 232.958 213.728C233.278 213.088 233.726 212.597 234.302 212.256C234.889 211.915 235.572 211.744 236.35 211.744C237.14 211.744 237.822 211.915 238.398 212.256C238.974 212.597 239.422 213.088 239.742 213.728C240.062 214.357 240.222 215.093 240.222 215.936C240.222 216.789 240.062 217.531 239.742 218.16C239.422 218.779 238.974 219.259 238.398 219.6C237.822 219.941 237.14 220.112 236.35 220.112ZM236.35 218.928C237.118 218.928 237.71 218.677 238.126 218.176C238.542 217.664 238.75 216.917 238.75 215.936C238.75 214.965 238.537 214.224 238.11 213.712C237.694 213.2 237.108 212.944 236.35 212.944C235.604 212.944 235.017 213.2 234.59 213.712C234.164 214.224 233.95 214.965 233.95 215.936C233.95 216.917 234.158 217.664 234.574 218.176C234.99 218.677 235.582 218.928 236.35 218.928ZM242.193 220V214.208C242.193 213.835 242.182 213.461 242.161 213.088C242.15 212.704 242.118 212.325 242.065 211.952H243.441L243.585 213.6L243.425 213.696C243.659 213.067 244.033 212.587 244.545 212.256C245.067 211.915 245.665 211.744 246.337 211.744C248.267 211.744 249.233 212.816 249.233 214.96V220H247.777V215.04C247.777 214.315 247.633 213.787 247.345 213.456C247.067 213.115 246.619 212.944 246.001 212.944C245.286 212.944 244.715 213.168 244.289 213.616C243.862 214.053 243.649 214.645 243.649 215.392V220H242.193ZM258.846 220H257.406V217.872L257.598 218.064C257.417 218.715 257.07 219.221 256.558 219.584C256.046 219.936 255.428 220.112 254.702 220.112C254.009 220.112 253.39 219.941 252.846 219.6C252.313 219.248 251.892 218.757 251.582 218.128C251.284 217.488 251.134 216.747 251.134 215.904C251.134 215.061 251.284 214.331 251.582 213.712C251.881 213.083 252.297 212.597 252.83 212.256C253.374 211.915 253.998 211.744 254.702 211.744C255.428 211.744 256.046 211.925 256.558 212.288C257.07 212.651 257.417 213.152 257.598 213.792L257.39 213.984V208.224H258.846V220ZM255.022 218.928C255.78 218.928 256.366 218.672 256.782 218.16C257.198 217.637 257.406 216.896 257.406 215.936C257.406 214.987 257.198 214.251 256.782 213.728C256.377 213.205 255.79 212.944 255.022 212.944C254.265 212.944 253.673 213.205 253.246 213.728C252.82 214.24 252.606 214.965 252.606 215.904C252.606 216.864 252.82 217.611 253.246 218.144C253.673 218.667 254.265 218.928 255.022 218.928ZM264.039 220.112C262.663 220.112 261.569 219.765 260.759 219.072L261.223 218.016C261.649 218.347 262.092 218.592 262.551 218.752C263.02 218.901 263.532 218.976 264.087 218.976C264.663 218.976 265.1 218.88 265.399 218.688C265.708 218.485 265.863 218.197 265.863 217.824C265.863 217.525 265.756 217.291 265.543 217.12C265.34 216.939 264.999 216.789 264.519 216.672L263.175 216.352C262.481 216.203 261.948 215.936 261.575 215.552C261.212 215.168 261.031 214.704 261.031 214.16C261.031 213.691 261.159 213.275 261.415 212.912C261.681 212.549 262.049 212.267 262.519 212.064C262.988 211.851 263.543 211.744 264.183 211.744C264.748 211.744 265.281 211.835 265.783 212.016C266.295 212.197 266.727 212.459 267.079 212.8L266.615 213.84C266.231 213.52 265.836 213.285 265.431 213.136C265.025 212.976 264.604 212.896 264.167 212.896C263.623 212.896 263.196 213.003 262.887 213.216C262.588 213.429 262.439 213.717 262.439 214.08C262.439 214.389 262.535 214.635 262.727 214.816C262.919 214.997 263.223 215.141 263.639 215.248L264.999 215.584C265.767 215.744 266.332 216.011 266.695 216.384C267.057 216.747 267.239 217.216 267.239 217.792C267.239 218.496 266.951 219.061 266.375 219.488C265.799 219.904 265.02 220.112 264.039 220.112ZM273.379 216.288V215.104H277.971V216.288H273.379ZM283.613 219.328V209.552L284.429 209.888L281.277 211.872V210.48L284.253 208.608H285.101V219.328H283.613ZM281.101 220V218.768H287.613V220H281.101ZM293.655 220.112C292.951 220.112 292.258 219.989 291.575 219.744C290.903 219.499 290.338 219.157 289.879 218.72L290.423 217.6C290.946 218.027 291.474 218.352 292.007 218.576C292.54 218.789 293.09 218.896 293.655 218.896C294.434 218.896 295.042 218.683 295.479 218.256C295.916 217.819 296.135 217.221 296.135 216.464C296.135 215.984 296.034 215.563 295.831 215.2C295.639 214.837 295.362 214.555 294.999 214.352C294.647 214.139 294.231 214.032 293.751 214.032C293.228 214.032 292.754 214.139 292.327 214.352C291.9 214.555 291.527 214.864 291.207 215.28H290.215V208.608H297.111V209.808H291.687V214.224L291.223 214.176C291.532 213.739 291.927 213.403 292.407 213.168C292.887 212.933 293.426 212.816 294.023 212.816C294.748 212.816 295.378 212.971 295.911 213.28C296.444 213.579 296.855 214 297.143 214.544C297.431 215.088 297.575 215.717 297.575 216.432C297.575 217.157 297.415 217.797 297.095 218.352C296.775 218.907 296.322 219.339 295.735 219.648C295.148 219.957 294.455 220.112 293.655 220.112ZM301.345 215.504C300.555 215.504 299.931 215.216 299.473 214.64C299.014 214.064 298.785 213.189 298.785 212.016C298.785 210.832 299.014 209.957 299.473 209.392C299.931 208.827 300.555 208.544 301.345 208.544C302.134 208.544 302.753 208.827 303.201 209.392C303.659 209.957 303.889 210.832 303.889 212.016C303.889 213.189 303.659 214.064 303.201 214.64C302.753 215.216 302.134 215.504 301.345 215.504ZM301.345 214.496C301.761 214.496 302.07 214.304 302.273 213.92C302.486 213.525 302.593 212.891 302.593 212.016C302.593 211.152 302.486 210.528 302.273 210.144C302.07 209.749 301.761 209.552 301.345 209.552C300.929 209.552 300.614 209.749 300.401 210.144C300.198 210.528 300.097 211.152 300.097 212.016C300.097 212.891 300.198 213.525 300.401 213.92C300.614 214.304 300.929 214.496 301.345 214.496ZM301.121 220L307.713 208.608H309.105L302.529 220H301.121ZM308.881 220.064C308.091 220.064 307.467 219.776 307.009 219.2C306.55 218.624 306.321 217.749 306.321 216.576C306.321 215.392 306.55 214.517 307.009 213.952C307.467 213.387 308.091 213.104 308.881 213.104C309.67 213.104 310.289 213.387 310.737 213.952C311.195 214.517 311.425 215.392 311.425 216.576C311.425 217.749 311.195 218.624 310.737 219.2C310.289 219.776 309.67 220.064 308.881 220.064ZM308.881 219.056C309.297 219.056 309.606 218.864 309.809 218.48C310.022 218.085 310.129 217.451 310.129 216.576C310.129 215.712 310.022 215.088 309.809 214.704C309.606 214.309 309.297 214.112 308.881 214.112C308.465 214.112 308.15 214.309 307.937 214.704C307.734 215.088 307.633 215.712 307.633 216.576C307.633 217.451 307.734 218.085 307.937 218.48C308.15 218.864 308.465 219.056 308.881 219.056Z" fill="#969EAC"/>
<rect x="180.771" y="204" width="18.0222" height="18" rx="2" fill="#1F32AD"/>
<path d="M225.86 184.128C225.274 184.128 224.719 184.08 224.196 183.984C223.684 183.877 223.204 183.717 222.756 183.504C222.319 183.291 221.924 183.024 221.572 182.704L222.116 181.584C222.682 182.053 223.258 182.389 223.844 182.592C224.431 182.795 225.108 182.896 225.876 182.896C226.762 182.896 227.444 182.725 227.924 182.384C228.404 182.043 228.644 181.563 228.644 180.944C228.644 180.571 228.527 180.272 228.292 180.048C228.058 179.813 227.727 179.627 227.3 179.488C226.884 179.339 226.404 179.2 225.86 179.072C225.284 178.955 224.746 178.816 224.244 178.656C223.754 178.496 223.322 178.299 222.948 178.064C222.575 177.819 222.287 177.515 222.084 177.152C221.882 176.789 221.78 176.341 221.78 175.808C221.78 175.157 221.951 174.581 222.292 174.08C222.644 173.579 223.135 173.189 223.764 172.912C224.394 172.624 225.135 172.48 225.988 172.48C226.511 172.48 227.012 172.539 227.492 172.656C227.983 172.763 228.436 172.923 228.852 173.136C229.268 173.339 229.631 173.595 229.94 173.904L229.396 175.024C228.874 174.576 228.335 174.245 227.78 174.032C227.226 173.819 226.628 173.712 225.988 173.712C225.135 173.712 224.463 173.893 223.972 174.256C223.492 174.608 223.252 175.104 223.252 175.744C223.252 176.139 223.359 176.459 223.572 176.704C223.786 176.949 224.09 177.147 224.484 177.296C224.879 177.445 225.348 177.584 225.892 177.712C226.468 177.84 227.012 177.984 227.524 178.144C228.036 178.304 228.484 178.496 228.868 178.72C229.263 178.944 229.572 179.232 229.796 179.584C230.02 179.925 230.132 180.357 230.132 180.88C230.132 181.541 229.962 182.117 229.62 182.608C229.279 183.088 228.788 183.461 228.148 183.728C227.508 183.995 226.746 184.128 225.86 184.128ZM230.917 177.072V175.952H236.197V177.072H230.917ZM236.165 182.736V183.952C235.983 184.005 235.797 184.043 235.605 184.064C235.423 184.096 235.226 184.112 235.013 184.112C234.223 184.112 233.599 183.888 233.141 183.44C232.693 182.992 232.469 182.331 232.469 181.456V173.904L233.925 173.392V181.296C233.925 181.712 233.983 182.037 234.101 182.272C234.229 182.496 234.394 182.656 234.597 182.752C234.81 182.837 235.05 182.88 235.317 182.88C235.466 182.88 235.605 182.869 235.733 182.848C235.861 182.827 236.005 182.789 236.165 182.736ZM241.131 184.112C240.353 184.112 239.67 183.941 239.083 183.6C238.507 183.259 238.059 182.779 237.739 182.16C237.419 181.531 237.259 180.789 237.259 179.936C237.259 179.093 237.419 178.357 237.739 177.728C238.059 177.088 238.507 176.597 239.083 176.256C239.67 175.915 240.353 175.744 241.131 175.744C241.921 175.744 242.603 175.915 243.179 176.256C243.755 176.597 244.203 177.088 244.523 177.728C244.843 178.357 245.003 179.093 245.003 179.936C245.003 180.789 244.843 181.531 244.523 182.16C244.203 182.779 243.755 183.259 243.179 183.6C242.603 183.941 241.921 184.112 241.131 184.112ZM241.131 182.928C241.899 182.928 242.491 182.677 242.907 182.176C243.323 181.664 243.531 180.917 243.531 179.936C243.531 178.965 243.318 178.224 242.891 177.712C242.475 177.2 241.889 176.944 241.131 176.944C240.385 176.944 239.798 177.2 239.371 177.712C238.945 178.224 238.731 178.965 238.731 179.936C238.731 180.917 238.939 181.664 239.355 182.176C239.771 182.677 240.363 182.928 241.131 182.928ZM250.414 184.112C249.603 184.112 248.904 183.941 248.318 183.6C247.742 183.259 247.294 182.779 246.974 182.16C246.654 181.541 246.494 180.811 246.494 179.968C246.494 179.136 246.654 178.4 246.974 177.76C247.304 177.12 247.768 176.624 248.366 176.272C248.963 175.92 249.667 175.744 250.478 175.744C251.032 175.744 251.566 175.84 252.078 176.032C252.59 176.213 253.011 176.469 253.342 176.8L252.878 177.856C252.494 177.557 252.11 177.333 251.726 177.184C251.352 177.024 250.963 176.944 250.558 176.944C249.779 176.944 249.155 177.205 248.686 177.728C248.227 178.251 247.998 178.997 247.998 179.968C247.998 180.917 248.227 181.648 248.686 182.16C249.144 182.672 249.774 182.928 250.574 182.928C250.958 182.928 251.342 182.853 251.726 182.704C252.11 182.555 252.494 182.325 252.878 182.016L253.342 183.072C253 183.392 252.568 183.648 252.046 183.84C251.523 184.021 250.979 184.112 250.414 184.112ZM260.367 184L256.095 179.888L260.063 175.968H261.887L257.471 180.272L257.535 179.424L262.239 184H260.367ZM254.927 184V172.224H256.383V184H254.927ZM265.929 184.112C264.553 184.112 263.46 183.765 262.649 183.072L263.113 182.016C263.54 182.347 263.983 182.592 264.441 182.752C264.911 182.901 265.423 182.976 265.977 182.976C266.553 182.976 266.991 182.88 267.289 182.688C267.599 182.485 267.753 182.197 267.753 181.824C267.753 181.525 267.647 181.291 267.433 181.12C267.231 180.939 266.889 180.789 266.409 180.672L265.065 180.352C264.372 180.203 263.839 179.936 263.465 179.552C263.103 179.168 262.921 178.704 262.921 178.16C262.921 177.691 263.049 177.275 263.305 176.912C263.572 176.549 263.94 176.267 264.409 176.064C264.879 175.851 265.433 175.744 266.073 175.744C266.639 175.744 267.172 175.835 267.673 176.016C268.185 176.197 268.617 176.459 268.969 176.8L268.505 177.84C268.121 177.52 267.727 177.285 267.321 177.136C266.916 176.976 266.495 176.896 266.057 176.896C265.513 176.896 265.087 177.003 264.777 177.216C264.479 177.429 264.329 177.717 264.329 178.08C264.329 178.389 264.425 178.635 264.617 178.816C264.809 178.997 265.113 179.141 265.529 179.248L266.889 179.584C267.657 179.744 268.223 180.011 268.585 180.384C268.948 180.747 269.129 181.216 269.129 181.792C269.129 182.496 268.841 183.061 268.265 183.488C267.689 183.904 266.911 184.112 265.929 184.112ZM275.269 180.288V179.104H279.861V180.288H275.269ZM285.504 183.328V173.552L286.32 173.888L283.168 175.872V174.48L286.144 172.608H286.992V183.328H285.504ZM282.992 184V182.768H289.504V184H282.992ZM295.402 184.128C294.09 184.128 293.092 183.637 292.41 182.656C291.727 181.664 291.386 180.213 291.386 178.304C291.386 176.395 291.722 174.949 292.394 173.968C293.076 172.976 294.079 172.48 295.402 172.48C296.724 172.48 297.722 172.976 298.394 173.968C299.076 174.949 299.418 176.389 299.418 178.288C299.418 180.197 299.076 181.648 298.394 182.64C297.711 183.632 296.714 184.128 295.402 184.128ZM295.402 182.912C296.266 182.912 296.9 182.539 297.306 181.792C297.722 181.045 297.93 179.877 297.93 178.288C297.93 176.699 297.722 175.541 297.306 174.816C296.9 174.08 296.266 173.712 295.402 173.712C294.538 173.712 293.898 174.08 293.482 174.816C293.076 175.552 292.874 176.709 292.874 178.288C292.874 179.877 293.076 181.045 293.482 181.792C293.898 182.539 294.538 182.912 295.402 182.912ZM303.235 179.504C302.446 179.504 301.822 179.216 301.363 178.64C300.905 178.064 300.675 177.189 300.675 176.016C300.675 174.832 300.905 173.957 301.363 173.392C301.822 172.827 302.446 172.544 303.235 172.544C304.025 172.544 304.643 172.827 305.091 173.392C305.55 173.957 305.779 174.832 305.779 176.016C305.779 177.189 305.55 178.064 305.091 178.64C304.643 179.216 304.025 179.504 303.235 179.504ZM303.235 178.496C303.651 178.496 303.961 178.304 304.163 177.92C304.377 177.525 304.483 176.891 304.483 176.016C304.483 175.152 304.377 174.528 304.163 174.144C303.961 173.749 303.651 173.552 303.235 173.552C302.819 173.552 302.505 173.749 302.291 174.144C302.089 174.528 301.987 175.152 301.987 176.016C301.987 176.891 302.089 177.525 302.291 177.92C302.505 178.304 302.819 178.496 303.235 178.496ZM303.011 184L309.603 172.608H310.995L304.419 184H303.011ZM310.771 184.064C309.982 184.064 309.358 183.776 308.899 183.2C308.441 182.624 308.211 181.749 308.211 180.576C308.211 179.392 308.441 178.517 308.899 177.952C309.358 177.387 309.982 177.104 310.771 177.104C311.561 177.104 312.179 177.387 312.627 177.952C313.086 178.517 313.315 179.392 313.315 180.576C313.315 181.749 313.086 182.624 312.627 183.2C312.179 183.776 311.561 184.064 310.771 184.064ZM310.771 183.056C311.187 183.056 311.497 182.864 311.699 182.48C311.913 182.085 312.019 181.451 312.019 180.576C312.019 179.712 311.913 179.088 311.699 178.704C311.497 178.309 311.187 178.112 310.771 178.112C310.355 178.112 310.041 178.309 309.827 178.704C309.625 179.088 309.523 179.712 309.523 180.576C309.523 181.451 309.625 182.085 309.827 182.48C310.041 182.864 310.355 183.056 310.771 183.056Z" fill="#10C273"/>
<g filter="url(#filter0_d)">
<rect x="178.77" y="166" width="22.0271" height="22" rx="2" fill="#235EE7"/>
</g>
<path d="M164.002 180.75L168.508 176.25L164.002 171.75" stroke="#969EAC" stroke-width="1.3" stroke-linejoin="round"/>
<path d="M-77.75 300.301C-60.179 310.446 -40.782 317.03 -20.6663 319.678C-0.550659 322.327 19.8896 320.987 39.4875 315.736C59.0854 310.484 77.4571 301.424 93.5536 289.073C109.65 276.722 123.156 261.321 133.301 243.75L79.7806 212.85C73.6938 223.393 65.5901 232.633 55.9322 240.044C46.2743 247.455 35.2513 252.891 23.4925 256.041C11.7338 259.192 -0.530396 259.996 -12.5998 258.407C-24.6692 256.818 -36.3074 252.867 -46.85 246.781L-77.75 300.301Z" fill="#1F32AD"/>
<g filter="url(#filter1_d)">
<path d="M133.301 243.75C146.861 220.263 154 193.62 154 166.5C154 139.38 146.861 112.737 133.301 89.25C119.741 65.763 100.237 46.2593 76.75 32.6991C53.263 19.1389 26.6204 12 -0.5 12V73.8C15.7722 73.8 31.7578 78.0833 45.85 86.2194C59.9422 94.3556 71.6444 106.058 79.7806 120.15C87.9167 134.242 92.2 150.228 92.2 166.5C92.2 182.772 87.9167 198.758 79.7806 212.85L133.301 243.75Z" fill="#235EE7"/>
</g>
<g filter="url(#filter2_d)">
<path d="M108.548 73.1437L104.303 77.6245C103.572 78.3959 103.572 79.6041 104.303 80.3755L108.548 84.8563C109.792 86.1688 112 85.2888 112 83.4808V74.5192C112 72.7112 109.792 71.8312 108.548 73.1437Z" fill="#081833"/>
</g>
<g filter="url(#filter3_d)">
<path d="M108 37C108 33.6863 110.686 31 114 31H286C289.314 31 292 33.6863 292 37V121C292 124.314 289.314 127 286 127H114C110.686 127 108 124.314 108 121V37Z" fill="#081833"/>
</g>
<path d="M137.696 103.256C136.117 103.256 134.624 103 133.216 102.488C131.829 101.955 130.624 101.187 129.6 100.184L130.4 98.616C131.552 99.64 132.704 100.376 133.856 100.824C135.008 101.272 136.288 101.496 137.696 101.496C139.509 101.496 140.917 101.101 141.92 100.312C142.944 99.5013 143.456 98.392 143.456 96.984C143.456 96.1093 143.211 95.4267 142.72 94.936C142.251 94.424 141.611 94.0187 140.8 93.72C140.011 93.4213 139.136 93.1653 138.176 92.952C137.237 92.7173 136.288 92.4613 135.328 92.184C134.368 91.9067 133.483 91.544 132.672 91.096C131.883 90.648 131.243 90.0507 130.752 89.304C130.283 88.5573 130.048 87.5867 130.048 86.392C130.048 85.1333 130.379 84.024 131.04 83.064C131.701 82.0827 132.619 81.3253 133.792 80.792C134.965 80.2373 136.299 79.96 137.792 79.96C138.752 79.96 139.68 80.0773 140.576 80.312C141.493 80.5467 142.347 80.888 143.136 81.336C143.947 81.7627 144.661 82.296 145.28 82.936L144.48 84.504C142.645 82.648 140.416 81.72 137.792 81.72C136.021 81.72 134.624 82.136 133.6 82.968C132.576 83.8 132.064 84.9307 132.064 86.36C132.064 87.32 132.299 88.0773 132.768 88.632C133.259 89.1867 133.909 89.6347 134.72 89.976C135.531 90.296 136.405 90.5733 137.344 90.808C138.304 91.0427 139.253 91.288 140.192 91.544C141.152 91.8 142.027 92.1413 142.816 92.568C143.627 92.9733 144.267 93.528 144.736 94.232C145.227 94.936 145.472 95.8427 145.472 96.952C145.472 98.2107 145.141 99.3093 144.48 100.248C143.819 101.187 142.901 101.923 141.728 102.456C140.555 102.989 139.211 103.256 137.696 103.256ZM137.024 106.712V102.904L137.056 101.912V81.176L137.024 80.312V76.504H138.816V80.312L138.784 81.176V101.912L138.816 102.904V106.712H137.024ZM150.643 103V101.496L158.74 92.472C159.87 91.1707 160.692 90.0187 161.203 89.016C161.737 87.992 162.003 86.9573 162.003 85.912C162.003 84.568 161.609 83.5333 160.819 82.808C160.051 82.0613 158.942 81.688 157.491 81.688C156.339 81.688 155.219 81.9227 154.131 82.392C153.065 82.84 151.998 83.5227 150.931 84.44L150.099 82.872C150.995 81.9973 152.115 81.2933 153.459 80.76C154.803 80.2267 156.147 79.96 157.491 79.96C158.835 79.96 159.987 80.1947 160.948 80.664C161.929 81.1333 162.686 81.816 163.22 82.712C163.753 83.5867 164.02 84.632 164.02 85.848C164.02 87.1493 163.71 88.4187 163.092 89.656C162.494 90.872 161.513 92.248 160.148 93.784L152.115 102.552L152.083 101.304H165.011V103H150.643ZM177.127 103.224C175.676 103.224 174.29 102.968 172.967 102.456C171.644 101.944 170.514 101.229 169.575 100.312L170.407 98.744C171.452 99.6613 172.519 100.355 173.607 100.824C174.716 101.272 175.89 101.496 177.127 101.496C178.791 101.496 180.071 101.101 180.967 100.312C181.884 99.5013 182.343 98.3493 182.343 96.856C182.343 95.32 181.863 94.1787 180.903 93.432C179.964 92.664 178.578 92.28 176.743 92.28H174.279V90.552H176.231C178.023 90.552 179.399 90.136 180.359 89.304C181.34 88.472 181.831 87.2987 181.831 85.784C181.831 84.4827 181.436 83.48 180.647 82.776C179.858 82.0507 178.748 81.688 177.319 81.688C176.146 81.688 175.026 81.9227 173.959 82.392C172.892 82.84 171.826 83.5227 170.759 84.44L169.927 82.872C170.844 81.9547 171.954 81.24 173.255 80.728C174.578 80.216 175.943 79.96 177.351 79.96C178.674 79.96 179.826 80.1947 180.807 80.664C181.788 81.1333 182.535 81.8053 183.047 82.68C183.58 83.5333 183.847 84.5573 183.847 85.752C183.826 87.16 183.442 88.376 182.695 89.4C181.97 90.424 180.967 91.1067 179.687 91.448L179.559 91.128C181.116 91.448 182.3 92.0987 183.111 93.08C183.922 94.04 184.327 95.2987 184.327 96.856C184.327 98.8187 183.676 100.376 182.375 101.528C181.074 102.659 179.324 103.224 177.127 103.224ZM197.594 103.224C196.229 103.224 194.885 102.968 193.562 102.456C192.24 101.944 191.109 101.229 190.17 100.312L191.002 98.744C192.048 99.64 193.114 100.323 194.202 100.792C195.29 101.261 196.421 101.496 197.594 101.496C199.258 101.496 200.57 101.005 201.53 100.024C202.512 99.0213 203.002 97.688 203.002 96.024C203.002 94.9573 202.789 94.0187 202.362 93.208C201.936 92.376 201.328 91.736 200.538 91.288C199.77 90.8187 198.853 90.584 197.786 90.584C196.592 90.584 195.546 90.8293 194.65 91.32C193.754 91.7893 192.976 92.5253 192.314 93.528H190.778V80.216H204.154V81.912H192.762V91.928L192.122 91.832C192.72 90.8933 193.52 90.1573 194.522 89.624C195.525 89.0907 196.656 88.824 197.914 88.824C199.386 88.824 200.645 89.1333 201.69 89.752C202.757 90.3493 203.568 91.192 204.122 92.28C204.698 93.368 204.986 94.616 204.986 96.024C204.986 97.432 204.688 98.68 204.09 99.768C203.493 100.856 202.64 101.709 201.53 102.328C200.421 102.925 199.109 103.224 197.594 103.224ZM210.542 106.424L209.55 105.624C210.062 105.048 210.393 104.525 210.542 104.056C210.691 103.608 210.766 103.139 210.766 102.648L211.438 103H209.518V100.216H212.238V102.296C212.238 103.043 212.11 103.757 211.854 104.44C211.619 105.123 211.182 105.784 210.542 106.424ZM224.644 103.256C222.084 103.256 220.142 102.275 218.82 100.312C217.497 98.328 216.836 95.4267 216.836 91.608C216.836 87.768 217.486 84.8667 218.788 82.904C220.11 80.9413 222.062 79.96 224.644 79.96C227.225 79.96 229.166 80.9413 230.468 82.904C231.79 84.8667 232.452 87.7573 232.452 91.576C232.452 95.3947 231.79 98.296 230.468 100.28C229.145 102.264 227.204 103.256 224.644 103.256ZM224.644 101.496C226.606 101.496 228.057 100.696 228.996 99.096C229.956 97.4747 230.436 94.968 230.436 91.576C230.436 88.184 229.966 85.6987 229.028 84.12C228.089 82.52 226.628 81.72 224.644 81.72C222.681 81.72 221.22 82.52 220.26 84.12C219.321 85.72 218.852 88.2053 218.852 91.576C218.852 94.9467 219.321 97.4427 220.26 99.064C221.22 100.685 222.681 101.496 224.644 101.496ZM244.471 103.256C241.911 103.256 239.97 102.275 238.647 100.312C237.325 98.328 236.663 95.4267 236.663 91.608C236.663 87.768 237.314 84.8667 238.615 82.904C239.938 80.9413 241.89 79.96 244.471 79.96C247.053 79.96 248.994 80.9413 250.295 82.904C251.618 84.8667 252.279 87.7573 252.279 91.576C252.279 95.3947 251.618 98.296 250.295 100.28C248.973 102.264 247.031 103.256 244.471 103.256ZM244.471 101.496C246.434 101.496 247.885 100.696 248.823 99.096C249.783 97.4747 250.263 94.968 250.263 91.576C250.263 88.184 249.794 85.6987 248.855 84.12C247.917 82.52 246.455 81.72 244.471 81.72C242.509 81.72 241.047 82.52 240.087 84.12C239.149 85.72 238.679 88.2053 238.679 91.576C238.679 94.9467 239.149 97.4427 240.087 99.064C241.047 100.685 242.509 101.496 244.471 101.496ZM264.299 103.256C261.739 103.256 259.797 102.275 258.475 100.312C257.152 98.328 256.491 95.4267 256.491 91.608C256.491 87.768 257.141 84.8667 258.443 82.904C259.765 80.9413 261.717 79.96 264.299 79.96C266.88 79.96 268.821 80.9413 270.123 82.904C271.445 84.8667 272.107 87.7573 272.107 91.576C272.107 95.3947 271.445 98.296 270.123 100.28C268.8 102.264 266.859 103.256 264.299 103.256ZM264.299 101.496C266.261 101.496 267.712 100.696 268.651 99.096C269.611 97.4747 270.091 94.968 270.091 91.576C270.091 88.184 269.621 85.6987 268.683 84.12C267.744 82.52 266.283 81.72 264.299 81.72C262.336 81.72 260.875 82.52 259.915 84.12C258.976 85.72 258.507 88.2053 258.507 91.576C258.507 94.9467 258.976 97.4427 259.915 99.064C260.875 100.685 262.336 101.496 264.299 101.496Z" fill="white"/>
<path d="M133.056 63.128C132.469 63.128 131.915 63.08 131.392 62.984C130.869 62.8773 130.384 62.7173 129.936 62.504C129.488 62.2907 129.088 62.0347 128.736 61.736L129.312 60.504C129.888 60.952 130.469 61.2773 131.056 61.48C131.653 61.6827 132.325 61.784 133.072 61.784C133.925 61.784 134.587 61.624 135.056 61.304C135.525 60.9733 135.76 60.52 135.76 59.944C135.76 59.592 135.648 59.304 135.424 59.08C135.2 58.856 134.88 58.6747 134.464 58.536C134.059 58.3973 133.579 58.264 133.024 58.136C132.427 58.008 131.877 57.864 131.376 57.704C130.875 57.5333 130.443 57.3253 130.08 57.08C129.717 56.8347 129.435 56.5307 129.232 56.168C129.04 55.8053 128.944 55.3627 128.944 54.84C128.944 54.1893 129.12 53.608 129.472 53.096C129.824 52.584 130.315 52.1893 130.944 51.912C131.584 51.624 132.336 51.48 133.2 51.48C133.733 51.48 134.245 51.5333 134.736 51.64C135.227 51.7467 135.68 51.9067 136.096 52.12C136.512 52.3227 136.88 52.5733 137.2 52.872L136.592 54.104C136.08 53.6667 135.547 53.3467 134.992 53.144C134.437 52.9307 133.845 52.824 133.216 52.824C132.395 52.824 131.749 52.9947 131.28 53.336C130.811 53.6773 130.576 54.152 130.576 54.76C130.576 55.1333 130.677 55.4373 130.88 55.672C131.083 55.896 131.376 56.0827 131.76 56.232C132.155 56.3813 132.624 56.52 133.168 56.648C133.776 56.7867 134.336 56.9413 134.848 57.112C135.36 57.272 135.808 57.4693 136.192 57.704C136.576 57.928 136.875 58.216 137.088 58.568C137.301 58.9093 137.408 59.336 137.408 59.848C137.408 60.5093 137.232 61.0853 136.88 61.576C136.528 62.0667 136.027 62.4507 135.376 62.728C134.725 62.9947 133.952 63.128 133.056 63.128ZM138.143 56.184V54.936H143.551V56.184H138.143ZM143.535 61.624V62.936C143.343 63 143.151 63.0427 142.959 63.064C142.767 63.096 142.559 63.112 142.335 63.112C141.514 63.112 140.868 62.8827 140.399 62.424C139.94 61.9547 139.711 61.2667 139.711 60.36V52.92L141.327 52.36V60.232C141.327 60.6267 141.386 60.936 141.503 61.16C141.62 61.3733 141.78 61.528 141.983 61.624C142.196 61.7093 142.431 61.752 142.687 61.752C142.836 61.752 142.975 61.7413 143.103 61.72C143.231 61.6987 143.375 61.6667 143.535 61.624ZM148.515 63.112C147.715 63.112 147.017 62.9413 146.419 62.6C145.833 62.2587 145.379 61.7787 145.059 61.16C144.739 60.5307 144.579 59.784 144.579 58.92C144.579 58.0773 144.739 57.3413 145.059 56.712C145.379 56.0827 145.833 55.5973 146.419 55.256C147.017 54.9147 147.715 54.744 148.515 54.744C149.305 54.744 149.993 54.9147 150.579 55.256C151.177 55.5973 151.635 56.0827 151.955 56.712C152.286 57.3413 152.451 58.0773 152.451 58.92C152.451 59.784 152.286 60.5307 151.955 61.16C151.635 61.7787 151.177 62.2587 150.579 62.6C149.993 62.9413 149.305 63.112 148.515 63.112ZM148.515 61.832C149.241 61.832 149.801 61.5867 150.195 61.096C150.601 60.6053 150.803 59.88 150.803 58.92C150.803 57.992 150.601 57.2827 150.195 56.792C149.801 56.2907 149.241 56.04 148.515 56.04C147.79 56.04 147.219 56.2907 146.803 56.792C146.398 57.2827 146.195 57.992 146.195 58.92C146.195 59.88 146.393 60.6053 146.787 61.096C147.193 61.5867 147.769 61.832 148.515 61.832ZM157.828 63.112C157.018 63.112 156.314 62.9413 155.716 62.6C155.13 62.2587 154.676 61.7787 154.356 61.16C154.036 60.5413 153.876 59.8107 153.876 58.968C153.876 58.1253 154.042 57.3893 154.372 56.76C154.703 56.12 155.167 55.624 155.764 55.272C156.372 54.92 157.087 54.744 157.908 54.744C158.463 54.744 159.002 54.8347 159.524 55.016C160.047 55.1973 160.474 55.4533 160.804 55.784L160.308 56.952C159.935 56.6533 159.556 56.4293 159.172 56.28C158.799 56.1307 158.415 56.056 158.02 56.056C157.252 56.056 156.644 56.3067 156.196 56.808C155.759 57.3093 155.54 58.024 155.54 58.952C155.54 59.88 155.759 60.5893 156.196 61.08C156.634 61.5707 157.242 61.816 158.02 61.816C158.404 61.816 158.788 61.7413 159.172 61.592C159.556 61.4427 159.935 61.2187 160.308 60.92L160.804 62.088C160.463 62.408 160.026 62.6587 159.492 62.84C158.959 63.0213 158.404 63.112 157.828 63.112ZM167.781 63L163.621 58.888L167.509 54.952H169.509L165.173 59.304L165.237 58.392L169.845 63H167.781ZM162.309 63V51.224H163.925V63H162.309ZM173.531 63.112C172.123 63.112 171.009 62.7707 170.187 62.088L170.683 60.92C171.11 61.2507 171.558 61.496 172.027 61.656C172.507 61.8053 173.025 61.88 173.579 61.88C174.134 61.88 174.555 61.7893 174.843 61.608C175.131 61.416 175.275 61.1493 175.275 60.808C175.275 60.52 175.174 60.296 174.971 60.136C174.779 59.9653 174.449 59.8213 173.979 59.704L172.619 59.384C171.915 59.2347 171.377 58.9733 171.003 58.6C170.641 58.216 170.459 57.7413 170.459 57.176C170.459 56.696 170.593 56.2747 170.859 55.912C171.126 55.5493 171.499 55.2667 171.979 55.064C172.459 54.8507 173.019 54.744 173.659 54.744C174.235 54.744 174.779 54.8347 175.291 55.016C175.803 55.1867 176.246 55.4427 176.619 55.784L176.123 56.92C175.729 56.6107 175.323 56.3813 174.907 56.232C174.502 56.072 174.086 55.992 173.659 55.992C173.137 55.992 172.731 56.0933 172.443 56.296C172.155 56.488 172.011 56.76 172.011 57.112C172.011 57.4 172.097 57.6293 172.267 57.8C172.449 57.96 172.747 58.088 173.163 58.184L174.523 58.52C175.302 58.6907 175.873 58.9627 176.235 59.336C176.598 59.7093 176.779 60.1893 176.779 60.776C176.779 61.4907 176.486 62.0613 175.899 62.488C175.323 62.904 174.534 63.112 173.531 63.112ZM182.902 59.352V58.04H187.558V59.352H182.902ZM193.12 62.248V52.712L194 53.032L190.799 55.016V53.496L193.824 51.608H194.784V62.248H193.12ZM190.624 63V61.64H197.28V63H190.624ZM203.081 63.128C201.759 63.128 200.751 62.6373 200.057 61.656C199.364 60.664 199.017 59.2133 199.017 57.304C199.017 55.4053 199.359 53.96 200.041 52.968C200.735 51.976 201.748 51.48 203.081 51.48C204.415 51.48 205.423 51.976 206.105 52.968C206.799 53.96 207.145 55.4 207.145 57.288C207.145 59.1973 206.799 60.648 206.105 61.64C205.412 62.632 204.404 63.128 203.081 63.128ZM203.081 61.8C203.913 61.8 204.521 61.4373 204.905 60.712C205.3 59.9867 205.497 58.8453 205.497 57.288C205.497 55.7413 205.3 54.6107 204.905 53.896C204.521 53.1813 203.913 52.824 203.081 52.824C202.249 52.824 201.636 53.1867 201.241 53.912C200.857 54.6267 200.665 55.752 200.665 57.288C200.665 58.8453 200.857 59.9867 201.241 60.712C201.636 61.4373 202.249 61.8 203.081 61.8ZM210.915 58.504C210.115 58.504 209.48 58.216 209.011 57.64C208.552 57.0533 208.323 56.1787 208.323 55.016C208.323 53.8427 208.552 52.9733 209.011 52.408C209.48 51.832 210.115 51.544 210.915 51.544C211.715 51.544 212.344 51.832 212.803 52.408C213.262 52.9733 213.491 53.8427 213.491 55.016C213.491 56.1787 213.262 57.0533 212.803 57.64C212.344 58.216 211.715 58.504 210.915 58.504ZM210.915 57.4C211.31 57.4 211.603 57.2133 211.795 56.84C211.987 56.4667 212.083 55.8587 212.083 55.016C212.083 54.184 211.987 53.5813 211.795 53.208C211.603 52.8347 211.31 52.648 210.915 52.648C210.52 52.648 210.227 52.8347 210.035 53.208C209.843 53.5813 209.747 54.184 209.747 55.016C209.747 55.8587 209.843 56.4667 210.035 56.84C210.227 57.2133 210.52 57.4 210.915 57.4ZM210.675 63L217.283 51.608H218.819L212.243 63H210.675ZM218.579 63.064C217.779 63.064 217.144 62.776 216.675 62.2C216.216 61.6133 215.987 60.7387 215.987 59.576C215.987 58.4027 216.216 57.5333 216.675 56.968C217.144 56.392 217.779 56.104 218.579 56.104C219.379 56.104 220.008 56.392 220.467 56.968C220.926 57.5333 221.155 58.4027 221.155 59.576C221.155 60.7387 220.926 61.6133 220.467 62.2C220.008 62.776 219.379 63.064 218.579 63.064ZM218.579 61.96C218.974 61.96 219.267 61.7733 219.459 61.4C219.651 61.0267 219.747 60.4187 219.747 59.576C219.747 58.744 219.651 58.1413 219.459 57.768C219.267 57.3947 218.974 57.208 218.579 57.208C218.184 57.208 217.891 57.3947 217.699 57.768C217.507 58.1413 217.411 58.744 217.411 59.576C217.411 60.4187 217.507 61.0267 217.699 61.4C217.891 61.7733 218.184 61.96 218.579 61.96Z" fill="white"/>
<defs>
<filter id="filter0_d" x="170.77" y="160" width="38.0271" height="38" filterUnits="userSpaceOnUse" color-interpolation-filters="sRGB">
<feFlood flood-opacity="0" result="BackgroundImageFix"/>
<feColorMatrix in="SourceAlpha" type="matrix" values="0 0 0 0 0 0 0 0 0 0 0 0 0 0 0 0 0 0 127 0"/>
<feOffset dy="2"/>
<feGaussianBlur stdDeviation="4"/>
<feColorMatrix type="matrix" values="0 0 0 0 0.18 0 0 0 0 0.252615 0 0 0 0 0.42 0 0 0 0.4 0"/>
<feBlend mode="normal" in2="BackgroundImageFix" result="effect1_dropShadow"/>
<feBlend mode="normal" in="SourceGraphic" in2="effect1_dropShadow" result="shape"/>
</filter>
<filter id="filter1_d" x="-16.5" y="0" width="186.5" height="263.75" filterUnits="userSpaceOnUse" color-interpolation-filters="sRGB">
<feFlood flood-opacity="0" result="BackgroundImageFix"/>
<feColorMatrix in="SourceAlpha" type="matrix" values="0 0 0 0 0 0 0 0 0 0 0 0 0 0 0 0 0 0 127 0"/>
<feOffset dy="4"/>
<feGaussianBlur stdDeviation="8"/>
<feColorMatrix type="matrix" values="0 0 0 0 0.18 0 0 0 0 0.252615 0 0 0 0 0.42 0 0 0 0.4 0"/>
<feBlend mode="normal" in2="BackgroundImageFix" result="effect1_dropShadow"/>
<feBlend mode="normal" in="SourceGraphic" in2="effect1_dropShadow" result="shape"/>
</filter>
<filter id="filter2_d" x="75.7559" y="48.5156" width="64.245" height="68.9697" filterUnits="userSpaceOnUse" color-interpolation-filters="sRGB">
<feFlood flood-opacity="0" result="BackgroundImageFix"/>
<feColorMatrix in="SourceAlpha" type="matrix" values="0 0 0 0 0 0 0 0 0 0 0 0 0 0 0 0 0 0 127 0"/>
<feOffset dy="4"/>
<feGaussianBlur stdDeviation="14"/>
<feColorMatrix type="matrix" values="0 0 0 0 0.0313726 0 0 0 0 0.0941176 0 0 0 0 0.2 0 0 0 0.44 0"/>
<feBlend mode="normal" in2="BackgroundImageFix" result="effect1_dropShadow"/>
<feBlend mode="normal" in="SourceGraphic" in2="effect1_dropShadow" result="shape"/>
</filter>
<filter id="filter3_d" x="80" y="7" width="240" height="152" filterUnits="userSpaceOnUse" color-interpolation-filters="sRGB">
<feFlood flood-opacity="0" result="BackgroundImageFix"/>
<feColorMatrix in="SourceAlpha" type="matrix" values="0 0 0 0 0 0 0 0 0 0 0 0 0 0 0 0 0 0 127 0"/>
<feOffset dy="4"/>
<feGaussianBlur stdDeviation="14"/>
<feColorMatrix type="matrix" values="0 0 0 0 0.0313726 0 0 0 0 0.0941176 0 0 0 0 0.2 0 0 0 0.44 0"/>
<feBlend mode="normal" in2="BackgroundImageFix" result="effect1_dropShadow"/>
<feBlend mode="normal" in="SourceGraphic" in2="effect1_dropShadow" result="shape"/>
</filter>
</defs>
</svg>
