<svg width="606" height="309" viewBox="0 0 606 309" fill="none"
    xmlns="http://www.w3.org/2000/svg">
    <path d="M410.376 234V222.608H414.968C416.216 222.608 417.165 222.885 417.816 223.44C418.477 223.984 418.808 224.773 418.808 225.808C418.808 226.789 418.472 227.563 417.8 228.128C417.128 228.693 416.189 228.976 414.984 228.976L416.184 228.752C416.6 228.752 416.957 228.869 417.256 229.104C417.555 229.328 417.795 229.691 417.976 230.192L419.416 234H417.832L416.424 230.208C416.253 229.749 416.013 229.445 415.704 229.296C415.405 229.147 415.005 229.072 414.504 229.072H411.832V234H410.376ZM411.832 227.872H414.824C415.688 227.872 416.328 227.701 416.744 227.36C417.16 227.008 417.368 226.496 417.368 225.824C417.368 225.141 417.16 224.635 416.744 224.304C416.339 223.973 415.699 223.808 414.824 223.808H411.832V227.872ZM427.997 233.056C427.645 233.387 427.192 233.648 426.637 233.84C426.082 234.021 425.517 234.112 424.941 234.112C424.098 234.112 423.373 233.947 422.765 233.616C422.157 233.285 421.688 232.811 421.357 232.192C421.026 231.563 420.861 230.816 420.861 229.952C420.861 229.12 421.021 228.389 421.341 227.76C421.672 227.131 422.125 226.64 422.701 226.288C423.277 225.925 423.938 225.744 424.685 225.744C425.41 225.744 426.029 225.904 426.541 226.224C427.064 226.544 427.458 227.003 427.725 227.6C428.002 228.187 428.141 228.891 428.141 229.712V229.968H422.141V229.072H427.309L426.861 229.648C426.882 228.741 426.706 228.048 426.333 227.568C425.96 227.088 425.416 226.848 424.701 226.848C423.954 226.848 423.368 227.115 422.941 227.648C422.525 228.171 422.317 228.907 422.317 229.856C422.317 230.88 422.541 231.653 422.989 232.176C423.437 232.688 424.098 232.944 424.973 232.944C425.442 232.944 425.89 232.869 426.317 232.72C426.744 232.56 427.149 232.325 427.533 232.016L427.997 233.056ZM433.148 234.112C432.444 234.112 431.82 233.947 431.276 233.616C430.742 233.275 430.326 232.795 430.028 232.176C429.729 231.547 429.58 230.811 429.58 229.968C429.58 229.125 429.729 228.389 430.028 227.76C430.337 227.131 430.758 226.64 431.292 226.288C431.836 225.925 432.454 225.744 433.148 225.744C433.873 225.744 434.492 225.925 435.004 226.288C435.516 226.64 435.862 227.147 436.044 227.808L435.852 227.92V225.952H437.292V234H435.852V231.984L436.044 232.064C435.862 232.715 435.516 233.221 435.004 233.584C434.492 233.936 433.873 234.112 433.148 234.112ZM433.468 232.928C434.236 232.928 434.822 232.672 435.228 232.16C435.644 231.637 435.852 230.896 435.852 229.936C435.852 228.976 435.644 228.24 435.228 227.728C434.812 227.205 434.225 226.944 433.468 226.944C432.71 226.944 432.118 227.211 431.692 227.744C431.265 228.277 431.052 229.019 431.052 229.968C431.052 230.917 431.265 231.648 431.692 232.16C432.118 232.672 432.71 232.928 433.468 232.928ZM439.716 234V222.224H441.172V234H439.716ZM447.985 234V222.608H455.265V223.824H449.441V227.6H454.945V228.832H449.441V232.784H455.265V234H447.985ZM460.031 234.112C458.655 234.112 457.562 233.765 456.751 233.072L457.215 232.016C457.642 232.347 458.084 232.592 458.543 232.752C459.012 232.901 459.524 232.976 460.079 232.976C460.655 232.976 461.092 232.88 461.391 232.688C461.7 232.485 461.855 232.197 461.855 231.824C461.855 231.525 461.748 231.291 461.535 231.12C461.332 230.939 460.991 230.789 460.511 230.672L459.167 230.352C458.474 230.203 457.94 229.936 457.567 229.552C457.204 229.168 457.023 228.704 457.023 228.16C457.023 227.691 457.151 227.275 457.407 226.912C457.674 226.549 458.042 226.267 458.511 226.064C458.98 225.851 459.535 225.744 460.175 225.744C460.74 225.744 461.274 225.835 461.775 226.016C462.287 226.197 462.719 226.459 463.071 226.8L462.607 227.84C462.223 227.52 461.828 227.285 461.423 227.136C461.018 226.976 460.596 226.896 460.159 226.896C459.615 226.896 459.188 227.003 458.879 227.216C458.58 227.429 458.431 227.717 458.431 228.08C458.431 228.389 458.527 228.635 458.719 228.816C458.911 228.997 459.215 229.141 459.631 229.248L460.991 229.584C461.759 229.744 462.324 230.011 462.687 230.384C463.05 230.747 463.231 231.216 463.231 231.792C463.231 232.496 462.943 233.061 462.367 233.488C461.791 233.904 461.012 234.112 460.031 234.112ZM464.034 227.072V225.952H469.314V227.072H464.034ZM469.282 232.736V233.952C469.101 234.005 468.914 234.043 468.722 234.064C468.541 234.096 468.343 234.112 468.13 234.112C467.341 234.112 466.717 233.888 466.258 233.44C465.81 232.992 465.586 232.331 465.586 231.456V223.904L467.042 223.392V231.296C467.042 231.712 467.101 232.037 467.218 232.272C467.346 232.496 467.511 232.656 467.714 232.752C467.927 232.837 468.167 232.88 468.434 232.88C468.583 232.88 468.722 232.869 468.85 232.848C468.978 232.827 469.122 232.789 469.282 232.736ZM473.945 234.112C473.241 234.112 472.617 233.947 472.073 233.616C471.539 233.275 471.123 232.795 470.825 232.176C470.526 231.547 470.377 230.811 470.377 229.968C470.377 229.125 470.526 228.389 470.825 227.76C471.134 227.131 471.555 226.64 472.089 226.288C472.633 225.925 473.251 225.744 473.945 225.744C474.67 225.744 475.289 225.925 475.801 226.288C476.313 226.64 476.659 227.147 476.841 227.808L476.649 227.92V225.952H478.089V234H476.649V231.984L476.841 232.064C476.659 232.715 476.313 233.221 475.801 233.584C475.289 233.936 474.67 234.112 473.945 234.112ZM474.265 232.928C475.033 232.928 475.619 232.672 476.025 232.16C476.441 231.637 476.649 230.896 476.649 229.936C476.649 228.976 476.441 228.24 476.025 227.728C475.609 227.205 475.022 226.944 474.265 226.944C473.507 226.944 472.915 227.211 472.489 227.744C472.062 228.277 471.849 229.019 471.849 229.968C471.849 230.917 472.062 231.648 472.489 232.16C472.915 232.672 473.507 232.928 474.265 232.928ZM479.409 227.072V225.952H484.689V227.072H479.409ZM484.657 232.736V233.952C484.476 234.005 484.289 234.043 484.097 234.064C483.916 234.096 483.718 234.112 483.505 234.112C482.716 234.112 482.092 233.888 481.633 233.44C481.185 232.992 480.961 232.331 480.961 231.456V223.904L482.417 223.392V231.296C482.417 231.712 482.476 232.037 482.593 232.272C482.721 232.496 482.886 232.656 483.089 232.752C483.302 232.837 483.542 232.88 483.809 232.88C483.958 232.88 484.097 232.869 484.225 232.848C484.353 232.827 484.497 232.789 484.657 232.736ZM492.888 233.056C492.536 233.387 492.082 233.648 491.528 233.84C490.973 234.021 490.408 234.112 489.832 234.112C488.989 234.112 488.264 233.947 487.656 233.616C487.048 233.285 486.578 232.811 486.248 232.192C485.917 231.563 485.752 230.816 485.752 229.952C485.752 229.12 485.912 228.389 486.232 227.76C486.562 227.131 487.016 226.64 487.592 226.288C488.168 225.925 488.829 225.744 489.576 225.744C490.301 225.744 490.92 225.904 491.432 226.224C491.954 226.544 492.349 227.003 492.616 227.6C492.893 228.187 493.032 228.891 493.032 229.712V229.968H487.032V229.072H492.2L491.752 229.648C491.773 228.741 491.597 228.048 491.224 227.568C490.85 227.088 490.306 226.848 489.592 226.848C488.845 226.848 488.258 227.115 487.832 227.648C487.416 228.171 487.208 228.907 487.208 229.856C487.208 230.88 487.432 231.653 487.88 232.176C488.328 232.688 488.989 232.944 489.864 232.944C490.333 232.944 490.781 232.869 491.208 232.72C491.634 232.56 492.04 232.325 492.424 232.016L492.888 233.056ZM499.105 230.288V229.104H503.697V230.288H499.105ZM509.34 233.328V223.552L510.156 223.888L507.004 225.872V224.48L509.98 222.608H510.828V233.328H509.34ZM506.828 234V232.768H513.34V234H506.828ZM519.238 234.128C517.926 234.128 516.928 233.637 516.246 232.656C515.563 231.664 515.222 230.213 515.222 228.304C515.222 226.395 515.558 224.949 516.23 223.968C516.912 222.976 517.915 222.48 519.238 222.48C520.56 222.48 521.558 222.976 522.23 223.968C522.912 224.949 523.253 226.389 523.253 228.288C523.253 230.197 522.912 231.648 522.23 232.64C521.547 233.632 520.55 234.128 519.238 234.128ZM519.238 232.912C520.102 232.912 520.736 232.539 521.142 231.792C521.558 231.045 521.766 229.877 521.766 228.288C521.766 226.699 521.558 225.541 521.142 224.816C520.736 224.08 520.102 223.712 519.238 223.712C518.374 223.712 517.734 224.08 517.318 224.816C516.912 225.552 516.71 226.709 516.71 228.288C516.71 229.877 516.912 231.045 517.318 231.792C517.734 232.539 518.374 232.912 519.238 232.912ZM527.071 229.504C526.282 229.504 525.658 229.216 525.199 228.64C524.741 228.064 524.511 227.189 524.511 226.016C524.511 224.832 524.741 223.957 525.199 223.392C525.658 222.827 526.282 222.544 527.071 222.544C527.861 222.544 528.479 222.827 528.927 223.392C529.386 223.957 529.615 224.832 529.615 226.016C529.615 227.189 529.386 228.064 528.927 228.64C528.479 229.216 527.861 229.504 527.071 229.504ZM527.071 228.496C527.487 228.496 527.797 228.304 527.999 227.92C528.213 227.525 528.319 226.891 528.319 226.016C528.319 225.152 528.213 224.528 527.999 224.144C527.797 223.749 527.487 223.552 527.071 223.552C526.655 223.552 526.341 223.749 526.127 224.144C525.925 224.528 525.823 225.152 525.823 226.016C525.823 226.891 525.925 227.525 526.127 227.92C526.341 228.304 526.655 228.496 527.071 228.496ZM526.847 234L533.439 222.608H534.831L528.255 234H526.847ZM534.607 234.064C533.818 234.064 533.194 233.776 532.735 233.2C532.277 232.624 532.047 231.749 532.047 230.576C532.047 229.392 532.277 228.517 532.735 227.952C533.194 227.387 533.818 227.104 534.607 227.104C535.397 227.104 536.015 227.387 536.463 227.952C536.922 228.517 537.151 229.392 537.151 230.576C537.151 231.749 536.922 232.624 536.463 233.2C536.015 233.776 535.397 234.064 534.607 234.064ZM534.607 233.056C535.023 233.056 535.333 232.864 535.535 232.48C535.749 232.085 535.855 231.451 535.855 230.576C535.855 229.712 535.749 229.088 535.535 228.704C535.333 228.309 535.023 228.112 534.607 228.112C534.191 228.112 533.877 228.309 533.663 228.704C533.461 229.088 533.359 229.712 533.359 230.576C533.359 231.451 533.461 232.085 533.663 232.48C533.877 232.864 534.191 233.056 534.607 233.056Z" fill="#969EAC"/>
    <rect x="369" y="218" width="18" height="18" rx="2" fill="#D3365F"/>
    <path d="M410.376 198V186.608H411.592L416.136 196.96H415.496L420.008 186.608H421.208V198H419.864V188.624L420.36 188.688L416.312 198H415.288L411.176 188.688L411.72 188.624L411.736 198H410.376ZM426.658 198.112C425.687 198.112 424.957 197.845 424.466 197.312C423.986 196.768 423.746 195.968 423.746 194.912V189.952H425.202V194.896C425.202 195.589 425.341 196.101 425.618 196.432C425.906 196.752 426.343 196.912 426.93 196.912C427.613 196.912 428.162 196.693 428.578 196.256C428.994 195.808 429.202 195.216 429.202 194.48V189.952H430.674V198H429.25V196.272L429.442 196.192C429.229 196.821 428.871 197.301 428.37 197.632C427.869 197.952 427.298 198.112 426.658 198.112ZM433.091 198V192.208C433.091 191.835 433.08 191.461 433.059 191.088C433.048 190.704 433.016 190.325 432.963 189.952H434.339L434.483 191.6L434.323 191.696C434.558 191.067 434.931 190.587 435.443 190.256C435.966 189.915 436.563 189.744 437.235 189.744C439.166 189.744 440.131 190.816 440.131 192.96V198H438.675V193.04C438.675 192.315 438.531 191.787 438.243 191.456C437.966 191.115 437.518 190.944 436.899 190.944C436.184 190.944 435.614 191.168 435.187 191.616C434.76 192.053 434.547 192.645 434.547 193.392V198H433.091ZM442.513 198V189.952H443.969V198H442.513ZM442.385 186.48H444.097V188.064H442.385V186.48ZM449.172 198.112C447.796 198.112 446.702 197.765 445.892 197.072L446.356 196.016C446.782 196.347 447.225 196.592 447.684 196.752C448.153 196.901 448.665 196.976 449.22 196.976C449.796 196.976 450.233 196.88 450.532 196.688C450.841 196.485 450.996 196.197 450.996 195.824C450.996 195.525 450.889 195.291 450.676 195.12C450.473 194.939 450.132 194.789 449.652 194.672L448.308 194.352C447.614 194.203 447.081 193.936 446.708 193.552C446.345 193.168 446.164 192.704 446.164 192.16C446.164 191.691 446.292 191.275 446.548 190.912C446.814 190.549 447.182 190.267 447.652 190.064C448.121 189.851 448.676 189.744 449.316 189.744C449.881 189.744 450.414 189.835 450.916 190.016C451.428 190.197 451.86 190.459 452.212 190.8L451.748 191.84C451.364 191.52 450.969 191.285 450.564 191.136C450.158 190.976 449.737 190.896 449.299 190.896C448.756 190.896 448.329 191.003 448.02 191.216C447.721 191.429 447.572 191.717 447.572 192.08C447.572 192.389 447.668 192.635 447.86 192.816C448.052 192.997 448.356 193.141 448.772 193.248L450.132 193.584C450.9 193.744 451.465 194.011 451.828 194.384C452.19 194.747 452.372 195.216 452.372 195.792C452.372 196.496 452.084 197.061 451.508 197.488C450.932 197.904 450.153 198.112 449.172 198.112ZM458.511 194.288V193.104H463.103V194.288H458.511ZM470.186 198V188.464H470.602L466.042 195.024L466.058 194.368H473.354V195.568H465.002V194.464L470.442 186.608H471.658V198H470.186ZM478.788 198.112C478.084 198.112 477.39 197.989 476.708 197.744C476.036 197.499 475.47 197.157 475.012 196.72L475.556 195.6C476.078 196.027 476.606 196.352 477.14 196.576C477.673 196.789 478.222 196.896 478.788 196.896C479.566 196.896 480.174 196.683 480.612 196.256C481.049 195.819 481.268 195.221 481.268 194.464C481.268 193.984 481.166 193.563 480.964 193.2C480.772 192.837 480.494 192.555 480.132 192.352C479.78 192.139 479.364 192.032 478.884 192.032C478.361 192.032 477.886 192.139 477.46 192.352C477.033 192.555 476.66 192.864 476.34 193.28H475.348V186.608H482.244V187.808H476.82V192.224L476.356 192.176C476.665 191.739 477.06 191.403 477.54 191.168C478.02 190.933 478.558 190.816 479.156 190.816C479.881 190.816 480.51 190.971 481.044 191.28C481.577 191.579 481.988 192 482.276 192.544C482.564 193.088 482.708 193.717 482.708 194.432C482.708 195.157 482.548 195.797 482.228 196.352C481.908 196.907 481.454 197.339 480.868 197.648C480.281 197.957 479.588 198.112 478.788 198.112ZM486.478 193.504C485.688 193.504 485.064 193.216 484.606 192.64C484.147 192.064 483.918 191.189 483.918 190.016C483.918 188.832 484.147 187.957 484.606 187.392C485.064 186.827 485.688 186.544 486.478 186.544C487.267 186.544 487.886 186.827 488.334 187.392C488.792 187.957 489.022 188.832 489.022 190.016C489.022 191.189 488.792 192.064 488.334 192.64C487.886 193.216 487.267 193.504 486.478 193.504ZM486.478 192.496C486.894 192.496 487.203 192.304 487.406 191.92C487.619 191.525 487.726 190.891 487.726 190.016C487.726 189.152 487.619 188.528 487.406 188.144C487.203 187.749 486.894 187.552 486.478 187.552C486.062 187.552 485.747 187.749 485.534 188.144C485.331 188.528 485.23 189.152 485.23 190.016C485.23 190.891 485.331 191.525 485.534 191.92C485.747 192.304 486.062 192.496 486.478 192.496ZM486.254 198L492.845 186.608H494.238L487.661 198H486.254ZM494.014 198.064C493.224 198.064 492.6 197.776 492.142 197.2C491.683 196.624 491.454 195.749 491.454 194.576C491.454 193.392 491.683 192.517 492.142 191.952C492.6 191.387 493.224 191.104 494.014 191.104C494.803 191.104 495.422 191.387 495.87 191.952C496.328 192.517 496.558 193.392 496.558 194.576C496.558 195.749 496.328 196.624 495.87 197.2C495.422 197.776 494.803 198.064 494.014 198.064ZM494.014 197.056C494.43 197.056 494.739 196.864 494.942 196.48C495.155 196.085 495.262 195.451 495.262 194.576C495.262 193.712 495.155 193.088 494.942 192.704C494.739 192.309 494.43 192.112 494.014 192.112C493.598 192.112 493.283 192.309 493.07 192.704C492.867 193.088 492.766 193.712 492.766 194.576C492.766 195.451 492.867 196.085 493.07 196.48C493.283 196.864 493.598 197.056 494.014 197.056Z" fill="#969EAC"/>
    <rect x="369" y="182" width="18" height="18" rx="2" fill="#29CFD6"/>
    <path d="M410.376 162V150.608H411.592L416.136 160.96H415.496L420.008 150.608H421.208V162H419.864V152.624L420.36 152.688L416.312 162H415.288L411.176 152.688L411.72 152.624L411.736 162H410.376ZM426.658 162.112C425.687 162.112 424.957 161.845 424.466 161.312C423.986 160.768 423.746 159.968 423.746 158.912V153.952H425.202V158.896C425.202 159.589 425.341 160.101 425.618 160.432C425.906 160.752 426.343 160.912 426.93 160.912C427.613 160.912 428.162 160.693 428.578 160.256C428.994 159.808 429.202 159.216 429.202 158.48V153.952H430.674V162H429.25V160.272L429.442 160.192C429.229 160.821 428.871 161.301 428.37 161.632C427.869 161.952 427.298 162.112 426.658 162.112ZM431.987 155.072V153.952H437.267V155.072H431.987ZM437.235 160.736V161.952C437.054 162.005 436.867 162.043 436.675 162.064C436.494 162.096 436.296 162.112 436.083 162.112C435.294 162.112 434.67 161.888 434.211 161.44C433.763 160.992 433.539 160.331 433.539 159.456V151.904L434.995 151.392V159.296C434.995 159.712 435.054 160.037 435.171 160.272C435.299 160.496 435.464 160.656 435.667 160.752C435.88 160.837 436.12 160.88 436.387 160.88C436.536 160.88 436.675 160.869 436.803 160.848C436.931 160.827 437.075 160.789 437.235 160.736ZM441.674 162.112C440.703 162.112 439.972 161.845 439.482 161.312C439.002 160.768 438.762 159.968 438.762 158.912V153.952H440.218V158.896C440.218 159.589 440.356 160.101 440.634 160.432C440.922 160.752 441.359 160.912 441.946 160.912C442.628 160.912 443.178 160.693 443.594 160.256C444.01 159.808 444.218 159.216 444.218 158.48V153.952H445.69V162H444.266V160.272L444.458 160.192C444.244 160.821 443.887 161.301 443.386 161.632C442.884 161.952 442.314 162.112 441.674 162.112ZM451.195 162.112C450.491 162.112 449.867 161.947 449.323 161.616C448.789 161.275 448.373 160.795 448.075 160.176C447.776 159.547 447.627 158.811 447.627 157.968C447.627 157.125 447.776 156.389 448.075 155.76C448.384 155.131 448.805 154.64 449.339 154.288C449.883 153.925 450.501 153.744 451.195 153.744C451.92 153.744 452.539 153.925 453.051 154.288C453.563 154.64 453.909 155.147 454.091 155.808L453.899 155.92V153.952H455.339V162H453.899V159.984L454.091 160.064C453.909 160.715 453.563 161.221 453.051 161.584C452.539 161.936 451.92 162.112 451.195 162.112ZM451.515 160.928C452.283 160.928 452.869 160.672 453.275 160.16C453.691 159.637 453.899 158.896 453.899 157.936C453.899 156.976 453.691 156.24 453.275 155.728C452.859 155.205 452.272 154.944 451.515 154.944C450.757 154.944 450.165 155.211 449.739 155.744C449.312 156.277 449.099 157.019 449.099 157.968C449.099 158.917 449.312 159.648 449.739 160.16C450.165 160.672 450.757 160.928 451.515 160.928ZM457.763 162V150.224H459.219V162H457.763ZM466.032 162V150.608H473.152V151.84H467.488V155.6H472.832V156.832H467.488V162H466.032ZM477.627 162.112C476.656 162.112 475.926 161.845 475.435 161.312C474.955 160.768 474.715 159.968 474.715 158.912V153.952H476.171V158.896C476.171 159.589 476.31 160.101 476.587 160.432C476.875 160.752 477.312 160.912 477.899 160.912C478.582 160.912 479.131 160.693 479.547 160.256C479.963 159.808 480.171 159.216 480.171 158.48V153.952H481.643V162H480.219V160.272L480.411 160.192C480.198 160.821 479.84 161.301 479.339 161.632C478.838 161.952 478.267 162.112 477.627 162.112ZM484.06 162V156.208C484.06 155.835 484.049 155.461 484.028 155.088C484.017 154.704 483.985 154.325 483.932 153.952H485.308L485.452 155.6L485.292 155.696C485.526 155.067 485.9 154.587 486.412 154.256C486.934 153.915 487.532 153.744 488.204 153.744C490.134 153.744 491.1 154.816 491.1 156.96V162H489.644V157.04C489.644 156.315 489.5 155.787 489.212 155.456C488.934 155.115 488.486 154.944 487.868 154.944C487.153 154.944 486.582 155.168 486.156 155.616C485.729 156.053 485.516 156.645 485.516 157.392V162H484.06ZM500.714 162H499.274V159.872L499.466 160.064C499.284 160.715 498.938 161.221 498.426 161.584C497.914 161.936 497.295 162.112 496.57 162.112C495.876 162.112 495.258 161.941 494.714 161.6C494.18 161.248 493.759 160.757 493.45 160.128C493.151 159.488 493.002 158.747 493.002 157.904C493.002 157.061 493.151 156.331 493.45 155.712C493.748 155.083 494.164 154.597 494.698 154.256C495.242 153.915 495.866 153.744 496.57 153.744C497.295 153.744 497.914 153.925 498.426 154.288C498.938 154.651 499.284 155.152 499.466 155.792L499.258 155.984V150.224H500.714V162ZM496.89 160.928C497.647 160.928 498.234 160.672 498.65 160.16C499.066 159.637 499.274 158.896 499.274 157.936C499.274 156.987 499.066 156.251 498.65 155.728C498.244 155.205 497.658 154.944 496.89 154.944C496.132 154.944 495.54 155.205 495.114 155.728C494.687 156.24 494.474 156.965 494.474 157.904C494.474 158.864 494.687 159.611 495.114 160.144C495.54 160.667 496.132 160.928 496.89 160.928ZM505.906 162.112C504.53 162.112 503.437 161.765 502.626 161.072L503.09 160.016C503.517 160.347 503.959 160.592 504.418 160.752C504.887 160.901 505.399 160.976 505.954 160.976C506.53 160.976 506.967 160.88 507.266 160.688C507.575 160.485 507.73 160.197 507.73 159.824C507.73 159.525 507.623 159.291 507.41 159.12C507.207 158.939 506.866 158.789 506.386 158.672L505.042 158.352C504.349 158.203 503.815 157.936 503.442 157.552C503.079 157.168 502.898 156.704 502.898 156.16C502.898 155.691 503.026 155.275 503.282 154.912C503.549 154.549 503.917 154.267 504.386 154.064C504.855 153.851 505.41 153.744 506.05 153.744C506.615 153.744 507.149 153.835 507.65 154.016C508.162 154.197 508.594 154.459 508.946 154.8L508.482 155.84C508.098 155.52 507.703 155.285 507.298 155.136C506.893 154.976 506.471 154.896 506.034 154.896C505.49 154.896 505.063 155.003 504.754 155.216C504.455 155.429 504.306 155.717 504.306 156.08C504.306 156.389 504.402 156.635 504.594 156.816C504.786 156.997 505.09 157.141 505.506 157.248L506.866 157.584C507.634 157.744 508.199 158.011 508.562 158.384C508.925 158.747 509.106 159.216 509.106 159.792C509.106 160.496 508.818 161.061 508.242 161.488C507.666 161.904 506.887 162.112 505.906 162.112ZM515.246 158.288V157.104H519.838V158.288H515.246ZM522.264 162V160.88L526.232 156.528C526.744 155.952 527.118 155.435 527.352 154.976C527.598 154.507 527.72 154.037 527.72 153.568C527.72 152.971 527.544 152.512 527.192 152.192C526.84 151.861 526.344 151.696 525.704 151.696C525.16 151.696 524.622 151.808 524.088 152.032C523.555 152.245 523.027 152.565 522.504 152.992L521.96 151.872C522.408 151.445 522.974 151.109 523.656 150.864C524.35 150.608 525.043 150.48 525.736 150.48C526.451 150.48 527.064 150.603 527.576 150.848C528.088 151.083 528.488 151.429 528.776 151.888C529.064 152.336 529.208 152.869 529.208 153.488C529.208 154.139 529.059 154.763 528.76 155.36C528.472 155.957 527.992 156.629 527.32 157.376L523.56 161.424L523.432 160.768H529.672V162H522.264ZM535.522 162.112C534.818 162.112 534.125 161.989 533.442 161.744C532.77 161.499 532.205 161.157 531.746 160.72L532.29 159.6C532.813 160.027 533.341 160.352 533.874 160.576C534.407 160.789 534.957 160.896 535.522 160.896C536.301 160.896 536.909 160.683 537.346 160.256C537.783 159.819 538.002 159.221 538.002 158.464C538.002 157.984 537.901 157.563 537.698 157.2C537.506 156.837 537.229 156.555 536.866 156.352C536.514 156.139 536.098 156.032 535.618 156.032C535.095 156.032 534.621 156.139 534.194 156.352C533.767 156.555 533.394 156.864 533.074 157.28H532.082V150.608H538.978V151.808H533.554V156.224L533.09 156.176C533.399 155.739 533.794 155.403 534.274 155.168C534.754 154.933 535.293 154.816 535.89 154.816C536.615 154.816 537.245 154.971 537.778 155.28C538.311 155.579 538.722 156 539.01 156.544C539.298 157.088 539.442 157.717 539.442 158.432C539.442 159.157 539.282 159.797 538.962 160.352C538.642 160.907 538.189 161.339 537.602 161.648C537.015 161.957 536.322 162.112 535.522 162.112ZM543.212 157.504C542.423 157.504 541.799 157.216 541.34 156.64C540.881 156.064 540.652 155.189 540.652 154.016C540.652 152.832 540.881 151.957 541.34 151.392C541.799 150.827 542.423 150.544 543.212 150.544C544.001 150.544 544.62 150.827 545.068 151.392C545.527 151.957 545.756 152.832 545.756 154.016C545.756 155.189 545.527 156.064 545.068 156.64C544.62 157.216 544.001 157.504 543.212 157.504ZM543.212 156.496C543.628 156.496 543.937 156.304 544.14 155.92C544.353 155.525 544.46 154.891 544.46 154.016C544.46 153.152 544.353 152.528 544.14 152.144C543.937 151.749 543.628 151.552 543.212 151.552C542.796 151.552 542.481 151.749 542.268 152.144C542.065 152.528 541.964 153.152 541.964 154.016C541.964 154.891 542.065 155.525 542.268 155.92C542.481 156.304 542.796 156.496 543.212 156.496ZM542.988 162L549.58 150.608H550.972L544.396 162H542.988ZM550.748 162.064C549.959 162.064 549.335 161.776 548.876 161.2C548.417 160.624 548.188 159.749 548.188 158.576C548.188 157.392 548.417 156.517 548.876 155.952C549.335 155.387 549.959 155.104 550.748 155.104C551.537 155.104 552.156 155.387 552.604 155.952C553.063 156.517 553.292 157.392 553.292 158.576C553.292 159.749 553.063 160.624 552.604 161.2C552.156 161.776 551.537 162.064 550.748 162.064ZM550.748 161.056C551.164 161.056 551.473 160.864 551.676 160.48C551.889 160.085 551.996 159.451 551.996 158.576C551.996 157.712 551.889 157.088 551.676 156.704C551.473 156.309 551.164 156.112 550.748 156.112C550.332 156.112 550.017 156.309 549.804 156.704C549.601 157.088 549.5 157.712 549.5 158.576C549.5 159.451 549.601 160.085 549.804 160.48C550.017 160.864 550.332 161.056 550.748 161.056Z" fill="#969EAC"/>
    <rect x="369" y="146" width="18" height="18" rx="2" fill="#FFBC02"/>
    <path d="M410.376 126V114.608H415.048C416.2 114.608 417.101 114.869 417.752 115.392C418.413 115.904 418.744 116.635 418.744 117.584C418.744 118.245 418.563 118.805 418.2 119.264C417.848 119.712 417.357 120.032 416.728 120.224V120.096C417.443 120.235 418.003 120.549 418.408 121.04C418.813 121.531 419.016 122.149 419.016 122.896C419.016 123.888 418.68 124.656 418.008 125.2C417.347 125.733 416.408 126 415.192 126H410.376ZM411.832 124.8H415.064C415.928 124.8 416.563 124.64 416.968 124.32C417.373 124 417.576 123.504 417.576 122.832C417.576 122.16 417.368 121.659 416.952 121.328C416.547 120.997 415.917 120.832 415.064 120.832H411.832V124.8ZM411.832 119.6H414.808C415.64 119.6 416.264 119.44 416.68 119.12C417.096 118.8 417.304 118.32 417.304 117.68C417.304 117.061 417.096 116.597 416.68 116.288C416.275 115.968 415.651 115.808 414.808 115.808H411.832V119.6ZM424.53 126.112C423.751 126.112 423.069 125.941 422.482 125.6C421.906 125.259 421.458 124.779 421.138 124.16C420.818 123.531 420.658 122.789 420.658 121.936C420.658 121.093 420.818 120.357 421.138 119.728C421.458 119.088 421.906 118.597 422.482 118.256C423.069 117.915 423.751 117.744 424.53 117.744C425.319 117.744 426.002 117.915 426.578 118.256C427.154 118.597 427.602 119.088 427.922 119.728C428.242 120.357 428.402 121.093 428.402 121.936C428.402 122.789 428.242 123.531 427.922 124.16C427.602 124.779 427.154 125.259 426.578 125.6C426.002 125.941 425.319 126.112 424.53 126.112ZM424.53 124.928C425.298 124.928 425.89 124.677 426.306 124.176C426.722 123.664 426.93 122.917 426.93 121.936C426.93 120.965 426.717 120.224 426.29 119.712C425.874 119.2 425.287 118.944 424.53 118.944C423.783 118.944 423.197 119.2 422.77 119.712C422.343 120.224 422.13 120.965 422.13 121.936C422.13 122.917 422.338 123.664 422.754 124.176C423.17 124.677 423.762 124.928 424.53 124.928ZM430.372 126V120.208C430.372 119.835 430.362 119.461 430.34 119.088C430.33 118.704 430.298 118.325 430.244 117.952H431.62L431.764 119.6L431.604 119.696C431.839 119.067 432.212 118.587 432.724 118.256C433.247 117.915 433.844 117.744 434.516 117.744C436.447 117.744 437.412 118.816 437.412 120.96V126H435.956V121.04C435.956 120.315 435.812 119.787 435.524 119.456C435.247 119.115 434.799 118.944 434.18 118.944C433.466 118.944 432.895 119.168 432.468 119.616C432.042 120.053 431.828 120.645 431.828 121.392V126H430.372ZM447.026 126H445.586V123.872L445.778 124.064C445.597 124.715 445.25 125.221 444.738 125.584C444.226 125.936 443.607 126.112 442.882 126.112C442.189 126.112 441.57 125.941 441.026 125.6C440.493 125.248 440.071 124.757 439.762 124.128C439.463 123.488 439.314 122.747 439.314 121.904C439.314 121.061 439.463 120.331 439.762 119.712C440.061 119.083 440.477 118.597 441.01 118.256C441.554 117.915 442.178 117.744 442.882 117.744C443.607 117.744 444.226 117.925 444.738 118.288C445.25 118.651 445.597 119.152 445.778 119.792L445.57 119.984V114.224H447.026V126ZM443.202 124.928C443.959 124.928 444.546 124.672 444.962 124.16C445.378 123.637 445.586 122.896 445.586 121.936C445.586 120.987 445.378 120.251 444.962 119.728C444.557 119.205 443.97 118.944 443.202 118.944C442.445 118.944 441.853 119.205 441.426 119.728C440.999 120.24 440.786 120.965 440.786 121.904C440.786 122.864 440.999 123.611 441.426 124.144C441.853 124.667 442.445 124.928 443.202 124.928ZM452.218 126.112C450.842 126.112 449.749 125.765 448.938 125.072L449.402 124.016C449.829 124.347 450.272 124.592 450.73 124.752C451.2 124.901 451.712 124.976 452.266 124.976C452.842 124.976 453.28 124.88 453.578 124.688C453.888 124.485 454.042 124.197 454.042 123.824C454.042 123.525 453.936 123.291 453.722 123.12C453.52 122.939 453.178 122.789 452.698 122.672L451.354 122.352C450.661 122.203 450.128 121.936 449.754 121.552C449.392 121.168 449.21 120.704 449.21 120.16C449.21 119.691 449.338 119.275 449.594 118.912C449.861 118.549 450.229 118.267 450.698 118.064C451.168 117.851 451.722 117.744 452.362 117.744C452.928 117.744 453.461 117.835 453.962 118.016C454.474 118.197 454.906 118.459 455.258 118.8L454.794 119.84C454.41 119.52 454.016 119.285 453.61 119.136C453.205 118.976 452.784 118.896 452.346 118.896C451.802 118.896 451.376 119.003 451.066 119.216C450.768 119.429 450.618 119.717 450.618 120.08C450.618 120.389 450.714 120.635 450.906 120.816C451.098 120.997 451.402 121.141 451.818 121.248L453.178 121.584C453.946 121.744 454.512 122.011 454.874 122.384C455.237 122.747 455.418 123.216 455.418 123.792C455.418 124.496 455.13 125.061 454.554 125.488C453.978 125.904 453.2 126.112 452.218 126.112ZM461.558 122.288V121.104H466.15V122.288H461.558ZM471.793 125.328V115.552L472.609 115.888L469.457 117.872V116.48L472.433 114.608H473.281V125.328H471.793ZM469.281 126V124.768H475.793V126H469.281ZM481.835 126.112C481.131 126.112 480.437 125.989 479.755 125.744C479.083 125.499 478.517 125.157 478.059 124.72L478.603 123.6C479.125 124.027 479.653 124.352 480.187 124.576C480.72 124.789 481.269 124.896 481.835 124.896C482.613 124.896 483.221 124.683 483.659 124.256C484.096 123.819 484.315 123.221 484.315 122.464C484.315 121.984 484.213 121.563 484.011 121.2C483.819 120.837 483.541 120.555 483.179 120.352C482.827 120.139 482.411 120.032 481.931 120.032C481.408 120.032 480.933 120.139 480.507 120.352C480.08 120.555 479.707 120.864 479.387 121.28H478.395V114.608H485.291V115.808H479.867V120.224L479.403 120.176C479.712 119.739 480.107 119.403 480.587 119.168C481.067 118.933 481.605 118.816 482.203 118.816C482.928 118.816 483.557 118.971 484.091 119.28C484.624 119.579 485.035 120 485.323 120.544C485.611 121.088 485.755 121.717 485.755 122.432C485.755 123.157 485.595 123.797 485.275 124.352C484.955 124.907 484.501 125.339 483.915 125.648C483.328 125.957 482.635 126.112 481.835 126.112ZM489.524 121.504C488.735 121.504 488.111 121.216 487.652 120.64C487.194 120.064 486.964 119.189 486.964 118.016C486.964 116.832 487.194 115.957 487.652 115.392C488.111 114.827 488.735 114.544 489.524 114.544C490.314 114.544 490.932 114.827 491.38 115.392C491.839 115.957 492.068 116.832 492.068 118.016C492.068 119.189 491.839 120.064 491.38 120.64C490.932 121.216 490.314 121.504 489.524 121.504ZM489.524 120.496C489.94 120.496 490.25 120.304 490.452 119.92C490.666 119.525 490.772 118.891 490.772 118.016C490.772 117.152 490.666 116.528 490.452 116.144C490.25 115.749 489.94 115.552 489.524 115.552C489.108 115.552 488.794 115.749 488.58 116.144C488.378 116.528 488.276 117.152 488.276 118.016C488.276 118.891 488.378 119.525 488.58 119.92C488.794 120.304 489.108 120.496 489.524 120.496ZM489.3 126L495.892 114.608H497.284L490.708 126H489.3ZM497.06 126.064C496.271 126.064 495.647 125.776 495.188 125.2C494.73 124.624 494.5 123.749 494.5 122.576C494.5 121.392 494.73 120.517 495.188 119.952C495.647 119.387 496.271 119.104 497.06 119.104C497.85 119.104 498.468 119.387 498.916 119.952C499.375 120.517 499.604 121.392 499.604 122.576C499.604 123.749 499.375 124.624 498.916 125.2C498.468 125.776 497.85 126.064 497.06 126.064ZM497.06 125.056C497.476 125.056 497.786 124.864 497.988 124.48C498.202 124.085 498.308 123.451 498.308 122.576C498.308 121.712 498.202 121.088 497.988 120.704C497.786 120.309 497.476 120.112 497.06 120.112C496.644 120.112 496.33 120.309 496.116 120.704C495.914 121.088 495.812 121.712 495.812 122.576C495.812 123.451 495.914 124.085 496.116 124.48C496.33 124.864 496.644 125.056 497.06 125.056Z" fill="#969EAC"/>
    <rect x="369" y="110" width="18" height="18" rx="2" fill="#1F32AD"/>
    <path d="M414.04 90.128C413.453 90.128 412.899 90.08 412.376 89.984C411.864 89.8773 411.384 89.7173 410.936 89.504C410.499 89.2907 410.104 89.024 409.752 88.704L410.296 87.584C410.861 88.0533 411.437 88.3893 412.024 88.592C412.611 88.7947 413.288 88.896 414.056 88.896C414.941 88.896 415.624 88.7253 416.104 88.384C416.584 88.0427 416.824 87.5627 416.824 86.944C416.824 86.5707 416.707 86.272 416.472 86.048C416.237 85.8133 415.907 85.6267 415.48 85.488C415.064 85.3387 414.584 85.2 414.04 85.072C413.464 84.9547 412.925 84.816 412.424 84.656C411.933 84.496 411.501 84.2987 411.128 84.064C410.755 83.8187 410.467 83.5147 410.264 83.152C410.061 82.7893 409.96 82.3413 409.96 81.808C409.96 81.1573 410.131 80.5813 410.472 80.08C410.824 79.5787 411.315 79.1893 411.944 78.912C412.573 78.624 413.315 78.48 414.168 78.48C414.691 78.48 415.192 78.5387 415.672 78.656C416.163 78.7627 416.616 78.9227 417.032 79.136C417.448 79.3387 417.811 79.5947 418.12 79.904L417.576 81.024C417.053 80.576 416.515 80.2453 415.96 80.032C415.405 79.8187 414.808 79.712 414.168 79.712C413.315 79.712 412.643 79.8933 412.152 80.256C411.672 80.608 411.432 81.104 411.432 81.744C411.432 82.1387 411.539 82.4587 411.752 82.704C411.965 82.9493 412.269 83.1467 412.664 83.296C413.059 83.4453 413.528 83.584 414.072 83.712C414.648 83.84 415.192 83.984 415.704 84.144C416.216 84.304 416.664 84.496 417.048 84.72C417.443 84.944 417.752 85.232 417.976 85.584C418.2 85.9253 418.312 86.3573 418.312 86.88C418.312 87.5413 418.141 88.1173 417.8 88.608C417.459 89.088 416.968 89.4613 416.328 89.728C415.688 89.9947 414.925 90.128 414.04 90.128ZM419.096 83.072V81.952H424.376V83.072H419.096ZM424.344 88.736V89.952C424.163 90.0053 423.976 90.0427 423.784 90.064C423.603 90.096 423.406 90.112 423.192 90.112C422.403 90.112 421.779 89.888 421.32 89.44C420.872 88.992 420.648 88.3307 420.648 87.456V79.904L422.104 79.392V87.296C422.104 87.712 422.163 88.0373 422.28 88.272C422.408 88.496 422.574 88.656 422.776 88.752C422.99 88.8373 423.23 88.88 423.496 88.88C423.646 88.88 423.784 88.8693 423.912 88.848C424.04 88.8267 424.184 88.7893 424.344 88.736ZM429.311 90.112C428.532 90.112 427.85 89.9413 427.263 89.6C426.687 89.2587 426.239 88.7787 425.919 88.16C425.599 87.5307 425.439 86.7893 425.439 85.936C425.439 85.0933 425.599 84.3573 425.919 83.728C426.239 83.088 426.687 82.5973 427.263 82.256C427.85 81.9147 428.532 81.744 429.311 81.744C430.1 81.744 430.783 81.9147 431.359 82.256C431.935 82.5973 432.383 83.088 432.703 83.728C433.023 84.3573 433.183 85.0933 433.183 85.936C433.183 86.7893 433.023 87.5307 432.703 88.16C432.383 88.7787 431.935 89.2587 431.359 89.6C430.783 89.9413 430.1 90.112 429.311 90.112ZM429.311 88.928C430.079 88.928 430.671 88.6773 431.087 88.176C431.503 87.664 431.711 86.9173 431.711 85.936C431.711 84.9653 431.498 84.224 431.071 83.712C430.655 83.2 430.068 82.944 429.311 82.944C428.564 82.944 427.978 83.2 427.551 83.712C427.124 84.224 426.911 84.9653 426.911 85.936C426.911 86.9173 427.119 87.664 427.535 88.176C427.951 88.6773 428.543 88.928 429.311 88.928ZM438.594 90.112C437.783 90.112 437.084 89.9413 436.498 89.6C435.922 89.2587 435.474 88.7787 435.154 88.16C434.834 87.5413 434.674 86.8107 434.674 85.968C434.674 85.136 434.834 84.4 435.154 83.76C435.484 83.12 435.948 82.624 436.546 82.272C437.143 81.92 437.847 81.744 438.658 81.744C439.212 81.744 439.746 81.84 440.258 82.032C440.77 82.2133 441.191 82.4693 441.522 82.8L441.058 83.856C440.674 83.5573 440.29 83.3333 439.906 83.184C439.532 83.024 439.143 82.944 438.738 82.944C437.959 82.944 437.335 83.2053 436.866 83.728C436.407 84.2507 436.178 84.9973 436.178 85.968C436.178 86.9173 436.407 87.648 436.866 88.16C437.324 88.672 437.954 88.928 438.754 88.928C439.138 88.928 439.522 88.8533 439.906 88.704C440.29 88.5547 440.674 88.3253 441.058 88.016L441.522 89.072C441.18 89.392 440.748 89.648 440.226 89.84C439.703 90.0213 439.159 90.112 438.594 90.112ZM448.547 90L444.275 85.888L448.243 81.968H450.067L445.651 86.272L445.715 85.424L450.419 90H448.547ZM443.107 90V78.224H444.563V90H443.107ZM454.109 90.112C452.733 90.112 451.64 89.7653 450.829 89.072L451.293 88.016C451.72 88.3467 452.162 88.592 452.621 88.752C453.09 88.9013 453.602 88.976 454.157 88.976C454.733 88.976 455.17 88.88 455.469 88.688C455.778 88.4853 455.933 88.1973 455.933 87.824C455.933 87.5253 455.826 87.2907 455.613 87.12C455.41 86.9387 455.069 86.7893 454.589 86.672L453.245 86.352C452.552 86.2027 452.018 85.936 451.645 85.552C451.282 85.168 451.101 84.704 451.101 84.16C451.101 83.6907 451.229 83.2747 451.485 82.912C451.752 82.5493 452.12 82.2667 452.589 82.064C453.058 81.8507 453.613 81.744 454.253 81.744C454.818 81.744 455.352 81.8347 455.853 82.016C456.365 82.1973 456.797 82.4587 457.149 82.8L456.685 83.84C456.301 83.52 455.906 83.2853 455.501 83.136C455.096 82.976 454.674 82.896 454.237 82.896C453.693 82.896 453.266 83.0027 452.957 83.216C452.658 83.4293 452.509 83.7173 452.509 84.08C452.509 84.3893 452.605 84.6347 452.797 84.816C452.989 84.9973 453.293 85.1413 453.709 85.248L455.069 85.584C455.837 85.744 456.402 86.0107 456.765 86.384C457.128 86.7467 457.309 87.216 457.309 87.792C457.309 88.496 457.021 89.0613 456.445 89.488C455.869 89.904 455.09 90.112 454.109 90.112ZM463.449 86.288V85.104H468.041V86.288H463.449ZM473.684 89.328V79.552L474.5 79.888L471.348 81.872V80.48L474.324 78.608H475.172V89.328H473.684ZM471.172 90V88.768H477.684V90H471.172ZM483.581 90.128C482.269 90.128 481.272 89.6373 480.589 88.656C479.907 87.664 479.565 86.2133 479.565 84.304C479.565 82.3947 479.901 80.9493 480.573 79.968C481.256 78.976 482.259 78.48 483.581 78.48C484.904 78.48 485.901 78.976 486.573 79.968C487.256 80.9493 487.597 82.3893 487.597 84.288C487.597 86.1973 487.256 87.648 486.573 88.64C485.891 89.632 484.893 90.128 483.581 90.128ZM483.581 88.912C484.445 88.912 485.08 88.5387 485.485 87.792C485.901 87.0453 486.109 85.8773 486.109 84.288C486.109 82.6987 485.901 81.5413 485.485 80.816C485.08 80.08 484.445 79.712 483.581 79.712C482.717 79.712 482.077 80.08 481.661 80.816C481.256 81.552 481.053 82.7093 481.053 84.288C481.053 85.8773 481.256 87.0453 481.661 87.792C482.077 88.5387 482.717 88.912 483.581 88.912ZM491.415 85.504C490.626 85.504 490.002 85.216 489.543 84.64C489.084 84.064 488.855 83.1893 488.855 82.016C488.855 80.832 489.084 79.9573 489.543 79.392C490.002 78.8267 490.626 78.544 491.415 78.544C492.204 78.544 492.823 78.8267 493.271 79.392C493.73 79.9573 493.959 80.832 493.959 82.016C493.959 83.1893 493.73 84.064 493.271 84.64C492.823 85.216 492.204 85.504 491.415 85.504ZM491.415 84.496C491.831 84.496 492.14 84.304 492.343 83.92C492.556 83.5253 492.663 82.8907 492.663 82.016C492.663 81.152 492.556 80.528 492.343 80.144C492.14 79.7493 491.831 79.552 491.415 79.552C490.999 79.552 490.684 79.7493 490.471 80.144C490.268 80.528 490.167 81.152 490.167 82.016C490.167 82.8907 490.268 83.5253 490.471 83.92C490.684 84.304 490.999 84.496 491.415 84.496ZM491.191 90L497.783 78.608H499.175L492.599 90H491.191ZM498.951 90.064C498.162 90.064 497.538 89.776 497.079 89.2C496.62 88.624 496.391 87.7493 496.391 86.576C496.391 85.392 496.62 84.5173 497.079 83.952C497.538 83.3867 498.162 83.104 498.951 83.104C499.74 83.104 500.359 83.3867 500.807 83.952C501.266 84.5173 501.495 85.392 501.495 86.576C501.495 87.7493 501.266 88.624 500.807 89.2C500.359 89.776 499.74 90.064 498.951 90.064ZM498.951 89.056C499.367 89.056 499.676 88.864 499.879 88.48C500.092 88.0853 500.199 87.4507 500.199 86.576C500.199 85.712 500.092 85.088 499.879 84.704C499.676 84.3093 499.367 84.112 498.951 84.112C498.535 84.112 498.22 84.3093 498.007 84.704C497.804 85.088 497.703 85.712 497.703 86.576C497.703 87.4507 497.804 88.0853 498.007 88.48C498.22 88.864 498.535 89.056 498.951 89.056Z" fill="#969EAC"/>
    <rect x="369.25" y="74" width="18" height="18" rx="2" fill="#235EE7"/>
    <path d="M154.5 0C127.38 -3.23408e-07 100.737 7.13887 77.25 20.6991C53.763 34.2593 34.2593 53.763 20.6991 77.25L74.2194 108.15C82.3556 94.0578 94.0578 82.3556 108.15 74.2194C122.242 66.0833 138.228 61.8 154.5 61.8V0Z" fill="#D3365F"/>
    <path d="M20.6991 77.25C7.13886 100.737 -4.09507e-06 127.38 0 154.5L61.8 154.5C61.8 138.228 66.0833 122.242 74.2194 108.15L20.6991 77.25Z" fill="#29CFD6"/>
    <path d="M0 154.5C-2.37094e-06 181.62 7.13886 208.263 20.6991 231.75C34.2593 255.237 53.763 274.741 77.25 288.301L108.15 234.781C94.0578 226.644 82.3556 214.942 74.2194 200.85C66.0833 186.758 61.8 170.772 61.8 154.5H0Z" fill="#FFBC02"/>
    <path d="M77.25 288.301C94.821 298.446 114.218 305.03 134.334 307.678C154.449 310.327 174.89 308.987 194.488 303.736C214.085 298.484 232.457 289.424 248.554 277.073C264.65 264.722 278.156 249.321 288.301 231.75L234.781 200.85C228.694 211.393 220.59 220.633 210.932 228.044C201.274 235.455 190.251 240.891 178.493 244.041C166.734 247.192 154.47 247.996 142.4 246.407C130.331 244.818 118.693 240.867 108.15 234.781L77.25 288.301Z" fill="#1F32AD"/>
    <path d="M288.301 231.75C301.861 208.263 309 181.62 309 154.5C309 127.38 301.861 100.737 288.301 77.25C274.741 53.763 255.237 34.2593 231.75 20.6991C208.263 7.13887 181.62 -1.18547e-06 154.5 0V61.8C170.772 61.8 186.758 66.0833 200.85 74.2194C214.942 82.3556 226.644 94.0578 234.781 108.15C242.917 122.242 247.2 138.228 247.2 154.5C247.2 170.772 242.917 186.758 234.781 200.85L288.301 231.75Z" fill="#235EE7"/>
</svg>
