<svg width="48" height="48" viewBox="0 0 48 48" fill="none"
    xmlns="http://www.w3.org/2000/svg">
    <rect width="48" height="48" rx="24" fill="#0378EC"/>
    <path d="M25.8462 27.4615V35.8589C31.5971 34.9708 36 29.9996 36 24C36 17.3726 30.6274 12 24 12C17.3726 12 12 17.3726 12 24C12 29.9996 16.4029 34.9709 22.1539 35.8589V27.4615H19.8462C19.5913 27.4615 19.3847 27.2549 19.3847 27V24.2308C19.3847 23.9759 19.5913 23.7692 19.8462 23.7692H22.1539V22.7908C22.1539 19.89 24.5054 17.5384 27.4062 17.5384H29.077C29.3319 17.5384 29.5385 17.7451 29.5385 18V20.7692C29.5385 21.0241 29.3319 21.2308 29.077 21.2308H27.4062C26.9925 21.2308 26.5957 21.3951 26.3031 21.6877C26.0106 21.9802 25.8462 22.377 25.8462 22.7908V23.7692H28.5601C28.6927 23.7683 28.8193 23.8244 28.9077 23.9234C28.996 24.0223 29.0375 24.1545 29.0216 24.2861L28.6708 27.0554C28.6427 27.2884 28.444 27.4632 28.2093 27.4615H25.8462Z" stroke="white" stroke-width="1.5" stroke-linecap="round" stroke-linejoin="round"/>
</svg>
