<svg width="24" height="25" viewBox="0 0 24 25" fill="none"
  xmlns="http://www.w3.org/2000/svg">
  <path d="M1.27995 13.4813L0.749294 14.0113L0.749644 14.0117L1.27995 13.4813ZM1.27995 10.9203L0.749643 10.3899L0.749294 10.3903L1.27995 10.9203ZM10.7199 1.4813L11.2502 2.01166L11.2509 2.01099L10.7199 1.4813ZM13.2799 1.4813L12.749 2.01099L12.7496 2.01166L13.2799 1.4813ZM22.7199 10.9203L23.2506 10.3903L23.2502 10.3899L22.7199 10.9203ZM22.7199 13.4813L23.2502 14.0117L23.2506 14.0113L22.7199 13.4813ZM13.2799 22.9203L13.81 23.4509L13.8102 23.4507L13.2799 22.9203ZM10.7199 22.9203L10.1896 23.4507L10.1899 23.4509L10.7199 22.9203ZM1.8106 12.9513C1.39647 12.5367 1.39647 11.8649 1.8106 11.4503L0.749294 10.3903C-0.249765 11.3906 -0.249765 13.011 0.749294 14.0113L1.8106 12.9513ZM1.81025 11.4507L11.2502 2.01166L10.1896 0.950941L0.749643 10.3899L1.81025 11.4507ZM11.2509 2.01099C11.4494 1.81202 11.7189 1.7002 11.9999 1.7002V0.200195C11.3204 0.200195 10.6689 0.470551 10.189 0.951613L11.2509 2.01099ZM11.9999 1.7002C12.281 1.7002 12.5505 1.81202 12.749 2.01099L13.8109 0.951613C13.331 0.470551 12.6794 0.200195 11.9999 0.200195V1.7002ZM12.7496 2.01166L22.1896 11.4507L23.2502 10.3899L13.8102 0.950941L12.7496 2.01166ZM22.1893 11.4503C22.6034 11.8649 22.6034 12.5367 22.1893 12.9513L23.2506 14.0113C24.2497 13.011 24.2497 11.3906 23.2506 10.3903L22.1893 11.4503ZM22.1896 12.9509L12.7496 22.3899L13.8102 23.4507L23.2502 14.0117L22.1896 12.9509ZM12.7499 22.3897C12.3356 22.8036 11.6643 22.8036 11.25 22.3897L10.1899 23.4509C11.1898 24.4499 12.8101 24.4499 13.81 23.4509L12.7499 22.3897ZM11.2502 22.3899L1.81025 12.9509L0.749644 14.0117L10.1896 23.4507L11.2502 22.3899Z" fill="#10C273"/>
  <path d="M7.19922 12.3L10.5592 15.6L16.7992 9" stroke="#10C273" stroke-width="1.5" stroke-linecap="round" stroke-linejoin="round"/>
</svg>