<svg width="628" height="533" viewBox="0 0 628 533" fill="none" xmlns="http://www.w3.org/2000/svg">
  <g filter="url(#filter0_di)">
    <rect x="8" y="6" width="429" height="517" rx="6" fill="white"/>
  </g>
  <path d="M222.5 154C195.38 154 168.737 161.139 145.25 174.699C121.763 188.259 102.259 207.763 88.6991 231.25L142.219 262.15C150.356 248.058 162.058 236.356 176.15 228.219C190.242 220.083 206.228 215.8 222.5 215.8V154Z" fill="#D3365F"/>
  <path d="M88.6991 231.25C75.1389 254.737 68 281.38 68 308.5L129.8 308.5C129.8 292.228 134.083 276.242 142.219 262.15L88.6991 231.25Z" fill="#29CFD6"/>
  <path d="M68 308.5C68 335.62 75.1389 362.263 88.6991 385.75C102.259 409.237 121.763 428.741 145.25 442.301L176.15 388.781C162.058 380.644 150.356 368.942 142.219 354.85C134.083 340.758 129.8 324.772 129.8 308.5H68Z" fill="#FFBC02"/>
  <path d="M145.25 442.301C162.821 452.446 182.218 459.03 202.334 461.678C222.449 464.327 242.89 462.987 262.488 457.736C282.085 452.484 300.457 443.424 316.554 431.073C332.65 418.722 346.156 403.321 356.301 385.75L302.781 354.85C296.694 365.393 288.59 374.633 278.932 382.044C269.274 389.455 258.251 394.891 246.493 398.041C234.734 401.192 222.47 401.996 210.4 400.407C198.331 398.818 186.693 394.867 176.15 388.781L145.25 442.301Z" fill="#1F32AD"/>
  <path d="M356.301 385.75C369.861 362.263 377 335.62 377 308.5C377 281.38 369.861 254.737 356.301 231.25C342.741 207.763 323.237 188.259 299.75 174.699C276.263 161.139 249.62 154 222.5 154V215.8C238.772 215.8 254.758 220.083 268.85 228.219C282.942 236.356 294.644 248.058 302.781 262.15C310.917 276.242 315.2 292.228 315.2 308.5C315.2 324.772 310.917 340.758 302.781 354.85L356.301 385.75Z" fill="#235EE7"/>
  <path d="M132.66 109V94.76H138.56C140.067 94.76 141.233 95.12 142.06 95.84C142.9 96.56 143.32 97.5533 143.32 98.82C143.32 100.06 142.9 101.047 142.06 101.78C141.22 102.513 140.053 102.88 138.56 102.88H134.72V109H132.66ZM134.72 101.24H138.36C139.347 101.24 140.087 101.033 140.58 100.62C141.073 100.193 141.32 99.5933 141.32 98.82C141.32 98.0467 141.073 97.4533 140.58 97.04C140.087 96.6267 139.347 96.42 138.36 96.42H134.72V101.24ZM145.429 109V101.76C145.429 101.293 145.415 100.82 145.389 100.34C145.375 99.86 145.335 99.3867 145.269 98.92H147.189L147.429 101.46L147.189 101.36C147.362 100.48 147.755 99.8133 148.369 99.36C148.995 98.9067 149.695 98.68 150.469 98.68C150.655 98.68 150.829 98.6933 150.989 98.72C151.149 98.7467 151.295 98.78 151.429 98.82L151.389 100.66C151.029 100.527 150.635 100.46 150.209 100.46C149.555 100.46 149.029 100.6 148.629 100.88C148.229 101.147 147.929 101.507 147.729 101.96C147.542 102.4 147.449 102.873 147.449 103.38V109H145.429ZM161.193 107.84C160.74 108.24 160.166 108.56 159.473 108.8C158.78 109.027 158.073 109.14 157.353 109.14C156.286 109.14 155.366 108.933 154.593 108.52C153.82 108.107 153.226 107.507 152.813 106.72C152.4 105.933 152.193 105 152.193 103.92C152.193 102.88 152.393 101.967 152.793 101.18C153.206 100.393 153.773 99.78 154.493 99.34C155.213 98.9 156.046 98.68 156.993 98.68C157.9 98.68 158.68 98.88 159.333 99.28C159.986 99.68 160.486 100.253 160.833 101C161.193 101.733 161.373 102.62 161.373 103.66V104H153.953L153.973 102.8H160.193L159.613 103.52C159.626 102.44 159.413 101.613 158.973 101.04C158.533 100.467 157.886 100.18 157.033 100.18C156.14 100.18 155.44 100.5 154.933 101.14C154.426 101.767 154.173 102.647 154.173 103.78C154.173 105.047 154.446 105.993 154.993 106.62C155.54 107.233 156.34 107.54 157.393 107.54C157.966 107.54 158.52 107.447 159.053 107.26C159.586 107.073 160.093 106.787 160.573 106.4L161.193 107.84ZM166.514 109L162.194 98.94H164.294L167.734 107.36H167.214L170.694 98.94H172.714L168.334 109H166.514ZM174.276 109V98.92H176.296V109H174.276ZM174.136 94.52H176.476V96.64H174.136V94.52ZM183.597 109.14C182.597 109.14 181.724 108.927 180.977 108.5C180.244 108.073 179.677 107.473 179.277 106.7C178.877 105.913 178.677 104.98 178.677 103.9C178.677 102.847 178.877 101.927 179.277 101.14C179.677 100.353 180.244 99.7467 180.977 99.32C181.724 98.8933 182.597 98.68 183.597 98.68C184.584 98.68 185.444 98.8933 186.177 99.32C186.924 99.7467 187.497 100.353 187.897 101.14C188.311 101.927 188.517 102.847 188.517 103.9C188.517 104.98 188.311 105.913 187.897 106.7C187.497 107.473 186.924 108.073 186.177 108.5C185.444 108.927 184.584 109.14 183.597 109.14ZM183.597 107.54C184.504 107.54 185.204 107.233 185.697 106.62C186.204 106.007 186.457 105.1 186.457 103.9C186.457 102.74 186.204 101.853 185.697 101.24C185.204 100.613 184.504 100.3 183.597 100.3C182.691 100.3 181.977 100.613 181.457 101.24C180.951 101.853 180.697 102.74 180.697 103.9C180.697 105.1 180.944 106.007 181.437 106.62C181.944 107.233 182.664 107.54 183.597 107.54ZM194.458 109.14C193.245 109.14 192.332 108.807 191.718 108.14C191.105 107.46 190.798 106.447 190.798 105.1V98.92H192.818V105.08C192.818 105.907 192.985 106.52 193.318 106.92C193.665 107.307 194.192 107.5 194.898 107.5C195.712 107.5 196.365 107.233 196.858 106.7C197.365 106.167 197.618 105.46 197.618 104.58V98.92H199.638V109H197.678V106.86L197.918 106.78C197.638 107.553 197.192 108.14 196.578 108.54C195.965 108.94 195.258 109.14 194.458 109.14ZM206.098 109.14C204.338 109.14 202.944 108.713 201.918 107.86L202.538 106.4C203.071 106.813 203.631 107.12 204.218 107.32C204.818 107.507 205.464 107.6 206.158 107.6C206.851 107.6 207.378 107.487 207.738 107.26C208.098 107.02 208.278 106.687 208.278 106.26C208.278 105.9 208.151 105.62 207.898 105.42C207.658 105.207 207.244 105.027 206.658 104.88L204.958 104.48C204.078 104.293 203.404 103.967 202.938 103.5C202.484 103.02 202.258 102.427 202.258 101.72C202.258 101.12 202.424 100.593 202.758 100.14C203.091 99.6867 203.558 99.3333 204.158 99.08C204.758 98.8133 205.458 98.68 206.258 98.68C206.978 98.68 207.658 98.7933 208.298 99.02C208.938 99.2333 209.491 99.5533 209.958 99.98L209.338 101.4C208.844 101.013 208.338 100.727 207.818 100.54C207.311 100.34 206.791 100.24 206.258 100.24C205.604 100.24 205.098 100.367 204.738 100.62C204.378 100.86 204.198 101.2 204.198 101.64C204.198 102 204.304 102.287 204.518 102.5C204.744 102.7 205.118 102.86 205.638 102.98L207.338 103.4C208.311 103.613 209.024 103.953 209.478 104.42C209.931 104.887 210.158 105.487 210.158 106.22C210.158 107.113 209.791 107.827 209.058 108.36C208.338 108.88 207.351 109.14 206.098 109.14ZM221.751 109.14C220.857 109.14 220.071 108.933 219.391 108.52C218.724 108.093 218.204 107.493 217.831 106.72C217.471 105.933 217.291 105.013 217.291 103.96C217.291 102.907 217.477 101.987 217.851 101.2C218.224 100.4 218.744 99.78 219.411 99.34C220.091 98.9 220.871 98.68 221.751 98.68C222.644 98.68 223.404 98.9 224.031 99.34C224.671 99.7667 225.104 100.38 225.331 101.18L225.091 101.34V98.92H227.091V109H225.091V106.54L225.331 106.64C225.104 107.44 224.671 108.06 224.031 108.5C223.404 108.927 222.644 109.14 221.751 109.14ZM222.231 107.54C223.137 107.54 223.837 107.227 224.331 106.6C224.837 105.973 225.091 105.08 225.091 103.92C225.091 102.76 224.837 101.867 224.331 101.24C223.837 100.613 223.137 100.3 222.231 100.3C221.311 100.3 220.591 100.627 220.071 101.28C219.564 101.92 219.311 102.813 219.311 103.96C219.311 105.107 219.564 105.993 220.071 106.62C220.591 107.233 221.311 107.54 222.231 107.54ZM230.038 109V94.28H232.058V109H230.038ZM234.999 109V94.28H237.019V109H234.999ZM244.32 109.14C243.32 109.14 242.447 108.927 241.7 108.5C240.967 108.073 240.4 107.473 240 106.7C239.6 105.913 239.4 104.98 239.4 103.9C239.4 102.847 239.6 101.927 240 101.14C240.4 100.353 240.967 99.7467 241.7 99.32C242.447 98.8933 243.32 98.68 244.32 98.68C245.307 98.68 246.167 98.8933 246.9 99.32C247.647 99.7467 248.22 100.353 248.62 101.14C249.033 101.927 249.24 102.847 249.24 103.9C249.24 104.98 249.033 105.913 248.62 106.7C248.22 107.473 247.647 108.073 246.9 108.5C246.167 108.927 245.307 109.14 244.32 109.14ZM244.32 107.54C245.227 107.54 245.927 107.233 246.42 106.62C246.927 106.007 247.18 105.1 247.18 103.9C247.18 102.74 246.927 101.853 246.42 101.24C245.927 100.613 245.227 100.3 244.32 100.3C243.413 100.3 242.7 100.613 242.18 101.24C241.673 101.853 241.42 102.74 241.42 103.9C241.42 105.1 241.667 106.007 242.16 106.62C242.667 107.233 243.387 107.54 244.32 107.54ZM255.961 109.14C254.948 109.14 254.068 108.927 253.321 108.5C252.588 108.073 252.021 107.473 251.621 106.7C251.221 105.927 251.021 105.013 251.021 103.96C251.021 102.907 251.228 101.987 251.641 101.2C252.054 100.4 252.634 99.78 253.381 99.34C254.141 98.9 255.034 98.68 256.061 98.68C256.754 98.68 257.428 98.7933 258.081 99.02C258.734 99.2467 259.268 99.5667 259.681 99.98L259.061 101.44C258.594 101.067 258.121 100.787 257.641 100.6C257.174 100.413 256.694 100.32 256.201 100.32C255.241 100.32 254.481 100.633 253.921 101.26C253.374 101.887 253.101 102.78 253.101 103.94C253.101 105.1 253.374 105.987 253.921 106.6C254.468 107.213 255.228 107.52 256.201 107.52C256.681 107.52 257.161 107.427 257.641 107.24C258.121 107.053 258.594 106.773 259.061 106.4L259.681 107.86C259.254 108.26 258.708 108.573 258.041 108.8C257.374 109.027 256.681 109.14 255.961 109.14ZM265.462 109.14C264.568 109.14 263.782 108.933 263.102 108.52C262.435 108.093 261.915 107.493 261.542 106.72C261.182 105.933 261.002 105.013 261.002 103.96C261.002 102.907 261.188 101.987 261.562 101.2C261.935 100.4 262.455 99.78 263.122 99.34C263.802 98.9 264.582 98.68 265.462 98.68C266.355 98.68 267.115 98.9 267.742 99.34C268.382 99.7667 268.815 100.38 269.042 101.18L268.802 101.34V98.92H270.802V109H268.802V106.54L269.042 106.64C268.815 107.44 268.382 108.06 267.742 108.5C267.115 108.927 266.355 109.14 265.462 109.14ZM265.942 107.54C266.848 107.54 267.548 107.227 268.042 106.6C268.548 105.973 268.802 105.08 268.802 103.92C268.802 102.76 268.548 101.867 268.042 101.24C267.548 100.613 266.848 100.3 265.942 100.3C265.022 100.3 264.302 100.627 263.782 101.28C263.275 101.92 263.022 102.813 263.022 103.96C263.022 105.107 263.275 105.993 263.782 106.62C264.302 107.233 265.022 107.54 265.942 107.54ZM272.409 100.48V98.92H279.169V100.48H272.409ZM279.149 107.28V108.92C278.909 109 278.669 109.053 278.429 109.08C278.189 109.12 277.929 109.14 277.649 109.14C276.622 109.14 275.816 108.853 275.229 108.28C274.656 107.693 274.369 106.833 274.369 105.7V96.4L276.389 95.7V105.54C276.389 106.033 276.462 106.42 276.609 106.7C276.756 106.967 276.956 107.16 277.209 107.28C277.476 107.387 277.769 107.44 278.089 107.44C278.276 107.44 278.449 107.427 278.609 107.4C278.769 107.373 278.949 107.333 279.149 107.28ZM281.015 109V98.92H283.035V109H281.015ZM280.875 94.52H283.215V96.64H280.875V94.52ZM290.336 109.14C289.336 109.14 288.462 108.927 287.716 108.5C286.982 108.073 286.416 107.473 286.016 106.7C285.616 105.913 285.416 104.98 285.416 103.9C285.416 102.847 285.616 101.927 286.016 101.14C286.416 100.353 286.982 99.7467 287.716 99.32C288.462 98.8933 289.336 98.68 290.336 98.68C291.322 98.68 292.182 98.8933 292.916 99.32C293.662 99.7467 294.236 100.353 294.636 101.14C295.049 101.927 295.256 102.847 295.256 103.9C295.256 104.98 295.049 105.913 294.636 106.7C294.236 107.473 293.662 108.073 292.916 108.5C292.182 108.927 291.322 109.14 290.336 109.14ZM290.336 107.54C291.242 107.54 291.942 107.233 292.436 106.62C292.942 106.007 293.196 105.1 293.196 103.9C293.196 102.74 292.942 101.853 292.436 101.24C291.942 100.613 291.242 100.3 290.336 100.3C289.429 100.3 288.716 100.613 288.196 101.24C287.689 101.853 287.436 102.74 287.436 103.9C287.436 105.1 287.682 106.007 288.176 106.62C288.682 107.233 289.402 107.54 290.336 107.54ZM297.597 109V101.76C297.597 101.293 297.583 100.82 297.557 100.34C297.543 99.86 297.503 99.3867 297.437 98.92H299.357L299.537 100.96L299.337 101.08C299.63 100.293 300.097 99.7 300.737 99.3C301.39 98.8867 302.137 98.68 302.977 98.68C305.39 98.68 306.597 100.033 306.597 102.74V109H304.577V102.82C304.577 101.953 304.403 101.32 304.057 100.92C303.71 100.52 303.177 100.32 302.457 100.32C301.59 100.32 300.897 100.587 300.377 101.12C299.87 101.653 299.617 102.367 299.617 103.26V109H297.597ZM312.992 109.14C311.232 109.14 309.839 108.713 308.812 107.86L309.432 106.4C309.966 106.813 310.526 107.12 311.112 107.32C311.712 107.507 312.359 107.6 313.052 107.6C313.746 107.6 314.272 107.487 314.632 107.26C314.992 107.02 315.172 106.687 315.172 106.26C315.172 105.9 315.046 105.62 314.792 105.42C314.552 105.207 314.139 105.027 313.552 104.88L311.852 104.48C310.972 104.293 310.299 103.967 309.832 103.5C309.379 103.02 309.152 102.427 309.152 101.72C309.152 101.12 309.319 100.593 309.652 100.14C309.986 99.6867 310.452 99.3333 311.052 99.08C311.652 98.8133 312.352 98.68 313.152 98.68C313.872 98.68 314.552 98.7933 315.192 99.02C315.832 99.2333 316.386 99.5533 316.852 99.98L316.232 101.4C315.739 101.013 315.232 100.727 314.712 100.54C314.206 100.34 313.686 100.24 313.152 100.24C312.499 100.24 311.992 100.367 311.632 100.62C311.272 100.86 311.092 101.2 311.092 101.64C311.092 102 311.199 102.287 311.412 102.5C311.639 102.7 312.012 102.86 312.532 102.98L314.232 103.4C315.206 103.613 315.919 103.953 316.372 104.42C316.826 104.887 317.052 105.487 317.052 106.22C317.052 107.113 316.686 107.827 315.952 108.36C315.232 108.88 314.246 109.14 312.992 109.14Z" fill="#434A55"/>
  <path d="M347.752 140.75H370.252M353.752 137V131.75M364.252 137V131.75M349.252 154.25H368.752C369.58 154.25 370.252 153.578 370.252 152.75V136.25C370.252 135.422 369.58 134.75 368.752 134.75H349.252C348.424 134.75 347.752 135.422 347.752 136.25V152.75C347.752 153.578 348.424 154.25 349.252 154.25Z" stroke="#534CEA" stroke-width="1.5" stroke-linecap="round" stroke-linejoin="round"/>
  <path d="M327 68L331.5 63.5L327 59" stroke="black" stroke-width="1.5" stroke-linejoin="round"/>
  <path d="M130.86 78.984V76.996C132.017 77.2013 132.932 77.248 133.604 77.136C134.276 77.0427 134.752 76.716 135.032 76.156C135.312 75.6147 135.452 74.7933 135.452 73.692V54.064H137.748V73.72C137.748 75.2693 137.524 76.4733 137.076 77.332C136.628 78.2093 135.9 78.7693 134.892 79.012C133.884 79.2733 132.54 79.264 130.86 78.984ZM147.383 74.196C145.703 74.196 144.434 73.7293 143.575 72.796C142.735 71.8627 142.315 70.4813 142.315 68.652V59.916H144.583V68.596C144.583 69.8653 144.844 70.7987 145.367 71.396C145.89 71.9933 146.683 72.292 147.747 72.292C148.998 72.292 150.006 71.8907 150.771 71.088C151.536 70.2853 151.919 69.212 151.919 67.868V59.916H154.187V74H151.975V70.948L152.311 70.78C151.938 71.9 151.303 72.7493 150.407 73.328C149.53 73.9067 148.522 74.196 147.383 74.196ZM158.559 74V63.864C158.559 63.2107 158.54 62.5573 158.503 61.904C158.484 61.232 158.428 60.5693 158.335 59.916H160.491L160.743 62.828L160.463 63.052C160.855 61.9133 161.508 61.0547 162.423 60.476C163.338 59.8787 164.392 59.58 165.587 59.58C168.966 59.58 170.655 61.4373 170.655 65.152V74H168.387V65.264C168.387 63.9573 168.126 63.0053 167.603 62.408C167.08 61.792 166.259 61.484 165.139 61.484C163.832 61.484 162.787 61.8853 162.003 62.688C161.219 63.4907 160.827 64.5733 160.827 65.936V74H158.559ZM186.474 72.32C185.858 72.8987 185.065 73.356 184.094 73.692C183.142 74.028 182.162 74.196 181.154 74.196C179.698 74.196 178.438 73.9067 177.374 73.328C176.329 72.7493 175.517 71.9187 174.938 70.836C174.378 69.7347 174.098 68.428 174.098 66.916C174.098 65.46 174.378 64.1813 174.938 63.08C175.498 61.9787 176.273 61.12 177.262 60.504C178.27 59.888 179.427 59.58 180.734 59.58C181.985 59.58 183.058 59.86 183.954 60.42C184.85 60.9613 185.531 61.7453 185.998 62.772C186.483 63.7987 186.726 65.0307 186.726 66.468V66.888H176.086V65.404H185.438L184.71 66.44C184.747 64.7973 184.421 63.5373 183.73 62.66C183.058 61.7827 182.069 61.344 180.762 61.344C179.399 61.344 178.326 61.8293 177.542 62.8C176.777 63.752 176.394 65.0773 176.394 66.776C176.394 68.6053 176.795 69.9867 177.598 70.92C178.419 71.8533 179.614 72.32 181.182 72.32C182.003 72.32 182.787 72.1893 183.534 71.928C184.299 71.648 185.027 71.228 185.718 70.668L186.474 72.32ZM203.489 74.196C202.201 74.196 200.96 73.9813 199.765 73.552C198.589 73.1227 197.59 72.516 196.769 71.732L197.665 69.968C198.561 70.7333 199.485 71.312 200.437 71.704C201.389 72.0773 202.388 72.264 203.433 72.264C204.852 72.264 205.925 71.9467 206.653 71.312C207.4 70.6773 207.773 69.744 207.773 68.512C207.773 67.28 207.39 66.3653 206.625 65.768C205.86 65.152 204.712 64.844 203.181 64.844H200.885V62.912H202.733C204.208 62.912 205.337 62.5853 206.121 61.932C206.905 61.2787 207.297 60.3453 207.297 59.132C207.297 58.0493 206.97 57.2187 206.317 56.64C205.682 56.0613 204.777 55.772 203.601 55.772C202.612 55.772 201.65 55.968 200.717 56.36C199.784 56.7333 198.86 57.3027 197.945 58.068L197.077 56.304C197.88 55.5387 198.869 54.9413 200.045 54.512C201.221 54.064 202.434 53.84 203.685 53.84C204.88 53.84 205.925 54.0547 206.821 54.484C207.717 54.8947 208.398 55.4827 208.865 56.248C209.35 57.0133 209.593 57.9187 209.593 58.964C209.593 60.196 209.266 61.2507 208.613 62.128C207.978 62.9867 207.101 63.5747 205.981 63.892L205.897 63.612C207.241 63.892 208.268 64.4613 208.977 65.32C209.686 66.1787 210.041 67.2707 210.041 68.596C210.041 70.332 209.453 71.704 208.277 72.712C207.101 73.7013 205.505 74.196 203.489 74.196ZM220.474 74.224C218.197 74.224 216.461 73.3653 215.266 71.648C214.09 69.912 213.502 67.3733 213.502 64.032C213.502 60.6907 214.09 58.1613 215.266 56.444C216.442 54.708 218.178 53.84 220.474 53.84C222.77 53.84 224.506 54.708 225.682 56.444C226.858 58.1613 227.446 60.6813 227.446 64.004C227.446 67.3453 226.849 69.884 225.654 71.62C224.478 73.356 222.752 74.224 220.474 74.224ZM220.474 72.292C222.061 72.292 223.228 71.62 223.974 70.276C224.74 68.932 225.122 66.8413 225.122 64.004C225.122 61.1667 224.74 59.0947 223.974 57.788C223.228 56.4627 222.061 55.8 220.474 55.8C218.888 55.8 217.712 56.4627 216.946 57.788C216.2 59.1133 215.826 61.1853 215.826 64.004C215.826 66.8413 216.2 68.932 216.946 70.276C217.712 71.62 218.888 72.292 220.474 72.292ZM231.831 77.22L230.767 76.408C231.271 75.8667 231.607 75.372 231.775 74.924C231.943 74.476 232.027 74.0187 232.027 73.552L232.699 74H230.655V71.116H233.539V73.16C233.539 73.9067 233.409 74.6067 233.147 75.26C232.905 75.932 232.466 76.5853 231.831 77.22ZM244.969 74V72.264L251.941 64.536C252.874 63.4907 253.555 62.548 253.985 61.708C254.414 60.868 254.629 60.028 254.629 59.188C254.629 58.0867 254.311 57.2467 253.677 56.668C253.042 56.0707 252.137 55.772 250.961 55.772C249.99 55.772 249.038 55.968 248.105 56.36C247.171 56.7333 246.238 57.3027 245.305 58.068L244.437 56.304C245.221 55.5573 246.21 54.96 247.405 54.512C248.599 54.064 249.803 53.84 251.017 53.84C252.23 53.84 253.275 54.0547 254.153 54.484C255.049 54.8947 255.739 55.492 256.225 56.276C256.71 57.06 256.953 57.9933 256.953 59.076C256.953 60.2147 256.691 61.316 256.169 62.38C255.665 63.4253 254.815 64.6013 253.621 65.908L246.901 73.188L246.733 72.068H257.793V74H244.969ZM267.834 74.224C265.556 74.224 263.82 73.3653 262.626 71.648C261.45 69.912 260.862 67.3733 260.862 64.032C260.862 60.6907 261.45 58.1613 262.626 56.444C263.802 54.708 265.538 53.84 267.834 53.84C270.13 53.84 271.866 54.708 273.042 56.444C274.218 58.1613 274.806 60.6813 274.806 64.004C274.806 67.3453 274.208 69.884 273.014 71.62C271.838 73.356 270.111 74.224 267.834 74.224ZM267.834 72.292C269.42 72.292 270.587 71.62 271.334 70.276C272.099 68.932 272.482 66.8413 272.482 64.004C272.482 61.1667 272.099 59.0947 271.334 57.788C270.587 56.4627 269.42 55.8 267.834 55.8C266.247 55.8 265.071 56.4627 264.306 57.788C263.559 59.1133 263.186 61.1853 263.186 64.004C263.186 66.8413 263.559 68.932 264.306 70.276C265.071 71.62 266.247 72.292 267.834 72.292ZM278.547 74V72.264L285.519 64.536C286.452 63.4907 287.133 62.548 287.563 61.708C287.992 60.868 288.207 60.028 288.207 59.188C288.207 58.0867 287.889 57.2467 287.255 56.668C286.62 56.0707 285.715 55.772 284.539 55.772C283.568 55.772 282.616 55.968 281.683 56.36C280.749 56.7333 279.816 57.3027 278.883 58.068L278.015 56.304C278.799 55.5573 279.788 54.96 280.983 54.512C282.177 54.064 283.381 53.84 284.595 53.84C285.808 53.84 286.853 54.0547 287.731 54.484C288.627 54.8947 289.317 55.492 289.803 56.276C290.288 57.06 290.531 57.9933 290.531 59.076C290.531 60.2147 290.269 61.316 289.747 62.38C289.243 63.4253 288.393 64.6013 287.199 65.908L280.479 73.188L280.311 72.068H291.371V74H278.547ZM301.412 74.224C299.134 74.224 297.398 73.3653 296.204 71.648C295.028 69.912 294.44 67.3733 294.44 64.032C294.44 60.6907 295.028 58.1613 296.204 56.444C297.38 54.708 299.116 53.84 301.412 53.84C303.708 53.84 305.444 54.708 306.62 56.444C307.796 58.1613 308.384 60.6813 308.384 64.004C308.384 67.3453 307.786 69.884 306.592 71.62C305.416 73.356 303.689 74.224 301.412 74.224ZM301.412 72.292C302.998 72.292 304.165 71.62 304.912 70.276C305.677 68.932 306.06 66.8413 306.06 64.004C306.06 61.1667 305.677 59.0947 304.912 57.788C304.165 56.4627 302.998 55.8 301.412 55.8C299.825 55.8 298.649 56.4627 297.884 57.788C297.137 59.1133 296.764 61.1853 296.764 64.004C296.764 66.8413 297.137 68.932 297.884 70.276C298.649 71.62 299.825 72.292 301.412 72.292Z" fill="black"/>
  <path d="M118 68L113.5 63.5L118 59" stroke="black" stroke-width="1.5" stroke-linejoin="round"/>
  <g filter="url(#filter1_d)">
    <path d="M353.644 176.548L358.125 172.303C358.896 171.572 360.104 171.572 360.875 172.303L365.356 176.548C366.669 177.792 365.789 180 363.981 180L355.019 180C353.211 180 352.331 177.792 353.644 176.548Z" fill="#081833"/>
  </g>
  <g filter="url(#filter2_d)">
    <rect x="338" y="176" width="262" height="269" rx="6" fill="#081833"/>
  </g>
  <rect x="524" y="290" width="65" height="35" rx="3" fill="#534CEA"/>
  <path opacity="0.5" d="M543.328 401V389.608H547.328C548.555 389.608 549.6 389.832 550.464 390.28C551.328 390.717 551.984 391.363 552.432 392.216C552.891 393.059 553.12 394.083 553.12 395.288C553.12 396.504 552.891 397.539 552.432 398.392C551.973 399.235 551.312 399.88 550.448 400.328C549.584 400.776 548.544 401 547.328 401H543.328ZM544.976 399.624H547.216C548.613 399.624 549.664 399.261 550.368 398.536C551.072 397.811 551.424 396.728 551.424 395.288C551.424 392.419 550.021 390.984 547.216 390.984H544.976V399.624ZM561.967 400.072C561.604 400.392 561.146 400.648 560.591 400.84C560.036 401.021 559.471 401.112 558.895 401.112C558.042 401.112 557.306 400.947 556.687 400.616C556.068 400.285 555.594 399.805 555.263 399.176C554.932 398.547 554.767 397.8 554.767 396.936C554.767 396.104 554.927 395.373 555.247 394.744C555.578 394.115 556.031 393.624 556.607 393.272C557.183 392.92 557.85 392.744 558.607 392.744C559.332 392.744 559.956 392.904 560.479 393.224C561.002 393.544 561.402 394.003 561.679 394.6C561.967 395.187 562.111 395.896 562.111 396.728V397H556.175L556.191 396.04H561.167L560.703 396.616C560.714 395.752 560.543 395.091 560.191 394.632C559.839 394.173 559.322 393.944 558.639 393.944C557.924 393.944 557.364 394.2 556.959 394.712C556.554 395.213 556.351 395.917 556.351 396.824C556.351 397.837 556.57 398.595 557.007 399.096C557.444 399.587 558.084 399.832 558.927 399.832C559.386 399.832 559.828 399.757 560.255 399.608C560.682 399.459 561.087 399.229 561.471 398.92L561.967 400.072ZM567.453 401.112C566.643 401.112 565.939 400.941 565.341 400.6C564.755 400.259 564.301 399.779 563.981 399.16C563.661 398.541 563.501 397.811 563.501 396.968C563.501 396.125 563.667 395.389 563.997 394.76C564.328 394.12 564.792 393.624 565.389 393.272C565.997 392.92 566.712 392.744 567.533 392.744C568.088 392.744 568.627 392.835 569.149 393.016C569.672 393.197 570.099 393.453 570.429 393.784L569.933 394.952C569.56 394.653 569.181 394.429 568.797 394.28C568.424 394.131 568.04 394.056 567.645 394.056C566.877 394.056 566.269 394.307 565.821 394.808C565.384 395.309 565.165 396.024 565.165 396.952C565.165 397.88 565.384 398.589 565.821 399.08C566.259 399.571 566.867 399.816 567.645 399.816C568.029 399.816 568.413 399.741 568.797 399.592C569.181 399.443 569.56 399.219 569.933 398.92L570.429 400.088C570.088 400.408 569.651 400.659 569.117 400.84C568.584 401.021 568.029 401.112 567.453 401.112Z" fill="#969EAC"/>
  <path opacity="0.5" d="M456.328 401V389.608H457.576L464.52 398.76L464.12 398.92V389.608H465.672V401H464.408L457.496 391.864L457.88 391.688V401H456.328ZM471.656 401.112C470.856 401.112 470.157 400.941 469.56 400.6C468.973 400.259 468.52 399.779 468.2 399.16C467.88 398.531 467.72 397.784 467.72 396.92C467.72 396.077 467.88 395.341 468.2 394.712C468.52 394.083 468.973 393.597 469.56 393.256C470.157 392.915 470.856 392.744 471.656 392.744C472.445 392.744 473.133 392.915 473.72 393.256C474.317 393.597 474.776 394.083 475.096 394.712C475.427 395.341 475.592 396.077 475.592 396.92C475.592 397.784 475.427 398.531 475.096 399.16C474.776 399.779 474.317 400.259 473.72 400.6C473.133 400.941 472.445 401.112 471.656 401.112ZM471.656 399.832C472.381 399.832 472.941 399.587 473.336 399.096C473.741 398.605 473.944 397.88 473.944 396.92C473.944 395.992 473.741 395.283 473.336 394.792C472.941 394.291 472.381 394.04 471.656 394.04C470.931 394.04 470.36 394.291 469.944 394.792C469.539 395.283 469.336 395.992 469.336 396.92C469.336 397.88 469.533 398.605 469.928 399.096C470.333 399.587 470.909 399.832 471.656 399.832ZM479.74 401L476.284 392.952H477.964L480.716 399.688H480.299L483.084 392.952H484.7L481.196 401H479.74Z" fill="#969EAC"/>
  <path opacity="0.5" d="M377.224 401.128C376.136 401.128 375.197 400.893 374.408 400.424C373.619 399.955 373.011 399.283 372.584 398.408C372.157 397.533 371.944 396.499 371.944 395.304C371.944 394.099 372.157 393.064 372.584 392.2C373.011 391.325 373.619 390.653 374.408 390.184C375.197 389.715 376.136 389.48 377.224 389.48C378.312 389.48 379.251 389.715 380.04 390.184C380.84 390.653 381.453 391.325 381.88 392.2C382.307 393.064 382.52 394.093 382.52 395.288C382.52 396.493 382.301 397.533 381.864 398.408C381.437 399.283 380.829 399.955 380.04 400.424C379.251 400.893 378.312 401.128 377.224 401.128ZM377.224 399.784C378.355 399.784 379.24 399.4 379.88 398.632C380.52 397.853 380.84 396.739 380.84 395.288C380.84 393.837 380.52 392.733 379.88 391.976C379.24 391.208 378.355 390.824 377.224 390.824C376.093 390.824 375.208 391.208 374.568 391.976C373.928 392.744 373.608 393.848 373.608 395.288C373.608 396.728 373.928 397.837 374.568 398.616C375.208 399.395 376.093 399.784 377.224 399.784ZM388.141 401.112C387.33 401.112 386.626 400.941 386.029 400.6C385.442 400.259 384.989 399.779 384.669 399.16C384.349 398.541 384.189 397.811 384.189 396.968C384.189 396.125 384.354 395.389 384.685 394.76C385.015 394.12 385.479 393.624 386.077 393.272C386.685 392.92 387.399 392.744 388.221 392.744C388.775 392.744 389.314 392.835 389.837 393.016C390.359 393.197 390.786 393.453 391.117 393.784L390.621 394.952C390.247 394.653 389.869 394.429 389.485 394.28C389.111 394.131 388.727 394.056 388.333 394.056C387.565 394.056 386.957 394.307 386.509 394.808C386.071 395.309 385.853 396.024 385.853 396.952C385.853 397.88 386.071 398.589 386.509 399.08C386.946 399.571 387.554 399.816 388.333 399.816C388.717 399.816 389.101 399.741 389.485 399.592C389.869 399.443 390.247 399.219 390.621 398.92L391.117 400.088C390.775 400.408 390.338 400.659 389.805 400.84C389.271 401.021 388.717 401.112 388.141 401.112ZM391.58 394.184V392.936H396.988V394.184H391.58ZM396.972 399.624V400.936C396.78 401 396.588 401.043 396.396 401.064C396.204 401.096 395.996 401.112 395.772 401.112C394.951 401.112 394.306 400.883 393.836 400.424C393.378 399.955 393.148 399.267 393.148 398.36V390.92L394.764 390.36V398.232C394.764 398.627 394.823 398.936 394.94 399.16C395.058 399.373 395.218 399.528 395.42 399.624C395.634 399.709 395.868 399.752 396.124 399.752C396.274 399.752 396.412 399.741 396.54 399.72C396.668 399.699 396.812 399.667 396.972 399.624Z" fill="#969EAC"/>
  <path opacity="0.5" d="M548.056 357.128C547.469 357.128 546.915 357.08 546.392 356.984C545.869 356.877 545.384 356.717 544.936 356.504C544.488 356.291 544.088 356.035 543.736 355.736L544.312 354.504C544.888 354.952 545.469 355.277 546.056 355.48C546.653 355.683 547.325 355.784 548.072 355.784C548.925 355.784 549.587 355.624 550.056 355.304C550.525 354.973 550.76 354.52 550.76 353.944C550.76 353.592 550.648 353.304 550.424 353.08C550.2 352.856 549.88 352.675 549.464 352.536C549.059 352.397 548.579 352.264 548.024 352.136C547.427 352.008 546.877 351.864 546.376 351.704C545.875 351.533 545.443 351.325 545.08 351.08C544.717 350.835 544.435 350.531 544.232 350.168C544.04 349.805 543.944 349.363 543.944 348.84C543.944 348.189 544.12 347.608 544.472 347.096C544.824 346.584 545.315 346.189 545.944 345.912C546.584 345.624 547.336 345.48 548.2 345.48C548.733 345.48 549.245 345.533 549.736 345.64C550.227 345.747 550.68 345.907 551.096 346.12C551.512 346.323 551.88 346.573 552.2 346.872L551.592 348.104C551.08 347.667 550.547 347.347 549.992 347.144C549.437 346.931 548.845 346.824 548.216 346.824C547.395 346.824 546.749 346.995 546.28 347.336C545.811 347.677 545.576 348.152 545.576 348.76C545.576 349.133 545.677 349.437 545.88 349.672C546.083 349.896 546.376 350.083 546.76 350.232C547.155 350.381 547.624 350.52 548.168 350.648C548.776 350.787 549.336 350.941 549.848 351.112C550.36 351.272 550.808 351.469 551.192 351.704C551.576 351.928 551.875 352.216 552.088 352.568C552.301 352.909 552.408 353.336 552.408 353.848C552.408 354.509 552.232 355.085 551.88 355.576C551.528 356.067 551.027 356.451 550.376 356.728C549.725 356.995 548.952 357.128 548.056 357.128ZM561.045 356.072C560.682 356.392 560.224 356.648 559.669 356.84C559.114 357.021 558.549 357.112 557.973 357.112C557.12 357.112 556.384 356.947 555.765 356.616C555.146 356.285 554.672 355.805 554.341 355.176C554.01 354.547 553.845 353.8 553.845 352.936C553.845 352.104 554.005 351.373 554.325 350.744C554.656 350.115 555.109 349.624 555.685 349.272C556.261 348.92 556.928 348.744 557.685 348.744C558.41 348.744 559.034 348.904 559.557 349.224C560.08 349.544 560.48 350.003 560.757 350.6C561.045 351.187 561.189 351.896 561.189 352.728V353H555.253L555.269 352.04H560.245L559.781 352.616C559.792 351.752 559.621 351.091 559.269 350.632C558.917 350.173 558.4 349.944 557.717 349.944C557.002 349.944 556.442 350.2 556.037 350.712C555.632 351.213 555.429 351.917 555.429 352.824C555.429 353.837 555.648 354.595 556.085 355.096C556.522 355.587 557.162 355.832 558.005 355.832C558.464 355.832 558.906 355.757 559.333 355.608C559.76 355.459 560.165 355.229 560.549 354.92L561.045 356.072ZM563.027 360.456V351.208C563.027 350.835 563.017 350.456 562.995 350.072C562.985 349.688 562.953 349.309 562.899 348.936H564.435L564.579 350.568L564.467 350.744C564.649 350.104 564.99 349.613 565.491 349.272C566.003 348.92 566.611 348.744 567.315 348.744C568.019 348.744 568.638 348.92 569.171 349.272C569.715 349.624 570.137 350.12 570.435 350.76C570.745 351.389 570.899 352.125 570.899 352.968C570.899 353.811 570.745 354.547 570.435 355.176C570.137 355.795 569.721 356.275 569.187 356.616C568.654 356.947 568.03 357.112 567.315 357.112C566.611 357.112 566.003 356.941 565.491 356.6C564.99 356.248 564.649 355.752 564.467 355.112L564.643 354.92V360.456H563.027ZM566.947 355.832C567.673 355.832 568.238 355.587 568.643 355.096C569.049 354.595 569.251 353.885 569.251 352.968C569.251 352.051 569.049 351.336 568.643 350.824C568.238 350.301 567.673 350.04 566.947 350.04C566.201 350.04 565.63 350.291 565.235 350.792C564.841 351.293 564.643 352.008 564.643 352.936C564.643 353.864 564.841 354.579 565.235 355.08C565.63 355.581 566.201 355.832 566.947 355.832Z" fill="#969EAC"/>
  <path opacity="0.5" d="M456.84 357H455.16L460.232 345.608H461.624L466.696 357H465.032L460.696 346.856H461.208L456.84 357ZM457.352 354.184L457.96 352.872H463.864L464.456 354.184H457.352ZM470.907 357.112C469.937 357.112 469.206 356.845 468.715 356.312C468.225 355.768 467.979 354.957 467.979 353.88V348.936H469.595V353.864C469.595 354.525 469.729 355.016 469.995 355.336C470.273 355.645 470.694 355.8 471.259 355.8C471.91 355.8 472.433 355.587 472.827 355.16C473.233 354.733 473.435 354.168 473.435 353.464V348.936H475.051V357H473.483V355.288L473.675 355.224C473.451 355.843 473.094 356.312 472.603 356.632C472.113 356.952 471.547 357.112 470.907 357.112ZM481.003 360.568C479.776 360.568 478.704 360.301 477.787 359.768L478.043 358.504C478.544 358.771 479.024 358.968 479.483 359.096C479.941 359.224 480.443 359.288 480.987 359.288C481.733 359.288 482.299 359.096 482.683 358.712C483.067 358.328 483.259 357.752 483.259 356.984V354.888L483.435 354.776C483.307 355.16 483.104 355.507 482.827 355.816C482.56 356.115 482.229 356.349 481.835 356.52C481.451 356.68 481.019 356.76 480.539 356.76C479.824 356.76 479.195 356.595 478.651 356.264C478.117 355.923 477.696 355.453 477.387 354.856C477.088 354.259 476.939 353.555 476.939 352.744C476.939 351.944 477.088 351.245 477.387 350.648C477.696 350.051 478.117 349.587 478.651 349.256C479.195 348.915 479.824 348.744 480.539 348.744C481.264 348.744 481.883 348.92 482.395 349.272C482.907 349.624 483.253 350.115 483.435 350.744L483.243 350.664V348.936H484.859V356.84C484.859 358.077 484.533 359.005 483.883 359.624C483.232 360.253 482.272 360.568 481.003 360.568ZM480.923 355.464C481.648 355.464 482.213 355.224 482.619 354.744C483.035 354.264 483.243 353.597 483.243 352.744C483.243 351.912 483.035 351.256 482.619 350.776C482.213 350.285 481.648 350.04 480.923 350.04C480.187 350.04 479.605 350.28 479.179 350.76C478.763 351.24 478.555 351.901 478.555 352.744C478.555 353.597 478.763 354.264 479.179 354.744C479.605 355.224 480.187 355.464 480.923 355.464Z" fill="#969EAC"/>
  <path opacity="0.5" d="M374.936 359.848V358.456C375.608 358.573 376.131 358.605 376.504 358.552C376.877 358.499 377.139 358.323 377.288 358.024C377.437 357.736 377.512 357.293 377.512 356.696V345.608H379.16V356.696C379.16 357.603 379.027 358.317 378.76 358.84C378.493 359.363 378.051 359.704 377.432 359.864C376.813 360.024 375.981 360.019 374.936 359.848ZM384.548 357.112C383.577 357.112 382.847 356.845 382.356 356.312C381.865 355.768 381.62 354.957 381.62 353.88V348.936H383.236V353.864C383.236 354.525 383.369 355.016 383.636 355.336C383.913 355.645 384.335 355.8 384.9 355.8C385.551 355.8 386.073 355.587 386.468 355.16C386.873 354.733 387.076 354.168 387.076 353.464V348.936H388.692V357H387.124V355.288L387.316 355.224C387.092 355.843 386.735 356.312 386.244 356.632C385.753 356.952 385.188 357.112 384.548 357.112ZM391.027 357V345.224H392.643V357H391.027Z" fill="#969EAC"/>
  <path d="M543.936 315.848V314.456C544.608 314.573 545.131 314.605 545.504 314.552C545.877 314.499 546.139 314.323 546.288 314.024C546.437 313.736 546.512 313.293 546.512 312.696V301.608H548.16V312.696C548.16 313.603 548.027 314.317 547.76 314.84C547.493 315.363 547.051 315.704 546.432 315.864C545.813 316.024 544.981 316.019 543.936 315.848ZM553.548 313.112C552.577 313.112 551.847 312.845 551.356 312.312C550.865 311.768 550.62 310.957 550.62 309.88V304.936H552.236V309.864C552.236 310.525 552.369 311.016 552.636 311.336C552.913 311.645 553.335 311.8 553.9 311.8C554.551 311.8 555.073 311.587 555.468 311.16C555.873 310.733 556.076 310.168 556.076 309.464V304.936H557.692V313H556.124V311.288L556.316 311.224C556.092 311.843 555.735 312.312 555.244 312.632C554.753 312.952 554.188 313.112 553.548 313.112ZM560.027 313V307.208C560.027 306.835 560.017 306.456 559.995 306.072C559.985 305.688 559.953 305.309 559.899 304.936H561.435L561.579 306.568L561.419 306.664C561.654 306.035 562.027 305.56 562.539 305.24C563.062 304.909 563.659 304.744 564.331 304.744C566.262 304.744 567.227 305.827 567.227 307.992V313H565.611V308.056C565.611 307.363 565.473 306.856 565.195 306.536C564.918 306.216 564.491 306.056 563.915 306.056C563.222 306.056 562.667 306.269 562.251 306.696C561.846 307.123 561.643 307.693 561.643 308.408V313H560.027Z" fill="white"/>
  <path d="M455.344 313V301.608H456.688L461.168 311.8H460.48L464.912 301.608H466.256V313H464.752V303.896L465.264 303.992L461.36 313H460.24L456.272 303.992L456.816 303.896L456.832 313H455.344ZM471.882 313.112C471.167 313.112 470.538 312.947 469.994 312.616C469.46 312.275 469.044 311.795 468.746 311.176C468.458 310.547 468.314 309.811 468.314 308.968C468.314 308.125 468.463 307.389 468.762 306.76C469.06 306.12 469.476 305.624 470.01 305.272C470.554 304.92 471.178 304.744 471.882 304.744C472.596 304.744 473.204 304.92 473.706 305.272C474.218 305.613 474.564 306.104 474.746 306.744L474.554 306.872V304.936H476.154V313H474.554V311.032L474.746 311.112C474.564 311.752 474.218 312.248 473.706 312.6C473.204 312.941 472.596 313.112 471.882 313.112ZM472.266 311.832C472.991 311.832 473.551 311.581 473.946 311.08C474.351 310.579 474.554 309.864 474.554 308.936C474.554 308.008 474.351 307.293 473.946 306.792C473.551 306.291 472.991 306.04 472.266 306.04C471.53 306.04 470.954 306.301 470.538 306.824C470.132 307.336 469.93 308.051 469.93 308.968C469.93 309.885 470.132 310.595 470.538 311.096C470.954 311.587 471.53 311.832 472.266 311.832ZM478.224 316.632L477.872 315.384C478.362 315.277 478.773 315.144 479.104 314.984C479.445 314.835 479.728 314.643 479.952 314.408C480.176 314.173 480.368 313.869 480.528 313.496L481.072 312.248L481.456 311.688L484.24 304.936H485.856L482.096 313.64C481.797 314.323 481.456 314.861 481.072 315.256C480.698 315.661 480.272 315.971 479.792 316.184C479.312 316.397 478.789 316.547 478.224 316.632ZM481.104 313.464L477.44 304.936H479.12L481.872 311.688L481.104 313.464Z" fill="white"/>
  <path d="M371.84 313H370.16L375.232 301.608H376.624L381.696 313H380.032L375.696 302.856H376.208L371.84 313ZM372.352 310.184L372.96 308.872H378.864L379.456 310.184H372.352ZM383.027 316.456V307.208C383.027 306.835 383.017 306.456 382.995 306.072C382.985 305.688 382.953 305.309 382.899 304.936H384.435L384.579 306.568L384.467 306.744C384.649 306.104 384.99 305.613 385.491 305.272C386.003 304.92 386.611 304.744 387.315 304.744C388.019 304.744 388.638 304.92 389.171 305.272C389.715 305.624 390.137 306.12 390.435 306.76C390.745 307.389 390.899 308.125 390.899 308.968C390.899 309.811 390.745 310.547 390.435 311.176C390.137 311.795 389.721 312.275 389.187 312.616C388.654 312.947 388.03 313.112 387.315 313.112C386.611 313.112 386.003 312.941 385.491 312.6C384.99 312.248 384.649 311.752 384.467 311.112L384.643 310.92V316.456H383.027ZM386.947 311.832C387.673 311.832 388.238 311.587 388.643 311.096C389.049 310.595 389.251 309.885 389.251 308.968C389.251 308.051 389.049 307.336 388.643 306.824C388.238 306.301 387.673 306.04 386.947 306.04C386.201 306.04 385.63 306.291 385.235 306.792C384.841 307.293 384.643 308.008 384.643 308.936C384.643 309.864 384.841 310.579 385.235 311.08C385.63 311.581 386.201 311.832 386.947 311.832ZM392.777 313V307.208C392.777 306.835 392.767 306.456 392.745 306.072C392.735 305.688 392.703 305.309 392.649 304.936H394.185L394.377 306.968L394.185 306.888C394.324 306.184 394.639 305.651 395.129 305.288C395.631 304.925 396.191 304.744 396.809 304.744C396.959 304.744 397.097 304.755 397.225 304.776C397.353 304.797 397.471 304.824 397.577 304.856L397.545 306.328C397.257 306.221 396.943 306.168 396.601 306.168C396.079 306.168 395.657 306.28 395.337 306.504C395.017 306.717 394.777 307.005 394.617 307.368C394.468 307.72 394.393 308.099 394.393 308.504V313H392.777Z" fill="white"/>
  <path d="M543.344 269V257.608H544.688L549.168 267.8H548.48L552.912 257.608H554.256V269H552.752V259.896L553.264 259.992L549.36 269H548.24L544.272 259.992L544.816 259.896L544.832 269H543.344ZM559.882 269.112C559.167 269.112 558.538 268.947 557.994 268.616C557.46 268.275 557.044 267.795 556.746 267.176C556.458 266.547 556.314 265.811 556.314 264.968C556.314 264.125 556.463 263.389 556.762 262.76C557.06 262.12 557.476 261.624 558.01 261.272C558.554 260.92 559.178 260.744 559.882 260.744C560.596 260.744 561.204 260.92 561.706 261.272C562.218 261.613 562.564 262.104 562.746 262.744L562.554 262.872V260.936H564.154V269H562.554V267.032L562.746 267.112C562.564 267.752 562.218 268.248 561.706 268.6C561.204 268.941 560.596 269.112 559.882 269.112ZM560.266 267.832C560.991 267.832 561.551 267.581 561.946 267.08C562.351 266.579 562.554 265.864 562.554 264.936C562.554 264.008 562.351 263.293 561.946 262.792C561.551 262.291 560.991 262.04 560.266 262.04C559.53 262.04 558.954 262.301 558.538 262.824C558.132 263.336 557.93 264.051 557.93 264.968C557.93 265.885 558.132 266.595 558.538 267.096C558.954 267.587 559.53 267.832 560.266 267.832ZM566.512 269V263.208C566.512 262.835 566.501 262.456 566.48 262.072C566.469 261.688 566.437 261.309 566.384 260.936H567.92L568.112 262.968L567.92 262.888C568.058 262.184 568.373 261.651 568.864 261.288C569.365 260.925 569.925 260.744 570.544 260.744C570.693 260.744 570.832 260.755 570.96 260.776C571.088 260.797 571.205 260.824 571.312 260.856L571.28 262.328C570.992 262.221 570.677 262.168 570.336 262.168C569.813 262.168 569.392 262.28 569.072 262.504C568.752 262.717 568.512 263.005 568.352 263.368C568.202 263.72 568.128 264.099 568.128 264.504V269H566.512Z" fill="white"/>
  <path d="M457.328 269V257.608H464.56V258.968H458.96V262.536H464.24V263.896H458.96V269H457.328ZM472.842 268.072C472.479 268.392 472.021 268.648 471.466 268.84C470.911 269.021 470.346 269.112 469.77 269.112C468.917 269.112 468.181 268.947 467.562 268.616C466.943 268.285 466.469 267.805 466.138 267.176C465.807 266.547 465.642 265.8 465.642 264.936C465.642 264.104 465.802 263.373 466.122 262.744C466.453 262.115 466.906 261.624 467.482 261.272C468.058 260.92 468.725 260.744 469.482 260.744C470.207 260.744 470.831 260.904 471.354 261.224C471.877 261.544 472.277 262.003 472.554 262.6C472.842 263.187 472.986 263.896 472.986 264.728V265H467.05L467.066 264.04H472.042L471.578 264.616C471.589 263.752 471.418 263.091 471.066 262.632C470.714 262.173 470.197 261.944 469.514 261.944C468.799 261.944 468.239 262.2 467.834 262.712C467.429 263.213 467.226 263.917 467.226 264.824C467.226 265.837 467.445 266.595 467.882 267.096C468.319 267.587 468.959 267.832 469.802 267.832C470.261 267.832 470.703 267.757 471.13 267.608C471.557 267.459 471.962 267.229 472.346 266.92L472.842 268.072ZM474.824 269V257.224H476.44V262.936L476.264 262.744C476.446 262.115 476.787 261.624 477.288 261.272C477.8 260.92 478.408 260.744 479.112 260.744C479.827 260.744 480.451 260.915 480.984 261.256C481.518 261.597 481.934 262.077 482.232 262.696C482.542 263.315 482.696 264.045 482.696 264.888C482.696 265.741 482.542 266.488 482.232 267.128C481.934 267.757 481.512 268.248 480.968 268.6C480.435 268.941 479.816 269.112 479.112 269.112C478.408 269.112 477.8 268.941 477.288 268.6C476.787 268.248 476.446 267.752 476.264 267.112L476.44 266.888V269H474.824ZM478.744 267.832C479.47 267.832 480.035 267.576 480.44 267.064C480.846 266.552 481.048 265.827 481.048 264.888C481.048 263.981 480.846 263.283 480.44 262.792C480.035 262.291 479.47 262.04 478.744 262.04C477.998 262.04 477.427 262.296 477.032 262.808C476.638 263.309 476.44 264.013 476.44 264.92C476.44 265.859 476.638 266.579 477.032 267.08C477.427 267.581 477.998 267.832 478.744 267.832Z" fill="white"/>
  <path d="M371.936 271.848V270.456C372.608 270.573 373.131 270.605 373.504 270.552C373.877 270.499 374.139 270.323 374.288 270.024C374.437 269.736 374.512 269.293 374.512 268.696V257.608H376.16V268.696C376.16 269.603 376.027 270.317 375.76 270.84C375.493 271.363 375.051 271.704 374.432 271.864C373.813 272.024 372.981 272.019 371.936 271.848ZM381.788 269.112C381.073 269.112 380.444 268.947 379.9 268.616C379.367 268.275 378.951 267.795 378.652 267.176C378.364 266.547 378.22 265.811 378.22 264.968C378.22 264.125 378.369 263.389 378.668 262.76C378.967 262.12 379.383 261.624 379.916 261.272C380.46 260.92 381.084 260.744 381.788 260.744C382.503 260.744 383.111 260.92 383.612 261.272C384.124 261.613 384.471 262.104 384.652 262.744L384.46 262.872V260.936H386.06V269H384.46V267.032L384.652 267.112C384.471 267.752 384.124 268.248 383.612 268.6C383.111 268.941 382.503 269.112 381.788 269.112ZM382.172 267.832C382.897 267.832 383.457 267.581 383.852 267.08C384.257 266.579 384.46 265.864 384.46 264.936C384.46 264.008 384.257 263.293 383.852 262.792C383.457 262.291 382.897 262.04 382.172 262.04C381.436 262.04 380.86 262.301 380.444 262.824C380.039 263.336 379.836 264.051 379.836 264.968C379.836 265.885 380.039 266.595 380.444 267.096C380.86 267.587 381.436 267.832 382.172 267.832ZM388.418 269V263.208C388.418 262.835 388.407 262.456 388.386 262.072C388.375 261.688 388.343 261.309 388.29 260.936H389.826L389.97 262.568L389.81 262.664C390.045 262.035 390.418 261.56 390.93 261.24C391.453 260.909 392.05 260.744 392.722 260.744C394.653 260.744 395.618 261.827 395.618 263.992V269H394.002V264.056C394.002 263.363 393.863 262.856 393.586 262.536C393.309 262.216 392.882 262.056 392.306 262.056C391.613 262.056 391.058 262.269 390.642 262.696C390.237 263.123 390.034 263.693 390.034 264.408V269H388.418Z" fill="white"/>
  <g opacity="0.5">
    <path d="M569 205L573.5 209.5L569 214" stroke="#969EAC" stroke-width="1.5" stroke-linejoin="round"/>
  </g>
  <path d="M446.56 216V214.46L451.46 209.08C452.087 208.387 452.54 207.76 452.82 207.2C453.113 206.627 453.26 206.06 453.26 205.5C453.26 204.78 453.047 204.233 452.62 203.86C452.207 203.473 451.613 203.28 450.84 203.28C450.173 203.28 449.507 203.413 448.84 203.68C448.187 203.933 447.533 204.32 446.88 204.84L446.14 203.3C446.713 202.78 447.427 202.367 448.28 202.06C449.147 201.753 450.027 201.6 450.92 201.6C451.813 201.6 452.587 201.753 453.24 202.06C453.907 202.367 454.42 202.807 454.78 203.38C455.14 203.94 455.32 204.613 455.32 205.4C455.32 206.213 455.14 206.993 454.78 207.74C454.42 208.473 453.82 209.293 452.98 210.2L448.4 215.14L448.2 214.3H455.9V216H446.56ZM462.992 216.16C461.339 216.16 460.079 215.547 459.212 214.32C458.346 213.08 457.912 211.267 457.912 208.88C457.912 206.507 458.339 204.7 459.192 203.46C460.059 202.22 461.326 201.6 462.992 201.6C464.659 201.6 465.919 202.22 466.772 203.46C467.639 204.7 468.072 206.5 468.072 208.86C468.072 211.247 467.639 213.06 466.772 214.3C465.906 215.54 464.646 216.16 462.992 216.16ZM462.992 214.5C464.032 214.5 464.792 214.047 465.272 213.14C465.766 212.233 466.012 210.807 466.012 208.86C466.012 206.927 465.766 205.513 465.272 204.62C464.792 203.727 464.032 203.28 462.992 203.28C461.952 203.28 461.186 203.733 460.692 204.64C460.212 205.533 459.972 206.94 459.972 208.86C459.972 210.807 460.212 212.233 460.692 213.14C461.186 214.047 461.952 214.5 462.992 214.5ZM470.544 216V214.46L475.444 209.08C476.071 208.387 476.524 207.76 476.804 207.2C477.098 206.627 477.244 206.06 477.244 205.5C477.244 204.78 477.031 204.233 476.604 203.86C476.191 203.473 475.598 203.28 474.824 203.28C474.158 203.28 473.491 203.413 472.824 203.68C472.171 203.933 471.518 204.32 470.864 204.84L470.124 203.3C470.698 202.78 471.411 202.367 472.264 202.06C473.131 201.753 474.011 201.6 474.904 201.6C475.798 201.6 476.571 201.753 477.224 202.06C477.891 202.367 478.404 202.807 478.764 203.38C479.124 203.94 479.304 204.613 479.304 205.4C479.304 206.213 479.124 206.993 478.764 207.74C478.404 208.473 477.804 209.293 476.964 210.2L472.384 215.14L472.184 214.3H479.884V216H470.544ZM486.517 215.06V203.14L487.617 203.54L483.617 206.02V204.12L487.397 201.76H488.597V215.06H486.517ZM483.397 216V214.3H491.717V216H483.397Z" fill="white"/>
  <path d="M368 205L363.5 209.5L368 214" stroke="white" stroke-width="1.5" stroke-linejoin="round"/>
  <defs>
    <filter id="filter0_di" x="0" y="0" width="445" height="533" filterUnits="userSpaceOnUse" color-interpolation-filters="sRGB">
      <feFlood flood-opacity="0" result="BackgroundImageFix"/>
      <feColorMatrix in="SourceAlpha" type="matrix" values="0 0 0 0 0 0 0 0 0 0 0 0 0 0 0 0 0 0 127 0"/>
      <feOffset dy="2"/>
      <feGaussianBlur stdDeviation="4"/>
      <feColorMatrix type="matrix" values="0 0 0 0 0.888 0 0 0 0 0.911467 0 0 0 0 0.952 0 0 0 1 0"/>
      <feBlend mode="normal" in2="BackgroundImageFix" result="effect1_dropShadow"/>
      <feBlend mode="normal" in="SourceGraphic" in2="effect1_dropShadow" result="shape"/>
      <feColorMatrix in="SourceAlpha" type="matrix" values="0 0 0 0 0 0 0 0 0 0 0 0 0 0 0 0 0 0 127 0" result="hardAlpha"/>
      <feOffset dy="-1"/>
      <feComposite in2="hardAlpha" operator="arithmetic" k2="-1" k3="1"/>
      <feColorMatrix type="matrix" values="0 0 0 0 0.921569 0 0 0 0 0.92549 0 0 0 0 0.945098 0 0 0 1 0"/>
      <feBlend mode="normal" in2="shape" result="effect2_innerShadow"/>
    </filter>
    <filter id="filter1_d" x="325.016" y="147.755" width="68.9697" height="64.245" filterUnits="userSpaceOnUse" color-interpolation-filters="sRGB">
      <feFlood flood-opacity="0" result="BackgroundImageFix"/>
      <feColorMatrix in="SourceAlpha" type="matrix" values="0 0 0 0 0 0 0 0 0 0 0 0 0 0 0 0 0 0 127 0"/>
      <feOffset dy="4"/>
      <feGaussianBlur stdDeviation="14"/>
      <feColorMatrix type="matrix" values="0 0 0 0 0.0313726 0 0 0 0 0.0941176 0 0 0 0 0.2 0 0 0 0.44 0"/>
      <feBlend mode="normal" in2="BackgroundImageFix" result="effect1_dropShadow"/>
      <feBlend mode="normal" in="SourceGraphic" in2="effect1_dropShadow" result="shape"/>
    </filter>
    <filter id="filter2_d" x="310" y="152" width="318" height="325" filterUnits="userSpaceOnUse" color-interpolation-filters="sRGB">
      <feFlood flood-opacity="0" result="BackgroundImageFix"/>
      <feColorMatrix in="SourceAlpha" type="matrix" values="0 0 0 0 0 0 0 0 0 0 0 0 0 0 0 0 0 0 127 0"/>
      <feOffset dy="4"/>
      <feGaussianBlur stdDeviation="14"/>
      <feColorMatrix type="matrix" values="0 0 0 0 0.0313726 0 0 0 0 0.0941176 0 0 0 0 0.2 0 0 0 0.44 0"/>
      <feBlend mode="normal" in2="BackgroundImageFix" result="effect1_dropShadow"/>
      <feBlend mode="normal" in="SourceGraphic" in2="effect1_dropShadow" result="shape"/>
    </filter>
  </defs>
</svg>
