<svg width="625" height="533" viewBox="0 0 625 533" fill="none" xmlns="http://www.w3.org/2000/svg">
<path d="M193.5 224C166.38 224 139.737 231.139 116.25 244.699C92.763 258.259 73.2593 277.763 59.6991 301.25L113.219 332.15C121.356 318.058 133.058 306.356 147.15 298.219C161.242 290.083 177.228 285.8 193.5 285.8V224Z" fill="#D3365F"/>
<path d="M59.6991 301.25C46.1389 324.737 39 351.38 39 378.5L100.8 378.5C100.8 362.228 105.083 346.242 113.219 332.15L59.6991 301.25Z" fill="#29CFD6"/>
<path d="M39 378.5C39 405.62 46.1389 432.263 59.6991 455.75C73.2593 479.237 92.763 498.741 116.25 512.301L147.15 458.781C133.058 450.644 121.356 438.942 113.219 424.85C105.083 410.758 100.8 394.772 100.8 378.5H39Z" fill="#FFBC02"/>
<path d="M116.25 512.301C133.821 522.446 153.218 529.03 173.334 531.678C193.449 534.327 213.89 532.987 233.488 527.736C253.085 522.484 271.457 513.424 287.554 501.073C303.65 488.722 317.156 473.321 327.301 455.75L273.781 424.85C267.694 435.393 259.59 444.633 249.932 452.044C240.274 459.455 229.251 464.891 217.493 468.041C205.734 471.192 193.47 471.996 181.4 470.407C169.331 468.818 157.693 464.867 147.15 458.781L116.25 512.301Z" fill="#1F32AD"/>
<path d="M327.301 455.75C340.861 432.263 348 405.62 348 378.5C348 351.38 340.861 324.737 327.301 301.25C313.741 277.763 294.237 258.259 270.75 244.699C247.263 231.139 220.62 224 193.5 224V285.8C209.772 285.8 225.758 290.083 239.85 298.219C253.942 306.356 265.644 318.058 273.781 332.15C281.917 346.242 286.2 362.228 286.2 378.5C286.2 394.772 281.917 410.758 273.781 424.85L327.301 455.75Z" fill="#235EE7"/>
<line opacity="0.2" x1="19" y1="183.5" x2="368" y2="183.5" stroke="#969EAC"/>
<path fill-rule="evenodd" clip-rule="evenodd" d="M109.967 147.695C106.299 148.341 103.297 150.978 102.182 154.531C101.067 158.085 102.024 161.964 104.666 164.59C102.225 162.15 102.225 158.192 104.666 155.752C106.057 154.362 108.026 153.718 109.969 154.017L109.967 157.777C109.967 158.03 110.12 158.257 110.353 158.354C110.587 158.451 110.856 158.397 111.034 158.218L117.038 152.214C117.527 151.726 117.527 150.935 117.038 150.447L111.034 144.443C110.856 144.264 110.587 144.21 110.353 144.307C110.12 144.403 109.967 144.631 109.967 144.884L109.967 147.695Z" stroke="#969EAC" stroke-width="1.5" stroke-linecap="round" stroke-linejoin="round"/>
<path d="M65.875 155.875L69 159M69 159L72.125 155.875M69 159V149.625M69 163.375C74.1777 163.375 78.375 159.178 78.375 154C78.375 148.822 74.1777 144.625 69 144.625C63.8223 144.625 59.625 148.822 59.625 154C59.625 159.178 63.8223 163.375 69 163.375Z" stroke="#969EAC" stroke-width="1.5" stroke-linecap="round" stroke-linejoin="round"/>
<path fill-rule="evenodd" clip-rule="evenodd" d="M27.7874 146.032C28.0966 146.375 28.537 146.571 28.999 146.571C29.4611 146.571 29.9014 146.375 30.2107 146.032L30.999 145.167C31.462 144.655 32.1973 144.489 32.8352 144.753C33.4732 145.018 33.8758 145.655 33.8407 146.345L33.7815 147.511C33.7584 147.971 33.9309 148.42 34.2565 148.746C34.5821 149.072 35.0304 149.245 35.4907 149.223L36.6574 149.164C37.3466 149.13 37.9827 149.533 38.2464 150.17C38.51 150.808 38.3443 151.543 37.8324 152.005L36.964 152.789C36.6212 153.098 36.4255 153.539 36.4255 154.001C36.4255 154.463 36.6212 154.903 36.964 155.213L37.8324 155.996C38.3447 156.459 38.5104 157.194 38.246 157.832C37.9817 158.47 37.3445 158.873 36.6549 158.838L35.4882 158.779C35.0269 158.755 34.5772 158.928 34.2506 159.254C33.924 159.581 33.7511 160.031 33.7749 160.492L33.834 161.659C33.8646 162.345 33.4626 162.977 32.8282 163.239C32.1938 163.502 31.4627 163.34 30.999 162.834L30.2149 161.966C29.9053 161.623 29.4651 161.428 29.0032 161.428C28.5413 161.428 28.1011 161.623 27.7915 161.966L27.004 162.834C26.541 163.343 25.8086 163.507 25.1728 163.244C24.537 162.981 24.1342 162.348 24.1657 161.66L24.2257 160.494C24.2494 160.032 24.0765 159.583 23.7499 159.256C23.4233 158.929 22.9736 158.757 22.5124 158.78L21.3457 158.84C20.6563 158.875 20.0189 158.474 19.7539 157.836C19.489 157.199 19.6539 156.464 20.1657 156L21.0332 155.217C21.376 154.907 21.5717 154.467 21.5717 154.005C21.5717 153.543 21.376 153.103 21.0332 152.793L20.1657 152.005C19.6556 151.543 19.4909 150.809 19.7542 150.173C20.0175 149.537 20.652 149.134 21.3399 149.167L22.5065 149.226C22.9687 149.25 23.4194 149.077 23.7465 148.75C24.0736 148.423 24.2463 147.972 24.2215 147.51L24.1657 146.342C24.1334 145.654 24.536 145.02 25.172 144.757C25.808 144.494 26.5408 144.658 27.004 145.167L27.7874 146.032Z" stroke="#969EAC" stroke-width="1.5" stroke-linecap="round" stroke-linejoin="round"/>
<path fill-rule="evenodd" clip-rule="evenodd" d="M29 157.751C31.0711 157.751 32.75 156.072 32.75 154.001C32.75 151.93 31.0711 150.251 29 150.251C26.9289 150.251 25.25 151.93 25.25 154.001C25.25 156.072 26.9289 157.751 29 157.751Z" stroke="#969EAC" stroke-width="1.5" stroke-linecap="round" stroke-linejoin="round"/>
<path d="M24.872 96.128C23.368 96.128 22.2267 95.7387 21.448 94.96C20.68 94.1813 20.296 93.0293 20.296 91.504V84.608H21.752V91.616C21.752 92.704 22.0133 93.5253 22.536 94.08C23.0693 94.624 23.848 94.896 24.872 94.896C25.8853 94.896 26.6533 94.6187 27.176 94.064C27.6987 93.5093 27.96 92.6933 27.96 91.616V84.608H29.432V91.504C29.432 93.0187 29.0427 94.1707 28.264 94.96C27.496 95.7387 26.3653 96.128 24.872 96.128ZM34.7184 96.112C33.3424 96.112 32.249 95.7653 31.4384 95.072L31.9024 94.016C32.329 94.3467 32.7717 94.592 33.2304 94.752C33.6997 94.9013 34.2117 94.976 34.7664 94.976C35.3424 94.976 35.7797 94.88 36.0784 94.688C36.3877 94.4853 36.5424 94.1973 36.5424 93.824C36.5424 93.5253 36.4357 93.2907 36.2224 93.12C36.0197 92.9387 35.6784 92.7893 35.1984 92.672L33.8544 92.352C33.161 92.2027 32.6277 91.936 32.2544 91.552C31.8917 91.168 31.7104 90.704 31.7104 90.16C31.7104 89.6907 31.8384 89.2747 32.0944 88.912C32.361 88.5493 32.729 88.2667 33.1984 88.064C33.6677 87.8507 34.2224 87.744 34.8624 87.744C35.4277 87.744 35.961 87.8347 36.4624 88.016C36.9744 88.1973 37.4064 88.4587 37.7584 88.8L37.2944 89.84C36.9104 89.52 36.5157 89.2853 36.1104 89.136C35.705 88.976 35.2837 88.896 34.8464 88.896C34.3024 88.896 33.8757 89.0027 33.5664 89.216C33.2677 89.4293 33.1184 89.7173 33.1184 90.08C33.1184 90.3893 33.2144 90.6347 33.4064 90.816C33.5984 90.9973 33.9024 91.1413 34.3184 91.248L35.6784 91.584C36.4464 91.744 37.0117 92.0107 37.3744 92.384C37.737 92.7467 37.9184 93.216 37.9184 93.792C37.9184 94.496 37.6304 95.0613 37.0544 95.488C36.4784 95.904 35.6997 96.112 34.7184 96.112ZM46.5595 95.056C46.2075 95.3867 45.7542 95.648 45.1995 95.84C44.6448 96.0213 44.0795 96.112 43.5035 96.112C42.6608 96.112 41.9355 95.9467 41.3275 95.616C40.7195 95.2853 40.2502 94.8107 39.9195 94.192C39.5888 93.5627 39.4235 92.816 39.4235 91.952C39.4235 91.12 39.5835 90.3893 39.9035 89.76C40.2342 89.1307 40.6875 88.64 41.2635 88.288C41.8395 87.9253 42.5008 87.744 43.2475 87.744C43.9728 87.744 44.5915 87.904 45.1035 88.224C45.6262 88.544 46.0208 89.0027 46.2875 89.6C46.5648 90.1867 46.7035 90.8907 46.7035 91.712V91.968H40.7035V91.072H45.8715L45.4235 91.648C45.4448 90.7413 45.2688 90.048 44.8955 89.568C44.5222 89.088 43.9782 88.848 43.2635 88.848C42.5168 88.848 41.9302 89.1147 41.5035 89.648C41.0875 90.1707 40.8795 90.9067 40.8795 91.856C40.8795 92.88 41.1035 93.6533 41.5515 94.176C41.9995 94.688 42.6608 94.944 43.5355 94.944C44.0048 94.944 44.4528 94.8693 44.8795 94.72C45.3062 94.56 45.7115 94.3253 46.0955 94.016L46.5595 95.056ZM51.737 89.072V87.952H57.017V89.072H51.737ZM56.985 94.736V95.952C56.8037 96.0053 56.617 96.0427 56.425 96.064C56.2437 96.096 56.0463 96.112 55.833 96.112C55.0437 96.112 54.4197 95.888 53.961 95.44C53.513 94.992 53.289 94.3307 53.289 93.456V85.904L54.745 85.392V93.296C54.745 93.712 54.8037 94.0373 54.921 94.272C55.049 94.496 55.2143 94.656 55.417 94.752C55.6303 94.8373 55.8703 94.88 56.137 94.88C56.2863 94.88 56.425 94.8693 56.553 94.848C56.681 94.8267 56.825 94.7893 56.985 94.736ZM58.5598 96V84.224H60.0158V89.584L59.7918 89.696C60.0264 89.0667 60.3998 88.5867 60.9118 88.256C61.4344 87.9147 62.0318 87.744 62.7038 87.744C64.6344 87.744 65.5998 88.816 65.5998 90.96V96H64.1438V91.04C64.1438 90.3147 63.9998 89.7867 63.7118 89.456C63.4344 89.1147 62.9864 88.944 62.3678 88.944C61.6531 88.944 61.0824 89.168 60.6558 89.616C60.2291 90.0533 60.0158 90.6453 60.0158 91.392V96H58.5598ZM74.6376 95.056C74.2856 95.3867 73.8323 95.648 73.2776 95.84C72.723 96.0213 72.1576 96.112 71.5816 96.112C70.739 96.112 70.0136 95.9467 69.4056 95.616C68.7976 95.2853 68.3283 94.8107 67.9976 94.192C67.667 93.5627 67.5016 92.816 67.5016 91.952C67.5016 91.12 67.6616 90.3893 67.9816 89.76C68.3123 89.1307 68.7656 88.64 69.3416 88.288C69.9176 87.9253 70.579 87.744 71.3256 87.744C72.051 87.744 72.6696 87.904 73.1816 88.224C73.7043 88.544 74.099 89.0027 74.3656 89.6C74.643 90.1867 74.7816 90.8907 74.7816 91.712V91.968H68.7816V91.072H73.9496L73.5016 91.648C73.523 90.7413 73.347 90.048 72.9736 89.568C72.6003 89.088 72.0563 88.848 71.3416 88.848C70.595 88.848 70.0083 89.1147 69.5816 89.648C69.1656 90.1707 68.9576 90.9067 68.9576 91.856C68.9576 92.88 69.1816 93.6533 69.6296 94.176C70.0776 94.688 70.739 94.944 71.6136 94.944C72.083 94.944 72.531 94.8693 72.9576 94.72C73.3843 94.56 73.7896 94.3253 74.1736 94.016L74.6376 95.056ZM84.0071 96.112C83.3031 96.112 82.6791 95.9467 82.1351 95.616C81.6018 95.2747 81.1858 94.7947 80.8871 94.176C80.5885 93.5467 80.4391 92.8107 80.4391 91.968C80.4391 91.1253 80.5885 90.3893 80.8871 89.76C81.1965 89.1307 81.6178 88.64 82.1511 88.288C82.6951 87.9253 83.3138 87.744 84.0071 87.744C84.7325 87.744 85.3511 87.9253 85.8631 88.288C86.3751 88.64 86.7218 89.1467 86.9031 89.808L86.7111 89.92V87.952H88.1511V96H86.7111V93.984L86.9031 94.064C86.7218 94.7147 86.3751 95.2213 85.8631 95.584C85.3511 95.936 84.7325 96.112 84.0071 96.112ZM84.3271 94.928C85.0951 94.928 85.6818 94.672 86.0871 94.16C86.5031 93.6373 86.7111 92.896 86.7111 91.936C86.7111 90.976 86.5031 90.24 86.0871 89.728C85.6711 89.2053 85.0845 88.944 84.3271 88.944C83.5698 88.944 82.9778 89.2107 82.5511 89.744C82.1245 90.2773 81.9111 91.0187 81.9111 91.968C81.9111 92.9173 82.1245 93.648 82.5511 94.16C82.9778 94.672 83.5698 94.928 84.3271 94.928ZM90.5754 96V90.208C90.5754 89.8347 90.5647 89.4613 90.5434 89.088C90.5327 88.704 90.5007 88.3253 90.4474 87.952H91.8234L91.9994 89.952L91.8234 89.888C91.962 89.184 92.2767 88.656 92.7674 88.304C93.2687 87.9413 93.8287 87.76 94.4474 87.76C94.5967 87.76 94.73 87.7707 94.8474 87.792C94.9754 87.8027 95.0927 87.824 95.1994 87.856L95.1834 89.184C94.9167 89.088 94.618 89.04 94.2874 89.04C93.7434 89.04 93.306 89.1573 92.9754 89.392C92.6447 89.6267 92.4047 89.9253 92.2554 90.288C92.106 90.6507 92.0314 91.04 92.0314 91.456V96H90.5754ZM96.4816 96V90.208C96.4816 89.8347 96.471 89.4613 96.4496 89.088C96.439 88.704 96.407 88.3253 96.3536 87.952H97.7296L97.9056 89.952L97.7296 89.888C97.8683 89.184 98.183 88.656 98.6736 88.304C99.175 87.9413 99.735 87.76 100.354 87.76C100.503 87.76 100.636 87.7707 100.754 87.792C100.882 87.8027 100.999 87.824 101.106 87.856L101.09 89.184C100.823 89.088 100.524 89.04 100.194 89.04C99.6496 89.04 99.2123 89.1573 98.8816 89.392C98.551 89.6267 98.311 89.9253 98.1616 90.288C98.0123 90.6507 97.9376 91.04 97.9376 91.456V96H96.4816ZM105.624 96.112C104.845 96.112 104.162 95.9413 103.576 95.6C103 95.2587 102.552 94.7787 102.232 94.16C101.912 93.5307 101.752 92.7893 101.752 91.936C101.752 91.0933 101.912 90.3573 102.232 89.728C102.552 89.088 103 88.5973 103.576 88.256C104.162 87.9147 104.845 87.744 105.624 87.744C106.413 87.744 107.096 87.9147 107.672 88.256C108.248 88.5973 108.696 89.088 109.016 89.728C109.336 90.3573 109.496 91.0933 109.496 91.936C109.496 92.7893 109.336 93.5307 109.016 94.16C108.696 94.7787 108.248 95.2587 107.672 95.6C107.096 95.9413 106.413 96.112 105.624 96.112ZM105.624 94.928C106.392 94.928 106.984 94.6773 107.4 94.176C107.816 93.664 108.024 92.9173 108.024 91.936C108.024 90.9653 107.81 90.224 107.384 89.712C106.968 89.2 106.381 88.944 105.624 88.944C104.877 88.944 104.29 89.2 103.864 89.712C103.437 90.224 103.224 90.9653 103.224 91.936C103.224 92.9173 103.432 93.664 103.848 94.176C104.264 94.6773 104.856 94.928 105.624 94.928ZM113.548 96L110.524 87.952H112.044L114.476 94.848H114.06L116.572 87.952H117.772L120.236 94.848H119.836L122.3 87.952H123.74L120.716 96H119.356L116.748 88.912H117.5L114.908 96H113.548ZM127.953 96.112C126.577 96.112 125.483 95.7653 124.673 95.072L125.137 94.016C125.563 94.3467 126.006 94.592 126.465 94.752C126.934 94.9013 127.446 94.976 128.001 94.976C128.577 94.976 129.014 94.88 129.313 94.688C129.622 94.4853 129.777 94.1973 129.777 93.824C129.777 93.5253 129.67 93.2907 129.457 93.12C129.254 92.9387 128.913 92.7893 128.433 92.672L127.089 92.352C126.395 92.2027 125.862 91.936 125.489 91.552C125.126 91.168 124.945 90.704 124.945 90.16C124.945 89.6907 125.073 89.2747 125.329 88.912C125.595 88.5493 125.963 88.2667 126.433 88.064C126.902 87.8507 127.457 87.744 128.097 87.744C128.662 87.744 129.195 87.8347 129.697 88.016C130.209 88.1973 130.641 88.4587 130.993 88.8L130.529 89.84C130.145 89.52 129.75 89.2853 129.345 89.136C128.939 88.976 128.518 88.896 128.081 88.896C127.537 88.896 127.11 89.0027 126.801 89.216C126.502 89.4293 126.353 89.7173 126.353 90.08C126.353 90.3893 126.449 90.6347 126.641 90.816C126.833 90.9973 127.137 91.1413 127.553 91.248L128.913 91.584C129.681 91.744 130.246 92.0107 130.609 92.384C130.971 92.7467 131.153 93.216 131.153 93.792C131.153 94.496 130.865 95.0613 130.289 95.488C129.713 95.904 128.934 96.112 127.953 96.112ZM140.445 96.112C139.741 96.112 139.117 95.9467 138.573 95.616C138.039 95.2747 137.623 94.7947 137.325 94.176C137.026 93.5467 136.877 92.8107 136.877 91.968C136.877 91.1253 137.026 90.3893 137.325 89.76C137.634 89.1307 138.055 88.64 138.589 88.288C139.133 87.9253 139.751 87.744 140.445 87.744C141.17 87.744 141.789 87.9253 142.301 88.288C142.813 88.64 143.159 89.1467 143.341 89.808L143.149 89.92V87.952H144.589V96H143.149V93.984L143.341 94.064C143.159 94.7147 142.813 95.2213 142.301 95.584C141.789 95.936 141.17 96.112 140.445 96.112ZM140.765 94.928C141.533 94.928 142.119 94.672 142.525 94.16C142.941 93.6373 143.149 92.896 143.149 91.936C143.149 90.976 142.941 90.24 142.525 89.728C142.109 89.2053 141.522 88.944 140.765 88.944C140.007 88.944 139.415 89.2107 138.989 89.744C138.562 90.2773 138.349 91.0187 138.349 91.968C138.349 92.9173 138.562 93.648 138.989 94.16C139.415 94.672 140.007 94.928 140.765 94.928ZM147.013 96V84.224H148.469V89.984L148.277 89.792C148.458 89.152 148.805 88.6507 149.317 88.288C149.829 87.9253 150.442 87.744 151.157 87.744C151.872 87.744 152.496 87.9147 153.029 88.256C153.562 88.5973 153.978 89.0827 154.277 89.712C154.586 90.3307 154.741 91.0613 154.741 91.904C154.741 92.7467 154.586 93.488 154.277 94.128C153.978 94.7573 153.557 95.248 153.013 95.6C152.48 95.9413 151.861 96.112 151.157 96.112C150.442 96.112 149.829 95.936 149.317 95.584C148.805 95.2213 148.458 94.7147 148.277 94.064L148.453 93.872V96H147.013ZM150.853 94.928C151.61 94.928 152.197 94.6667 152.613 94.144C153.029 93.6107 153.237 92.864 153.237 91.904C153.237 90.9653 153.029 90.24 152.613 89.728C152.197 89.2053 151.61 88.944 150.853 88.944C150.085 88.944 149.493 89.2053 149.077 89.728C148.661 90.2507 148.453 90.9867 148.453 91.936C148.453 92.896 148.661 93.6373 149.077 94.16C149.493 94.672 150.085 94.928 150.853 94.928ZM160.061 96.112C159.282 96.112 158.6 95.9413 158.013 95.6C157.437 95.2587 156.989 94.7787 156.669 94.16C156.349 93.5307 156.189 92.7893 156.189 91.936C156.189 91.0933 156.349 90.3573 156.669 89.728C156.989 89.088 157.437 88.5973 158.013 88.256C158.6 87.9147 159.282 87.744 160.061 87.744C160.85 87.744 161.533 87.9147 162.109 88.256C162.685 88.5973 163.133 89.088 163.453 89.728C163.773 90.3573 163.933 91.0933 163.933 91.936C163.933 92.7893 163.773 93.5307 163.453 94.16C163.133 94.7787 162.685 95.2587 162.109 95.6C161.533 95.9413 160.85 96.112 160.061 96.112ZM160.061 94.928C160.829 94.928 161.421 94.6773 161.837 94.176C162.253 93.664 162.461 92.9173 162.461 91.936C162.461 90.9653 162.248 90.224 161.821 89.712C161.405 89.2 160.818 88.944 160.061 88.944C159.314 88.944 158.728 89.2 158.301 89.712C157.874 90.224 157.661 90.9653 157.661 91.936C157.661 92.9173 157.869 93.664 158.285 94.176C158.701 94.6773 159.293 94.928 160.061 94.928ZM168.178 96L164.738 87.968H166.258L169.09 94.88H168.69L171.554 87.968H173.01L169.522 96H168.178ZM180.919 95.056C180.567 95.3867 180.114 95.648 179.559 95.84C179.004 96.0213 178.439 96.112 177.863 96.112C177.02 96.112 176.295 95.9467 175.687 95.616C175.079 95.2853 174.61 94.8107 174.279 94.192C173.948 93.5627 173.783 92.816 173.783 91.952C173.783 91.12 173.943 90.3893 174.263 89.76C174.594 89.1307 175.047 88.64 175.623 88.288C176.199 87.9253 176.86 87.744 177.607 87.744C178.332 87.744 178.951 87.904 179.463 88.224C179.986 88.544 180.38 89.0027 180.647 89.6C180.924 90.1867 181.063 90.8907 181.063 91.712V91.968H175.063V91.072H180.231L179.783 91.648C179.804 90.7413 179.628 90.048 179.255 89.568C178.882 89.088 178.338 88.848 177.623 88.848C176.876 88.848 176.29 89.1147 175.863 89.648C175.447 90.1707 175.239 90.9067 175.239 91.856C175.239 92.88 175.463 93.6533 175.911 94.176C176.359 94.688 177.02 94.944 177.895 94.944C178.364 94.944 178.812 94.8693 179.239 94.72C179.666 94.56 180.071 94.3253 180.455 94.016L180.919 95.056ZM186.096 89.072V87.952H191.376V89.072H186.096ZM191.344 94.736V95.952C191.163 96.0053 190.976 96.0427 190.784 96.064C190.603 96.096 190.406 96.112 190.192 96.112C189.403 96.112 188.779 95.888 188.32 95.44C187.872 94.992 187.648 94.3307 187.648 93.456V85.904L189.104 85.392V93.296C189.104 93.712 189.163 94.0373 189.28 94.272C189.408 94.496 189.574 94.656 189.776 94.752C189.99 94.8373 190.23 94.88 190.496 94.88C190.646 94.88 190.784 94.8693 190.912 94.848C191.04 94.8267 191.184 94.7893 191.344 94.736ZM196.311 96.112C195.532 96.112 194.85 95.9413 194.263 95.6C193.687 95.2587 193.239 94.7787 192.919 94.16C192.599 93.5307 192.439 92.7893 192.439 91.936C192.439 91.0933 192.599 90.3573 192.919 89.728C193.239 89.088 193.687 88.5973 194.263 88.256C194.85 87.9147 195.532 87.744 196.311 87.744C197.1 87.744 197.783 87.9147 198.359 88.256C198.935 88.5973 199.383 89.088 199.703 89.728C200.023 90.3573 200.183 91.0933 200.183 91.936C200.183 92.7893 200.023 93.5307 199.703 94.16C199.383 94.7787 198.935 95.2587 198.359 95.6C197.783 95.9413 197.1 96.112 196.311 96.112ZM196.311 94.928C197.079 94.928 197.671 94.6773 198.087 94.176C198.503 93.664 198.711 92.9173 198.711 91.936C198.711 90.9653 198.498 90.224 198.071 89.712C197.655 89.2 197.068 88.944 196.311 88.944C195.564 88.944 194.978 89.2 194.551 89.712C194.124 90.224 193.911 90.9653 193.911 91.936C193.911 92.9173 194.119 93.664 194.535 94.176C194.951 94.6773 195.543 94.928 196.311 94.928ZM209.14 96.112C207.764 96.112 206.671 95.7653 205.86 95.072L206.324 94.016C206.751 94.3467 207.194 94.592 207.652 94.752C208.122 94.9013 208.634 94.976 209.188 94.976C209.764 94.976 210.202 94.88 210.5 94.688C210.81 94.4853 210.964 94.1973 210.964 93.824C210.964 93.5253 210.858 93.2907 210.644 93.12C210.442 92.9387 210.1 92.7893 209.62 92.672L208.276 92.352C207.583 92.2027 207.05 91.936 206.676 91.552C206.314 91.168 206.132 90.704 206.132 90.16C206.132 89.6907 206.26 89.2747 206.516 88.912C206.783 88.5493 207.151 88.2667 207.62 88.064C208.09 87.8507 208.644 87.744 209.284 87.744C209.85 87.744 210.383 87.8347 210.884 88.016C211.396 88.1973 211.828 88.4587 212.18 88.8L211.716 89.84C211.332 89.52 210.938 89.2853 210.532 89.136C210.127 88.976 209.706 88.896 209.268 88.896C208.724 88.896 208.298 89.0027 207.988 89.216C207.69 89.4293 207.54 89.7173 207.54 90.08C207.54 90.3893 207.636 90.6347 207.828 90.816C208.02 90.9973 208.324 91.1413 208.74 91.248L210.1 91.584C210.868 91.744 211.434 92.0107 211.796 92.384C212.159 92.7467 212.34 93.216 212.34 93.792C212.34 94.496 212.052 95.0613 211.476 95.488C210.9 95.904 210.122 96.112 209.14 96.112ZM220.981 95.056C220.629 95.3867 220.176 95.648 219.621 95.84C219.067 96.0213 218.501 96.112 217.925 96.112C217.083 96.112 216.357 95.9467 215.749 95.616C215.141 95.2853 214.672 94.8107 214.341 94.192C214.011 93.5627 213.845 92.816 213.845 91.952C213.845 91.12 214.005 90.3893 214.325 89.76C214.656 89.1307 215.109 88.64 215.685 88.288C216.261 87.9253 216.923 87.744 217.669 87.744C218.395 87.744 219.013 87.904 219.525 88.224C220.048 88.544 220.443 89.0027 220.709 89.6C220.987 90.1867 221.125 90.8907 221.125 91.712V91.968H215.125V91.072H220.293L219.845 91.648C219.867 90.7413 219.691 90.048 219.317 89.568C218.944 89.088 218.4 88.848 217.685 88.848C216.939 88.848 216.352 89.1147 215.925 89.648C215.509 90.1707 215.301 90.9067 215.301 91.856C215.301 92.88 215.525 93.6533 215.973 94.176C216.421 94.688 217.083 94.944 217.957 94.944C218.427 94.944 218.875 94.8693 219.301 94.72C219.728 94.56 220.133 94.3253 220.517 94.016L220.981 95.056ZM229.7 95.056C229.348 95.3867 228.895 95.648 228.34 95.84C227.785 96.0213 227.22 96.112 226.644 96.112C225.801 96.112 225.076 95.9467 224.468 95.616C223.86 95.2853 223.391 94.8107 223.06 94.192C222.729 93.5627 222.564 92.816 222.564 91.952C222.564 91.12 222.724 90.3893 223.044 89.76C223.375 89.1307 223.828 88.64 224.404 88.288C224.98 87.9253 225.641 87.744 226.388 87.744C227.113 87.744 227.732 87.904 228.244 88.224C228.767 88.544 229.161 89.0027 229.428 89.6C229.705 90.1867 229.844 90.8907 229.844 91.712V91.968H223.844V91.072H229.012L228.564 91.648C228.585 90.7413 228.409 90.048 228.036 89.568C227.663 89.088 227.119 88.848 226.404 88.848C225.657 88.848 225.071 89.1147 224.644 89.648C224.228 90.1707 224.02 90.9067 224.02 91.856C224.02 92.88 224.244 93.6533 224.692 94.176C225.14 94.688 225.801 94.944 226.676 94.944C227.145 94.944 227.593 94.8693 228.02 94.72C228.447 94.56 228.852 94.3253 229.236 94.016L229.7 95.056ZM19.864 119.632L19.56 118.512C20.0507 118.395 20.4613 118.256 20.792 118.096C21.1333 117.947 21.416 117.749 21.64 117.504C21.864 117.269 22.0613 116.955 22.232 116.56L22.76 115.36L23.096 114.88L25.96 107.952H27.416L23.656 116.688C23.368 117.349 23.0373 117.877 22.664 118.272C22.2907 118.677 21.8693 118.981 21.4 119.184C20.9413 119.387 20.4293 119.536 19.864 119.632ZM22.776 116.448L19.144 107.952H20.664L23.496 114.88L22.776 116.448ZM32.0611 116.112C31.2825 116.112 30.5998 115.941 30.0131 115.6C29.4371 115.259 28.9891 114.779 28.6691 114.16C28.3491 113.531 28.1891 112.789 28.1891 111.936C28.1891 111.093 28.3491 110.357 28.6691 109.728C28.9891 109.088 29.4371 108.597 30.0131 108.256C30.5998 107.915 31.2825 107.744 32.0611 107.744C32.8505 107.744 33.5331 107.915 34.1091 108.256C34.6851 108.597 35.1331 109.088 35.4531 109.728C35.7731 110.357 35.9331 111.093 35.9331 111.936C35.9331 112.789 35.7731 113.531 35.4531 114.16C35.1331 114.779 34.6851 115.259 34.1091 115.6C33.5331 115.941 32.8505 116.112 32.0611 116.112ZM32.0611 114.928C32.8291 114.928 33.4211 114.677 33.8371 114.176C34.2531 113.664 34.4611 112.917 34.4611 111.936C34.4611 110.965 34.2478 110.224 33.8211 109.712C33.4051 109.2 32.8185 108.944 32.0611 108.944C31.3145 108.944 30.7278 109.2 30.3011 109.712C29.8745 110.224 29.6611 110.965 29.6611 111.936C29.6611 112.917 29.8691 113.664 30.2851 114.176C30.7011 114.677 31.2931 114.928 32.0611 114.928ZM40.7675 116.112C39.7968 116.112 39.0662 115.845 38.5755 115.312C38.0955 114.768 37.8555 113.968 37.8555 112.912V107.952H39.3115V112.896C39.3115 113.589 39.4502 114.101 39.7275 114.432C40.0155 114.752 40.4528 114.912 41.0395 114.912C41.7222 114.912 42.2715 114.693 42.6875 114.256C43.1035 113.808 43.3115 113.216 43.3115 112.48V107.952H44.7835V116H43.3595V114.272L43.5515 114.192C43.3382 114.821 42.9808 115.301 42.4795 115.632C41.9782 115.952 41.4075 116.112 40.7675 116.112ZM47.2004 116V110.208C47.2004 109.835 47.1897 109.461 47.1684 109.088C47.1577 108.704 47.1257 108.325 47.0724 107.952H48.4484L48.6244 109.952L48.4484 109.888C48.587 109.184 48.9017 108.656 49.3924 108.304C49.8937 107.941 50.4537 107.76 51.0724 107.76C51.2217 107.76 51.355 107.771 51.4724 107.792C51.6004 107.803 51.7177 107.824 51.8244 107.856L51.8084 109.184C51.5417 109.088 51.243 109.04 50.9124 109.04C50.3684 109.04 49.931 109.157 49.6004 109.392C49.2697 109.627 49.0297 109.925 48.8804 110.288C48.731 110.651 48.6564 111.04 48.6564 111.456V116H47.2004ZM57.3254 119.456V110.208C57.3254 109.835 57.3147 109.461 57.2934 109.088C57.2827 108.704 57.2507 108.325 57.1974 107.952H58.5734L58.7174 109.6L58.5894 109.808C58.7707 109.147 59.1174 108.64 59.6294 108.288C60.1414 107.925 60.7547 107.744 61.4694 107.744C62.1734 107.744 62.792 107.925 63.3254 108.288C63.8694 108.64 64.2907 109.131 64.5894 109.76C64.8987 110.389 65.0534 111.125 65.0534 111.968C65.0534 112.811 64.8987 113.547 64.5894 114.176C64.2907 114.795 63.8747 115.275 63.3414 115.616C62.808 115.947 62.184 116.112 61.4694 116.112C60.7547 116.112 60.1414 115.936 59.6294 115.584C59.1174 115.221 58.7707 114.715 58.5894 114.064L58.7814 113.888V119.456H57.3254ZM61.1654 114.928C61.9227 114.928 62.5094 114.672 62.9254 114.16C63.3414 113.648 63.5494 112.917 63.5494 111.968C63.5494 111.019 63.3414 110.277 62.9254 109.744C62.5094 109.211 61.9227 108.944 61.1654 108.944C60.3974 108.944 59.8054 109.205 59.3894 109.728C58.9734 110.24 58.7654 110.976 58.7654 111.936C58.7654 112.896 58.9734 113.637 59.3894 114.16C59.8054 114.672 60.3974 114.928 61.1654 114.928ZM66.9816 116V110.208C66.9816 109.835 66.971 109.461 66.9496 109.088C66.939 108.704 66.907 108.325 66.8536 107.952H68.2296L68.4056 109.952L68.2296 109.888C68.3683 109.184 68.683 108.656 69.1736 108.304C69.675 107.941 70.235 107.76 70.8536 107.76C71.003 107.76 71.1363 107.771 71.2536 107.792C71.3816 107.803 71.499 107.824 71.6056 107.856L71.5896 109.184C71.323 109.088 71.0243 109.04 70.6936 109.04C70.1496 109.04 69.7123 109.157 69.3816 109.392C69.051 109.627 68.811 109.925 68.6616 110.288C68.5123 110.651 68.4376 111.04 68.4376 111.456V116H66.9816ZM79.3876 115.056C79.0356 115.387 78.5823 115.648 78.0276 115.84C77.473 116.021 76.9076 116.112 76.3316 116.112C75.489 116.112 74.7636 115.947 74.1556 115.616C73.5476 115.285 73.0783 114.811 72.7476 114.192C72.417 113.563 72.2516 112.816 72.2516 111.952C72.2516 111.12 72.4116 110.389 72.7316 109.76C73.0623 109.131 73.5156 108.64 74.0916 108.288C74.6676 107.925 75.329 107.744 76.0756 107.744C76.801 107.744 77.4196 107.904 77.9316 108.224C78.4543 108.544 78.849 109.003 79.1156 109.6C79.393 110.187 79.5316 110.891 79.5316 111.712V111.968H73.5316V111.072H78.6996L78.2516 111.648C78.273 110.741 78.097 110.048 77.7236 109.568C77.3503 109.088 76.8063 108.848 76.0916 108.848C75.345 108.848 74.7583 109.115 74.3316 109.648C73.9156 110.171 73.7076 110.907 73.7076 111.856C73.7076 112.88 73.9316 113.653 74.3796 114.176C74.8276 114.688 75.489 114.944 76.3636 114.944C76.833 114.944 77.281 114.869 77.7076 114.72C78.1343 114.56 78.5396 114.325 78.9236 114.016L79.3876 115.056ZM83.7246 116L80.2846 107.968H81.8046L84.6366 114.88H84.2366L87.1006 107.968H88.5566L85.0686 116H83.7246ZM89.9035 116V107.952H91.3595V116H89.9035ZM89.7755 104.48H91.4875V106.064H89.7755V104.48ZM97.1861 116.112C96.4075 116.112 95.7248 115.941 95.1381 115.6C94.5621 115.259 94.1141 114.779 93.7941 114.16C93.4741 113.531 93.3141 112.789 93.3141 111.936C93.3141 111.093 93.4741 110.357 93.7941 109.728C94.1141 109.088 94.5621 108.597 95.1381 108.256C95.7248 107.915 96.4075 107.744 97.1861 107.744C97.9755 107.744 98.6581 107.915 99.2341 108.256C99.8101 108.597 100.258 109.088 100.578 109.728C100.898 110.357 101.058 111.093 101.058 111.936C101.058 112.789 100.898 113.531 100.578 114.16C100.258 114.779 99.8101 115.259 99.2341 115.6C98.6581 115.941 97.9755 116.112 97.1861 116.112ZM97.1861 114.928C97.9541 114.928 98.5461 114.677 98.9621 114.176C99.3781 113.664 99.5861 112.917 99.5861 111.936C99.5861 110.965 99.3728 110.224 98.9461 109.712C98.5301 109.2 97.9435 108.944 97.1861 108.944C96.4395 108.944 95.8528 109.2 95.4261 109.712C94.9995 110.224 94.7861 110.965 94.7861 111.936C94.7861 112.917 94.9941 113.664 95.4101 114.176C95.8261 114.677 96.4181 114.928 97.1861 114.928ZM105.893 116.112C104.922 116.112 104.191 115.845 103.701 115.312C103.221 114.768 102.981 113.968 102.981 112.912V107.952H104.437V112.896C104.437 113.589 104.575 114.101 104.853 114.432C105.141 114.752 105.578 114.912 106.165 114.912C106.847 114.912 107.397 114.693 107.813 114.256C108.229 113.808 108.437 113.216 108.437 112.48V107.952H109.909V116H108.485V114.272L108.677 114.192C108.463 114.821 108.106 115.301 107.605 115.632C107.103 115.952 106.533 116.112 105.893 116.112ZM115.093 116.112C113.717 116.112 112.624 115.765 111.813 115.072L112.277 114.016C112.704 114.347 113.147 114.592 113.605 114.752C114.075 114.901 114.587 114.976 115.141 114.976C115.717 114.976 116.155 114.88 116.453 114.688C116.763 114.485 116.917 114.197 116.917 113.824C116.917 113.525 116.811 113.291 116.597 113.12C116.395 112.939 116.053 112.789 115.573 112.672L114.229 112.352C113.536 112.203 113.003 111.936 112.629 111.552C112.267 111.168 112.085 110.704 112.085 110.16C112.085 109.691 112.213 109.275 112.469 108.912C112.736 108.549 113.104 108.267 113.573 108.064C114.043 107.851 114.597 107.744 115.237 107.744C115.803 107.744 116.336 107.835 116.837 108.016C117.349 108.197 117.781 108.459 118.133 108.8L117.669 109.84C117.285 109.52 116.891 109.285 116.485 109.136C116.08 108.976 115.659 108.896 115.221 108.896C114.677 108.896 114.251 109.003 113.941 109.216C113.643 109.429 113.493 109.717 113.493 110.08C113.493 110.389 113.589 110.635 113.781 110.816C113.973 110.997 114.277 111.141 114.693 111.248L116.053 111.584C116.821 111.744 117.387 112.011 117.749 112.384C118.112 112.747 118.293 113.216 118.293 113.792C118.293 114.496 118.005 115.061 117.429 115.488C116.853 115.904 116.075 116.112 115.093 116.112ZM127.585 116.112C126.881 116.112 126.257 115.947 125.713 115.616C125.18 115.275 124.764 114.795 124.465 114.176C124.167 113.547 124.017 112.811 124.017 111.968C124.017 111.125 124.167 110.389 124.465 109.76C124.775 109.131 125.196 108.64 125.729 108.288C126.273 107.925 126.892 107.744 127.585 107.744C128.311 107.744 128.929 107.925 129.441 108.288C129.953 108.64 130.3 109.147 130.481 109.808L130.289 109.92V107.952H131.729V116H130.289V113.984L130.481 114.064C130.3 114.715 129.953 115.221 129.441 115.584C128.929 115.936 128.311 116.112 127.585 116.112ZM127.905 114.928C128.673 114.928 129.26 114.672 129.665 114.16C130.081 113.637 130.289 112.896 130.289 111.936C130.289 110.976 130.081 110.24 129.665 109.728C129.249 109.205 128.663 108.944 127.905 108.944C127.148 108.944 126.556 109.211 126.129 109.744C125.703 110.277 125.489 111.019 125.489 111.968C125.489 112.917 125.703 113.648 126.129 114.16C126.556 114.672 127.148 114.928 127.905 114.928ZM134.154 116V104.224H135.61V116H134.154ZM138.044 116V104.224H139.5V116H138.044ZM145.327 116.112C144.548 116.112 143.865 115.941 143.279 115.6C142.703 115.259 142.255 114.779 141.935 114.16C141.615 113.531 141.455 112.789 141.455 111.936C141.455 111.093 141.615 110.357 141.935 109.728C142.255 109.088 142.703 108.597 143.279 108.256C143.865 107.915 144.548 107.744 145.327 107.744C146.116 107.744 146.799 107.915 147.375 108.256C147.951 108.597 148.399 109.088 148.719 109.728C149.039 110.357 149.199 111.093 149.199 111.936C149.199 112.789 149.039 113.531 148.719 114.16C148.399 114.779 147.951 115.259 147.375 115.6C146.799 115.941 146.116 116.112 145.327 116.112ZM145.327 114.928C146.095 114.928 146.687 114.677 147.103 114.176C147.519 113.664 147.727 112.917 147.727 111.936C147.727 110.965 147.513 110.224 147.087 109.712C146.671 109.2 146.084 108.944 145.327 108.944C144.58 108.944 143.993 109.2 143.567 109.712C143.14 110.224 142.927 110.965 142.927 111.936C142.927 112.917 143.135 113.664 143.551 114.176C143.967 114.677 144.559 114.928 145.327 114.928ZM154.609 116.112C153.798 116.112 153.1 115.941 152.513 115.6C151.937 115.259 151.489 114.779 151.169 114.16C150.849 113.541 150.689 112.811 150.689 111.968C150.689 111.136 150.849 110.4 151.169 109.76C151.5 109.12 151.964 108.624 152.561 108.272C153.158 107.92 153.862 107.744 154.673 107.744C155.228 107.744 155.761 107.84 156.273 108.032C156.785 108.213 157.206 108.469 157.537 108.8L157.073 109.856C156.689 109.557 156.305 109.333 155.921 109.184C155.548 109.024 155.158 108.944 154.753 108.944C153.974 108.944 153.35 109.205 152.881 109.728C152.422 110.251 152.193 110.997 152.193 111.968C152.193 112.917 152.422 113.648 152.881 114.16C153.34 114.672 153.969 114.928 154.769 114.928C155.153 114.928 155.537 114.853 155.921 114.704C156.305 114.555 156.689 114.325 157.073 114.016L157.537 115.072C157.196 115.392 156.764 115.648 156.241 115.84C155.718 116.021 155.174 116.112 154.609 116.112ZM162.21 116.112C161.506 116.112 160.882 115.947 160.338 115.616C159.805 115.275 159.389 114.795 159.09 114.176C158.792 113.547 158.642 112.811 158.642 111.968C158.642 111.125 158.792 110.389 159.09 109.76C159.4 109.131 159.821 108.64 160.354 108.288C160.898 107.925 161.517 107.744 162.21 107.744C162.936 107.744 163.554 107.925 164.066 108.288C164.578 108.64 164.925 109.147 165.106 109.808L164.914 109.92V107.952H166.354V116H164.914V113.984L165.106 114.064C164.925 114.715 164.578 115.221 164.066 115.584C163.554 115.936 162.936 116.112 162.21 116.112ZM162.53 114.928C163.298 114.928 163.885 114.672 164.29 114.16C164.706 113.637 164.914 112.896 164.914 111.936C164.914 110.976 164.706 110.24 164.29 109.728C163.874 109.205 163.288 108.944 162.53 108.944C161.773 108.944 161.181 109.211 160.754 109.744C160.328 110.277 160.114 111.019 160.114 111.968C160.114 112.917 160.328 113.648 160.754 114.16C161.181 114.672 161.773 114.928 162.53 114.928ZM167.675 109.072V107.952H172.955V109.072H167.675ZM172.923 114.736V115.952C172.741 116.005 172.555 116.043 172.363 116.064C172.181 116.096 171.984 116.112 171.771 116.112C170.981 116.112 170.357 115.888 169.899 115.44C169.451 114.992 169.227 114.331 169.227 113.456V105.904L170.683 105.392V113.296C170.683 113.712 170.741 114.037 170.859 114.272C170.987 114.496 171.152 114.656 171.355 114.752C171.568 114.837 171.808 114.88 172.075 114.88C172.224 114.88 172.363 114.869 172.491 114.848C172.619 114.827 172.763 114.789 172.923 114.736ZM174.497 116V107.952H175.953V116H174.497ZM174.369 104.48H176.081V106.064H174.369V104.48ZM181.78 116.112C181.001 116.112 180.319 115.941 179.732 115.6C179.156 115.259 178.708 114.779 178.388 114.16C178.068 113.531 177.908 112.789 177.908 111.936C177.908 111.093 178.068 110.357 178.388 109.728C178.708 109.088 179.156 108.597 179.732 108.256C180.319 107.915 181.001 107.744 181.78 107.744C182.569 107.744 183.252 107.915 183.828 108.256C184.404 108.597 184.852 109.088 185.172 109.728C185.492 110.357 185.652 111.093 185.652 111.936C185.652 112.789 185.492 113.531 185.172 114.16C184.852 114.779 184.404 115.259 183.828 115.6C183.252 115.941 182.569 116.112 181.78 116.112ZM181.78 114.928C182.548 114.928 183.14 114.677 183.556 114.176C183.972 113.664 184.18 112.917 184.18 111.936C184.18 110.965 183.967 110.224 183.54 109.712C183.124 109.2 182.537 108.944 181.78 108.944C181.033 108.944 180.447 109.2 180.02 109.712C179.593 110.224 179.38 110.965 179.38 111.936C179.38 112.917 179.588 113.664 180.004 114.176C180.42 114.677 181.012 114.928 181.78 114.928ZM187.622 116V110.208C187.622 109.835 187.612 109.461 187.59 109.088C187.58 108.704 187.548 108.325 187.494 107.952H188.87L189.014 109.6L188.854 109.696C189.089 109.067 189.462 108.587 189.974 108.256C190.497 107.915 191.094 107.744 191.766 107.744C193.697 107.744 194.662 108.816 194.662 110.96V116H193.206V111.04C193.206 110.315 193.062 109.787 192.774 109.456C192.497 109.115 192.049 108.944 191.43 108.944C190.716 108.944 190.145 109.168 189.718 109.616C189.292 110.053 189.078 110.645 189.078 111.392V116H187.622ZM199.812 116.112C198.436 116.112 197.343 115.765 196.532 115.072L196.996 114.016C197.423 114.347 197.865 114.592 198.324 114.752C198.793 114.901 199.305 114.976 199.86 114.976C200.436 114.976 200.873 114.88 201.172 114.688C201.481 114.485 201.636 114.197 201.636 113.824C201.636 113.525 201.529 113.291 201.316 113.12C201.113 112.939 200.772 112.789 200.292 112.672L198.948 112.352C198.255 112.203 197.721 111.936 197.348 111.552C196.985 111.168 196.804 110.704 196.804 110.16C196.804 109.691 196.932 109.275 197.188 108.912C197.455 108.549 197.823 108.267 198.292 108.064C198.761 107.851 199.316 107.744 199.956 107.744C200.521 107.744 201.055 107.835 201.556 108.016C202.068 108.197 202.5 108.459 202.852 108.8L202.388 109.84C202.004 109.52 201.609 109.285 201.204 109.136C200.799 108.976 200.377 108.896 199.94 108.896C199.396 108.896 198.969 109.003 198.66 109.216C198.361 109.429 198.212 109.717 198.212 110.08C198.212 110.389 198.308 110.635 198.5 110.816C198.692 110.997 198.996 111.141 199.412 111.248L200.772 111.584C201.54 111.744 202.105 112.011 202.468 112.384C202.831 112.747 203.012 113.216 203.012 113.792C203.012 114.496 202.724 115.061 202.148 115.488C201.572 115.904 200.793 116.112 199.812 116.112Z" fill="#969EAC"/>
<path d="M20.66 63V48.76H26.56C28.0667 48.76 29.2333 49.12 30.06 49.84C30.9 50.56 31.32 51.5533 31.32 52.82C31.32 54.06 30.9 55.0467 30.06 55.78C29.22 56.5133 28.0533 56.88 26.56 56.88H22.72V63H20.66ZM22.72 55.24H26.36C27.3467 55.24 28.0867 55.0333 28.58 54.62C29.0733 54.1933 29.32 53.5933 29.32 52.82C29.32 52.0467 29.0733 51.4533 28.58 51.04C28.0867 50.6267 27.3467 50.42 26.36 50.42H22.72V55.24ZM33.4288 63V55.76C33.4288 55.2933 33.4154 54.82 33.3888 54.34C33.3754 53.86 33.3354 53.3867 33.2688 52.92H35.1888L35.4288 55.46L35.1888 55.36C35.3621 54.48 35.7554 53.8133 36.3688 53.36C36.9954 52.9067 37.6954 52.68 38.4688 52.68C38.6554 52.68 38.8288 52.6933 38.9888 52.72C39.1488 52.7467 39.2954 52.78 39.4288 52.82L39.3888 54.66C39.0288 54.5267 38.6354 54.46 38.2088 54.46C37.5554 54.46 37.0288 54.6 36.6288 54.88C36.2288 55.1467 35.9288 55.5067 35.7288 55.96C35.5421 56.4 35.4488 56.8733 35.4488 57.38V63H33.4288ZM49.193 61.84C48.7396 62.24 48.1663 62.56 47.473 62.8C46.7796 63.0267 46.073 63.14 45.353 63.14C44.2863 63.14 43.3663 62.9333 42.593 62.52C41.8196 62.1067 41.2263 61.5067 40.813 60.72C40.3996 59.9333 40.193 59 40.193 57.92C40.193 56.88 40.393 55.9667 40.793 55.18C41.2063 54.3933 41.773 53.78 42.493 53.34C43.213 52.9 44.0463 52.68 44.993 52.68C45.8996 52.68 46.6796 52.88 47.333 53.28C47.9863 53.68 48.4863 54.2533 48.833 55C49.193 55.7333 49.373 56.62 49.373 57.66V58H41.953L41.973 56.8H48.193L47.613 57.52C47.6263 56.44 47.413 55.6133 46.973 55.04C46.533 54.4667 45.8863 54.18 45.033 54.18C44.1396 54.18 43.4396 54.5 42.933 55.14C42.4263 55.7667 42.173 56.6467 42.173 57.78C42.173 59.0467 42.4463 59.9933 42.993 60.62C43.5396 61.2333 44.3396 61.54 45.393 61.54C45.9663 61.54 46.5196 61.4467 47.053 61.26C47.5863 61.0733 48.093 60.7867 48.573 60.4L49.193 61.84ZM54.5142 63L50.1942 52.94H52.2942L55.7342 61.36H55.2142L58.6942 52.94H60.7142L56.3342 63H54.5142ZM62.2764 63V52.92H64.2964V63H62.2764ZM62.1364 48.52H64.4764V50.64H62.1364V48.52ZM71.5973 63.14C70.5973 63.14 69.724 62.9267 68.9773 62.5C68.244 62.0733 67.6773 61.4733 67.2773 60.7C66.8773 59.9133 66.6773 58.98 66.6773 57.9C66.6773 56.8467 66.8773 55.9267 67.2773 55.14C67.6773 54.3533 68.244 53.7467 68.9773 53.32C69.724 52.8933 70.5973 52.68 71.5973 52.68C72.584 52.68 73.444 52.8933 74.1773 53.32C74.924 53.7467 75.4973 54.3533 75.8973 55.14C76.3107 55.9267 76.5173 56.8467 76.5173 57.9C76.5173 58.98 76.3107 59.9133 75.8973 60.7C75.4973 61.4733 74.924 62.0733 74.1773 62.5C73.444 62.9267 72.584 63.14 71.5973 63.14ZM71.5973 61.54C72.504 61.54 73.204 61.2333 73.6973 60.62C74.204 60.0067 74.4573 59.1 74.4573 57.9C74.4573 56.74 74.204 55.8533 73.6973 55.24C73.204 54.6133 72.504 54.3 71.5973 54.3C70.6907 54.3 69.9773 54.6133 69.4573 55.24C68.9507 55.8533 68.6973 56.74 68.6973 57.9C68.6973 59.1 68.944 60.0067 69.4373 60.62C69.944 61.2333 70.664 61.54 71.5973 61.54ZM82.4584 63.14C81.2451 63.14 80.3318 62.8067 79.7184 62.14C79.1051 61.46 78.7984 60.4467 78.7984 59.1V52.92H80.8184V59.08C80.8184 59.9067 80.9851 60.52 81.3184 60.92C81.6651 61.3067 82.1918 61.5 82.8984 61.5C83.7118 61.5 84.3651 61.2333 84.8584 60.7C85.3651 60.1667 85.6184 59.46 85.6184 58.58V52.92H87.6384V63H85.6784V60.86L85.9184 60.78C85.6384 61.5533 85.1918 62.14 84.5784 62.54C83.9651 62.94 83.2584 63.14 82.4584 63.14ZM94.0977 63.14C92.3377 63.14 90.9443 62.7133 89.9177 61.86L90.5377 60.4C91.071 60.8133 91.631 61.12 92.2177 61.32C92.8177 61.5067 93.4643 61.6 94.1577 61.6C94.851 61.6 95.3777 61.4867 95.7377 61.26C96.0977 61.02 96.2777 60.6867 96.2777 60.26C96.2777 59.9 96.151 59.62 95.8977 59.42C95.6577 59.2067 95.2443 59.0267 94.6577 58.88L92.9577 58.48C92.0777 58.2933 91.4043 57.9667 90.9377 57.5C90.4843 57.02 90.2577 56.4267 90.2577 55.72C90.2577 55.12 90.4243 54.5933 90.7577 54.14C91.091 53.6867 91.5577 53.3333 92.1577 53.08C92.7577 52.8133 93.4577 52.68 94.2577 52.68C94.9777 52.68 95.6577 52.7933 96.2977 53.02C96.9377 53.2333 97.491 53.5533 97.9577 53.98L97.3377 55.4C96.8443 55.0133 96.3377 54.7267 95.8177 54.54C95.311 54.34 94.791 54.24 94.2577 54.24C93.6043 54.24 93.0977 54.3667 92.7377 54.62C92.3777 54.86 92.1977 55.2 92.1977 55.64C92.1977 56 92.3043 56.2867 92.5177 56.5C92.7443 56.7 93.1177 56.86 93.6377 56.98L95.3377 57.4C96.311 57.6133 97.0243 57.9533 97.4777 58.42C97.931 58.8867 98.1577 59.4867 98.1577 60.22C98.1577 61.1133 97.791 61.8267 97.0577 62.36C96.3377 62.88 95.351 63.14 94.0977 63.14ZM109.751 63.14C108.857 63.14 108.071 62.9333 107.391 62.52C106.724 62.0933 106.204 61.4933 105.831 60.72C105.471 59.9333 105.291 59.0133 105.291 57.96C105.291 56.9067 105.477 55.9867 105.851 55.2C106.224 54.4 106.744 53.78 107.411 53.34C108.091 52.9 108.871 52.68 109.751 52.68C110.644 52.68 111.404 52.9 112.031 53.34C112.671 53.7667 113.104 54.38 113.331 55.18L113.091 55.34V52.92H115.091V63H113.091V60.54L113.331 60.64C113.104 61.44 112.671 62.06 112.031 62.5C111.404 62.9267 110.644 63.14 109.751 63.14ZM110.231 61.54C111.137 61.54 111.837 61.2267 112.331 60.6C112.837 59.9733 113.091 59.08 113.091 57.92C113.091 56.76 112.837 55.8667 112.331 55.24C111.837 54.6133 111.137 54.3 110.231 54.3C109.311 54.3 108.591 54.6267 108.071 55.28C107.564 55.92 107.311 56.8133 107.311 57.96C107.311 59.1067 107.564 59.9933 108.071 60.62C108.591 61.2333 109.311 61.54 110.231 61.54ZM118.038 63V48.28H120.058V63H118.038ZM122.999 63V48.28H125.019V63H122.999ZM132.32 63.14C131.32 63.14 130.447 62.9267 129.7 62.5C128.967 62.0733 128.4 61.4733 128 60.7C127.6 59.9133 127.4 58.98 127.4 57.9C127.4 56.8467 127.6 55.9267 128 55.14C128.4 54.3533 128.967 53.7467 129.7 53.32C130.447 52.8933 131.32 52.68 132.32 52.68C133.307 52.68 134.167 52.8933 134.9 53.32C135.647 53.7467 136.22 54.3533 136.62 55.14C137.033 55.9267 137.24 56.8467 137.24 57.9C137.24 58.98 137.033 59.9133 136.62 60.7C136.22 61.4733 135.647 62.0733 134.9 62.5C134.167 62.9267 133.307 63.14 132.32 63.14ZM132.32 61.54C133.227 61.54 133.927 61.2333 134.42 60.62C134.927 60.0067 135.18 59.1 135.18 57.9C135.18 56.74 134.927 55.8533 134.42 55.24C133.927 54.6133 133.227 54.3 132.32 54.3C131.413 54.3 130.7 54.6133 130.18 55.24C129.673 55.8533 129.42 56.74 129.42 57.9C129.42 59.1 129.667 60.0067 130.16 60.62C130.667 61.2333 131.387 61.54 132.32 61.54ZM143.961 63.14C142.948 63.14 142.068 62.9267 141.321 62.5C140.588 62.0733 140.021 61.4733 139.621 60.7C139.221 59.9267 139.021 59.0133 139.021 57.96C139.021 56.9067 139.228 55.9867 139.641 55.2C140.054 54.4 140.634 53.78 141.381 53.34C142.141 52.9 143.034 52.68 144.061 52.68C144.754 52.68 145.428 52.7933 146.081 53.02C146.734 53.2467 147.268 53.5667 147.681 53.98L147.061 55.44C146.594 55.0667 146.121 54.7867 145.641 54.6C145.174 54.4133 144.694 54.32 144.201 54.32C143.241 54.32 142.481 54.6333 141.921 55.26C141.374 55.8867 141.101 56.78 141.101 57.94C141.101 59.1 141.374 59.9867 141.921 60.6C142.468 61.2133 143.228 61.52 144.201 61.52C144.681 61.52 145.161 61.4267 145.641 61.24C146.121 61.0533 146.594 60.7733 147.061 60.4L147.681 61.86C147.254 62.26 146.708 62.5733 146.041 62.8C145.374 63.0267 144.681 63.14 143.961 63.14ZM153.462 63.14C152.568 63.14 151.782 62.9333 151.102 62.52C150.435 62.0933 149.915 61.4933 149.542 60.72C149.182 59.9333 149.002 59.0133 149.002 57.96C149.002 56.9067 149.188 55.9867 149.562 55.2C149.935 54.4 150.455 53.78 151.122 53.34C151.802 52.9 152.582 52.68 153.462 52.68C154.355 52.68 155.115 52.9 155.742 53.34C156.382 53.7667 156.815 54.38 157.042 55.18L156.802 55.34V52.92H158.802V63H156.802V60.54L157.042 60.64C156.815 61.44 156.382 62.06 155.742 62.5C155.115 62.9267 154.355 63.14 153.462 63.14ZM153.942 61.54C154.848 61.54 155.548 61.2267 156.042 60.6C156.548 59.9733 156.802 59.08 156.802 57.92C156.802 56.76 156.548 55.8667 156.042 55.24C155.548 54.6133 154.848 54.3 153.942 54.3C153.022 54.3 152.302 54.6267 151.782 55.28C151.275 55.92 151.022 56.8133 151.022 57.96C151.022 59.1067 151.275 59.9933 151.782 60.62C152.302 61.2333 153.022 61.54 153.942 61.54ZM160.409 54.48V52.92H167.169V54.48H160.409ZM167.149 61.28V62.92C166.909 63 166.669 63.0533 166.429 63.08C166.189 63.12 165.929 63.14 165.649 63.14C164.622 63.14 163.816 62.8533 163.229 62.28C162.656 61.6933 162.369 60.8333 162.369 59.7V50.4L164.389 49.7V59.54C164.389 60.0333 164.462 60.42 164.609 60.7C164.756 60.9667 164.956 61.16 165.209 61.28C165.476 61.3867 165.769 61.44 166.089 61.44C166.276 61.44 166.449 61.4267 166.609 61.4C166.769 61.3733 166.949 61.3333 167.149 61.28ZM169.015 63V52.92H171.035V63H169.015ZM168.875 48.52H171.215V50.64H168.875V48.52ZM178.336 63.14C177.336 63.14 176.462 62.9267 175.716 62.5C174.982 62.0733 174.416 61.4733 174.016 60.7C173.616 59.9133 173.416 58.98 173.416 57.9C173.416 56.8467 173.616 55.9267 174.016 55.14C174.416 54.3533 174.982 53.7467 175.716 53.32C176.462 52.8933 177.336 52.68 178.336 52.68C179.322 52.68 180.182 52.8933 180.916 53.32C181.662 53.7467 182.236 54.3533 182.636 55.14C183.049 55.9267 183.256 56.8467 183.256 57.9C183.256 58.98 183.049 59.9133 182.636 60.7C182.236 61.4733 181.662 62.0733 180.916 62.5C180.182 62.9267 179.322 63.14 178.336 63.14ZM178.336 61.54C179.242 61.54 179.942 61.2333 180.436 60.62C180.942 60.0067 181.196 59.1 181.196 57.9C181.196 56.74 180.942 55.8533 180.436 55.24C179.942 54.6133 179.242 54.3 178.336 54.3C177.429 54.3 176.716 54.6133 176.196 55.24C175.689 55.8533 175.436 56.74 175.436 57.9C175.436 59.1 175.682 60.0067 176.176 60.62C176.682 61.2333 177.402 61.54 178.336 61.54ZM185.597 63V55.76C185.597 55.2933 185.583 54.82 185.557 54.34C185.543 53.86 185.503 53.3867 185.437 52.92H187.357L187.537 54.96L187.337 55.08C187.63 54.2933 188.097 53.7 188.737 53.3C189.39 52.8867 190.137 52.68 190.977 52.68C193.39 52.68 194.597 54.0333 194.597 56.74V63H192.577V56.82C192.577 55.9533 192.403 55.32 192.057 54.92C191.71 54.52 191.177 54.32 190.457 54.32C189.59 54.32 188.897 54.5867 188.377 55.12C187.87 55.6533 187.617 56.3667 187.617 57.26V63H185.597ZM200.992 63.14C199.232 63.14 197.839 62.7133 196.812 61.86L197.432 60.4C197.966 60.8133 198.526 61.12 199.112 61.32C199.712 61.5067 200.359 61.6 201.052 61.6C201.746 61.6 202.272 61.4867 202.632 61.26C202.992 61.02 203.172 60.6867 203.172 60.26C203.172 59.9 203.046 59.62 202.792 59.42C202.552 59.2067 202.139 59.0267 201.552 58.88L199.852 58.48C198.972 58.2933 198.299 57.9667 197.832 57.5C197.379 57.02 197.152 56.4267 197.152 55.72C197.152 55.12 197.319 54.5933 197.652 54.14C197.986 53.6867 198.452 53.3333 199.052 53.08C199.652 52.8133 200.352 52.68 201.152 52.68C201.872 52.68 202.552 52.7933 203.192 53.02C203.832 53.2333 204.386 53.5533 204.852 53.98L204.232 55.4C203.739 55.0133 203.232 54.7267 202.712 54.54C202.206 54.34 201.686 54.24 201.152 54.24C200.499 54.24 199.992 54.3667 199.632 54.62C199.272 54.86 199.092 55.2 199.092 55.64C199.092 56 199.199 56.2867 199.412 56.5C199.639 56.7 200.012 56.86 200.532 56.98L202.232 57.4C203.206 57.6133 203.919 57.9533 204.372 58.42C204.826 58.8867 205.052 59.4867 205.052 60.22C205.052 61.1133 204.686 61.8267 203.952 62.36C203.232 62.88 202.246 63.14 200.992 63.14Z" fill="#434A55"/>
<path d="M344.752 13.75H367.252M350.752 10V4.75M361.252 10V4.75M346.252 27.25H365.752C366.58 27.25 367.252 26.5784 367.252 25.75V9.25C367.252 8.42157 366.58 7.75 365.752 7.75H346.252C345.424 7.75 344.752 8.42157 344.752 9.25V25.75C344.752 26.5784 345.424 27.25 346.252 27.25Z" stroke="#534CEA" stroke-width="1.5" stroke-linecap="round" stroke-linejoin="round"/>
<g opacity="0.4">
<path d="M215 22L219.5 17.5L215 13" stroke="#969EAC" stroke-width="1.5" stroke-linejoin="round"/>
</g>
<path d="M18.86 32.984V30.996C20.0173 31.2013 20.932 31.248 21.604 31.136C22.276 31.0427 22.752 30.716 23.032 30.156C23.312 29.6147 23.452 28.7933 23.452 27.692V8.064H25.748V27.72C25.748 29.2693 25.524 30.4733 25.076 31.332C24.628 32.2093 23.9 32.7693 22.892 33.012C21.884 33.2733 20.54 33.264 18.86 32.984ZM35.3828 28.196C33.7028 28.196 32.4335 27.7293 31.5748 26.796C30.7348 25.8627 30.3148 24.4813 30.3148 22.652V13.916H32.5828V22.596C32.5828 23.8653 32.8442 24.7987 33.3668 25.396C33.8895 25.9933 34.6828 26.292 35.7468 26.292C36.9975 26.292 38.0055 25.8907 38.7708 25.088C39.5362 24.2853 39.9188 23.212 39.9188 21.868V13.916H42.1868V28H39.9748V24.948L40.3108 24.78C39.9375 25.9 39.3028 26.7493 38.4068 27.328C37.5295 27.9067 36.5215 28.196 35.3828 28.196ZM46.559 28V17.864C46.559 17.2107 46.5403 16.5573 46.503 15.904C46.4843 15.232 46.4283 14.5693 46.335 13.916H48.491L48.743 16.828L48.463 17.052C48.855 15.9133 49.5083 15.0547 50.423 14.476C51.3377 13.8787 52.3923 13.58 53.587 13.58C56.9657 13.58 58.655 15.4373 58.655 19.152V28H56.387V19.264C56.387 17.9573 56.1257 17.0053 55.603 16.408C55.0803 15.792 54.259 15.484 53.139 15.484C51.8323 15.484 50.787 15.8853 50.003 16.688C49.219 17.4907 48.827 18.5733 48.827 19.936V28H46.559ZM74.4739 26.32C73.8579 26.8987 73.0646 27.356 72.0939 27.692C71.1419 28.028 70.1619 28.196 69.1539 28.196C67.6979 28.196 66.4379 27.9067 65.3739 27.328C64.3286 26.7493 63.5166 25.9187 62.9379 24.836C62.3779 23.7347 62.0979 22.428 62.0979 20.916C62.0979 19.46 62.3779 18.1813 62.9379 17.08C63.4979 15.9787 64.2726 15.12 65.2619 14.504C66.2699 13.888 67.4272 13.58 68.7339 13.58C69.9846 13.58 71.0579 13.86 71.9539 14.42C72.8499 14.9613 73.5312 15.7453 73.9979 16.772C74.4832 17.7987 74.7259 19.0307 74.7259 20.468V20.888H64.0859V19.404H73.4379L72.7099 20.44C72.7472 18.7973 72.4206 17.5373 71.7299 16.66C71.0579 15.7827 70.0686 15.344 68.7619 15.344C67.3992 15.344 66.3259 15.8293 65.5419 16.8C64.7766 17.752 64.3939 19.0773 64.3939 20.776C64.3939 22.6053 64.7952 23.9867 65.5979 24.92C66.4192 25.8533 67.6139 26.32 69.1819 26.32C70.0032 26.32 70.7872 26.1893 71.5339 25.928C72.2992 25.648 73.0272 25.228 73.7179 24.668L74.4739 26.32ZM91.4892 28.196C90.2012 28.196 88.9598 27.9813 87.7652 27.552C86.5892 27.1227 85.5905 26.516 84.7692 25.732L85.6652 23.968C86.5612 24.7333 87.4852 25.312 88.4372 25.704C89.3892 26.0773 90.3878 26.264 91.4332 26.264C92.8518 26.264 93.9252 25.9467 94.6532 25.312C95.3998 24.6773 95.7732 23.744 95.7732 22.512C95.7732 21.28 95.3905 20.3653 94.6252 19.768C93.8598 19.152 92.7118 18.844 91.1812 18.844H88.8852V16.912H90.7332C92.2078 16.912 93.3372 16.5853 94.1212 15.932C94.9052 15.2787 95.2972 14.3453 95.2972 13.132C95.2972 12.0493 94.9705 11.2187 94.3172 10.64C93.6825 10.0613 92.7772 9.772 91.6012 9.772C90.6118 9.772 89.6505 9.968 88.7172 10.36C87.7838 10.7333 86.8598 11.3027 85.9452 12.068L85.0772 10.304C85.8798 9.53867 86.8692 8.94133 88.0452 8.512C89.2212 8.064 90.4345 7.84 91.6852 7.84C92.8798 7.84 93.9252 8.05467 94.8212 8.484C95.7172 8.89467 96.3985 9.48267 96.8652 10.248C97.3505 11.0133 97.5932 11.9187 97.5932 12.964C97.5932 14.196 97.2665 15.2507 96.6132 16.128C95.9785 16.9867 95.1012 17.5747 93.9812 17.892L93.8972 17.612C95.2412 17.892 96.2678 18.4613 96.9772 19.32C97.6865 20.1787 98.0412 21.2707 98.0412 22.596C98.0412 24.332 97.4532 25.704 96.2772 26.712C95.1012 27.7013 93.5052 28.196 91.4892 28.196ZM108.474 28.224C106.197 28.224 104.461 27.3653 103.266 25.648C102.09 23.912 101.502 21.3733 101.502 18.032C101.502 14.6907 102.09 12.1613 103.266 10.444C104.442 8.708 106.178 7.84 108.474 7.84C110.77 7.84 112.506 8.708 113.682 10.444C114.858 12.1613 115.446 14.6813 115.446 18.004C115.446 21.3453 114.849 23.884 113.654 25.62C112.478 27.356 110.752 28.224 108.474 28.224ZM108.474 26.292C110.061 26.292 111.228 25.62 111.974 24.276C112.74 22.932 113.122 20.8413 113.122 18.004C113.122 15.1667 112.74 13.0947 111.974 11.788C111.228 10.4627 110.061 9.8 108.474 9.8C106.888 9.8 105.712 10.4627 104.946 11.788C104.2 13.1133 103.826 15.1853 103.826 18.004C103.826 20.8413 104.2 22.932 104.946 24.276C105.712 25.62 106.888 26.292 108.474 26.292ZM119.831 31.22L118.767 30.408C119.271 29.8667 119.607 29.372 119.775 28.924C119.943 28.476 120.027 28.0187 120.027 27.552L120.699 28H118.655V25.116H121.539V27.16C121.539 27.9067 121.409 28.6067 121.147 29.26C120.905 29.932 120.466 30.5853 119.831 31.22ZM132.969 28V26.264L139.941 18.536C140.874 17.4907 141.555 16.548 141.985 15.708C142.414 14.868 142.629 14.028 142.629 13.188C142.629 12.0867 142.311 11.2467 141.677 10.668C141.042 10.0707 140.137 9.772 138.961 9.772C137.99 9.772 137.038 9.968 136.105 10.36C135.171 10.7333 134.238 11.3027 133.305 12.068L132.437 10.304C133.221 9.55733 134.21 8.96 135.405 8.512C136.599 8.064 137.803 7.84 139.017 7.84C140.23 7.84 141.275 8.05467 142.153 8.484C143.049 8.89467 143.739 9.492 144.225 10.276C144.71 11.06 144.953 11.9933 144.953 13.076C144.953 14.2147 144.691 15.316 144.169 16.38C143.665 17.4253 142.815 18.6013 141.621 19.908L134.901 27.188L134.733 26.068H145.793V28H132.969ZM155.834 28.224C153.556 28.224 151.82 27.3653 150.626 25.648C149.45 23.912 148.862 21.3733 148.862 18.032C148.862 14.6907 149.45 12.1613 150.626 10.444C151.802 8.708 153.538 7.84 155.834 7.84C158.13 7.84 159.866 8.708 161.042 10.444C162.218 12.1613 162.806 14.6813 162.806 18.004C162.806 21.3453 162.208 23.884 161.014 25.62C159.838 27.356 158.111 28.224 155.834 28.224ZM155.834 26.292C157.42 26.292 158.587 25.62 159.334 24.276C160.099 22.932 160.482 20.8413 160.482 18.004C160.482 15.1667 160.099 13.0947 159.334 11.788C158.587 10.4627 157.42 9.8 155.834 9.8C154.247 9.8 153.071 10.4627 152.306 11.788C151.559 13.1133 151.186 15.1853 151.186 18.004C151.186 20.8413 151.559 22.932 152.306 24.276C153.071 25.62 154.247 26.292 155.834 26.292ZM166.547 28V26.264L173.519 18.536C174.452 17.4907 175.133 16.548 175.563 15.708C175.992 14.868 176.207 14.028 176.207 13.188C176.207 12.0867 175.889 11.2467 175.255 10.668C174.62 10.0707 173.715 9.772 172.539 9.772C171.568 9.772 170.616 9.968 169.683 10.36C168.749 10.7333 167.816 11.3027 166.883 12.068L166.015 10.304C166.799 9.55733 167.788 8.96 168.983 8.512C170.177 8.064 171.381 7.84 172.595 7.84C173.808 7.84 174.853 8.05467 175.731 8.484C176.627 8.89467 177.317 9.492 177.803 10.276C178.288 11.06 178.531 11.9933 178.531 13.076C178.531 14.2147 178.269 15.316 177.747 16.38C177.243 17.4253 176.393 18.6013 175.199 19.908L168.479 27.188L168.311 26.068H179.371V28H166.547ZM189.412 28.224C187.134 28.224 185.398 27.3653 184.204 25.648C183.028 23.912 182.44 21.3733 182.44 18.032C182.44 14.6907 183.028 12.1613 184.204 10.444C185.38 8.708 187.116 7.84 189.412 7.84C191.708 7.84 193.444 8.708 194.62 10.444C195.796 12.1613 196.384 14.6813 196.384 18.004C196.384 21.3453 195.786 23.884 194.592 25.62C193.416 27.356 191.689 28.224 189.412 28.224ZM189.412 26.292C190.998 26.292 192.165 25.62 192.912 24.276C193.677 22.932 194.06 20.8413 194.06 18.004C194.06 15.1667 193.677 13.0947 192.912 11.788C192.165 10.4627 190.998 9.8 189.412 9.8C187.825 9.8 186.649 10.4627 185.884 11.788C185.137 13.1133 184.764 15.1853 184.764 18.004C184.764 20.8413 185.137 22.932 185.884 24.276C186.649 25.62 187.825 26.292 189.412 26.292Z" fill="black"/>
<path d="M6 22L1.5 17.5L6 13" stroke="black" stroke-width="1.5" stroke-linejoin="round"/>
<g filter="url(#filter0_d)">
<path d="M350.644 45.5481L355.125 41.3031C355.896 40.5723 357.104 40.5723 357.875 41.3031L362.356 45.5481C363.669 46.7915 362.789 49 360.981 49L352.019 49C350.211 49 349.331 46.7915 350.644 45.5481Z" fill="#081833"/>
</g>
<g filter="url(#filter1_d)">
<rect x="335" y="45" width="262" height="269" rx="6" fill="#081833"/>
</g>
<rect x="521" y="159" width="65" height="35" rx="3" fill="#534CEA"/>
<path opacity="0.5" d="M540.328 258.608H544.312C546.157 258.608 547.587 259.104 548.6 260.096C549.613 261.088 550.12 262.485 550.12 264.288C550.12 266.101 549.613 267.509 548.6 268.512C547.587 269.504 546.157 270 544.312 270H540.328V258.608ZM544.216 268.624C547.021 268.624 548.424 267.179 548.424 264.288C548.424 261.419 547.021 259.984 544.216 259.984H541.976V268.624H544.216ZM559.111 266H553.351C553.404 267.888 554.263 268.832 555.927 268.832C556.855 268.832 557.703 268.528 558.471 267.92L558.967 269.072C558.604 269.392 558.14 269.648 557.575 269.84C557.02 270.021 556.46 270.112 555.895 270.112C554.604 270.112 553.591 269.744 552.855 269.008C552.119 268.261 551.751 267.243 551.751 265.952C551.751 265.131 551.911 264.4 552.231 263.76C552.562 263.12 553.02 262.624 553.607 262.272C554.194 261.92 554.86 261.744 555.607 261.744C556.695 261.744 557.548 262.096 558.167 262.8C558.796 263.504 559.111 264.48 559.111 265.728V266ZM555.639 262.944C555.031 262.944 554.535 263.125 554.151 263.488C553.767 263.851 553.522 264.368 553.415 265.04H557.687C557.623 264.357 557.415 263.84 557.063 263.488C556.711 263.125 556.236 262.944 555.639 262.944ZM564.469 270.112C563.659 270.112 562.949 269.941 562.341 269.6C561.744 269.259 561.285 268.779 560.965 268.16C560.645 267.531 560.485 266.8 560.485 265.968C560.485 265.136 560.651 264.4 560.981 263.76C561.323 263.12 561.797 262.624 562.405 262.272C563.013 261.92 563.723 261.744 564.533 261.744C565.099 261.744 565.643 261.84 566.165 262.032C566.688 262.213 567.109 262.464 567.429 262.784L566.933 263.952C566.176 263.355 565.413 263.056 564.645 263.056C563.867 263.056 563.259 263.312 562.821 263.824C562.384 264.325 562.165 265.035 562.165 265.952C562.165 266.869 562.384 267.579 562.821 268.08C563.259 268.571 563.867 268.816 564.645 268.816C565.435 268.816 566.197 268.517 566.933 267.92L567.429 269.088C567.088 269.408 566.651 269.659 566.117 269.84C565.595 270.021 565.045 270.112 564.469 270.112Z" fill="#969EAC"/>
<path opacity="0.5" d="M462.672 258.608V270H461.408L454.88 261.392V270H453.328V258.608H454.576L461.12 267.232V258.608H462.672ZM468.656 270.112C467.867 270.112 467.173 269.941 466.576 269.6C465.979 269.259 465.515 268.773 465.184 268.144C464.864 267.515 464.704 266.779 464.704 265.936C464.704 265.093 464.864 264.357 465.184 263.728C465.515 263.088 465.979 262.597 466.576 262.256C467.173 261.915 467.867 261.744 468.656 261.744C469.435 261.744 470.123 261.915 470.72 262.256C471.317 262.597 471.776 263.088 472.096 263.728C472.427 264.357 472.592 265.093 472.592 265.936C472.592 266.779 472.427 267.515 472.096 268.144C471.776 268.773 471.317 269.259 470.72 269.6C470.123 269.941 469.435 270.112 468.656 270.112ZM468.64 268.832C469.387 268.832 469.957 268.587 470.352 268.096C470.747 267.605 470.944 266.885 470.944 265.936C470.944 265.008 470.741 264.293 470.336 263.792C469.941 263.291 469.381 263.04 468.656 263.04C467.92 263.04 467.349 263.291 466.944 263.792C466.539 264.293 466.336 265.008 466.336 265.936C466.336 266.885 466.533 267.605 466.928 268.096C467.333 268.587 467.904 268.832 468.64 268.832ZM481.7 261.952L478.196 270H476.74L473.268 261.952H474.98L477.508 268.176L480.084 261.952H481.7Z" fill="#969EAC"/>
<path opacity="0.5" d="M374.224 270.128C373.147 270.128 372.208 269.893 371.408 269.424C370.619 268.944 370.005 268.267 369.568 267.392C369.141 266.517 368.928 265.488 368.928 264.304C368.928 263.109 369.141 262.075 369.568 261.2C369.995 260.325 370.608 259.653 371.408 259.184C372.208 258.715 373.147 258.48 374.224 258.48C375.312 258.48 376.251 258.715 377.04 259.184C377.84 259.653 378.453 260.325 378.88 261.2C379.307 262.075 379.52 263.104 379.52 264.288C379.52 265.483 379.307 266.517 378.88 267.392C378.453 268.267 377.84 268.944 377.04 269.424C376.24 269.893 375.301 270.128 374.224 270.128ZM374.224 268.784C375.365 268.784 376.251 268.395 376.88 267.616C377.52 266.837 377.84 265.728 377.84 264.288C377.84 262.859 377.52 261.76 376.88 260.992C376.251 260.213 375.365 259.824 374.224 259.824C373.083 259.824 372.197 260.213 371.568 260.992C370.939 261.76 370.624 262.859 370.624 264.288C370.624 265.728 370.939 266.837 371.568 267.616C372.208 268.395 373.093 268.784 374.224 268.784ZM385.157 270.112C384.346 270.112 383.637 269.941 383.029 269.6C382.431 269.259 381.973 268.779 381.653 268.16C381.333 267.531 381.173 266.8 381.173 265.968C381.173 265.136 381.338 264.4 381.669 263.76C382.01 263.12 382.485 262.624 383.093 262.272C383.701 261.92 384.41 261.744 385.221 261.744C385.786 261.744 386.33 261.84 386.853 262.032C387.375 262.213 387.797 262.464 388.117 262.784L387.621 263.952C386.863 263.355 386.101 263.056 385.333 263.056C384.554 263.056 383.946 263.312 383.509 263.824C383.071 264.325 382.853 265.035 382.853 265.952C382.853 266.869 383.071 267.579 383.509 268.08C383.946 268.571 384.554 268.816 385.333 268.816C386.122 268.816 386.885 268.517 387.621 267.92L388.117 269.088C387.775 269.408 387.338 269.659 386.805 269.84C386.282 270.021 385.733 270.112 385.157 270.112ZM391.764 263.184V267.232C391.764 267.787 391.882 268.181 392.116 268.416C392.362 268.64 392.698 268.752 393.124 268.752C393.402 268.752 393.684 268.709 393.972 268.624V269.936C393.62 270.053 393.22 270.112 392.772 270.112C391.94 270.112 391.295 269.877 390.836 269.408C390.378 268.939 390.148 268.256 390.148 267.36V263.184H388.58V261.936H390.148V259.92L391.764 259.36V261.936H393.988V263.184H391.764Z" fill="#969EAC"/>
<path opacity="0.5" d="M545.056 226.128C544.171 226.128 543.36 226.011 542.624 225.776C541.899 225.541 541.269 225.189 540.736 224.72L541.328 223.504C541.883 223.952 542.459 224.277 543.056 224.48C543.653 224.683 544.325 224.784 545.072 224.784C545.925 224.784 546.587 224.624 547.056 224.304C547.525 223.984 547.76 223.531 547.76 222.944C547.76 222.453 547.541 222.085 547.104 221.84C546.667 221.584 545.973 221.349 545.024 221.136C544.117 220.944 543.376 220.725 542.8 220.48C542.224 220.224 541.771 219.888 541.44 219.472C541.109 219.045 540.944 218.501 540.944 217.84C540.944 217.179 541.12 216.597 541.472 216.096C541.824 215.584 542.32 215.189 542.96 214.912C543.611 214.624 544.357 214.48 545.2 214.48C546 214.48 546.747 214.603 547.44 214.848C548.144 215.093 548.731 215.44 549.2 215.888L548.608 217.104C548.085 216.667 547.547 216.347 546.992 216.144C546.437 215.931 545.845 215.824 545.216 215.824C544.395 215.824 543.749 216 543.28 216.352C542.811 216.693 542.576 217.163 542.576 217.76C542.576 218.272 542.779 218.661 543.184 218.928C543.6 219.195 544.261 219.435 545.168 219.648C546.117 219.861 546.885 220.085 547.472 220.32C548.059 220.555 548.528 220.875 548.88 221.28C549.232 221.685 549.408 222.208 549.408 222.848C549.408 223.509 549.232 224.085 548.88 224.576C548.528 225.067 548.021 225.451 547.36 225.728C546.709 225.995 545.941 226.128 545.056 226.128ZM558.189 222H552.429C552.482 223.888 553.341 224.832 555.005 224.832C555.933 224.832 556.781 224.528 557.549 223.92L558.045 225.072C557.682 225.392 557.218 225.648 556.653 225.84C556.098 226.021 555.538 226.112 554.973 226.112C553.682 226.112 552.669 225.744 551.933 225.008C551.197 224.261 550.829 223.243 550.829 221.952C550.829 221.131 550.989 220.4 551.309 219.76C551.64 219.12 552.098 218.624 552.685 218.272C553.272 217.92 553.938 217.744 554.685 217.744C555.773 217.744 556.626 218.096 557.245 218.8C557.874 219.504 558.189 220.48 558.189 221.728V222ZM554.717 218.944C554.109 218.944 553.613 219.125 553.229 219.488C552.845 219.851 552.6 220.368 552.493 221.04H556.765C556.701 220.357 556.493 219.84 556.141 219.488C555.789 219.125 555.314 218.944 554.717 218.944ZM564.315 217.744C565.009 217.744 565.627 217.92 566.171 218.272C566.715 218.624 567.137 219.12 567.435 219.76C567.745 220.4 567.899 221.136 567.899 221.968C567.899 222.8 567.75 223.531 567.451 224.16C567.153 224.779 566.731 225.259 566.187 225.6C565.643 225.941 565.019 226.112 564.315 226.112C563.697 226.112 563.153 225.984 562.683 225.728C562.225 225.461 561.878 225.083 561.643 224.592V229.456H560.043V220.208C560.043 219.365 560.001 218.608 559.915 217.936H561.419L561.579 219.424C561.793 218.891 562.139 218.48 562.619 218.192C563.099 217.893 563.665 217.744 564.315 217.744ZM563.947 224.832C564.673 224.832 565.238 224.581 565.643 224.08C566.049 223.579 566.251 222.875 566.251 221.968C566.251 221.051 566.049 220.336 565.643 219.824C565.238 219.301 564.673 219.04 563.947 219.04C563.201 219.04 562.63 219.291 562.235 219.792C561.841 220.293 561.643 221.008 561.643 221.936C561.643 222.864 561.841 223.579 562.235 224.08C562.641 224.581 563.211 224.832 563.947 224.832Z" fill="#969EAC"/>
<path opacity="0.5" d="M460.816 223.184H455.056L453.84 226H452.16L457.232 214.608H458.624L463.712 226H462.032L460.816 223.184ZM460.256 221.872L457.936 216.448L455.616 221.872H460.256ZM472.051 217.936V226H470.483V224.656C470.227 225.125 469.875 225.488 469.427 225.744C468.979 225.989 468.473 226.112 467.907 226.112C465.966 226.112 464.995 225.035 464.995 222.88V217.936H466.595V222.864C466.595 223.525 466.729 224.016 466.995 224.336C467.273 224.645 467.689 224.8 468.243 224.8C468.905 224.8 469.433 224.587 469.827 224.16C470.233 223.733 470.435 223.168 470.435 222.464V217.936H472.051ZM481.858 217.936V225.856C481.858 227.083 481.533 228.005 480.882 228.624C480.242 229.253 479.288 229.568 478.018 229.568C476.792 229.568 475.72 229.301 474.802 228.768L475.074 227.504C475.576 227.771 476.056 227.968 476.514 228.096C476.984 228.224 477.48 228.288 478.002 228.288C479.506 228.288 480.258 227.52 480.258 225.984V224.24C480.013 224.709 479.656 225.083 479.186 225.36C478.717 225.627 478.173 225.76 477.554 225.76C476.85 225.76 476.221 225.595 475.666 225.264C475.122 224.933 474.696 224.464 474.386 223.856C474.088 223.248 473.938 222.549 473.938 221.76C473.938 220.971 474.088 220.272 474.386 219.664C474.696 219.056 475.122 218.587 475.666 218.256C476.221 217.915 476.85 217.744 477.554 217.744C478.173 217.744 478.717 217.877 479.186 218.144C479.656 218.4 480.013 218.768 480.258 219.248V217.936H481.858ZM477.922 224.464C478.648 224.464 479.218 224.224 479.634 223.744C480.05 223.264 480.258 222.603 480.258 221.76C480.258 220.917 480.05 220.256 479.634 219.776C479.229 219.285 478.658 219.04 477.922 219.04C477.197 219.04 476.621 219.285 476.194 219.776C475.778 220.256 475.57 220.917 475.57 221.76C475.57 222.592 475.778 223.253 476.194 223.744C476.621 224.224 477.197 224.464 477.922 224.464Z" fill="#969EAC"/>
<path opacity="0.5" d="M371.936 227.456C372.352 227.531 372.736 227.568 373.088 227.568C373.632 227.568 374.005 227.429 374.208 227.152C374.411 226.875 374.512 226.384 374.512 225.68V214.608H376.176V225.696C376.176 226.837 375.963 227.669 375.536 228.192C375.109 228.715 374.395 228.976 373.392 228.976C372.901 228.976 372.416 228.933 371.936 228.848V227.456ZM385.692 217.936V226H384.124V224.656C383.868 225.125 383.516 225.488 383.068 225.744C382.62 225.989 382.113 226.112 381.548 226.112C379.607 226.112 378.636 225.035 378.636 222.88V217.936H380.236V222.864C380.236 223.525 380.369 224.016 380.636 224.336C380.913 224.645 381.329 224.8 381.884 224.8C382.545 224.8 383.073 224.587 383.468 224.16C383.873 223.733 384.076 223.168 384.076 222.464V217.936H385.692ZM388.059 214.224H389.659V226H388.059V214.224Z" fill="#969EAC"/>
<path d="M540.936 183.456C541.352 183.531 541.736 183.568 542.088 183.568C542.632 183.568 543.005 183.429 543.208 183.152C543.411 182.875 543.512 182.384 543.512 181.68V170.608H545.176V181.696C545.176 182.837 544.963 183.669 544.536 184.192C544.109 184.715 543.395 184.976 542.392 184.976C541.901 184.976 541.416 184.933 540.936 184.848V183.456ZM554.692 173.936V182H553.124V180.656C552.868 181.125 552.516 181.488 552.068 181.744C551.62 181.989 551.113 182.112 550.548 182.112C548.607 182.112 547.636 181.035 547.636 178.88V173.936H549.236V178.864C549.236 179.525 549.369 180.016 549.636 180.336C549.913 180.645 550.329 180.8 550.884 180.8C551.545 180.8 552.073 180.587 552.468 180.16C552.873 179.733 553.076 179.168 553.076 178.464V173.936H554.692ZM561.347 173.744C563.278 173.744 564.243 174.821 564.243 176.976V182H562.627V177.072C562.627 176.368 562.488 175.856 562.211 175.536C561.944 175.216 561.512 175.056 560.915 175.056C560.232 175.056 559.683 175.269 559.267 175.696C558.862 176.123 558.659 176.693 558.659 177.408V182H557.059V176.208C557.059 175.365 557.016 174.608 556.931 173.936H558.435L558.579 175.328C558.835 174.816 559.203 174.427 559.683 174.16C560.174 173.883 560.728 173.744 561.347 173.744Z" fill="white"/>
<path d="M463.24 170.608V182H461.752V174.176L458.376 182H457.24L453.816 174.224L453.832 182H452.344V170.608H453.672L457.816 180.016L461.912 170.608H463.24ZM473.138 173.936V182H471.538V180.624C471.303 181.104 470.951 181.472 470.482 181.728C470.023 181.984 469.485 182.112 468.866 182.112C468.151 182.112 467.522 181.941 466.978 181.6C466.445 181.259 466.029 180.779 465.73 180.16C465.431 179.531 465.282 178.8 465.282 177.968C465.282 177.136 465.431 176.4 465.73 175.76C466.039 175.12 466.466 174.624 467.01 174.272C467.554 173.92 468.173 173.744 468.866 173.744C469.485 173.744 470.023 173.877 470.482 174.144C470.941 174.4 471.293 174.768 471.538 175.248V173.936H473.138ZM469.25 180.832C469.975 180.832 470.535 180.581 470.93 180.08C471.335 179.568 471.538 178.853 471.538 177.936C471.538 177.008 471.335 176.293 470.93 175.792C470.535 175.291 469.97 175.04 469.234 175.04C468.509 175.04 467.938 175.301 467.522 175.824C467.117 176.336 466.914 177.051 466.914 177.968C466.914 178.875 467.117 179.579 467.522 180.08C467.938 180.581 468.514 180.832 469.25 180.832ZM482.84 173.936L479.08 182.656C478.664 183.605 478.141 184.299 477.512 184.736C476.893 185.184 476.125 185.483 475.208 185.632L474.856 184.384C475.613 184.213 476.184 183.989 476.568 183.712C476.963 183.445 477.277 183.04 477.512 182.496L477.8 181.824L474.408 173.936H476.12L478.648 180.176L481.224 173.936H482.84Z" fill="white"/>
<path d="M375.816 179.184H370.056L368.84 182H367.16L372.232 170.608H373.624L378.712 182H377.032L375.816 179.184ZM375.256 177.872L372.936 172.448L370.616 177.872H375.256ZM384.315 173.744C385.009 173.744 385.627 173.92 386.171 174.272C386.715 174.624 387.137 175.12 387.435 175.76C387.745 176.4 387.899 177.136 387.899 177.968C387.899 178.8 387.75 179.531 387.451 180.16C387.153 180.779 386.731 181.259 386.187 181.6C385.643 181.941 385.019 182.112 384.315 182.112C383.697 182.112 383.153 181.984 382.683 181.728C382.225 181.461 381.878 181.083 381.643 180.592V185.456H380.043V176.208C380.043 175.365 380.001 174.608 379.915 173.936H381.419L381.579 175.424C381.793 174.891 382.139 174.48 382.619 174.192C383.099 173.893 383.665 173.744 384.315 173.744ZM383.947 180.832C384.673 180.832 385.238 180.581 385.643 180.08C386.049 179.579 386.251 178.875 386.251 177.968C386.251 177.051 386.049 176.336 385.643 175.824C385.238 175.301 384.673 175.04 383.947 175.04C383.201 175.04 382.63 175.291 382.235 175.792C381.841 176.293 381.643 177.008 381.643 177.936C381.643 178.864 381.841 179.579 382.235 180.08C382.641 180.581 383.211 180.832 383.947 180.832ZM393.809 173.744C394.055 173.744 394.311 173.781 394.577 173.856L394.545 175.328C394.257 175.221 393.943 175.168 393.601 175.168C392.865 175.168 392.311 175.392 391.937 175.84C391.575 176.277 391.393 176.832 391.393 177.504V182H389.793V176.208C389.793 175.365 389.751 174.608 389.665 173.936H391.169L391.313 175.392C391.527 174.859 391.857 174.453 392.305 174.176C392.753 173.888 393.255 173.744 393.809 173.744Z" fill="white"/>
<path d="M551.24 126.608V138H549.752V130.176L546.376 138H545.24L541.816 130.224L541.832 138H540.344V126.608H541.672L545.816 136.016L549.912 126.608H551.24ZM561.138 129.936V138H559.538V136.624C559.303 137.104 558.951 137.472 558.482 137.728C558.023 137.984 557.485 138.112 556.866 138.112C556.151 138.112 555.522 137.941 554.978 137.6C554.445 137.259 554.029 136.779 553.73 136.16C553.431 135.531 553.282 134.8 553.282 133.968C553.282 133.136 553.431 132.4 553.73 131.76C554.039 131.12 554.466 130.624 555.01 130.272C555.554 129.92 556.173 129.744 556.866 129.744C557.485 129.744 558.023 129.877 558.482 130.144C558.941 130.4 559.293 130.768 559.538 131.248V129.936H561.138ZM557.25 136.832C557.975 136.832 558.535 136.581 558.93 136.08C559.335 135.568 559.538 134.853 559.538 133.936C559.538 133.008 559.335 132.293 558.93 131.792C558.535 131.291 557.97 131.04 557.234 131.04C556.509 131.04 555.938 131.301 555.522 131.824C555.117 132.336 554.914 133.051 554.914 133.968C554.914 134.875 555.117 135.579 555.522 136.08C555.938 136.581 556.514 136.832 557.25 136.832ZM567.528 129.744C567.773 129.744 568.029 129.781 568.296 129.856L568.264 131.328C567.976 131.221 567.661 131.168 567.32 131.168C566.584 131.168 566.029 131.392 565.656 131.84C565.293 132.277 565.112 132.832 565.112 133.504V138H563.512V132.208C563.512 131.365 563.469 130.608 563.384 129.936H564.888L565.032 131.392C565.245 130.859 565.576 130.453 566.024 130.176C566.472 129.888 566.973 129.744 567.528 129.744Z" fill="white"/>
<path d="M454.328 126.608H461.56V127.968H455.96V131.536H461.24V132.896H455.96V138H454.328V126.608ZM469.986 134H464.226C464.279 135.888 465.138 136.832 466.802 136.832C467.73 136.832 468.578 136.528 469.346 135.92L469.842 137.072C469.479 137.392 469.015 137.648 468.45 137.84C467.895 138.021 467.335 138.112 466.77 138.112C465.479 138.112 464.466 137.744 463.73 137.008C462.994 136.261 462.626 135.243 462.626 133.952C462.626 133.131 462.786 132.4 463.106 131.76C463.437 131.12 463.895 130.624 464.482 130.272C465.069 129.92 465.735 129.744 466.482 129.744C467.57 129.744 468.423 130.096 469.042 130.8C469.671 131.504 469.986 132.48 469.986 133.728V134ZM466.514 130.944C465.906 130.944 465.41 131.125 465.026 131.488C464.642 131.851 464.397 132.368 464.29 133.04H468.562C468.498 132.357 468.29 131.84 467.938 131.488C467.586 131.125 467.111 130.944 466.514 130.944ZM476.112 129.744C476.816 129.744 477.44 129.915 477.984 130.256C478.528 130.597 478.95 131.083 479.248 131.712C479.547 132.341 479.696 133.072 479.696 133.904C479.696 134.736 479.542 135.472 479.232 136.112C478.934 136.741 478.512 137.232 477.968 137.584C477.424 137.936 476.806 138.112 476.112 138.112C475.494 138.112 474.95 137.984 474.48 137.728C474.022 137.461 473.675 137.083 473.44 136.592V138H471.84V126.224H473.44V131.264C473.675 130.784 474.022 130.411 474.48 130.144C474.95 129.877 475.494 129.744 476.112 129.744ZM475.744 136.832C476.47 136.832 477.035 136.576 477.44 136.064C477.846 135.541 478.048 134.821 478.048 133.904C478.048 132.997 477.846 132.293 477.44 131.792C477.035 131.291 476.47 131.04 475.744 131.04C475.008 131.04 474.438 131.291 474.032 131.792C473.638 132.293 473.44 133.008 473.44 133.936C473.44 134.864 473.638 135.579 474.032 136.08C474.438 136.581 475.008 136.832 475.744 136.832Z" fill="white"/>
<path d="M368.936 139.456C369.352 139.531 369.736 139.568 370.088 139.568C370.632 139.568 371.005 139.429 371.208 139.152C371.411 138.875 371.512 138.384 371.512 137.68V126.608H373.176V137.696C373.176 138.837 372.963 139.669 372.536 140.192C372.109 140.715 371.395 140.976 370.392 140.976C369.901 140.976 369.416 140.933 368.936 140.848V139.456ZM383.06 129.936V138H381.46V136.624C381.225 137.104 380.873 137.472 380.404 137.728C379.945 137.984 379.407 138.112 378.788 138.112C378.073 138.112 377.444 137.941 376.9 137.6C376.367 137.259 375.951 136.779 375.652 136.16C375.353 135.531 375.204 134.8 375.204 133.968C375.204 133.136 375.353 132.4 375.652 131.76C375.961 131.12 376.388 130.624 376.932 130.272C377.476 129.92 378.095 129.744 378.788 129.744C379.407 129.744 379.945 129.877 380.404 130.144C380.863 130.4 381.215 130.768 381.46 131.248V129.936H383.06ZM379.172 136.832C379.897 136.832 380.457 136.581 380.852 136.08C381.257 135.568 381.46 134.853 381.46 133.936C381.46 133.008 381.257 132.293 380.852 131.792C380.457 131.291 379.892 131.04 379.156 131.04C378.431 131.04 377.86 131.301 377.444 131.824C377.039 132.336 376.836 133.051 376.836 133.968C376.836 134.875 377.039 135.579 377.444 136.08C377.86 136.581 378.436 136.832 379.172 136.832ZM389.722 129.744C391.653 129.744 392.618 130.821 392.618 132.976V138H391.002V133.072C391.002 132.368 390.863 131.856 390.586 131.536C390.319 131.216 389.887 131.056 389.29 131.056C388.607 131.056 388.058 131.269 387.642 131.696C387.237 132.123 387.034 132.693 387.034 133.408V138H385.434V132.208C385.434 131.365 385.391 130.608 385.306 129.936H386.81L386.954 131.328C387.21 130.816 387.578 130.427 388.058 130.16C388.549 129.883 389.103 129.744 389.722 129.744Z" fill="white"/>
<g opacity="0.5">
<path d="M566 74L570.5 78.5L566 83" stroke="#969EAC" stroke-width="1.5" stroke-linejoin="round"/>
</g>
<path d="M452.9 83.3V85H443.56V83.46L448.46 78.08C449.087 77.3867 449.54 76.76 449.82 76.2C450.113 75.6267 450.26 75.06 450.26 74.5C450.26 73.78 450.053 73.2333 449.64 72.86C449.227 72.4733 448.627 72.28 447.84 72.28C446.52 72.28 445.2 72.8 443.88 73.84L443.14 72.32C443.7 71.8 444.413 71.3867 445.28 71.08C446.147 70.76 447.02 70.6 447.9 70.6C449.26 70.6 450.333 70.94 451.12 71.62C451.92 72.3 452.32 73.22 452.32 74.38C452.32 75.2067 452.14 75.9933 451.78 76.74C451.42 77.4733 450.82 78.2933 449.98 79.2L446.18 83.3H452.9ZM459.992 85.16C458.339 85.16 457.079 84.54 456.212 83.3C455.346 82.06 454.912 80.2533 454.912 77.88C454.912 75.5067 455.346 73.7 456.212 72.46C457.079 71.22 458.339 70.6 459.992 70.6C461.646 70.6 462.906 71.22 463.772 72.46C464.639 73.6867 465.072 75.4867 465.072 77.86C465.072 80.2467 464.639 82.06 463.772 83.3C462.906 84.54 461.646 85.16 459.992 85.16ZM459.992 83.5C461.019 83.5 461.772 83.0467 462.252 82.14C462.746 81.22 462.992 79.7933 462.992 77.86C462.992 75.9267 462.752 74.5133 462.272 73.62C461.792 72.7267 461.032 72.28 459.992 72.28C458.966 72.28 458.206 72.7333 457.712 73.64C457.232 74.5333 456.992 75.94 456.992 77.86C456.992 79.7933 457.232 81.22 457.712 82.14C458.206 83.0467 458.966 83.5 459.992 83.5ZM476.884 83.3V85H467.544V83.46L472.444 78.08C473.071 77.3867 473.524 76.76 473.804 76.2C474.098 75.6267 474.244 75.06 474.244 74.5C474.244 73.78 474.038 73.2333 473.624 72.86C473.211 72.4733 472.611 72.28 471.824 72.28C470.504 72.28 469.184 72.8 467.864 73.84L467.124 72.32C467.684 71.8 468.398 71.3867 469.264 71.08C470.131 70.76 471.004 70.6 471.884 70.6C473.244 70.6 474.318 70.94 475.104 71.62C475.904 72.3 476.304 73.22 476.304 74.38C476.304 75.2067 476.124 75.9933 475.764 76.74C475.404 77.4733 474.804 78.2933 473.964 79.2L470.164 83.3H476.884ZM488.717 83.3V85H480.397V83.3H483.517V73.22L480.617 75.02V73.12L484.397 70.76H485.597V83.3H488.717Z" fill="white"/>
<path d="M365 74L360.5 78.5L365 83" stroke="white" stroke-width="1.5" stroke-linejoin="round"/>
<defs>
<filter id="filter0_d" x="322.016" y="16.7549" width="68.9697" height="64.245" filterUnits="userSpaceOnUse" color-interpolation-filters="sRGB">
<feFlood flood-opacity="0" result="BackgroundImageFix"/>
<feColorMatrix in="SourceAlpha" type="matrix" values="0 0 0 0 0 0 0 0 0 0 0 0 0 0 0 0 0 0 127 0"/>
<feOffset dy="4"/>
<feGaussianBlur stdDeviation="14"/>
<feColorMatrix type="matrix" values="0 0 0 0 0.0313726 0 0 0 0 0.0941176 0 0 0 0 0.2 0 0 0 0.44 0"/>
<feBlend mode="normal" in2="BackgroundImageFix" result="effect1_dropShadow"/>
<feBlend mode="normal" in="SourceGraphic" in2="effect1_dropShadow" result="shape"/>
</filter>
<filter id="filter1_d" x="307" y="21" width="318" height="325" filterUnits="userSpaceOnUse" color-interpolation-filters="sRGB">
<feFlood flood-opacity="0" result="BackgroundImageFix"/>
<feColorMatrix in="SourceAlpha" type="matrix" values="0 0 0 0 0 0 0 0 0 0 0 0 0 0 0 0 0 0 127 0"/>
<feOffset dy="4"/>
<feGaussianBlur stdDeviation="14"/>
<feColorMatrix type="matrix" values="0 0 0 0 0.0313726 0 0 0 0 0.0941176 0 0 0 0 0.2 0 0 0 0.44 0"/>
<feBlend mode="normal" in2="BackgroundImageFix" result="effect1_dropShadow"/>
<feBlend mode="normal" in="SourceGraphic" in2="effect1_dropShadow" result="shape"/>
</filter>
</defs>
</svg>
