<svg width="347" height="114" viewBox="0 0 347 114" fill="none" xmlns="http://www.w3.org/2000/svg">
<g filter="url(#filter0_di)">
<rect x="8" y="6" width="331" height="98" rx="6" fill="white"/>
</g>
<mask id="mask0" mask-type="alpha" maskUnits="userSpaceOnUse" x="8" y="6" width="331" height="97">
<rect x="8" y="6" width="331" height="97" rx="6" fill="white"/>
</mask>
<g mask="url(#mask0)">
<rect x="336" y="5" width="3" height="100" rx="1.5" fill="#29CFD6"/>
</g>
<rect opacity="0.2" x="48.5" y="44.5" width="39" height="21" rx="10.5" stroke="#534CEA"/>
<g filter="url(#filter1_d)">
<rect x="69" y="47" width="16" height="16" rx="8" fill="#534CEA"/>
</g>
<path d="M99.7108 60L95.3428 50.032H96.7008L100.523 58.922H100.033L103.855 50.032H105.199L100.817 60H99.7108ZM106.237 60V52.958H107.511V60H106.237ZM106.125 49.92H107.623V51.306H106.125V49.92ZM115.465 59.174C115.157 59.4633 114.76 59.692 114.275 59.86C113.79 60.0187 113.295 60.098 112.791 60.098C112.054 60.098 111.419 59.9533 110.887 59.664C110.355 59.3747 109.944 58.9593 109.655 58.418C109.366 57.8673 109.221 57.214 109.221 56.458C109.221 55.73 109.361 55.0907 109.641 54.54C109.93 53.9893 110.327 53.56 110.831 53.252C111.335 52.9347 111.914 52.776 112.567 52.776C113.202 52.776 113.743 52.916 114.191 53.196C114.648 53.476 114.994 53.8773 115.227 54.4C115.47 54.9133 115.591 55.5293 115.591 56.248V56.472H110.341V55.688H114.863L114.471 56.192C114.49 55.3987 114.336 54.792 114.009 54.372C113.682 53.952 113.206 53.742 112.581 53.742C111.928 53.742 111.414 53.9753 111.041 54.442C110.677 54.8993 110.495 55.5433 110.495 56.374C110.495 57.27 110.691 57.9467 111.083 58.404C111.475 58.852 112.054 59.076 112.819 59.076C113.23 59.076 113.622 59.0107 113.995 58.88C114.368 58.74 114.723 58.5347 115.059 58.264L115.465 59.174ZM119.092 60L116.446 52.958H117.776L119.904 58.992H119.54L121.738 52.958H122.788L124.944 58.992H124.594L126.75 52.958H128.01L125.364 60H124.174L121.892 53.798H122.55L120.282 60H119.092ZM133.088 60V52.958H134.362V60H133.088ZM132.976 49.92H134.474V51.306H132.976V49.92ZM136.493 60V54.932C136.493 54.6053 136.483 54.2787 136.465 53.952C136.455 53.616 136.427 53.2847 136.381 52.958H137.585L137.711 54.4L137.571 54.484C137.776 53.9333 138.103 53.5133 138.551 53.224C139.008 52.9253 139.531 52.776 140.119 52.776C141.808 52.776 142.653 53.714 142.653 55.59V60H141.379V55.66C141.379 55.0253 141.253 54.5633 141.001 54.274C140.758 53.9753 140.366 53.826 139.825 53.826C139.199 53.826 138.7 54.022 138.327 54.414C137.953 54.7967 137.767 55.3147 137.767 55.968V60H136.493ZM148.428 63.024V54.932C148.428 54.6053 148.419 54.2787 148.4 53.952C148.391 53.616 148.363 53.2847 148.316 52.958H149.52L149.646 54.4L149.534 54.582C149.693 54.0033 149.996 53.56 150.444 53.252C150.892 52.9347 151.429 52.776 152.054 52.776C152.67 52.776 153.212 52.9347 153.678 53.252C154.154 53.56 154.523 53.9893 154.784 54.54C155.055 55.0907 155.19 55.7347 155.19 56.472C155.19 57.2093 155.055 57.8533 154.784 58.404C154.523 58.9453 154.159 59.3653 153.692 59.664C153.226 59.9533 152.68 60.098 152.054 60.098C151.429 60.098 150.892 59.944 150.444 59.636C149.996 59.3187 149.693 58.8753 149.534 58.306L149.702 58.152V63.024H148.428ZM151.788 59.062C152.451 59.062 152.964 58.838 153.328 58.39C153.692 57.942 153.874 57.3027 153.874 56.472C153.874 55.6413 153.692 54.9927 153.328 54.526C152.964 54.0593 152.451 53.826 151.788 53.826C151.116 53.826 150.598 54.0547 150.234 54.512C149.87 54.96 149.688 55.604 149.688 56.444C149.688 57.284 149.87 57.9327 150.234 58.39C150.598 58.838 151.116 59.062 151.788 59.062ZM156.877 60V54.932C156.877 54.6053 156.868 54.2787 156.849 53.952C156.84 53.616 156.812 53.2847 156.765 52.958H157.969L158.123 54.708L157.969 54.652C158.091 54.036 158.366 53.574 158.795 53.266C159.234 52.9487 159.724 52.79 160.265 52.79C160.396 52.79 160.513 52.7993 160.615 52.818C160.727 52.8273 160.83 52.846 160.923 52.874L160.909 54.036C160.676 53.952 160.415 53.91 160.125 53.91C159.649 53.91 159.267 54.0127 158.977 54.218C158.688 54.4233 158.478 54.6847 158.347 55.002C158.217 55.3193 158.151 55.66 158.151 56.024V60H156.877ZM162.045 60V52.958H163.319V60H162.045ZM161.933 49.92H163.431V51.306H161.933V49.92ZM165.45 60V54.932C165.45 54.6053 165.44 54.2787 165.422 53.952C165.412 53.616 165.384 53.2847 165.338 52.958H166.542L166.668 54.4L166.528 54.47C166.696 53.9287 166.985 53.5133 167.396 53.224C167.816 52.9253 168.31 52.776 168.88 52.776C169.561 52.776 170.088 52.944 170.462 53.28C170.844 53.616 171.087 54.1293 171.19 54.82L170.854 54.61C171.012 54.05 171.316 53.6067 171.764 53.28C172.212 52.944 172.748 52.776 173.374 52.776C174.158 52.776 174.746 53.0093 175.138 53.476C175.53 53.9427 175.726 54.6473 175.726 55.59V60H174.452V55.646C174.452 55.0207 174.34 54.5633 174.116 54.274C173.901 53.9753 173.551 53.826 173.066 53.826C172.496 53.826 172.048 54.022 171.722 54.414C171.395 54.7967 171.232 55.324 171.232 55.996V60H169.958V55.646C169.958 55.0207 169.846 54.5633 169.622 54.274C169.398 53.9753 169.043 53.826 168.558 53.826C167.979 53.826 167.526 54.022 167.2 54.414C166.882 54.7967 166.724 55.324 166.724 55.996V60H165.45ZM180.525 60.098C179.909 60.098 179.363 59.9533 178.887 59.664C178.42 59.3653 178.056 58.9453 177.795 58.404C177.533 57.8533 177.403 57.2093 177.403 56.472C177.403 55.7347 177.533 55.0907 177.795 54.54C178.065 53.9893 178.434 53.56 178.901 53.252C179.377 52.9347 179.918 52.776 180.525 52.776C181.159 52.776 181.701 52.9347 182.149 53.252C182.597 53.56 182.9 54.0033 183.059 54.582L182.891 54.68V52.958H184.151V60H182.891V58.236L183.059 58.306C182.9 58.8753 182.597 59.3187 182.149 59.636C181.701 59.944 181.159 60.098 180.525 60.098ZM180.805 59.062C181.477 59.062 181.99 58.838 182.345 58.39C182.709 57.9327 182.891 57.284 182.891 56.444C182.891 55.604 182.709 54.96 182.345 54.512C181.981 54.0547 181.467 53.826 180.805 53.826C180.142 53.826 179.624 54.0593 179.251 54.526C178.877 54.9927 178.691 55.6413 178.691 56.472C178.691 57.3027 178.877 57.942 179.251 58.39C179.624 58.838 180.142 59.062 180.805 59.062ZM186.272 60V54.932C186.272 54.6053 186.263 54.2787 186.244 53.952C186.235 53.616 186.207 53.2847 186.16 52.958H187.364L187.518 54.708L187.364 54.652C187.485 54.036 187.761 53.574 188.19 53.266C188.629 52.9487 189.119 52.79 189.66 52.79C189.791 52.79 189.907 52.7993 190.01 52.818C190.122 52.8273 190.225 52.846 190.318 52.874L190.304 54.036C190.071 53.952 189.809 53.91 189.52 53.91C189.044 53.91 188.661 54.0127 188.372 54.218C188.083 54.4233 187.873 54.6847 187.742 55.002C187.611 55.3193 187.546 55.66 187.546 56.024V60H186.272ZM191.556 63.178L191.29 62.198C191.719 62.0953 192.078 61.974 192.368 61.834C192.666 61.7033 192.914 61.5307 193.11 61.316C193.306 61.1107 193.478 60.8353 193.628 60.49L194.09 59.44L194.384 59.02L196.89 52.958H198.164L194.874 60.602C194.622 61.1807 194.332 61.6427 194.006 61.988C193.679 62.3427 193.31 62.6087 192.9 62.786C192.498 62.9633 192.05 63.094 191.556 63.178ZM194.104 60.392L190.926 52.958H192.256L194.734 59.02L194.104 60.392ZM206.044 60.098C205.334 60.098 204.723 59.9487 204.21 59.65C203.706 59.3513 203.314 58.9313 203.034 58.39C202.754 57.8487 202.614 57.2093 202.614 56.472C202.614 55.744 202.754 55.1 203.034 54.54C203.323 53.98 203.729 53.546 204.252 53.238C204.774 52.93 205.39 52.776 206.1 52.776C206.585 52.776 207.052 52.86 207.5 53.028C207.948 53.1867 208.316 53.4107 208.606 53.7L208.2 54.624C207.864 54.3627 207.528 54.1667 207.192 54.036C206.865 53.896 206.524 53.826 206.17 53.826C205.488 53.826 204.942 54.0547 204.532 54.512C204.13 54.9693 203.93 55.6227 203.93 56.472C203.93 57.3027 204.13 57.942 204.532 58.39C204.933 58.838 205.484 59.062 206.184 59.062C206.52 59.062 206.856 58.9967 207.192 58.866C207.528 58.7353 207.864 58.5347 208.2 58.264L208.606 59.188C208.307 59.468 207.929 59.692 207.472 59.86C207.014 60.0187 206.538 60.098 206.044 60.098ZM212.499 60.098C211.649 60.098 211.01 59.8647 210.581 59.398C210.161 58.922 209.951 58.222 209.951 57.298V52.958H211.225V57.284C211.225 57.8907 211.346 58.3387 211.589 58.628C211.841 58.908 212.223 59.048 212.737 59.048C213.334 59.048 213.815 58.8567 214.179 58.474C214.543 58.082 214.725 57.564 214.725 56.92V52.958H216.013V60H214.767V58.488L214.935 58.418C214.748 58.9687 214.435 59.3887 213.997 59.678C213.558 59.958 213.059 60.098 212.499 60.098ZM218.127 60V54.932C218.127 54.6053 218.118 54.2787 218.099 53.952C218.09 53.616 218.062 53.2847 218.015 52.958H219.219L219.373 54.708L219.219 54.652C219.341 54.036 219.616 53.574 220.045 53.266C220.484 52.9487 220.974 52.79 221.515 52.79C221.646 52.79 221.763 52.7993 221.865 52.818C221.977 52.8273 222.08 52.846 222.173 52.874L222.159 54.036C221.926 53.952 221.665 53.91 221.375 53.91C220.899 53.91 220.517 54.0127 220.227 54.218C219.938 54.4233 219.728 54.6847 219.597 55.002C219.467 55.3193 219.401 55.66 219.401 56.024V60H218.127ZM223.295 60V54.932C223.295 54.6053 223.286 54.2787 223.267 53.952C223.258 53.616 223.23 53.2847 223.183 52.958H224.387L224.541 54.708L224.387 54.652C224.509 54.036 224.784 53.574 225.213 53.266C225.652 52.9487 226.142 52.79 226.683 52.79C226.814 52.79 226.931 52.7993 227.033 52.818C227.145 52.8273 227.248 52.846 227.341 52.874L227.327 54.036C227.094 53.952 226.833 53.91 226.543 53.91C226.067 53.91 225.685 54.0127 225.395 54.218C225.106 54.4233 224.896 54.6847 224.765 55.002C224.635 55.3193 224.569 55.66 224.569 56.024V60H223.295ZM234.151 59.174C233.843 59.4633 233.446 59.692 232.961 59.86C232.475 60.0187 231.981 60.098 231.477 60.098C230.739 60.098 230.105 59.9533 229.573 59.664C229.041 59.3747 228.63 58.9593 228.341 58.418C228.051 57.8673 227.907 57.214 227.907 56.458C227.907 55.73 228.047 55.0907 228.327 54.54C228.616 53.9893 229.013 53.56 229.517 53.252C230.021 52.9347 230.599 52.776 231.253 52.776C231.887 52.776 232.429 52.916 232.877 53.196C233.334 53.476 233.679 53.8773 233.913 54.4C234.155 54.9133 234.277 55.5293 234.277 56.248V56.472H229.027V55.688H233.549L233.157 56.192C233.175 55.3987 233.021 54.792 232.695 54.372C232.368 53.952 231.892 53.742 231.267 53.742C230.613 53.742 230.1 53.9753 229.727 54.442C229.363 54.8993 229.181 55.5433 229.181 56.374C229.181 57.27 229.377 57.9467 229.769 58.404C230.161 58.852 230.739 59.076 231.505 59.076C231.915 59.076 232.307 59.0107 232.681 58.88C233.054 58.74 233.409 58.5347 233.745 58.264L234.151 59.174ZM235.956 60V54.932C235.956 54.6053 235.946 54.2787 235.928 53.952C235.918 53.616 235.89 53.2847 235.844 52.958H237.048L237.174 54.4L237.034 54.484C237.239 53.9333 237.566 53.5133 238.014 53.224C238.471 52.9253 238.994 52.776 239.582 52.776C241.271 52.776 242.116 53.714 242.116 55.59V60H240.842V55.66C240.842 55.0253 240.716 54.5633 240.464 54.274C240.221 53.9753 239.829 53.826 239.288 53.826C238.662 53.826 238.163 54.022 237.79 54.414C237.416 54.7967 237.23 55.3147 237.23 55.968V60H235.956ZM247.21 60.098C246.5 60.098 245.889 59.9487 245.376 59.65C244.872 59.3513 244.48 58.9313 244.2 58.39C243.92 57.8487 243.78 57.2093 243.78 56.472C243.78 55.744 243.92 55.1 244.2 54.54C244.489 53.98 244.895 53.546 245.418 53.238C245.94 52.93 246.556 52.776 247.266 52.776C247.751 52.776 248.218 52.86 248.666 53.028C249.114 53.1867 249.482 53.4107 249.772 53.7L249.366 54.624C249.03 54.3627 248.694 54.1667 248.358 54.036C248.031 53.896 247.69 53.826 247.336 53.826C246.654 53.826 246.108 54.0547 245.698 54.512C245.296 54.9693 245.096 55.6227 245.096 56.472C245.096 57.3027 245.296 57.942 245.698 58.39C246.099 58.838 246.65 59.062 247.35 59.062C247.686 59.062 248.022 58.9967 248.358 58.866C248.694 58.7353 249.03 58.5347 249.366 58.264L249.772 59.188C249.473 59.468 249.095 59.692 248.638 59.86C248.18 60.0187 247.704 60.098 247.21 60.098ZM250.851 63.178L250.585 62.198C251.014 62.0953 251.373 61.974 251.663 61.834C251.961 61.7033 252.209 61.5307 252.405 61.316C252.601 61.1107 252.773 60.8353 252.923 60.49L253.385 59.44L253.679 59.02L256.185 52.958H257.459L254.169 60.602C253.917 61.1807 253.627 61.6427 253.301 61.988C252.974 62.3427 252.605 62.6087 252.195 62.786C251.793 62.9633 251.345 63.094 250.851 63.178ZM253.399 60.392L250.221 52.958H251.551L254.029 59.02L253.399 60.392ZM264.345 62.548C263.953 61.82 263.635 61.1107 263.393 60.42C263.159 59.7293 262.987 59.0433 262.875 58.362C262.772 57.6807 262.721 56.9853 262.721 56.276C262.721 55.5667 262.777 54.8713 262.889 54.19C263.001 53.4993 263.173 52.8133 263.407 52.132C263.64 51.4413 263.953 50.7413 264.345 50.032H265.395C265.049 50.8627 264.774 51.6327 264.569 52.342C264.373 53.0513 264.233 53.728 264.149 54.372C264.074 55.016 264.037 55.6507 264.037 56.276C264.037 56.9107 264.074 57.55 264.149 58.194C264.233 58.838 264.373 59.5147 264.569 60.224C264.774 60.9427 265.045 61.7173 265.381 62.548H264.345ZM267.035 60V50.032H273.405V51.096H268.309V54.4H273.125V55.478H268.309V58.936H273.405V60H267.035ZM279.227 60.112C277.911 60.112 276.912 59.7713 276.231 59.09C275.559 58.4087 275.223 57.4007 275.223 56.066V50.032H276.497V56.164C276.497 57.116 276.726 57.8347 277.183 58.32C277.65 58.796 278.331 59.034 279.227 59.034C280.114 59.034 280.786 58.7913 281.243 58.306C281.7 57.8207 281.929 57.1067 281.929 56.164V50.032H283.217V56.066C283.217 57.3913 282.876 58.3993 282.195 59.09C281.523 59.7713 280.534 60.112 279.227 60.112ZM285.56 60V50.032H289.578C290.67 50.032 291.501 50.2747 292.07 50.76C292.649 51.236 292.938 51.9267 292.938 52.832C292.938 53.6907 292.644 54.3673 292.056 54.862C291.468 55.3567 290.647 55.604 289.592 55.604L290.642 55.408C291.006 55.408 291.319 55.5107 291.58 55.716C291.842 55.912 292.052 56.2293 292.21 56.668L293.47 60H292.084L290.852 56.682C290.703 56.2807 290.493 56.0147 290.222 55.884C289.961 55.7533 289.611 55.688 289.172 55.688H286.834V60H285.56ZM286.834 54.638H289.452C290.208 54.638 290.768 54.4887 291.132 54.19C291.496 53.882 291.678 53.434 291.678 52.846C291.678 52.2487 291.496 51.8053 291.132 51.516C290.778 51.2267 290.218 51.082 289.452 51.082H286.834V54.638ZM295.575 62.548H294.525C294.87 61.7173 295.141 60.9427 295.337 60.224C295.533 59.5147 295.673 58.838 295.757 58.194C295.841 57.55 295.883 56.9107 295.883 56.276C295.883 55.6507 295.841 55.016 295.757 54.372C295.673 53.728 295.533 53.0513 295.337 52.342C295.141 51.6327 294.87 50.8627 294.525 50.032H295.575C296.153 51.1053 296.569 52.1507 296.821 53.168C297.073 54.1853 297.199 55.2213 297.199 56.276C297.199 56.9853 297.143 57.6807 297.031 58.362C296.928 59.0433 296.755 59.7293 296.513 60.42C296.279 61.1107 295.967 61.82 295.575 62.548Z" fill="#969EAC"/>
<defs>
<filter id="filter0_di" x="0" y="0" width="347" height="114" filterUnits="userSpaceOnUse" color-interpolation-filters="sRGB">
<feFlood flood-opacity="0" result="BackgroundImageFix"/>
<feColorMatrix in="SourceAlpha" type="matrix" values="0 0 0 0 0 0 0 0 0 0 0 0 0 0 0 0 0 0 127 0"/>
<feOffset dy="2"/>
<feGaussianBlur stdDeviation="4"/>
<feColorMatrix type="matrix" values="0 0 0 0 0.888 0 0 0 0 0.911467 0 0 0 0 0.952 0 0 0 1 0"/>
<feBlend mode="normal" in2="BackgroundImageFix" result="effect1_dropShadow"/>
<feBlend mode="normal" in="SourceGraphic" in2="effect1_dropShadow" result="shape"/>
<feColorMatrix in="SourceAlpha" type="matrix" values="0 0 0 0 0 0 0 0 0 0 0 0 0 0 0 0 0 0 127 0" result="hardAlpha"/>
<feOffset dy="-1"/>
<feComposite in2="hardAlpha" operator="arithmetic" k2="-1" k3="1"/>
<feColorMatrix type="matrix" values="0 0 0 0 0.921569 0 0 0 0 0.92549 0 0 0 0 0.945098 0 0 0 1 0"/>
<feBlend mode="normal" in2="shape" result="effect2_innerShadow"/>
</filter>
<filter id="filter1_d" x="67" y="47" width="20" height="20" filterUnits="userSpaceOnUse" color-interpolation-filters="sRGB">
<feFlood flood-opacity="0" result="BackgroundImageFix"/>
<feColorMatrix in="SourceAlpha" type="matrix" values="0 0 0 0 0 0 0 0 0 0 0 0 0 0 0 0 0 0 127 0"/>
<feOffset dy="2"/>
<feGaussianBlur stdDeviation="1"/>
<feColorMatrix type="matrix" values="0 0 0 0 0.32549 0 0 0 0 0.298039 0 0 0 0 0.917647 0 0 0 0.2 0"/>
<feBlend mode="normal" in2="BackgroundImageFix" result="effect1_dropShadow"/>
<feBlend mode="normal" in="SourceGraphic" in2="effect1_dropShadow" result="shape"/>
</filter>
</defs>
</svg>
