<svg width="765" height="480" viewBox="0 0 765 480" fill="none" xmlns="http://www.w3.org/2000/svg">
<g filter="url(#filter0_di)">
<rect x="8" y="6" width="749" height="354" rx="6" fill="white"/>
</g>
<path d="M642.841 324.112C642.327 324.112 641.842 324.07 641.385 323.986C640.937 323.893 640.517 323.753 640.125 323.566C639.742 323.379 639.397 323.146 639.089 322.866L639.565 321.886C640.059 322.297 640.563 322.591 641.077 322.768C641.59 322.945 642.183 323.034 642.855 323.034C643.629 323.034 644.227 322.885 644.647 322.586C645.067 322.287 645.277 321.867 645.277 321.326C645.277 320.999 645.174 320.738 644.969 320.542C644.763 320.337 644.474 320.173 644.101 320.052C643.737 319.921 643.317 319.8 642.841 319.688C642.337 319.585 641.865 319.464 641.427 319.324C640.997 319.184 640.619 319.011 640.293 318.806C639.966 318.591 639.714 318.325 639.537 318.008C639.359 317.691 639.271 317.299 639.271 316.832C639.271 316.263 639.42 315.759 639.719 315.32C640.027 314.881 640.456 314.541 641.007 314.298C641.557 314.046 642.206 313.92 642.953 313.92C643.41 313.92 643.849 313.971 644.269 314.074C644.698 314.167 645.095 314.307 645.459 314.494C645.823 314.671 646.14 314.895 646.411 315.166L645.935 316.146C645.477 315.754 645.006 315.465 644.521 315.278C644.035 315.091 643.513 314.998 642.953 314.998C642.206 314.998 641.618 315.157 641.189 315.474C640.769 315.782 640.559 316.216 640.559 316.776C640.559 317.121 640.652 317.401 640.839 317.616C641.025 317.831 641.291 318.003 641.637 318.134C641.982 318.265 642.393 318.386 642.869 318.498C643.373 318.61 643.849 318.736 644.297 318.876C644.745 319.016 645.137 319.184 645.473 319.38C645.818 319.576 646.089 319.828 646.285 320.136C646.481 320.435 646.579 320.813 646.579 321.27C646.579 321.849 646.429 322.353 646.131 322.782C645.832 323.202 645.403 323.529 644.843 323.762C644.283 323.995 643.615 324.112 642.841 324.112ZM654.11 323.174C653.802 323.463 653.405 323.692 652.92 323.86C652.434 324.019 651.94 324.098 651.436 324.098C650.698 324.098 650.064 323.953 649.532 323.664C649 323.375 648.589 322.959 648.3 322.418C648.01 321.867 647.866 321.214 647.866 320.458C647.866 319.73 648.006 319.091 648.286 318.54C648.575 317.989 648.972 317.56 649.476 317.252C649.98 316.935 650.558 316.776 651.212 316.776C651.846 316.776 652.388 316.916 652.836 317.196C653.293 317.476 653.638 317.877 653.872 318.4C654.114 318.913 654.236 319.529 654.236 320.248V320.472H648.986V319.688H653.508L653.116 320.192C653.134 319.399 652.98 318.792 652.654 318.372C652.327 317.952 651.851 317.742 651.226 317.742C650.572 317.742 650.059 317.975 649.686 318.442C649.322 318.899 649.14 319.543 649.14 320.374C649.14 321.27 649.336 321.947 649.728 322.404C650.12 322.852 650.698 323.076 651.464 323.076C651.874 323.076 652.266 323.011 652.64 322.88C653.013 322.74 653.368 322.535 653.704 322.264L654.11 323.174ZM655.915 327.024V318.932C655.915 318.605 655.905 318.279 655.887 317.952C655.877 317.616 655.849 317.285 655.803 316.958H657.007L657.133 318.4L657.021 318.582C657.179 318.003 657.483 317.56 657.931 317.252C658.379 316.935 658.915 316.776 659.541 316.776C660.157 316.776 660.698 316.935 661.165 317.252C661.641 317.56 662.009 317.989 662.271 318.54C662.541 319.091 662.677 319.735 662.677 320.472C662.677 321.209 662.541 321.853 662.271 322.404C662.009 322.945 661.645 323.365 661.179 323.664C660.712 323.953 660.166 324.098 659.541 324.098C658.915 324.098 658.379 323.944 657.931 323.636C657.483 323.319 657.179 322.875 657.021 322.306L657.189 322.152V327.024H655.915ZM659.275 323.062C659.937 323.062 660.451 322.838 660.815 322.39C661.179 321.942 661.361 321.303 661.361 320.472C661.361 319.641 661.179 318.993 660.815 318.526C660.451 318.059 659.937 317.826 659.275 317.826C658.603 317.826 658.085 318.055 657.721 318.512C657.357 318.96 657.175 319.604 657.175 320.444C657.175 321.284 657.357 321.933 657.721 322.39C658.085 322.838 658.603 323.062 659.275 323.062ZM668.111 324V323.02L671.583 319.212C672.031 318.708 672.358 318.255 672.563 317.854C672.778 317.443 672.885 317.033 672.885 316.622C672.885 316.099 672.731 315.698 672.423 315.418C672.115 315.129 671.681 314.984 671.121 314.984C670.645 314.984 670.174 315.082 669.707 315.278C669.241 315.465 668.779 315.745 668.321 316.118L667.845 315.138C668.237 314.765 668.732 314.471 669.329 314.256C669.936 314.032 670.543 313.92 671.149 313.92C671.775 313.92 672.311 314.027 672.759 314.242C673.207 314.447 673.557 314.751 673.809 315.152C674.061 315.544 674.187 316.011 674.187 316.552C674.187 317.121 674.057 317.667 673.795 318.19C673.543 318.713 673.123 319.301 672.535 319.954L669.245 323.496L669.133 322.922H674.593V324H668.111ZM679.586 324.112C678.438 324.112 677.565 323.683 676.968 322.824C676.37 321.956 676.072 320.687 676.072 319.016C676.072 317.345 676.366 316.081 676.954 315.222C677.551 314.354 678.428 313.92 679.586 313.92C680.743 313.92 681.616 314.354 682.204 315.222C682.801 316.081 683.1 317.341 683.1 319.002C683.1 320.673 682.801 321.942 682.204 322.81C681.606 323.678 680.734 324.112 679.586 324.112ZM679.586 323.048C680.342 323.048 680.897 322.721 681.252 322.068C681.616 321.415 681.798 320.393 681.798 319.002C681.798 317.611 681.616 316.599 681.252 315.964C680.897 315.32 680.342 314.998 679.586 314.998C678.83 314.998 678.27 315.32 677.906 315.964C677.551 316.608 677.374 317.621 677.374 319.002C677.374 320.393 677.551 321.415 677.906 322.068C678.27 322.721 678.83 323.048 679.586 323.048ZM684.9 324V323.02L688.372 319.212C688.82 318.708 689.147 318.255 689.352 317.854C689.567 317.443 689.674 317.033 689.674 316.622C689.674 316.099 689.52 315.698 689.212 315.418C688.904 315.129 688.47 314.984 687.91 314.984C687.434 314.984 686.963 315.082 686.496 315.278C686.03 315.465 685.568 315.745 685.11 316.118L684.634 315.138C685.026 314.765 685.521 314.471 686.118 314.256C686.725 314.032 687.332 313.92 687.938 313.92C688.564 313.92 689.1 314.027 689.548 314.242C689.996 314.447 690.346 314.751 690.598 315.152C690.85 315.544 690.976 316.011 690.976 316.552C690.976 317.121 690.846 317.667 690.584 318.19C690.332 318.713 689.912 319.301 689.324 319.954L686.034 323.496L685.922 322.922H691.382V324H684.9ZM696.375 324.112C695.227 324.112 694.354 323.683 693.757 322.824C693.159 321.956 692.861 320.687 692.861 319.016C692.861 317.345 693.155 316.081 693.743 315.222C694.34 314.354 695.217 313.92 696.375 313.92C697.532 313.92 698.405 314.354 698.993 315.222C699.59 316.081 699.889 317.341 699.889 319.002C699.889 320.673 699.59 321.942 698.993 322.81C698.395 323.678 697.523 324.112 696.375 324.112ZM696.375 323.048C697.131 323.048 697.686 322.721 698.041 322.068C698.405 321.415 698.587 320.393 698.587 319.002C698.587 317.611 698.405 316.599 698.041 315.964C697.686 315.32 697.131 314.998 696.375 314.998C695.619 314.998 695.059 315.32 694.695 315.964C694.34 316.608 694.163 317.621 694.163 319.002C694.163 320.393 694.34 321.415 694.695 322.068C695.059 322.721 695.619 323.048 696.375 323.048Z" fill="#969EAC"/>
<path d="M562.904 324H561.574L565.984 314.032H567.09L571.514 324H570.198L566.334 314.998H566.768L562.904 324ZM563.464 321.494L563.926 320.43H569.134L569.596 321.494H563.464ZM575.27 324.098C574.421 324.098 573.782 323.865 573.352 323.398C572.932 322.922 572.722 322.222 572.722 321.298V316.958H573.996V321.284C573.996 321.891 574.118 322.339 574.36 322.628C574.612 322.908 574.995 323.048 575.508 323.048C576.106 323.048 576.586 322.857 576.95 322.474C577.314 322.082 577.496 321.564 577.496 320.92V316.958H578.784V324H577.538V322.488L577.706 322.418C577.52 322.969 577.207 323.389 576.768 323.678C576.33 323.958 575.83 324.098 575.27 324.098ZM584.021 327.122C582.948 327.122 582.014 326.884 581.221 326.408L581.445 325.386C581.884 325.638 582.299 325.82 582.691 325.932C583.092 326.044 583.536 326.1 584.021 326.1C584.684 326.1 585.183 325.923 585.519 325.568C585.864 325.223 586.037 324.705 586.037 324.014V322.138L586.191 321.998C586.079 322.362 585.902 322.679 585.659 322.95C585.426 323.211 585.136 323.417 584.791 323.566C584.455 323.715 584.068 323.79 583.629 323.79C583.013 323.79 582.467 323.645 581.991 323.356C581.515 323.057 581.142 322.647 580.871 322.124C580.61 321.601 580.479 320.99 580.479 320.29C580.479 319.59 580.61 318.979 580.871 318.456C581.142 317.924 581.515 317.513 581.991 317.224C582.467 316.925 583.013 316.776 583.629 316.776C584.273 316.776 584.819 316.935 585.267 317.252C585.724 317.569 586.032 318.008 586.191 318.568L586.023 318.456V316.958H587.297V323.902C587.297 324.975 587.017 325.778 586.457 326.31C585.906 326.851 585.094 327.122 584.021 327.122ZM583.909 322.74C584.572 322.74 585.09 322.525 585.463 322.096C585.836 321.657 586.023 321.055 586.023 320.29C586.023 319.525 585.836 318.923 585.463 318.484C585.09 318.045 584.572 317.826 583.909 317.826C583.246 317.826 582.724 318.045 582.341 318.484C581.958 318.923 581.767 319.525 581.767 320.29C581.767 321.065 581.958 321.667 582.341 322.096C582.724 322.525 583.246 322.74 583.909 322.74ZM593.164 324V323.02L596.636 319.212C597.084 318.708 597.411 318.255 597.616 317.854C597.831 317.443 597.938 317.033 597.938 316.622C597.938 316.099 597.784 315.698 597.476 315.418C597.168 315.129 596.734 314.984 596.174 314.984C595.698 314.984 595.227 315.082 594.76 315.278C594.293 315.465 593.831 315.745 593.374 316.118L592.898 315.138C593.29 314.765 593.785 314.471 594.382 314.256C594.989 314.032 595.595 313.92 596.202 313.92C596.827 313.92 597.364 314.027 597.812 314.242C598.26 314.447 598.61 314.751 598.862 315.152C599.114 315.544 599.24 316.011 599.24 316.552C599.24 317.121 599.109 317.667 598.848 318.19C598.596 318.713 598.176 319.301 597.588 319.954L594.298 323.496L594.186 322.922H599.646V324H593.164ZM604.638 324.112C603.49 324.112 602.618 323.683 602.02 322.824C601.423 321.956 601.124 320.687 601.124 319.016C601.124 317.345 601.418 316.081 602.006 315.222C602.604 314.354 603.481 313.92 604.638 313.92C605.796 313.92 606.668 314.354 607.256 315.222C607.854 316.081 608.152 317.341 608.152 319.002C608.152 320.673 607.854 321.942 607.256 322.81C606.659 323.678 605.786 324.112 604.638 324.112ZM604.638 323.048C605.394 323.048 605.95 322.721 606.304 322.068C606.668 321.415 606.85 320.393 606.85 319.002C606.85 317.611 606.668 316.599 606.304 315.964C605.95 315.32 605.394 314.998 604.638 314.998C603.882 314.998 603.322 315.32 602.958 315.964C602.604 316.608 602.426 317.621 602.426 319.002C602.426 320.393 602.604 321.415 602.958 322.068C603.322 322.721 603.882 323.048 604.638 323.048ZM609.953 324V323.02L613.425 319.212C613.873 318.708 614.2 318.255 614.405 317.854C614.62 317.443 614.727 317.033 614.727 316.622C614.727 316.099 614.573 315.698 614.265 315.418C613.957 315.129 613.523 314.984 612.963 314.984C612.487 314.984 612.016 315.082 611.549 315.278C611.082 315.465 610.62 315.745 610.163 316.118L609.687 315.138C610.079 314.765 610.574 314.471 611.171 314.256C611.778 314.032 612.384 313.92 612.991 313.92C613.616 313.92 614.153 314.027 614.601 314.242C615.049 314.447 615.399 314.751 615.651 315.152C615.903 315.544 616.029 316.011 616.029 316.552C616.029 317.121 615.898 317.667 615.637 318.19C615.385 318.713 614.965 319.301 614.377 319.954L611.087 323.496L610.975 322.922H616.435V324H609.953ZM621.428 324.112C620.28 324.112 619.407 323.683 618.81 322.824C618.212 321.956 617.914 320.687 617.914 319.016C617.914 317.345 618.208 316.081 618.796 315.222C619.393 314.354 620.27 313.92 621.428 313.92C622.585 313.92 623.458 314.354 624.046 315.222C624.643 316.081 624.942 317.341 624.942 319.002C624.942 320.673 624.643 321.942 624.046 322.81C623.448 323.678 622.576 324.112 621.428 324.112ZM621.428 323.048C622.184 323.048 622.739 322.721 623.094 322.068C623.458 321.415 623.64 320.393 623.64 319.002C623.64 317.611 623.458 316.599 623.094 315.964C622.739 315.32 622.184 314.998 621.428 314.998C620.672 314.998 620.112 315.32 619.748 315.964C619.393 316.608 619.216 317.621 619.216 319.002C619.216 320.393 619.393 321.415 619.748 322.068C620.112 322.721 620.672 323.048 621.428 323.048Z" fill="#969EAC"/>
<path d="M461.188 326.492V325.386C461.767 325.489 462.219 325.512 462.546 325.456C462.882 325.409 463.115 325.251 463.246 324.98C463.386 324.719 463.456 324.322 463.456 323.79V314.032H464.758V323.79C464.758 324.583 464.641 325.199 464.408 325.638C464.175 326.086 463.797 326.375 463.274 326.506C462.761 326.637 462.065 326.632 461.188 326.492ZM469.517 324.098C468.668 324.098 468.029 323.865 467.599 323.398C467.179 322.922 466.969 322.222 466.969 321.298V316.958H468.243V321.284C468.243 321.891 468.365 322.339 468.607 322.628C468.859 322.908 469.242 323.048 469.755 323.048C470.353 323.048 470.833 322.857 471.197 322.474C471.561 322.082 471.743 321.564 471.743 320.92V316.958H473.031V324H471.785V322.488L471.953 322.418C471.767 322.969 471.454 323.389 471.015 323.678C470.577 323.958 470.077 324.098 469.517 324.098ZM475.146 324V313.696H476.42V324H475.146ZM482.298 324V323.02L485.77 319.212C486.218 318.708 486.544 318.255 486.75 317.854C486.964 317.443 487.072 317.033 487.072 316.622C487.072 316.099 486.918 315.698 486.61 315.418C486.302 315.129 485.868 314.984 485.308 314.984C484.832 314.984 484.36 315.082 483.894 315.278C483.427 315.465 482.965 315.745 482.508 316.118L482.032 315.138C482.424 314.765 482.918 314.471 483.516 314.256C484.122 314.032 484.729 313.92 485.336 313.92C485.961 313.92 486.498 314.027 486.946 314.242C487.394 314.447 487.744 314.751 487.996 315.152C488.248 315.544 488.374 316.011 488.374 316.552C488.374 317.121 488.243 317.667 487.982 318.19C487.73 318.713 487.31 319.301 486.722 319.954L483.432 323.496L483.32 322.922H488.78V324H482.298ZM493.772 324.112C492.624 324.112 491.752 323.683 491.154 322.824C490.557 321.956 490.258 320.687 490.258 319.016C490.258 317.345 490.552 316.081 491.14 315.222C491.738 314.354 492.615 313.92 493.772 313.92C494.93 313.92 495.802 314.354 496.39 315.222C496.988 316.081 497.286 317.341 497.286 319.002C497.286 320.673 496.988 321.942 496.39 322.81C495.793 323.678 494.92 324.112 493.772 324.112ZM493.772 323.048C494.528 323.048 495.084 322.721 495.438 322.068C495.802 321.415 495.984 320.393 495.984 319.002C495.984 317.611 495.802 316.599 495.438 315.964C495.084 315.32 494.528 314.998 493.772 314.998C493.016 314.998 492.456 315.32 492.092 315.964C491.738 316.608 491.56 317.621 491.56 319.002C491.56 320.393 491.738 321.415 492.092 322.068C492.456 322.721 493.016 323.048 493.772 323.048ZM499.087 324V323.02L502.559 319.212C503.007 318.708 503.333 318.255 503.539 317.854C503.753 317.443 503.861 317.033 503.861 316.622C503.861 316.099 503.707 315.698 503.399 315.418C503.091 315.129 502.657 314.984 502.097 314.984C501.621 314.984 501.149 315.082 500.683 315.278C500.216 315.465 499.754 315.745 499.297 316.118L498.821 315.138C499.213 314.765 499.707 314.471 500.305 314.256C500.911 314.032 501.518 313.92 502.125 313.92C502.75 313.92 503.287 314.027 503.735 314.242C504.183 314.447 504.533 314.751 504.785 315.152C505.037 315.544 505.163 316.011 505.163 316.552C505.163 317.121 505.032 317.667 504.771 318.19C504.519 318.713 504.099 319.301 503.511 319.954L500.221 323.496L500.109 322.922H505.569V324H499.087ZM510.561 324.112C509.413 324.112 508.541 323.683 507.943 322.824C507.346 321.956 507.047 320.687 507.047 319.016C507.047 317.345 507.341 316.081 507.929 315.222C508.527 314.354 509.404 313.92 510.561 313.92C511.719 313.92 512.591 314.354 513.179 315.222C513.777 316.081 514.075 317.341 514.075 319.002C514.075 320.673 513.777 321.942 513.179 322.81C512.582 323.678 511.709 324.112 510.561 324.112ZM510.561 323.048C511.317 323.048 511.873 322.721 512.227 322.068C512.591 321.415 512.773 320.393 512.773 319.002C512.773 317.611 512.591 316.599 512.227 315.964C511.873 315.32 511.317 314.998 510.561 314.998C509.805 314.998 509.245 315.32 508.881 315.964C508.527 316.608 508.349 317.621 508.349 319.002C508.349 320.393 508.527 321.415 508.881 322.068C509.245 322.721 509.805 323.048 510.561 323.048Z" fill="#969EAC"/>
<path d="M352.268 326.492V325.386C352.847 325.489 353.3 325.512 353.626 325.456C353.962 325.409 354.196 325.251 354.326 324.98C354.466 324.719 354.536 324.322 354.536 323.79V314.032H355.838V323.79C355.838 324.583 355.722 325.199 355.488 325.638C355.255 326.086 354.877 326.375 354.354 326.506C353.841 326.637 353.146 326.632 352.268 326.492ZM360.597 324.098C359.748 324.098 359.109 323.865 358.679 323.398C358.259 322.922 358.049 322.222 358.049 321.298V316.958H359.323V321.284C359.323 321.891 359.445 322.339 359.687 322.628C359.939 322.908 360.322 323.048 360.835 323.048C361.433 323.048 361.913 322.857 362.277 322.474C362.641 322.082 362.823 321.564 362.823 320.92V316.958H364.111V324H362.865V322.488L363.033 322.418C362.847 322.969 362.534 323.389 362.095 323.678C361.657 323.958 361.157 324.098 360.597 324.098ZM366.226 324V318.932C366.226 318.605 366.217 318.279 366.198 317.952C366.189 317.616 366.161 317.285 366.114 316.958H367.318L367.444 318.4L367.304 318.484C367.509 317.933 367.836 317.513 368.284 317.224C368.741 316.925 369.264 316.776 369.852 316.776C371.541 316.776 372.386 317.714 372.386 319.59V324H371.112V319.66C371.112 319.025 370.986 318.563 370.734 318.274C370.491 317.975 370.099 317.826 369.558 317.826C368.933 317.826 368.433 318.022 368.06 318.414C367.687 318.797 367.5 319.315 367.5 319.968V324H366.226ZM378.218 324V323.02L381.69 319.212C382.138 318.708 382.464 318.255 382.67 317.854C382.884 317.443 382.992 317.033 382.992 316.622C382.992 316.099 382.838 315.698 382.53 315.418C382.222 315.129 381.788 314.984 381.228 314.984C380.752 314.984 380.28 315.082 379.814 315.278C379.347 315.465 378.885 315.745 378.428 316.118L377.952 315.138C378.344 314.765 378.838 314.471 379.436 314.256C380.042 314.032 380.649 313.92 381.256 313.92C381.881 313.92 382.418 314.027 382.866 314.242C383.314 314.447 383.664 314.751 383.916 315.152C384.168 315.544 384.294 316.011 384.294 316.552C384.294 317.121 384.163 317.667 383.902 318.19C383.65 318.713 383.23 319.301 382.642 319.954L379.352 323.496L379.24 322.922H384.7V324H378.218ZM389.692 324.112C388.544 324.112 387.672 323.683 387.074 322.824C386.477 321.956 386.178 320.687 386.178 319.016C386.178 317.345 386.472 316.081 387.06 315.222C387.658 314.354 388.535 313.92 389.692 313.92C390.85 313.92 391.722 314.354 392.31 315.222C392.908 316.081 393.206 317.341 393.206 319.002C393.206 320.673 392.908 321.942 392.31 322.81C391.713 323.678 390.84 324.112 389.692 324.112ZM389.692 323.048C390.448 323.048 391.004 322.721 391.358 322.068C391.722 321.415 391.904 320.393 391.904 319.002C391.904 317.611 391.722 316.599 391.358 315.964C391.004 315.32 390.448 314.998 389.692 314.998C388.936 314.998 388.376 315.32 388.012 315.964C387.658 316.608 387.48 317.621 387.48 319.002C387.48 320.393 387.658 321.415 388.012 322.068C388.376 322.721 388.936 323.048 389.692 323.048ZM395.007 324V323.02L398.479 319.212C398.927 318.708 399.253 318.255 399.459 317.854C399.673 317.443 399.781 317.033 399.781 316.622C399.781 316.099 399.627 315.698 399.319 315.418C399.011 315.129 398.577 314.984 398.017 314.984C397.541 314.984 397.069 315.082 396.603 315.278C396.136 315.465 395.674 315.745 395.217 316.118L394.741 315.138C395.133 314.765 395.627 314.471 396.225 314.256C396.831 314.032 397.438 313.92 398.045 313.92C398.67 313.92 399.207 314.027 399.655 314.242C400.103 314.447 400.453 314.751 400.705 315.152C400.957 315.544 401.083 316.011 401.083 316.552C401.083 317.121 400.952 317.667 400.691 318.19C400.439 318.713 400.019 319.301 399.431 319.954L396.141 323.496L396.029 322.922H401.489V324H395.007ZM406.481 324.112C405.333 324.112 404.461 323.683 403.863 322.824C403.266 321.956 402.967 320.687 402.967 319.016C402.967 317.345 403.261 316.081 403.849 315.222C404.447 314.354 405.324 313.92 406.481 313.92C407.639 313.92 408.511 314.354 409.099 315.222C409.697 316.081 409.995 317.341 409.995 319.002C409.995 320.673 409.697 321.942 409.099 322.81C408.502 323.678 407.629 324.112 406.481 324.112ZM406.481 323.048C407.237 323.048 407.793 322.721 408.147 322.068C408.511 321.415 408.693 320.393 408.693 319.002C408.693 317.611 408.511 316.599 408.147 315.964C407.793 315.32 407.237 314.998 406.481 314.998C405.725 314.998 405.165 315.32 404.801 315.964C404.447 316.608 404.269 317.621 404.269 319.002C404.269 320.393 404.447 321.415 404.801 322.068C405.165 322.721 405.725 323.048 406.481 323.048Z" fill="#969EAC"/>
<path d="M244.665 324V314.032H245.729L249.705 323.09H249.145L253.093 314.032H254.143V324H252.967V315.796L253.401 315.852L249.859 324H248.963L245.365 315.852L245.841 315.796L245.855 324H244.665ZM259.108 324.098C258.492 324.098 257.946 323.953 257.47 323.664C257.003 323.365 256.639 322.945 256.378 322.404C256.116 321.853 255.986 321.209 255.986 320.472C255.986 319.735 256.116 319.091 256.378 318.54C256.648 317.989 257.017 317.56 257.484 317.252C257.96 316.935 258.501 316.776 259.108 316.776C259.742 316.776 260.284 316.935 260.732 317.252C261.18 317.56 261.483 318.003 261.642 318.582L261.474 318.68V316.958H262.734V324H261.474V322.236L261.642 322.306C261.483 322.875 261.18 323.319 260.732 323.636C260.284 323.944 259.742 324.098 259.108 324.098ZM259.388 323.062C260.06 323.062 260.573 322.838 260.928 322.39C261.292 321.933 261.474 321.284 261.474 320.444C261.474 319.604 261.292 318.96 260.928 318.512C260.564 318.055 260.05 317.826 259.388 317.826C258.725 317.826 258.207 318.059 257.834 318.526C257.46 318.993 257.274 319.641 257.274 320.472C257.274 321.303 257.46 321.942 257.834 322.39C258.207 322.838 258.725 323.062 259.388 323.062ZM264.547 327.178L264.281 326.198C264.71 326.095 265.07 325.974 265.359 325.834C265.658 325.703 265.905 325.531 266.101 325.316C266.297 325.111 266.47 324.835 266.619 324.49L267.081 323.44L267.375 323.02L269.881 316.958H271.155L267.865 324.602C267.613 325.181 267.324 325.643 266.997 325.988C266.67 326.343 266.302 326.609 265.891 326.786C265.49 326.963 265.042 327.094 264.547 327.178ZM267.095 324.392L263.917 316.958H265.247L267.725 323.02L267.095 324.392ZM276.081 324V323.02L279.553 319.212C280.001 318.708 280.328 318.255 280.533 317.854C280.748 317.443 280.855 317.033 280.855 316.622C280.855 316.099 280.701 315.698 280.393 315.418C280.085 315.129 279.651 314.984 279.091 314.984C278.615 314.984 278.144 315.082 277.677 315.278C277.21 315.465 276.748 315.745 276.291 316.118L275.815 315.138C276.207 314.765 276.702 314.471 277.299 314.256C277.906 314.032 278.512 313.92 279.119 313.92C279.744 313.92 280.281 314.027 280.729 314.242C281.177 314.447 281.527 314.751 281.779 315.152C282.031 315.544 282.157 316.011 282.157 316.552C282.157 317.121 282.026 317.667 281.765 318.19C281.513 318.713 281.093 319.301 280.505 319.954L277.215 323.496L277.103 322.922H282.563V324H276.081ZM287.555 324.112C286.407 324.112 285.535 323.683 284.937 322.824C284.34 321.956 284.041 320.687 284.041 319.016C284.041 317.345 284.335 316.081 284.923 315.222C285.521 314.354 286.398 313.92 287.555 313.92C288.713 313.92 289.585 314.354 290.173 315.222C290.771 316.081 291.069 317.341 291.069 319.002C291.069 320.673 290.771 321.942 290.173 322.81C289.576 323.678 288.703 324.112 287.555 324.112ZM287.555 323.048C288.311 323.048 288.867 322.721 289.221 322.068C289.585 321.415 289.767 320.393 289.767 319.002C289.767 317.611 289.585 316.599 289.221 315.964C288.867 315.32 288.311 314.998 287.555 314.998C286.799 314.998 286.239 315.32 285.875 315.964C285.521 316.608 285.343 317.621 285.343 319.002C285.343 320.393 285.521 321.415 285.875 322.068C286.239 322.721 286.799 323.048 287.555 323.048ZM292.87 324V323.02L296.342 319.212C296.79 318.708 297.117 318.255 297.322 317.854C297.537 317.443 297.644 317.033 297.644 316.622C297.644 316.099 297.49 315.698 297.182 315.418C296.874 315.129 296.44 314.984 295.88 314.984C295.404 314.984 294.933 315.082 294.466 315.278C293.999 315.465 293.537 315.745 293.08 316.118L292.604 315.138C292.996 314.765 293.491 314.471 294.088 314.256C294.695 314.032 295.301 313.92 295.908 313.92C296.533 313.92 297.07 314.027 297.518 314.242C297.966 314.447 298.316 314.751 298.568 315.152C298.82 315.544 298.946 316.011 298.946 316.552C298.946 317.121 298.815 317.667 298.554 318.19C298.302 318.713 297.882 319.301 297.294 319.954L294.004 323.496L293.892 322.922H299.352V324H292.87ZM304.345 324.112C303.197 324.112 302.324 323.683 301.727 322.824C301.129 321.956 300.831 320.687 300.831 319.016C300.831 317.345 301.125 316.081 301.713 315.222C302.31 314.354 303.187 313.92 304.345 313.92C305.502 313.92 306.375 314.354 306.963 315.222C307.56 316.081 307.859 317.341 307.859 319.002C307.859 320.673 307.56 321.942 306.963 322.81C306.365 323.678 305.493 324.112 304.345 324.112ZM304.345 323.048C305.101 323.048 305.656 322.721 306.011 322.068C306.375 321.415 306.557 320.393 306.557 319.002C306.557 317.611 306.375 316.599 306.011 315.964C305.656 315.32 305.101 314.998 304.345 314.998C303.589 314.998 303.029 315.32 302.665 315.964C302.31 316.608 302.133 317.621 302.133 319.002C302.133 320.393 302.31 321.415 302.665 322.068C303.029 322.721 303.589 323.048 304.345 323.048Z" fill="#969EAC"/>
<path d="M140.922 324H139.592L144.002 314.032H145.108L149.532 324H148.216L144.352 314.998H144.786L140.922 324ZM141.482 321.494L141.944 320.43H147.152L147.614 321.494H141.482ZM150.782 327.024V318.932C150.782 318.605 150.772 318.279 150.754 317.952C150.744 317.616 150.716 317.285 150.67 316.958H151.874L152 318.4L151.888 318.582C152.046 318.003 152.35 317.56 152.798 317.252C153.246 316.935 153.782 316.776 154.408 316.776C155.024 316.776 155.565 316.935 156.032 317.252C156.508 317.56 156.876 317.989 157.138 318.54C157.408 319.091 157.544 319.735 157.544 320.472C157.544 321.209 157.408 321.853 157.138 322.404C156.876 322.945 156.512 323.365 156.046 323.664C155.579 323.953 155.033 324.098 154.408 324.098C153.782 324.098 153.246 323.944 152.798 323.636C152.35 323.319 152.046 322.875 151.888 322.306L152.056 322.152V327.024H150.782ZM154.142 323.062C154.804 323.062 155.318 322.838 155.682 322.39C156.046 321.942 156.228 321.303 156.228 320.472C156.228 319.641 156.046 318.993 155.682 318.526C155.318 318.059 154.804 317.826 154.142 317.826C153.47 317.826 152.952 318.055 152.588 318.512C152.224 318.96 152.042 319.604 152.042 320.444C152.042 321.284 152.224 321.933 152.588 322.39C152.952 322.838 153.47 323.062 154.142 323.062ZM159.231 324V318.932C159.231 318.605 159.222 318.279 159.203 317.952C159.194 317.616 159.166 317.285 159.119 316.958H160.323L160.477 318.708L160.323 318.652C160.444 318.036 160.72 317.574 161.149 317.266C161.588 316.949 162.078 316.79 162.619 316.79C162.75 316.79 162.866 316.799 162.969 316.818C163.081 316.827 163.184 316.846 163.277 316.874L163.263 318.036C163.03 317.952 162.768 317.91 162.479 317.91C162.003 317.91 161.62 318.013 161.331 318.218C161.042 318.423 160.832 318.685 160.701 319.002C160.57 319.319 160.505 319.66 160.505 320.024V324H159.231ZM168.146 324V323.02L171.618 319.212C172.066 318.708 172.393 318.255 172.598 317.854C172.813 317.443 172.92 317.033 172.92 316.622C172.92 316.099 172.766 315.698 172.458 315.418C172.15 315.129 171.716 314.984 171.156 314.984C170.68 314.984 170.209 315.082 169.742 315.278C169.276 315.465 168.814 315.745 168.356 316.118L167.88 315.138C168.272 314.765 168.767 314.471 169.364 314.256C169.971 314.032 170.578 313.92 171.184 313.92C171.81 313.92 172.346 314.027 172.794 314.242C173.242 314.447 173.592 314.751 173.844 315.152C174.096 315.544 174.222 316.011 174.222 316.552C174.222 317.121 174.092 317.667 173.83 318.19C173.578 318.713 173.158 319.301 172.57 319.954L169.28 323.496L169.168 322.922H174.628V324H168.146ZM179.621 324.112C178.473 324.112 177.6 323.683 177.003 322.824C176.406 321.956 176.107 320.687 176.107 319.016C176.107 317.345 176.401 316.081 176.989 315.222C177.586 314.354 178.464 313.92 179.621 313.92C180.778 313.92 181.651 314.354 182.239 315.222C182.836 316.081 183.135 317.341 183.135 319.002C183.135 320.673 182.836 321.942 182.239 322.81C181.642 323.678 180.769 324.112 179.621 324.112ZM179.621 323.048C180.377 323.048 180.932 322.721 181.287 322.068C181.651 321.415 181.833 320.393 181.833 319.002C181.833 317.611 181.651 316.599 181.287 315.964C180.932 315.32 180.377 314.998 179.621 314.998C178.865 314.998 178.305 315.32 177.941 315.964C177.586 316.608 177.409 317.621 177.409 319.002C177.409 320.393 177.586 321.415 177.941 322.068C178.305 322.721 178.865 323.048 179.621 323.048ZM184.935 324V323.02L188.407 319.212C188.855 318.708 189.182 318.255 189.387 317.854C189.602 317.443 189.709 317.033 189.709 316.622C189.709 316.099 189.555 315.698 189.247 315.418C188.939 315.129 188.505 314.984 187.945 314.984C187.469 314.984 186.998 315.082 186.531 315.278C186.065 315.465 185.603 315.745 185.145 316.118L184.669 315.138C185.061 314.765 185.556 314.471 186.153 314.256C186.76 314.032 187.367 313.92 187.973 313.92C188.599 313.92 189.135 314.027 189.583 314.242C190.031 314.447 190.381 314.751 190.633 315.152C190.885 315.544 191.011 316.011 191.011 316.552C191.011 317.121 190.881 317.667 190.619 318.19C190.367 318.713 189.947 319.301 189.359 319.954L186.069 323.496L185.957 322.922H191.417V324H184.935ZM196.41 324.112C195.262 324.112 194.389 323.683 193.792 322.824C193.195 321.956 192.896 320.687 192.896 319.016C192.896 317.345 193.19 316.081 193.778 315.222C194.375 314.354 195.253 313.92 196.41 313.92C197.567 313.92 198.44 314.354 199.028 315.222C199.625 316.081 199.924 317.341 199.924 319.002C199.924 320.673 199.625 321.942 199.028 322.81C198.431 323.678 197.558 324.112 196.41 324.112ZM196.41 323.048C197.166 323.048 197.721 322.721 198.076 322.068C198.44 321.415 198.622 320.393 198.622 319.002C198.622 317.611 198.44 316.599 198.076 315.964C197.721 315.32 197.166 314.998 196.41 314.998C195.654 314.998 195.094 315.32 194.73 315.964C194.375 316.608 194.198 317.621 194.198 319.002C194.198 320.393 194.375 321.415 194.73 322.068C195.094 322.721 195.654 323.048 196.41 323.048Z" fill="#969EAC"/>
<path d="M33.3202 324V314.032H34.3842L38.3602 323.09H37.8002L41.7482 314.032H42.7982V324H41.6222V315.796L42.0562 315.852L38.5142 324H37.6182L34.0202 315.852L34.4962 315.796L34.5102 324H33.3202ZM47.7631 324.098C47.1471 324.098 46.6011 323.953 46.1251 323.664C45.6584 323.365 45.2944 322.945 45.0331 322.404C44.7717 321.853 44.6411 321.209 44.6411 320.472C44.6411 319.735 44.7717 319.091 45.0331 318.54C45.3037 317.989 45.6724 317.56 46.1391 317.252C46.6151 316.935 47.1564 316.776 47.7631 316.776C48.3977 316.776 48.9391 316.935 49.3871 317.252C49.8351 317.56 50.1384 318.003 50.2971 318.582L50.1291 318.68V316.958H51.3891V324H50.1291V322.236L50.2971 322.306C50.1384 322.875 49.8351 323.319 49.3871 323.636C48.9391 323.944 48.3977 324.098 47.7631 324.098ZM48.0431 323.062C48.7151 323.062 49.2284 322.838 49.5831 322.39C49.9471 321.933 50.1291 321.284 50.1291 320.444C50.1291 319.604 49.9471 318.96 49.5831 318.512C49.2191 318.055 48.7057 317.826 48.0431 317.826C47.3804 317.826 46.8624 318.059 46.4891 318.526C46.1157 318.993 45.9291 319.641 45.9291 320.472C45.9291 321.303 46.1157 321.942 46.4891 322.39C46.8624 322.838 47.3804 323.062 48.0431 323.062ZM53.5103 324V318.932C53.5103 318.605 53.501 318.279 53.4823 317.952C53.473 317.616 53.445 317.285 53.3983 316.958H54.6023L54.7563 318.708L54.6023 318.652C54.7236 318.036 54.999 317.574 55.4283 317.266C55.867 316.949 56.357 316.79 56.8983 316.79C57.029 316.79 57.1456 316.799 57.2483 316.818C57.3603 316.827 57.463 316.846 57.5563 316.874L57.5423 318.036C57.309 317.952 57.0476 317.91 56.7583 317.91C56.2823 317.91 55.8996 318.013 55.6103 318.218C55.321 318.423 55.111 318.685 54.9803 319.002C54.8496 319.319 54.7843 319.66 54.7843 320.024V324H53.5103ZM62.4257 324V323.02L65.8977 319.212C66.3457 318.708 66.6723 318.255 66.8777 317.854C67.0923 317.443 67.1997 317.033 67.1997 316.622C67.1997 316.099 67.0457 315.698 66.7377 315.418C66.4297 315.129 65.9957 314.984 65.4357 314.984C64.9597 314.984 64.4883 315.082 64.0217 315.278C63.555 315.465 63.093 315.745 62.6357 316.118L62.1597 315.138C62.5517 314.765 63.0463 314.471 63.6437 314.256C64.2503 314.032 64.857 313.92 65.4637 313.92C66.089 313.92 66.6257 314.027 67.0737 314.242C67.5217 314.447 67.8717 314.751 68.1237 315.152C68.3757 315.544 68.5017 316.011 68.5017 316.552C68.5017 317.121 68.371 317.667 68.1097 318.19C67.8577 318.713 67.4377 319.301 66.8497 319.954L63.5597 323.496L63.4477 322.922H68.9077V324H62.4257ZM73.9002 324.112C72.7522 324.112 71.8795 323.683 71.2822 322.824C70.6849 321.956 70.3862 320.687 70.3862 319.016C70.3862 317.345 70.6802 316.081 71.2682 315.222C71.8655 314.354 72.7429 313.92 73.9002 313.92C75.0575 313.92 75.9302 314.354 76.5182 315.222C77.1155 316.081 77.4142 317.341 77.4142 319.002C77.4142 320.673 77.1155 321.942 76.5182 322.81C75.9209 323.678 75.0482 324.112 73.9002 324.112ZM73.9002 323.048C74.6562 323.048 75.2115 322.721 75.5662 322.068C75.9302 321.415 76.1122 320.393 76.1122 319.002C76.1122 317.611 75.9302 316.599 75.5662 315.964C75.2115 315.32 74.6562 314.998 73.9002 314.998C73.1442 314.998 72.5842 315.32 72.2202 315.964C71.8655 316.608 71.6882 317.621 71.6882 319.002C71.6882 320.393 71.8655 321.415 72.2202 322.068C72.5842 322.721 73.1442 323.048 73.9002 323.048ZM79.2147 324V323.02L82.6867 319.212C83.1347 318.708 83.4614 318.255 83.6667 317.854C83.8814 317.443 83.9887 317.033 83.9887 316.622C83.9887 316.099 83.8347 315.698 83.5267 315.418C83.2187 315.129 82.7847 314.984 82.2247 314.984C81.7487 314.984 81.2774 315.082 80.8107 315.278C80.3441 315.465 79.8821 315.745 79.4247 316.118L78.9487 315.138C79.3407 314.765 79.8354 314.471 80.4327 314.256C81.0394 314.032 81.6461 313.92 82.2527 313.92C82.8781 313.92 83.4147 314.027 83.8627 314.242C84.3107 314.447 84.6607 314.751 84.9127 315.152C85.1647 315.544 85.2907 316.011 85.2907 316.552C85.2907 317.121 85.1601 317.667 84.8987 318.19C84.6467 318.713 84.2267 319.301 83.6387 319.954L80.3487 323.496L80.2367 322.922H85.6967V324H79.2147ZM90.6893 324.112C89.5413 324.112 88.6686 323.683 88.0713 322.824C87.4739 321.956 87.1753 320.687 87.1753 319.016C87.1753 317.345 87.4693 316.081 88.0573 315.222C88.6546 314.354 89.5319 313.92 90.6893 313.92C91.8466 313.92 92.7193 314.354 93.3073 315.222C93.9046 316.081 94.2033 317.341 94.2033 319.002C94.2033 320.673 93.9046 321.942 93.3073 322.81C92.7099 323.678 91.8373 324.112 90.6893 324.112ZM90.6893 323.048C91.4453 323.048 92.0006 322.721 92.3553 322.068C92.7193 321.415 92.9013 320.393 92.9013 319.002C92.9013 317.611 92.7193 316.599 92.3553 315.964C92.0006 315.32 91.4453 314.998 90.6893 314.998C89.9333 314.998 89.3733 315.32 89.0093 315.964C88.6546 316.608 88.4773 317.621 88.4773 319.002C88.4773 320.393 88.6546 321.415 89.0093 322.068C89.3733 322.721 89.9333 323.048 90.6893 323.048Z" fill="#969EAC"/>
<path opacity="0.24" d="M43 294.75H721" stroke="#969EAC"/>
<path opacity="0.1" d="M43 258L721 258" stroke="#969EAC"/>
<path opacity="0.1" d="M43 222H721" stroke="#969EAC"/>
<path opacity="0.1" d="M43 186H721" stroke="#969EAC"/>
<path opacity="0.1" d="M43 150H721" stroke="#969EAC"/>
<path opacity="0.1" d="M43 114H721" stroke="#969EAC"/>
<path opacity="0.1" d="M43 78H721" stroke="#969EAC"/>
<path opacity="0.1" d="M43 42H721" stroke="#969EAC"/>
<path d="M711 171C711 169.895 711.895 169 713 169H719C720.105 169 721 169.895 721 171V294H711V171Z" fill="#D3365F"/>
<path d="M695 84C695 82.8954 695.895 82 697 82H703C704.105 82 705 82.8954 705 84V294H695V84Z" fill="#235EE7"/>
<path d="M679 235C679 233.895 679.895 233 681 233H687C688.105 233 689 233.895 689 235V294H679V235Z" fill="#29CFD6"/>
<path d="M605 44C605 42.8954 605.895 42 607 42H613C614.105 42 615 42.8954 615 44V294H605V44Z" fill="#D3365F"/>
<path d="M589 270C589 268.895 589.895 268 591 268H597C598.105 268 599 268.895 599 270V294H589V270Z" fill="#235EE7"/>
<path d="M573 206C573 204.895 573.895 204 575 204H581C582.105 204 583 204.895 583 206V294H573V206Z" fill="#29CFD6"/>
<path d="M499 136C499 134.895 499.895 134 501 134H507C508.105 134 509 134.895 509 136V294H499V136Z" fill="#D3365F"/>
<path d="M483 162C483 160.895 483.895 160 485 160H491C492.105 160 493 160.895 493 162V294H483V162Z" fill="#235EE7"/>
<path d="M467 191C467 189.895 467.895 189 469 189H475C476.105 189 477 189.895 477 191V294H467V191Z" fill="#29CFD6"/>
<path d="M393 77C393 75.8954 393.895 75 395 75H401C402.105 75 403 75.8954 403 77V294H393V77Z" fill="#D3365F"/>
<path d="M377 128C377 126.895 377.895 126 379 126H385C386.105 126 387 126.895 387 128V294H377V128Z" fill="#235EE7"/>
<path d="M361 91C361 89.8954 361.895 89 363 89H369C370.105 89 371 89.8954 371 91V294H361V91Z" fill="#29CFD6"/>
<path d="M181 136C181 134.895 181.895 134 183 134H189C190.105 134 191 134.895 191 136V294H181V136Z" fill="#D3365F"/>
<path d="M165 44C165 42.8954 165.895 42 167 42H173C174.105 42 175 42.8954 175 44V294H165V44Z" fill="#235EE7"/>
<path d="M149 270C149 268.895 149.895 268 151 268H157C158.105 268 159 268.895 159 270V294H149V270Z" fill="#29CFD6"/>
<path d="M75 84C75 82.8954 75.8954 82 77 82H83C84.1046 82 85 82.8954 85 84V294H75V84Z" fill="#D3365F"/>
<path d="M59 116C59 114.895 59.8954 114 61 114H67C68.1046 114 69 114.895 69 116V294H59V116Z" fill="#235EE7"/>
<path d="M43 178C43 176.895 43.8954 176 45 176H51C52.1046 176 53 176.895 53 178V294H43V178Z" fill="#29CFD6"/>
<path d="M287 162C287 160.895 287.895 160 289 160H295C296.105 160 297 160.895 297 162V294H287V162Z" fill="#D3365F"/>
<path d="M271 206C271 204.895 271.895 204 273 204H279C280.105 204 281 204.895 281 206V294H271V206Z" fill="#235EE7"/>
<path d="M255 103C255 101.895 255.895 101 257 101H263C264.105 101 265 101.895 265 103V294H255V103Z" fill="#29CFD6"/>
<circle cx="435" cy="294" r="4" fill="#FAFBFD"/>
<circle cx="435" cy="294" r="3" stroke="#969EAC" stroke-opacity="0.3" stroke-width="2"/>
<g filter="url(#filter1_d)">
<path d="M328 178C328 174.686 330.686 172 334 172H506C509.314 172 512 174.686 512 178V442C512 445.314 509.314 448 506 448H334C330.686 448 328 445.314 328 442V178Z" fill="#081833"/>
</g>
<path d="M369.272 422.192C368.088 422.192 366.968 422 365.912 421.616C364.872 421.216 363.968 420.64 363.2 419.888L363.8 418.712C364.664 419.48 365.528 420.032 366.392 420.368C367.256 420.704 368.216 420.872 369.272 420.872C370.632 420.872 371.688 420.576 372.44 419.984C373.208 419.376 373.592 418.544 373.592 417.488C373.592 416.832 373.408 416.32 373.04 415.952C372.688 415.568 372.208 415.264 371.6 415.04C371.008 414.816 370.352 414.624 369.632 414.464C368.928 414.288 368.216 414.096 367.496 413.888C366.776 413.68 366.112 413.408 365.504 413.072C364.912 412.736 364.432 412.288 364.064 411.728C363.712 411.168 363.536 410.44 363.536 409.544C363.536 408.6 363.784 407.768 364.28 407.048C364.776 406.312 365.464 405.744 366.344 405.344C367.224 404.928 368.224 404.72 369.344 404.72C370.064 404.72 370.76 404.808 371.432 404.984C372.12 405.16 372.76 405.416 373.352 405.752C373.96 406.072 374.496 406.472 374.96 406.952L374.36 408.128C372.984 406.736 371.312 406.04 369.344 406.04C368.016 406.04 366.968 406.352 366.2 406.976C365.432 407.6 365.048 408.448 365.048 409.52C365.048 410.24 365.224 410.808 365.576 411.224C365.944 411.64 366.432 411.976 367.04 412.232C367.648 412.472 368.304 412.68 369.008 412.856C369.728 413.032 370.44 413.216 371.144 413.408C371.864 413.6 372.52 413.856 373.112 414.176C373.72 414.48 374.2 414.896 374.552 415.424C374.92 415.952 375.104 416.632 375.104 417.464C375.104 418.408 374.856 419.232 374.36 419.936C373.864 420.64 373.176 421.192 372.296 421.592C371.416 421.992 370.408 422.192 369.272 422.192ZM368.768 424.784V421.928L368.792 421.184V405.632L368.768 404.984V402.128H370.112V404.984L370.088 405.632V421.184L370.112 421.928V424.784H368.768ZM383.975 422.168C382.951 422.168 381.943 421.976 380.951 421.592C379.959 421.208 379.111 420.672 378.407 419.984L379.031 418.808C379.815 419.48 380.615 419.992 381.431 420.344C382.247 420.696 383.095 420.872 383.975 420.872C385.223 420.872 386.207 420.504 386.927 419.768C387.663 419.016 388.031 418.016 388.031 416.768C388.031 415.968 387.871 415.264 387.551 414.656C387.231 414.032 386.775 413.552 386.183 413.216C385.607 412.864 384.919 412.688 384.119 412.688C383.223 412.688 382.439 412.872 381.767 413.24C381.095 413.592 380.511 414.144 380.015 414.896H378.863V404.912H388.895V406.184H380.351V413.696L379.871 413.624C380.319 412.92 380.919 412.368 381.671 411.968C382.423 411.568 383.271 411.368 384.215 411.368C385.319 411.368 386.263 411.6 387.047 412.064C387.847 412.512 388.455 413.144 388.871 413.96C389.303 414.776 389.519 415.712 389.519 416.768C389.519 417.824 389.295 418.76 388.847 419.576C388.399 420.392 387.759 421.032 386.927 421.496C386.095 421.944 385.111 422.168 383.975 422.168ZM397.885 422.168C396.797 422.168 395.757 421.976 394.765 421.592C393.773 421.208 392.925 420.672 392.221 419.984L392.845 418.808C393.629 419.496 394.429 420.016 395.245 420.368C396.077 420.704 396.957 420.872 397.885 420.872C399.133 420.872 400.093 420.576 400.765 419.984C401.453 419.376 401.797 418.512 401.797 417.392C401.797 416.24 401.437 415.384 400.717 414.824C400.013 414.248 398.973 413.96 397.597 413.96H395.749V412.664H397.213C398.557 412.664 399.589 412.352 400.309 411.728C401.045 411.104 401.413 410.224 401.413 409.088C401.413 408.112 401.117 407.36 400.525 406.832C399.933 406.288 399.101 406.016 398.029 406.016C397.149 406.016 396.309 406.192 395.509 406.544C394.709 406.88 393.909 407.392 393.109 408.08L392.485 406.904C393.173 406.216 394.005 405.68 394.981 405.296C395.973 404.912 396.997 404.72 398.053 404.72C399.045 404.72 399.909 404.896 400.645 405.248C401.381 405.6 401.941 406.104 402.325 406.76C402.725 407.4 402.925 408.168 402.925 409.064C402.909 410.12 402.621 411.032 402.061 411.8C401.517 412.568 400.765 413.08 399.805 413.336L399.709 413.096C400.877 413.336 401.765 413.824 402.373 414.56C402.981 415.28 403.285 416.224 403.285 417.392C403.285 418.864 402.797 420.032 401.821 420.896C400.845 421.744 399.533 422.168 397.885 422.168ZM412.756 422.168C411.732 422.168 410.724 421.976 409.732 421.592C408.74 421.208 407.892 420.672 407.188 419.984L407.812 418.808C408.596 419.48 409.396 419.992 410.212 420.344C411.028 420.696 411.876 420.872 412.756 420.872C414.004 420.872 414.988 420.504 415.708 419.768C416.444 419.016 416.812 418.016 416.812 416.768C416.812 415.968 416.652 415.264 416.332 414.656C416.012 414.032 415.556 413.552 414.964 413.216C414.388 412.864 413.7 412.688 412.9 412.688C412.004 412.688 411.22 412.872 410.548 413.24C409.876 413.592 409.292 414.144 408.796 414.896H407.644V404.912H417.676V406.184H409.132V413.696L408.652 413.624C409.1 412.92 409.7 412.368 410.452 411.968C411.204 411.568 412.052 411.368 412.996 411.368C414.1 411.368 415.044 411.6 415.828 412.064C416.628 412.512 417.236 413.144 417.652 413.96C418.084 414.776 418.3 415.712 418.3 416.768C418.3 417.824 418.076 418.76 417.628 419.576C417.18 420.392 416.54 421.032 415.708 421.496C414.876 421.944 413.892 422.168 412.756 422.168ZM421.987 424.568L421.243 423.968C421.627 423.536 421.875 423.144 421.987 422.792C422.099 422.456 422.155 422.104 422.155 421.736L422.659 422H421.219V419.912H423.259V421.472C423.259 422.032 423.163 422.568 422.971 423.08C422.795 423.592 422.467 424.088 421.987 424.568ZM432.083 422.192C430.163 422.192 428.707 421.456 427.715 419.984C426.723 418.496 426.227 416.32 426.227 413.456C426.227 410.576 426.715 408.4 427.691 406.928C428.683 405.456 430.147 404.72 432.083 404.72C434.019 404.72 435.475 405.456 436.451 406.928C437.443 408.4 437.939 410.568 437.939 413.432C437.939 416.296 437.443 418.472 436.451 419.96C435.459 421.448 434.003 422.192 432.083 422.192ZM432.083 420.872C433.555 420.872 434.643 420.272 435.347 419.072C436.067 417.856 436.427 415.976 436.427 413.432C436.427 410.888 436.075 409.024 435.371 407.84C434.667 406.64 433.571 406.04 432.083 406.04C430.611 406.04 429.515 406.64 428.795 407.84C428.091 409.04 427.739 410.904 427.739 413.432C427.739 415.96 428.091 417.832 428.795 419.048C429.515 420.264 430.611 420.872 432.083 420.872ZM446.473 422.192C444.553 422.192 443.097 421.456 442.105 419.984C441.113 418.496 440.617 416.32 440.617 413.456C440.617 410.576 441.105 408.4 442.081 406.928C443.073 405.456 444.537 404.72 446.473 404.72C448.409 404.72 449.865 405.456 450.841 406.928C451.833 408.4 452.329 410.568 452.329 413.432C452.329 416.296 451.833 418.472 450.841 419.96C449.849 421.448 448.393 422.192 446.473 422.192ZM446.473 420.872C447.945 420.872 449.033 420.272 449.737 419.072C450.457 417.856 450.817 415.976 450.817 413.432C450.817 410.888 450.465 409.024 449.761 407.84C449.057 406.64 447.961 406.04 446.473 406.04C445.001 406.04 443.905 406.64 443.185 407.84C442.481 409.04 442.129 410.904 442.129 413.432C442.129 415.96 442.481 417.832 443.185 419.048C443.905 420.264 445.001 420.872 446.473 420.872ZM460.864 422.192C458.944 422.192 457.488 421.456 456.496 419.984C455.504 418.496 455.008 416.32 455.008 413.456C455.008 410.576 455.496 408.4 456.472 406.928C457.464 405.456 458.928 404.72 460.864 404.72C462.8 404.72 464.256 405.456 465.232 406.928C466.224 408.4 466.72 410.568 466.72 413.432C466.72 416.296 466.224 418.472 465.232 419.96C464.24 421.448 462.784 422.192 460.864 422.192ZM460.864 420.872C462.336 420.872 463.424 420.272 464.128 419.072C464.848 417.856 465.208 415.976 465.208 413.432C465.208 410.888 464.856 409.024 464.152 407.84C463.448 406.64 462.352 406.04 460.864 406.04C459.392 406.04 458.296 406.64 457.576 407.84C456.872 409.04 456.52 410.904 456.52 413.432C456.52 415.96 456.872 417.832 457.576 419.048C458.296 420.264 459.392 420.872 460.864 420.872Z" fill="white"/>
<path d="M363.204 394V384.032H364.184L370.4 392.278L370.05 392.376V384.032H371.282V394H370.288L364.086 385.768L364.408 385.656V394H363.204ZM379.361 393.174C379.053 393.463 378.656 393.692 378.171 393.86C377.685 394.019 377.191 394.098 376.687 394.098C375.949 394.098 375.315 393.953 374.783 393.664C374.251 393.375 373.84 392.959 373.551 392.418C373.261 391.867 373.117 391.214 373.117 390.458C373.117 389.73 373.257 389.091 373.537 388.54C373.826 387.989 374.223 387.56 374.727 387.252C375.231 386.935 375.809 386.776 376.463 386.776C377.097 386.776 377.639 386.916 378.087 387.196C378.544 387.476 378.889 387.877 379.123 388.4C379.365 388.913 379.487 389.529 379.487 390.248V390.472H374.237V389.688H378.759L378.367 390.192C378.385 389.399 378.231 388.792 377.905 388.372C377.578 387.952 377.102 387.742 376.477 387.742C375.823 387.742 375.31 387.975 374.937 388.442C374.573 388.899 374.391 389.543 374.391 390.374C374.391 391.27 374.587 391.947 374.979 392.404C375.371 392.852 375.949 393.076 376.715 393.076C377.125 393.076 377.517 393.011 377.891 392.88C378.264 392.74 378.619 392.535 378.955 392.264L379.361 393.174ZM380.145 387.938V386.958H384.765V387.938H380.145ZM384.737 392.894V393.958C384.578 394.005 384.415 394.037 384.247 394.056C384.088 394.084 383.916 394.098 383.729 394.098C383.038 394.098 382.492 393.902 382.091 393.51C381.699 393.118 381.503 392.539 381.503 391.774V385.166L382.777 384.718V391.634C382.777 391.998 382.828 392.283 382.931 392.488C383.043 392.684 383.188 392.824 383.365 392.908C383.552 392.983 383.762 393.02 383.995 393.02C384.126 393.02 384.247 393.011 384.359 392.992C384.471 392.973 384.597 392.941 384.737 392.894ZM392.676 394L389.176 384.032H390.506L393.474 392.838H393.012L396.078 384.032L397.058 384.046L400.054 392.838H399.606L402.63 384.032H403.89L400.404 394H399.312L396.386 385.614H396.694L393.754 394H392.676ZM407.581 394.098C406.899 394.098 406.302 393.949 405.789 393.65C405.285 393.351 404.893 392.931 404.613 392.39C404.333 391.839 404.193 391.191 404.193 390.444C404.193 389.707 404.333 389.063 404.613 388.512C404.893 387.952 405.285 387.523 405.789 387.224C406.302 386.925 406.899 386.776 407.581 386.776C408.271 386.776 408.869 386.925 409.373 387.224C409.877 387.523 410.269 387.952 410.549 388.512C410.829 389.063 410.969 389.707 410.969 390.444C410.969 391.191 410.829 391.839 410.549 392.39C410.269 392.931 409.877 393.351 409.373 393.65C408.869 393.949 408.271 394.098 407.581 394.098ZM407.581 393.062C408.253 393.062 408.771 392.843 409.135 392.404C409.499 391.956 409.681 391.303 409.681 390.444C409.681 389.595 409.494 388.946 409.121 388.498C408.757 388.05 408.243 387.826 407.581 387.826C406.927 387.826 406.414 388.05 406.041 388.498C405.667 388.946 405.481 389.595 405.481 390.444C405.481 391.303 405.663 391.956 406.027 392.404C406.391 392.843 406.909 393.062 407.581 393.062ZM412.693 394V388.932C412.693 388.605 412.684 388.279 412.665 387.952C412.656 387.616 412.628 387.285 412.581 386.958H413.785L413.939 388.708L413.785 388.652C413.906 388.036 414.182 387.574 414.611 387.266C415.05 386.949 415.54 386.79 416.081 386.79C416.212 386.79 416.328 386.799 416.431 386.818C416.543 386.827 416.646 386.846 416.739 386.874L416.725 388.036C416.492 387.952 416.23 387.91 415.941 387.91C415.465 387.91 415.082 388.013 414.793 388.218C414.504 388.423 414.294 388.685 414.163 389.002C414.032 389.319 413.967 389.66 413.967 390.024V394H412.693ZM417.469 387.938V386.958H422.089V387.938H417.469ZM422.061 392.894V393.958C421.902 394.005 421.739 394.037 421.571 394.056C421.412 394.084 421.24 394.098 421.053 394.098C420.362 394.098 419.816 393.902 419.415 393.51C419.023 393.118 418.827 392.539 418.827 391.774V385.166L420.101 384.718V391.634C420.101 391.998 420.152 392.283 420.255 392.488C420.367 392.684 420.512 392.824 420.689 392.908C420.876 392.983 421.086 393.02 421.319 393.02C421.45 393.02 421.571 393.011 421.683 392.992C421.795 392.973 421.921 392.941 422.061 392.894ZM423.439 394V383.696H424.713V388.386L424.517 388.484C424.722 387.933 425.049 387.513 425.497 387.224C425.954 386.925 426.477 386.776 427.065 386.776C428.754 386.776 429.599 387.714 429.599 389.59V394H428.325V389.66C428.325 389.025 428.199 388.563 427.947 388.274C427.704 387.975 427.312 387.826 426.771 387.826C426.146 387.826 425.646 388.022 425.273 388.414C424.9 388.797 424.713 389.315 424.713 389.968V394H423.439Z" fill="white"/>
<rect x="340" y="384" width="10" height="10" rx="2" fill="#534CEA"/>
<path d="M369.272 358.192C368.088 358.192 366.968 358 365.912 357.616C364.872 357.216 363.968 356.64 363.2 355.888L363.8 354.712C364.664 355.48 365.528 356.032 366.392 356.368C367.256 356.704 368.216 356.872 369.272 356.872C370.632 356.872 371.688 356.576 372.44 355.984C373.208 355.376 373.592 354.544 373.592 353.488C373.592 352.832 373.408 352.32 373.04 351.952C372.688 351.568 372.208 351.264 371.6 351.04C371.008 350.816 370.352 350.624 369.632 350.464C368.928 350.288 368.216 350.096 367.496 349.888C366.776 349.68 366.112 349.408 365.504 349.072C364.912 348.736 364.432 348.288 364.064 347.728C363.712 347.168 363.536 346.44 363.536 345.544C363.536 344.6 363.784 343.768 364.28 343.048C364.776 342.312 365.464 341.744 366.344 341.344C367.224 340.928 368.224 340.72 369.344 340.72C370.064 340.72 370.76 340.808 371.432 340.984C372.12 341.16 372.76 341.416 373.352 341.752C373.96 342.072 374.496 342.472 374.96 342.952L374.36 344.128C372.984 342.736 371.312 342.04 369.344 342.04C368.016 342.04 366.968 342.352 366.2 342.976C365.432 343.6 365.048 344.448 365.048 345.52C365.048 346.24 365.224 346.808 365.576 347.224C365.944 347.64 366.432 347.976 367.04 348.232C367.648 348.472 368.304 348.68 369.008 348.856C369.728 349.032 370.44 349.216 371.144 349.408C371.864 349.6 372.52 349.856 373.112 350.176C373.72 350.48 374.2 350.896 374.552 351.424C374.92 351.952 375.104 352.632 375.104 353.464C375.104 354.408 374.856 355.232 374.36 355.936C373.864 356.64 373.176 357.192 372.296 357.592C371.416 357.992 370.408 358.192 369.272 358.192ZM368.768 360.784V357.928L368.792 357.184V341.632L368.768 340.984V338.128H370.112V340.984L370.088 341.632V357.184L370.112 357.928V360.784H368.768ZM383.423 357.352V341.536L384.383 342.256L379.895 345.16V343.648L384.071 340.912H384.911V357.352H383.423ZM379.631 358V356.728H388.703V358H379.631ZM393.205 360.568L392.461 359.968C392.845 359.536 393.093 359.144 393.205 358.792C393.317 358.456 393.373 358.104 393.373 357.736L393.877 358H392.437V355.912H394.477V357.472C394.477 358.032 394.381 358.568 394.189 359.08C394.013 359.592 393.685 360.088 393.205 360.568ZM403.686 358.168C402.662 358.168 401.654 357.976 400.662 357.592C399.67 357.208 398.822 356.672 398.118 355.984L398.742 354.808C399.526 355.48 400.326 355.992 401.142 356.344C401.958 356.696 402.806 356.872 403.686 356.872C404.934 356.872 405.918 356.504 406.638 355.768C407.374 355.016 407.742 354.016 407.742 352.768C407.742 351.968 407.582 351.264 407.262 350.656C406.942 350.032 406.486 349.552 405.894 349.216C405.318 348.864 404.63 348.688 403.83 348.688C402.934 348.688 402.15 348.872 401.478 349.24C400.806 349.592 400.222 350.144 399.726 350.896H398.574V340.912H408.606V342.184H400.062V349.696L399.582 349.624C400.03 348.92 400.63 348.368 401.382 347.968C402.134 347.568 402.982 347.368 403.926 347.368C405.03 347.368 405.974 347.6 406.758 348.064C407.558 348.512 408.166 349.144 408.582 349.96C409.014 350.776 409.23 351.712 409.23 352.768C409.23 353.824 409.006 354.76 408.558 355.576C408.11 356.392 407.47 357.032 406.638 357.496C405.806 357.944 404.822 358.168 403.686 358.168ZM417.692 358.192C415.772 358.192 414.316 357.456 413.324 355.984C412.332 354.496 411.836 352.32 411.836 349.456C411.836 346.576 412.324 344.4 413.3 342.928C414.292 341.456 415.756 340.72 417.692 340.72C419.628 340.72 421.084 341.456 422.06 342.928C423.052 344.4 423.548 346.568 423.548 349.432C423.548 352.296 423.052 354.472 422.06 355.96C421.068 357.448 419.612 358.192 417.692 358.192ZM417.692 356.872C419.164 356.872 420.252 356.272 420.956 355.072C421.676 353.856 422.036 351.976 422.036 349.432C422.036 346.888 421.684 345.024 420.98 343.84C420.276 342.64 419.18 342.04 417.692 342.04C416.22 342.04 415.124 342.64 414.404 343.84C413.7 345.04 413.348 346.904 413.348 349.432C413.348 351.96 413.7 353.832 414.404 355.048C415.124 356.264 416.22 356.872 417.692 356.872ZM432.467 358.168C431.443 358.168 430.435 357.976 429.443 357.592C428.451 357.208 427.603 356.672 426.899 355.984L427.523 354.808C428.307 355.48 429.107 355.992 429.923 356.344C430.739 356.696 431.587 356.872 432.467 356.872C433.715 356.872 434.699 356.504 435.419 355.768C436.155 355.016 436.523 354.016 436.523 352.768C436.523 351.968 436.363 351.264 436.043 350.656C435.723 350.032 435.267 349.552 434.675 349.216C434.099 348.864 433.411 348.688 432.611 348.688C431.715 348.688 430.931 348.872 430.259 349.24C429.587 349.592 429.003 350.144 428.507 350.896H427.355V340.912H437.387V342.184H428.843V349.696L428.363 349.624C428.811 348.92 429.411 348.368 430.163 347.968C430.915 347.568 431.763 347.368 432.707 347.368C433.811 347.368 434.755 347.6 435.539 348.064C436.339 348.512 436.947 349.144 437.363 349.96C437.795 350.776 438.011 351.712 438.011 352.768C438.011 353.824 437.787 354.76 437.339 355.576C436.891 356.392 436.251 357.032 435.419 357.496C434.587 357.944 433.603 358.168 432.467 358.168ZM441.697 360.568L440.953 359.968C441.337 359.536 441.585 359.144 441.697 358.792C441.809 358.456 441.865 358.104 441.865 357.736L442.369 358H440.929V355.912H442.969V357.472C442.969 358.032 442.873 358.568 442.681 359.08C442.505 359.592 442.177 360.088 441.697 360.568ZM451.794 358.192C449.874 358.192 448.418 357.456 447.426 355.984C446.434 354.496 445.938 352.32 445.938 349.456C445.938 346.576 446.426 344.4 447.402 342.928C448.394 341.456 449.858 340.72 451.794 340.72C453.73 340.72 455.186 341.456 456.162 342.928C457.154 344.4 457.65 346.568 457.65 349.432C457.65 352.296 457.154 354.472 456.162 355.96C455.17 357.448 453.714 358.192 451.794 358.192ZM451.794 356.872C453.266 356.872 454.354 356.272 455.058 355.072C455.778 353.856 456.138 351.976 456.138 349.432C456.138 346.888 455.786 345.024 455.082 343.84C454.378 342.64 453.282 342.04 451.794 342.04C450.322 342.04 449.226 342.64 448.506 343.84C447.802 345.04 447.45 346.904 447.45 349.432C447.45 351.96 447.802 353.832 448.506 355.048C449.226 356.264 450.322 356.872 451.794 356.872ZM466.184 358.192C464.264 358.192 462.808 357.456 461.816 355.984C460.824 354.496 460.328 352.32 460.328 349.456C460.328 346.576 460.816 344.4 461.792 342.928C462.784 341.456 464.248 340.72 466.184 340.72C468.12 340.72 469.576 341.456 470.552 342.928C471.544 344.4 472.04 346.568 472.04 349.432C472.04 352.296 471.544 354.472 470.552 355.96C469.56 357.448 468.104 358.192 466.184 358.192ZM466.184 356.872C467.656 356.872 468.744 356.272 469.448 355.072C470.168 353.856 470.528 351.976 470.528 349.432C470.528 346.888 470.176 345.024 469.472 343.84C468.768 342.64 467.672 342.04 466.184 342.04C464.712 342.04 463.616 342.64 462.896 343.84C462.192 345.04 461.84 346.904 461.84 349.432C461.84 351.96 462.192 353.832 462.896 355.048C463.616 356.264 464.712 356.872 466.184 356.872ZM480.575 358.192C478.655 358.192 477.199 357.456 476.207 355.984C475.215 354.496 474.719 352.32 474.719 349.456C474.719 346.576 475.207 344.4 476.183 342.928C477.175 341.456 478.639 340.72 480.575 340.72C482.511 340.72 483.967 341.456 484.943 342.928C485.935 344.4 486.431 346.568 486.431 349.432C486.431 352.296 485.935 354.472 484.943 355.96C483.951 357.448 482.495 358.192 480.575 358.192ZM480.575 356.872C482.047 356.872 483.135 356.272 483.839 355.072C484.559 353.856 484.919 351.976 484.919 349.432C484.919 346.888 484.567 345.024 483.863 343.84C483.159 342.64 482.063 342.04 480.575 342.04C479.103 342.04 478.007 342.64 477.287 343.84C476.583 345.04 476.231 346.904 476.231 349.432C476.231 351.96 476.583 353.832 477.287 355.048C478.007 356.264 479.103 356.872 480.575 356.872Z" fill="white"/>
<path d="M363.204 330V320.032H364.492V328.908H369.42V330H363.204ZM370.734 330V322.958H372.008V330H370.734ZM370.622 319.92H372.12V321.306H370.622V319.92ZM376.84 330.098C376.224 330.098 375.678 329.953 375.202 329.664C374.736 329.365 374.372 328.945 374.11 328.404C373.849 327.853 373.718 327.209 373.718 326.472C373.718 325.735 373.849 325.091 374.11 324.54C374.381 323.989 374.75 323.56 375.216 323.252C375.692 322.935 376.234 322.776 376.84 322.776C377.475 322.776 378.016 322.935 378.464 323.252C378.912 323.56 379.216 324.003 379.374 324.582L379.206 324.68V322.958H380.466V330H379.206V328.236L379.374 328.306C379.216 328.875 378.912 329.319 378.464 329.636C378.016 329.944 377.475 330.098 376.84 330.098ZM377.12 329.062C377.792 329.062 378.306 328.838 378.66 328.39C379.024 327.933 379.206 327.284 379.206 326.444C379.206 325.604 379.024 324.96 378.66 324.512C378.296 324.055 377.783 323.826 377.12 323.826C376.458 323.826 375.94 324.059 375.566 324.526C375.193 324.993 375.006 325.641 375.006 326.472C375.006 327.303 375.193 327.942 375.566 328.39C375.94 328.838 376.458 329.062 377.12 329.062ZM382.587 330V319.696H383.861V324.736L383.693 324.568C383.852 324.008 384.155 323.569 384.603 323.252C385.051 322.935 385.588 322.776 386.213 322.776C386.839 322.776 387.385 322.925 387.851 323.224C388.318 323.523 388.682 323.947 388.943 324.498C389.214 325.039 389.349 325.679 389.349 326.416C389.349 327.153 389.214 327.802 388.943 328.362C388.682 328.913 388.313 329.342 387.837 329.65C387.371 329.949 386.829 330.098 386.213 330.098C385.588 330.098 385.051 329.944 384.603 329.636C384.155 329.319 383.852 328.875 383.693 328.306L383.847 328.138V330H382.587ZM385.947 329.062C386.61 329.062 387.123 328.833 387.487 328.376C387.851 327.909 388.033 327.256 388.033 326.416C388.033 325.595 387.851 324.96 387.487 324.512C387.123 324.055 386.61 323.826 385.947 323.826C385.275 323.826 384.757 324.055 384.393 324.512C384.029 324.969 383.847 325.613 383.847 326.444C383.847 327.284 384.029 327.933 384.393 328.39C384.757 328.838 385.275 329.062 385.947 329.062ZM391.037 330V322.958H392.311V330H391.037ZM390.925 319.92H392.423V321.306H390.925V319.92ZM394.441 330V319.696H395.715V330H394.441ZM397.845 330V322.958H399.119V330H397.845ZM397.733 319.92H399.231V321.306H397.733V319.92ZM400.284 323.938V322.958H404.904V323.938H400.284ZM404.876 328.894V329.958C404.717 330.005 404.554 330.037 404.386 330.056C404.227 330.084 404.054 330.098 403.868 330.098C403.177 330.098 402.631 329.902 402.23 329.51C401.838 329.118 401.642 328.539 401.642 327.774V321.166L402.916 320.718V327.634C402.916 327.998 402.967 328.283 403.07 328.488C403.182 328.684 403.326 328.824 403.504 328.908C403.69 328.983 403.9 329.02 404.134 329.02C404.264 329.02 404.386 329.011 404.498 328.992C404.61 328.973 404.736 328.941 404.876 328.894ZM406.253 330V322.958H407.527V330H406.253ZM406.141 319.92H407.639V321.306H406.141V319.92ZM415.482 329.174C415.174 329.463 414.777 329.692 414.292 329.86C413.806 330.019 413.312 330.098 412.808 330.098C412.07 330.098 411.436 329.953 410.904 329.664C410.372 329.375 409.961 328.959 409.672 328.418C409.382 327.867 409.238 327.214 409.238 326.458C409.238 325.73 409.378 325.091 409.658 324.54C409.947 323.989 410.344 323.56 410.848 323.252C411.352 322.935 411.93 322.776 412.584 322.776C413.218 322.776 413.76 322.916 414.208 323.196C414.665 323.476 415.01 323.877 415.244 324.4C415.486 324.913 415.608 325.529 415.608 326.248V326.472H410.358V325.688H414.88L414.488 326.192C414.506 325.399 414.352 324.792 414.026 324.372C413.699 323.952 413.223 323.742 412.598 323.742C411.944 323.742 411.431 323.975 411.058 324.442C410.694 324.899 410.512 325.543 410.512 326.374C410.512 327.27 410.708 327.947 411.1 328.404C411.492 328.852 412.07 329.076 412.836 329.076C413.246 329.076 413.638 329.011 414.012 328.88C414.385 328.74 414.74 328.535 415.076 328.264L415.482 329.174ZM419.709 330.098C418.505 330.098 417.548 329.795 416.839 329.188L417.245 328.264C417.618 328.553 418.005 328.768 418.407 328.908C418.817 329.039 419.265 329.104 419.751 329.104C420.255 329.104 420.637 329.02 420.899 328.852C421.169 328.675 421.305 328.423 421.305 328.096C421.305 327.835 421.211 327.629 421.025 327.48C420.847 327.321 420.549 327.191 420.129 327.088L418.953 326.808C418.346 326.677 417.879 326.444 417.553 326.108C417.235 325.772 417.077 325.366 417.077 324.89C417.077 324.479 417.189 324.115 417.413 323.798C417.646 323.481 417.968 323.233 418.379 323.056C418.789 322.869 419.275 322.776 419.835 322.776C420.329 322.776 420.796 322.855 421.235 323.014C421.683 323.173 422.061 323.401 422.369 323.7L421.963 324.61C421.627 324.33 421.281 324.125 420.927 323.994C420.572 323.854 420.203 323.784 419.821 323.784C419.345 323.784 418.971 323.877 418.701 324.064C418.439 324.251 418.309 324.503 418.309 324.82C418.309 325.091 418.393 325.305 418.561 325.464C418.729 325.623 418.995 325.749 419.359 325.842L420.549 326.136C421.221 326.276 421.715 326.509 422.033 326.836C422.35 327.153 422.509 327.564 422.509 328.068C422.509 328.684 422.257 329.179 421.753 329.552C421.249 329.916 420.567 330.098 419.709 330.098Z" fill="white"/>
<rect x="340" y="320" width="10" height="10" rx="2" fill="#D3365F"/>
<path d="M369.272 294.192C368.088 294.192 366.968 294 365.912 293.616C364.872 293.216 363.968 292.64 363.2 291.888L363.8 290.712C364.664 291.48 365.528 292.032 366.392 292.368C367.256 292.704 368.216 292.872 369.272 292.872C370.632 292.872 371.688 292.576 372.44 291.984C373.208 291.376 373.592 290.544 373.592 289.488C373.592 288.832 373.408 288.32 373.04 287.952C372.688 287.568 372.208 287.264 371.6 287.04C371.008 286.816 370.352 286.624 369.632 286.464C368.928 286.288 368.216 286.096 367.496 285.888C366.776 285.68 366.112 285.408 365.504 285.072C364.912 284.736 364.432 284.288 364.064 283.728C363.712 283.168 363.536 282.44 363.536 281.544C363.536 280.6 363.784 279.768 364.28 279.048C364.776 278.312 365.464 277.744 366.344 277.344C367.224 276.928 368.224 276.72 369.344 276.72C370.064 276.72 370.76 276.808 371.432 276.984C372.12 277.16 372.76 277.416 373.352 277.752C373.96 278.072 374.496 278.472 374.96 278.952L374.36 280.128C372.984 278.736 371.312 278.04 369.344 278.04C368.016 278.04 366.968 278.352 366.2 278.976C365.432 279.6 365.048 280.448 365.048 281.52C365.048 282.24 365.224 282.808 365.576 283.224C365.944 283.64 366.432 283.976 367.04 284.232C367.648 284.472 368.304 284.68 369.008 284.856C369.728 285.032 370.44 285.216 371.144 285.408C371.864 285.6 372.52 285.856 373.112 286.176C373.72 286.48 374.2 286.896 374.552 287.424C374.92 287.952 375.104 288.632 375.104 289.464C375.104 290.408 374.856 291.232 374.36 291.936C373.864 292.64 373.176 293.192 372.296 293.592C371.416 293.992 370.408 294.192 369.272 294.192ZM368.768 296.784V293.928L368.792 293.184V277.632L368.768 276.984V274.128H370.112V276.984L370.088 277.632V293.184L370.112 293.928V296.784H368.768ZM380.975 294H379.367L387.815 277.464L388.007 278.184H378.095V276.912H389.087V278.016L380.975 294ZM397.885 294.168C396.797 294.168 395.757 293.976 394.765 293.592C393.773 293.208 392.925 292.672 392.221 291.984L392.845 290.808C393.629 291.496 394.429 292.016 395.245 292.368C396.077 292.704 396.957 292.872 397.885 292.872C399.133 292.872 400.093 292.576 400.765 291.984C401.453 291.376 401.797 290.512 401.797 289.392C401.797 288.24 401.437 287.384 400.717 286.824C400.013 286.248 398.973 285.96 397.597 285.96H395.749V284.664H397.213C398.557 284.664 399.589 284.352 400.309 283.728C401.045 283.104 401.413 282.224 401.413 281.088C401.413 280.112 401.117 279.36 400.525 278.832C399.933 278.288 399.101 278.016 398.029 278.016C397.149 278.016 396.309 278.192 395.509 278.544C394.709 278.88 393.909 279.392 393.109 280.08L392.485 278.904C393.173 278.216 394.005 277.68 394.981 277.296C395.973 276.912 396.997 276.72 398.053 276.72C399.045 276.72 399.909 276.896 400.645 277.248C401.381 277.6 401.941 278.104 402.325 278.76C402.725 279.4 402.925 280.168 402.925 281.064C402.909 282.12 402.621 283.032 402.061 283.8C401.517 284.568 400.765 285.08 399.805 285.336L399.709 285.096C400.877 285.336 401.765 285.824 402.373 286.56C402.981 287.28 403.285 288.224 403.285 289.392C403.285 290.864 402.797 292.032 401.821 292.896C400.845 293.744 399.533 294.168 397.885 294.168ZM412.756 294.168C411.732 294.168 410.724 293.976 409.732 293.592C408.74 293.208 407.892 292.672 407.188 291.984L407.812 290.808C408.596 291.48 409.396 291.992 410.212 292.344C411.028 292.696 411.876 292.872 412.756 292.872C414.004 292.872 414.988 292.504 415.708 291.768C416.444 291.016 416.812 290.016 416.812 288.768C416.812 287.968 416.652 287.264 416.332 286.656C416.012 286.032 415.556 285.552 414.964 285.216C414.388 284.864 413.7 284.688 412.9 284.688C412.004 284.688 411.22 284.872 410.548 285.24C409.876 285.592 409.292 286.144 408.796 286.896H407.644V276.912H417.676V278.184H409.132V285.696L408.652 285.624C409.1 284.92 409.7 284.368 410.452 283.968C411.204 283.568 412.052 283.368 412.996 283.368C414.1 283.368 415.044 283.6 415.828 284.064C416.628 284.512 417.236 285.144 417.652 285.96C418.084 286.776 418.3 287.712 418.3 288.768C418.3 289.824 418.076 290.76 417.628 291.576C417.18 292.392 416.54 293.032 415.708 293.496C414.876 293.944 413.892 294.168 412.756 294.168ZM421.987 296.568L421.243 295.968C421.627 295.536 421.875 295.144 421.987 294.792C422.099 294.456 422.155 294.104 422.155 293.736L422.659 294H421.219V291.912H423.259V293.472C423.259 294.032 423.163 294.568 422.971 295.08C422.795 295.592 422.467 296.088 421.987 296.568ZM432.083 294.192C430.163 294.192 428.707 293.456 427.715 291.984C426.723 290.496 426.227 288.32 426.227 285.456C426.227 282.576 426.715 280.4 427.691 278.928C428.683 277.456 430.147 276.72 432.083 276.72C434.019 276.72 435.475 277.456 436.451 278.928C437.443 280.4 437.939 282.568 437.939 285.432C437.939 288.296 437.443 290.472 436.451 291.96C435.459 293.448 434.003 294.192 432.083 294.192ZM432.083 292.872C433.555 292.872 434.643 292.272 435.347 291.072C436.067 289.856 436.427 287.976 436.427 285.432C436.427 282.888 436.075 281.024 435.371 279.84C434.667 278.64 433.571 278.04 432.083 278.04C430.611 278.04 429.515 278.64 428.795 279.84C428.091 281.04 427.739 282.904 427.739 285.432C427.739 287.96 428.091 289.832 428.795 291.048C429.515 292.264 430.611 292.872 432.083 292.872ZM446.473 294.192C444.553 294.192 443.097 293.456 442.105 291.984C441.113 290.496 440.617 288.32 440.617 285.456C440.617 282.576 441.105 280.4 442.081 278.928C443.073 277.456 444.537 276.72 446.473 276.72C448.409 276.72 449.865 277.456 450.841 278.928C451.833 280.4 452.329 282.568 452.329 285.432C452.329 288.296 451.833 290.472 450.841 291.96C449.849 293.448 448.393 294.192 446.473 294.192ZM446.473 292.872C447.945 292.872 449.033 292.272 449.737 291.072C450.457 289.856 450.817 287.976 450.817 285.432C450.817 282.888 450.465 281.024 449.761 279.84C449.057 278.64 447.961 278.04 446.473 278.04C445.001 278.04 443.905 278.64 443.185 279.84C442.481 281.04 442.129 282.904 442.129 285.432C442.129 287.96 442.481 289.832 443.185 291.048C443.905 292.264 445.001 292.872 446.473 292.872ZM460.864 294.192C458.944 294.192 457.488 293.456 456.496 291.984C455.504 290.496 455.008 288.32 455.008 285.456C455.008 282.576 455.496 280.4 456.472 278.928C457.464 277.456 458.928 276.72 460.864 276.72C462.8 276.72 464.256 277.456 465.232 278.928C466.224 280.4 466.72 282.568 466.72 285.432C466.72 288.296 466.224 290.472 465.232 291.96C464.24 293.448 462.784 294.192 460.864 294.192ZM460.864 292.872C462.336 292.872 463.424 292.272 464.128 291.072C464.848 289.856 465.208 287.976 465.208 285.432C465.208 282.888 464.856 281.024 464.152 279.84C463.448 278.64 462.352 278.04 460.864 278.04C459.392 278.04 458.296 278.64 457.576 279.84C456.872 281.04 456.52 282.904 456.52 285.432C456.52 287.96 456.872 289.832 457.576 291.048C458.296 292.264 459.392 292.872 460.864 292.872Z" fill="white"/>
<path d="M367.432 266.112C366.489 266.112 365.673 265.907 364.982 265.496C364.301 265.085 363.773 264.497 363.4 263.732C363.027 262.967 362.84 262.061 362.84 261.016C362.84 259.961 363.022 259.056 363.386 258.3C363.759 257.535 364.287 256.947 364.968 256.536C365.659 256.125 366.48 255.92 367.432 255.92C368.375 255.92 369.187 256.125 369.868 256.536C370.559 256.947 371.086 257.535 371.45 258.3C371.823 259.056 372.01 259.957 372.01 261.002C372.01 262.057 371.823 262.967 371.45 263.732C371.077 264.497 370.549 265.085 369.868 265.496C369.187 265.907 368.375 266.112 367.432 266.112ZM367.432 265.034C368.449 265.034 369.243 264.689 369.812 263.998C370.391 263.298 370.68 262.299 370.68 261.002C370.68 259.705 370.391 258.715 369.812 258.034C369.243 257.343 368.449 256.998 367.432 256.998C366.405 256.998 365.603 257.343 365.024 258.034C364.455 258.725 364.17 259.714 364.17 261.002C364.17 262.29 364.455 263.284 365.024 263.984C365.603 264.684 366.405 265.034 367.432 265.034ZM372.953 259.938V258.958H377.573V259.938H372.953ZM377.545 264.894V265.958C377.387 266.005 377.223 266.037 377.055 266.056C376.897 266.084 376.724 266.098 376.537 266.098C375.847 266.098 375.301 265.902 374.899 265.51C374.507 265.118 374.311 264.539 374.311 263.774V257.166L375.585 256.718V263.634C375.585 263.998 375.637 264.283 375.739 264.488C375.851 264.684 375.996 264.824 376.173 264.908C376.36 264.983 376.57 265.02 376.803 265.02C376.934 265.02 377.055 265.011 377.167 264.992C377.279 264.973 377.405 264.941 377.545 264.894ZM378.923 266V255.696H380.197V260.386L380.001 260.484C380.207 259.933 380.533 259.513 380.981 259.224C381.439 258.925 381.961 258.776 382.549 258.776C384.239 258.776 385.083 259.714 385.083 261.59V266H383.809V261.66C383.809 261.025 383.683 260.563 383.431 260.274C383.189 259.975 382.797 259.826 382.255 259.826C381.63 259.826 381.131 260.022 380.757 260.414C380.384 260.797 380.197 261.315 380.197 261.968V266H378.923ZM392.992 265.174C392.684 265.463 392.287 265.692 391.802 265.86C391.316 266.019 390.822 266.098 390.318 266.098C389.58 266.098 388.946 265.953 388.414 265.664C387.882 265.375 387.471 264.959 387.182 264.418C386.892 263.867 386.748 263.214 386.748 262.458C386.748 261.73 386.888 261.091 387.168 260.54C387.457 259.989 387.854 259.56 388.358 259.252C388.862 258.935 389.44 258.776 390.094 258.776C390.728 258.776 391.27 258.916 391.718 259.196C392.175 259.476 392.52 259.877 392.754 260.4C392.996 260.913 393.118 261.529 393.118 262.248V262.472H387.868V261.688H392.39L391.998 262.192C392.016 261.399 391.862 260.792 391.536 260.372C391.209 259.952 390.733 259.742 390.108 259.742C389.454 259.742 388.941 259.975 388.568 260.442C388.204 260.899 388.022 261.543 388.022 262.374C388.022 263.27 388.218 263.947 388.61 264.404C389.002 264.852 389.58 265.076 390.346 265.076C390.756 265.076 391.148 265.011 391.522 264.88C391.895 264.74 392.25 264.535 392.586 264.264L392.992 265.174ZM394.796 266V260.932C394.796 260.605 394.787 260.279 394.768 259.952C394.759 259.616 394.731 259.285 394.684 258.958H395.888L396.042 260.708L395.888 260.652C396.01 260.036 396.285 259.574 396.714 259.266C397.153 258.949 397.643 258.79 398.184 258.79C398.315 258.79 398.432 258.799 398.534 258.818C398.646 258.827 398.749 258.846 398.842 258.874L398.828 260.036C398.595 259.952 398.334 259.91 398.044 259.91C397.568 259.91 397.186 260.013 396.896 260.218C396.607 260.423 396.397 260.685 396.266 261.002C396.136 261.319 396.07 261.66 396.07 262.024V266H394.796ZM404.118 266H402.788L407.198 256.032H408.304L412.728 266H411.412L407.548 256.998H407.982L404.118 266ZM404.678 263.494L405.14 262.43H410.348L410.81 263.494H404.678ZM416.318 266.098C415.114 266.098 414.157 265.795 413.448 265.188L413.854 264.264C414.227 264.553 414.615 264.768 415.016 264.908C415.427 265.039 415.875 265.104 416.36 265.104C416.864 265.104 417.247 265.02 417.508 264.852C417.779 264.675 417.914 264.423 417.914 264.096C417.914 263.835 417.821 263.629 417.634 263.48C417.457 263.321 417.158 263.191 416.738 263.088L415.562 262.808C414.955 262.677 414.489 262.444 414.162 262.108C413.845 261.772 413.686 261.366 413.686 260.89C413.686 260.479 413.798 260.115 414.022 259.798C414.255 259.481 414.577 259.233 414.988 259.056C415.399 258.869 415.884 258.776 416.444 258.776C416.939 258.776 417.405 258.855 417.844 259.014C418.292 259.173 418.67 259.401 418.978 259.7L418.572 260.61C418.236 260.33 417.891 260.125 417.536 259.994C417.181 259.854 416.813 259.784 416.43 259.784C415.954 259.784 415.581 259.877 415.31 260.064C415.049 260.251 414.918 260.503 414.918 260.82C414.918 261.091 415.002 261.305 415.17 261.464C415.338 261.623 415.604 261.749 415.968 261.842L417.158 262.136C417.83 262.276 418.325 262.509 418.642 262.836C418.959 263.153 419.118 263.564 419.118 264.068C419.118 264.684 418.866 265.179 418.362 265.552C417.858 265.916 417.177 266.098 416.318 266.098ZM423.277 266.098C422.073 266.098 421.116 265.795 420.407 265.188L420.813 264.264C421.186 264.553 421.574 264.768 421.975 264.908C422.386 265.039 422.834 265.104 423.319 265.104C423.823 265.104 424.206 265.02 424.467 264.852C424.738 264.675 424.873 264.423 424.873 264.096C424.873 263.835 424.78 263.629 424.593 263.48C424.416 263.321 424.117 263.191 423.697 263.088L422.521 262.808C421.914 262.677 421.448 262.444 421.121 262.108C420.804 261.772 420.645 261.366 420.645 260.89C420.645 260.479 420.757 260.115 420.981 259.798C421.214 259.481 421.536 259.233 421.947 259.056C422.358 258.869 422.843 258.776 423.403 258.776C423.898 258.776 424.364 258.855 424.803 259.014C425.251 259.173 425.629 259.401 425.937 259.7L425.531 260.61C425.195 260.33 424.85 260.125 424.495 259.994C424.14 259.854 423.772 259.784 423.389 259.784C422.913 259.784 422.54 259.877 422.269 260.064C422.008 260.251 421.877 260.503 421.877 260.82C421.877 261.091 421.961 261.305 422.129 261.464C422.297 261.623 422.563 261.749 422.927 261.842L424.117 262.136C424.789 262.276 425.284 262.509 425.601 262.836C425.918 263.153 426.077 263.564 426.077 264.068C426.077 264.684 425.825 265.179 425.321 265.552C424.817 265.916 424.136 266.098 423.277 266.098ZM433.638 265.174C433.33 265.463 432.933 265.692 432.448 265.86C431.963 266.019 431.468 266.098 430.964 266.098C430.227 266.098 429.592 265.953 429.06 265.664C428.528 265.375 428.117 264.959 427.828 264.418C427.539 263.867 427.394 263.214 427.394 262.458C427.394 261.73 427.534 261.091 427.814 260.54C428.103 259.989 428.5 259.56 429.004 259.252C429.508 258.935 430.087 258.776 430.74 258.776C431.375 258.776 431.916 258.916 432.364 259.196C432.821 259.476 433.167 259.877 433.4 260.4C433.643 260.913 433.764 261.529 433.764 262.248V262.472H428.514V261.688H433.036L432.644 262.192C432.663 261.399 432.509 260.792 432.182 260.372C431.855 259.952 431.379 259.742 430.754 259.742C430.101 259.742 429.587 259.975 429.214 260.442C428.85 260.899 428.668 261.543 428.668 262.374C428.668 263.27 428.864 263.947 429.256 264.404C429.648 264.852 430.227 265.076 430.992 265.076C431.403 265.076 431.795 265.011 432.168 264.88C432.541 264.74 432.896 264.535 433.232 264.264L433.638 265.174ZM434.422 259.938V258.958H439.042V259.938H434.422ZM439.014 264.894V265.958C438.856 266.005 438.692 266.037 438.524 266.056C438.366 266.084 438.193 266.098 438.006 266.098C437.316 266.098 436.77 265.902 436.368 265.51C435.976 265.118 435.78 264.539 435.78 263.774V257.166L437.054 256.718V263.634C437.054 263.998 437.106 264.283 437.208 264.488C437.32 264.684 437.465 264.824 437.642 264.908C437.829 264.983 438.039 265.02 438.272 265.02C438.403 265.02 438.524 265.011 438.636 264.992C438.748 264.973 438.874 264.941 439.014 264.894ZM442.814 266.098C441.61 266.098 440.653 265.795 439.944 265.188L440.35 264.264C440.723 264.553 441.111 264.768 441.512 264.908C441.923 265.039 442.371 265.104 442.856 265.104C443.36 265.104 443.743 265.02 444.004 264.852C444.275 264.675 444.41 264.423 444.41 264.096C444.41 263.835 444.317 263.629 444.13 263.48C443.953 263.321 443.654 263.191 443.234 263.088L442.058 262.808C441.451 262.677 440.985 262.444 440.658 262.108C440.341 261.772 440.182 261.366 440.182 260.89C440.182 260.479 440.294 260.115 440.518 259.798C440.751 259.481 441.073 259.233 441.484 259.056C441.895 258.869 442.38 258.776 442.94 258.776C443.435 258.776 443.901 258.855 444.34 259.014C444.788 259.173 445.166 259.401 445.474 259.7L445.068 260.61C444.732 260.33 444.387 260.125 444.032 259.994C443.677 259.854 443.309 259.784 442.926 259.784C442.45 259.784 442.077 259.877 441.806 260.064C441.545 260.251 441.414 260.503 441.414 260.82C441.414 261.091 441.498 261.305 441.666 261.464C441.834 261.623 442.1 261.749 442.464 261.842L443.654 262.136C444.326 262.276 444.821 262.509 445.138 262.836C445.455 263.153 445.614 263.564 445.614 264.068C445.614 264.684 445.362 265.179 444.858 265.552C444.354 265.916 443.673 266.098 442.814 266.098Z" fill="white"/>
<rect x="340" y="256" width="10" height="10" rx="2" fill="#235EE7"/>
<path d="M369.272 230.192C368.088 230.192 366.968 230 365.912 229.616C364.872 229.216 363.968 228.64 363.2 227.888L363.8 226.712C364.664 227.48 365.528 228.032 366.392 228.368C367.256 228.704 368.216 228.872 369.272 228.872C370.632 228.872 371.688 228.576 372.44 227.984C373.208 227.376 373.592 226.544 373.592 225.488C373.592 224.832 373.408 224.32 373.04 223.952C372.688 223.568 372.208 223.264 371.6 223.04C371.008 222.816 370.352 222.624 369.632 222.464C368.928 222.288 368.216 222.096 367.496 221.888C366.776 221.68 366.112 221.408 365.504 221.072C364.912 220.736 364.432 220.288 364.064 219.728C363.712 219.168 363.536 218.44 363.536 217.544C363.536 216.6 363.784 215.768 364.28 215.048C364.776 214.312 365.464 213.744 366.344 213.344C367.224 212.928 368.224 212.72 369.344 212.72C370.064 212.72 370.76 212.808 371.432 212.984C372.12 213.16 372.76 213.416 373.352 213.752C373.96 214.072 374.496 214.472 374.96 214.952L374.36 216.128C372.984 214.736 371.312 214.04 369.344 214.04C368.016 214.04 366.968 214.352 366.2 214.976C365.432 215.6 365.048 216.448 365.048 217.52C365.048 218.24 365.224 218.808 365.576 219.224C365.944 219.64 366.432 219.976 367.04 220.232C367.648 220.472 368.304 220.68 369.008 220.856C369.728 221.032 370.44 221.216 371.144 221.408C371.864 221.6 372.52 221.856 373.112 222.176C373.72 222.48 374.2 222.896 374.552 223.424C374.92 223.952 375.104 224.632 375.104 225.464C375.104 226.408 374.856 227.232 374.36 227.936C373.864 228.64 373.176 229.192 372.296 229.592C371.416 229.992 370.408 230.192 369.272 230.192ZM368.768 232.784V229.928L368.792 229.184V213.632L368.768 212.984V210.128H370.112V212.984L370.088 213.632V229.184L370.112 229.928V232.784H368.768ZM378.503 230V228.872L384.575 222.104C385.423 221.128 386.039 220.264 386.423 219.512C386.823 218.744 387.023 217.968 387.023 217.184C387.023 216.176 386.727 215.4 386.135 214.856C385.559 214.296 384.727 214.016 383.639 214.016C382.775 214.016 381.935 214.192 381.119 214.544C380.319 214.88 379.519 215.392 378.719 216.08L378.095 214.904C378.767 214.248 379.607 213.72 380.615 213.32C381.623 212.92 382.631 212.72 383.639 212.72C384.647 212.72 385.511 212.896 386.231 213.248C386.967 213.6 387.535 214.112 387.935 214.784C388.335 215.44 388.535 216.224 388.535 217.136C388.535 218.112 388.303 219.064 387.839 219.992C387.391 220.904 386.655 221.936 385.631 223.088L379.607 229.664L379.583 228.728H389.279V230H378.503ZM397.885 230.168C396.797 230.168 395.757 229.976 394.765 229.592C393.773 229.208 392.925 228.672 392.221 227.984L392.845 226.808C393.629 227.496 394.429 228.016 395.245 228.368C396.077 228.704 396.957 228.872 397.885 228.872C399.133 228.872 400.093 228.576 400.765 227.984C401.453 227.376 401.797 226.512 401.797 225.392C401.797 224.24 401.437 223.384 400.717 222.824C400.013 222.248 398.973 221.96 397.597 221.96H395.749V220.664H397.213C398.557 220.664 399.589 220.352 400.309 219.728C401.045 219.104 401.413 218.224 401.413 217.088C401.413 216.112 401.117 215.36 400.525 214.832C399.933 214.288 399.101 214.016 398.029 214.016C397.149 214.016 396.309 214.192 395.509 214.544C394.709 214.88 393.909 215.392 393.109 216.08L392.485 214.904C393.173 214.216 394.005 213.68 394.981 213.296C395.973 212.912 396.997 212.72 398.053 212.72C399.045 212.72 399.909 212.896 400.645 213.248C401.381 213.6 401.941 214.104 402.325 214.76C402.725 215.4 402.925 216.168 402.925 217.064C402.909 218.12 402.621 219.032 402.061 219.8C401.517 220.568 400.765 221.08 399.805 221.336L399.709 221.096C400.877 221.336 401.765 221.824 402.373 222.56C402.981 223.28 403.285 224.224 403.285 225.392C403.285 226.864 402.797 228.032 401.821 228.896C400.845 229.744 399.533 230.168 397.885 230.168ZM412.756 230.168C411.732 230.168 410.724 229.976 409.732 229.592C408.74 229.208 407.892 228.672 407.188 227.984L407.812 226.808C408.596 227.48 409.396 227.992 410.212 228.344C411.028 228.696 411.876 228.872 412.756 228.872C414.004 228.872 414.988 228.504 415.708 227.768C416.444 227.016 416.812 226.016 416.812 224.768C416.812 223.968 416.652 223.264 416.332 222.656C416.012 222.032 415.556 221.552 414.964 221.216C414.388 220.864 413.7 220.688 412.9 220.688C412.004 220.688 411.22 220.872 410.548 221.24C409.876 221.592 409.292 222.144 408.796 222.896H407.644V212.912H417.676V214.184H409.132V221.696L408.652 221.624C409.1 220.92 409.7 220.368 410.452 219.968C411.204 219.568 412.052 219.368 412.996 219.368C414.1 219.368 415.044 219.6 415.828 220.064C416.628 220.512 417.236 221.144 417.652 221.96C418.084 222.776 418.3 223.712 418.3 224.768C418.3 225.824 418.076 226.76 417.628 227.576C417.18 228.392 416.54 229.032 415.708 229.496C414.876 229.944 413.892 230.168 412.756 230.168ZM421.987 232.568L421.243 231.968C421.627 231.536 421.875 231.144 421.987 230.792C422.099 230.456 422.155 230.104 422.155 229.736L422.659 230H421.219V227.912H423.259V229.472C423.259 230.032 423.163 230.568 422.971 231.08C422.795 231.592 422.467 232.088 421.987 232.568ZM432.083 230.192C430.163 230.192 428.707 229.456 427.715 227.984C426.723 226.496 426.227 224.32 426.227 221.456C426.227 218.576 426.715 216.4 427.691 214.928C428.683 213.456 430.147 212.72 432.083 212.72C434.019 212.72 435.475 213.456 436.451 214.928C437.443 216.4 437.939 218.568 437.939 221.432C437.939 224.296 437.443 226.472 436.451 227.96C435.459 229.448 434.003 230.192 432.083 230.192ZM432.083 228.872C433.555 228.872 434.643 228.272 435.347 227.072C436.067 225.856 436.427 223.976 436.427 221.432C436.427 218.888 436.075 217.024 435.371 215.84C434.667 214.64 433.571 214.04 432.083 214.04C430.611 214.04 429.515 214.64 428.795 215.84C428.091 217.04 427.739 218.904 427.739 221.432C427.739 223.96 428.091 225.832 428.795 227.048C429.515 228.264 430.611 228.872 432.083 228.872ZM446.473 230.192C444.553 230.192 443.097 229.456 442.105 227.984C441.113 226.496 440.617 224.32 440.617 221.456C440.617 218.576 441.105 216.4 442.081 214.928C443.073 213.456 444.537 212.72 446.473 212.72C448.409 212.72 449.865 213.456 450.841 214.928C451.833 216.4 452.329 218.568 452.329 221.432C452.329 224.296 451.833 226.472 450.841 227.96C449.849 229.448 448.393 230.192 446.473 230.192ZM446.473 228.872C447.945 228.872 449.033 228.272 449.737 227.072C450.457 225.856 450.817 223.976 450.817 221.432C450.817 218.888 450.465 217.024 449.761 215.84C449.057 214.64 447.961 214.04 446.473 214.04C445.001 214.04 443.905 214.64 443.185 215.84C442.481 217.04 442.129 218.904 442.129 221.432C442.129 223.96 442.481 225.832 443.185 227.048C443.905 228.264 445.001 228.872 446.473 228.872ZM460.864 230.192C458.944 230.192 457.488 229.456 456.496 227.984C455.504 226.496 455.008 224.32 455.008 221.456C455.008 218.576 455.496 216.4 456.472 214.928C457.464 213.456 458.928 212.72 460.864 212.72C462.8 212.72 464.256 213.456 465.232 214.928C466.224 216.4 466.72 218.568 466.72 221.432C466.72 224.296 466.224 226.472 465.232 227.96C464.24 229.448 462.784 230.192 460.864 230.192ZM460.864 228.872C462.336 228.872 463.424 228.272 464.128 227.072C464.848 225.856 465.208 223.976 465.208 221.432C465.208 218.888 464.856 217.024 464.152 215.84C463.448 214.64 462.352 214.04 460.864 214.04C459.392 214.04 458.296 214.64 457.576 215.84C456.872 217.04 456.52 218.904 456.52 221.432C456.52 223.96 456.872 225.832 457.576 227.048C458.296 228.264 459.392 228.872 460.864 228.872Z" fill="white"/>
<path d="M363.204 202V192.032H364.492V202H363.204ZM366.755 202V196.932C366.755 196.605 366.746 196.279 366.727 195.952C366.718 195.616 366.69 195.285 366.643 194.958H367.847L367.973 196.4L367.833 196.484C368.039 195.933 368.365 195.513 368.813 195.224C369.271 194.925 369.793 194.776 370.381 194.776C372.071 194.776 372.915 195.714 372.915 197.59V202H371.641V197.66C371.641 197.025 371.515 196.563 371.263 196.274C371.021 195.975 370.629 195.826 370.087 195.826C369.462 195.826 368.963 196.022 368.589 196.414C368.216 196.797 368.029 197.315 368.029 197.968V202H366.755ZM377.072 202L374.062 194.972H375.392L377.87 201.02H377.52L380.026 194.972H381.3L378.248 202H377.072ZM388.22 201.174C387.912 201.463 387.515 201.692 387.03 201.86C386.545 202.019 386.05 202.098 385.546 202.098C384.809 202.098 384.174 201.953 383.642 201.664C383.11 201.375 382.699 200.959 382.41 200.418C382.121 199.867 381.976 199.214 381.976 198.458C381.976 197.73 382.116 197.091 382.396 196.54C382.685 195.989 383.082 195.56 383.586 195.252C384.09 194.935 384.669 194.776 385.322 194.776C385.957 194.776 386.498 194.916 386.946 195.196C387.403 195.476 387.749 195.877 387.982 196.4C388.225 196.913 388.346 197.529 388.346 198.248V198.472H383.096V197.688H387.618L387.226 198.192C387.245 197.399 387.091 196.792 386.764 196.372C386.437 195.952 385.961 195.742 385.336 195.742C384.683 195.742 384.169 195.975 383.796 196.442C383.432 196.899 383.25 197.543 383.25 198.374C383.25 199.27 383.446 199.947 383.838 200.404C384.23 200.852 384.809 201.076 385.574 201.076C385.985 201.076 386.377 201.011 386.75 200.88C387.123 200.74 387.478 200.535 387.814 200.264L388.22 201.174ZM392.447 202.098C391.243 202.098 390.286 201.795 389.577 201.188L389.983 200.264C390.356 200.553 390.744 200.768 391.145 200.908C391.556 201.039 392.004 201.104 392.489 201.104C392.993 201.104 393.376 201.02 393.637 200.852C393.908 200.675 394.043 200.423 394.043 200.096C394.043 199.835 393.95 199.629 393.763 199.48C393.586 199.321 393.287 199.191 392.867 199.088L391.691 198.808C391.084 198.677 390.618 198.444 390.291 198.108C389.974 197.772 389.815 197.366 389.815 196.89C389.815 196.479 389.927 196.115 390.151 195.798C390.384 195.481 390.706 195.233 391.117 195.056C391.528 194.869 392.013 194.776 392.573 194.776C393.068 194.776 393.534 194.855 393.973 195.014C394.421 195.173 394.799 195.401 395.107 195.7L394.701 196.61C394.365 196.33 394.02 196.125 393.665 195.994C393.31 195.854 392.942 195.784 392.559 195.784C392.083 195.784 391.71 195.877 391.439 196.064C391.178 196.251 391.047 196.503 391.047 196.82C391.047 197.091 391.131 197.305 391.299 197.464C391.467 197.623 391.733 197.749 392.097 197.842L393.287 198.136C393.959 198.276 394.454 198.509 394.771 198.836C395.088 199.153 395.247 199.564 395.247 200.068C395.247 200.684 394.995 201.179 394.491 201.552C393.987 201.916 393.306 202.098 392.447 202.098ZM395.95 195.938V194.958H400.57V195.938H395.95ZM400.542 200.894V201.958C400.383 202.005 400.22 202.037 400.052 202.056C399.893 202.084 399.72 202.098 399.534 202.098C398.843 202.098 398.297 201.902 397.896 201.51C397.504 201.118 397.308 200.539 397.308 199.774V193.166L398.582 192.718V199.634C398.582 199.998 398.633 200.283 398.736 200.488C398.848 200.684 398.992 200.824 399.17 200.908C399.356 200.983 399.566 201.02 399.8 201.02C399.93 201.02 400.052 201.011 400.164 200.992C400.276 200.973 400.402 200.941 400.542 200.894ZM401.919 202V196.932C401.919 196.605 401.91 196.279 401.891 195.952C401.882 195.616 401.854 195.285 401.807 194.958H403.011L403.137 196.4L402.997 196.47C403.165 195.929 403.455 195.513 403.865 195.224C404.285 194.925 404.78 194.776 405.349 194.776C406.031 194.776 406.558 194.944 406.931 195.28C407.314 195.616 407.557 196.129 407.659 196.82L407.323 196.61C407.482 196.05 407.785 195.607 408.233 195.28C408.681 194.944 409.218 194.776 409.843 194.776C410.627 194.776 411.215 195.009 411.607 195.476C411.999 195.943 412.195 196.647 412.195 197.59V202H410.921V197.646C410.921 197.021 410.809 196.563 410.585 196.274C410.371 195.975 410.021 195.826 409.535 195.826C408.966 195.826 408.518 196.022 408.191 196.414C407.865 196.797 407.701 197.324 407.701 197.996V202H406.427V197.646C406.427 197.021 406.315 196.563 406.091 196.274C405.867 195.975 405.513 195.826 405.027 195.826C404.449 195.826 403.996 196.022 403.669 196.414C403.352 196.797 403.193 197.324 403.193 197.996V202H401.919ZM420.117 201.174C419.809 201.463 419.412 201.692 418.927 201.86C418.441 202.019 417.947 202.098 417.443 202.098C416.705 202.098 416.071 201.953 415.539 201.664C415.007 201.375 414.596 200.959 414.307 200.418C414.017 199.867 413.873 199.214 413.873 198.458C413.873 197.73 414.013 197.091 414.293 196.54C414.582 195.989 414.979 195.56 415.483 195.252C415.987 194.935 416.565 194.776 417.219 194.776C417.853 194.776 418.395 194.916 418.843 195.196C419.3 195.476 419.645 195.877 419.879 196.4C420.121 196.913 420.243 197.529 420.243 198.248V198.472H414.993V197.688H419.515L419.123 198.192C419.141 197.399 418.987 196.792 418.661 196.372C418.334 195.952 417.858 195.742 417.233 195.742C416.579 195.742 416.066 195.975 415.693 196.442C415.329 196.899 415.147 197.543 415.147 198.374C415.147 199.27 415.343 199.947 415.735 200.404C416.127 200.852 416.705 201.076 417.471 201.076C417.881 201.076 418.273 201.011 418.647 200.88C419.02 200.74 419.375 200.535 419.711 200.264L420.117 201.174ZM421.921 202V196.932C421.921 196.605 421.912 196.279 421.893 195.952C421.884 195.616 421.856 195.285 421.809 194.958H423.013L423.139 196.4L422.999 196.484C423.205 195.933 423.531 195.513 423.979 195.224C424.437 194.925 424.959 194.776 425.547 194.776C427.237 194.776 428.081 195.714 428.081 197.59V202H426.807V197.66C426.807 197.025 426.681 196.563 426.429 196.274C426.187 195.975 425.795 195.826 425.253 195.826C424.628 195.826 424.129 196.022 423.755 196.414C423.382 196.797 423.195 197.315 423.195 197.968V202H421.921ZM429.2 195.938V194.958H433.82V195.938H429.2ZM433.792 200.894V201.958C433.633 202.005 433.47 202.037 433.302 202.056C433.143 202.084 432.97 202.098 432.784 202.098C432.093 202.098 431.547 201.902 431.146 201.51C430.754 201.118 430.558 200.539 430.558 199.774V193.166L431.832 192.718V199.634C431.832 199.998 431.883 200.283 431.986 200.488C432.098 200.684 432.242 200.824 432.42 200.908C432.606 200.983 432.816 201.02 433.05 201.02C433.18 201.02 433.302 201.011 433.414 200.992C433.526 200.973 433.652 200.941 433.792 200.894ZM439.323 202H437.993L442.403 192.032H443.509L447.933 202H446.617L442.753 192.998H443.187L439.323 202ZM439.883 199.494L440.345 198.43H445.553L446.015 199.494H439.883ZM451.523 202.098C450.319 202.098 449.362 201.795 448.653 201.188L449.059 200.264C449.432 200.553 449.82 200.768 450.221 200.908C450.632 201.039 451.08 201.104 451.565 201.104C452.069 201.104 452.452 201.02 452.713 200.852C452.984 200.675 453.119 200.423 453.119 200.096C453.119 199.835 453.026 199.629 452.839 199.48C452.662 199.321 452.363 199.191 451.943 199.088L450.767 198.808C450.16 198.677 449.694 198.444 449.367 198.108C449.05 197.772 448.891 197.366 448.891 196.89C448.891 196.479 449.003 196.115 449.227 195.798C449.46 195.481 449.782 195.233 450.193 195.056C450.604 194.869 451.089 194.776 451.649 194.776C452.144 194.776 452.61 194.855 453.049 195.014C453.497 195.173 453.875 195.401 454.183 195.7L453.777 196.61C453.441 196.33 453.096 196.125 452.741 195.994C452.386 195.854 452.018 195.784 451.635 195.784C451.159 195.784 450.786 195.877 450.515 196.064C450.254 196.251 450.123 196.503 450.123 196.82C450.123 197.091 450.207 197.305 450.375 197.464C450.543 197.623 450.809 197.749 451.173 197.842L452.363 198.136C453.035 198.276 453.53 198.509 453.847 198.836C454.164 199.153 454.323 199.564 454.323 200.068C454.323 200.684 454.071 201.179 453.567 201.552C453.063 201.916 452.382 202.098 451.523 202.098ZM458.482 202.098C457.278 202.098 456.321 201.795 455.612 201.188L456.018 200.264C456.391 200.553 456.779 200.768 457.18 200.908C457.591 201.039 458.039 201.104 458.524 201.104C459.028 201.104 459.411 201.02 459.672 200.852C459.943 200.675 460.078 200.423 460.078 200.096C460.078 199.835 459.985 199.629 459.798 199.48C459.621 199.321 459.322 199.191 458.902 199.088L457.726 198.808C457.119 198.677 456.653 198.444 456.326 198.108C456.009 197.772 455.85 197.366 455.85 196.89C455.85 196.479 455.962 196.115 456.186 195.798C456.419 195.481 456.741 195.233 457.152 195.056C457.563 194.869 458.048 194.776 458.608 194.776C459.103 194.776 459.569 194.855 460.008 195.014C460.456 195.173 460.834 195.401 461.142 195.7L460.736 196.61C460.4 196.33 460.055 196.125 459.7 195.994C459.345 195.854 458.977 195.784 458.594 195.784C458.118 195.784 457.745 195.877 457.474 196.064C457.213 196.251 457.082 196.503 457.082 196.82C457.082 197.091 457.166 197.305 457.334 197.464C457.502 197.623 457.768 197.749 458.132 197.842L459.322 198.136C459.994 198.276 460.489 198.509 460.806 198.836C461.123 199.153 461.282 199.564 461.282 200.068C461.282 200.684 461.03 201.179 460.526 201.552C460.022 201.916 459.341 202.098 458.482 202.098ZM468.843 201.174C468.535 201.463 468.138 201.692 467.653 201.86C467.168 202.019 466.673 202.098 466.169 202.098C465.432 202.098 464.797 201.953 464.265 201.664C463.733 201.375 463.322 200.959 463.033 200.418C462.744 199.867 462.599 199.214 462.599 198.458C462.599 197.73 462.739 197.091 463.019 196.54C463.308 195.989 463.705 195.56 464.209 195.252C464.713 194.935 465.292 194.776 465.945 194.776C466.58 194.776 467.121 194.916 467.569 195.196C468.026 195.476 468.372 195.877 468.605 196.4C468.848 196.913 468.969 197.529 468.969 198.248V198.472H463.719V197.688H468.241L467.849 198.192C467.868 197.399 467.714 196.792 467.387 196.372C467.06 195.952 466.584 195.742 465.959 195.742C465.306 195.742 464.792 195.975 464.419 196.442C464.055 196.899 463.873 197.543 463.873 198.374C463.873 199.27 464.069 199.947 464.461 200.404C464.853 200.852 465.432 201.076 466.197 201.076C466.608 201.076 467 201.011 467.373 200.88C467.746 200.74 468.101 200.535 468.437 200.264L468.843 201.174ZM469.627 195.938V194.958H474.247V195.938H469.627ZM474.219 200.894V201.958C474.061 202.005 473.897 202.037 473.729 202.056C473.571 202.084 473.398 202.098 473.211 202.098C472.521 202.098 471.975 201.902 471.573 201.51C471.181 201.118 470.985 200.539 470.985 199.774V193.166L472.259 192.718V199.634C472.259 199.998 472.311 200.283 472.413 200.488C472.525 200.684 472.67 200.824 472.847 200.908C473.034 200.983 473.244 201.02 473.477 201.02C473.608 201.02 473.729 201.011 473.841 200.992C473.953 200.973 474.079 200.941 474.219 200.894ZM478.019 202.098C476.815 202.098 475.859 201.795 475.149 201.188L475.555 200.264C475.929 200.553 476.316 200.768 476.717 200.908C477.128 201.039 477.576 201.104 478.061 201.104C478.565 201.104 478.948 201.02 479.209 200.852C479.48 200.675 479.615 200.423 479.615 200.096C479.615 199.835 479.522 199.629 479.335 199.48C479.158 199.321 478.859 199.191 478.439 199.088L477.263 198.808C476.657 198.677 476.19 198.444 475.863 198.108C475.546 197.772 475.387 197.366 475.387 196.89C475.387 196.479 475.499 196.115 475.723 195.798C475.957 195.481 476.279 195.233 476.689 195.056C477.1 194.869 477.585 194.776 478.145 194.776C478.64 194.776 479.107 194.855 479.545 195.014C479.993 195.173 480.371 195.401 480.679 195.7L480.273 196.61C479.937 196.33 479.592 196.125 479.237 195.994C478.883 195.854 478.514 195.784 478.131 195.784C477.655 195.784 477.282 195.877 477.011 196.064C476.75 196.251 476.619 196.503 476.619 196.82C476.619 197.091 476.703 197.305 476.871 197.464C477.039 197.623 477.305 197.749 477.669 197.842L478.859 198.136C479.531 198.276 480.026 198.509 480.343 198.836C480.661 199.153 480.819 199.564 480.819 200.068C480.819 200.684 480.567 201.179 480.063 201.552C479.559 201.916 478.878 202.098 478.019 202.098Z" fill="white"/>
<rect x="340" y="192" width="10" height="10" rx="2" fill="#29CFD6"/>
<defs>
<filter id="filter0_di" x="0" y="0" width="765" height="370" filterUnits="userSpaceOnUse" color-interpolation-filters="sRGB">
<feFlood flood-opacity="0" result="BackgroundImageFix"/>
<feColorMatrix in="SourceAlpha" type="matrix" values="0 0 0 0 0 0 0 0 0 0 0 0 0 0 0 0 0 0 127 0"/>
<feOffset dy="2"/>
<feGaussianBlur stdDeviation="4"/>
<feColorMatrix type="matrix" values="0 0 0 0 0.888 0 0 0 0 0.911467 0 0 0 0 0.952 0 0 0 1 0"/>
<feBlend mode="normal" in2="BackgroundImageFix" result="effect1_dropShadow"/>
<feBlend mode="normal" in="SourceGraphic" in2="effect1_dropShadow" result="shape"/>
<feColorMatrix in="SourceAlpha" type="matrix" values="0 0 0 0 0 0 0 0 0 0 0 0 0 0 0 0 0 0 127 0" result="hardAlpha"/>
<feOffset dy="-1"/>
<feComposite in2="hardAlpha" operator="arithmetic" k2="-1" k3="1"/>
<feColorMatrix type="matrix" values="0 0 0 0 0.921569 0 0 0 0 0.92549 0 0 0 0 0.945098 0 0 0 1 0"/>
<feBlend mode="normal" in2="shape" result="effect2_innerShadow"/>
</filter>
<filter id="filter1_d" x="300" y="148" width="240" height="332" filterUnits="userSpaceOnUse" color-interpolation-filters="sRGB">
<feFlood flood-opacity="0" result="BackgroundImageFix"/>
<feColorMatrix in="SourceAlpha" type="matrix" values="0 0 0 0 0 0 0 0 0 0 0 0 0 0 0 0 0 0 127 0"/>
<feOffset dy="4"/>
<feGaussianBlur stdDeviation="14"/>
<feColorMatrix type="matrix" values="0 0 0 0 0.0313726 0 0 0 0 0.0941176 0 0 0 0 0.2 0 0 0 0.44 0"/>
<feBlend mode="normal" in2="BackgroundImageFix" result="effect1_dropShadow"/>
<feBlend mode="normal" in="SourceGraphic" in2="effect1_dropShadow" result="shape"/>
</filter>
</defs>
</svg>
