<svg width="836" height="414" viewBox="0 0 836 414" fill="none" xmlns="http://www.w3.org/2000/svg">
<g filter="url(#filter0_di)">
<rect x="8" y="6" width="820" height="398" rx="6" fill="#081833"/>
</g>
<path d="M406.413 180.144C405.201 180.144 404.145 179.88 403.245 179.352C402.357 178.824 401.673 178.068 401.193 177.084C400.713 176.088 400.473 174.918 400.473 173.574C400.473 172.23 400.713 171.072 401.193 170.1C401.673 169.116 402.357 168.36 403.245 167.832C404.145 167.304 405.201 167.04 406.413 167.04C407.301 167.04 408.111 167.178 408.843 167.454C409.587 167.718 410.229 168.12 410.769 168.66L410.211 169.794C409.599 169.266 408.993 168.888 408.393 168.66C407.805 168.432 407.151 168.318 406.431 168.318C405.027 168.318 403.935 168.774 403.155 169.686C402.387 170.598 402.003 171.894 402.003 173.574C402.003 175.266 402.387 176.574 403.155 177.498C403.923 178.41 405.015 178.866 406.431 178.866C407.151 178.866 407.805 178.752 408.393 178.524C408.993 178.296 409.599 177.918 410.211 177.39L410.769 178.524C410.229 179.064 409.587 179.472 408.843 179.748C408.111 180.012 407.301 180.144 406.413 180.144ZM420.864 170.946V180H419.424V178.362C419.16 178.926 418.758 179.364 418.218 179.676C417.69 179.976 417.072 180.126 416.364 180.126C415.56 180.126 414.852 179.934 414.24 179.55C413.64 179.166 413.172 178.626 412.836 177.93C412.512 177.222 412.35 176.4 412.35 175.464C412.35 174.528 412.518 173.706 412.854 172.998C413.19 172.278 413.658 171.72 414.258 171.324C414.87 170.928 415.572 170.73 416.364 170.73C417.072 170.73 417.69 170.886 418.218 171.198C418.746 171.51 419.148 171.948 419.424 172.512V170.946H420.864ZM416.652 178.92C417.54 178.92 418.224 178.62 418.704 178.02C419.184 177.408 419.424 176.544 419.424 175.428C419.424 174.312 419.184 173.454 418.704 172.854C418.224 172.254 417.54 171.954 416.652 171.954C415.764 171.954 415.068 172.266 414.564 172.89C414.072 173.502 413.826 174.36 413.826 175.464C413.826 176.568 414.072 177.42 414.564 178.02C415.056 178.62 415.752 178.92 416.652 178.92ZM427.895 170.73C428.195 170.73 428.471 170.766 428.723 170.838L428.687 172.17C428.411 172.074 428.093 172.026 427.733 172.026C426.857 172.026 426.203 172.302 425.771 172.854C425.351 173.394 425.141 174.054 425.141 174.834V180H423.683V173.484C423.683 172.548 423.635 171.702 423.539 170.946H424.925L425.069 172.62C425.297 172.008 425.663 171.54 426.167 171.216C426.671 170.892 427.247 170.73 427.895 170.73ZM433.177 180.126C431.653 180.126 430.447 179.736 429.559 178.956L430.045 177.876C430.537 178.26 431.035 178.536 431.539 178.704C432.043 178.872 432.607 178.956 433.231 178.956C433.915 178.956 434.431 178.842 434.779 178.614C435.139 178.374 435.319 178.032 435.319 177.588C435.319 177.228 435.199 176.94 434.959 176.724C434.719 176.508 434.323 176.34 433.771 176.22L432.241 175.86C431.485 175.692 430.897 175.392 430.477 174.96C430.069 174.528 429.865 174.012 429.865 173.412C429.865 172.62 430.183 171.978 430.819 171.486C431.455 170.982 432.295 170.73 433.339 170.73C433.975 170.73 434.575 170.832 435.139 171.036C435.703 171.24 436.177 171.534 436.561 171.918L436.075 172.98C435.223 172.272 434.311 171.918 433.339 171.918C432.691 171.918 432.187 172.044 431.827 172.296C431.479 172.536 431.305 172.878 431.305 173.322C431.305 173.694 431.413 173.988 431.629 174.204C431.857 174.42 432.217 174.588 432.709 174.708L434.239 175.086C435.079 175.278 435.703 175.578 436.111 175.986C436.519 176.382 436.723 176.904 436.723 177.552C436.723 178.332 436.405 178.956 435.769 179.424C435.133 179.892 434.269 180.126 433.177 180.126Z" fill="#FAFBFD"/>
<path d="M372.269 359.144C371.057 359.144 370.001 358.88 369.101 358.352C368.213 357.824 367.529 357.068 367.049 356.084C366.569 355.088 366.329 353.918 366.329 352.574C366.329 351.23 366.569 350.072 367.049 349.1C367.529 348.116 368.213 347.36 369.101 346.832C370.001 346.304 371.057 346.04 372.269 346.04C373.157 346.04 373.967 346.178 374.699 346.454C375.443 346.718 376.085 347.12 376.625 347.66L376.067 348.794C375.455 348.266 374.849 347.888 374.249 347.66C373.661 347.432 373.007 347.318 372.287 347.318C370.883 347.318 369.791 347.774 369.011 348.686C368.243 349.598 367.859 350.894 367.859 352.574C367.859 354.266 368.243 355.574 369.011 356.498C369.779 357.41 370.871 357.866 372.287 357.866C373.007 357.866 373.661 357.752 374.249 357.524C374.849 357.296 375.455 356.918 376.067 356.39L376.625 357.524C376.085 358.064 375.443 358.472 374.699 358.748C373.967 359.012 373.157 359.144 372.269 359.144ZM382.49 359.126C381.638 359.126 380.888 358.934 380.24 358.55C379.592 358.166 379.088 357.62 378.728 356.912C378.38 356.204 378.206 355.376 378.206 354.428C378.206 353.48 378.38 352.652 378.728 351.944C379.088 351.236 379.592 350.69 380.24 350.306C380.888 349.922 381.638 349.73 382.49 349.73C383.342 349.73 384.092 349.922 384.74 350.306C385.388 350.69 385.886 351.236 386.234 351.944C386.594 352.652 386.774 353.48 386.774 354.428C386.774 355.376 386.594 356.204 386.234 356.912C385.886 357.62 385.388 358.166 384.74 358.55C384.092 358.934 383.342 359.126 382.49 359.126ZM382.49 357.92C383.39 357.92 384.08 357.626 384.56 357.038C385.04 356.438 385.28 355.568 385.28 354.428C385.28 353.324 385.034 352.472 384.542 351.872C384.05 351.26 383.366 350.954 382.49 350.954C381.602 350.954 380.912 351.26 380.42 351.872C379.928 352.472 379.682 353.324 379.682 354.428C379.682 355.568 379.922 356.438 380.402 357.038C380.894 357.626 381.59 357.92 382.49 357.92ZM399.091 349.73C401.095 349.73 402.097 350.924 402.097 353.312V359H400.639V353.384C400.639 352.532 400.489 351.914 400.189 351.53C399.901 351.146 399.427 350.954 398.767 350.954C397.999 350.954 397.399 351.212 396.967 351.728C396.535 352.244 396.319 352.946 396.319 353.834V359H394.861V353.384C394.861 352.544 394.711 351.932 394.411 351.548C394.111 351.152 393.631 350.954 392.971 350.954C392.203 350.954 391.597 351.212 391.153 351.728C390.721 352.244 390.505 352.946 390.505 353.834V359H389.047V352.484C389.047 351.548 388.999 350.702 388.903 349.946H390.289L390.433 351.53C390.685 350.954 391.057 350.51 391.549 350.198C392.053 349.886 392.635 349.73 393.295 349.73C394.015 349.73 394.603 349.874 395.059 350.162C395.515 350.45 395.851 350.894 396.067 351.494C396.343 350.954 396.745 350.528 397.273 350.216C397.813 349.892 398.419 349.73 399.091 349.73ZM404.867 349.946H406.325V359H404.867V349.946ZM406.505 346.112V347.768H404.723V346.112H406.505ZM412.954 359.126C412.078 359.126 411.31 358.934 410.65 358.55C410.002 358.166 409.498 357.626 409.138 356.93C408.79 356.222 408.616 355.4 408.616 354.464C408.616 353.528 408.796 352.706 409.156 351.998C409.516 351.278 410.026 350.72 410.686 350.324C411.358 349.928 412.138 349.73 413.026 349.73C413.638 349.73 414.226 349.838 414.79 350.054C415.366 350.258 415.84 350.546 416.212 350.918L415.726 351.998C415.27 351.638 414.826 351.374 414.394 351.206C413.974 351.038 413.542 350.954 413.098 350.954C412.174 350.954 411.448 351.266 410.92 351.89C410.392 352.502 410.128 353.36 410.128 354.464C410.128 355.556 410.386 356.408 410.902 357.02C411.43 357.62 412.162 357.92 413.098 357.92C413.542 357.92 413.974 357.836 414.394 357.668C414.826 357.5 415.27 357.236 415.726 356.876L416.212 357.956C415.828 358.316 415.342 358.604 414.754 358.82C414.178 359.024 413.578 359.126 412.954 359.126ZM427.279 349.73C428.071 349.73 428.773 349.922 429.385 350.306C429.997 350.69 430.471 351.236 430.807 351.944C431.143 352.64 431.311 353.456 431.311 354.392C431.311 355.328 431.143 356.156 430.807 356.876C430.471 357.584 429.997 358.136 429.385 358.532C428.773 358.928 428.071 359.126 427.279 359.126C426.571 359.126 425.953 358.97 425.425 358.658C424.897 358.346 424.495 357.902 424.219 357.326V359H422.761V345.752H424.219V351.548C424.483 350.96 424.879 350.51 425.407 350.198C425.947 349.886 426.571 349.73 427.279 349.73ZM427.009 357.92C427.885 357.92 428.569 357.614 429.061 357.002C429.553 356.378 429.799 355.508 429.799 354.392C429.799 353.3 429.553 352.454 429.061 351.854C428.581 351.254 427.897 350.954 427.009 350.954C426.109 350.954 425.419 351.254 424.939 351.854C424.459 352.454 424.219 353.312 424.219 354.428C424.219 355.544 424.459 356.408 424.939 357.02C425.419 357.62 426.109 357.92 427.009 357.92ZM437.298 359.126C436.446 359.126 435.696 358.934 435.048 358.55C434.4 358.166 433.896 357.62 433.536 356.912C433.188 356.204 433.014 355.376 433.014 354.428C433.014 353.48 433.188 352.652 433.536 351.944C433.896 351.236 434.4 350.69 435.048 350.306C435.696 349.922 436.446 349.73 437.298 349.73C438.15 349.73 438.9 349.922 439.548 350.306C440.196 350.69 440.694 351.236 441.042 351.944C441.402 352.652 441.582 353.48 441.582 354.428C441.582 355.376 441.402 356.204 441.042 356.912C440.694 357.62 440.196 358.166 439.548 358.55C438.9 358.934 438.15 359.126 437.298 359.126ZM437.298 357.92C438.198 357.92 438.888 357.626 439.368 357.038C439.848 356.438 440.088 355.568 440.088 354.428C440.088 353.324 439.842 352.472 439.35 351.872C438.858 351.26 438.174 350.954 437.298 350.954C436.41 350.954 435.72 351.26 435.228 351.872C434.736 352.472 434.49 353.324 434.49 354.428C434.49 355.568 434.73 356.438 435.21 357.038C435.702 357.626 436.398 357.92 437.298 357.92ZM447.599 359.126C446.747 359.126 445.997 358.934 445.349 358.55C444.701 358.166 444.197 357.62 443.837 356.912C443.489 356.204 443.315 355.376 443.315 354.428C443.315 353.48 443.489 352.652 443.837 351.944C444.197 351.236 444.701 350.69 445.349 350.306C445.997 349.922 446.747 349.73 447.599 349.73C448.451 349.73 449.201 349.922 449.849 350.306C450.497 350.69 450.995 351.236 451.343 351.944C451.703 352.652 451.883 353.48 451.883 354.428C451.883 355.376 451.703 356.204 451.343 356.912C450.995 357.62 450.497 358.166 449.849 358.55C449.201 358.934 448.451 359.126 447.599 359.126ZM447.599 357.92C448.499 357.92 449.189 357.626 449.669 357.038C450.149 356.438 450.389 355.568 450.389 354.428C450.389 353.324 450.143 352.472 449.651 351.872C449.159 351.26 448.475 350.954 447.599 350.954C446.711 350.954 446.021 351.26 445.529 351.872C445.037 352.472 444.791 353.324 444.791 354.428C444.791 355.568 445.031 356.438 445.511 357.038C446.003 357.626 446.699 357.92 447.599 357.92ZM460.258 359L455.614 354.644V359H454.156V345.752H455.614V354.104L459.88 349.964H461.734L457.198 354.302L462.166 359H460.258ZM466.321 359.126C464.797 359.126 463.591 358.736 462.703 357.956L463.189 356.876C463.681 357.26 464.179 357.536 464.683 357.704C465.187 357.872 465.751 357.956 466.375 357.956C467.059 357.956 467.575 357.842 467.923 357.614C468.283 357.374 468.463 357.032 468.463 356.588C468.463 356.228 468.343 355.94 468.103 355.724C467.863 355.508 467.467 355.34 466.915 355.22L465.385 354.86C464.629 354.692 464.041 354.392 463.621 353.96C463.213 353.528 463.009 353.012 463.009 352.412C463.009 351.62 463.327 350.978 463.963 350.486C464.599 349.982 465.439 349.73 466.483 349.73C467.119 349.73 467.719 349.832 468.283 350.036C468.847 350.24 469.321 350.534 469.705 350.918L469.219 351.98C468.367 351.272 467.455 350.918 466.483 350.918C465.835 350.918 465.331 351.044 464.971 351.296C464.623 351.536 464.449 351.878 464.449 352.322C464.449 352.694 464.557 352.988 464.773 353.204C465.001 353.42 465.361 353.588 465.853 353.708L467.383 354.086C468.223 354.278 468.847 354.578 469.255 354.986C469.663 355.382 469.867 355.904 469.867 356.552C469.867 357.332 469.549 357.956 468.913 358.424C468.277 358.892 467.413 359.126 466.321 359.126Z" fill="#FAFBFD"/>
<path d="M569.104 176.706H562.408L560.986 180H559.456L565.09 167.184H566.386L572.02 180H570.508L569.104 176.706ZM568.582 175.482L565.756 168.894L562.93 175.482H568.582ZM577.967 170.73C578.267 170.73 578.543 170.766 578.795 170.838L578.759 172.17C578.483 172.074 578.165 172.026 577.805 172.026C576.929 172.026 576.275 172.302 575.843 172.854C575.423 173.394 575.213 174.054 575.213 174.834V180H573.755V173.484C573.755 172.548 573.707 171.702 573.611 170.946H574.997L575.141 172.62C575.369 172.008 575.735 171.54 576.239 171.216C576.743 170.892 577.319 170.73 577.967 170.73ZM582.923 172.098V177.048C582.923 177.72 583.061 178.194 583.337 178.47C583.613 178.734 584.003 178.866 584.507 178.866C584.843 178.866 585.167 178.812 585.479 178.704V179.946C585.107 180.066 584.687 180.126 584.219 180.126C583.355 180.126 582.677 179.886 582.185 179.406C581.705 178.914 581.465 178.194 581.465 177.246V172.098H579.701V170.946H581.465V168.624L582.923 168.102V170.946H585.515V172.098H582.923Z" fill="#FAFBFD"/>
<path d="M536.721 359H535.155L533.571 354.734C533.379 354.206 533.109 353.852 532.761 353.672C532.425 353.492 531.945 353.402 531.321 353.402H528.117V359H526.659V346.184H531.753C533.133 346.184 534.189 346.49 534.921 347.102C535.665 347.714 536.037 348.596 536.037 349.748C536.037 350.588 535.815 351.296 535.371 351.872C534.939 352.436 534.309 352.838 533.481 353.078C533.853 353.138 534.171 353.3 534.435 353.564C534.699 353.816 534.921 354.182 535.101 354.662L536.721 359ZM531.627 352.178C533.595 352.178 534.579 351.374 534.579 349.766C534.579 348.974 534.339 348.386 533.859 348.002C533.379 347.606 532.635 347.408 531.627 347.408H528.117V352.178H531.627ZM546.538 354.428H539.896C539.908 355.58 540.172 356.45 540.688 357.038C541.216 357.626 541.978 357.92 542.974 357.92C544.03 357.92 545.002 357.566 545.89 356.858L546.376 357.92C545.98 358.292 545.47 358.586 544.846 358.802C544.234 359.018 543.604 359.126 542.956 359.126C541.54 359.126 540.43 358.712 539.626 357.884C538.822 357.044 538.42 355.898 538.42 354.446C538.42 353.522 538.6 352.706 538.96 351.998C539.32 351.278 539.824 350.72 540.472 350.324C541.12 349.928 541.858 349.73 542.686 349.73C543.886 349.73 544.828 350.126 545.512 350.918C546.196 351.698 546.538 352.778 546.538 354.158V354.428ZM542.704 350.864C541.948 350.864 541.33 351.092 540.85 351.548C540.382 352.004 540.082 352.646 539.95 353.474H545.224C545.152 352.622 544.9 351.974 544.468 351.53C544.048 351.086 543.46 350.864 542.704 350.864ZM556.725 349.946V359H555.285V357.362C555.021 357.926 554.619 358.364 554.079 358.676C553.551 358.976 552.933 359.126 552.225 359.126C551.421 359.126 550.713 358.934 550.101 358.55C549.501 358.166 549.033 357.626 548.697 356.93C548.373 356.222 548.211 355.4 548.211 354.464C548.211 353.528 548.379 352.706 548.715 351.998C549.051 351.278 549.519 350.72 550.119 350.324C550.731 349.928 551.433 349.73 552.225 349.73C552.933 349.73 553.551 349.886 554.079 350.198C554.607 350.51 555.009 350.948 555.285 351.512V349.946H556.725ZM552.513 357.92C553.401 357.92 554.085 357.62 554.565 357.02C555.045 356.408 555.285 355.544 555.285 354.428C555.285 353.312 555.045 352.454 554.565 351.854C554.085 351.254 553.401 350.954 552.513 350.954C551.625 350.954 550.929 351.266 550.425 351.89C549.933 352.502 549.687 353.36 549.687 354.464C549.687 355.568 549.933 356.42 550.425 357.02C550.917 357.62 551.613 357.92 552.513 357.92ZM559.544 345.752H561.002V359H559.544V345.752ZM576.104 354.428H569.462C569.474 355.58 569.738 356.45 570.254 357.038C570.782 357.626 571.544 357.92 572.54 357.92C573.596 357.92 574.568 357.566 575.456 356.858L575.942 357.92C575.546 358.292 575.036 358.586 574.412 358.802C573.8 359.018 573.17 359.126 572.522 359.126C571.106 359.126 569.996 358.712 569.192 357.884C568.388 357.044 567.986 355.898 567.986 354.446C567.986 353.522 568.166 352.706 568.526 351.998C568.886 351.278 569.39 350.72 570.038 350.324C570.686 349.928 571.424 349.73 572.252 349.73C573.452 349.73 574.394 350.126 575.078 350.918C575.762 351.698 576.104 352.778 576.104 354.158V354.428ZM572.27 350.864C571.514 350.864 570.896 351.092 570.416 351.548C569.948 352.004 569.648 352.646 569.516 353.474H574.79C574.718 352.622 574.466 351.974 574.034 351.53C573.614 351.086 573.026 350.864 572.27 350.864ZM581.377 359.126C579.853 359.126 578.647 358.736 577.759 357.956L578.245 356.876C578.737 357.26 579.235 357.536 579.739 357.704C580.243 357.872 580.807 357.956 581.431 357.956C582.115 357.956 582.631 357.842 582.979 357.614C583.339 357.374 583.519 357.032 583.519 356.588C583.519 356.228 583.399 355.94 583.159 355.724C582.919 355.508 582.523 355.34 581.971 355.22L580.441 354.86C579.685 354.692 579.097 354.392 578.677 353.96C578.269 353.528 578.065 353.012 578.065 352.412C578.065 351.62 578.383 350.978 579.019 350.486C579.655 349.982 580.495 349.73 581.539 349.73C582.175 349.73 582.775 349.832 583.339 350.036C583.903 350.24 584.377 350.534 584.761 350.918L584.275 351.98C583.423 351.272 582.511 350.918 581.539 350.918C580.891 350.918 580.387 351.044 580.027 351.296C579.679 351.536 579.505 351.878 579.505 352.322C579.505 352.694 579.613 352.988 579.829 353.204C580.057 353.42 580.417 353.588 580.909 353.708L582.439 354.086C583.279 354.278 583.903 354.578 584.311 354.986C584.719 355.382 584.923 355.904 584.923 356.552C584.923 357.332 584.605 357.956 583.969 358.424C583.333 358.892 582.469 359.126 581.377 359.126ZM589.103 351.098V356.048C589.103 356.72 589.241 357.194 589.517 357.47C589.793 357.734 590.183 357.866 590.687 357.866C591.023 357.866 591.347 357.812 591.659 357.704V358.946C591.287 359.066 590.867 359.126 590.399 359.126C589.535 359.126 588.857 358.886 588.365 358.406C587.885 357.914 587.645 357.194 587.645 356.246V351.098H585.881V349.946H587.645V347.624L589.103 347.102V349.946H591.695V351.098H589.103ZM601.426 349.946V359H599.986V357.362C599.722 357.926 599.32 358.364 598.78 358.676C598.252 358.976 597.634 359.126 596.926 359.126C596.122 359.126 595.414 358.934 594.802 358.55C594.202 358.166 593.734 357.626 593.398 356.93C593.074 356.222 592.912 355.4 592.912 354.464C592.912 353.528 593.08 352.706 593.416 351.998C593.752 351.278 594.22 350.72 594.82 350.324C595.432 349.928 596.134 349.73 596.926 349.73C597.634 349.73 598.252 349.886 598.78 350.198C599.308 350.51 599.71 350.948 599.986 351.512V349.946H601.426ZM597.214 357.92C598.102 357.92 598.786 357.62 599.266 357.02C599.746 356.408 599.986 355.544 599.986 354.428C599.986 353.312 599.746 352.454 599.266 351.854C598.786 351.254 598.102 350.954 597.214 350.954C596.326 350.954 595.63 351.266 595.126 351.89C594.634 352.502 594.388 353.36 594.388 354.464C594.388 355.568 594.634 356.42 595.126 357.02C595.618 357.62 596.314 357.92 597.214 357.92ZM606.189 351.098V356.048C606.189 356.72 606.327 357.194 606.603 357.47C606.879 357.734 607.269 357.866 607.773 357.866C608.109 357.866 608.433 357.812 608.745 357.704V358.946C608.373 359.066 607.953 359.126 607.485 359.126C606.621 359.126 605.943 358.886 605.451 358.406C604.971 357.914 604.731 357.194 604.731 356.246V351.098H602.967V349.946H604.731V347.624L606.189 347.102V349.946H608.781V351.098H606.189ZM618.116 354.428H611.474C611.486 355.58 611.75 356.45 612.266 357.038C612.794 357.626 613.556 357.92 614.552 357.92C615.608 357.92 616.58 357.566 617.468 356.858L617.954 357.92C617.558 358.292 617.048 358.586 616.424 358.802C615.812 359.018 615.182 359.126 614.534 359.126C613.118 359.126 612.008 358.712 611.204 357.884C610.4 357.044 609.998 355.898 609.998 354.446C609.998 353.522 610.178 352.706 610.538 351.998C610.898 351.278 611.402 350.72 612.05 350.324C612.698 349.928 613.436 349.73 614.264 349.73C615.464 349.73 616.406 350.126 617.09 350.918C617.774 351.698 618.116 352.778 618.116 354.158V354.428ZM614.282 350.864C613.526 350.864 612.908 351.092 612.428 351.548C611.96 352.004 611.66 352.646 611.528 353.474H616.802C616.73 352.622 616.478 351.974 616.046 351.53C615.626 351.086 615.038 350.864 614.282 350.864Z" fill="#FAFBFD"/>
<path d="M706.981 181.926C707.521 182.022 707.953 182.07 708.277 182.07C708.889 182.07 709.315 181.896 709.555 181.548C709.807 181.212 709.933 180.63 709.933 179.802V167.184H711.409V179.82C711.409 181.068 711.181 181.968 710.725 182.52C710.281 183.072 709.543 183.348 708.511 183.348C708.103 183.348 707.593 183.3 706.981 183.204V181.926ZM721.977 175.428H715.335C715.347 176.58 715.611 177.45 716.127 178.038C716.655 178.626 717.417 178.92 718.413 178.92C719.469 178.92 720.441 178.566 721.329 177.858L721.815 178.92C721.419 179.292 720.909 179.586 720.285 179.802C719.673 180.018 719.043 180.126 718.395 180.126C716.979 180.126 715.869 179.712 715.065 178.884C714.261 178.044 713.859 176.898 713.859 175.446C713.859 174.522 714.039 173.706 714.399 172.998C714.759 172.278 715.263 171.72 715.911 171.324C716.559 170.928 717.297 170.73 718.125 170.73C719.325 170.73 720.267 171.126 720.951 171.918C721.635 172.698 721.977 173.778 721.977 175.158V175.428ZM718.143 171.864C717.387 171.864 716.769 172.092 716.289 172.548C715.821 173.004 715.521 173.646 715.389 174.474H720.663C720.591 173.622 720.339 172.974 719.907 172.53C719.487 172.086 718.899 171.864 718.143 171.864ZM737.837 170.946L734.489 180H733.085L730.493 172.926L727.919 180H726.515L723.167 170.946H724.697L727.253 178.254L729.899 170.946H731.177L733.787 178.272L736.397 170.946H737.837ZM747.202 175.428H740.56C740.572 176.58 740.836 177.45 741.352 178.038C741.88 178.626 742.642 178.92 743.638 178.92C744.694 178.92 745.666 178.566 746.554 177.858L747.04 178.92C746.644 179.292 746.134 179.586 745.51 179.802C744.898 180.018 744.268 180.126 743.62 180.126C742.204 180.126 741.094 179.712 740.29 178.884C739.486 178.044 739.084 176.898 739.084 175.446C739.084 174.522 739.264 173.706 739.624 172.998C739.984 172.278 740.488 171.72 741.136 171.324C741.784 170.928 742.522 170.73 743.35 170.73C744.55 170.73 745.492 171.126 746.176 171.918C746.86 172.698 747.202 173.778 747.202 175.158V175.428ZM743.368 171.864C742.612 171.864 741.994 172.092 741.514 172.548C741.046 173.004 740.746 173.646 740.614 174.474H745.888C745.816 173.622 745.564 172.974 745.132 172.53C744.712 172.086 744.124 171.864 743.368 171.864ZM749.415 166.752H750.873V180H749.415V166.752ZM757.916 170.73C758.216 170.73 758.492 170.766 758.744 170.838L758.708 172.17C758.432 172.074 758.114 172.026 757.754 172.026C756.878 172.026 756.224 172.302 755.792 172.854C755.372 173.394 755.162 174.054 755.162 174.834V180H753.704V173.484C753.704 172.548 753.656 171.702 753.56 170.946H754.946L755.09 172.62C755.318 172.008 755.684 171.54 756.188 171.216C756.692 170.892 757.268 170.73 757.916 170.73ZM768.726 170.946L764.496 180.828C764.052 181.86 763.494 182.616 762.822 183.096C762.15 183.576 761.322 183.906 760.338 184.086L760.032 182.952C760.884 182.76 761.526 182.502 761.958 182.178C762.402 181.866 762.768 181.38 763.056 180.72L763.416 179.91L759.582 170.946H761.112L764.172 178.416L767.268 170.946H768.726Z" fill="#FAFBFD"/>
<path d="M676.759 346.184H684.859V347.408H678.217V351.872H684.499V353.114H678.217V357.776H684.859V359H676.759V346.184ZM695.117 349.964L691.211 359H689.825L685.973 349.964H687.503L690.563 357.416L693.659 349.964H695.117ZM704.196 354.428H697.554C697.566 355.58 697.83 356.45 698.346 357.038C698.874 357.626 699.636 357.92 700.632 357.92C701.688 357.92 702.66 357.566 703.548 356.858L704.034 357.92C703.638 358.292 703.128 358.586 702.504 358.802C701.892 359.018 701.262 359.126 700.614 359.126C699.198 359.126 698.088 358.712 697.284 357.884C696.48 357.044 696.078 355.898 696.078 354.446C696.078 353.522 696.258 352.706 696.618 351.998C696.978 351.278 697.482 350.72 698.13 350.324C698.778 349.928 699.516 349.73 700.344 349.73C701.544 349.73 702.486 350.126 703.17 350.918C703.854 351.698 704.196 352.778 704.196 354.158V354.428ZM700.362 350.864C699.606 350.864 698.988 351.092 698.508 351.548C698.04 352.004 697.74 352.646 697.608 353.474H702.882C702.81 352.622 702.558 351.974 702.126 351.53C701.706 351.086 701.118 350.864 700.362 350.864ZM710.621 349.73C710.921 349.73 711.197 349.766 711.449 349.838L711.413 351.17C711.137 351.074 710.819 351.026 710.459 351.026C709.583 351.026 708.929 351.302 708.497 351.854C708.077 352.394 707.867 353.054 707.867 353.834V359H706.409V352.484C706.409 351.548 706.361 350.702 706.265 349.946H707.651L707.795 351.62C708.023 351.008 708.389 350.54 708.893 350.216C709.397 349.892 709.973 349.73 710.621 349.73ZM721.431 349.946L717.201 359.828C716.757 360.86 716.199 361.616 715.527 362.096C714.855 362.576 714.027 362.906 713.043 363.086L712.737 361.952C713.589 361.76 714.231 361.502 714.663 361.178C715.107 360.866 715.473 360.38 715.761 359.72L716.121 358.91L712.287 349.946H713.817L716.877 357.416L719.973 349.946H721.431ZM725.175 351.098V356.048C725.175 356.72 725.313 357.194 725.589 357.47C725.865 357.734 726.255 357.866 726.759 357.866C727.095 357.866 727.419 357.812 727.731 357.704V358.946C727.359 359.066 726.939 359.126 726.471 359.126C725.607 359.126 724.929 358.886 724.437 358.406C723.957 357.914 723.717 357.194 723.717 356.246V351.098H721.953V349.946H723.717V347.624L725.175 347.102V349.946H727.767V351.098H725.175ZM734.042 349.73C736.214 349.73 737.3 350.924 737.3 353.312V359H735.842V353.384C735.842 352.544 735.674 351.932 735.338 351.548C735.002 351.152 734.474 350.954 733.754 350.954C732.914 350.954 732.242 351.212 731.738 351.728C731.234 352.244 730.982 352.94 730.982 353.816V359H729.524V345.752H730.982V351.422C731.27 350.87 731.678 350.45 732.206 350.162C732.746 349.874 733.358 349.73 734.042 349.73ZM740.053 349.946H741.511V359H740.053V349.946ZM741.691 346.112V347.768H739.909V346.112H741.691ZM748.86 349.73C751.032 349.73 752.118 350.924 752.118 353.312V359H750.66V353.384C750.66 352.544 750.492 351.932 750.156 351.548C749.82 351.152 749.292 350.954 748.572 350.954C747.732 350.954 747.06 351.212 746.556 351.728C746.052 352.244 745.8 352.94 745.8 353.816V359H744.342V352.484C744.342 351.548 744.294 350.702 744.198 349.946H745.584L745.728 351.566C746.004 350.978 746.418 350.528 746.97 350.216C747.522 349.892 748.152 349.73 748.86 349.73ZM762.936 349.946V358.928C762.936 360.272 762.588 361.286 761.892 361.97C761.208 362.666 760.194 363.014 758.85 363.014C757.47 363.014 756.282 362.702 755.286 362.078L755.538 360.89C756.114 361.214 756.654 361.448 757.158 361.592C757.674 361.736 758.238 361.808 758.85 361.808C759.726 361.808 760.386 361.574 760.83 361.106C761.274 360.65 761.496 359.966 761.496 359.054V356.912C761.22 357.488 760.812 357.938 760.272 358.262C759.744 358.574 759.114 358.73 758.382 358.73C757.59 358.73 756.882 358.544 756.258 358.172C755.646 357.8 755.172 357.272 754.836 356.588C754.5 355.904 754.332 355.118 754.332 354.23C754.332 353.342 754.5 352.556 754.836 351.872C755.172 351.188 755.646 350.66 756.258 350.288C756.882 349.916 757.59 349.73 758.382 349.73C759.102 349.73 759.726 349.886 760.254 350.198C760.794 350.51 761.202 350.948 761.478 351.512V349.946H762.936ZM758.67 357.506C759.546 357.506 760.23 357.218 760.722 356.642C761.226 356.054 761.478 355.25 761.478 354.23C761.478 353.21 761.226 352.412 760.722 351.836C760.23 351.248 759.546 350.954 758.67 350.954C757.782 350.954 757.08 351.248 756.564 351.836C756.06 352.412 755.808 353.21 755.808 354.23C755.808 355.25 756.06 356.054 756.564 356.642C757.08 357.218 757.782 357.506 758.67 357.506ZM778.006 354.428H771.364C771.376 355.58 771.64 356.45 772.156 357.038C772.684 357.626 773.446 357.92 774.442 357.92C775.498 357.92 776.47 357.566 777.358 356.858L777.844 357.92C777.448 358.292 776.938 358.586 776.314 358.802C775.702 359.018 775.072 359.126 774.424 359.126C773.008 359.126 771.898 358.712 771.094 357.884C770.29 357.044 769.888 355.898 769.888 354.446C769.888 353.522 770.068 352.706 770.428 351.998C770.788 351.278 771.292 350.72 771.94 350.324C772.588 349.928 773.326 349.73 774.154 349.73C775.354 349.73 776.296 350.126 776.98 350.918C777.664 351.698 778.006 352.778 778.006 354.158V354.428ZM774.172 350.864C773.416 350.864 772.798 351.092 772.318 351.548C771.85 352.004 771.55 352.646 771.418 353.474H776.692C776.62 352.622 776.368 351.974 775.936 351.53C775.516 351.086 774.928 350.864 774.172 350.864ZM780.219 345.752H781.677V359H780.219V345.752ZM787.568 359.126C786.044 359.126 784.838 358.736 783.95 357.956L784.436 356.876C784.928 357.26 785.426 357.536 785.93 357.704C786.434 357.872 786.998 357.956 787.622 357.956C788.306 357.956 788.822 357.842 789.17 357.614C789.53 357.374 789.71 357.032 789.71 356.588C789.71 356.228 789.59 355.94 789.35 355.724C789.11 355.508 788.714 355.34 788.162 355.22L786.632 354.86C785.876 354.692 785.288 354.392 784.868 353.96C784.46 353.528 784.256 353.012 784.256 352.412C784.256 351.62 784.574 350.978 785.21 350.486C785.846 349.982 786.686 349.73 787.73 349.73C788.366 349.73 788.966 349.832 789.53 350.036C790.094 350.24 790.568 350.534 790.952 350.918L790.466 351.98C789.614 351.272 788.702 350.918 787.73 350.918C787.082 350.918 786.578 351.044 786.218 351.296C785.87 351.536 785.696 351.878 785.696 352.322C785.696 352.694 785.804 352.988 786.02 353.204C786.248 353.42 786.608 353.588 787.1 353.708L788.63 354.086C789.47 354.278 790.094 354.578 790.502 354.986C790.91 355.382 791.114 355.904 791.114 356.552C791.114 357.332 790.796 357.956 790.16 358.424C789.524 358.892 788.66 359.126 787.568 359.126ZM801.016 354.428H794.374C794.386 355.58 794.65 356.45 795.166 357.038C795.694 357.626 796.456 357.92 797.452 357.92C798.508 357.92 799.48 357.566 800.368 356.858L800.854 357.92C800.458 358.292 799.948 358.586 799.324 358.802C798.712 359.018 798.082 359.126 797.434 359.126C796.018 359.126 794.908 358.712 794.104 357.884C793.3 357.044 792.898 355.898 792.898 354.446C792.898 353.522 793.078 352.706 793.438 351.998C793.798 351.278 794.302 350.72 794.95 350.324C795.598 349.928 796.336 349.73 797.164 349.73C798.364 349.73 799.306 350.126 799.99 350.918C800.674 351.698 801.016 352.778 801.016 354.158V354.428ZM797.182 350.864C796.426 350.864 795.808 351.092 795.328 351.548C794.86 352.004 794.56 352.646 794.428 353.474H799.702C799.63 352.622 799.378 351.974 798.946 351.53C798.526 351.086 797.938 350.864 797.182 350.864Z" fill="#FAFBFD"/>
<path d="M227.784 167.184H232.086C234.138 167.184 235.722 167.742 236.838 168.858C237.966 169.962 238.53 171.534 238.53 173.574C238.53 175.626 237.966 177.21 236.838 178.326C235.722 179.442 234.138 180 232.086 180H227.784V167.184ZM231.996 178.74C233.652 178.74 234.894 178.308 235.722 177.444C236.562 176.58 236.982 175.29 236.982 173.574C236.982 170.154 235.32 168.444 231.996 168.444H229.26V178.74H231.996ZM248.612 175.428H241.97C241.982 176.58 242.246 177.45 242.762 178.038C243.29 178.626 244.052 178.92 245.048 178.92C246.104 178.92 247.076 178.566 247.964 177.858L248.45 178.92C248.054 179.292 247.544 179.586 246.92 179.802C246.308 180.018 245.678 180.126 245.03 180.126C243.614 180.126 242.504 179.712 241.7 178.884C240.896 178.044 240.494 176.898 240.494 175.446C240.494 174.522 240.674 173.706 241.034 172.998C241.394 172.278 241.898 171.72 242.546 171.324C243.194 170.928 243.932 170.73 244.76 170.73C245.96 170.73 246.902 171.126 247.586 171.918C248.27 172.698 248.612 173.778 248.612 175.158V175.428ZM244.778 171.864C244.022 171.864 243.404 172.092 242.924 172.548C242.456 173.004 242.156 173.646 242.024 174.474H247.298C247.226 173.622 246.974 172.974 246.542 172.53C246.122 172.086 245.534 171.864 244.778 171.864ZM258.675 170.964L254.769 180H253.383L249.531 170.964H251.061L254.121 178.416L257.217 170.964H258.675ZM260.282 170.946H261.74V180H260.282V170.946ZM261.92 167.112V168.768H260.138V167.112H261.92ZM268.369 180.126C267.493 180.126 266.725 179.934 266.065 179.55C265.417 179.166 264.913 178.626 264.553 177.93C264.205 177.222 264.031 176.4 264.031 175.464C264.031 174.528 264.211 173.706 264.571 172.998C264.931 172.278 265.441 171.72 266.101 171.324C266.773 170.928 267.553 170.73 268.441 170.73C269.053 170.73 269.641 170.838 270.205 171.054C270.781 171.258 271.255 171.546 271.627 171.918L271.141 172.998C270.685 172.638 270.241 172.374 269.809 172.206C269.389 172.038 268.957 171.954 268.513 171.954C267.589 171.954 266.863 172.266 266.335 172.89C265.807 173.502 265.543 174.36 265.543 175.464C265.543 176.556 265.801 177.408 266.317 178.02C266.845 178.62 267.577 178.92 268.513 178.92C268.957 178.92 269.389 178.836 269.809 178.668C270.241 178.5 270.685 178.236 271.141 177.876L271.627 178.956C271.243 179.316 270.757 179.604 270.169 179.82C269.593 180.024 268.993 180.126 268.369 180.126ZM281.061 175.428H274.419C274.431 176.58 274.695 177.45 275.211 178.038C275.739 178.626 276.501 178.92 277.497 178.92C278.553 178.92 279.525 178.566 280.413 177.858L280.899 178.92C280.503 179.292 279.993 179.586 279.369 179.802C278.757 180.018 278.127 180.126 277.479 180.126C276.063 180.126 274.953 179.712 274.149 178.884C273.345 178.044 272.943 176.898 272.943 175.446C272.943 174.522 273.123 173.706 273.483 172.998C273.843 172.278 274.347 171.72 274.995 171.324C275.643 170.928 276.381 170.73 277.209 170.73C278.409 170.73 279.351 171.126 280.035 171.918C280.719 172.698 281.061 173.778 281.061 175.158V175.428ZM277.227 171.864C276.471 171.864 275.853 172.092 275.373 172.548C274.905 173.004 274.605 173.646 274.473 174.474H279.747C279.675 173.622 279.423 172.974 278.991 172.53C278.571 172.086 277.983 171.864 277.227 171.864ZM286.334 180.126C284.81 180.126 283.604 179.736 282.716 178.956L283.202 177.876C283.694 178.26 284.192 178.536 284.696 178.704C285.2 178.872 285.764 178.956 286.388 178.956C287.072 178.956 287.588 178.842 287.936 178.614C288.296 178.374 288.476 178.032 288.476 177.588C288.476 177.228 288.356 176.94 288.116 176.724C287.876 176.508 287.48 176.34 286.928 176.22L285.398 175.86C284.642 175.692 284.054 175.392 283.634 174.96C283.226 174.528 283.022 174.012 283.022 173.412C283.022 172.62 283.34 171.978 283.976 171.486C284.612 170.982 285.452 170.73 286.496 170.73C287.132 170.73 287.732 170.832 288.296 171.036C288.86 171.24 289.334 171.534 289.718 171.918L289.232 172.98C288.38 172.272 287.468 171.918 286.496 171.918C285.848 171.918 285.344 172.044 284.984 172.296C284.636 172.536 284.462 172.878 284.462 173.322C284.462 173.694 284.57 173.988 284.786 174.204C285.014 174.42 285.374 174.588 285.866 174.708L287.396 175.086C288.236 175.278 288.86 175.578 289.268 175.986C289.676 176.382 289.88 176.904 289.88 177.552C289.88 178.332 289.562 178.956 288.926 179.424C288.29 179.892 287.426 180.126 286.334 180.126Z" fill="#FAFBFD"/>
<path d="M193.912 346.184H198.214C200.266 346.184 201.85 346.742 202.966 347.858C204.094 348.962 204.658 350.534 204.658 352.574C204.658 354.626 204.094 356.21 202.966 357.326C201.85 358.442 200.266 359 198.214 359H193.912V346.184ZM198.124 357.74C199.78 357.74 201.022 357.308 201.85 356.444C202.69 355.58 203.11 354.29 203.11 352.574C203.11 349.154 201.448 347.444 198.124 347.444H195.388V357.74H198.124ZM214.74 354.428H208.098C208.11 355.58 208.374 356.45 208.89 357.038C209.418 357.626 210.18 357.92 211.176 357.92C212.232 357.92 213.204 357.566 214.092 356.858L214.578 357.92C214.182 358.292 213.672 358.586 213.048 358.802C212.436 359.018 211.806 359.126 211.158 359.126C209.742 359.126 208.632 358.712 207.828 357.884C207.024 357.044 206.622 355.898 206.622 354.446C206.622 353.522 206.802 352.706 207.162 351.998C207.522 351.278 208.026 350.72 208.674 350.324C209.322 349.928 210.06 349.73 210.888 349.73C212.088 349.73 213.03 350.126 213.714 350.918C214.398 351.698 214.74 352.778 214.74 354.158V354.428ZM210.906 350.864C210.15 350.864 209.532 351.092 209.052 351.548C208.584 352.004 208.284 352.646 208.152 353.474H213.426C213.354 352.622 213.102 351.974 212.67 351.53C212.25 351.086 211.662 350.864 210.906 350.864ZM220.013 359.126C218.489 359.126 217.283 358.736 216.395 357.956L216.881 356.876C217.373 357.26 217.871 357.536 218.375 357.704C218.879 357.872 219.443 357.956 220.067 357.956C220.751 357.956 221.267 357.842 221.615 357.614C221.975 357.374 222.155 357.032 222.155 356.588C222.155 356.228 222.035 355.94 221.795 355.724C221.555 355.508 221.159 355.34 220.607 355.22L219.077 354.86C218.321 354.692 217.733 354.392 217.313 353.96C216.905 353.528 216.701 353.012 216.701 352.412C216.701 351.62 217.019 350.978 217.655 350.486C218.291 349.982 219.131 349.73 220.175 349.73C220.811 349.73 221.411 349.832 221.975 350.036C222.539 350.24 223.013 350.534 223.397 350.918L222.911 351.98C222.059 351.272 221.147 350.918 220.175 350.918C219.527 350.918 219.023 351.044 218.663 351.296C218.315 351.536 218.141 351.878 218.141 352.322C218.141 352.694 218.249 352.988 218.465 353.204C218.693 353.42 219.053 353.588 219.545 353.708L221.075 354.086C221.915 354.278 222.539 354.578 222.947 354.986C223.355 355.382 223.559 355.904 223.559 356.552C223.559 357.332 223.241 357.956 222.605 358.424C221.969 358.892 221.105 359.126 220.013 359.126ZM225.883 349.946H227.341V359H225.883V349.946ZM227.521 346.112V347.768H225.739V346.112H227.521ZM238.236 349.946V358.928C238.236 360.272 237.888 361.286 237.192 361.97C236.508 362.666 235.494 363.014 234.15 363.014C232.77 363.014 231.582 362.702 230.586 362.078L230.838 360.89C231.414 361.214 231.954 361.448 232.458 361.592C232.974 361.736 233.538 361.808 234.15 361.808C235.026 361.808 235.686 361.574 236.13 361.106C236.574 360.65 236.796 359.966 236.796 359.054V356.912C236.52 357.488 236.112 357.938 235.572 358.262C235.044 358.574 234.414 358.73 233.682 358.73C232.89 358.73 232.182 358.544 231.558 358.172C230.946 357.8 230.472 357.272 230.136 356.588C229.8 355.904 229.632 355.118 229.632 354.23C229.632 353.342 229.8 352.556 230.136 351.872C230.472 351.188 230.946 350.66 231.558 350.288C232.182 349.916 232.89 349.73 233.682 349.73C234.402 349.73 235.026 349.886 235.554 350.198C236.094 350.51 236.502 350.948 236.778 351.512V349.946H238.236ZM233.97 357.506C234.846 357.506 235.53 357.218 236.022 356.642C236.526 356.054 236.778 355.25 236.778 354.23C236.778 353.21 236.526 352.412 236.022 351.836C235.53 351.248 234.846 350.954 233.97 350.954C233.082 350.954 232.38 351.248 231.864 351.836C231.36 352.412 231.108 353.21 231.108 354.23C231.108 355.25 231.36 356.054 231.864 356.642C232.38 357.218 233.082 357.506 233.97 357.506ZM245.553 349.73C247.725 349.73 248.811 350.924 248.811 353.312V359H247.353V353.384C247.353 352.544 247.185 351.932 246.849 351.548C246.513 351.152 245.985 350.954 245.265 350.954C244.425 350.954 243.753 351.212 243.249 351.728C242.745 352.244 242.493 352.94 242.493 353.816V359H241.035V352.484C241.035 351.548 240.987 350.702 240.891 349.946H242.277L242.421 351.566C242.697 350.978 243.111 350.528 243.663 350.216C244.215 349.892 244.845 349.73 245.553 349.73ZM259.142 354.428H252.5C252.512 355.58 252.776 356.45 253.292 357.038C253.82 357.626 254.582 357.92 255.578 357.92C256.634 357.92 257.606 357.566 258.494 356.858L258.98 357.92C258.584 358.292 258.074 358.586 257.45 358.802C256.838 359.018 256.208 359.126 255.56 359.126C254.144 359.126 253.034 358.712 252.23 357.884C251.426 357.044 251.024 355.898 251.024 354.446C251.024 353.522 251.204 352.706 251.564 351.998C251.924 351.278 252.428 350.72 253.076 350.324C253.724 349.928 254.462 349.73 255.29 349.73C256.49 349.73 257.432 350.126 258.116 350.918C258.8 351.698 259.142 352.778 259.142 354.158V354.428ZM255.308 350.864C254.552 350.864 253.934 351.092 253.454 351.548C252.986 352.004 252.686 352.646 252.554 353.474H257.828C257.756 352.622 257.504 351.974 257.072 351.53C256.652 351.086 256.064 350.864 255.308 350.864ZM265.567 349.73C265.867 349.73 266.143 349.766 266.395 349.838L266.359 351.17C266.083 351.074 265.765 351.026 265.405 351.026C264.529 351.026 263.875 351.302 263.443 351.854C263.023 352.394 262.813 353.054 262.813 353.834V359H261.355V352.484C261.355 351.548 261.307 350.702 261.211 349.946H262.597L262.741 351.62C262.969 351.008 263.335 350.54 263.839 350.216C264.343 349.892 264.919 349.73 265.567 349.73ZM277.088 349.73C277.88 349.73 278.582 349.928 279.194 350.324C279.806 350.72 280.28 351.278 280.616 351.998C280.952 352.706 281.12 353.528 281.12 354.464C281.12 355.4 280.952 356.222 280.616 356.93C280.28 357.626 279.806 358.166 279.194 358.55C278.594 358.934 277.892 359.126 277.088 359.126C276.38 359.126 275.762 358.97 275.234 358.658C274.706 358.346 274.304 357.902 274.028 357.326V362.888H272.57V352.484C272.57 351.548 272.522 350.702 272.426 349.946H273.812L273.956 351.692C274.208 351.068 274.604 350.588 275.144 350.252C275.696 349.904 276.344 349.73 277.088 349.73ZM276.818 357.92C277.706 357.92 278.39 357.62 278.87 357.02C279.362 356.42 279.608 355.568 279.608 354.464C279.608 353.36 279.362 352.502 278.87 351.89C278.378 351.266 277.694 350.954 276.818 350.954C275.918 350.954 275.228 351.254 274.748 351.854C274.268 352.454 274.028 353.312 274.028 354.428C274.028 355.544 274.268 356.408 274.748 357.02C275.228 357.62 275.918 357.92 276.818 357.92ZM283.363 349.946H284.821V359H283.363V349.946ZM285.001 346.112V347.768H283.219V346.112H285.001ZM295.23 354.428H288.588C288.6 355.58 288.864 356.45 289.38 357.038C289.908 357.626 290.67 357.92 291.666 357.92C292.722 357.92 293.694 357.566 294.582 356.858L295.068 357.92C294.672 358.292 294.162 358.586 293.538 358.802C292.926 359.018 292.296 359.126 291.648 359.126C290.232 359.126 289.122 358.712 288.318 357.884C287.514 357.044 287.112 355.898 287.112 354.446C287.112 353.522 287.292 352.706 287.652 351.998C288.012 351.278 288.516 350.72 289.164 350.324C289.812 349.928 290.55 349.73 291.378 349.73C292.578 349.73 293.52 350.126 294.204 350.918C294.888 351.698 295.23 352.778 295.23 354.158V354.428ZM291.396 350.864C290.64 350.864 290.022 351.092 289.542 351.548C289.074 352.004 288.774 352.646 288.642 353.474H293.916C293.844 352.622 293.592 351.974 293.16 351.53C292.74 351.086 292.152 350.864 291.396 350.864ZM301.241 359.126C300.365 359.126 299.597 358.934 298.937 358.55C298.289 358.166 297.785 357.626 297.425 356.93C297.077 356.222 296.903 355.4 296.903 354.464C296.903 353.528 297.083 352.706 297.443 351.998C297.803 351.278 298.313 350.72 298.973 350.324C299.645 349.928 300.425 349.73 301.313 349.73C301.925 349.73 302.513 349.838 303.077 350.054C303.653 350.258 304.127 350.546 304.499 350.918L304.013 351.998C303.557 351.638 303.113 351.374 302.681 351.206C302.261 351.038 301.829 350.954 301.385 350.954C300.461 350.954 299.735 351.266 299.207 351.89C298.679 352.502 298.415 353.36 298.415 354.464C298.415 355.556 298.673 356.408 299.189 357.02C299.717 357.62 300.449 357.92 301.385 357.92C301.829 357.92 302.261 357.836 302.681 357.668C303.113 357.5 303.557 357.236 304.013 356.876L304.499 357.956C304.115 358.316 303.629 358.604 303.041 358.82C302.465 359.024 301.865 359.126 301.241 359.126ZM313.933 354.428H307.291C307.303 355.58 307.567 356.45 308.083 357.038C308.611 357.626 309.373 357.92 310.369 357.92C311.425 357.92 312.397 357.566 313.285 356.858L313.771 357.92C313.375 358.292 312.865 358.586 312.241 358.802C311.629 359.018 310.999 359.126 310.351 359.126C308.935 359.126 307.825 358.712 307.021 357.884C306.217 357.044 305.815 355.898 305.815 354.446C305.815 353.522 305.995 352.706 306.355 351.998C306.715 351.278 307.219 350.72 307.867 350.324C308.515 349.928 309.253 349.73 310.081 349.73C311.281 349.73 312.223 350.126 312.907 350.918C313.591 351.698 313.933 352.778 313.933 354.158V354.428ZM310.099 350.864C309.343 350.864 308.725 351.092 308.245 351.548C307.777 352.004 307.477 352.646 307.345 353.474H312.619C312.547 352.622 312.295 351.974 311.863 351.53C311.443 351.086 310.855 350.864 310.099 350.864ZM319.206 359.126C317.682 359.126 316.476 358.736 315.588 357.956L316.074 356.876C316.566 357.26 317.064 357.536 317.568 357.704C318.072 357.872 318.636 357.956 319.26 357.956C319.944 357.956 320.46 357.842 320.808 357.614C321.168 357.374 321.348 357.032 321.348 356.588C321.348 356.228 321.228 355.94 320.988 355.724C320.748 355.508 320.352 355.34 319.8 355.22L318.27 354.86C317.514 354.692 316.926 354.392 316.506 353.96C316.098 353.528 315.894 353.012 315.894 352.412C315.894 351.62 316.212 350.978 316.848 350.486C317.484 349.982 318.324 349.73 319.368 349.73C320.004 349.73 320.604 349.832 321.168 350.036C321.732 350.24 322.206 350.534 322.59 350.918L322.104 351.98C321.252 351.272 320.34 350.918 319.368 350.918C318.72 350.918 318.216 351.044 317.856 351.296C317.508 351.536 317.334 351.878 317.334 352.322C317.334 352.694 317.442 352.988 317.658 353.204C317.886 353.42 318.246 353.588 318.738 353.708L320.268 354.086C321.108 354.278 321.732 354.578 322.14 354.986C322.548 355.382 322.752 355.904 322.752 356.552C322.752 357.332 322.434 357.956 321.798 358.424C321.162 358.892 320.298 359.126 319.206 359.126Z" fill="#FAFBFD"/>
<path d="M74.9299 173.322V179.262C74.4259 179.526 73.7659 179.742 72.9499 179.91C72.1339 180.066 71.3059 180.144 70.4659 180.144C69.1939 180.144 68.0959 179.886 67.1719 179.37C66.2479 178.842 65.5399 178.086 65.0479 177.102C64.5679 176.118 64.3279 174.942 64.3279 173.574C64.3279 172.218 64.5679 171.054 65.0479 170.082C65.5399 169.098 66.2359 168.348 67.1359 167.832C68.0479 167.304 69.1219 167.04 70.3579 167.04C71.2579 167.04 72.0799 167.178 72.8239 167.454C73.5799 167.718 74.2279 168.12 74.7679 168.66L74.1919 169.794C73.5679 169.266 72.9559 168.888 72.3559 168.66C71.7679 168.42 71.1019 168.3 70.3579 168.3C68.9059 168.3 67.7899 168.756 67.0099 169.668C66.2419 170.568 65.8579 171.87 65.8579 173.574C65.8579 175.314 66.2539 176.64 67.0459 177.552C67.8379 178.452 68.9899 178.902 70.5019 178.902C71.5699 178.902 72.5959 178.734 73.5799 178.398V174.492H70.3939V173.322H74.9299ZM85.7559 170.946V180H84.3159V178.362C84.0519 178.926 83.6499 179.364 83.1099 179.676C82.5819 179.976 81.9639 180.126 81.2559 180.126C80.4519 180.126 79.7439 179.934 79.1319 179.55C78.5319 179.166 78.0639 178.626 77.7279 177.93C77.4039 177.222 77.2419 176.4 77.2419 175.464C77.2419 174.528 77.4099 173.706 77.7459 172.998C78.0819 172.278 78.5499 171.72 79.1499 171.324C79.7619 170.928 80.4639 170.73 81.2559 170.73C81.9639 170.73 82.5819 170.886 83.1099 171.198C83.6379 171.51 84.0399 171.948 84.3159 172.512V170.946H85.7559ZM81.5439 178.92C82.4319 178.92 83.1159 178.62 83.5959 178.02C84.0759 177.408 84.3159 176.544 84.3159 175.428C84.3159 174.312 84.0759 173.454 83.5959 172.854C83.1159 172.254 82.4319 171.954 81.5439 171.954C80.6559 171.954 79.9599 172.266 79.4559 172.89C78.9639 173.502 78.7179 174.36 78.7179 175.464C78.7179 176.568 78.9639 177.42 79.4559 178.02C79.9479 178.62 80.6439 178.92 81.5439 178.92ZM96.5489 166.752V180H95.1089V178.362C94.8449 178.926 94.4429 179.364 93.9029 179.676C93.3749 179.976 92.7569 180.126 92.0489 180.126C91.2569 180.126 90.5549 179.928 89.9429 179.532C89.3429 179.136 88.8749 178.584 88.5389 177.876C88.2029 177.156 88.0349 176.328 88.0349 175.392C88.0349 174.456 88.1969 173.64 88.5209 172.944C88.8569 172.236 89.3309 171.69 89.9429 171.306C90.5549 170.922 91.2569 170.73 92.0489 170.73C92.7569 170.73 93.3749 170.886 93.9029 171.198C94.4309 171.498 94.8269 171.924 95.0909 172.476V166.752H96.5489ZM92.3369 178.92C93.2249 178.92 93.9089 178.62 94.3889 178.02C94.8689 177.408 95.1089 176.544 95.1089 175.428C95.1089 174.324 94.8689 173.472 94.3889 172.872C93.9089 172.26 93.2249 171.954 92.3369 171.954C91.4489 171.954 90.7529 172.254 90.2489 172.854C89.7569 173.454 89.5109 174.3 89.5109 175.392C89.5109 176.508 89.7569 177.378 90.2489 178.002C90.7529 178.614 91.4489 178.92 92.3369 178.92ZM107.432 170.946V179.928C107.432 181.272 107.084 182.286 106.388 182.97C105.704 183.666 104.69 184.014 103.346 184.014C101.966 184.014 100.778 183.702 99.7819 183.078L100.034 181.89C100.61 182.214 101.15 182.448 101.654 182.592C102.17 182.736 102.734 182.808 103.346 182.808C104.222 182.808 104.882 182.574 105.326 182.106C105.77 181.65 105.992 180.966 105.992 180.054V177.912C105.716 178.488 105.308 178.938 104.768 179.262C104.24 179.574 103.61 179.73 102.878 179.73C102.086 179.73 101.378 179.544 100.754 179.172C100.142 178.8 99.6679 178.272 99.3319 177.588C98.9959 176.904 98.8279 176.118 98.8279 175.23C98.8279 174.342 98.9959 173.556 99.3319 172.872C99.6679 172.188 100.142 171.66 100.754 171.288C101.378 170.916 102.086 170.73 102.878 170.73C103.598 170.73 104.222 170.886 104.75 171.198C105.29 171.51 105.698 171.948 105.974 172.512V170.946H107.432ZM103.166 178.506C104.042 178.506 104.726 178.218 105.218 177.642C105.722 177.054 105.974 176.25 105.974 175.23C105.974 174.21 105.722 173.412 105.218 172.836C104.726 172.248 104.042 171.954 103.166 171.954C102.278 171.954 101.576 172.248 101.06 172.836C100.556 173.412 100.304 174.21 100.304 175.23C100.304 176.25 100.556 177.054 101.06 177.642C101.576 178.218 102.278 178.506 103.166 178.506ZM117.809 175.428H111.167C111.179 176.58 111.443 177.45 111.959 178.038C112.487 178.626 113.249 178.92 114.245 178.92C115.301 178.92 116.273 178.566 117.161 177.858L117.647 178.92C117.251 179.292 116.741 179.586 116.117 179.802C115.505 180.018 114.875 180.126 114.227 180.126C112.811 180.126 111.701 179.712 110.897 178.884C110.093 178.044 109.691 176.898 109.691 175.446C109.691 174.522 109.871 173.706 110.231 172.998C110.591 172.278 111.095 171.72 111.743 171.324C112.391 170.928 113.129 170.73 113.957 170.73C115.157 170.73 116.099 171.126 116.783 171.918C117.467 172.698 117.809 173.778 117.809 175.158V175.428ZM113.975 171.864C113.219 171.864 112.601 172.092 112.121 172.548C111.653 173.004 111.353 173.646 111.221 174.474H116.495C116.423 173.622 116.171 172.974 115.739 172.53C115.319 172.086 114.731 171.864 113.975 171.864ZM121.913 172.098V177.048C121.913 177.72 122.051 178.194 122.327 178.47C122.603 178.734 122.993 178.866 123.497 178.866C123.833 178.866 124.157 178.812 124.469 178.704V179.946C124.097 180.066 123.677 180.126 123.209 180.126C122.345 180.126 121.667 179.886 121.175 179.406C120.695 178.914 120.455 178.194 120.455 177.246V172.098H118.691V170.946H120.455V168.624L121.913 168.102V170.946H124.505V172.098H121.913ZM129.322 180.126C127.798 180.126 126.592 179.736 125.704 178.956L126.19 177.876C126.682 178.26 127.18 178.536 127.684 178.704C128.188 178.872 128.752 178.956 129.376 178.956C130.06 178.956 130.576 178.842 130.924 178.614C131.284 178.374 131.464 178.032 131.464 177.588C131.464 177.228 131.344 176.94 131.104 176.724C130.864 176.508 130.468 176.34 129.916 176.22L128.386 175.86C127.63 175.692 127.042 175.392 126.622 174.96C126.214 174.528 126.01 174.012 126.01 173.412C126.01 172.62 126.328 171.978 126.964 171.486C127.6 170.982 128.44 170.73 129.484 170.73C130.12 170.73 130.72 170.832 131.284 171.036C131.848 171.24 132.322 171.534 132.706 171.918L132.22 172.98C131.368 172.272 130.456 171.918 129.484 171.918C128.836 171.918 128.332 172.044 127.972 172.296C127.624 172.536 127.45 172.878 127.45 173.322C127.45 173.694 127.558 173.988 127.774 174.204C128.002 174.42 128.362 174.588 128.854 174.708L130.384 175.086C131.224 175.278 131.848 175.578 132.256 175.986C132.664 176.382 132.868 176.904 132.868 177.552C132.868 178.332 132.55 178.956 131.914 179.424C131.278 179.892 130.414 180.126 129.322 180.126Z" fill="#FAFBFD"/>
<path d="M69.7292 346.184L64.1312 359H62.8352L57.2372 346.184H58.8032L63.5012 357.128L68.1992 346.184H69.7292ZM78.1104 349.946V359H76.6704V357.362C76.4064 357.926 76.0044 358.364 75.4644 358.676C74.9364 358.976 74.3184 359.126 73.6104 359.126C72.8064 359.126 72.0984 358.934 71.4864 358.55C70.8864 358.166 70.4184 357.626 70.0824 356.93C69.7584 356.222 69.5964 355.4 69.5964 354.464C69.5964 353.528 69.7644 352.706 70.1004 351.998C70.4364 351.278 70.9044 350.72 71.5044 350.324C72.1164 349.928 72.8184 349.73 73.6104 349.73C74.3184 349.73 74.9364 349.886 75.4644 350.198C75.9924 350.51 76.3944 350.948 76.6704 351.512V349.946H78.1104ZM73.8984 357.92C74.7864 357.92 75.4704 357.62 75.9504 357.02C76.4304 356.408 76.6704 355.544 76.6704 354.428C76.6704 353.312 76.4304 352.454 75.9504 351.854C75.4704 351.254 74.7864 350.954 73.8984 350.954C73.0104 350.954 72.3144 351.266 71.8104 351.89C71.3184 352.502 71.0724 353.36 71.0724 354.464C71.0724 355.568 71.3184 356.42 71.8104 357.02C72.3024 357.62 72.9984 357.92 73.8984 357.92ZM80.9294 345.752H82.3874V359H80.9294V345.752ZM92.7965 349.946V359H91.3745V357.434C91.0865 357.986 90.6845 358.406 90.1685 358.694C89.6525 358.982 89.0705 359.126 88.4225 359.126C87.3545 359.126 86.5445 358.826 85.9925 358.226C85.4405 357.626 85.1645 356.738 85.1645 355.562V349.946H86.6225V355.526C86.6225 356.342 86.7905 356.942 87.1265 357.326C87.4625 357.71 87.9725 357.902 88.6565 357.902C89.4605 357.902 90.1085 357.644 90.6005 357.128C91.0925 356.6 91.3385 355.91 91.3385 355.058V349.946H92.7965ZM103.581 349.946V359H102.141V357.362C101.877 357.926 101.475 358.364 100.935 358.676C100.407 358.976 99.7891 359.126 99.0811 359.126C98.2771 359.126 97.5691 358.934 96.9571 358.55C96.3571 358.166 95.8891 357.626 95.5531 356.93C95.2291 356.222 95.0671 355.4 95.0671 354.464C95.0671 353.528 95.2351 352.706 95.5711 351.998C95.9071 351.278 96.3751 350.72 96.9751 350.324C97.5871 349.928 98.2891 349.73 99.0811 349.73C99.7891 349.73 100.407 349.886 100.935 350.198C101.463 350.51 101.865 350.948 102.141 351.512V349.946H103.581ZM99.3691 357.92C100.257 357.92 100.941 357.62 101.421 357.02C101.901 356.408 102.141 355.544 102.141 354.428C102.141 353.312 101.901 352.454 101.421 351.854C100.941 351.254 100.257 350.954 99.3691 350.954C98.4811 350.954 97.7851 351.266 97.2811 351.89C96.7891 352.502 96.5431 353.36 96.5431 354.464C96.5431 355.568 96.7891 356.42 97.2811 357.02C97.7731 357.62 98.4691 357.92 99.3691 357.92ZM110.918 349.73C111.71 349.73 112.412 349.922 113.024 350.306C113.636 350.69 114.11 351.236 114.446 351.944C114.782 352.64 114.95 353.456 114.95 354.392C114.95 355.328 114.782 356.156 114.446 356.876C114.11 357.584 113.636 358.136 113.024 358.532C112.412 358.928 111.71 359.126 110.918 359.126C110.21 359.126 109.592 358.97 109.064 358.658C108.536 358.346 108.134 357.902 107.858 357.326V359H106.4V345.752H107.858V351.548C108.122 350.96 108.518 350.51 109.046 350.198C109.586 349.886 110.21 349.73 110.918 349.73ZM110.648 357.92C111.524 357.92 112.208 357.614 112.7 357.002C113.192 356.378 113.438 355.508 113.438 354.392C113.438 353.3 113.192 352.454 112.7 351.854C112.22 351.254 111.536 350.954 110.648 350.954C109.748 350.954 109.058 351.254 108.578 351.854C108.098 352.454 107.858 353.312 107.858 354.428C107.858 355.544 108.098 356.408 108.578 357.02C109.058 357.62 109.748 357.92 110.648 357.92ZM117.193 345.752H118.651V359H117.193V345.752ZM129.06 354.428H122.418C122.43 355.58 122.694 356.45 123.21 357.038C123.738 357.626 124.5 357.92 125.496 357.92C126.552 357.92 127.524 357.566 128.412 356.858L128.898 357.92C128.502 358.292 127.992 358.586 127.368 358.802C126.756 359.018 126.126 359.126 125.478 359.126C124.062 359.126 122.952 358.712 122.148 357.884C121.344 357.044 120.942 355.898 120.942 354.446C120.942 353.522 121.122 352.706 121.482 351.998C121.842 351.278 122.346 350.72 122.994 350.324C123.642 349.928 124.38 349.73 125.208 349.73C126.408 349.73 127.35 350.126 128.034 350.918C128.718 351.698 129.06 352.778 129.06 354.158V354.428ZM125.226 350.864C124.47 350.864 123.852 351.092 123.372 351.548C122.904 352.004 122.604 352.646 122.472 353.474H127.746C127.674 352.622 127.422 351.974 126.99 351.53C126.57 351.086 125.982 350.864 125.226 350.864ZM134.333 359.126C132.809 359.126 131.603 358.736 130.715 357.956L131.201 356.876C131.693 357.26 132.191 357.536 132.695 357.704C133.199 357.872 133.763 357.956 134.387 357.956C135.071 357.956 135.587 357.842 135.935 357.614C136.295 357.374 136.475 357.032 136.475 356.588C136.475 356.228 136.355 355.94 136.115 355.724C135.875 355.508 135.479 355.34 134.927 355.22L133.397 354.86C132.641 354.692 132.053 354.392 131.633 353.96C131.225 353.528 131.021 353.012 131.021 352.412C131.021 351.62 131.339 350.978 131.975 350.486C132.611 349.982 133.451 349.73 134.495 349.73C135.131 349.73 135.731 349.832 136.295 350.036C136.859 350.24 137.333 350.534 137.717 350.918L137.231 351.98C136.379 351.272 135.467 350.918 134.495 350.918C133.847 350.918 133.343 351.044 132.983 351.296C132.635 351.536 132.461 351.878 132.461 352.322C132.461 352.694 132.569 352.988 132.785 353.204C133.013 353.42 133.373 353.588 133.865 353.708L135.395 354.086C136.235 354.278 136.859 354.578 137.267 354.986C137.675 355.382 137.879 355.904 137.879 356.552C137.879 357.332 137.561 357.956 136.925 358.424C136.289 358.892 135.425 359.126 134.333 359.126Z" fill="#FAFBFD"/>
<rect x="48.5" y="46.5" width="99" height="99" rx="3.5" stroke="#534CEA"/>
<rect x="48.5" y="225.5" width="99" height="99" rx="3.5" stroke="#534CEA"/>
<rect x="208.5" y="46.5" width="99" height="99" rx="3.5" stroke="#534CEA"/>
<rect x="208.5" y="225.5" width="99" height="99" rx="3.5" stroke="#534CEA"/>
<rect x="368.5" y="46.5" width="99" height="99" rx="3.5" stroke="#534CEA"/>
<rect x="368.5" y="225.5" width="99" height="99" rx="3.5" stroke="#534CEA"/>
<rect x="528.5" y="46.5" width="99" height="99" rx="3.5" stroke="#534CEA"/>
<rect x="528.5" y="225.5" width="99" height="99" rx="3.5" stroke="#534CEA"/>
<rect x="688.5" y="46.5" width="99" height="99" rx="3.5" stroke="#534CEA"/>
<rect x="688.5" y="225.5" width="99" height="99" rx="3.5" stroke="#534CEA"/>
<path d="M738 279.8V270.2M742.8 275H733.2M745.953 282.955C750.346 278.562 750.346 271.438 745.953 267.045C741.56 262.652 734.436 262.652 730.043 267.045C725.65 271.438 725.65 278.562 730.043 282.955C734.436 287.348 741.56 287.348 745.953 282.955Z" stroke="#534CEA" stroke-width="1.5" stroke-linecap="round" stroke-linejoin="round"/>
<path fill-rule="evenodd" clip-rule="evenodd" d="M107.75 90.7497H104.762C103.495 90.7836 102.276 90.2649 101.422 89.3287C100.567 88.3275 99.3165 87.751 98 87.751C96.6835 87.751 95.433 88.3275 94.578 89.3287C93.724 90.265 92.5049 90.7837 91.238 90.7497H88.25C87.4216 90.7497 86.75 91.4212 86.75 92.2497C86.75 93.0781 87.4216 93.7497 88.25 93.7497H91.238C92.5049 93.7156 93.724 94.2343 94.578 95.1707C95.433 96.1718 96.6835 96.7483 98 96.7483C99.3165 96.7483 100.567 96.1718 101.422 95.1707C102.276 94.2344 103.495 93.7158 104.762 93.7497H107.75C108.578 93.7497 109.25 93.0781 109.25 92.2497C109.25 91.4212 108.578 90.7497 107.75 90.7497V90.7497Z" stroke="#534CEA" stroke-width="1.5" stroke-linecap="round" stroke-linejoin="round"/>
<path d="M86.75 86.25H88.25" stroke="#534CEA" stroke-width="1.5" stroke-linecap="round" stroke-linejoin="round"/>
<path d="M91.25 86.25H92.75" stroke="#534CEA" stroke-width="1.5" stroke-linecap="round" stroke-linejoin="round"/>
<path d="M89.75 87.75V90.75" stroke="#534CEA" stroke-width="1.5" stroke-linecap="round" stroke-linejoin="round"/>
<path d="M103.25 86.25H104.75" stroke="#534CEA" stroke-width="1.5" stroke-linecap="round" stroke-linejoin="round"/>
<path d="M107.75 86.25H109.25" stroke="#534CEA" stroke-width="1.5" stroke-linecap="round" stroke-linejoin="round"/>
<path d="M106.25 87.75V90.75" stroke="#534CEA" stroke-width="1.5" stroke-linecap="round" stroke-linejoin="round"/>
<path d="M92.7498 96.75C90.5951 97.9514 89.0373 99.995 88.4498 102.391C88.3452 102.839 88.4502 103.311 88.7349 103.672C89.0197 104.034 89.4535 104.247 89.9138 104.25H92.7498" stroke="#534CEA" stroke-width="1.5" stroke-linecap="round" stroke-linejoin="round"/>
<path d="M92.75 102.75V105.75" stroke="#534CEA" stroke-width="1.5" stroke-linecap="round" stroke-linejoin="round"/>
<path d="M103.25 96.75C105.405 97.9514 106.962 99.995 107.55 102.391C107.655 102.839 107.55 103.311 107.265 103.672C106.98 104.034 106.546 104.247 106.086 104.25H103.25" stroke="#534CEA" stroke-width="1.5" stroke-linecap="round" stroke-linejoin="round"/>
<path d="M103.25 102.75V105.75" stroke="#534CEA" stroke-width="1.5" stroke-linecap="round" stroke-linejoin="round"/>
<path fill-rule="evenodd" clip-rule="evenodd" d="M261.75 106.32H254.25L255 102H261L261.75 106.32V106.32Z" stroke="#534CEA" stroke-width="1.5" stroke-linecap="round" stroke-linejoin="round"/>
<path d="M252 106.319H264" stroke="#534CEA" stroke-width="1.5" stroke-linecap="round" stroke-linejoin="round"/>
<path d="M246.75 99.1201H269.25" stroke="#534CEA" stroke-width="1.5" stroke-linecap="round" stroke-linejoin="round"/>
<path fill-rule="evenodd" clip-rule="evenodd" d="M246.75 87.7197C246.75 86.0629 248.093 84.7197 249.75 84.7197H266.25C267.907 84.7197 269.25 86.0629 269.25 87.7197V98.9997C269.25 100.657 267.907 102 266.25 102H249.75C248.093 102 246.75 100.657 246.75 98.9997V87.7197Z" stroke="#534CEA" stroke-width="1.5" stroke-linecap="round" stroke-linejoin="round"/>
<path fill-rule="evenodd" clip-rule="evenodd" d="M92.75 269.75C96.0637 269.75 98.75 268.407 98.75 266.75C98.75 265.093 96.0637 263.75 92.75 263.75C89.4363 263.75 86.75 265.093 86.75 266.75C86.75 268.407 89.4363 269.75 92.75 269.75Z" stroke="#534CEA" stroke-width="1.5" stroke-linecap="round" stroke-linejoin="round"/>
<path d="M98.75 269.75C98.75 271.407 96.064 272.75 92.75 272.75C89.436 272.75 86.75 271.407 86.75 269.75" stroke="#534CEA" stroke-width="1.5" stroke-linecap="round" stroke-linejoin="round"/>
<path d="M98.75 272.75V266.75" stroke="#534CEA" stroke-width="1.5" stroke-linecap="round" stroke-linejoin="round"/>
<path d="M86.75 266.75V281.75C86.75 283.407 89.436 284.75 92.75 284.75C93.5056 284.751 94.2594 284.676 95 284.527" stroke="#534CEA" stroke-width="1.5" stroke-linecap="round" stroke-linejoin="round"/>
<path d="M86.75 278.75C86.75 280.407 89.436 281.75 92.75 281.75C93.5056 281.751 94.2594 281.676 95 281.527" stroke="#534CEA" stroke-width="1.5" stroke-linecap="round" stroke-linejoin="round"/>
<path d="M86.75 275.75C86.75 277.407 89.436 278.75 92.75 278.75C93.5056 278.751 94.2594 278.676 95 278.527" stroke="#534CEA" stroke-width="1.5" stroke-linecap="round" stroke-linejoin="round"/>
<path d="M86.75 272.75C86.75 274.407 89.436 275.75 92.75 275.75C93.5056 275.751 94.2594 275.676 95 275.527" stroke="#534CEA" stroke-width="1.5" stroke-linecap="round" stroke-linejoin="round"/>
<path fill-rule="evenodd" clip-rule="evenodd" d="M103.25 280.25C106.564 280.25 109.25 278.907 109.25 277.25C109.25 275.593 106.564 274.25 103.25 274.25C99.9363 274.25 97.25 275.593 97.25 277.25C97.25 278.907 99.9363 280.25 103.25 280.25Z" stroke="#534CEA" stroke-width="1.5" stroke-linecap="round" stroke-linejoin="round"/>
<path d="M97.25 277.25V283.25C97.25 284.907 99.936 286.25 103.25 286.25C106.564 286.25 109.25 284.907 109.25 283.25V277.25" stroke="#534CEA" stroke-width="1.5" stroke-linecap="round" stroke-linejoin="round"/>
<path d="M109.25 280.25C109.25 281.907 106.564 283.25 103.25 283.25C99.936 283.25 97.25 281.907 97.25 280.25" stroke="#534CEA" stroke-width="1.5" stroke-linecap="round" stroke-linejoin="round"/>
<path fill-rule="evenodd" clip-rule="evenodd" d="M745.236 87.225C744.953 86.8473 744.508 86.625 744.036 86.625H732.036C731.564 86.625 731.119 86.8473 730.836 87.225L727.499 91.676C727.082 92.2322 727.102 93.002 727.547 93.536L736.885 104.836C737.17 105.176 737.591 105.373 738.035 105.373C738.479 105.373 738.9 105.176 739.185 104.836L748.523 93.536C748.968 93.002 748.988 92.2322 748.571 91.676L745.236 87.225Z" stroke="#534CEA" stroke-width="1.5" stroke-linecap="round" stroke-linejoin="round"/>
<path d="M731.348 86.792L738.036 105.375" stroke="#534CEA" stroke-width="1.5" stroke-linecap="round" stroke-linejoin="round"/>
<path d="M744.724 86.792L738.037 105.375" stroke="#534CEA" stroke-width="1.5" stroke-linecap="round" stroke-linejoin="round"/>
<path d="M727.197 92.625H748.87" stroke="#534CEA" stroke-width="1.5" stroke-linecap="round" stroke-linejoin="round"/>
<path d="M733.537 92.625L738.037 86.625L742.537 92.625" stroke="#534CEA" stroke-width="1.5" stroke-linecap="round" stroke-linejoin="round"/>
<path d="M418 267.57C414.764 265.587 411.077 264.459 407.285 264.293C407.146 264.288 407.01 264.338 406.909 264.434C406.808 264.53 406.751 264.662 406.75 264.8V281.542C406.75 281.816 406.966 282.042 407.24 282.053C410.712 281.559 414.236 282.481 417.021 284.612C417.331 284.741 417.668 284.787 418.001 284.747" stroke="#534CEA" stroke-width="1.5" stroke-linecap="round" stroke-linejoin="round"/>
<path d="M417.999 267.57C421.235 265.587 424.922 264.459 428.714 264.293C428.853 264.288 428.989 264.338 429.09 264.434C429.192 264.53 429.249 264.664 429.249 264.803V281.542C429.249 281.816 429.033 282.042 428.759 282.053C425.287 281.559 421.763 282.481 418.978 284.612C418.668 284.741 418.331 284.787 417.998 284.747" stroke="#534CEA" stroke-width="1.5" stroke-linecap="round" stroke-linejoin="round"/>
<path d="M418 267.57V284.757" stroke="#534CEA" stroke-width="1.5" stroke-linecap="round" stroke-linejoin="round"/>
<path d="M408.25 281.974V285.2C408.25 285.355 408.32 285.503 408.441 285.6C408.562 285.697 408.721 285.734 408.873 285.7C411.875 285.074 414.933 284.758 418 284.758C420.886 284.757 423.764 285.071 426.582 285.695C426.734 285.728 426.892 285.691 427.013 285.594C427.134 285.497 427.205 285.35 427.205 285.195V281.958" stroke="#534CEA" stroke-width="1.5" stroke-linecap="round" stroke-linejoin="round"/>
<path fill-rule="evenodd" clip-rule="evenodd" d="M566.75 85.25C566.75 84.9739 566.974 84.75 567.25 84.75H576C576.276 84.75 576.5 84.9739 576.5 85.25V106.75C576.5 107.026 576.276 107.25 576 107.25H567.25C566.974 107.25 566.75 107.026 566.75 106.75V85.25Z" stroke="#534CEA" stroke-width="1.5" stroke-linecap="round" stroke-linejoin="round"/>
<path fill-rule="evenodd" clip-rule="evenodd" d="M579.5 85.25C579.5 84.9739 579.724 84.75 580 84.75H588.75C589.026 84.75 589.25 84.9739 589.25 85.25V106.75C589.25 107.026 589.026 107.25 588.75 107.25H580C579.724 107.25 579.5 107.026 579.5 106.75V85.25Z" stroke="#534CEA" stroke-width="1.5" stroke-linecap="round" stroke-linejoin="round"/>
<path d="M576.5 96.75H570.5C570.5 95.0931 571.843 93.75 573.5 93.75C573.5 92.5074 574.507 91.5 575.75 91.5H576.5" stroke="#534CEA" stroke-width="1.5" stroke-linecap="round" stroke-linejoin="round"/>
<path d="M589.25 93H583.25C583.25 91.3431 584.593 90 586.25 90C586.25 88.7574 587.257 87.75 588.5 87.75H589.25" stroke="#534CEA" stroke-width="1.5" stroke-linecap="round" stroke-linejoin="round"/>
<path d="M566.922 106.977L569.622 102.66C570.17 101.783 571.132 101.25 572.166 101.25H572.501C573.15 101.25 573.782 101.039 574.301 100.65L576.501 99" stroke="#534CEA" stroke-width="1.5" stroke-linecap="round" stroke-linejoin="round"/>
<path d="M571.25 107.25L572.35 105.05C572.597 104.559 573.1 104.249 573.65 104.25C574.035 104.25 574.405 104.097 574.678 103.825L576.5 102" stroke="#534CEA" stroke-width="1.5" stroke-linecap="round" stroke-linejoin="round"/>
<path d="M579.5 97.5L585.5 96L587 93" stroke="#534CEA" stroke-width="1.5" stroke-linecap="round" stroke-linejoin="round"/>
<path d="M579.5 100.5L582.964 98.768C583.643 98.4286 584.222 97.9181 584.643 97.287L585.5 96" stroke="#534CEA" stroke-width="1.5" stroke-linecap="round" stroke-linejoin="round"/>
<path d="M583.869 98.1641L586.249 99.7501" stroke="#534CEA" stroke-width="1.5" stroke-linecap="round" stroke-linejoin="round"/>
<path fill-rule="evenodd" clip-rule="evenodd" d="M267.712 275.169C267.434 273.763 266.201 272.75 264.768 272.75H251.232C249.799 272.75 248.565 273.763 248.288 275.169L246.807 282.669C246.633 283.549 246.863 284.461 247.432 285.155C248.002 285.848 248.852 286.25 249.75 286.25H266.25C267.147 286.25 267.998 285.848 268.567 285.155C269.137 284.461 269.367 283.549 269.193 282.669L267.712 275.169Z" stroke="#534CEA" stroke-width="1.5" stroke-linecap="round" stroke-linejoin="round"/>
<path d="M254.25 272.75V267.5C254.25 265.429 255.929 263.75 258 263.75C260.071 263.75 261.75 265.429 261.75 267.5V272.75" stroke="#534CEA" stroke-width="1.5" stroke-linecap="round" stroke-linejoin="round"/>
<path d="M252.75 272.75V286.25" stroke="#534CEA" stroke-width="1.5" stroke-linecap="round" stroke-linejoin="round"/>
<path d="M263.25 272.75V286.25" stroke="#534CEA" stroke-width="1.5" stroke-linecap="round" stroke-linejoin="round"/>
<path d="M255.75 277.25H260.25" stroke="#534CEA" stroke-width="1.5" stroke-linecap="round" stroke-linejoin="round"/>
<path fill-rule="evenodd" clip-rule="evenodd" d="M424 103C425.243 103 426.25 101.993 426.25 100.75C426.25 99.5074 425.243 98.5 424 98.5C422.757 98.5 421.75 99.5074 421.75 100.75C421.75 101.993 422.757 103 424 103Z" stroke="#534CEA" stroke-width="1.5" stroke-linecap="round" stroke-linejoin="round"/>
<path fill-rule="evenodd" clip-rule="evenodd" d="M412 103C413.243 103 414.25 101.993 414.25 100.75C414.25 99.5074 413.243 98.5 412 98.5C410.757 98.5 409.75 99.5074 409.75 100.75C409.75 101.993 410.757 103 412 103Z" stroke="#534CEA" stroke-width="1.5" stroke-linecap="round" stroke-linejoin="round"/>
<path d="M421.75 100.75H414.25" stroke="#534CEA" stroke-width="1.5" stroke-linecap="round" stroke-linejoin="round"/>
<path d="M426.25 100.75H427.75C428.224 100.75 428.671 100.526 428.954 100.146C429.237 99.7651 429.323 99.2732 429.187 98.819L427.321 94.319C427.131 93.6844 426.547 93.2499 425.884 93.25H422.5L420.687 96.272C420.416 96.7239 419.927 97.0003 419.4 97H416.553C416.051 97 415.583 96.7493 415.305 96.332L414.25 94.75H409.75C408.922 94.75 408.25 95.4216 408.25 96.25V100.75" stroke="#534CEA" stroke-width="1.5" stroke-linecap="round" stroke-linejoin="round"/>
<path d="M406.75 100.75H409.75" stroke="#534CEA" stroke-width="1.5" stroke-linecap="round" stroke-linejoin="round"/>
<path d="M414.25 94.75V91" stroke="#534CEA" stroke-width="1.5" stroke-linecap="round" stroke-linejoin="round"/>
<path d="M422.5 93.25L421 89.5" stroke="#534CEA" stroke-width="1.5" stroke-linecap="round" stroke-linejoin="round"/>
<path d="M574.25 282.75H571.25C570.422 282.75 569.75 282.078 569.75 281.25V273.75" stroke="#534CEA" stroke-width="1.5" stroke-linecap="round" stroke-linejoin="round"/>
<path d="M566.75 272.25L575.531 264.82C576.09 264.347 576.91 264.347 577.469 264.82L586.25 272.25" stroke="#534CEA" stroke-width="1.5" stroke-linecap="round" stroke-linejoin="round"/>
<path d="M581.75 264.75H584.75V267.75" stroke="#534CEA" stroke-width="1.5" stroke-linecap="round" stroke-linejoin="round"/>
<path fill-rule="evenodd" clip-rule="evenodd" d="M583.25 285.75L578.136 280.415C577.215 279.495 576.987 278.088 577.569 276.923V276.923C578.004 276.053 578.831 275.446 579.791 275.29C580.751 275.134 581.728 275.45 582.415 276.137L583.25 276.972L584.085 276.137C584.773 275.45 585.749 275.134 586.71 275.29C587.67 275.446 588.496 276.053 588.931 276.923V276.923C589.514 278.088 589.285 279.495 588.364 280.415L583.25 285.75Z" stroke="#534CEA" stroke-width="1.5" stroke-linecap="round" stroke-linejoin="round"/>
<defs>
<filter id="filter0_di" x="0" y="0" width="836" height="414" filterUnits="userSpaceOnUse" color-interpolation-filters="sRGB">
<feFlood flood-opacity="0" result="BackgroundImageFix"/>
<feColorMatrix in="SourceAlpha" type="matrix" values="0 0 0 0 0 0 0 0 0 0 0 0 0 0 0 0 0 0 127 0"/>
<feOffset dy="2"/>
<feGaussianBlur stdDeviation="4"/>
<feColorMatrix type="matrix" values="0 0 0 0 0.888 0 0 0 0 0.911467 0 0 0 0 0.952 0 0 0 1 0"/>
<feBlend mode="normal" in2="BackgroundImageFix" result="effect1_dropShadow"/>
<feBlend mode="normal" in="SourceGraphic" in2="effect1_dropShadow" result="shape"/>
<feColorMatrix in="SourceAlpha" type="matrix" values="0 0 0 0 0 0 0 0 0 0 0 0 0 0 0 0 0 0 127 0" result="hardAlpha"/>
<feOffset dy="-1"/>
<feComposite in2="hardAlpha" operator="arithmetic" k2="-1" k3="1"/>
<feColorMatrix type="matrix" values="0 0 0 0 0.921569 0 0 0 0 0.92549 0 0 0 0 0.945098 0 0 0 1 0"/>
<feBlend mode="normal" in2="shape" result="effect2_innerShadow"/>
</filter>
</defs>
</svg>
