<svg width="738" height="816" viewBox="0 0 738 816" fill="none" xmlns="http://www.w3.org/2000/svg">
<g filter="url(#filter0_di)">
<rect x="8" y="6" width="722" height="800" rx="6" fill="white"/>
</g>
<rect opacity="0.4" x="41" y="39" width="312" height="158" rx="5" stroke="#534CEA" stroke-width="2"/>
<rect opacity="0.4" x="41" y="231" width="312" height="158" rx="5" stroke="#534CEA" stroke-width="2"/>
<rect opacity="0.4" x="41" y="423" width="312" height="158" rx="5" stroke="#534CEA" stroke-width="2"/>
<rect opacity="0.4" x="41" y="615" width="312" height="158" rx="5" stroke="#534CEA" stroke-width="2"/>
<rect opacity="0.4" x="385" y="39" width="312" height="158" rx="5" stroke="#534CEA" stroke-width="2"/>
<rect opacity="0.4" x="385" y="231" width="312" height="158" rx="5" stroke="#534CEA" stroke-width="2"/>
<rect opacity="0.4" x="385" y="423" width="312" height="158" rx="5" stroke="#534CEA" stroke-width="2"/>
<rect x="384" y="614" width="314" height="160" rx="6" fill="#534CEA"/>
<path d="M480.38 697.68H474.32V703.74H471.68V697.68H465.62V695.01H471.68V688.95H474.32V695.01H480.38V697.68ZM498.458 701.85V705H484.118V702.15L491.378 694.32C492.238 693.38 492.868 692.52 493.268 691.74C493.668 690.96 493.868 690.19 493.868 689.43C493.868 688.45 493.578 687.71 492.998 687.21C492.438 686.71 491.628 686.46 490.568 686.46C488.688 686.46 486.758 687.2 484.778 688.68L483.488 685.86C484.328 685.1 485.408 684.5 486.728 684.06C488.048 683.6 489.378 683.37 490.718 683.37C492.858 683.37 494.548 683.9 495.788 684.96C497.048 686 497.678 687.41 497.678 689.19C497.678 690.41 497.408 691.56 496.868 692.64C496.348 693.72 495.468 694.93 494.228 696.27L488.978 701.85H498.458ZM516.536 701.85V705H503.366V701.85H508.046V688.08L503.696 690.69V687.24L509.636 683.64H511.886V701.85H516.536ZM534.104 705L524.174 695.01V705H520.304V683.64H524.174V693.21L533.714 683.64H538.364L527.984 693.9L538.844 705H534.104ZM569.337 683.64V705H565.917V691.74L560.247 705H557.697L551.997 691.89V705H548.577V683.64H551.637L558.987 700.35L566.277 683.64H569.337ZM580.605 705.24C579.065 705.24 577.705 704.92 576.525 704.28C575.365 703.64 574.465 702.73 573.825 701.55C573.205 700.35 572.895 698.95 572.895 697.35C572.895 695.75 573.205 694.36 573.825 693.18C574.465 691.98 575.365 691.06 576.525 690.42C577.705 689.78 579.065 689.46 580.605 689.46C582.125 689.46 583.465 689.78 584.625 690.42C585.785 691.06 586.675 691.98 587.295 693.18C587.935 694.36 588.255 695.75 588.255 697.35C588.255 698.95 587.935 700.35 587.295 701.55C586.675 702.73 585.785 703.64 584.625 704.28C583.465 704.92 582.125 705.24 580.605 705.24ZM580.575 702.3C581.855 702.3 582.825 701.89 583.485 701.07C584.165 700.23 584.505 698.99 584.505 697.35C584.505 695.73 584.165 694.5 583.485 693.66C582.805 692.8 581.845 692.37 580.605 692.37C579.345 692.37 578.375 692.8 577.695 693.66C577.015 694.5 576.675 695.73 576.675 697.35C576.675 698.99 577.005 700.23 577.665 701.07C578.345 701.89 579.315 702.3 580.575 702.3ZM599.649 689.49C600.229 689.49 600.729 689.57 601.149 689.73L601.119 693.15C600.479 692.89 599.819 692.76 599.139 692.76C597.859 692.76 596.879 693.13 596.199 693.87C595.539 694.61 595.209 695.59 595.209 696.81V705H591.489V694.14C591.489 692.54 591.409 691.11 591.249 689.85H594.759L595.059 692.52C595.439 691.54 596.039 690.79 596.859 690.27C597.679 689.75 598.609 689.49 599.649 689.49ZM616.204 697.62H605.764C605.844 699.24 606.244 700.44 606.964 701.22C607.704 701.98 608.794 702.36 610.234 702.36C611.894 702.36 613.434 701.82 614.854 700.74L615.934 703.32C615.214 703.9 614.324 704.37 613.264 704.73C612.224 705.07 611.164 705.24 610.084 705.24C607.604 705.24 605.654 704.54 604.234 703.14C602.814 701.74 602.104 699.82 602.104 697.38C602.104 695.84 602.414 694.47 603.034 693.27C603.654 692.07 604.524 691.14 605.644 690.48C606.764 689.8 608.034 689.46 609.454 689.46C611.534 689.46 613.174 690.14 614.374 691.5C615.594 692.84 616.204 694.69 616.204 697.05V697.62ZM609.544 692.16C608.544 692.16 607.724 692.46 607.084 693.06C606.464 693.64 606.064 694.49 605.884 695.61H612.934C612.814 694.47 612.464 693.61 611.884 693.03C611.324 692.45 610.544 692.16 609.544 692.16Z" fill="white"/>
<path d="M285.301 97.2129C284.465 97.2129 283.787 97.8858 283.787 98.7155V109.254H311.821L299.054 97.2139L285.301 97.2129Z" fill="#117ACA"/>
<path d="M312.847 112.442C312.847 111.61 312.174 110.94 311.332 110.94H300.723V138.779L312.842 126.096L312.847 112.442Z" fill="#117ACA"/>
<path d="M297.509 139.787C298.343 139.787 299.021 139.113 299.021 138.282V127.747H270.986L283.755 139.785L297.509 139.787Z" fill="#117ACA"/>
<path d="M269.961 124.56C269.961 125.39 270.639 126.067 271.477 126.067H282.085V98.2266L269.963 110.906L269.961 124.56Z" fill="#117ACA"/>
<path d="M141.466 102.295V115.151H123.429V102.295L116.859 102.289V134.705H123.429V120.779H141.466V134.705H148.046V102.295H141.466Z" fill="#211E1E"/>
<path d="M228.859 102.295V134.698H257.681L254.031 128.993H235.447V120.779H253.442V115.285H235.447V107.866H253.999L257.576 102.295H228.859Z" fill="#211E1E"/>
<path d="M92.4394 102.287C85.6058 102.287 82.1543 106.412 82.1543 112.415V124.515C82.1543 131.462 86.6022 134.705 92.4053 134.705L113.017 134.703L109.196 128.778H93.6786C90.3822 128.778 88.9461 127.595 88.9461 123.931V112.953C88.9461 109.412 90.155 108.03 93.7664 108.03H109.357L113.026 102.287H92.4394Z" fill="#211E1E"/>
<path d="M200.033 102.279C196.086 102.279 192.041 104.635 192.041 110.694V112.25C192.041 118.567 195.933 120.977 199.827 120.993H213.495C214.915 120.993 216.068 121.227 216.068 123.61L216.066 126.362C216.03 128.503 214.955 128.993 213.446 128.993H195.465L191.781 134.697H213.87C219.196 134.697 222.812 132.066 222.812 125.988V123.754C222.812 117.877 219.452 115.101 214.243 115.101H201.192C199.745 115.101 198.737 114.709 198.737 112.581V110.339C198.737 108.527 199.428 107.866 201.114 107.866L218.238 107.859L221.818 102.271L200.033 102.279Z" fill="#211E1E"/>
<path d="M167.132 102.295L151.654 134.703H158.97L161.984 128.01H178.804L181.809 134.703H189.156L173.642 102.295H167.132ZM170.378 109.024L176.325 122.494H164.469L170.378 109.024Z" fill="#211E1E"/>
<g clip-path="url(#clip0)">
<path fill-rule="evenodd" clip-rule="evenodd" d="M169.356 707.951H174.741C176.854 707.951 178.301 708.865 178.301 711.164C178.301 713.494 176.601 714.124 174.648 714.124H169.356V707.951ZM164.412 717.969H175.309C179.373 717.969 183.248 716.014 183.248 711.448C183.248 708.646 181.861 706.535 179.122 705.746C181.073 704.801 182.174 703.258 182.174 701.055C182.174 696.863 179.277 695.479 174.991 695.479H164.412V717.969ZM169.356 699.321H173.984C175.748 699.321 177.386 699.761 177.386 701.902C177.386 703.794 176.095 704.579 174.361 704.579H169.354V699.321H169.356ZM196.241 711.669C196.241 712.645 196.116 715.416 192.621 715.416C191.171 715.416 189.879 715.006 189.879 713.336C189.879 711.696 191.138 711.227 192.525 710.942C193.91 710.691 195.487 710.66 196.243 709.999V711.669H196.241ZM190.383 706.69C190.539 704.927 191.642 704.236 193.344 704.236C194.918 704.236 196.241 704.52 196.241 706.438C196.241 708.266 193.69 708.173 190.95 708.581C188.178 708.961 185.407 709.842 185.407 713.528C185.407 716.863 187.862 718.408 190.95 718.408C192.934 718.408 195.011 717.873 196.429 716.393C196.462 716.929 196.587 717.464 196.745 717.969H201.281C200.873 717.306 200.713 715.825 200.713 714.345V705.874C200.713 701.967 196.808 701.246 193.564 701.246C189.91 701.246 186.163 702.505 185.911 706.692H190.383V706.69ZM204.174 717.969H208.645V709.43C208.645 706.124 209.687 704.77 212.114 704.77C214.191 704.77 214.979 706.093 214.979 708.77V717.969H219.45V707.951C219.45 703.92 218.255 701.244 213.498 701.244C211.609 701.244 209.653 702.124 208.521 703.951H208.427V701.683H204.174V717.969ZM223.251 717.969H227.722V712.361L229.456 710.691L233.926 717.969H239.343L232.509 707.666L238.651 701.682H233.359L227.722 707.543V695.477H223.251V717.969ZM162.993 680.518C162.929 686.062 167.591 688.517 172.568 688.517C178.678 688.517 181.922 685.432 181.922 681.304C181.922 676.203 176.882 675.163 175.244 674.755C169.607 673.307 168.538 673.085 168.538 671.354C168.538 669.463 170.364 668.801 171.94 668.801C174.301 668.801 176.223 669.493 176.379 672.202H181.166C181.166 667.005 176.854 664.957 172.16 664.957C168.095 664.957 163.75 667.163 163.75 671.762C163.75 675.984 167.12 677.276 170.457 678.157C173.766 679.039 177.135 679.446 177.135 681.872C177.135 684.172 174.489 684.676 172.756 684.676C170.11 684.676 167.78 683.511 167.78 680.519H162.993V680.518ZM190.047 666.817H185.575V671.7H182.865V674.692H185.575V684.298C185.575 687.542 187.97 688.173 190.709 688.173C191.591 688.173 192.566 688.14 193.324 688.013V684.518C192.867 684.606 192.403 684.648 191.937 684.644C190.425 684.644 190.048 684.266 190.048 682.753V674.69H193.324V671.698H190.048V666.817H190.047ZM205.595 681.683C205.595 682.659 205.465 685.432 201.971 685.432C200.521 685.432 199.234 685.022 199.234 683.352C199.234 681.714 200.492 681.242 201.875 680.958C203.262 680.706 204.838 680.676 205.596 680.015V681.683H205.595ZM199.736 676.705C199.89 674.94 200.994 674.25 202.693 674.25C204.27 674.25 205.595 674.532 205.595 676.454C205.595 678.283 203.04 678.187 200.3 678.598C197.529 678.976 194.757 679.857 194.757 683.543C194.757 686.879 197.216 688.424 200.3 688.424C202.285 688.424 204.368 687.889 205.78 686.408C205.812 686.944 205.939 687.478 206.098 687.982H210.634C210.226 687.323 210.067 685.84 210.067 684.362V675.891C210.067 671.983 206.158 671.258 202.916 671.258C199.265 671.258 195.516 672.517 195.264 676.707H199.736V676.705ZM213.526 687.981H217.997V679.445C217.997 676.141 219.036 674.784 221.464 674.784C223.541 674.784 224.331 676.108 224.331 678.785V687.981H228.799V677.965C228.799 673.934 227.602 671.256 222.847 671.256C220.958 671.256 219.005 672.139 217.873 673.966H217.78V671.698H213.526V687.981ZM243.814 687.981H248.067V665.492H243.596V673.681H243.53H243.559C242.52 672.075 240.631 671.255 238.71 671.255C233.925 671.255 231.496 675.319 231.496 679.696C231.496 684.199 233.89 688.423 238.805 688.423C240.882 688.423 242.714 687.667 243.75 685.904H243.814V687.981ZM243.75 679.792C243.75 682.469 242.868 685.053 239.908 685.053C237.136 685.053 235.97 682.376 235.97 679.823C235.97 677.147 236.976 674.627 239.908 674.627C242.804 674.627 243.75 677.147 243.75 679.792ZM261.563 681.683C261.563 682.659 261.439 685.432 257.943 685.432C256.495 685.432 255.202 685.022 255.202 683.352C255.202 681.714 256.466 681.242 257.85 680.958C259.236 680.706 260.809 680.676 261.565 680.015V681.683H261.563ZM255.706 676.705C255.866 674.94 256.97 674.25 258.666 674.25C260.243 674.25 261.565 674.532 261.565 676.454C261.565 678.283 259.016 678.187 256.278 678.598C253.503 678.976 250.731 679.857 250.731 683.543C250.731 686.879 253.188 688.424 256.278 688.424C258.26 688.424 260.338 687.889 261.755 686.408C261.788 686.944 261.915 687.478 262.07 687.982H266.604C266.196 687.323 266.042 685.84 266.042 684.362V675.891C266.042 671.983 262.137 671.258 258.892 671.258C255.237 671.258 251.49 672.517 251.238 676.707H255.706V676.705ZM269.496 687.981H273.972V680.644C273.972 677.779 275.106 675.415 278.382 675.415C278.917 675.415 279.577 675.478 279.988 675.573V671.414C279.673 671.314 279.345 671.26 279.015 671.256C276.839 671.256 274.635 672.673 273.813 674.723H273.752V671.7H269.496V687.981ZM292.798 687.981H297.048V665.492H292.578V673.681H292.514H292.544C291.505 672.075 289.618 671.255 287.695 671.255C282.907 671.255 280.481 675.319 280.481 679.696C280.481 684.199 282.874 688.423 287.789 688.423C289.867 688.423 291.695 687.667 292.734 685.904H292.798V687.981ZM292.734 679.792C292.734 682.469 291.852 685.053 288.892 685.053C286.12 685.053 284.957 682.376 284.957 679.823C284.957 677.147 285.964 674.627 288.892 674.627C291.788 674.627 292.734 677.147 292.734 679.792ZM102.365 712.535C100.719 711.534 99.3576 710.126 98.4129 708.447C97.4683 706.768 96.9716 704.874 96.9707 702.947V672.946C96.9707 668.802 100.357 665.455 104.497 665.455H134.467C135.452 665.455 136.427 665.649 137.337 666.026C138.247 666.403 139.074 666.955 139.771 667.652C140.467 668.349 141.02 669.176 141.397 670.086C141.774 670.996 141.968 671.971 141.967 672.956L141.953 702.954C141.955 704.874 141.463 706.762 140.526 708.437C139.589 710.112 138.237 711.519 136.6 712.522L127.862 717.833L115.963 694.456C117.37 693.516 119.024 693.015 120.716 693.017C121.7 693.017 122.643 693.191 123.524 693.492L127.96 694.99C129.515 695.507 131.183 695.578 132.776 695.196C134.369 694.813 135.824 693.992 136.974 692.825L136.977 679.736C134.703 681.044 132.124 681.732 129.5 681.728C127.968 681.728 126.488 681.499 125.095 681.073L120.988 679.802C119.7 679.413 118.361 679.216 117.015 679.217C114.3 679.218 111.646 680.03 109.395 681.549L108.455 679.7L108.448 677.209C108.452 677.016 108.41 676.823 108.326 676.649C108.242 676.474 108.118 676.322 107.964 676.204L102.98 672.447C102.871 672.373 102.741 672.335 102.609 672.336C102.444 672.336 102.285 672.402 102.168 672.519C102.051 672.636 101.985 672.794 101.985 672.959V679.202C101.985 679.614 102.191 679.967 102.499 680.196L104.521 681.696L124.091 720.105L119.483 722.919L102.365 712.535ZM101.995 687.776L115.83 714.927L104.947 708.256C104.043 707.696 103.296 706.913 102.779 705.984C102.261 705.054 101.989 704.007 101.989 702.943L101.995 687.776ZM129.884 710.746L133.991 708.262C134.9 707.704 135.651 706.922 136.171 705.991C136.691 705.059 136.964 704.01 136.962 702.943V698.978C135.036 699.954 132.907 700.461 130.749 700.458C128.241 700.462 125.781 699.778 123.636 698.479L129.884 710.746ZM136.97 673.377C135.695 674.812 134.033 675.848 132.184 676.361C130.335 676.875 128.377 676.844 126.545 676.273L122.434 675.022C119.336 674.086 116.048 673.965 112.889 674.672C112.454 673.707 111.781 672.869 110.933 672.235L108.558 670.446L134.461 670.449C135.84 670.449 136.964 671.575 136.964 672.956V673.407L136.97 673.377Z" fill="#276FB3"/>
</g>
<g clip-path="url(#clip1)">
<path fill-rule="evenodd" clip-rule="evenodd" d="M527.971 507.137C530.742 508.215 533.513 509.37 536.207 510.678C527.578 514.14 519.238 518.284 511.267 523.072C508.572 521.685 505.801 520.301 503.031 519.068C511.036 514.45 519.349 510.448 527.971 507.137ZM517.655 503.52C508.733 506.372 500.099 510.057 491.867 514.527C494.484 515.528 497.101 516.529 499.642 517.606C507.582 512.904 515.961 508.986 524.66 505.906C522.35 505.059 520.042 504.212 517.655 503.52Z" fill="#2267AD"/>
<path fill-rule="evenodd" clip-rule="evenodd" d="M582.547 520.455C582.701 520.916 583.087 521.07 583.471 521.07C583.701 521.07 583.933 521.07 584.087 520.916C584.183 520.811 584.238 520.674 584.241 520.531C584.241 520.224 584.011 520.07 583.701 520.07L583.163 519.916C583.009 519.839 582.777 519.839 582.623 519.685C582.469 519.531 582.393 519.301 582.393 519.07C582.393 518.454 582.933 518.224 583.471 518.224C583.933 518.224 584.395 518.454 584.549 518.993L584.165 519.07C584.165 518.761 583.778 518.531 583.395 518.531C583.164 518.531 582.778 518.684 582.778 518.992C582.778 519.377 583.011 519.453 583.318 519.531L583.778 519.607C584.011 519.684 584.241 519.761 584.395 519.837C584.549 520.069 584.625 520.224 584.625 520.531C584.625 520.761 584.549 521.07 584.317 521.224C584.087 521.379 583.777 521.455 583.471 521.455C582.854 521.455 582.471 521.147 582.24 520.531L582.547 520.455ZM585.549 521.379H585.243V518.3H585.779L586.783 520.763L587.627 518.3H588.244V521.379H587.86V518.684L586.857 521.379H586.549L585.549 518.684V521.379ZM546.677 506.753C539.608 503.375 532.301 500.519 524.815 498.208C522.12 498.977 519.503 499.824 516.963 500.671C524.668 502.987 532.183 505.895 539.441 509.369C541.828 508.445 544.212 507.6 546.677 506.753ZM558.147 503.366C550.987 500.21 543.52 497.593 535.898 495.515C533.435 495.976 531.049 496.515 528.664 497.13C536.207 499.363 543.596 502.134 550.679 505.522C553.141 504.751 555.682 503.982 558.147 503.366ZM576.62 509.524C558.529 515.606 541.594 524.304 526.277 535.158C530.125 537.544 533.82 540.007 537.438 542.701C552.012 531.152 568.095 521.647 585.241 514.449C582.428 512.705 579.552 511.062 576.62 509.524ZM564.15 503.674C545.366 508.6 527.74 516.606 511.805 527.228C515.346 528.999 518.887 530.847 522.351 532.848C537.978 522.071 555.298 513.603 573.772 508.06C570.617 506.522 567.46 504.983 564.15 503.674Z" fill="#CD2E29"/>
<path fill-rule="evenodd" clip-rule="evenodd" d="M512.498 466.956C517.039 466.956 519.349 470.343 519.349 474.885C519.349 479.581 517.116 482.891 512.498 482.891C507.803 482.891 505.647 479.581 505.647 474.885C505.647 470.343 507.956 466.956 512.498 466.956ZM512.498 479.811C513.73 479.811 514.268 478.733 514.268 474.885C514.268 471.344 513.883 470.036 512.498 470.036C511.112 470.036 510.727 471.344 510.727 474.885C510.727 478.733 511.266 479.811 512.498 479.811ZM522.506 470.805H520.504V467.417H522.506V465.724C522.506 461.952 524.354 460.566 527.586 460.566C528.51 460.566 529.279 460.72 530.05 460.798V464.57C529.751 464.476 529.44 464.424 529.127 464.416C527.819 464.416 527.356 464.955 527.356 465.878V467.418H530.05V470.806H527.356V482.583H522.506V470.805ZM465.311 471.651C465.311 470.727 464.926 470.112 464.08 470.112C462.849 470.112 462.463 471.19 462.463 472.113L458.152 471.189C458.69 468.264 461.462 467.032 464.233 467.032C467.158 467.032 470.237 468.263 470.237 471.65V480.118C470.237 481.811 470.468 482.35 470.699 482.581H465.618C465.542 482.119 465.464 481.426 465.464 481.195C464.618 482.042 463.155 482.89 461.77 482.89C459.306 482.89 457.458 481.195 457.536 478.425C457.612 474.498 462.077 473.267 465.311 472.883V471.651ZM465.311 475.269C463.618 475.422 462.308 476.115 462.308 478.039C462.308 479.117 462.847 479.656 463.771 479.656C464.31 479.656 464.927 479.271 465.311 478.732V475.269ZM478.012 471.727V482.582H473.086V467.417H477.858L477.936 468.958C479.014 467.88 480.322 467.033 482.246 467.033C484.402 467.033 485.633 468.495 485.633 470.574V482.583H480.707V472.114C480.707 471.267 480.398 470.806 479.551 470.806C479.014 470.805 478.474 471.112 478.012 471.727ZM488.635 461.028H493.562V471.959H493.638L497.257 467.417H502.106L498.027 472.036L502.106 482.582H497.026L494.64 475.961H494.562L493.562 477.117V482.582H488.635V461.028ZM452.302 471.344C454.611 472.114 456.304 474.038 456.304 476.81C456.304 480.504 453.379 482.583 449.222 482.583H440.984V461.028H449.452C453.301 461.028 455.764 463.337 455.764 466.262C455.764 469.11 453.84 470.573 452.3 471.189V471.344H452.302ZM446.221 478.58H448.222C449.453 478.58 450.992 478.041 450.992 475.885C450.992 474.269 449.992 473.192 448.222 473.192H446.221V478.58ZM446.221 469.572H448.068C449.992 469.572 450.762 468.494 450.762 467.262C450.762 465.184 449.377 464.877 448.145 464.877H446.221V469.572ZM629.428 471.651C629.428 470.727 628.966 470.112 628.12 470.112C626.964 470.112 626.58 471.19 626.503 472.113L622.271 471.189C622.809 468.264 625.579 467.032 628.352 467.032C631.276 467.032 634.355 468.263 634.355 471.65V480.118C634.355 481.811 634.585 482.35 634.741 482.581H629.736C629.659 482.119 629.582 481.426 629.582 481.195C628.735 482.042 627.274 482.89 625.81 482.89C623.425 482.89 621.499 481.195 621.577 478.425C621.731 474.498 626.196 473.267 629.428 472.883V471.651ZM629.428 475.269C627.734 475.422 626.426 476.115 626.426 478.039C626.426 479.117 626.964 479.656 627.81 479.656C628.427 479.656 628.964 479.271 629.427 478.732V475.269H629.428ZM579.009 476.039C578.93 477.347 579.316 479.656 581.317 479.656C582.471 479.656 583.471 478.732 583.702 477.578L587.012 478.733C586.782 479.426 585.318 482.891 580.929 482.891C576.233 482.891 574.079 479.118 574.079 474.885C574.079 470.573 576.389 466.956 580.852 466.956C585.548 466.956 587.241 471.036 587.241 475.038V476.039H579.009ZM582.701 473.113C582.701 471.727 582.547 470.034 580.853 470.034C579.469 470.034 578.929 471.727 579.007 473.113H582.701ZM600.408 467.417H605.334V482.582H600.408V467.417ZM600.408 461.028H605.334V465.417H600.408V461.028ZM616.187 473.037C616.187 472.421 616.187 471.651 615.957 471.112C615.726 470.496 615.34 470.034 614.572 470.034C612.955 470.034 612.724 472.035 612.724 475.115C612.724 478.502 613.262 479.656 614.572 479.656C616.264 479.656 616.418 477.886 616.418 476.731L620.267 477.27C619.883 480.965 617.728 482.89 614.186 482.89C609.799 482.89 607.489 479.041 607.489 475.269C607.489 471.112 609.799 466.956 614.416 466.956C619.575 466.956 620.422 471.497 620.422 473.037H616.187ZM538.594 461.028H545.753L550.296 482.582H545.061L544.214 478.194H539.21L538.21 482.582H533.514L538.594 461.028ZM539.903 474.422H543.443L541.905 465.647H541.748L539.903 474.422ZM589.244 467.417H594.017V469.419H594.094C595.094 467.802 596.942 467.033 598.866 467.033V471.96C598.25 471.729 597.712 471.575 596.866 471.575C595.558 471.575 594.711 472.036 594.171 472.73V482.583H589.244V467.417ZM564.38 471.727V482.582H559.531V472.19C559.531 471.344 559.301 470.805 558.377 470.805C557.915 470.805 557.147 471.19 556.76 471.727V482.582H551.911V467.417H556.684L556.76 468.958C557.838 467.957 559.379 467.033 561.149 467.033C562.687 467.033 563.688 467.88 564.151 469.034H564.228C565.074 468.11 566.536 467.033 568.54 467.033C570.618 467.033 572.003 468.341 572.003 470.497V482.583H567.154V472.191C567.154 471.345 566.924 470.806 565.999 470.806C565.382 470.805 564.69 471.344 564.38 471.727ZM636.742 480.811C636.742 479.656 637.663 478.733 638.896 478.733C639.169 478.732 639.44 478.785 639.693 478.889C639.945 478.993 640.175 479.146 640.368 479.34C640.561 479.533 640.714 479.762 640.818 480.015C640.922 480.268 640.975 480.538 640.974 480.811C640.975 481.085 640.922 481.355 640.818 481.608C640.714 481.861 640.561 482.09 640.368 482.283C640.175 482.477 639.945 482.63 639.693 482.734C639.44 482.838 639.169 482.891 638.896 482.89C637.663 482.891 636.742 481.966 636.742 480.811ZM637.126 480.811C637.126 481.734 637.896 482.427 638.896 482.427C639.82 482.427 640.59 481.734 640.59 480.811C640.59 479.887 639.82 479.117 638.896 479.117C637.896 479.117 637.126 479.887 637.126 480.811Z" fill="#2267AD"/>
<path fill-rule="evenodd" clip-rule="evenodd" d="M639.897 481.966H639.513L638.819 480.888H638.432V481.966H638.048V479.656H639.126C639.28 479.656 639.513 479.656 639.666 479.733C639.897 479.886 639.974 480.04 639.974 480.271C639.974 480.733 639.59 480.888 639.204 480.888L639.897 481.966ZM638.82 480.58C639.127 480.58 639.59 480.657 639.59 480.271C639.59 479.964 639.358 479.886 639.05 479.886H638.434V480.579H638.82V480.58Z" fill="#2267AD"/>
</g>
<g clip-path="url(#clip2)">
<path d="M166.529 477.022H176.948V490.283H177.053C178.634 487.967 181.421 486.6 184.526 486.6C193.682 486.6 196.156 494.388 196.156 500.808C196.156 507.648 192.419 515.279 184.683 515.279C179.579 515.279 178.001 513.332 176.685 511.594H176.581V514.595H166.529V477.022ZM181.159 494.179C177.422 494.179 176.581 497.703 176.581 500.915C176.581 504.178 177.422 507.702 181.159 507.702C184.895 507.702 185.737 504.178 185.737 500.915C185.737 497.703 184.895 494.179 181.159 494.179ZM225.205 508.492C225.205 510.544 225.311 512.861 226.47 514.596H215.838C215.577 513.861 215.42 512.753 215.47 512.018H215.366C213.153 514.543 209.945 515.279 206.577 515.279C201.314 515.279 196.948 512.754 196.948 507.017C196.948 498.389 207.05 498.704 212.366 497.704C213.787 497.441 215.207 497.02 215.207 495.282C215.207 493.441 213.469 492.757 211.788 492.757C208.576 492.757 207.946 494.387 207.893 495.545H198.209C198.526 487.863 205.787 486.6 212.261 486.6C225.311 486.6 225.205 492.02 225.205 497.283V508.492H225.205ZM215.207 502.335C213.944 502.967 212.524 503.335 211.105 503.65C208.789 504.177 207.577 504.755 207.577 506.597C207.577 507.86 208.946 509.123 210.84 509.123C213.209 509.123 215.049 507.701 215.207 504.859V502.335H215.207ZM228.939 487.284H238.99V490.758H239.094C241.043 488.021 243.829 486.599 247.986 486.599C252.88 486.599 257.356 489.598 257.356 495.861V514.594H246.934V500.283C246.934 497.124 246.567 494.914 243.517 494.914C241.724 494.914 239.357 495.81 239.357 500.177V514.595H228.939V487.284ZM261.041 477.023H271.459V495.179L278.092 487.284H289.879L280.144 497.598L291.406 514.595H278.879L273.302 504.703L271.459 506.701V514.595H261.041V477.023ZM296.034 510.876C296.43 511.274 296.626 511.753 296.626 512.314C296.626 512.878 296.43 513.362 296.034 513.761C295.642 514.159 295.161 514.358 294.598 514.358C294.034 514.358 293.555 514.158 293.163 513.761C292.769 513.362 292.576 512.878 292.576 512.314C292.576 511.753 292.769 511.274 293.164 510.876C293.562 510.479 294.04 510.279 294.598 510.279C295.159 510.279 295.639 510.479 296.034 510.876ZM296.269 510.648C295.807 510.191 295.252 509.961 294.598 509.961C293.948 509.961 293.397 510.192 292.936 510.648C292.476 511.11 292.247 511.664 292.247 512.314C292.247 512.969 292.474 513.527 292.93 513.988C293.388 514.451 293.946 514.681 294.598 514.681C295.252 514.681 295.808 514.451 296.27 513.988C296.73 513.526 296.962 512.968 296.962 512.314C296.961 511.663 296.73 511.109 296.269 510.648ZM294.948 512.205C294.852 512.241 294.707 512.263 294.514 512.263H294.104V511.326H294.493C294.744 511.326 294.929 511.356 295.044 511.42C295.159 511.485 295.215 511.612 295.215 511.799C295.215 511.999 295.125 512.134 294.948 512.205ZM294.104 513.603V512.581H294.464C294.703 512.581 294.875 512.608 294.971 512.664C295.133 512.762 295.214 512.959 295.214 513.258V513.466L295.224 513.547C295.227 513.559 295.23 513.568 295.23 513.577L295.236 513.604H295.665L295.648 513.572C295.634 513.528 295.626 513.482 295.625 513.435C295.621 513.371 295.619 513.307 295.619 513.243V513.053C295.619 512.923 295.571 512.789 295.476 512.651C295.382 512.515 295.234 512.43 295.031 512.399C295.193 512.373 295.318 512.331 295.408 512.274C295.578 512.165 295.66 511.993 295.66 511.763C295.66 511.436 295.528 511.217 295.26 511.107C295.111 511.045 294.875 511.014 294.553 511.014H293.647V513.603H294.104Z" fill="#18488A"/>
<path d="M97.0391 477L97.0721 515.816L129.948 527L162.825 515.816V477H97.0391Z" fill="#D73749"/>
<path d="M129.896 514.594H119.845V511.121H119.74C117.793 513.861 115.005 515.279 110.847 515.279C105.953 515.279 101.48 512.28 101.48 506.018V487.284H111.9V501.596C111.9 504.755 112.268 506.964 115.321 506.964C117.109 506.964 119.477 506.068 119.477 501.702V487.284H129.896V514.594ZM149.318 495.229C149.263 494.336 148.792 493.652 148.107 493.176C147.475 492.65 146.634 492.388 145.791 492.388C144.317 492.388 142.632 492.705 142.632 494.493C142.632 495.281 143.265 495.649 143.843 495.913C145.58 496.652 149.526 496.861 153.001 498.018C156.472 499.126 159.526 501.175 159.526 505.649C159.526 513.227 152.264 515.279 145.634 515.279C139.213 515.279 132.161 512.7 132.004 505.649H141.949C142.001 506.597 142.424 507.385 143.212 508.071C143.738 508.543 144.738 508.859 146.002 508.859C147.37 508.859 149.526 508.333 149.526 506.755C149.526 505.175 148.633 504.703 143.792 503.86C135.846 502.493 132.636 499.967 132.636 495.282C132.636 488.39 140.056 486.6 145.528 486.6C151.423 486.6 158.526 488.232 158.788 495.23H149.318V495.229Z" fill="white"/>
</g>
<g clip-path="url(#clip3)">
<path d="M461.39 290.025H457.474V309.233C457.474 316.447 454.934 318.617 448.496 318.617C443.099 318.599 441 316.518 441 313.819C441 313.202 441.229 311.209 443.205 311.209C445.162 311.209 445.286 312.532 445.286 314.684C445.286 315.583 445.657 317.347 447.967 317.347C451.636 317.347 453.276 315.671 453.276 309.745V290.025H449.502V289.002H461.39V290.025ZM462.184 314.031C461.531 314.031 460.967 314.242 460.526 314.701C460.067 315.159 459.838 315.706 459.838 316.359C459.838 317.011 460.067 317.558 460.526 317.982C460.984 318.44 461.531 318.652 462.184 318.652C462.836 318.652 463.383 318.441 463.859 317.982C464.318 317.558 464.547 317.011 464.547 316.359C464.547 315.689 464.318 315.159 463.859 314.701C463.401 314.242 462.854 314.031 462.184 314.031ZM487.671 314.031C487.018 314.031 486.472 314.242 486.013 314.701C485.555 315.16 485.342 315.706 485.342 316.359C485.342 317.011 485.554 317.558 486.013 317.982C486.489 318.44 487.036 318.652 487.671 318.652C488.324 318.652 488.888 318.441 489.346 317.982C489.805 317.558 490.034 317.011 490.034 316.359C490.034 315.689 489.805 315.159 489.346 314.701C488.888 314.242 488.324 314.031 487.671 314.031ZM480.28 289.002C489.399 289.002 490.952 292.441 490.952 297.345C490.952 302.195 488.429 305.741 479.416 305.741L476.312 305.758V313.078C476.312 313.977 476.418 314.419 476.629 314.912C476.858 315.494 477.353 315.935 478.093 316.235C478.622 316.429 479.434 316.535 480.492 316.57V317.875H467.969V316.57C469.027 316.535 469.821 316.429 470.35 316.2C471.056 315.9 471.532 315.459 471.744 314.877C471.938 314.365 472.043 314.277 472.043 312.513V290.025H468.622V289.019L480.28 289.002ZM478.675 304.63C484.178 304.63 486.912 302.249 486.912 297.592C486.912 292.953 485.395 290.113 478.446 290.113L476.294 290.148V304.647H478.675V304.63ZM526.757 314.807C526.598 314.295 526.51 313.66 526.51 312.849V290.025H529.526V289.002H522.171C522.082 289.267 513.316 311.068 513.316 311.068C513.297 311.103 513.269 311.133 513.235 311.154C513.201 311.176 513.162 311.189 513.122 311.191C513.016 311.191 512.946 311.138 512.911 311.068C512.911 311.068 503.598 289.267 503.492 289.002H495.325V290.007H498.712V311.949C498.712 311.949 498.642 313.978 498.642 313.995C498.589 314.525 498.412 315.001 498.148 315.389C497.866 315.795 497.425 316.112 496.842 316.324C496.454 316.447 495.873 316.535 495.167 316.553V317.858H503.475V316.553C502.787 316.518 502.487 316.447 502.081 316.324C501.481 316.13 501.04 315.83 500.741 315.407C500.476 315.018 500.299 314.542 500.246 313.978C500.246 313.978 500.158 311.949 500.158 311.932V293.041H500.634C500.634 293.041 511.147 317.593 511.27 317.876H512.152L522.118 293.323H522.365V312.849C522.365 313.695 522.276 314.366 522.118 314.877C521.924 315.477 521.5 315.918 520.883 316.218C520.425 316.429 519.737 316.535 518.82 316.57V317.876H530.179V316.57C529.261 316.518 528.556 316.412 528.08 316.2C527.375 315.865 526.951 315.407 526.757 314.807ZM542.032 296.728C547.641 296.728 551.803 300.555 551.803 307.575C551.803 316.588 545.312 318.722 541.908 318.722C540.18 318.722 532.19 318.052 532.19 307.769C532.172 300.749 535.982 296.728 542.032 296.728ZM541.961 317.453C546.036 317.453 547.288 314.913 547.288 307.522C547.288 302.39 547.27 298.015 541.961 298.015C537.058 298.015 536.705 302.248 536.705 307.892C536.705 315.177 537.393 317.453 541.961 317.453ZM567.66 297.045C564.044 297.045 562.792 299.179 561.786 301.367C561.786 301.367 561.522 301.349 561.504 301.349C561.487 301.367 560.781 297.222 560.781 297.222H553.902V298.315H557.677V312.532C557.677 313.942 557.606 315.036 557.236 315.636C556.812 316.324 555.948 316.589 554.502 316.589H553.884V317.894H565.649V316.589H565.014C563.48 316.589 562.686 316.254 562.28 315.583C561.91 315.001 561.734 313.996 561.734 312.532V305.159C561.734 302.672 563.727 299.814 565.984 299.814C568.348 299.814 568.418 303.201 570.958 301.984C572.758 301.137 572.352 297.045 567.66 297.045ZM614.49 315.759C615.23 315.759 616.13 314.983 616.324 313.519H617.029C616.835 316.871 615.195 318.211 612.461 318.211C610.027 318.211 608.687 316.482 608.457 315.054C607.029 316.571 604.912 318.476 601.56 318.476C598.544 318.476 596.199 316.147 596.058 313.502C595.652 306.728 604.559 306.006 608.316 305.67V302.213C608.316 300.961 608.034 299.956 607.487 299.197C606.905 298.403 605.864 298.015 604.383 298.015C603.113 298.015 602.178 298.333 601.578 298.95C601.014 299.55 600.767 300.202 600.591 301.331C600.344 302.866 599.691 303.465 598.527 303.465C598.016 303.465 597.61 303.324 597.24 303.007C596.887 302.707 596.711 302.266 596.711 301.631C596.711 300.273 597.24 299.338 598.58 298.315C599.956 297.257 602.108 296.728 605.018 296.728C608.052 296.728 610.151 297.292 611.227 298.386C612.321 299.479 612.621 300.749 612.621 302.601V311.244L612.691 313.89C612.832 315.072 613.22 315.759 614.49 315.759ZM608.334 306.94C605.441 306.94 600.185 308.863 600.185 312.708C600.185 313.907 600.608 316.306 603.501 316.306C604.629 316.306 606.164 315.653 608.175 313.819L608.263 313.731C608.334 313.678 608.334 313.642 608.334 313.572V306.94ZM638.513 315.636C638.002 315.001 637.895 313.608 637.895 312.549V303.201C637.895 301.843 637.719 300.697 637.208 299.744C636.696 298.827 635.973 298.122 635.074 297.663C634.156 297.205 633.116 296.975 631.969 296.975C627.842 296.975 626.043 299.357 625.232 300.961H624.914L624.191 297.222H617.788V298.298H620.998V312.532C620.998 313.626 620.91 314.42 620.751 314.949C620.575 315.584 620.169 316.007 619.569 316.272C619.181 316.43 618.582 316.537 617.806 316.572V317.877H627.965V316.572C626.942 316.483 626.255 316.219 625.884 315.69C625.478 315.125 625.302 314.173 625.302 312.762V307.312C625.302 305.036 625.284 302.831 626.06 301.456C626.907 299.974 628.442 299.145 630.152 299.145C631.705 299.145 632.534 299.639 633.027 300.627C633.575 301.738 633.698 303.802 633.698 305.442V312.197C633.698 313.326 633.663 314.138 633.592 314.667C633.469 315.284 633.327 315.796 632.834 316.113C632.481 316.36 631.934 316.519 631.211 316.572V317.859H641V316.553C639.748 316.5 639.007 316.289 638.513 315.636ZM592.583 295.899C593.694 295.546 594.611 295.81 594.911 297.063C595.052 297.663 594.929 298.386 594.576 299.021C594.241 299.656 593.659 300.114 592.742 300.396C591.948 300.661 591.101 300.661 590.167 300.449C590.608 301.402 590.978 302.742 590.978 304.312C590.978 309.78 586.798 311.42 582.335 312.108C577.785 312.813 576.621 313.36 576.621 314.789C576.621 315.759 577.22 316.324 580.377 316.324C586.904 316.641 589.814 316.271 591.86 319.075C592.495 319.975 592.812 321.174 592.812 322.674C592.812 323.767 592.53 324.913 591.913 326.025C591.331 327.136 590.237 328.106 588.667 328.9C587.097 329.693 584.91 330.117 582.229 330.117C580.201 330.117 578.737 329.958 576.515 329.288C575.068 328.865 573.163 327.701 573.163 325.249C573.163 324.508 573.287 323.891 573.622 323.362C573.992 322.797 574.751 322.462 575.386 322.568C576.514 322.762 576.849 323.785 576.656 324.755C576.426 325.708 576.638 327.048 577.732 327.718C579.213 328.635 580.836 328.847 582.829 328.847C585.158 328.847 587.027 328.441 588.403 327.683C589.885 326.854 590.608 325.742 590.608 324.367C590.608 323.361 590.255 322.585 589.567 322.056C588.914 321.58 588.015 321.262 586.904 321.122C585.863 320.998 584.258 320.91 582.018 320.892C579.443 320.84 577.397 320.54 575.933 319.94C574.61 319.393 573.587 318.423 573.587 316.624C573.587 313.643 576.374 312.726 579.513 312.091C579.708 312.056 579.708 311.791 579.478 311.756C575.792 310.98 574.116 308.863 574.116 304.524C574.116 300.803 576.639 296.728 582.371 296.728C585.916 296.728 587.945 297.928 589.003 298.898C589.321 299.145 590.044 299.127 590.467 299.004C590.89 298.862 591.208 298.386 591.366 297.54C591.578 296.622 591.965 296.093 592.583 295.899ZM582.476 310.944C584.981 310.944 586.78 310.186 586.78 304.453C586.78 300.449 585.81 297.839 582.476 297.839C579.619 297.839 578.278 300.696 578.278 304.524C578.261 309.974 579.795 310.944 582.476 310.944Z" fill="#321C0F"/>
</g>
<g clip-path="url(#clip4)">
<path fill-rule="evenodd" clip-rule="evenodd" d="M259.703 290.973H297.021V328.292H259.703V290.973ZM264.916 296.115V323.075H291.803V296.115H264.916Z" fill="#393B8F"/>
<path fill-rule="evenodd" clip-rule="evenodd" d="M268.077 319.183L281.519 299.347L288.793 299.2L274.907 319.183H268.077ZM96.9805 312.939H103.445C105.502 312.939 107.044 313.747 108.219 315.362C109.175 316.759 109.689 318.449 109.689 320.506C109.689 322.489 109.175 324.252 108.073 325.721C106.898 327.263 105.355 328.072 103.445 328.072H96.9805V312.939ZM100.14 315.656V325.354H103.078C104.254 325.354 105.063 324.838 105.65 323.884C106.165 323.003 106.385 321.9 106.385 320.505C106.385 319.329 106.165 318.226 105.65 317.345C105.063 316.169 104.181 315.656 103.078 315.656H100.14ZM118.799 324.545H121.737C121.517 325.794 120.856 326.675 119.828 327.411C118.946 327.998 117.844 328.292 116.523 328.292C114.98 328.292 113.731 327.703 112.776 326.603C111.747 325.5 111.233 324.103 111.233 322.341C111.233 320.8 111.747 319.477 112.702 318.448C113.731 317.418 114.98 316.831 116.523 316.831C118.727 316.831 120.196 317.639 121.004 319.182C121.298 319.695 121.518 320.356 121.665 321.018C121.811 321.754 121.885 322.488 121.885 323.297H114.244C114.244 323.884 114.466 324.397 114.832 324.911C115.347 325.5 115.861 325.794 116.523 325.794C117.036 325.794 117.55 325.646 117.918 325.5C118.359 325.281 118.653 324.986 118.799 324.545ZM114.244 321.386H118.799C118.799 320.873 118.579 320.356 118.138 319.991C117.624 319.55 117.11 319.329 116.523 319.329C115.935 319.329 115.42 319.55 114.98 319.991C114.752 320.145 114.566 320.353 114.438 320.596C114.31 320.84 114.243 321.111 114.244 321.386ZM123.722 317.052H126.66V324.324C126.66 324.692 126.88 325.06 127.175 325.354C127.541 325.646 127.983 325.794 128.423 325.794C129.01 325.794 129.526 325.646 129.965 325.281C130.407 324.838 130.627 324.398 130.627 323.884V317.052H133.493V328.071H130.627V326.675C129.746 327.776 128.644 328.292 127.322 328.292C126.458 328.296 125.613 328.04 124.897 327.556C124.161 327.043 123.722 326.308 123.722 325.426V317.052ZM139.295 313.893V317.052H140.986V319.109H139.295V324.765C139.295 324.986 139.442 325.205 139.589 325.354C139.737 325.5 139.956 325.573 140.25 325.573H140.692C140.838 325.5 140.912 325.5 140.986 325.5V328.071C140.618 328.146 140.25 328.219 140.03 328.219C139.737 328.292 139.369 328.292 138.855 328.292C138.119 328.292 137.606 328.071 137.092 327.556C136.651 327.116 136.431 326.602 136.431 325.94V319.108H134.961V317.051H136.431V315.581L139.295 313.893ZM142.235 324.324H145.173C145.173 324.837 145.32 325.281 145.76 325.573C146.128 325.867 146.642 326.013 147.23 326.013C147.744 326.013 148.185 325.941 148.479 325.794C148.847 325.646 149.067 325.281 149.067 324.837C149.067 324.25 148.553 323.81 147.377 323.516C145.467 323.003 144.365 322.707 144.218 322.561C143.043 322.048 142.455 321.312 142.455 320.285C142.455 319.255 142.895 318.447 143.704 317.785C144.512 317.125 145.614 316.83 146.936 316.83C148.259 316.83 149.286 317.124 150.168 317.711C151.124 318.373 151.637 319.254 151.637 320.503H148.919C148.846 320.062 148.625 319.694 148.258 319.475C147.859 319.233 147.401 319.106 146.935 319.107C146.494 319.107 146.128 319.254 145.833 319.399C145.54 319.621 145.392 319.84 145.392 320.208C145.392 320.648 145.98 321.016 147.083 321.237C148.772 321.529 149.874 321.75 150.241 321.971C151.417 322.486 152.004 323.368 152.004 324.617C152.004 325.866 151.49 326.821 150.462 327.409C149.58 327.996 148.552 328.29 147.23 328.29C145.76 328.29 144.585 327.922 143.63 327.187C142.675 326.528 142.235 325.573 142.235 324.324ZM158.837 328.292C157.294 328.292 156.045 327.703 155.017 326.603C154.061 325.5 153.548 324.103 153.548 322.341C153.548 320.873 154.061 319.551 155.09 318.448C156.119 317.418 157.367 316.831 158.837 316.831C160.159 316.831 161.334 317.271 162.289 318.08C163.317 318.815 163.832 319.842 163.832 321.018H160.893C160.893 320.505 160.672 320.137 160.305 319.842C159.864 319.476 159.424 319.329 158.836 319.329C158.101 319.329 157.587 319.623 157.146 320.21C156.778 320.723 156.558 321.459 156.558 322.34C156.558 323.369 156.778 324.178 157.146 324.837C157.587 325.426 158.101 325.794 158.836 325.794C159.35 325.794 159.864 325.573 160.231 325.205C160.672 324.837 160.893 324.472 160.893 323.956H163.832C163.832 325.205 163.318 326.308 162.289 327.116C161.262 327.851 160.159 328.292 158.837 328.292ZM165.743 312.939H168.682V318.226C169.049 317.713 169.563 317.345 170.151 317.126C170.738 316.977 171.4 316.832 172.061 316.832C173.017 316.832 173.898 317.126 174.632 317.713C175.367 318.226 175.734 319.035 175.734 319.917V328.072H172.869V321.166C172.869 320.579 172.648 320.138 172.355 319.844C172.062 319.552 171.62 319.403 171.107 319.403C170.519 319.403 169.931 319.552 169.417 319.917C168.976 320.287 168.682 320.725 168.682 321.314V328.072H165.743V312.939ZM185.21 324.545H188.076C187.856 325.794 187.195 326.675 186.165 327.411C185.284 327.998 184.182 328.292 182.933 328.292C181.391 328.292 180.141 327.703 179.112 326.603C178.084 325.5 177.643 324.103 177.643 322.341C177.643 320.8 178.084 319.477 179.112 318.448C180.067 317.418 181.39 316.831 182.933 316.831C185.064 316.831 186.533 317.639 187.341 319.182C187.708 319.695 187.928 320.356 188.076 321.018C188.222 321.754 188.222 322.488 188.222 323.297H180.583C180.583 323.884 180.803 324.397 181.243 324.911C181.684 325.5 182.272 325.794 182.933 325.794C183.447 325.794 183.888 325.646 184.329 325.5C184.696 325.281 184.99 324.986 185.21 324.545ZM180.582 321.386H185.209C185.209 320.873 184.915 320.356 184.475 319.991C184.034 319.55 183.52 319.329 182.932 319.329C182.345 319.329 181.757 319.55 181.315 319.991C180.876 320.356 180.582 320.873 180.582 321.386ZM195.494 312.939H203.208C204.31 312.939 205.265 313.307 205.999 314.113C206.808 314.921 207.248 315.877 207.248 317.053C207.248 317.713 207.1 318.3 206.808 318.889C206.45 319.458 205.941 319.915 205.337 320.211C206.073 320.505 206.659 321.019 207.175 321.608C207.616 322.268 207.835 322.93 207.835 323.665C207.835 324.912 207.395 325.942 206.586 326.75C205.778 327.631 204.897 328.072 203.721 328.072H195.494V312.939ZM198.58 315.656V318.888H202.327C202.84 318.888 203.281 318.742 203.648 318.448C204.015 318.154 204.161 317.786 204.161 317.345C204.161 316.832 204.015 316.464 203.648 316.096C203.3 315.802 202.855 315.645 202.399 315.656H198.58ZM198.58 321.607V325.354H202.546C203.135 325.354 203.575 325.205 204.016 324.765C204.384 324.397 204.605 323.956 204.605 323.443C204.605 322.93 204.384 322.488 204.016 322.121C203.575 321.754 203.135 321.608 202.546 321.608H198.58V321.607ZM212.979 320.356H210.039C210.039 319.182 210.554 318.299 211.509 317.639C212.39 317.126 213.42 316.831 214.669 316.831C216.358 316.831 217.607 317.125 218.415 317.639C219.077 318.152 219.443 318.742 219.443 319.55V326.308C219.443 326.969 219.664 327.556 220.105 328.07H217.092C216.945 327.85 216.8 327.702 216.726 327.483C216.629 327.27 216.555 327.049 216.505 326.821C216.137 327.334 215.623 327.702 215.034 327.923C214.521 328.144 213.86 328.291 213.052 328.291C212.022 328.291 211.214 327.923 210.627 327.334C209.965 326.674 209.597 325.866 209.597 324.985C209.597 324.102 209.891 323.295 210.408 322.706C210.921 322.119 211.654 321.752 212.611 321.606C214.301 321.312 215.109 321.163 215.182 321.163C216.063 320.944 216.503 320.65 216.503 320.355C216.503 319.915 216.357 319.549 215.99 319.4C215.696 319.181 215.255 319.108 214.669 319.108C214.155 319.108 213.788 319.255 213.42 319.4C213.126 319.624 212.979 319.916 212.979 320.356ZM216.505 324.324V322.635C215.55 322.781 214.815 323.003 214.228 323.148C213.126 323.442 212.611 323.956 212.611 324.618C212.611 325.131 212.684 325.426 212.979 325.646C213.271 325.867 213.639 325.94 214.155 325.94C214.669 325.94 215.183 325.793 215.623 325.499C216.064 325.281 216.358 324.838 216.505 324.324ZM224.954 317.052V318.299C225.336 317.838 225.811 317.463 226.349 317.199C227.011 316.977 227.598 316.831 228.111 316.831C229.141 316.831 229.949 317.125 230.681 317.567C231.417 318.154 231.858 318.888 231.858 319.77V328.072H228.919V320.8C228.919 320.357 228.773 319.992 228.479 319.77C228.111 319.478 227.743 319.402 227.303 319.402C226.716 319.402 226.275 319.477 225.907 319.696C225.517 319.994 225.191 320.37 224.953 320.799V328.071H222.014V317.052H224.954ZM234.21 312.939H237.148V321.019L240.527 317.053H244.054L240.454 321.24L244.422 328.072H240.969L238.471 323.371L237.149 324.767V328.073H234.211V312.939H234.21Z" fill="#393B8F"/>
</g>
<g clip-path="url(#clip5)">
<path d="M441.875 129.146C441.2 128.739 440.907 127.733 441.213 126.919C441.276 126.74 442.282 125.646 443.44 124.5L445.54 122.4H443.873C441.989 122.4 441.62 122.286 441.289 121.586C440.907 120.771 441.111 119.766 441.785 119.244C442.116 118.977 442.269 118.964 444.598 118.964C447.042 118.964 447.042 118.964 447.437 119.295C447.653 119.473 447.971 119.919 448.162 120.275C448.595 121.166 449.409 121.98 450.186 122.337C450.898 122.655 451.306 123.05 451.509 123.584C451.586 123.788 451.649 124.831 451.649 125.939C451.649 127.593 451.611 128.013 451.42 128.382C450.975 129.286 449.918 129.642 448.913 129.222C448.226 128.93 448.086 128.51 448.086 126.639V125.01L446.024 127.071C444.878 128.191 443.822 129.184 443.669 129.261C443.224 129.49 442.345 129.426 441.875 129.146ZM453.215 129.21C452.986 129.108 452.68 128.84 452.54 128.611C452.311 128.23 452.286 127.975 452.286 125.9C452.286 123.177 452.349 123.011 453.533 122.413C454.475 121.942 455.264 121.153 455.735 120.211C456.333 119.015 456.499 118.964 459.26 118.964C461.831 118.964 462.099 119.028 462.519 119.753C462.799 120.211 462.812 121.102 462.544 121.611C462.175 122.324 461.946 122.4 460.062 122.4H458.344L460.521 124.602C462.837 126.957 462.977 127.173 462.722 128.115C462.531 128.828 461.971 129.299 461.233 129.362C460.902 129.401 460.495 129.375 460.33 129.311C460.177 129.248 459.095 128.268 457.949 127.122L455.849 125.035V126.524C455.849 128.242 455.697 128.751 455.06 129.146C454.577 129.439 453.8 129.464 453.215 129.21ZM495.407 128.37C493.943 128.153 493.065 127.351 492.772 125.951C492.683 125.57 492.632 123.558 492.632 121V116.673H490.087V113.746H492.505V111.518C492.505 110.296 492.543 109.291 492.581 109.291C492.619 109.291 493.408 109.087 494.338 108.845C495.267 108.604 496.094 108.4 496.183 108.4C496.285 108.4 496.323 109.164 496.323 111.073V113.746H499.887V116.673H496.298L496.348 120.402C496.399 124.411 496.45 124.729 497.112 125.086C497.405 125.239 498.601 125.264 499.403 125.137L499.887 125.048V128.102L499.543 128.179C498.029 128.497 496.679 128.56 495.407 128.37ZM528.46 128.37C525.596 127.95 523.764 126.32 523.191 123.673C522.911 122.4 522.873 120.529 523.102 119.218C523.535 116.762 524.795 115.006 526.818 114.038C527.735 113.606 527.9 113.567 529.262 113.517C530.166 113.478 530.993 113.517 531.438 113.618C533.564 114.077 535.104 115.718 535.588 118.035C535.779 118.913 535.842 120.822 535.702 121.357L535.626 121.637H526.716L526.793 122.248C527.022 123.813 527.607 124.666 528.829 125.213C529.988 125.722 532.648 125.531 534.34 124.806L534.875 124.577L534.939 124.92C534.977 125.111 535.066 125.773 535.155 126.384C535.346 127.708 535.422 127.619 533.908 127.988C532.062 128.459 530.026 128.599 528.46 128.37ZM532.011 118.429C531.82 117.093 530.891 116.291 529.555 116.291C528.447 116.291 527.633 116.851 527.137 117.946C526.653 119.015 526.526 118.964 529.478 118.964H532.088L532.011 118.429ZM555.901 128.37C555.303 128.306 554.819 128.242 554.806 128.217C554.793 128.204 554.819 127.491 554.844 126.626C554.895 125.239 554.921 125.06 555.112 125.137C555.684 125.366 557.81 125.608 558.446 125.531C559.668 125.379 560.445 124.691 560.292 123.89C560.165 123.215 559.706 122.859 558.217 122.273C557.466 121.98 556.588 121.586 556.295 121.408C554.17 120.186 553.89 117.029 555.735 115.107C556.283 114.535 557.683 113.835 558.713 113.618C559.363 113.466 563.206 113.491 563.308 113.631C563.321 113.657 563.321 114.357 563.295 115.197L563.245 116.698L562.85 116.622C560.686 116.177 559.312 116.291 558.752 116.94C558.141 117.678 558.434 118.506 559.477 119.002C559.846 119.18 560.712 119.562 561.399 119.855C562.761 120.44 563.537 121.077 563.97 121.955C564.174 122.362 564.225 122.731 564.225 123.737C564.225 124.908 564.199 125.06 563.856 125.684C563.168 126.931 561.921 127.81 560.317 128.191C559.274 128.446 557.237 128.522 555.901 128.37ZM590.634 128.331C589.145 128 588.292 127.25 587.898 125.926C587.223 123.635 588.394 121.37 590.8 120.313C591.767 119.88 593.447 119.499 594.809 119.397L595.98 119.308V118.595C595.98 117.704 595.674 117.08 595.089 116.737C594.707 116.52 594.427 116.482 593.18 116.482C591.614 116.495 590.736 116.673 589.591 117.246C589.247 117.424 588.98 117.538 588.967 117.526C588.891 117.22 588.649 114.42 588.712 114.357C588.853 114.217 590.545 113.758 591.525 113.606C592.085 113.517 593.269 113.491 594.389 113.517C596.12 113.567 596.375 113.606 597.189 113.937C598.614 114.522 599.416 115.489 599.671 116.953C599.735 117.322 599.811 120.02 599.824 122.948L599.862 128.255H596.362V126.193L595.776 126.842C595.089 127.606 593.956 128.204 592.862 128.382C591.907 128.535 591.525 128.535 590.634 128.331ZM594.02 125.34C595.114 124.844 595.98 123.495 595.98 122.26C595.98 121.764 595.98 121.751 595.573 121.815C595.344 121.853 594.822 121.917 594.402 121.955C592.709 122.146 591.665 122.731 591.385 123.673C591.258 124.081 591.271 124.233 591.474 124.653C591.907 125.519 592.976 125.811 594.02 125.34ZM473.172 128.255C469.862 127.568 467.699 125.493 466.922 122.26C466.426 120.211 466.464 117.335 466.999 115.209C467.101 114.789 467.444 113.911 467.762 113.262C468.768 111.187 470.588 109.66 472.968 108.909C474.228 108.515 477.27 108.413 479.141 108.705C479.866 108.82 480.477 108.935 480.503 108.96C480.541 108.998 480.172 112.384 480.121 112.435C480.108 112.447 479.548 112.333 478.886 112.193C477.104 111.824 474.903 111.9 473.897 112.371C472.383 113.071 471.441 114.369 470.995 116.38C470.257 119.702 471.25 123.024 473.337 124.246C474.673 125.022 477.028 125.137 479.141 124.526C479.739 124.348 480.235 124.208 480.235 124.22C480.248 124.233 480.35 124.984 480.465 125.888C480.643 127.224 480.655 127.555 480.515 127.631C480.426 127.695 479.841 127.861 479.205 128.026C478.288 128.242 477.614 128.306 475.895 128.331C474.712 128.357 473.477 128.319 473.172 128.255ZM483.85 113.746H487.668V128.255H483.85V113.746ZM503.196 113.746H507.014V128.255H503.196V113.746ZM510.196 126.893C510.196 125.379 510.132 125.57 511.303 123.864C511.647 123.38 512.589 122.006 513.391 120.809C514.205 119.626 515.109 118.302 515.402 117.882L515.936 117.118L513.136 117.08L510.323 117.055V113.746H520.505V116.546L519.576 117.908C518.202 119.918 516.483 122.451 515.707 123.597C515.338 124.144 515.033 124.615 515.033 124.64C515.033 124.666 516.292 124.691 517.833 124.691H520.633V128.255H510.196V126.893ZM538.833 113.746H542.435L542.346 114.84L542.27 115.922L542.957 115.184C543.415 114.687 543.949 114.28 544.522 114C545.375 113.555 545.4 113.555 547.042 113.555C548.659 113.555 548.71 113.567 549.397 113.949C550.224 114.42 550.835 115.158 551.141 116.075C551.319 116.647 551.357 117.5 551.408 122.502L551.459 128.255H547.615V123.164C547.615 117.628 547.602 117.488 546.915 116.953C546.495 116.622 545.54 116.571 544.904 116.851C544.408 117.068 543.593 117.844 543.326 118.366C542.639 119.702 542.613 119.931 542.549 124.22L542.499 128.255H538.833V113.746ZM572.179 118.48V108.693L573.045 108.616C574.725 108.451 580.121 108.515 581.127 108.705C582.909 109.049 584.385 110.029 584.958 111.251C585.518 112.435 585.518 114.166 584.958 115.337C584.64 116.024 583.672 117.029 582.947 117.449C582.59 117.653 582.4 117.818 582.527 117.818C582.972 117.818 583.965 118.391 584.55 118.989C585.912 120.389 586.154 122.999 585.085 124.946C584.639 125.76 583.494 126.855 582.629 127.288C581.114 128.064 580.376 128.166 576.099 128.229L572.179 128.28V118.48H572.179ZM580.096 124.666C581.687 123.928 582.158 122.019 581.076 120.708C580.49 119.995 579.574 119.702 577.627 119.626L575.997 119.562V122.248C575.997 124.271 576.036 124.946 576.163 124.997C576.239 125.035 577.003 125.048 577.843 125.035C579.192 125.01 579.459 124.959 580.096 124.666ZM579.447 116.431C580.185 116.202 581.025 115.375 581.216 114.7C581.407 114.013 581.305 113.224 580.949 112.651C580.478 111.875 578.836 111.467 576.939 111.646L575.998 111.735V116.698L577.499 116.635C578.314 116.609 579.192 116.507 579.447 116.431ZM603.489 113.746H607.091L607.015 114.904L606.926 116.075L607.295 115.566C607.778 114.904 608.465 114.344 609.344 113.911C609.993 113.58 610.158 113.567 611.698 113.555C613.086 113.555 613.429 113.593 613.862 113.809C614.651 114.204 615.389 114.993 615.72 115.846C616.026 116.609 616.026 116.635 616.064 122.439L616.102 128.255H612.271V123.139C612.271 118.34 612.246 117.971 612.017 117.462C611.864 117.131 611.648 116.877 611.444 116.8C610.909 116.597 610.006 116.647 609.484 116.927C608.809 117.271 608.007 118.213 607.664 119.078C607.384 119.766 607.371 119.969 607.333 124.029L607.295 128.255H603.489V113.746ZM619.78 107H623.471L623.497 113.287L623.535 119.588L624.069 118.798C624.54 118.124 625.559 116.66 627.188 114.357L627.608 113.758L629.937 113.746H632.279L631.846 114.306C631.617 114.624 630.93 115.515 630.319 116.317C627.875 119.498 627.29 120.288 627.29 120.377C627.29 120.427 627.544 120.822 627.85 121.267C628.168 121.713 628.791 122.629 629.25 123.291C629.708 123.953 630.408 124.958 630.802 125.518C631.197 126.078 631.706 126.829 631.948 127.199C632.177 127.555 632.432 127.886 632.508 127.937C632.928 128.191 632.457 128.255 630.255 128.229L627.888 128.191L625.711 124.742L623.535 121.28L623.497 124.767L623.471 128.255H619.78V107ZM636.568 117.971C636.135 117.755 635.741 117.411 635.499 117.068C635.168 116.597 635.117 116.393 635.079 115.54C635.015 114.344 635.27 113.746 636.11 113.058C637.065 112.282 638.376 112.167 639.445 112.791C640.476 113.389 640.908 114.153 640.908 115.4C640.908 117.666 638.592 119.028 636.568 117.971ZM638.694 117.755C639.05 117.653 639.47 117.424 639.635 117.246L639.928 116.927H639.47C639.075 116.927 638.935 116.838 638.477 116.291C638.184 115.947 637.841 115.655 637.701 115.655C637.51 115.655 637.472 115.757 637.472 116.291C637.472 116.889 637.446 116.927 637.153 116.927H636.835V113.746H637.79C638.642 113.746 638.795 113.784 639.063 114.064C639.47 114.458 639.47 114.815 639.05 115.222L638.732 115.553L639.279 116.164C639.584 116.495 639.864 116.775 639.902 116.787C640.144 116.826 640.437 116.049 640.437 115.362C640.437 114.751 640.373 114.535 640.068 114.089C639.355 113.084 638.413 112.689 637.37 112.969C635.995 113.338 635.155 114.738 635.55 116.024C635.766 116.762 636.504 117.526 637.191 117.742C637.955 117.984 637.943 117.984 638.694 117.755ZM638.464 114.993C638.859 114.598 638.566 114.255 637.841 114.255C637.497 114.255 637.472 114.293 637.472 114.7C637.472 115.12 637.497 115.146 637.892 115.146C638.121 115.146 638.375 115.082 638.464 114.993ZM441.658 117.78C440.92 117.042 440.907 115.858 441.607 115.146L442.002 114.764H445.515L443.427 112.676C442.282 111.531 441.289 110.436 441.213 110.246C440.907 109.431 441.2 108.425 441.875 108.018C442.345 107.738 443.236 107.675 443.669 107.916C443.822 107.993 444.866 108.973 445.986 110.08L448.022 112.104L448.086 110.411C448.162 108.489 448.289 108.133 449.066 107.878C450.084 107.547 451.089 107.955 451.471 108.871C451.687 109.38 451.713 113.033 451.509 113.58C451.318 114.089 450.911 114.484 450.287 114.764C449.524 115.095 448.569 116.037 448.175 116.851C447.984 117.22 447.653 117.691 447.436 117.869L447.042 118.2H442.078L441.658 117.78ZM456.524 117.946C456.269 117.793 455.964 117.411 455.735 116.953C455.264 116.011 454.475 115.222 453.533 114.751C452.349 114.153 452.286 113.987 452.286 111.264C452.286 109.189 452.311 108.935 452.54 108.553C453.011 107.789 454.246 107.522 455.06 108.018C455.697 108.413 455.849 108.922 455.849 110.653V112.155L460.177 107.827H460.991C461.73 107.827 461.857 107.865 462.213 108.209C462.417 108.413 462.659 108.795 462.735 109.075C462.977 109.966 462.76 110.309 460.457 112.638L458.344 114.764H461.87L462.29 115.222C463.053 116.024 462.875 117.449 461.959 117.997C461.666 118.162 461.195 118.2 459.26 118.2C457.173 118.2 456.893 118.175 456.524 117.946ZM484.474 112.244C483.099 111.353 483.176 109.316 484.614 108.553C485.085 108.298 485.314 108.26 485.925 108.311C487.185 108.425 487.923 109.202 487.923 110.436C487.923 111.709 487.147 112.498 485.836 112.575C485.148 112.613 484.996 112.575 484.474 112.244ZM504.151 112.422C503.247 112.027 502.661 110.831 502.929 109.927C503.349 108.502 504.838 107.878 506.2 108.54C507.702 109.253 507.727 111.531 506.251 112.307C505.627 112.638 504.749 112.689 504.151 112.422Z" fill="#00A777"/>
</g>
<defs>
<filter id="filter0_di" x="0" y="0" width="738" height="816" filterUnits="userSpaceOnUse" color-interpolation-filters="sRGB">
<feFlood flood-opacity="0" result="BackgroundImageFix"/>
<feColorMatrix in="SourceAlpha" type="matrix" values="0 0 0 0 0 0 0 0 0 0 0 0 0 0 0 0 0 0 127 0"/>
<feOffset dy="2"/>
<feGaussianBlur stdDeviation="4"/>
<feColorMatrix type="matrix" values="0 0 0 0 0.888 0 0 0 0 0.911467 0 0 0 0 0.952 0 0 0 1 0"/>
<feBlend mode="normal" in2="BackgroundImageFix" result="effect1_dropShadow"/>
<feBlend mode="normal" in="SourceGraphic" in2="effect1_dropShadow" result="shape"/>
<feColorMatrix in="SourceAlpha" type="matrix" values="0 0 0 0 0 0 0 0 0 0 0 0 0 0 0 0 0 0 127 0" result="hardAlpha"/>
<feOffset dy="-1"/>
<feComposite in2="hardAlpha" operator="arithmetic" k2="-1" k3="1"/>
<feColorMatrix type="matrix" values="0 0 0 0 0.921569 0 0 0 0 0.92549 0 0 0 0 0.945098 0 0 0 1 0"/>
<feBlend mode="normal" in2="shape" result="effect2_innerShadow"/>
</filter>
<clipPath id="clip0">
<rect width="200" height="58.356" fill="white" transform="translate(97 665)"/>
</clipPath>
<clipPath id="clip1">
<rect width="200" height="81.6763" fill="white" transform="translate(441 461)"/>
</clipPath>
<clipPath id="clip2">
<rect width="200" height="50" fill="white" transform="translate(97 477)"/>
</clipPath>
<clipPath id="clip3">
<rect width="200" height="41.12" fill="white" transform="translate(441 289)"/>
</clipPath>
<clipPath id="clip4">
<rect width="200" height="37.263" fill="white" transform="translate(97 291)"/>
</clipPath>
<clipPath id="clip5">
<rect width="200" height="22.4" fill="white" transform="translate(441 107)"/>
</clipPath>
</defs>
</svg>
