<svg width="551" height="487" viewBox="0 0 551 487" fill="none" xmlns="http://www.w3.org/2000/svg">
  <rect x="64" width="487" height="487" rx="243.5" fill="#534CEA"/>
  <circle cx="383" cy="150" r="50" fill="#534CEA"/>
  <path d="M412 210.6C394.548 210.6 380.4 196.438 380.4 178.968C380.4 173.314 381.883 168.006 384.48 163.412M412 210.6C429.453 210.6 443.6 196.438 443.6 178.968H412M412 210.6V178.968M412 147.337C403.387 147.337 395.579 150.786 389.879 156.38C390.067 156.584 404.705 171.524 412 178.968M412 147.337C420.614 147.337 428.422 150.786 434.122 156.38L412 178.968M412 147.337L423.156 140.628L439.41 163.216L412 178.968M412 147.337L400.633 140.628L384.48 163.412M412 178.968L384.48 163.412" stroke="white" stroke-width="2.14286"/>
  <g filter="url(#filter0_di)">
    <rect x="8" y="215" width="308" height="195" rx="6" fill="white"/>
  </g>
  <rect x="244" y="243" width="44" height="41" rx="4" fill="#534CEA"/>
  <rect opacity="0.2" x="88.5" y="341.5" width="43" height="40" rx="3.5" stroke="#534CEA"/>
  <rect opacity="0.2" x="192.5" y="243.5" width="43" height="40" rx="3.5" stroke="#534CEA"/>
  <rect opacity="0.2" x="36.5" y="341.5" width="43" height="40" rx="3.5" stroke="#534CEA"/>
  <rect opacity="0.2" x="36.5" y="292.5" width="43" height="40" rx="3.5" stroke="#534CEA"/>
  <rect opacity="0.2" x="139.5" y="341.5" width="43" height="40" rx="3.5" stroke="#534CEA"/>
  <rect opacity="0.2" x="88.5" y="292.5" width="43" height="40" rx="3.5" stroke="#534CEA"/>
  <rect opacity="0.2" x="191.5" y="341.5" width="43" height="40" rx="3.5" stroke="#534CEA"/>
  <rect opacity="0.2" x="140.5" y="243.5" width="43" height="40" rx="3.5" stroke="#534CEA"/>
  <rect opacity="0.2" x="244.5" y="292.5" width="43" height="40" rx="3.5" stroke="#534CEA"/>
  <rect opacity="0.2" x="88.5" y="243.5" width="43" height="40" rx="3.5" stroke="#534CEA"/>
  <rect opacity="0.2" x="192.5" y="292.5" width="43" height="40" rx="3.5" stroke="#534CEA"/>
  <rect opacity="0.2" x="36.5" y="243.5" width="43" height="40" rx="3.5" stroke="#534CEA"/>
  <rect opacity="0.2" x="140.5" y="292.5" width="43" height="40" rx="3.5" stroke="#534CEA"/>
  <path opacity="0.8" d="M56.1439 264.96V266.66H59.6039V268.02H56.1439V271H54.1039V268.02H52.3039V266.66H54.1039V264.96H52.3039V263.58H54.1039V256.76H58.8239C60.3306 256.76 61.5039 257.127 62.3439 257.86C63.1839 258.593 63.6039 259.587 63.6039 260.84C63.6039 262.12 63.1772 263.127 62.3239 263.86C61.4839 264.593 60.3172 264.96 58.8239 264.96H56.1439ZM56.1239 263.58H58.4439C60.5639 263.58 61.6239 262.727 61.6239 261.02C61.6239 260.113 61.3706 259.447 60.8639 259.02C60.3572 258.58 59.5839 258.36 58.5439 258.36H56.1239V263.58Z" fill="#969EAC"/>
  <path opacity="0.8" d="M106.75 256.72C108.217 256.72 109.297 257.06 109.99 257.74C110.697 258.407 111.05 259.42 111.05 260.78C111.05 261.527 110.943 262.153 110.73 262.66C110.53 263.167 110.27 263.573 109.95 263.88C109.63 264.187 109.29 264.427 108.93 264.6L111.75 271H109.85L107.35 265.1H105.53V271H103.83V256.72H106.75ZM106.81 258.24H105.53V263.58H106.85C107.73 263.58 108.357 263.353 108.73 262.9C109.103 262.433 109.29 261.753 109.29 260.86C109.29 259.927 109.09 259.26 108.69 258.86C108.29 258.447 107.663 258.24 106.81 258.24ZM115.31 260.08C115.883 260.08 116.383 260.153 116.81 260.3C117.237 260.433 117.637 260.613 118.01 260.84L117.37 262.18C116.997 261.967 116.643 261.807 116.31 261.7C115.99 261.58 115.643 261.52 115.27 261.52C114.817 261.52 114.457 261.64 114.19 261.88C113.937 262.12 113.81 262.433 113.81 262.82C113.81 263.207 113.93 263.54 114.17 263.82C114.423 264.087 114.91 264.42 115.63 264.82C116.097 265.073 116.51 265.34 116.87 265.62C117.23 265.9 117.51 266.233 117.71 266.62C117.923 266.993 118.03 267.473 118.03 268.06C118.03 268.993 117.757 269.753 117.21 270.34C116.663 270.913 115.783 271.2 114.57 271.2C114.077 271.2 113.603 271.147 113.15 271.04C112.71 270.933 112.33 270.773 112.01 270.56V268.94C112.317 269.153 112.717 269.347 113.21 269.52C113.703 269.693 114.157 269.78 114.57 269.78C115.21 269.78 115.663 269.633 115.93 269.34C116.197 269.047 116.33 268.667 116.33 268.2C116.33 267.8 116.21 267.467 115.97 267.2C115.73 266.92 115.257 266.58 114.55 266.18C114.083 265.913 113.663 265.64 113.29 265.36C112.93 265.08 112.643 264.753 112.43 264.38C112.23 263.993 112.13 263.507 112.13 262.92C112.13 262.04 112.423 261.347 113.01 260.84C113.61 260.333 114.377 260.08 115.31 260.08Z" fill="#969EAC"/>
  <path opacity="0.8" d="M163.784 263.12H166.644V264.5H163.044V266.2H166.644V267.56H163.044V271H160.964V267.56H157.364V266.2H160.964V264.5H157.364V263.12H160.224L155.744 256.76H158.024L162.004 262.52L165.984 256.76H168.264L163.784 263.12Z" fill="#969EAC"/>
  <path opacity="0.8" d="M212.764 266.38C212.764 267.14 212.671 267.747 212.484 268.2C212.297 268.653 211.977 269.02 211.524 269.3H219.324V271H208.864V269.6C209.544 269.267 210.024 268.893 210.304 268.48C210.584 268.053 210.724 267.493 210.724 266.8V264.56H208.864V263.18H210.724V260.52C210.724 259.32 211.091 258.367 211.824 257.66C212.571 256.953 213.577 256.6 214.844 256.6C215.724 256.6 216.557 256.753 217.344 257.06C218.144 257.353 218.844 257.78 219.444 258.34L218.684 259.88C218.097 259.36 217.484 258.967 216.844 258.7C216.217 258.42 215.597 258.28 214.984 258.28C214.277 258.28 213.731 258.487 213.344 258.9C212.957 259.3 212.764 259.887 212.764 260.66V263.18H216.304V264.56H212.764V266.38Z" fill="#969EAC"/>
  <path d="M266.564 269.46C267.697 269.46 268.844 268.933 270.004 267.88L270.744 269.4C270.224 269.933 269.577 270.36 268.804 270.68C268.031 271 267.257 271.16 266.484 271.16C265.097 271.16 263.957 270.72 263.064 269.84C262.171 268.96 261.591 267.707 261.324 266.08H259.304V264.72H261.164C261.151 264.533 261.144 264.247 261.144 263.86C261.144 263.487 261.151 263.207 261.164 263.02H259.304V261.64H261.324C261.604 260.027 262.184 258.787 263.064 257.92C263.957 257.04 265.097 256.6 266.484 256.6C267.297 256.6 268.071 256.753 268.804 257.06C269.551 257.367 270.197 257.8 270.744 258.36L270.004 259.88C268.844 258.827 267.697 258.3 266.564 258.3C265.684 258.3 264.977 258.58 264.444 259.14C263.924 259.687 263.571 260.52 263.384 261.64H266.744V263.02H263.244C263.231 263.193 263.224 263.473 263.224 263.86C263.224 264.247 263.231 264.533 263.244 264.72H266.744V266.08H263.384C263.571 267.213 263.924 268.06 264.444 268.62C264.977 269.18 265.684 269.46 266.564 269.46Z" fill="white"/>
  <path opacity="0.8" d="M63.2039 316.06C63.2039 317.14 62.8239 318.047 62.0639 318.78C61.3039 319.5 60.2972 319.94 59.0439 320.1V322.32H57.3639V320.14C55.4972 320.02 53.9772 319.44 52.8039 318.4L53.5439 316.86C54.1706 317.367 54.7972 317.747 55.4239 318C56.0506 318.253 56.7306 318.407 57.4639 318.46V313.8C56.5439 313.56 55.7772 313.307 55.1639 313.04C54.5639 312.773 54.0572 312.38 53.6439 311.86C53.2439 311.327 53.0439 310.633 53.0439 309.78C53.0439 309.06 53.2239 308.407 53.5839 307.82C53.9572 307.22 54.4706 306.733 55.1239 306.36C55.7772 305.973 56.5239 305.733 57.3639 305.64V303.44H59.0439V305.64C59.8306 305.733 60.5639 305.927 61.2439 306.22C61.9372 306.513 62.5239 306.887 63.0039 307.34L62.2639 308.88C61.2772 308 60.1772 307.487 58.9639 307.34V312.26C59.8439 312.473 60.5706 312.713 61.1439 312.98C61.7306 313.233 62.2172 313.607 62.6039 314.1C63.0039 314.593 63.2039 315.247 63.2039 316.06ZM55.1239 309.68C55.1239 310.267 55.3239 310.727 55.7239 311.06C56.1372 311.38 56.7172 311.647 57.4639 311.86V307.32C56.7306 307.427 56.1572 307.687 55.7439 308.1C55.3306 308.513 55.1239 309.04 55.1239 309.68ZM58.9639 318.4C59.6572 318.28 60.1906 318.027 60.5639 317.64C60.9372 317.24 61.1239 316.733 61.1239 316.12C61.1239 315.627 60.9372 315.233 60.5639 314.94C60.2039 314.647 59.6706 314.393 58.9639 314.18V318.4Z" fill="#969EAC"/>
  <path opacity="0.8" d="M217.084 361L216.864 362.7H218.724V364.06H216.684L216.024 369H214.764L213.004 358.84L211.244 369H209.984L209.324 364.06H207.304V362.7H209.144L208.924 361H207.304V359.62H208.744L208.104 354.76H209.744L210.824 364.26L212.384 354.76H213.624L215.184 364.26L216.264 354.76H217.904L217.264 359.62H218.724V361H217.084Z" fill="#969EAC"/>
  <path opacity="0.8" d="M109.117 320V316.72L106.777 318.32L106.057 317.26L109.117 315.16V313.16L106.777 314.76L106.057 313.7L109.117 311.6V307.3H104.657V305.72H115.357V307.3H110.917V310.58L113.257 308.96L113.977 310.02L110.917 312.12V314.14L113.257 312.52L113.977 313.58L110.917 315.68V320H109.117Z" fill="#969EAC"/>
  <path opacity="0.8" d="M167.724 309.58H166.144C166.184 309.833 166.204 310.107 166.204 310.4C166.204 310.707 166.184 311 166.144 311.28H167.724V312.64H165.764C165.417 313.413 164.884 314.013 164.164 314.44C163.457 314.867 162.597 315.08 161.584 315.08H160.144V320H158.104V312.64H156.304V311.28H158.104V309.58H156.304V308.2H158.104V305.76H161.584C162.611 305.76 163.484 305.973 164.204 306.4C164.924 306.827 165.451 307.427 165.784 308.2H167.724V309.58ZM161.504 313.44C162.424 313.44 163.111 313.2 163.564 312.72C164.017 312.227 164.244 311.46 164.244 310.42C164.244 309.367 164.017 308.607 163.564 308.14C163.124 307.66 162.437 307.42 161.504 307.42H160.124V313.44H161.504Z" fill="#969EAC"/>
  <path opacity="0.8" d="M214.384 313.54L219.884 320H217.544L212.104 313.64V320H210.084V313.54H208.304V312.2H210.084V305.76H212.104V312.1L217.544 305.76H219.884L214.364 312.2H219.084V313.54H214.384Z" fill="#969EAC"/>
  <path opacity="0.8" d="M266.812 320.2C265.252 320.2 264.052 319.887 263.212 319.26C262.372 318.633 261.952 317.687 261.952 316.42C261.952 315.913 262.025 315.453 262.172 315.04H261.232V313.76H262.912C263.178 313.493 263.532 313.253 263.972 313.04C264.425 312.813 264.892 312.613 265.372 312.44C265.865 312.267 266.298 312.12 266.672 312C267.045 311.867 267.285 311.773 267.392 311.72H261.232V310.44H268.872C268.978 310.253 269.052 310.06 269.092 309.86C269.145 309.66 269.172 309.407 269.172 309.1C269.172 308.473 268.958 307.987 268.532 307.64C268.105 307.28 267.438 307.1 266.532 307.1C265.878 307.1 265.258 307.187 264.672 307.36C264.098 307.533 263.585 307.727 263.132 307.94L262.632 306.36C263.138 306.12 263.758 305.92 264.492 305.76C265.225 305.6 265.938 305.52 266.632 305.52C267.978 305.52 269.038 305.8 269.812 306.36C270.598 306.907 270.992 307.747 270.992 308.88C270.992 309.16 270.972 309.44 270.932 309.72C270.892 309.987 270.818 310.227 270.712 310.44H271.812V311.72H270.072C269.858 311.933 269.525 312.153 269.072 312.38C268.618 312.593 268.145 312.793 267.652 312.98C267.158 313.167 266.712 313.327 266.312 313.46C265.912 313.593 265.652 313.693 265.532 313.76H271.812V315.04H264.032C263.925 315.24 263.852 315.427 263.812 315.6C263.772 315.773 263.752 316.013 263.752 316.32C263.752 317.867 264.825 318.64 266.972 318.64C267.732 318.64 268.465 318.547 269.172 318.36C269.892 318.16 270.492 317.953 270.972 317.74V319.36C270.518 319.573 269.912 319.767 269.152 319.94C268.392 320.113 267.612 320.2 266.812 320.2Z" fill="#969EAC"/>
  <path opacity="0.8" d="M59.416 354.72L61.336 360.06H64.376V361.34H61.796L62.396 362.98H64.376V364.26H62.856L64.556 369H62.656L60.996 364.26H55.956L54.316 369H52.416L54.116 364.26H52.616V362.98H54.576L55.156 361.34H52.616V360.06H55.616L57.536 354.72H59.416ZM58.456 356.68C58.3627 357.16 58.2227 357.687 58.036 358.26C57.8493 358.82 57.6427 359.42 57.416 360.06H59.516C59.2893 359.407 59.0827 358.8 58.896 358.24C58.7227 357.68 58.576 357.16 58.456 356.68ZM59.956 361.34H56.976L56.416 362.98H60.536L59.956 361.34Z" fill="#969EAC"/>
  <path opacity="0.8" d="M113.904 361V362.7H115.724V364.06H113.904V369H112.204L107.884 359.12V369H106.104V364.06H104.304V362.7H106.104V361H104.304V359.62H106.104V354.76H107.804L112.124 364.92V354.76H113.904V359.62H115.724V361H113.904Z" fill="#969EAC"/>
  <path opacity="0.8" d="M166.784 359V360.68H166.584C165.624 360.68 164.911 360.94 164.444 361.46C163.991 361.967 163.764 362.647 163.764 363.5V369H161.804V362.62H158.264V369H156.284V354.76H164.864V356.46H158.264V360.9H161.804V359.14H163.644V360.94C163.897 360.247 164.264 359.753 164.744 359.46C165.224 359.153 165.804 359 166.484 359H166.784Z" fill="#969EAC"/>
  <defs>
    <filter id="filter0_di" x="0" y="209" width="324" height="211" filterUnits="userSpaceOnUse" color-interpolation-filters="sRGB">
      <feFlood flood-opacity="0" result="BackgroundImageFix"/>
      <feColorMatrix in="SourceAlpha" type="matrix" values="0 0 0 0 0 0 0 0 0 0 0 0 0 0 0 0 0 0 127 0"/>
      <feOffset dy="2"/>
      <feGaussianBlur stdDeviation="4"/>
      <feColorMatrix type="matrix" values="0 0 0 0 0.888 0 0 0 0 0.911467 0 0 0 0 0.952 0 0 0 1 0"/>
      <feBlend mode="normal" in2="BackgroundImageFix" result="effect1_dropShadow"/>
      <feBlend mode="normal" in="SourceGraphic" in2="effect1_dropShadow" result="shape"/>
      <feColorMatrix in="SourceAlpha" type="matrix" values="0 0 0 0 0 0 0 0 0 0 0 0 0 0 0 0 0 0 127 0" result="hardAlpha"/>
      <feOffset dy="-1"/>
      <feComposite in2="hardAlpha" operator="arithmetic" k2="-1" k3="1"/>
      <feColorMatrix type="matrix" values="0 0 0 0 0.921569 0 0 0 0 0.92549 0 0 0 0 0.945098 0 0 0 1 0"/>
      <feBlend mode="normal" in2="shape" result="effect2_innerShadow"/>
    </filter>
  </defs>
</svg>
