<svg width="324" height="211" viewBox="0 0 324 211" fill="none" xmlns="http://www.w3.org/2000/svg">
<g id="Select Currency">
<g id="Card" filter="url(#filter0_di)">
<rect x="8" y="6" width="308" height="195" rx="6" fill="white"/>
</g>
<rect id="Card_2" x="244" y="34" width="44" height="41" rx="4" fill="#534CEA"/>
<rect id="Card_3" opacity="0.2" x="88.5" y="132.5" width="43" height="40" rx="3.5" stroke="#534CEA"/>
<rect id="Card_4" opacity="0.2" x="192.5" y="34.5" width="43" height="40" rx="3.5" stroke="#534CEA"/>
<rect id="Card_5" opacity="0.2" x="36.5" y="132.5" width="43" height="40" rx="3.5" stroke="#534CEA"/>
<rect id="Card_6" opacity="0.2" x="36.5" y="83.5" width="43" height="40" rx="3.5" stroke="#534CEA"/>
<rect id="Card_7" opacity="0.2" x="139.5" y="132.5" width="43" height="40" rx="3.5" stroke="#534CEA"/>
<rect id="Card_8" opacity="0.2" x="88.5" y="83.5" width="43" height="40" rx="3.5" stroke="#534CEA"/>
<rect id="Card_9" opacity="0.2" x="191.5" y="132.5" width="43" height="40" rx="3.5" stroke="#534CEA"/>
<rect id="Card_10" opacity="0.2" x="140.5" y="34.5" width="43" height="40" rx="3.5" stroke="#534CEA"/>
<rect id="Card_11" opacity="0.2" x="244.5" y="83.5" width="43" height="40" rx="3.5" stroke="#534CEA"/>
<rect id="Card_12" opacity="0.2" x="88.5" y="34.5" width="43" height="40" rx="3.5" stroke="#534CEA"/>
<rect id="Card_13" opacity="0.2" x="192.5" y="83.5" width="43" height="40" rx="3.5" stroke="#534CEA"/>
<rect id="Card_14" opacity="0.2" x="36.5" y="34.5" width="43" height="40" rx="3.5" stroke="#534CEA"/>
<rect id="Card_15" opacity="0.2" x="140.5" y="83.5" width="43" height="40" rx="3.5" stroke="#534CEA"/>
<path id="&#226;&#130;&#189;" opacity="0.8" d="M56.1439 55.96V57.66H59.6039V59.02H56.1439V62H54.1039V59.02H52.3039V57.66H54.1039V55.96H52.3039V54.58H54.1039V47.76H58.8239C60.3306 47.76 61.5039 48.1267 62.3439 48.86C63.1839 49.5933 63.6039 50.5867 63.6039 51.84C63.6039 53.12 63.1772 54.1267 62.3239 54.86C61.4839 55.5933 60.3172 55.96 58.8239 55.96H56.1439ZM56.1239 54.58H58.4439C60.5639 54.58 61.6239 53.7267 61.6239 52.02C61.6239 51.1133 61.3706 50.4467 60.8639 50.02C60.3572 49.58 59.5839 49.36 58.5439 49.36H56.1239V54.58Z" fill="#969EAC"/>
<path id="&#226;&#130;&#168;" opacity="0.8" d="M106.75 47.72C108.217 47.72 109.297 48.06 109.99 48.74C110.697 49.4067 111.05 50.42 111.05 51.78C111.05 52.5267 110.943 53.1533 110.73 53.66C110.53 54.1667 110.27 54.5733 109.95 54.88C109.63 55.1867 109.29 55.4267 108.93 55.6L111.75 62H109.85L107.35 56.1H105.53V62H103.83V47.72H106.75ZM106.81 49.24H105.53V54.58H106.85C107.73 54.58 108.357 54.3533 108.73 53.9C109.103 53.4333 109.29 52.7533 109.29 51.86C109.29 50.9267 109.09 50.26 108.69 49.86C108.29 49.4467 107.663 49.24 106.81 49.24ZM115.31 51.08C115.883 51.08 116.383 51.1533 116.81 51.3C117.237 51.4333 117.637 51.6133 118.01 51.84L117.37 53.18C116.997 52.9667 116.643 52.8067 116.31 52.7C115.99 52.58 115.643 52.52 115.27 52.52C114.817 52.52 114.457 52.64 114.19 52.88C113.937 53.12 113.81 53.4333 113.81 53.82C113.81 54.2067 113.93 54.54 114.17 54.82C114.423 55.0867 114.91 55.42 115.63 55.82C116.097 56.0733 116.51 56.34 116.87 56.62C117.23 56.9 117.51 57.2333 117.71 57.62C117.923 57.9933 118.03 58.4733 118.03 59.06C118.03 59.9933 117.757 60.7533 117.21 61.34C116.663 61.9133 115.783 62.2 114.57 62.2C114.077 62.2 113.603 62.1467 113.15 62.04C112.71 61.9333 112.33 61.7733 112.01 61.56V59.94C112.317 60.1533 112.717 60.3467 113.21 60.52C113.703 60.6933 114.157 60.78 114.57 60.78C115.21 60.78 115.663 60.6333 115.93 60.34C116.197 60.0467 116.33 59.6667 116.33 59.2C116.33 58.8 116.21 58.4667 115.97 58.2C115.73 57.92 115.257 57.58 114.55 57.18C114.083 56.9133 113.663 56.64 113.29 56.36C112.93 56.08 112.643 55.7533 112.43 55.38C112.23 54.9933 112.13 54.5067 112.13 53.92C112.13 53.04 112.423 52.3467 113.01 51.84C113.61 51.3333 114.377 51.08 115.31 51.08Z" fill="#969EAC"/>
<path id="&#194;&#165;" opacity="0.8" d="M163.784 54.12H166.644V55.5H163.044V57.2H166.644V58.56H163.044V62H160.964V58.56H157.364V57.2H160.964V55.5H157.364V54.12H160.224L155.744 47.76H158.024L162.004 53.52L165.984 47.76H168.264L163.784 54.12Z" fill="#969EAC"/>
<path id="&#194;&#163;" opacity="0.8" d="M212.764 57.38C212.764 58.14 212.671 58.7467 212.484 59.2C212.297 59.6533 211.977 60.02 211.524 60.3H219.324V62H208.864V60.6C209.544 60.2667 210.024 59.8933 210.304 59.48C210.584 59.0533 210.724 58.4933 210.724 57.8V55.56H208.864V54.18H210.724V51.52C210.724 50.32 211.091 49.3667 211.824 48.66C212.571 47.9533 213.577 47.6 214.844 47.6C215.724 47.6 216.557 47.7533 217.344 48.06C218.144 48.3533 218.844 48.78 219.444 49.34L218.684 50.88C218.097 50.36 217.484 49.9667 216.844 49.7C216.217 49.42 215.597 49.28 214.984 49.28C214.277 49.28 213.731 49.4867 213.344 49.9C212.957 50.3 212.764 50.8867 212.764 51.66V54.18H216.304V55.56H212.764V57.38Z" fill="#969EAC"/>
<path id="&#226;&#130;&#172;" d="M266.564 60.46C267.697 60.46 268.844 59.9333 270.004 58.88L270.744 60.4C270.224 60.9333 269.577 61.36 268.804 61.68C268.031 62 267.257 62.16 266.484 62.16C265.097 62.16 263.957 61.72 263.064 60.84C262.171 59.96 261.591 58.7067 261.324 57.08H259.304V55.72H261.164C261.151 55.5333 261.144 55.2467 261.144 54.86C261.144 54.4867 261.151 54.2067 261.164 54.02H259.304V52.64H261.324C261.604 51.0267 262.184 49.7867 263.064 48.92C263.957 48.04 265.097 47.6 266.484 47.6C267.297 47.6 268.071 47.7533 268.804 48.06C269.551 48.3667 270.197 48.8 270.744 49.36L270.004 50.88C268.844 49.8267 267.697 49.3 266.564 49.3C265.684 49.3 264.977 49.58 264.444 50.14C263.924 50.6867 263.571 51.52 263.384 52.64H266.744V54.02H263.244C263.231 54.1933 263.224 54.4733 263.224 54.86C263.224 55.2467 263.231 55.5333 263.244 55.72H266.744V57.08H263.384C263.571 58.2133 263.924 59.06 264.444 59.62C264.977 60.18 265.684 60.46 266.564 60.46Z" fill="white"/>
<path id="$" opacity="0.8" d="M63.2039 107.06C63.2039 108.14 62.8239 109.047 62.0639 109.78C61.3039 110.5 60.2972 110.94 59.0439 111.1V113.32H57.3639V111.14C55.4972 111.02 53.9772 110.44 52.8039 109.4L53.5439 107.86C54.1706 108.367 54.7972 108.747 55.4239 109C56.0506 109.253 56.7306 109.407 57.4639 109.46V104.8C56.5439 104.56 55.7772 104.307 55.1639 104.04C54.5639 103.773 54.0572 103.38 53.6439 102.86C53.2439 102.327 53.0439 101.633 53.0439 100.78C53.0439 100.06 53.2239 99.4067 53.5839 98.82C53.9572 98.22 54.4706 97.7333 55.1239 97.36C55.7772 96.9733 56.5239 96.7333 57.3639 96.64V94.44H59.0439V96.64C59.8306 96.7333 60.5639 96.9267 61.2439 97.22C61.9372 97.5133 62.5239 97.8867 63.0039 98.34L62.2639 99.88C61.2772 99 60.1772 98.4867 58.9639 98.34V103.26C59.8439 103.473 60.5706 103.713 61.1439 103.98C61.7306 104.233 62.2172 104.607 62.6039 105.1C63.0039 105.593 63.2039 106.247 63.2039 107.06ZM55.1239 100.68C55.1239 101.267 55.3239 101.727 55.7239 102.06C56.1372 102.38 56.7172 102.647 57.4639 102.86V98.32C56.7306 98.4267 56.1572 98.6867 55.7439 99.1C55.3306 99.5133 55.1239 100.04 55.1239 100.68ZM58.9639 109.4C59.6572 109.28 60.1906 109.027 60.5639 108.64C60.9372 108.24 61.1239 107.733 61.1239 107.12C61.1239 106.627 60.9372 106.233 60.5639 105.94C60.2039 105.647 59.6706 105.393 58.9639 105.18V109.4Z" fill="#969EAC"/>
<path id="&#226;&#130;&#169;" opacity="0.8" d="M217.084 152L216.864 153.7H218.724V155.06H216.684L216.024 160H214.764L213.004 149.84L211.244 160H209.984L209.324 155.06H207.304V153.7H209.144L208.924 152H207.304V150.62H208.744L208.104 145.76H209.744L210.824 155.26L212.384 145.76H213.624L215.184 155.26L216.264 145.76H217.904L217.264 150.62H218.724V152H217.084Z" fill="#969EAC"/>
<path id="&#226;&#130;&#174;" opacity="0.8" d="M109.117 111V107.72L106.777 109.32L106.057 108.26L109.117 106.16V104.16L106.777 105.76L106.057 104.7L109.117 102.6V98.3H104.657V96.72H115.357V98.3H110.917V101.58L113.257 99.96L113.977 101.02L110.917 103.12V105.14L113.257 103.52L113.977 104.58L110.917 106.68V111H109.117Z" fill="#969EAC"/>
<path id="&#226;&#130;&#177;" opacity="0.8" d="M167.724 100.58H166.144C166.184 100.833 166.204 101.107 166.204 101.4C166.204 101.707 166.184 102 166.144 102.28H167.724V103.64H165.764C165.417 104.413 164.884 105.013 164.164 105.44C163.457 105.867 162.597 106.08 161.584 106.08H160.144V111H158.104V103.64H156.304V102.28H158.104V100.58H156.304V99.2H158.104V96.76H161.584C162.611 96.76 163.484 96.9733 164.204 97.4C164.924 97.8267 165.451 98.4267 165.784 99.2H167.724V100.58ZM161.504 104.44C162.424 104.44 163.111 104.2 163.564 103.72C164.017 103.227 164.244 102.46 164.244 101.42C164.244 100.367 164.017 99.6067 163.564 99.14C163.124 98.66 162.437 98.42 161.504 98.42H160.124V104.44H161.504Z" fill="#969EAC"/>
<path id="&#226;&#130;&#173;" opacity="0.8" d="M214.384 104.54L219.884 111H217.544L212.104 104.64V111H210.084V104.54H208.304V103.2H210.084V96.76H212.104V103.1L217.544 96.76H219.884L214.364 103.2H219.084V104.54H214.384Z" fill="#969EAC"/>
<path id="&#226;&#130;&#180;" opacity="0.8" d="M266.812 111.2C265.252 111.2 264.052 110.887 263.212 110.26C262.372 109.633 261.952 108.687 261.952 107.42C261.952 106.913 262.025 106.453 262.172 106.04H261.232V104.76H262.912C263.178 104.493 263.532 104.253 263.972 104.04C264.425 103.813 264.892 103.613 265.372 103.44C265.865 103.267 266.298 103.12 266.672 103C267.045 102.867 267.285 102.773 267.392 102.72H261.232V101.44H268.872C268.978 101.253 269.052 101.06 269.092 100.86C269.145 100.66 269.172 100.407 269.172 100.1C269.172 99.4733 268.958 98.9867 268.532 98.64C268.105 98.28 267.438 98.1 266.532 98.1C265.878 98.1 265.258 98.1867 264.672 98.36C264.098 98.5333 263.585 98.7267 263.132 98.94L262.632 97.36C263.138 97.12 263.758 96.92 264.492 96.76C265.225 96.6 265.938 96.52 266.632 96.52C267.978 96.52 269.038 96.8 269.812 97.36C270.598 97.9067 270.992 98.7467 270.992 99.88C270.992 100.16 270.972 100.44 270.932 100.72C270.892 100.987 270.818 101.227 270.712 101.44H271.812V102.72H270.072C269.858 102.933 269.525 103.153 269.072 103.38C268.618 103.593 268.145 103.793 267.652 103.98C267.158 104.167 266.712 104.327 266.312 104.46C265.912 104.593 265.652 104.693 265.532 104.76H271.812V106.04H264.032C263.925 106.24 263.852 106.427 263.812 106.6C263.772 106.773 263.752 107.013 263.752 107.32C263.752 108.867 264.825 109.64 266.972 109.64C267.732 109.64 268.465 109.547 269.172 109.36C269.892 109.16 270.492 108.953 270.972 108.74V110.36C270.518 110.573 269.912 110.767 269.152 110.94C268.392 111.113 267.612 111.2 266.812 111.2Z" fill="#969EAC"/>
<path id="&#226;&#130;&#179;" opacity="0.8" d="M59.416 145.72L61.336 151.06H64.376V152.34H61.796L62.396 153.98H64.376V155.26H62.856L64.556 160H62.656L60.996 155.26H55.956L54.316 160H52.416L54.116 155.26H52.616V153.98H54.576L55.156 152.34H52.616V151.06H55.616L57.536 145.72H59.416ZM58.456 147.68C58.3627 148.16 58.2227 148.687 58.036 149.26C57.8493 149.82 57.6427 150.42 57.416 151.06H59.516C59.2893 150.407 59.0827 149.8 58.896 149.24C58.7227 148.68 58.576 148.16 58.456 147.68ZM59.956 152.34H56.976L56.416 153.98H60.536L59.956 152.34Z" fill="#969EAC"/>
<path id="&#226;&#130;&#166;" opacity="0.8" d="M113.904 152V153.7H115.724V155.06H113.904V160H112.204L107.884 150.12V160H106.104V155.06H104.304V153.7H106.104V152H104.304V150.62H106.104V145.76H107.804L112.124 155.92V145.76H113.904V150.62H115.724V152H113.904Z" fill="#969EAC"/>
<path id="&#226;&#130;&#163;" opacity="0.8" d="M166.784 150V151.68H166.584C165.624 151.68 164.911 151.94 164.444 152.46C163.991 152.967 163.764 153.647 163.764 154.5V160H161.804V153.62H158.264V160H156.284V145.76H164.864V147.46H158.264V151.9H161.804V150.14H163.644V151.94C163.897 151.247 164.264 150.753 164.744 150.46C165.224 150.153 165.804 150 166.484 150H166.784Z" fill="#969EAC"/>
</g>
<defs>
<filter id="filter0_di" x="0" y="0" width="324" height="211" filterUnits="userSpaceOnUse" color-interpolation-filters="sRGB">
<feFlood flood-opacity="0" result="BackgroundImageFix"/>
<feColorMatrix in="SourceAlpha" type="matrix" values="0 0 0 0 0 0 0 0 0 0 0 0 0 0 0 0 0 0 127 0"/>
<feOffset dy="2"/>
<feGaussianBlur stdDeviation="4"/>
<feColorMatrix type="matrix" values="0 0 0 0 0.888 0 0 0 0 0.911467 0 0 0 0 0.952 0 0 0 1 0"/>
<feBlend mode="normal" in2="BackgroundImageFix" result="effect1_dropShadow"/>
<feBlend mode="normal" in="SourceGraphic" in2="effect1_dropShadow" result="shape"/>
<feColorMatrix in="SourceAlpha" type="matrix" values="0 0 0 0 0 0 0 0 0 0 0 0 0 0 0 0 0 0 127 0" result="hardAlpha"/>
<feOffset dy="-1"/>
<feComposite in2="hardAlpha" operator="arithmetic" k2="-1" k3="1"/>
<feColorMatrix type="matrix" values="0 0 0 0 0.921569 0 0 0 0 0.92549 0 0 0 0 0.945098 0 0 0 1 0"/>
<feBlend mode="normal" in2="shape" result="effect2_innerShadow"/>
</filter>
</defs>
</svg>
