<svg width="100" height="100" viewBox="0 0 100 100" fill="none"
    xmlns="http://www.w3.org/2000/svg">
    <rect x="0.5" y="0.5" width="99" height="99" rx="3.5" stroke="#534CEA"/>
    <path d="M48.8454 44.8508L47.8227 63.7449M39.717 63.7603L46.3117 44.0547M46.3117 44.0547L57.3468 47.5223C57.6859 47.6315 58.06 47.5588 58.3282 47.3315C58.5963 47.1042 58.7178 46.7568 58.6468 46.4202C58.321 43.9132 56.4073 41.8643 53.8468 41.281C48.8468 40.321 46.8468 43.201 46.8468 43.201L46.3135 44.0547M46.3117 44.0547L36.2664 46.6722C35.931 46.7602 35.572 46.6749 35.3181 46.4468C35.0642 46.2188 34.9518 45.8806 35.021 45.5535C35.3213 43.0092 37.2485 40.9175 39.8424 40.3208C42.7517 39.7615 45.5397 40.3208 47.213 42.7848M52.7708 41.1273L56.9041 37.1375C57.1376 36.9179 57.244 36.6021 57.1887 36.2927C57.1333 35.9833 56.9233 35.7198 56.6268 35.5875C54.4188 34.5559 51.7935 34.8085 49.8428 36.2403C47.5761 37.8697 47.8428 41.2809 47.8428 41.2809V42.2652M41.5717 40.1251L38.9717 37.4153C38.7264 37.1627 38.6419 36.8028 38.7504 36.4736C38.8589 36.1443 39.1437 35.8967 39.4957 35.8255C40.5986 35.6215 41.7193 35.5194 42.8424 35.5209C45.063 35.7152 47.0417 36.9464 48.1331 38.8131M35 63.7603H65M60 39.7603H64M62 37.8403V41.6803M53 57.0403H57M55 55.1203V58.9603M64 53.2002C64 54.2606 63.1046 55.1202 62 55.1202C60.8954 55.1202 60 54.2606 60 53.2002C60 52.1398 60.8954 51.2802 62 51.2802C63.1046 51.2802 64 52.1398 64 53.2002ZM64 53.2002V47.4402" stroke="#534CEA" stroke-width="1.5" stroke-linecap="round" stroke-linejoin="round"/>
</svg>
