<svg width="32" height="32" viewBox="0 0 32 32" fill="none"
    xmlns="http://www.w3.org/2000/svg">
    <path d="M14.8454 10.8508L13.8227 29.7449M5.71704 29.7603L12.3117 10.0547M12.3117 10.0547L23.3468 13.5223C23.6859 13.6315 24.06 13.5588 24.3282 13.3315C24.5963 13.1042 24.7178 12.7568 24.6468 12.4202C24.321 9.91322 22.4073 7.86429 19.8468 7.28098C14.8468 6.32098 12.8468 9.20098 12.8468 9.20098L12.3135 10.0547M12.3117 10.0547L2.26635 12.6722C1.93096 12.7602 1.572 12.6749 1.31811 12.4468C1.06423 12.2188 0.951765 11.8806 1.02102 11.5535C1.32126 9.00916 3.24851 6.9175 5.84235 6.32083C8.75169 5.76147 11.5397 6.32083 13.213 8.78483M18.7708 7.12731L22.9041 3.13755C23.1376 2.91785 23.244 2.6021 23.1887 2.29272C23.1333 1.98334 22.9233 1.71975 22.6268 1.58747C20.4188 0.55587 17.7935 0.808493 15.8428 2.24027C13.5761 3.86971 13.8428 7.28091 13.8428 7.28091V8.26522M7.57174 6.12505L4.97174 3.41529C4.72644 3.16269 4.64186 2.80284 4.75038 2.47358C4.85891 2.14433 5.14373 1.89669 5.49574 1.82553C6.59858 1.62146 7.71927 1.51944 8.84241 1.52089C11.063 1.71518 13.0417 2.94641 14.1331 4.81305M1 29.7603H31M26 5.7603H30M28 3.84032V7.68032M19 23.0403H23M21 21.1203V24.9603M30 19.2002C30 20.2606 29.1046 21.1202 28 21.1202C26.8954 21.1202 26 20.2606 26 19.2002C26 18.1398 26.8954 17.2802 28 17.2802C29.1046 17.2802 30 18.1398 30 19.2002ZM30 19.2002V13.4402" stroke="#534CEA" stroke-width="1.5" stroke-linecap="round" stroke-linejoin="round"/>
</svg>
