<svg width="32" height="32" viewBox="0 0 32 32" fill="none"
    xmlns="http://www.w3.org/2000/svg">
    <path d="M0.998291 29.76H29.9983M9.17702 6.55488L3.82102 11.6915M19.0812 8.09591L12.8492 6.49591M27.1891 3.69781L22.4145 7.28181M3.66496 23.9999H7.33296C7.70115 23.9999 7.99962 24.2864 7.99962 24.6399V29.7599H2.99829V24.6399C2.99829 24.2864 3.29677 23.9999 3.66496 23.9999ZM13.665 12.48H17.333C17.7011 12.48 17.9996 12.7665 17.9996 13.12V29.76H12.9983V13.12C12.9983 12.7665 13.2968 12.48 13.665 12.48ZM23.6653 18.2399H27.3333C27.7015 18.2399 27.9999 18.5265 27.9999 18.8799V29.7599H22.9999V18.8799C22.9999 18.527 23.2976 18.2407 23.6653 18.2399ZM10.9983 7.6813C12.1029 7.6813 12.9983 6.82169 12.9983 5.7613C12.9983 4.70091 12.1029 3.8413 10.9983 3.8413C9.89372 3.8413 8.99829 4.70091 8.99829 5.7613C8.99829 6.82169 9.89372 7.6813 10.9983 7.6813ZM28.9999 4.79996C30.1045 4.79996 30.9999 3.94035 30.9999 2.87996C30.9999 1.81957 30.1045 0.959961 28.9999 0.959961C27.8954 0.959961 26.9999 1.81957 26.9999 2.87996C26.9999 3.94035 27.8954 4.79996 28.9999 4.79996ZM20.9999 10.5599C22.1045 10.5599 22.9999 9.70029 22.9999 8.6399C22.9999 7.57952 22.1045 6.7199 20.9999 6.7199C19.8954 6.7199 18.9999 7.57952 18.9999 8.6399C18.9999 9.70029 19.8954 10.5599 20.9999 10.5599ZM2.99829 15.3612C4.10286 15.3612 4.99829 14.5016 4.99829 13.4412C4.99829 12.3808 4.10286 11.5212 2.99829 11.5212C1.89372 11.5212 0.998291 12.3808 0.998291 13.4412C0.998291 14.5016 1.89372 15.3612 2.99829 15.3612Z" stroke="#534CEA" stroke-width="1.5" stroke-linecap="round" stroke-linejoin="round"/>
</svg>
