<svg width="100" height="100" viewBox="0 0 100 100" fill="none"
    xmlns="http://www.w3.org/2000/svg">
    <rect x="0.5" y="0.5" width="99" height="99" rx="3.5" stroke="#534CEA"/>
    <path d="M34.9983 63.76H63.9983M43.177 40.5549L37.821 45.6915M53.0812 42.0959L46.8492 40.4959M61.1891 37.6978L56.4145 41.2818M37.665 57.9999H41.333C41.7011 57.9999 41.9996 58.2864 41.9996 58.6399V63.7599H36.9983V58.6399C36.9983 58.2864 37.2968 57.9999 37.665 57.9999ZM47.665 46.48H51.333C51.7011 46.48 51.9996 46.7665 51.9996 47.12V63.76H46.9983V47.12C46.9983 46.7665 47.2968 46.48 47.665 46.48ZM57.6653 52.2399H61.3333C61.7015 52.2399 61.9999 52.5265 61.9999 52.8799V63.7599H56.9999V52.8799C56.9999 52.527 57.2976 52.2407 57.6653 52.2399ZM44.9983 41.6813C46.1029 41.6813 46.9983 40.8217 46.9983 39.7613C46.9983 38.7009 46.1029 37.8413 44.9983 37.8413C43.8937 37.8413 42.9983 38.7009 42.9983 39.7613C42.9983 40.8217 43.8937 41.6813 44.9983 41.6813ZM62.9999 38.8C64.1045 38.8 64.9999 37.9403 64.9999 36.88C64.9999 35.8196 64.1045 34.96 62.9999 34.96C61.8954 34.96 60.9999 35.8196 60.9999 36.88C60.9999 37.9403 61.8954 38.8 62.9999 38.8ZM54.9999 44.5599C56.1045 44.5599 56.9999 43.7003 56.9999 42.6399C56.9999 41.5795 56.1045 40.7199 54.9999 40.7199C53.8954 40.7199 52.9999 41.5795 52.9999 42.6399C52.9999 43.7003 53.8954 44.5599 54.9999 44.5599ZM36.9983 49.3612C38.1029 49.3612 38.9983 48.5016 38.9983 47.4412C38.9983 46.3808 38.1029 45.5212 36.9983 45.5212C35.8937 45.5212 34.9983 46.3808 34.9983 47.4412C34.9983 48.5016 35.8937 49.3612 36.9983 49.3612Z" stroke="#534CEA" stroke-width="1.5" stroke-linecap="round" stroke-linejoin="round"/>
</svg>
