<svg width="100" height="100" viewBox="0 0 100 100" fill="none"
    xmlns="http://www.w3.org/2000/svg">
    <rect x="0.5" y="0.5" width="99" height="99" rx="3.5" stroke="#534CEA"/>
    <path d="M50 39.5422V63.7598M35 55.9055L39.7733 46.1327L44.5453 55.9055M35 55.9055H44.5453M35 55.9055C34.9685 57.1297 35.4611 58.3129 36.3632 59.1787C37.2653 60.0445 38.4978 60.5173 39.773 60.4868C41.048 60.517 42.2801 60.044 43.1819 59.1783C44.0837 58.3125 44.5767 57.1295 44.5453 55.9055M64.9996 48.0504L60.2262 38.188L55.4542 48.0504M64.9996 48.0504H55.4542M64.9996 48.0504C65.0314 49.2748 64.539 50.4581 63.6369 51.3242C62.7347 52.1903 61.502 52.6632 60.2266 52.6327C58.9514 52.6629 57.719 52.1897 56.8172 51.3237C55.9153 50.4577 55.4224 49.2746 55.4542 48.0504M36.9718 47.2195L61.6691 37.5479M43.8634 63.7598H56.1354H46.5901" stroke="#534CEA" stroke-width="1.5" stroke-linecap="round" stroke-linejoin="round"/>
</svg>
