<svg width="22" height="22" viewBox="0 0 22 22" fill="none"
    xmlns="http://www.w3.org/2000/svg">
    <path d="M1.6167 6.625C1.6167 3.86358 3.85528 1.625 6.6167 1.625H15.3667C18.1281 1.625 20.3667 3.86358 20.3667 6.625V15.375C20.3667 18.1364 18.1281 20.375 15.3667 20.375H6.6167C3.85528 20.375 1.6167 18.1364 1.6167 15.375V6.625Z" stroke="white" stroke-width="1.5" stroke-linecap="round" stroke-linejoin="round"/>
    <path fill-rule="evenodd" clip-rule="evenodd" d="M10.9917 15.1667C13.2929 15.1667 15.1584 13.3012 15.1584 11C15.1584 8.69881 13.2929 6.83333 10.9917 6.83333C8.69051 6.83333 6.82503 8.69881 6.82503 11C6.82503 13.3012 8.69051 15.1667 10.9917 15.1667Z" stroke="white" stroke-width="1.5" stroke-linecap="round" stroke-linejoin="round"/>
    <path fill-rule="evenodd" clip-rule="evenodd" d="M17.1167 5.29167C17.1167 5.52179 16.9302 5.70833 16.7 5.70833C16.4699 5.70833 16.2834 5.52179 16.2834 5.29167" stroke="white" stroke-width="1.5" stroke-linecap="round" stroke-linejoin="round"/>
    <path fill-rule="evenodd" clip-rule="evenodd" d="M16.2834 5.29167C16.2834 5.06155 16.4699 4.875 16.7 4.875C16.9302 4.875 17.1167 5.06155 17.1167 5.29167" stroke="white" stroke-width="1.5" stroke-linecap="round" stroke-linejoin="round"/>
</svg>
