<svg width="22" height="20" viewBox="0 0 22 20" fill="none"
    xmlns="http://www.w3.org/2000/svg">
    <path fill-rule="evenodd" clip-rule="evenodd" d="M5.72497 18.8587H1.67497V7.25039H5.72497V18.8587ZM14.1333 11.0337C13.1484 11.0337 12.35 11.8321 12.35 12.8171V18.8587H8.09163V7.25039H12.35V8.57539C13.3481 7.73044 14.609 7.25905 15.9166 7.24206C18.5583 7.24206 20.3916 9.20039 20.3916 12.9171V18.8587H15.9166V12.8171C15.9189 12.3426 15.7319 11.8869 15.3973 11.5507C15.0626 11.2144 14.6077 11.0254 14.1333 11.0254V11.0337ZM5.79997 3.23372C5.79997 4.38432 4.86723 5.31706 3.71663 5.31706C2.56604 5.31706 1.6333 4.38432 1.6333 3.23372C1.6333 2.08313 2.56604 1.15039 3.71663 1.15039C4.86071 1.15954 5.78334 2.08961 5.7833 3.23372H5.79997Z" stroke="white" stroke-width="1.5" stroke-linecap="round" stroke-linejoin="round"/>
</svg>
