<svg width="18" height="22" viewBox="0 0 18 22" fill="none"
    xmlns="http://www.w3.org/2000/svg">
    <path fill-rule="evenodd" clip-rule="evenodd" d="M4.49999 9.55866C4.40918 9.2474 4.36426 8.92455 4.36666 8.60033C4.35193 7.35249 4.85036 6.15337 5.74529 5.28365C6.64022 4.41393 7.85309 3.94996 9.09999 4.00033C11.6833 4.00033 13.1 5.57533 13.1 7.68366C13.1 10.4503 11.875 12.792 10.05 12.792C9.04166 12.792 8.69166 12.0253 8.92499 11.0087C9.27499 9.55033 11.1833 7.12533 8.92499 6.62533C6.66666 6.12533 6.31666 8.99199 6.27499 10.292L4.89166 16.1253C4.65922 17.4793 4.65922 18.863 4.89166 20.217C4.89709 20.2766 4.93939 20.3264 4.99734 20.3413C5.0553 20.3563 5.1164 20.3332 5.14999 20.2837C5.97927 19.2516 6.6248 18.0846 7.05833 16.8337C7.19166 16.3503 7.68333 14.5003 7.68333 14.5003C8.27562 15.3665 9.26777 15.872 10.3167 15.842C13.775 15.842 16.2583 12.0587 16.2583 7.83366C16.2583 4.64199 13.55 1.66699 9.44166 1.66699C4.32499 1.66699 1.74166 5.33366 1.74166 8.39199C1.63664 9.85836 2.2599 11.2825 3.40833 12.2003L4.49999 9.55866Z" stroke="white" stroke-width="1.5" stroke-linecap="round" stroke-linejoin="round"/>
</svg>
