<svg width="40" height="40" viewBox="0 0 40 40" fill="none"
    xmlns="http://www.w3.org/2000/svg">
    <circle cx="20" cy="20" r="19.25" stroke="#534CEA" stroke-width="1.5"/>
    <path d="M11.118 11.561C12.1128 11.1146 13.1439 10.7539 14.2 10.483L28.769 25.269C28.0577 26.9101 26.9862 28.3701 25.634 29.541L10.25 14.162V12.923M11.118 11.561C10.5857 11.8044 10.2459 12.3376 10.25 12.923M11.118 11.561C13.9182 10.3387 16.9449 9.72162 20 9.74996C23.0552 9.72162 26.0819 10.3387 28.882 11.561C29.4142 11.8046 29.754 12.3377 29.75 12.923V20.537C29.75 25.4635 26.7161 29.8812 22.118 31.65L21.077 32.05C20.0138 32.4451 20.0039 32.4492 18.923 32.05L17.882 31.65C13.284 29.8812 10.2501 25.4635 10.25 20.537L10.25 12.923" stroke="#534CEA" stroke-width="1.5" stroke-linecap="round" stroke-linejoin="round"/>
</svg>
