<svg width="22" height="18" viewBox="0 0 22 18" fill="none"
    xmlns="http://www.w3.org/2000/svg">
    <path fill-rule="evenodd" clip-rule="evenodd" d="M20.3167 4.59147L18.5667 3.84147L19.4833 1.84147L17.35 2.5498C16.6705 1.91641 15.7789 1.55976 14.85 1.5498C12.7808 1.55439 11.1046 3.23064 11.1 5.2998V6.13314C8.14998 6.74147 5.57498 5.13314 3.18332 2.38314C2.76665 4.60536 3.18332 6.27203 4.43332 7.38314L1.69165 6.96647C1.91025 8.78812 3.40178 10.1919 5.23332 10.2998L2.94165 11.1331C3.77498 12.7998 5.29165 13.0581 7.31665 13.2165C5.6615 14.3454 3.69463 14.9282 1.69165 14.8831C12.325 19.6081 18.5667 12.6665 18.5667 6.5498V5.85814L20.3167 4.59147Z" stroke="white" stroke-width="1.5" stroke-linecap="round" stroke-linejoin="round"/>
</svg>
