<svg width="507" height="321" viewBox="0 0 507 321" fill="none" xmlns="http://www.w3.org/2000/svg">
  <path d="M155.25 12C128.13 12 101.487 19.1389 78 32.6991C54.513 46.2593 35.0093 65.763 21.4491 89.25L74.9694 120.15C83.1056 106.058 94.8078 94.3556 108.9 86.2194C122.992 78.0833 138.978 73.8 155.25 73.8V12Z" fill="#D3365F"/>
  <path d="M21.4491 89.25C7.88886 112.737 0.749996 139.38 0.75 166.5L62.55 166.5C62.55 150.228 66.8333 134.242 74.9694 120.15L21.4491 89.25Z" fill="#29CFD6"/>
  <path d="M0.75 166.5C0.749998 193.62 7.88886 220.263 21.4491 243.75C35.0093 267.237 54.513 286.741 78 300.301L108.9 246.781C94.8078 238.644 83.1056 226.942 74.9694 212.85C66.8333 198.758 62.55 182.772 62.55 166.5H0.75Z" fill="#FFBC02"/>
  <path d="M78 300.301C95.571 310.446 114.968 317.03 135.084 319.678C155.199 322.327 175.64 320.987 195.238 315.736C214.835 310.484 233.207 301.424 249.304 289.073C265.4 276.722 278.906 261.321 289.051 243.75L235.531 212.85C229.444 223.393 221.34 232.633 211.682 240.044C202.024 247.455 191.001 252.891 179.243 256.041C167.484 259.192 155.22 259.996 143.15 258.407C131.081 256.818 119.443 252.867 108.9 246.781L78 300.301Z" fill="#1F32AD"/>
  <g filter="">
    <path d="M289.051 243.75C302.611 220.263 309.75 193.62 309.75 166.5C309.75 139.38 302.611 112.737 289.051 89.25C275.491 65.763 255.987 46.2593 232.5 32.6991C209.013 19.1389 182.37 12 155.25 12V73.8C171.522 73.8 187.508 78.0833 201.6 86.2194C215.692 94.3556 227.394 106.058 235.531 120.15C243.667 134.242 247.95 150.228 247.95 166.5C247.95 182.772 243.667 198.758 235.531 212.85L289.051 243.75Z" fill="#235EE7"/>
  </g>
  <g filter="url(#filter1_d)">
    <path d="M295.548 139.144L291.303 143.625C290.572 144.396 290.572 145.604 291.303 146.375L295.548 150.856C296.792 152.169 299 151.289 299 149.481V140.519C299 138.711 296.792 137.831 295.548 139.144Z" fill="#081833"/>
  </g>
  <g filter="url(#filter2_d)">
    <path d="M295 103C295 99.6863 297.686 97 301 97H473C476.314 97 479 99.6863 479 103V187C479 190.314 476.314 193 473 193H301C297.686 193 295 190.314 295 187V103Z" fill="#081833"/>
  </g>
  <path d="M324.696 169.256C323.117 169.256 321.624 169 320.216 168.488C318.829 167.955 317.624 167.187 316.6 166.184L317.4 164.616C318.552 165.64 319.704 166.376 320.856 166.824C322.008 167.272 323.288 167.496 324.696 167.496C326.509 167.496 327.917 167.101 328.92 166.312C329.944 165.501 330.456 164.392 330.456 162.984C330.456 162.109 330.211 161.427 329.72 160.936C329.251 160.424 328.611 160.019 327.8 159.72C327.011 159.421 326.136 159.165 325.176 158.952C324.237 158.717 323.288 158.461 322.328 158.184C321.368 157.907 320.483 157.544 319.672 157.096C318.883 156.648 318.243 156.051 317.752 155.304C317.283 154.557 317.048 153.587 317.048 152.392C317.048 151.133 317.379 150.024 318.04 149.064C318.701 148.083 319.619 147.325 320.792 146.792C321.965 146.237 323.299 145.96 324.792 145.96C325.752 145.96 326.68 146.077 327.576 146.312C328.493 146.547 329.347 146.888 330.136 147.336C330.947 147.763 331.661 148.296 332.28 148.936L331.48 150.504C329.645 148.648 327.416 147.72 324.792 147.72C323.021 147.72 321.624 148.136 320.6 148.968C319.576 149.8 319.064 150.931 319.064 152.36C319.064 153.32 319.299 154.077 319.768 154.632C320.259 155.187 320.909 155.635 321.72 155.976C322.531 156.296 323.405 156.573 324.344 156.808C325.304 157.043 326.253 157.288 327.192 157.544C328.152 157.8 329.027 158.141 329.816 158.568C330.627 158.973 331.267 159.528 331.736 160.232C332.227 160.936 332.472 161.843 332.472 162.952C332.472 164.211 332.141 165.309 331.48 166.248C330.819 167.187 329.901 167.923 328.728 168.456C327.555 168.989 326.211 169.256 324.696 169.256ZM324.024 172.712V168.904L324.056 167.912V147.176L324.024 146.312V142.504H325.816V146.312L325.784 147.176V167.912L325.816 168.904V172.712H324.024ZM340.939 169H338.795L350.059 146.952L350.316 147.912H337.099V146.216H351.756V147.688L340.939 169ZM364.255 169.256C361.695 169.256 359.754 168.275 358.431 166.312C357.108 164.328 356.447 161.427 356.447 157.608C356.447 153.768 357.098 150.867 358.399 148.904C359.722 146.941 361.674 145.96 364.255 145.96C366.836 145.96 368.778 146.941 370.079 148.904C371.402 150.867 372.063 153.757 372.063 157.576C372.063 161.395 371.402 164.296 370.079 166.28C368.756 168.264 366.815 169.256 364.255 169.256ZM364.255 167.496C366.218 167.496 367.668 166.696 368.607 165.096C369.567 163.475 370.047 160.968 370.047 157.576C370.047 154.184 369.578 151.699 368.639 150.12C367.7 148.52 366.239 147.72 364.255 147.72C362.292 147.72 360.831 148.52 359.871 150.12C358.932 151.72 358.463 154.205 358.463 157.576C358.463 160.947 358.932 163.443 359.871 165.064C360.831 166.685 362.292 167.496 364.255 167.496ZM377.714 172.424L376.722 171.624C377.234 171.048 377.565 170.525 377.714 170.056C377.864 169.608 377.938 169.139 377.938 168.648L378.61 169H376.69V166.216H379.41V168.296C379.41 169.043 379.282 169.757 379.026 170.44C378.792 171.123 378.354 171.784 377.714 172.424ZM392.328 169.224C390.963 169.224 389.619 168.968 388.296 168.456C386.974 167.944 385.843 167.229 384.904 166.312L385.736 164.744C386.782 165.64 387.848 166.323 388.936 166.792C390.024 167.261 391.155 167.496 392.328 167.496C393.992 167.496 395.304 167.005 396.264 166.024C397.246 165.021 397.736 163.688 397.736 162.024C397.736 160.957 397.523 160.019 397.096 159.208C396.67 158.376 396.062 157.736 395.272 157.288C394.504 156.819 393.587 156.584 392.52 156.584C391.326 156.584 390.28 156.829 389.384 157.32C388.488 157.789 387.71 158.525 387.048 159.528H385.512V146.216H398.888V147.912H387.496V157.928L386.856 157.832C387.454 156.893 388.254 156.157 389.256 155.624C390.259 155.091 391.39 154.824 392.648 154.824C394.12 154.824 395.379 155.133 396.424 155.752C397.491 156.349 398.302 157.192 398.856 158.28C399.432 159.368 399.72 160.616 399.72 162.024C399.72 163.432 399.422 164.68 398.824 165.768C398.227 166.856 397.374 167.709 396.264 168.328C395.155 168.925 393.843 169.224 392.328 169.224ZM411.644 169.256C409.084 169.256 407.142 168.275 405.82 166.312C404.497 164.328 403.836 161.427 403.836 157.608C403.836 153.768 404.486 150.867 405.788 148.904C407.11 146.941 409.062 145.96 411.644 145.96C414.225 145.96 416.166 146.941 417.468 148.904C418.79 150.867 419.452 153.757 419.452 157.576C419.452 161.395 418.79 164.296 417.468 166.28C416.145 168.264 414.204 169.256 411.644 169.256ZM411.644 167.496C413.606 167.496 415.057 166.696 415.996 165.096C416.956 163.475 417.436 160.968 417.436 157.576C417.436 154.184 416.966 151.699 416.028 150.12C415.089 148.52 413.628 147.72 411.644 147.72C409.681 147.72 408.22 148.52 407.26 150.12C406.321 151.72 405.852 154.205 405.852 157.576C405.852 160.947 406.321 163.443 407.26 165.064C408.22 166.685 409.681 167.496 411.644 167.496ZM431.471 169.256C428.911 169.256 426.97 168.275 425.647 166.312C424.325 164.328 423.663 161.427 423.663 157.608C423.663 153.768 424.314 150.867 425.615 148.904C426.938 146.941 428.89 145.96 431.471 145.96C434.053 145.96 435.994 146.941 437.295 148.904C438.618 150.867 439.279 153.757 439.279 157.576C439.279 161.395 438.618 164.296 437.295 166.28C435.973 168.264 434.031 169.256 431.471 169.256ZM431.471 167.496C433.434 167.496 434.885 166.696 435.823 165.096C436.783 163.475 437.263 160.968 437.263 157.576C437.263 154.184 436.794 151.699 435.855 150.12C434.917 148.52 433.455 147.72 431.471 147.72C429.509 147.72 428.047 148.52 427.087 150.12C426.149 151.72 425.679 154.205 425.679 157.576C425.679 160.947 426.149 163.443 427.087 165.064C428.047 166.685 429.509 167.496 431.471 167.496Z" fill="white"/>
  <path d="M320.056 129.128C319.469 129.128 318.915 129.08 318.392 128.984C317.869 128.877 317.384 128.717 316.936 128.504C316.488 128.291 316.088 128.035 315.736 127.736L316.312 126.504C316.888 126.952 317.469 127.277 318.056 127.48C318.653 127.683 319.325 127.784 320.072 127.784C320.925 127.784 321.587 127.624 322.056 127.304C322.525 126.973 322.76 126.52 322.76 125.944C322.76 125.592 322.648 125.304 322.424 125.08C322.2 124.856 321.88 124.675 321.464 124.536C321.059 124.397 320.579 124.264 320.024 124.136C319.427 124.008 318.877 123.864 318.376 123.704C317.875 123.533 317.443 123.325 317.08 123.08C316.717 122.835 316.435 122.531 316.232 122.168C316.04 121.805 315.944 121.363 315.944 120.84C315.944 120.189 316.12 119.608 316.472 119.096C316.824 118.584 317.315 118.189 317.944 117.912C318.584 117.624 319.336 117.48 320.2 117.48C320.733 117.48 321.245 117.533 321.736 117.64C322.227 117.747 322.68 117.907 323.096 118.12C323.512 118.323 323.88 118.573 324.2 118.872L323.592 120.104C323.08 119.667 322.547 119.347 321.992 119.144C321.437 118.931 320.845 118.824 320.216 118.824C319.395 118.824 318.749 118.995 318.28 119.336C317.811 119.677 317.576 120.152 317.576 120.76C317.576 121.133 317.677 121.437 317.88 121.672C318.083 121.896 318.376 122.083 318.76 122.232C319.155 122.381 319.624 122.52 320.168 122.648C320.776 122.787 321.336 122.941 321.848 123.112C322.36 123.272 322.808 123.469 323.192 123.704C323.576 123.928 323.875 124.216 324.088 124.568C324.301 124.909 324.408 125.336 324.408 125.848C324.408 126.509 324.232 127.085 323.88 127.576C323.528 128.067 323.027 128.451 322.376 128.728C321.725 128.995 320.952 129.128 320.056 129.128ZM325.143 122.184V120.936H330.551V122.184H325.143ZM330.535 127.624V128.936C330.343 129 330.151 129.043 329.959 129.064C329.767 129.096 329.559 129.112 329.335 129.112C328.514 129.112 327.868 128.883 327.399 128.424C326.94 127.955 326.711 127.267 326.711 126.36V118.92L328.327 118.36V126.232C328.327 126.627 328.386 126.936 328.503 127.16C328.62 127.373 328.78 127.528 328.983 127.624C329.196 127.709 329.431 127.752 329.687 127.752C329.836 127.752 329.975 127.741 330.103 127.72C330.231 127.699 330.375 127.667 330.535 127.624ZM335.515 129.112C334.715 129.112 334.017 128.941 333.419 128.6C332.833 128.259 332.379 127.779 332.059 127.16C331.739 126.531 331.579 125.784 331.579 124.92C331.579 124.077 331.739 123.341 332.059 122.712C332.379 122.083 332.833 121.597 333.419 121.256C334.017 120.915 334.715 120.744 335.515 120.744C336.305 120.744 336.993 120.915 337.579 121.256C338.177 121.597 338.635 122.083 338.955 122.712C339.286 123.341 339.451 124.077 339.451 124.92C339.451 125.784 339.286 126.531 338.955 127.16C338.635 127.779 338.177 128.259 337.579 128.6C336.993 128.941 336.305 129.112 335.515 129.112ZM335.515 127.832C336.241 127.832 336.801 127.587 337.195 127.096C337.601 126.605 337.803 125.88 337.803 124.92C337.803 123.992 337.601 123.283 337.195 122.792C336.801 122.291 336.241 122.04 335.515 122.04C334.79 122.04 334.219 122.291 333.803 122.792C333.398 123.283 333.195 123.992 333.195 124.92C333.195 125.88 333.393 126.605 333.787 127.096C334.193 127.587 334.769 127.832 335.515 127.832ZM344.828 129.112C344.018 129.112 343.314 128.941 342.716 128.6C342.13 128.259 341.676 127.779 341.356 127.16C341.036 126.541 340.876 125.811 340.876 124.968C340.876 124.125 341.042 123.389 341.372 122.76C341.703 122.12 342.167 121.624 342.764 121.272C343.372 120.92 344.087 120.744 344.908 120.744C345.463 120.744 346.002 120.835 346.524 121.016C347.047 121.197 347.474 121.453 347.804 121.784L347.308 122.952C346.935 122.653 346.556 122.429 346.172 122.28C345.799 122.131 345.415 122.056 345.02 122.056C344.252 122.056 343.644 122.307 343.196 122.808C342.759 123.309 342.54 124.024 342.54 124.952C342.54 125.88 342.759 126.589 343.196 127.08C343.634 127.571 344.242 127.816 345.02 127.816C345.404 127.816 345.788 127.741 346.172 127.592C346.556 127.443 346.935 127.219 347.308 126.92L347.804 128.088C347.463 128.408 347.026 128.659 346.492 128.84C345.959 129.021 345.404 129.112 344.828 129.112ZM354.781 129L350.621 124.888L354.509 120.952H356.509L352.173 125.304L352.237 124.392L356.845 129H354.781ZM349.309 129V117.224H350.925V129H349.309ZM360.531 129.112C359.123 129.112 358.009 128.771 357.187 128.088L357.683 126.92C358.11 127.251 358.558 127.496 359.027 127.656C359.507 127.805 360.025 127.88 360.579 127.88C361.134 127.88 361.555 127.789 361.843 127.608C362.131 127.416 362.275 127.149 362.275 126.808C362.275 126.52 362.174 126.296 361.971 126.136C361.779 125.965 361.449 125.821 360.979 125.704L359.619 125.384C358.915 125.235 358.377 124.973 358.003 124.6C357.641 124.216 357.459 123.741 357.459 123.176C357.459 122.696 357.593 122.275 357.859 121.912C358.126 121.549 358.499 121.267 358.979 121.064C359.459 120.851 360.019 120.744 360.659 120.744C361.235 120.744 361.779 120.835 362.291 121.016C362.803 121.187 363.246 121.443 363.619 121.784L363.123 122.92C362.729 122.611 362.323 122.381 361.907 122.232C361.502 122.072 361.086 121.992 360.659 121.992C360.137 121.992 359.731 122.093 359.443 122.296C359.155 122.488 359.011 122.76 359.011 123.112C359.011 123.4 359.097 123.629 359.267 123.8C359.449 123.96 359.747 124.088 360.163 124.184L361.523 124.52C362.302 124.691 362.873 124.963 363.235 125.336C363.598 125.709 363.779 126.189 363.779 126.776C363.779 127.491 363.486 128.061 362.899 128.488C362.323 128.904 361.534 129.112 360.531 129.112ZM369.902 125.352V124.04H374.558V125.352H369.902ZM380.328 129.112C379.581 129.112 378.861 128.995 378.168 128.76C377.474 128.515 376.898 128.179 376.44 127.752L377.032 126.52C377.544 126.936 378.066 127.251 378.6 127.464C379.133 127.667 379.693 127.768 380.28 127.768C381.058 127.768 381.64 127.608 382.024 127.288C382.418 126.957 382.616 126.461 382.616 125.8C382.616 125.16 382.413 124.685 382.008 124.376C381.602 124.056 380.989 123.896 380.168 123.896H378.776V122.552H379.911C380.701 122.552 381.298 122.387 381.704 122.056C382.12 121.725 382.328 121.245 382.328 120.616C382.328 120.04 382.157 119.597 381.816 119.288C381.474 118.979 380.989 118.824 380.36 118.824C379.816 118.824 379.277 118.931 378.744 119.144C378.221 119.347 377.704 119.656 377.192 120.072L376.6 118.84C377.058 118.424 377.629 118.093 378.312 117.848C379.005 117.603 379.714 117.48 380.44 117.48C381.144 117.48 381.762 117.603 382.296 117.848C382.829 118.083 383.234 118.424 383.512 118.872C383.8 119.32 383.944 119.843 383.944 120.44C383.944 121.133 383.762 121.725 383.4 122.216C383.037 122.707 382.536 123.043 381.896 123.224L381.864 123.064C382.621 123.224 383.202 123.549 383.608 124.04C384.013 124.531 384.216 125.155 384.216 125.912C384.216 126.904 383.864 127.688 383.16 128.264C382.466 128.829 381.522 129.112 380.328 129.112ZM390.081 129.128C388.759 129.128 387.751 128.637 387.057 127.656C386.364 126.664 386.017 125.213 386.017 123.304C386.017 121.405 386.359 119.96 387.041 118.968C387.735 117.976 388.748 117.48 390.081 117.48C391.415 117.48 392.423 117.976 393.105 118.968C393.799 119.96 394.145 121.4 394.145 123.288C394.145 125.197 393.799 126.648 393.105 127.64C392.412 128.632 391.404 129.128 390.081 129.128ZM390.081 127.8C390.913 127.8 391.521 127.437 391.905 126.712C392.3 125.987 392.497 124.845 392.497 123.288C392.497 121.741 392.3 120.611 391.905 119.896C391.521 119.181 390.913 118.824 390.081 118.824C389.249 118.824 388.636 119.187 388.241 119.912C387.857 120.627 387.665 121.752 387.665 123.288C387.665 124.845 387.857 125.987 388.241 126.712C388.636 127.437 389.249 127.8 390.081 127.8ZM397.915 124.504C397.115 124.504 396.48 124.216 396.011 123.64C395.552 123.053 395.323 122.179 395.323 121.016C395.323 119.843 395.552 118.973 396.011 118.408C396.48 117.832 397.115 117.544 397.915 117.544C398.715 117.544 399.344 117.832 399.803 118.408C400.262 118.973 400.491 119.843 400.491 121.016C400.491 122.179 400.262 123.053 399.803 123.64C399.344 124.216 398.715 124.504 397.915 124.504ZM397.915 123.4C398.31 123.4 398.603 123.213 398.795 122.84C398.987 122.467 399.083 121.859 399.083 121.016C399.083 120.184 398.987 119.581 398.795 119.208C398.603 118.835 398.31 118.648 397.915 118.648C397.52 118.648 397.227 118.835 397.035 119.208C396.843 119.581 396.747 120.184 396.747 121.016C396.747 121.859 396.843 122.467 397.035 122.84C397.227 123.213 397.52 123.4 397.915 123.4ZM397.675 129L404.283 117.608H405.819L399.243 129H397.675ZM405.579 129.064C404.779 129.064 404.144 128.776 403.675 128.2C403.216 127.613 402.987 126.739 402.987 125.576C402.987 124.403 403.216 123.533 403.675 122.968C404.144 122.392 404.779 122.104 405.579 122.104C406.379 122.104 407.008 122.392 407.467 122.968C407.926 123.533 408.155 124.403 408.155 125.576C408.155 126.739 407.926 127.613 407.467 128.2C407.008 128.776 406.379 129.064 405.579 129.064ZM405.579 127.96C405.974 127.96 406.267 127.773 406.459 127.4C406.651 127.027 406.747 126.419 406.747 125.576C406.747 124.744 406.651 124.141 406.459 123.768C406.267 123.395 405.974 123.208 405.579 123.208C405.184 123.208 404.891 123.395 404.699 123.768C404.507 124.141 404.411 124.744 404.411 125.576C404.411 126.419 404.507 127.027 404.699 127.4C404.891 127.773 405.184 127.96 405.579 127.96Z" fill="white"/>
  <defs>
    <filter id="filter0_d" x="139.25" y="0" width="186.5" height="263.75" filterUnits="userSpaceOnUse" color-interpolation-filters="sRGB">
      <feFlood flood-opacity="0" result="BackgroundImageFix"/>
      <feColorMatrix in="SourceAlpha" type="matrix" values="0 0 0 0 0 0 0 0 0 0 0 0 0 0 0 0 0 0 127 0"/>
      <feOffset dy="4"/>
      <feGaussianBlur stdDeviation="8"/>
      <feColorMatrix type="matrix" values="0 0 0 0 0.18 0 0 0 0 0.252615 0 0 0 0 0.42 0 0 0 0.4 0"/>
      <feBlend mode="normal" in2="BackgroundImageFix" result="effect1_dropShadow"/>
      <feBlend mode="normal" in="SourceGraphic" in2="effect1_dropShadow" result="shape"/>
    </filter>
    <filter id="filter1_d" x="262.756" y="114.516" width="64.245" height="68.9697" filterUnits="userSpaceOnUse" color-interpolation-filters="sRGB">
      <feFlood flood-opacity="0" result="BackgroundImageFix"/>
      <feColorMatrix in="SourceAlpha" type="matrix" values="0 0 0 0 0 0 0 0 0 0 0 0 0 0 0 0 0 0 127 0"/>
      <feOffset dy="4"/>
      <feGaussianBlur stdDeviation="14"/>
      <feColorMatrix type="matrix" values="0 0 0 0 0.0313726 0 0 0 0 0.0941176 0 0 0 0 0.2 0 0 0 0.44 0"/>
      <feBlend mode="normal" in2="BackgroundImageFix" result="effect1_dropShadow"/>
      <feBlend mode="normal" in="SourceGraphic" in2="effect1_dropShadow" result="shape"/>
    </filter>
    <filter id="filter2_d" x="267" y="73" width="240" height="152" filterUnits="userSpaceOnUse" color-interpolation-filters="sRGB">
      <feFlood flood-opacity="0" result="BackgroundImageFix"/>
      <feColorMatrix in="SourceAlpha" type="matrix" values="0 0 0 0 0 0 0 0 0 0 0 0 0 0 0 0 0 0 127 0"/>
      <feOffset dy="4"/>
      <feGaussianBlur stdDeviation="14"/>
      <feColorMatrix type="matrix" values="0 0 0 0 0.0313726 0 0 0 0 0.0941176 0 0 0 0 0.2 0 0 0 0.44 0"/>
      <feBlend mode="normal" in2="BackgroundImageFix" result="effect1_dropShadow"/>
      <feBlend mode="normal" in="SourceGraphic" in2="effect1_dropShadow" result="shape"/>
    </filter>
  </defs>
</svg>
