<svg width="544" height="530" viewBox="0 0 544 530" fill="none" xmlns="http://www.w3.org/2000/svg">
<path d="M296.423 525.16C295.437 525.16 294.503 525 293.623 524.68C292.757 524.347 292.003 523.867 291.363 523.24L291.863 522.26C292.583 522.9 293.303 523.36 294.023 523.64C294.743 523.92 295.543 524.06 296.423 524.06C297.557 524.06 298.437 523.813 299.063 523.32C299.703 522.813 300.023 522.12 300.023 521.24C300.023 520.693 299.87 520.267 299.563 519.96C299.27 519.64 298.87 519.387 298.363 519.2C297.87 519.013 297.323 518.853 296.723 518.72C296.137 518.573 295.543 518.413 294.943 518.24C294.343 518.067 293.79 517.84 293.283 517.56C292.79 517.28 292.39 516.907 292.083 516.44C291.79 515.973 291.643 515.367 291.643 514.62C291.643 513.833 291.85 513.14 292.263 512.54C292.677 511.927 293.25 511.453 293.983 511.12C294.717 510.773 295.55 510.6 296.483 510.6C297.083 510.6 297.663 510.673 298.223 510.82C298.797 510.967 299.33 511.18 299.823 511.46C300.33 511.727 300.777 512.06 301.163 512.46L300.663 513.44C299.517 512.28 298.123 511.7 296.483 511.7C295.377 511.7 294.503 511.96 293.863 512.48C293.223 513 292.903 513.707 292.903 514.6C292.903 515.2 293.05 515.673 293.343 516.02C293.65 516.367 294.057 516.647 294.563 516.86C295.07 517.06 295.617 517.233 296.203 517.38C296.803 517.527 297.397 517.68 297.983 517.84C298.583 518 299.13 518.213 299.623 518.48C300.13 518.733 300.53 519.08 300.823 519.52C301.13 519.96 301.283 520.527 301.283 521.22C301.283 522.007 301.077 522.693 300.663 523.28C300.25 523.867 299.677 524.327 298.943 524.66C298.21 524.993 297.37 525.16 296.423 525.16ZM296.003 527.32V524.94L296.023 524.32V511.36L296.003 510.82V508.44H297.123V510.82L297.103 511.36V524.32L297.123 524.94V527.32H296.003ZM304.115 525V524.06L309.175 518.42C309.882 517.607 310.395 516.887 310.715 516.26C311.049 515.62 311.215 514.973 311.215 514.32C311.215 513.48 310.969 512.833 310.475 512.38C309.995 511.913 309.302 511.68 308.395 511.68C307.675 511.68 306.975 511.827 306.295 512.12C305.629 512.4 304.962 512.827 304.295 513.4L303.775 512.42C304.335 511.873 305.035 511.433 305.875 511.1C306.715 510.767 307.555 510.6 308.395 510.6C309.235 510.6 309.955 510.747 310.555 511.04C311.169 511.333 311.642 511.76 311.975 512.32C312.309 512.867 312.475 513.52 312.475 514.28C312.475 515.093 312.282 515.887 311.895 516.66C311.522 517.42 310.909 518.28 310.055 519.24L305.035 524.72L305.015 523.94H313.095V525H304.115ZM320.208 524.46V511.28L321.008 511.88L317.268 514.3V513.04L320.748 510.76H321.448V524.46H320.208ZM317.048 525V523.94H324.608V525H317.048ZM328.36 527.14L327.74 526.64C328.06 526.28 328.267 525.953 328.36 525.66C328.453 525.38 328.5 525.087 328.5 524.78L328.92 525H327.72V523.26H329.42V524.56C329.42 525.027 329.34 525.473 329.18 525.9C329.033 526.327 328.76 526.74 328.36 527.14ZM336.773 525.16C335.173 525.16 333.96 524.547 333.133 523.32C332.307 522.08 331.893 520.267 331.893 517.88C331.893 515.48 332.3 513.667 333.113 512.44C333.94 511.213 335.16 510.6 336.773 510.6C338.387 510.6 339.6 511.213 340.413 512.44C341.24 513.667 341.653 515.473 341.653 517.86C341.653 520.247 341.24 522.06 340.413 523.3C339.587 524.54 338.373 525.16 336.773 525.16ZM336.773 524.06C338 524.06 338.907 523.56 339.493 522.56C340.093 521.547 340.393 519.98 340.393 517.86C340.393 515.74 340.1 514.187 339.513 513.2C338.927 512.2 338.013 511.7 336.773 511.7C335.547 511.7 334.633 512.2 334.033 513.2C333.447 514.2 333.153 515.753 333.153 517.86C333.153 519.967 333.447 521.527 334.033 522.54C334.633 523.553 335.547 524.06 336.773 524.06ZM348.766 525.16C347.166 525.16 345.952 524.547 345.126 523.32C344.299 522.08 343.886 520.267 343.886 517.88C343.886 515.48 344.292 513.667 345.106 512.44C345.932 511.213 347.152 510.6 348.766 510.6C350.379 510.6 351.592 511.213 352.406 512.44C353.232 513.667 353.646 515.473 353.646 517.86C353.646 520.247 353.232 522.06 352.406 523.3C351.579 524.54 350.366 525.16 348.766 525.16ZM348.766 524.06C349.992 524.06 350.899 523.56 351.486 522.56C352.086 521.547 352.386 519.98 352.386 517.86C352.386 515.74 352.092 514.187 351.506 513.2C350.919 512.2 350.006 511.7 348.766 511.7C347.539 511.7 346.626 512.2 346.026 513.2C345.439 514.2 345.146 515.753 345.146 517.86C345.146 519.967 345.439 521.527 346.026 522.54C346.626 523.553 347.539 524.06 348.766 524.06ZM360.758 525.16C359.158 525.16 357.944 524.547 357.118 523.32C356.291 522.08 355.878 520.267 355.878 517.88C355.878 515.48 356.284 513.667 357.098 512.44C357.924 511.213 359.144 510.6 360.758 510.6C362.371 510.6 363.584 511.213 364.398 512.44C365.224 513.667 365.638 515.473 365.638 517.86C365.638 520.247 365.224 522.06 364.398 523.3C363.571 524.54 362.358 525.16 360.758 525.16ZM360.758 524.06C361.984 524.06 362.891 523.56 363.478 522.56C364.078 521.547 364.378 519.98 364.378 517.86C364.378 515.74 364.084 514.187 363.498 513.2C362.911 512.2 361.998 511.7 360.758 511.7C359.531 511.7 358.618 512.2 358.018 513.2C357.431 514.2 357.138 515.753 357.138 517.86C357.138 519.967 357.431 521.527 358.018 522.54C358.618 523.553 359.531 524.06 360.758 524.06Z" fill="#969EAC"/>
<path d="M59.126 525V513.608H63.718C64.966 513.608 65.9153 513.885 66.566 514.44C67.2273 514.984 67.558 515.773 67.558 516.808C67.558 517.789 67.222 518.563 66.55 519.128C65.878 519.693 64.9393 519.976 63.734 519.976L64.934 519.752C65.35 519.752 65.7073 519.869 66.006 520.104C66.3047 520.328 66.5447 520.691 66.726 521.192L68.166 525H66.582L65.174 521.208C65.0033 520.749 64.7633 520.445 64.454 520.296C64.1553 520.147 63.7553 520.072 63.254 520.072H60.582V525H59.126ZM60.582 518.872H63.574C64.438 518.872 65.078 518.701 65.494 518.36C65.91 518.008 66.118 517.496 66.118 516.824C66.118 516.141 65.91 515.635 65.494 515.304C65.0887 514.973 64.4487 514.808 63.574 514.808H60.582V518.872ZM76.747 524.056C76.395 524.387 75.9417 524.648 75.387 524.84C74.8323 525.021 74.267 525.112 73.691 525.112C72.8483 525.112 72.123 524.947 71.515 524.616C70.907 524.285 70.4377 523.811 70.107 523.192C69.7763 522.563 69.611 521.816 69.611 520.952C69.611 520.12 69.771 519.389 70.091 518.76C70.4217 518.131 70.875 517.64 71.451 517.288C72.027 516.925 72.6883 516.744 73.435 516.744C74.1603 516.744 74.779 516.904 75.291 517.224C75.8137 517.544 76.2083 518.003 76.475 518.6C76.7523 519.187 76.891 519.891 76.891 520.712V520.968H70.891V520.072H76.059L75.611 520.648C75.6323 519.741 75.4563 519.048 75.083 518.568C74.7097 518.088 74.1657 517.848 73.451 517.848C72.7043 517.848 72.1177 518.115 71.691 518.648C71.275 519.171 71.067 519.907 71.067 520.856C71.067 521.88 71.291 522.653 71.739 523.176C72.187 523.688 72.8483 523.944 73.723 523.944C74.1923 523.944 74.6403 523.869 75.067 523.72C75.4937 523.56 75.899 523.325 76.283 523.016L76.747 524.056ZM81.8978 525.112C81.1938 525.112 80.5698 524.947 80.0258 524.616C79.4924 524.275 79.0764 523.795 78.7778 523.176C78.4791 522.547 78.3298 521.811 78.3298 520.968C78.3298 520.125 78.4791 519.389 78.7778 518.76C79.0871 518.131 79.5084 517.64 80.0418 517.288C80.5858 516.925 81.2044 516.744 81.8978 516.744C82.6231 516.744 83.2418 516.925 83.7538 517.288C84.2658 517.64 84.6124 518.147 84.7938 518.808L84.6018 518.92V516.952H86.0417V525H84.6018V522.984L84.7938 523.064C84.6124 523.715 84.2658 524.221 83.7538 524.584C83.2418 524.936 82.6231 525.112 81.8978 525.112ZM82.2178 523.928C82.9858 523.928 83.5724 523.672 83.9778 523.16C84.3938 522.637 84.6018 521.896 84.6018 520.936C84.6018 519.976 84.3938 519.24 83.9778 518.728C83.5618 518.205 82.9751 517.944 82.2178 517.944C81.4604 517.944 80.8684 518.211 80.4418 518.744C80.0151 519.277 79.8018 520.019 79.8018 520.968C79.8018 521.917 80.0151 522.648 80.4418 523.16C80.8684 523.672 81.4604 523.928 82.2178 523.928ZM88.466 525V513.224H89.922V525H88.466ZM96.7354 525V513.608H104.015V514.824H98.1914V518.6H103.695V519.832H98.1914V523.784H104.015V525H96.7354ZM108.781 525.112C107.405 525.112 106.312 524.765 105.501 524.072L105.965 523.016C106.392 523.347 106.834 523.592 107.293 523.752C107.762 523.901 108.274 523.976 108.829 523.976C109.405 523.976 109.842 523.88 110.141 523.688C110.45 523.485 110.605 523.197 110.605 522.824C110.605 522.525 110.498 522.291 110.285 522.12C110.082 521.939 109.741 521.789 109.261 521.672L107.917 521.352C107.224 521.203 106.69 520.936 106.317 520.552C105.954 520.168 105.773 519.704 105.773 519.16C105.773 518.691 105.901 518.275 106.157 517.912C106.424 517.549 106.792 517.267 107.261 517.064C107.73 516.851 108.285 516.744 108.925 516.744C109.49 516.744 110.024 516.835 110.525 517.016C111.037 517.197 111.469 517.459 111.821 517.8L111.357 518.84C110.973 518.52 110.578 518.285 110.173 518.136C109.768 517.976 109.346 517.896 108.909 517.896C108.365 517.896 107.938 518.003 107.629 518.216C107.33 518.429 107.181 518.717 107.181 519.08C107.181 519.389 107.277 519.635 107.469 519.816C107.661 519.997 107.965 520.141 108.381 520.248L109.741 520.584C110.509 520.744 111.074 521.011 111.437 521.384C111.8 521.747 111.981 522.216 111.981 522.792C111.981 523.496 111.693 524.061 111.117 524.488C110.541 524.904 109.762 525.112 108.781 525.112ZM112.784 518.072V516.952H118.064V518.072H112.784ZM118.032 523.736V524.952C117.851 525.005 117.664 525.043 117.472 525.064C117.291 525.096 117.093 525.112 116.88 525.112C116.091 525.112 115.467 524.888 115.008 524.44C114.56 523.992 114.336 523.331 114.336 522.456V514.904L115.792 514.392V522.296C115.792 522.712 115.851 523.037 115.968 523.272C116.096 523.496 116.261 523.656 116.464 523.752C116.677 523.837 116.917 523.88 117.184 523.88C117.333 523.88 117.472 523.869 117.6 523.848C117.728 523.827 117.872 523.789 118.032 523.736ZM122.695 525.112C121.991 525.112 121.367 524.947 120.823 524.616C120.289 524.275 119.873 523.795 119.575 523.176C119.276 522.547 119.127 521.811 119.127 520.968C119.127 520.125 119.276 519.389 119.575 518.76C119.884 518.131 120.305 517.64 120.839 517.288C121.383 516.925 122.001 516.744 122.695 516.744C123.42 516.744 124.039 516.925 124.551 517.288C125.063 517.64 125.409 518.147 125.591 518.808L125.399 518.92V516.952H126.839V525H125.399V522.984L125.591 523.064C125.409 523.715 125.063 524.221 124.551 524.584C124.039 524.936 123.42 525.112 122.695 525.112ZM123.015 523.928C123.783 523.928 124.369 523.672 124.775 523.16C125.191 522.637 125.399 521.896 125.399 520.936C125.399 519.976 125.191 519.24 124.775 518.728C124.359 518.205 123.772 517.944 123.015 517.944C122.257 517.944 121.665 518.211 121.239 518.744C120.812 519.277 120.599 520.019 120.599 520.968C120.599 521.917 120.812 522.648 121.239 523.16C121.665 523.672 122.257 523.928 123.015 523.928ZM128.159 518.072V516.952H133.439V518.072H128.159ZM133.407 523.736V524.952C133.226 525.005 133.039 525.043 132.847 525.064C132.666 525.096 132.468 525.112 132.255 525.112C131.466 525.112 130.842 524.888 130.383 524.44C129.935 523.992 129.711 523.331 129.711 522.456V514.904L131.167 514.392V522.296C131.167 522.712 131.226 523.037 131.343 523.272C131.471 523.496 131.636 523.656 131.839 523.752C132.052 523.837 132.292 523.88 132.559 523.88C132.708 523.88 132.847 523.869 132.975 523.848C133.103 523.827 133.247 523.789 133.407 523.736ZM141.638 524.056C141.286 524.387 140.832 524.648 140.278 524.84C139.723 525.021 139.158 525.112 138.582 525.112C137.739 525.112 137.014 524.947 136.406 524.616C135.798 524.285 135.328 523.811 134.998 523.192C134.667 522.563 134.502 521.816 134.502 520.952C134.502 520.12 134.662 519.389 134.982 518.76C135.312 518.131 135.766 517.64 136.342 517.288C136.918 516.925 137.579 516.744 138.326 516.744C139.051 516.744 139.67 516.904 140.182 517.224C140.704 517.544 141.099 518.003 141.366 518.6C141.643 519.187 141.782 519.891 141.782 520.712V520.968H135.782V520.072H140.95L140.502 520.648C140.523 519.741 140.347 519.048 139.974 518.568C139.6 518.088 139.056 517.848 138.342 517.848C137.595 517.848 137.008 518.115 136.582 518.648C136.166 519.171 135.958 519.907 135.958 520.856C135.958 521.88 136.182 522.653 136.63 523.176C137.078 523.688 137.739 523.944 138.614 523.944C139.083 523.944 139.531 523.869 139.958 523.72C140.384 523.56 140.79 523.325 141.174 523.016L141.638 524.056ZM147.855 521.288V520.104H152.447V521.288H147.855ZM158.09 524.328V514.552L158.906 514.888L155.754 516.872V515.48L158.73 513.608H159.578V524.328H158.09ZM155.578 525V523.768H162.09V525H155.578ZM167.988 525.128C166.676 525.128 165.678 524.637 164.996 523.656C164.313 522.664 163.972 521.213 163.972 519.304C163.972 517.395 164.308 515.949 164.98 514.968C165.662 513.976 166.665 513.48 167.988 513.48C169.31 513.48 170.308 513.976 170.98 514.968C171.662 515.949 172.003 517.389 172.003 519.288C172.003 521.197 171.662 522.648 170.98 523.64C170.297 524.632 169.3 525.128 167.988 525.128ZM167.988 523.912C168.852 523.912 169.486 523.539 169.892 522.792C170.308 522.045 170.516 520.877 170.516 519.288C170.516 517.699 170.308 516.541 169.892 515.816C169.486 515.08 168.852 514.712 167.988 514.712C167.124 514.712 166.484 515.08 166.068 515.816C165.662 516.552 165.46 517.709 165.46 519.288C165.46 520.877 165.662 522.045 166.068 522.792C166.484 523.539 167.124 523.912 167.988 523.912ZM175.821 520.504C175.032 520.504 174.408 520.216 173.949 519.64C173.491 519.064 173.261 518.189 173.261 517.016C173.261 515.832 173.491 514.957 173.949 514.392C174.408 513.827 175.032 513.544 175.821 513.544C176.611 513.544 177.229 513.827 177.677 514.392C178.136 514.957 178.365 515.832 178.365 517.016C178.365 518.189 178.136 519.064 177.677 519.64C177.229 520.216 176.611 520.504 175.821 520.504ZM175.821 519.496C176.237 519.496 176.547 519.304 176.749 518.92C176.963 518.525 177.069 517.891 177.069 517.016C177.069 516.152 176.963 515.528 176.749 515.144C176.547 514.749 176.237 514.552 175.821 514.552C175.405 514.552 175.091 514.749 174.877 515.144C174.675 515.528 174.573 516.152 174.573 517.016C174.573 517.891 174.675 518.525 174.877 518.92C175.091 519.304 175.405 519.496 175.821 519.496ZM175.597 525L182.189 513.608H183.581L177.005 525H175.597ZM183.357 525.064C182.568 525.064 181.944 524.776 181.485 524.2C181.027 523.624 180.797 522.749 180.797 521.576C180.797 520.392 181.027 519.517 181.485 518.952C181.944 518.387 182.568 518.104 183.357 518.104C184.147 518.104 184.765 518.387 185.213 518.952C185.672 519.517 185.901 520.392 185.901 521.576C185.901 522.749 185.672 523.624 185.213 524.2C184.765 524.776 184.147 525.064 183.357 525.064ZM183.357 524.056C183.773 524.056 184.083 523.864 184.285 523.48C184.499 523.085 184.605 522.451 184.605 521.576C184.605 520.712 184.499 520.088 184.285 519.704C184.083 519.309 183.773 519.112 183.357 519.112C182.941 519.112 182.627 519.309 182.413 519.704C182.211 520.088 182.109 520.712 182.109 521.576C182.109 522.451 182.211 523.085 182.413 523.48C182.627 523.864 182.941 524.056 183.357 524.056Z" fill="#969EAC"/>
<rect x="17.75" y="509" width="18" height="18" rx="2" fill="#D3365F"/>
<path d="M296.423 489.16C295.437 489.16 294.503 489 293.623 488.68C292.757 488.347 292.003 487.867 291.363 487.24L291.863 486.26C292.583 486.9 293.303 487.36 294.023 487.64C294.743 487.92 295.543 488.06 296.423 488.06C297.557 488.06 298.437 487.813 299.063 487.32C299.703 486.813 300.023 486.12 300.023 485.24C300.023 484.693 299.87 484.267 299.563 483.96C299.27 483.64 298.87 483.387 298.363 483.2C297.87 483.013 297.323 482.853 296.723 482.72C296.137 482.573 295.543 482.413 294.943 482.24C294.343 482.067 293.79 481.84 293.283 481.56C292.79 481.28 292.39 480.907 292.083 480.44C291.79 479.973 291.643 479.367 291.643 478.62C291.643 477.833 291.85 477.14 292.263 476.54C292.677 475.927 293.25 475.453 293.983 475.12C294.717 474.773 295.55 474.6 296.483 474.6C297.083 474.6 297.663 474.673 298.223 474.82C298.797 474.967 299.33 475.18 299.823 475.46C300.33 475.727 300.777 476.06 301.163 476.46L300.663 477.44C299.517 476.28 298.123 475.7 296.483 475.7C295.377 475.7 294.503 475.96 293.863 476.48C293.223 477 292.903 477.707 292.903 478.6C292.903 479.2 293.05 479.673 293.343 480.02C293.65 480.367 294.057 480.647 294.563 480.86C295.07 481.06 295.617 481.233 296.203 481.38C296.803 481.527 297.397 481.68 297.983 481.84C298.583 482 299.13 482.213 299.623 482.48C300.13 482.733 300.53 483.08 300.823 483.52C301.13 483.96 301.283 484.527 301.283 485.22C301.283 486.007 301.077 486.693 300.663 487.28C300.25 487.867 299.677 488.327 298.943 488.66C298.21 488.993 297.37 489.16 296.423 489.16ZM296.003 491.32V488.94L296.023 488.32V475.36L296.003 474.82V472.44H297.123V474.82L297.103 475.36V488.32L297.123 488.94V491.32H296.003ZM308.275 489.14C307.369 489.14 306.502 488.98 305.675 488.66C304.849 488.34 304.142 487.893 303.555 487.32L304.075 486.34C304.729 486.913 305.395 487.347 306.075 487.64C306.769 487.92 307.502 488.06 308.275 488.06C309.315 488.06 310.115 487.813 310.675 487.32C311.249 486.813 311.535 486.093 311.535 485.16C311.535 484.2 311.235 483.487 310.635 483.02C310.049 482.54 309.182 482.3 308.035 482.3H306.495V481.22H307.715C308.835 481.22 309.695 480.96 310.295 480.44C310.909 479.92 311.215 479.187 311.215 478.24C311.215 477.427 310.969 476.8 310.475 476.36C309.982 475.907 309.289 475.68 308.395 475.68C307.662 475.68 306.962 475.827 306.295 476.12C305.629 476.4 304.962 476.827 304.295 477.4L303.775 476.42C304.349 475.847 305.042 475.4 305.855 475.08C306.682 474.76 307.535 474.6 308.415 474.6C309.242 474.6 309.962 474.747 310.575 475.04C311.189 475.333 311.655 475.753 311.975 476.3C312.309 476.833 312.475 477.473 312.475 478.22C312.462 479.1 312.222 479.86 311.755 480.5C311.302 481.14 310.675 481.567 309.875 481.78L309.795 481.58C310.769 481.78 311.509 482.187 312.015 482.8C312.522 483.4 312.775 484.187 312.775 485.16C312.775 486.387 312.369 487.36 311.555 488.08C310.742 488.787 309.649 489.14 308.275 489.14ZM322.148 489V476.3H322.608L316.228 485.52L316.248 484.7H325.588V485.76H315.428V484.82L322.368 474.76H323.388V489H322.148ZM328.36 491.14L327.74 490.64C328.06 490.28 328.267 489.953 328.36 489.66C328.453 489.38 328.5 489.087 328.5 488.78L328.92 489H327.72V487.26H329.42V488.56C329.42 489.027 329.34 489.473 329.18 489.9C329.033 490.327 328.76 490.74 328.36 491.14ZM336.773 489.16C335.173 489.16 333.96 488.547 333.133 487.32C332.307 486.08 331.893 484.267 331.893 481.88C331.893 479.48 332.3 477.667 333.113 476.44C333.94 475.213 335.16 474.6 336.773 474.6C338.387 474.6 339.6 475.213 340.413 476.44C341.24 477.667 341.653 479.473 341.653 481.86C341.653 484.247 341.24 486.06 340.413 487.3C339.587 488.54 338.373 489.16 336.773 489.16ZM336.773 488.06C338 488.06 338.907 487.56 339.493 486.56C340.093 485.547 340.393 483.98 340.393 481.86C340.393 479.74 340.1 478.187 339.513 477.2C338.927 476.2 338.013 475.7 336.773 475.7C335.547 475.7 334.633 476.2 334.033 477.2C333.447 478.2 333.153 479.753 333.153 481.86C333.153 483.967 333.447 485.527 334.033 486.54C334.633 487.553 335.547 488.06 336.773 488.06ZM348.766 489.16C347.166 489.16 345.952 488.547 345.126 487.32C344.299 486.08 343.886 484.267 343.886 481.88C343.886 479.48 344.292 477.667 345.106 476.44C345.932 475.213 347.152 474.6 348.766 474.6C350.379 474.6 351.592 475.213 352.406 476.44C353.232 477.667 353.646 479.473 353.646 481.86C353.646 484.247 353.232 486.06 352.406 487.3C351.579 488.54 350.366 489.16 348.766 489.16ZM348.766 488.06C349.992 488.06 350.899 487.56 351.486 486.56C352.086 485.547 352.386 483.98 352.386 481.86C352.386 479.74 352.092 478.187 351.506 477.2C350.919 476.2 350.006 475.7 348.766 475.7C347.539 475.7 346.626 476.2 346.026 477.2C345.439 478.2 345.146 479.753 345.146 481.86C345.146 483.967 345.439 485.527 346.026 486.54C346.626 487.553 347.539 488.06 348.766 488.06ZM360.758 489.16C359.158 489.16 357.944 488.547 357.118 487.32C356.291 486.08 355.878 484.267 355.878 481.88C355.878 479.48 356.284 477.667 357.098 476.44C357.924 475.213 359.144 474.6 360.758 474.6C362.371 474.6 363.584 475.213 364.398 476.44C365.224 477.667 365.638 479.473 365.638 481.86C365.638 484.247 365.224 486.06 364.398 487.3C363.571 488.54 362.358 489.16 360.758 489.16ZM360.758 488.06C361.984 488.06 362.891 487.56 363.478 486.56C364.078 485.547 364.378 483.98 364.378 481.86C364.378 479.74 364.084 478.187 363.498 477.2C362.911 476.2 361.998 475.7 360.758 475.7C359.531 475.7 358.618 476.2 358.018 477.2C357.431 478.2 357.138 479.753 357.138 481.86C357.138 483.967 357.431 485.527 358.018 486.54C358.618 487.553 359.531 488.06 360.758 488.06Z" fill="#969EAC"/>
<path d="M59.126 489V477.608H60.342L64.886 487.96H64.246L68.758 477.608H69.958V489H68.614V479.624L69.11 479.688L65.062 489H64.038L59.926 479.688L60.47 479.624L60.486 489H59.126ZM75.4081 489.112C74.4375 489.112 73.7068 488.845 73.2161 488.312C72.7361 487.768 72.4961 486.968 72.4961 485.912V480.952H73.9521V485.896C73.9521 486.589 74.0908 487.101 74.3681 487.432C74.6561 487.752 75.0935 487.912 75.6801 487.912C76.3628 487.912 76.9121 487.693 77.3281 487.256C77.7441 486.808 77.9521 486.216 77.9521 485.48V480.952H79.4241V489H78.0001V487.272L78.1921 487.192C77.9788 487.821 77.6215 488.301 77.1201 488.632C76.6188 488.952 76.0481 489.112 75.4081 489.112ZM81.841 489V483.208C81.841 482.835 81.8303 482.461 81.809 482.088C81.7983 481.704 81.7663 481.325 81.713 480.952H83.089L83.233 482.6L83.073 482.696C83.3077 482.067 83.681 481.587 84.193 481.256C84.7157 480.915 85.313 480.744 85.985 480.744C87.9157 480.744 88.881 481.816 88.881 483.96V489H87.425V484.04C87.425 483.315 87.281 482.787 86.993 482.456C86.7157 482.115 86.2677 481.944 85.649 481.944C84.9343 481.944 84.3637 482.168 83.937 482.616C83.5103 483.053 83.297 483.645 83.297 484.392V489H81.841ZM91.2629 489V480.952H92.7189V489H91.2629ZM91.1349 477.48H92.8469V479.064H91.1349V477.48ZM97.9215 489.112C96.5455 489.112 95.4522 488.765 94.6415 488.072L95.1055 487.016C95.5322 487.347 95.9748 487.592 96.4335 487.752C96.9028 487.901 97.4148 487.976 97.9695 487.976C98.5455 487.976 98.9828 487.88 99.2815 487.688C99.5908 487.485 99.7455 487.197 99.7455 486.824C99.7455 486.525 99.6388 486.291 99.4255 486.12C99.2228 485.939 98.8815 485.789 98.4015 485.672L97.0575 485.352C96.3642 485.203 95.8308 484.936 95.4575 484.552C95.0948 484.168 94.9135 483.704 94.9135 483.16C94.9135 482.691 95.0415 482.275 95.2975 481.912C95.5642 481.549 95.9322 481.267 96.4015 481.064C96.8708 480.851 97.4255 480.744 98.0655 480.744C98.6308 480.744 99.1642 480.835 99.6655 481.016C100.178 481.197 100.61 481.459 100.962 481.8L100.498 482.84C100.114 482.52 99.7188 482.285 99.3135 482.136C98.9082 481.976 98.4868 481.896 98.0495 481.896C97.5055 481.896 97.0788 482.003 96.7695 482.216C96.4708 482.429 96.3215 482.717 96.3215 483.08C96.3215 483.389 96.4175 483.635 96.6095 483.816C96.8015 483.997 97.1055 484.141 97.5215 484.248L98.8815 484.584C99.6495 484.744 100.215 485.011 100.578 485.384C100.94 485.747 101.122 486.216 101.122 486.792C101.122 487.496 100.834 488.061 100.258 488.488C99.6815 488.904 98.9028 489.112 97.9215 489.112ZM107.261 485.288V484.104H111.853V485.288H107.261ZM118.936 489V479.464H119.352L114.792 486.024L114.808 485.368H122.104V486.568H113.752V485.464L119.192 477.608H120.408V489H118.936ZM127.538 489.112C126.834 489.112 126.14 488.989 125.458 488.744C124.786 488.499 124.22 488.157 123.762 487.72L124.306 486.6C124.828 487.027 125.356 487.352 125.89 487.576C126.423 487.789 126.972 487.896 127.538 487.896C128.316 487.896 128.924 487.683 129.362 487.256C129.799 486.819 130.018 486.221 130.018 485.464C130.018 484.984 129.916 484.563 129.714 484.2C129.522 483.837 129.244 483.555 128.882 483.352C128.53 483.139 128.114 483.032 127.634 483.032C127.111 483.032 126.636 483.139 126.21 483.352C125.783 483.555 125.41 483.864 125.09 484.28H124.098V477.608H130.994V478.808H125.57V483.224L125.106 483.176C125.415 482.739 125.81 482.403 126.29 482.168C126.77 481.933 127.308 481.816 127.906 481.816C128.631 481.816 129.26 481.971 129.794 482.28C130.327 482.579 130.738 483 131.026 483.544C131.314 484.088 131.458 484.717 131.458 485.432C131.458 486.157 131.298 486.797 130.978 487.352C130.658 487.907 130.204 488.339 129.618 488.648C129.031 488.957 128.338 489.112 127.538 489.112ZM135.228 484.504C134.438 484.504 133.814 484.216 133.356 483.64C132.897 483.064 132.668 482.189 132.668 481.016C132.668 479.832 132.897 478.957 133.356 478.392C133.814 477.827 134.438 477.544 135.228 477.544C136.017 477.544 136.636 477.827 137.084 478.392C137.542 478.957 137.772 479.832 137.772 481.016C137.772 482.189 137.542 483.064 137.084 483.64C136.636 484.216 136.017 484.504 135.228 484.504ZM135.228 483.496C135.644 483.496 135.953 483.304 136.156 482.92C136.369 482.525 136.476 481.891 136.476 481.016C136.476 480.152 136.369 479.528 136.156 479.144C135.953 478.749 135.644 478.552 135.228 478.552C134.812 478.552 134.497 478.749 134.284 479.144C134.081 479.528 133.98 480.152 133.98 481.016C133.98 481.891 134.081 482.525 134.284 482.92C134.497 483.304 134.812 483.496 135.228 483.496ZM135.004 489L141.595 477.608H142.988L136.411 489H135.004ZM142.764 489.064C141.974 489.064 141.35 488.776 140.892 488.2C140.433 487.624 140.204 486.749 140.204 485.576C140.204 484.392 140.433 483.517 140.892 482.952C141.35 482.387 141.974 482.104 142.764 482.104C143.553 482.104 144.172 482.387 144.62 482.952C145.078 483.517 145.308 484.392 145.308 485.576C145.308 486.749 145.078 487.624 144.62 488.2C144.172 488.776 143.553 489.064 142.764 489.064ZM142.764 488.056C143.18 488.056 143.489 487.864 143.692 487.48C143.905 487.085 144.012 486.451 144.012 485.576C144.012 484.712 143.905 484.088 143.692 483.704C143.489 483.309 143.18 483.112 142.764 483.112C142.348 483.112 142.033 483.309 141.82 483.704C141.617 484.088 141.516 484.712 141.516 485.576C141.516 486.451 141.617 487.085 141.82 487.48C142.033 487.864 142.348 488.056 142.764 488.056Z" fill="#969EAC"/>
<rect x="17.75" y="473" width="18" height="18" rx="2" fill="#29CFD6"/>
<path d="M296.423 453.16C295.437 453.16 294.503 453 293.623 452.68C292.757 452.347 292.003 451.867 291.363 451.24L291.863 450.26C292.583 450.9 293.303 451.36 294.023 451.64C294.743 451.92 295.543 452.06 296.423 452.06C297.557 452.06 298.437 451.813 299.063 451.32C299.703 450.813 300.023 450.12 300.023 449.24C300.023 448.693 299.87 448.267 299.563 447.96C299.27 447.64 298.87 447.387 298.363 447.2C297.87 447.013 297.323 446.853 296.723 446.72C296.137 446.573 295.543 446.413 294.943 446.24C294.343 446.067 293.79 445.84 293.283 445.56C292.79 445.28 292.39 444.907 292.083 444.44C291.79 443.973 291.643 443.367 291.643 442.62C291.643 441.833 291.85 441.14 292.263 440.54C292.677 439.927 293.25 439.453 293.983 439.12C294.717 438.773 295.55 438.6 296.483 438.6C297.083 438.6 297.663 438.673 298.223 438.82C298.797 438.967 299.33 439.18 299.823 439.46C300.33 439.727 300.777 440.06 301.163 440.46L300.663 441.44C299.517 440.28 298.123 439.7 296.483 439.7C295.377 439.7 294.503 439.96 293.863 440.48C293.223 441 292.903 441.707 292.903 442.6C292.903 443.2 293.05 443.673 293.343 444.02C293.65 444.367 294.057 444.647 294.563 444.86C295.07 445.06 295.617 445.233 296.203 445.38C296.803 445.527 297.397 445.68 297.983 445.84C298.583 446 299.13 446.213 299.623 446.48C300.13 446.733 300.53 447.08 300.823 447.52C301.13 447.96 301.283 448.527 301.283 449.22C301.283 450.007 301.077 450.693 300.663 451.28C300.25 451.867 299.677 452.327 298.943 452.66C298.21 452.993 297.37 453.16 296.423 453.16ZM296.003 455.32V452.94L296.023 452.32V439.36L296.003 438.82V436.44H297.123V438.82L297.103 439.36V452.32L297.123 452.94V455.32H296.003ZM308.275 453.14C307.369 453.14 306.502 452.98 305.675 452.66C304.849 452.34 304.142 451.893 303.555 451.32L304.075 450.34C304.729 450.913 305.395 451.347 306.075 451.64C306.769 451.92 307.502 452.06 308.275 452.06C309.315 452.06 310.115 451.813 310.675 451.32C311.249 450.813 311.535 450.093 311.535 449.16C311.535 448.2 311.235 447.487 310.635 447.02C310.049 446.54 309.182 446.3 308.035 446.3H306.495V445.22H307.715C308.835 445.22 309.695 444.96 310.295 444.44C310.909 443.92 311.215 443.187 311.215 442.24C311.215 441.427 310.969 440.8 310.475 440.36C309.982 439.907 309.289 439.68 308.395 439.68C307.662 439.68 306.962 439.827 306.295 440.12C305.629 440.4 304.962 440.827 304.295 441.4L303.775 440.42C304.349 439.847 305.042 439.4 305.855 439.08C306.682 438.76 307.535 438.6 308.415 438.6C309.242 438.6 309.962 438.747 310.575 439.04C311.189 439.333 311.655 439.753 311.975 440.3C312.309 440.833 312.475 441.473 312.475 442.22C312.462 443.1 312.222 443.86 311.755 444.5C311.302 445.14 310.675 445.567 309.875 445.78L309.795 445.58C310.769 445.78 311.509 446.187 312.015 446.8C312.522 447.4 312.775 448.187 312.775 449.16C312.775 450.387 312.369 451.36 311.555 452.08C310.742 452.787 309.649 453.14 308.275 453.14ZM322.148 453V440.3H322.608L316.228 449.52L316.248 448.7H325.588V449.76H315.428V448.82L322.368 438.76H323.388V453H322.148ZM328.36 455.14L327.74 454.64C328.06 454.28 328.267 453.953 328.36 453.66C328.453 453.38 328.5 453.087 328.5 452.78L328.92 453H327.72V451.26H329.42V452.56C329.42 453.027 329.34 453.473 329.18 453.9C329.033 454.327 328.76 454.74 328.36 455.14ZM336.773 453.16C335.173 453.16 333.96 452.547 333.133 451.32C332.307 450.08 331.893 448.267 331.893 445.88C331.893 443.48 332.3 441.667 333.113 440.44C333.94 439.213 335.16 438.6 336.773 438.6C338.387 438.6 339.6 439.213 340.413 440.44C341.24 441.667 341.653 443.473 341.653 445.86C341.653 448.247 341.24 450.06 340.413 451.3C339.587 452.54 338.373 453.16 336.773 453.16ZM336.773 452.06C338 452.06 338.907 451.56 339.493 450.56C340.093 449.547 340.393 447.98 340.393 445.86C340.393 443.74 340.1 442.187 339.513 441.2C338.927 440.2 338.013 439.7 336.773 439.7C335.547 439.7 334.633 440.2 334.033 441.2C333.447 442.2 333.153 443.753 333.153 445.86C333.153 447.967 333.447 449.527 334.033 450.54C334.633 451.553 335.547 452.06 336.773 452.06ZM348.766 453.16C347.166 453.16 345.952 452.547 345.126 451.32C344.299 450.08 343.886 448.267 343.886 445.88C343.886 443.48 344.292 441.667 345.106 440.44C345.932 439.213 347.152 438.6 348.766 438.6C350.379 438.6 351.592 439.213 352.406 440.44C353.232 441.667 353.646 443.473 353.646 445.86C353.646 448.247 353.232 450.06 352.406 451.3C351.579 452.54 350.366 453.16 348.766 453.16ZM348.766 452.06C349.992 452.06 350.899 451.56 351.486 450.56C352.086 449.547 352.386 447.98 352.386 445.86C352.386 443.74 352.092 442.187 351.506 441.2C350.919 440.2 350.006 439.7 348.766 439.7C347.539 439.7 346.626 440.2 346.026 441.2C345.439 442.2 345.146 443.753 345.146 445.86C345.146 447.967 345.439 449.527 346.026 450.54C346.626 451.553 347.539 452.06 348.766 452.06ZM360.758 453.16C359.158 453.16 357.944 452.547 357.118 451.32C356.291 450.08 355.878 448.267 355.878 445.88C355.878 443.48 356.284 441.667 357.098 440.44C357.924 439.213 359.144 438.6 360.758 438.6C362.371 438.6 363.584 439.213 364.398 440.44C365.224 441.667 365.638 443.473 365.638 445.86C365.638 448.247 365.224 450.06 364.398 451.3C363.571 452.54 362.358 453.16 360.758 453.16ZM360.758 452.06C361.984 452.06 362.891 451.56 363.478 450.56C364.078 449.547 364.378 447.98 364.378 445.86C364.378 443.74 364.084 442.187 363.498 441.2C362.911 440.2 361.998 439.7 360.758 439.7C359.531 439.7 358.618 440.2 358.018 441.2C357.431 442.2 357.138 443.753 357.138 445.86C357.138 447.967 357.431 449.527 358.018 450.54C358.618 451.553 359.531 452.06 360.758 452.06Z" fill="#969EAC"/>
<path d="M59.126 453V441.608H60.342L64.886 451.96H64.246L68.758 441.608H69.958V453H68.614V443.624L69.11 443.688L65.062 453H64.038L59.926 443.688L60.47 443.624L60.486 453H59.126ZM75.4081 453.112C74.4375 453.112 73.7068 452.845 73.2161 452.312C72.7361 451.768 72.4961 450.968 72.4961 449.912V444.952H73.9521V449.896C73.9521 450.589 74.0908 451.101 74.3681 451.432C74.6561 451.752 75.0935 451.912 75.6801 451.912C76.3628 451.912 76.9121 451.693 77.3281 451.256C77.7441 450.808 77.9521 450.216 77.9521 449.48V444.952H79.4241V453H78.0001V451.272L78.1921 451.192C77.9788 451.821 77.6215 452.301 77.1201 452.632C76.6188 452.952 76.0481 453.112 75.4081 453.112ZM80.737 446.072V444.952H86.017V446.072H80.737ZM85.985 451.736V452.952C85.8037 453.005 85.617 453.043 85.425 453.064C85.2437 453.096 85.0463 453.112 84.833 453.112C84.0437 453.112 83.4197 452.888 82.961 452.44C82.513 451.992 82.289 451.331 82.289 450.456V442.904L83.745 442.392V450.296C83.745 450.712 83.8037 451.037 83.921 451.272C84.049 451.496 84.2143 451.656 84.417 451.752C84.6303 451.837 84.8703 451.88 85.137 451.88C85.2863 451.88 85.425 451.869 85.553 451.848C85.681 451.827 85.825 451.789 85.985 451.736ZM90.4238 453.112C89.4531 453.112 88.7224 452.845 88.2318 452.312C87.7518 451.768 87.5118 450.968 87.5118 449.912V444.952H88.9678V449.896C88.9678 450.589 89.1064 451.101 89.3838 451.432C89.6718 451.752 90.1091 451.912 90.6958 451.912C91.3784 451.912 91.9278 451.693 92.3438 451.256C92.7598 450.808 92.9678 450.216 92.9678 449.48V444.952H94.4398V453H93.0158V451.272L93.2078 451.192C92.9944 451.821 92.6371 452.301 92.1358 452.632C91.6344 452.952 91.0638 453.112 90.4238 453.112ZM99.9446 453.112C99.2406 453.112 98.6166 452.947 98.0726 452.616C97.5393 452.275 97.1233 451.795 96.8246 451.176C96.526 450.547 96.3766 449.811 96.3766 448.968C96.3766 448.125 96.526 447.389 96.8246 446.76C97.134 446.131 97.5553 445.64 98.0886 445.288C98.6326 444.925 99.2513 444.744 99.9446 444.744C100.67 444.744 101.289 444.925 101.801 445.288C102.313 445.64 102.659 446.147 102.841 446.808L102.649 446.92V444.952H104.089V453H102.649V450.984L102.841 451.064C102.659 451.715 102.313 452.221 101.801 452.584C101.289 452.936 100.67 453.112 99.9446 453.112ZM100.265 451.928C101.033 451.928 101.619 451.672 102.025 451.16C102.441 450.637 102.649 449.896 102.649 448.936C102.649 447.976 102.441 447.24 102.025 446.728C101.609 446.205 101.022 445.944 100.265 445.944C99.5073 445.944 98.9153 446.211 98.4886 446.744C98.062 447.277 97.8486 448.019 97.8486 448.968C97.8486 449.917 98.062 450.648 98.4886 451.16C98.9153 451.672 99.5073 451.928 100.265 451.928ZM106.513 453V441.224H107.969V453H106.513ZM114.782 453V441.608H121.902V442.84H116.238V446.6H121.582V447.832H116.238V453H114.782ZM126.377 453.112C125.406 453.112 124.676 452.845 124.185 452.312C123.705 451.768 123.465 450.968 123.465 449.912V444.952H124.921V449.896C124.921 450.589 125.06 451.101 125.337 451.432C125.625 451.752 126.062 451.912 126.649 451.912C127.332 451.912 127.881 451.693 128.297 451.256C128.713 450.808 128.921 450.216 128.921 449.48V444.952H130.393V453H128.969V451.272L129.161 451.192C128.948 451.821 128.59 452.301 128.089 452.632C127.588 452.952 127.017 453.112 126.377 453.112ZM132.81 453V447.208C132.81 446.835 132.799 446.461 132.778 446.088C132.767 445.704 132.735 445.325 132.682 444.952H134.058L134.202 446.6L134.042 446.696C134.276 446.067 134.65 445.587 135.162 445.256C135.684 444.915 136.282 444.744 136.954 444.744C138.884 444.744 139.85 445.816 139.85 447.96V453H138.394V448.04C138.394 447.315 138.25 446.787 137.962 446.456C137.684 446.115 137.236 445.944 136.618 445.944C135.903 445.944 135.332 446.168 134.906 446.616C134.479 447.053 134.266 447.645 134.266 448.392V453H132.81ZM149.464 453H148.024V450.872L148.216 451.064C148.034 451.715 147.688 452.221 147.176 452.584C146.664 452.936 146.045 453.112 145.32 453.112C144.626 453.112 144.008 452.941 143.464 452.6C142.93 452.248 142.509 451.757 142.2 451.128C141.901 450.488 141.752 449.747 141.752 448.904C141.752 448.061 141.901 447.331 142.2 446.712C142.498 446.083 142.914 445.597 143.448 445.256C143.992 444.915 144.616 444.744 145.32 444.744C146.045 444.744 146.664 444.925 147.176 445.288C147.688 445.651 148.034 446.152 148.216 446.792L148.008 446.984V441.224H149.464V453ZM145.64 451.928C146.397 451.928 146.984 451.672 147.4 451.16C147.816 450.637 148.024 449.896 148.024 448.936C148.024 447.987 147.816 447.251 147.4 446.728C146.994 446.205 146.408 445.944 145.64 445.944C144.882 445.944 144.29 446.205 143.864 446.728C143.437 447.24 143.224 447.965 143.224 448.904C143.224 449.864 143.437 450.611 143.864 451.144C144.29 451.667 144.882 451.928 145.64 451.928ZM154.656 453.112C153.28 453.112 152.187 452.765 151.376 452.072L151.84 451.016C152.267 451.347 152.709 451.592 153.168 451.752C153.637 451.901 154.149 451.976 154.704 451.976C155.28 451.976 155.717 451.88 156.016 451.688C156.325 451.485 156.48 451.197 156.48 450.824C156.48 450.525 156.373 450.291 156.16 450.12C155.957 449.939 155.616 449.789 155.136 449.672L153.792 449.352C153.099 449.203 152.565 448.936 152.192 448.552C151.829 448.168 151.648 447.704 151.648 447.16C151.648 446.691 151.776 446.275 152.032 445.912C152.299 445.549 152.667 445.267 153.136 445.064C153.605 444.851 154.16 444.744 154.8 444.744C155.365 444.744 155.899 444.835 156.4 445.016C156.912 445.197 157.344 445.459 157.696 445.8L157.232 446.84C156.848 446.52 156.453 446.285 156.048 446.136C155.643 445.976 155.221 445.896 154.784 445.896C154.24 445.896 153.813 446.003 153.504 446.216C153.205 446.429 153.056 446.717 153.056 447.08C153.056 447.389 153.152 447.635 153.344 447.816C153.536 447.997 153.84 448.141 154.256 448.248L155.616 448.584C156.384 448.744 156.949 449.011 157.312 449.384C157.675 449.747 157.856 450.216 157.856 450.792C157.856 451.496 157.568 452.061 156.992 452.488C156.416 452.904 155.637 453.112 154.656 453.112ZM163.996 449.288V448.104H168.588V449.288H163.996ZM171.014 453V451.88L174.982 447.528C175.494 446.952 175.868 446.435 176.102 445.976C176.348 445.507 176.47 445.037 176.47 444.568C176.47 443.971 176.294 443.512 175.942 443.192C175.59 442.861 175.094 442.696 174.454 442.696C173.91 442.696 173.372 442.808 172.838 443.032C172.305 443.245 171.777 443.565 171.254 443.992L170.71 442.872C171.158 442.445 171.724 442.109 172.406 441.864C173.1 441.608 173.793 441.48 174.486 441.48C175.201 441.48 175.814 441.603 176.326 441.848C176.838 442.083 177.238 442.429 177.526 442.888C177.814 443.336 177.958 443.869 177.958 444.488C177.958 445.139 177.809 445.763 177.51 446.36C177.222 446.957 176.742 447.629 176.07 448.376L172.31 452.424L172.182 451.768H178.422V453H171.014ZM184.272 453.112C183.568 453.112 182.875 452.989 182.192 452.744C181.52 452.499 180.955 452.157 180.496 451.72L181.04 450.6C181.563 451.027 182.091 451.352 182.624 451.576C183.157 451.789 183.707 451.896 184.272 451.896C185.051 451.896 185.659 451.683 186.096 451.256C186.533 450.819 186.752 450.221 186.752 449.464C186.752 448.984 186.651 448.563 186.448 448.2C186.256 447.837 185.979 447.555 185.616 447.352C185.264 447.139 184.848 447.032 184.368 447.032C183.845 447.032 183.371 447.139 182.944 447.352C182.517 447.555 182.144 447.864 181.824 448.28H180.832V441.608H187.728V442.808H182.304V447.224L181.84 447.176C182.149 446.739 182.544 446.403 183.024 446.168C183.504 445.933 184.043 445.816 184.64 445.816C185.365 445.816 185.995 445.971 186.528 446.28C187.061 446.579 187.472 447 187.76 447.544C188.048 448.088 188.192 448.717 188.192 449.432C188.192 450.157 188.032 450.797 187.712 451.352C187.392 451.907 186.939 452.339 186.352 452.648C185.765 452.957 185.072 453.112 184.272 453.112ZM191.962 448.504C191.173 448.504 190.549 448.216 190.09 447.64C189.631 447.064 189.402 446.189 189.402 445.016C189.402 443.832 189.631 442.957 190.09 442.392C190.549 441.827 191.173 441.544 191.962 441.544C192.751 441.544 193.37 441.827 193.818 442.392C194.277 442.957 194.506 443.832 194.506 445.016C194.506 446.189 194.277 447.064 193.818 447.64C193.37 448.216 192.751 448.504 191.962 448.504ZM191.962 447.496C192.378 447.496 192.687 447.304 192.89 446.92C193.103 446.525 193.21 445.891 193.21 445.016C193.21 444.152 193.103 443.528 192.89 443.144C192.687 442.749 192.378 442.552 191.962 442.552C191.546 442.552 191.231 442.749 191.018 443.144C190.815 443.528 190.714 444.152 190.714 445.016C190.714 445.891 190.815 446.525 191.018 446.92C191.231 447.304 191.546 447.496 191.962 447.496ZM191.738 453L198.33 441.608H199.722L193.146 453H191.738ZM199.498 453.064C198.709 453.064 198.085 452.776 197.626 452.2C197.167 451.624 196.938 450.749 196.938 449.576C196.938 448.392 197.167 447.517 197.626 446.952C198.085 446.387 198.709 446.104 199.498 446.104C200.287 446.104 200.906 446.387 201.354 446.952C201.813 447.517 202.042 448.392 202.042 449.576C202.042 450.749 201.813 451.624 201.354 452.2C200.906 452.776 200.287 453.064 199.498 453.064ZM199.498 452.056C199.914 452.056 200.223 451.864 200.426 451.48C200.639 451.085 200.746 450.451 200.746 449.576C200.746 448.712 200.639 448.088 200.426 447.704C200.223 447.309 199.914 447.112 199.498 447.112C199.082 447.112 198.767 447.309 198.554 447.704C198.351 448.088 198.25 448.712 198.25 449.576C198.25 450.451 198.351 451.085 198.554 451.48C198.767 451.864 199.082 452.056 199.498 452.056Z" fill="#969EAC"/>
<rect x="17.75" y="437" width="18" height="18" rx="2" fill="#FFBC02"/>
<path d="M284.431 417.16C283.444 417.16 282.511 417 281.631 416.68C280.764 416.347 280.011 415.867 279.371 415.24L279.871 414.26C280.591 414.9 281.311 415.36 282.031 415.64C282.751 415.92 283.551 416.06 284.431 416.06C285.564 416.06 286.444 415.813 287.071 415.32C287.711 414.813 288.031 414.12 288.031 413.24C288.031 412.693 287.878 412.267 287.571 411.96C287.278 411.64 286.878 411.387 286.371 411.2C285.878 411.013 285.331 410.853 284.731 410.72C284.144 410.573 283.551 410.413 282.951 410.24C282.351 410.067 281.798 409.84 281.291 409.56C280.798 409.28 280.398 408.907 280.091 408.44C279.798 407.973 279.651 407.367 279.651 406.62C279.651 405.833 279.858 405.14 280.271 404.54C280.684 403.927 281.258 403.453 281.991 403.12C282.724 402.773 283.558 402.6 284.491 402.6C285.091 402.6 285.671 402.673 286.231 402.82C286.804 402.967 287.338 403.18 287.831 403.46C288.338 403.727 288.784 404.06 289.171 404.46L288.671 405.44C287.524 404.28 286.131 403.7 284.491 403.7C283.384 403.7 282.511 403.96 281.871 404.48C281.231 405 280.911 405.707 280.911 406.6C280.911 407.2 281.058 407.673 281.351 408.02C281.658 408.367 282.064 408.647 282.571 408.86C283.078 409.06 283.624 409.233 284.211 409.38C284.811 409.527 285.404 409.68 285.991 409.84C286.591 410 287.138 410.213 287.631 410.48C288.138 410.733 288.538 411.08 288.831 411.52C289.138 411.96 289.291 412.527 289.291 413.22C289.291 414.007 289.084 414.693 288.671 415.28C288.258 415.867 287.684 416.327 286.951 416.66C286.218 416.993 285.378 417.16 284.431 417.16ZM284.011 419.32V416.94L284.031 416.32V403.36L284.011 402.82V400.44H285.131V402.82L285.111 403.36V416.32L285.131 416.94V419.32H284.011ZM296.223 416.46V403.28L297.023 403.88L293.283 406.3V405.04L296.763 402.76H297.463V416.46H296.223ZM293.063 417V415.94H300.623V417H293.063ZM304.115 417V416.06L309.175 410.42C309.882 409.607 310.395 408.887 310.715 408.26C311.049 407.62 311.215 406.973 311.215 406.32C311.215 405.48 310.969 404.833 310.475 404.38C309.995 403.913 309.302 403.68 308.395 403.68C307.675 403.68 306.975 403.827 306.295 404.12C305.629 404.4 304.962 404.827 304.295 405.4L303.775 404.42C304.335 403.873 305.035 403.433 305.875 403.1C306.715 402.767 307.555 402.6 308.395 402.6C309.235 402.6 309.955 402.747 310.555 403.04C311.169 403.333 311.642 403.76 311.975 404.32C312.309 404.867 312.475 405.52 312.475 406.28C312.475 407.093 312.282 407.887 311.895 408.66C311.522 409.42 310.909 410.28 310.055 411.24L305.035 416.72L305.015 415.94H313.095V417H304.115ZM322.148 417V404.3H322.608L316.228 413.52L316.248 412.7H325.588V413.76H315.428V412.82L322.368 402.76H323.388V417H322.148ZM328.36 419.14L327.74 418.64C328.06 418.28 328.267 417.953 328.36 417.66C328.453 417.38 328.5 417.087 328.5 416.78L328.92 417H327.72V415.26H329.42V416.56C329.42 417.027 329.34 417.473 329.18 417.9C329.033 418.327 328.76 418.74 328.36 419.14ZM336.773 417.16C335.173 417.16 333.96 416.547 333.133 415.32C332.307 414.08 331.893 412.267 331.893 409.88C331.893 407.48 332.3 405.667 333.113 404.44C333.94 403.213 335.16 402.6 336.773 402.6C338.387 402.6 339.6 403.213 340.413 404.44C341.24 405.667 341.653 407.473 341.653 409.86C341.653 412.247 341.24 414.06 340.413 415.3C339.587 416.54 338.373 417.16 336.773 417.16ZM336.773 416.06C338 416.06 338.907 415.56 339.493 414.56C340.093 413.547 340.393 411.98 340.393 409.86C340.393 407.74 340.1 406.187 339.513 405.2C338.927 404.2 338.013 403.7 336.773 403.7C335.547 403.7 334.633 404.2 334.033 405.2C333.447 406.2 333.153 407.753 333.153 409.86C333.153 411.967 333.447 413.527 334.033 414.54C334.633 415.553 335.547 416.06 336.773 416.06ZM348.766 417.16C347.166 417.16 345.952 416.547 345.126 415.32C344.299 414.08 343.886 412.267 343.886 409.88C343.886 407.48 344.292 405.667 345.106 404.44C345.932 403.213 347.152 402.6 348.766 402.6C350.379 402.6 351.592 403.213 352.406 404.44C353.232 405.667 353.646 407.473 353.646 409.86C353.646 412.247 353.232 414.06 352.406 415.3C351.579 416.54 350.366 417.16 348.766 417.16ZM348.766 416.06C349.992 416.06 350.899 415.56 351.486 414.56C352.086 413.547 352.386 411.98 352.386 409.86C352.386 407.74 352.092 406.187 351.506 405.2C350.919 404.2 350.006 403.7 348.766 403.7C347.539 403.7 346.626 404.2 346.026 405.2C345.439 406.2 345.146 407.753 345.146 409.86C345.146 411.967 345.439 413.527 346.026 414.54C346.626 415.553 347.539 416.06 348.766 416.06ZM360.758 417.16C359.158 417.16 357.944 416.547 357.118 415.32C356.291 414.08 355.878 412.267 355.878 409.88C355.878 407.48 356.284 405.667 357.098 404.44C357.924 403.213 359.144 402.6 360.758 402.6C362.371 402.6 363.584 403.213 364.398 404.44C365.224 405.667 365.638 407.473 365.638 409.86C365.638 412.247 365.224 414.06 364.398 415.3C363.571 416.54 362.358 417.16 360.758 417.16ZM360.758 416.06C361.984 416.06 362.891 415.56 363.478 414.56C364.078 413.547 364.378 411.98 364.378 409.86C364.378 407.74 364.084 406.187 363.498 405.2C362.911 404.2 361.998 403.7 360.758 403.7C359.531 403.7 358.618 404.2 358.018 405.2C357.431 406.2 357.138 407.753 357.138 409.86C357.138 411.967 357.431 413.527 358.018 414.54C358.618 415.553 359.531 416.06 360.758 416.06Z" fill="#969EAC"/>
<path d="M59.126 417V405.608H63.798C64.95 405.608 65.8513 405.869 66.502 406.392C67.1633 406.904 67.494 407.635 67.494 408.584C67.494 409.245 67.3127 409.805 66.95 410.264C66.598 410.712 66.1073 411.032 65.478 411.224V411.096C66.1927 411.235 66.7527 411.549 67.158 412.04C67.5633 412.531 67.766 413.149 67.766 413.896C67.766 414.888 67.43 415.656 66.758 416.2C66.0967 416.733 65.158 417 63.942 417H59.126ZM60.582 415.8H63.814C64.678 415.8 65.3127 415.64 65.718 415.32C66.1233 415 66.326 414.504 66.326 413.832C66.326 413.16 66.118 412.659 65.702 412.328C65.2967 411.997 64.6673 411.832 63.814 411.832H60.582V415.8ZM60.582 410.6H63.558C64.39 410.6 65.014 410.44 65.43 410.12C65.846 409.8 66.054 409.32 66.054 408.68C66.054 408.061 65.846 407.597 65.43 407.288C65.0247 406.968 64.4007 406.808 63.558 406.808H60.582V410.6ZM73.2799 417.112C72.5012 417.112 71.8185 416.941 71.2319 416.6C70.6559 416.259 70.2079 415.779 69.8879 415.16C69.5679 414.531 69.4079 413.789 69.4079 412.936C69.4079 412.093 69.5679 411.357 69.8879 410.728C70.2079 410.088 70.6559 409.597 71.2319 409.256C71.8185 408.915 72.5012 408.744 73.2799 408.744C74.0692 408.744 74.7519 408.915 75.3279 409.256C75.9039 409.597 76.3519 410.088 76.6719 410.728C76.9919 411.357 77.1519 412.093 77.1519 412.936C77.1519 413.789 76.9919 414.531 76.6719 415.16C76.3519 415.779 75.9039 416.259 75.3279 416.6C74.7519 416.941 74.0692 417.112 73.2799 417.112ZM73.2799 415.928C74.0479 415.928 74.6399 415.677 75.0559 415.176C75.4719 414.664 75.6799 413.917 75.6799 412.936C75.6799 411.965 75.4665 411.224 75.0399 410.712C74.6239 410.2 74.0372 409.944 73.2799 409.944C72.5332 409.944 71.9465 410.2 71.5199 410.712C71.0932 411.224 70.8799 411.965 70.8799 412.936C70.8799 413.917 71.0879 414.664 71.5039 415.176C71.9199 415.677 72.5119 415.928 73.2799 415.928ZM79.1223 417V411.208C79.1223 410.835 79.1116 410.461 79.0903 410.088C79.0796 409.704 79.0476 409.325 78.9943 408.952H80.3703L80.5143 410.6L80.3543 410.696C80.5889 410.067 80.9623 409.587 81.4743 409.256C81.9969 408.915 82.5943 408.744 83.2663 408.744C85.1969 408.744 86.1623 409.816 86.1623 411.96V417H84.7063V412.04C84.7063 411.315 84.5623 410.787 84.2743 410.456C83.9969 410.115 83.5489 409.944 82.9303 409.944C82.2156 409.944 81.6449 410.168 81.2183 410.616C80.7916 411.053 80.5783 411.645 80.5783 412.392V417H79.1223ZM95.7761 417H94.3361V414.872L94.5281 415.064C94.3468 415.715 94.0001 416.221 93.4881 416.584C92.9761 416.936 92.3575 417.112 91.6321 417.112C90.9388 417.112 90.3201 416.941 89.7761 416.6C89.2428 416.248 88.8215 415.757 88.5121 415.128C88.2135 414.488 88.0641 413.747 88.0641 412.904C88.0641 412.061 88.2135 411.331 88.5121 410.712C88.8108 410.083 89.2268 409.597 89.7601 409.256C90.3041 408.915 90.9281 408.744 91.6321 408.744C92.3575 408.744 92.9761 408.925 93.4881 409.288C94.0001 409.651 94.3468 410.152 94.5281 410.792L94.3201 410.984V405.224H95.7761V417ZM91.9521 415.928C92.7095 415.928 93.2961 415.672 93.7121 415.16C94.1281 414.637 94.3361 413.896 94.3361 412.936C94.3361 411.987 94.1281 411.251 93.7121 410.728C93.3068 410.205 92.7201 409.944 91.9521 409.944C91.1948 409.944 90.6028 410.205 90.1761 410.728C89.7495 411.24 89.5361 411.965 89.5361 412.904C89.5361 413.864 89.7495 414.611 90.1761 415.144C90.6028 415.667 91.1948 415.928 91.9521 415.928ZM100.968 417.112C99.5924 417.112 98.499 416.765 97.6884 416.072L98.1524 415.016C98.579 415.347 99.0217 415.592 99.4804 415.752C99.9497 415.901 100.462 415.976 101.016 415.976C101.592 415.976 102.03 415.88 102.328 415.688C102.638 415.485 102.792 415.197 102.792 414.824C102.792 414.525 102.686 414.291 102.472 414.12C102.27 413.939 101.928 413.789 101.448 413.672L100.104 413.352C99.411 413.203 98.8777 412.936 98.5044 412.552C98.1417 412.168 97.9604 411.704 97.9604 411.16C97.9604 410.691 98.0884 410.275 98.3444 409.912C98.611 409.549 98.979 409.267 99.4484 409.064C99.9177 408.851 100.472 408.744 101.112 408.744C101.678 408.744 102.211 408.835 102.712 409.016C103.224 409.197 103.656 409.459 104.008 409.8L103.544 410.84C103.16 410.52 102.766 410.285 102.36 410.136C101.955 409.976 101.534 409.896 101.096 409.896C100.552 409.896 100.126 410.003 99.8164 410.216C99.5177 410.429 99.3684 410.717 99.3684 411.08C99.3684 411.389 99.4644 411.635 99.6564 411.816C99.8484 411.997 100.152 412.141 100.568 412.248L101.928 412.584C102.696 412.744 103.262 413.011 103.624 413.384C103.987 413.747 104.168 414.216 104.168 414.792C104.168 415.496 103.88 416.061 103.304 416.488C102.728 416.904 101.95 417.112 100.968 417.112ZM110.308 413.288V412.104H114.9V413.288H110.308ZM120.543 416.328V406.552L121.359 406.888L118.207 408.872V407.48L121.183 405.608H122.031V416.328H120.543ZM118.031 417V415.768H124.543V417H118.031ZM130.585 417.112C129.881 417.112 129.187 416.989 128.505 416.744C127.833 416.499 127.267 416.157 126.809 415.72L127.353 414.6C127.875 415.027 128.403 415.352 128.937 415.576C129.47 415.789 130.019 415.896 130.585 415.896C131.363 415.896 131.971 415.683 132.409 415.256C132.846 414.819 133.065 414.221 133.065 413.464C133.065 412.984 132.963 412.563 132.761 412.2C132.569 411.837 132.291 411.555 131.929 411.352C131.577 411.139 131.161 411.032 130.681 411.032C130.158 411.032 129.683 411.139 129.257 411.352C128.83 411.555 128.457 411.864 128.137 412.28H127.145V405.608H134.041V406.808H128.617V411.224L128.153 411.176C128.462 410.739 128.857 410.403 129.337 410.168C129.817 409.933 130.355 409.816 130.953 409.816C131.678 409.816 132.307 409.971 132.841 410.28C133.374 410.579 133.785 411 134.073 411.544C134.361 412.088 134.505 412.717 134.505 413.432C134.505 414.157 134.345 414.797 134.025 415.352C133.705 415.907 133.251 416.339 132.665 416.648C132.078 416.957 131.385 417.112 130.585 417.112ZM138.274 412.504C137.485 412.504 136.861 412.216 136.402 411.64C135.944 411.064 135.714 410.189 135.714 409.016C135.714 407.832 135.944 406.957 136.402 406.392C136.861 405.827 137.485 405.544 138.274 405.544C139.064 405.544 139.682 405.827 140.13 406.392C140.589 406.957 140.818 407.832 140.818 409.016C140.818 410.189 140.589 411.064 140.13 411.64C139.682 412.216 139.064 412.504 138.274 412.504ZM138.274 411.496C138.69 411.496 139 411.304 139.202 410.92C139.416 410.525 139.522 409.891 139.522 409.016C139.522 408.152 139.416 407.528 139.202 407.144C139 406.749 138.69 406.552 138.274 406.552C137.858 406.552 137.544 406.749 137.33 407.144C137.128 407.528 137.026 408.152 137.026 409.016C137.026 409.891 137.128 410.525 137.33 410.92C137.544 411.304 137.858 411.496 138.274 411.496ZM138.05 417L144.642 405.608H146.034L139.458 417H138.05ZM145.81 417.064C145.021 417.064 144.397 416.776 143.938 416.2C143.48 415.624 143.25 414.749 143.25 413.576C143.25 412.392 143.48 411.517 143.938 410.952C144.397 410.387 145.021 410.104 145.81 410.104C146.6 410.104 147.218 410.387 147.666 410.952C148.125 411.517 148.354 412.392 148.354 413.576C148.354 414.749 148.125 415.624 147.666 416.2C147.218 416.776 146.6 417.064 145.81 417.064ZM145.81 416.056C146.226 416.056 146.536 415.864 146.738 415.48C146.952 415.085 147.058 414.451 147.058 413.576C147.058 412.712 146.952 412.088 146.738 411.704C146.536 411.309 146.226 411.112 145.81 411.112C145.394 411.112 145.08 411.309 144.866 411.704C144.664 412.088 144.562 412.712 144.562 413.576C144.562 414.451 144.664 415.085 144.866 415.48C145.08 415.864 145.394 416.056 145.81 416.056Z" fill="#969EAC"/>
<rect x="17.75" y="401" width="18" height="18" rx="2" fill="#1F32AD"/>
<path d="M284.431 381.16C283.444 381.16 282.511 381 281.631 380.68C280.764 380.347 280.011 379.867 279.371 379.24L279.871 378.26C280.591 378.9 281.311 379.36 282.031 379.64C282.751 379.92 283.551 380.06 284.431 380.06C285.564 380.06 286.444 379.813 287.071 379.32C287.711 378.813 288.031 378.12 288.031 377.24C288.031 376.693 287.878 376.267 287.571 375.96C287.278 375.64 286.878 375.387 286.371 375.2C285.878 375.013 285.331 374.853 284.731 374.72C284.144 374.573 283.551 374.413 282.951 374.24C282.351 374.067 281.798 373.84 281.291 373.56C280.798 373.28 280.398 372.907 280.091 372.44C279.798 371.973 279.651 371.367 279.651 370.62C279.651 369.833 279.858 369.14 280.271 368.54C280.684 367.927 281.258 367.453 281.991 367.12C282.724 366.773 283.558 366.6 284.491 366.6C285.091 366.6 285.671 366.673 286.231 366.82C286.804 366.967 287.338 367.18 287.831 367.46C288.338 367.727 288.784 368.06 289.171 368.46L288.671 369.44C287.524 368.28 286.131 367.7 284.491 367.7C283.384 367.7 282.511 367.96 281.871 368.48C281.231 369 280.911 369.707 280.911 370.6C280.911 371.2 281.058 371.673 281.351 372.02C281.658 372.367 282.064 372.647 282.571 372.86C283.078 373.06 283.624 373.233 284.211 373.38C284.811 373.527 285.404 373.68 285.991 373.84C286.591 374 287.138 374.213 287.631 374.48C288.138 374.733 288.538 375.08 288.831 375.52C289.138 375.96 289.291 376.527 289.291 377.22C289.291 378.007 289.084 378.693 288.671 379.28C288.258 379.867 287.684 380.327 286.951 380.66C286.218 380.993 285.378 381.16 284.431 381.16ZM284.011 383.32V380.94L284.031 380.32V367.36L284.011 366.82V364.44H285.131V366.82L285.111 367.36V380.32L285.131 380.94V383.32H284.011ZM292.123 381V380.06L297.183 374.42C297.89 373.607 298.403 372.887 298.723 372.26C299.057 371.62 299.223 370.973 299.223 370.32C299.223 369.48 298.977 368.833 298.483 368.38C298.003 367.913 297.31 367.68 296.403 367.68C295.683 367.68 294.983 367.827 294.303 368.12C293.637 368.4 292.97 368.827 292.303 369.4L291.783 368.42C292.343 367.873 293.043 367.433 293.883 367.1C294.723 366.767 295.563 366.6 296.403 366.6C297.243 366.6 297.963 366.747 298.563 367.04C299.177 367.333 299.65 367.76 299.983 368.32C300.317 368.867 300.483 369.52 300.483 370.28C300.483 371.093 300.29 371.887 299.903 372.66C299.53 373.42 298.917 374.28 298.063 375.24L293.043 380.72L293.023 379.94H301.103V381H292.123ZM308.275 381.14C307.369 381.14 306.502 380.98 305.675 380.66C304.849 380.34 304.142 379.893 303.555 379.32L304.075 378.34C304.729 378.913 305.395 379.347 306.075 379.64C306.769 379.92 307.502 380.06 308.275 380.06C309.315 380.06 310.115 379.813 310.675 379.32C311.249 378.813 311.535 378.093 311.535 377.16C311.535 376.2 311.235 375.487 310.635 375.02C310.049 374.54 309.182 374.3 308.035 374.3H306.495V373.22H307.715C308.835 373.22 309.695 372.96 310.295 372.44C310.909 371.92 311.215 371.187 311.215 370.24C311.215 369.427 310.969 368.8 310.475 368.36C309.982 367.907 309.289 367.68 308.395 367.68C307.662 367.68 306.962 367.827 306.295 368.12C305.629 368.4 304.962 368.827 304.295 369.4L303.775 368.42C304.349 367.847 305.042 367.4 305.855 367.08C306.682 366.76 307.535 366.6 308.415 366.6C309.242 366.6 309.962 366.747 310.575 367.04C311.189 367.333 311.655 367.753 311.975 368.3C312.309 368.833 312.475 369.473 312.475 370.22C312.462 371.1 312.222 371.86 311.755 372.5C311.302 373.14 310.675 373.567 309.875 373.78L309.795 373.58C310.769 373.78 311.509 374.187 312.015 374.8C312.522 375.4 312.775 376.187 312.775 377.16C312.775 378.387 312.369 379.36 311.555 380.08C310.742 380.787 309.649 381.14 308.275 381.14ZM320.668 381.14C319.814 381.14 318.974 380.98 318.148 380.66C317.321 380.34 316.614 379.893 316.028 379.32L316.548 378.34C317.201 378.9 317.868 379.327 318.548 379.62C319.228 379.913 319.934 380.06 320.668 380.06C321.708 380.06 322.528 379.753 323.128 379.14C323.741 378.513 324.048 377.68 324.048 376.64C324.048 375.973 323.914 375.387 323.648 374.88C323.381 374.36 323.001 373.96 322.508 373.68C322.028 373.387 321.454 373.24 320.788 373.24C320.041 373.24 319.388 373.393 318.828 373.7C318.268 373.993 317.781 374.453 317.368 375.08H316.408V366.76H324.768V367.82H317.648V374.08L317.248 374.02C317.621 373.433 318.121 372.973 318.748 372.64C319.374 372.307 320.081 372.14 320.868 372.14C321.788 372.14 322.574 372.333 323.228 372.72C323.894 373.093 324.401 373.62 324.748 374.3C325.108 374.98 325.288 375.76 325.288 376.64C325.288 377.52 325.101 378.3 324.728 378.98C324.354 379.66 323.821 380.193 323.128 380.58C322.434 380.953 321.614 381.14 320.668 381.14ZM328.36 383.14L327.74 382.64C328.06 382.28 328.267 381.953 328.36 381.66C328.453 381.38 328.5 381.087 328.5 380.78L328.92 381H327.72V379.26H329.42V380.56C329.42 381.027 329.34 381.473 329.18 381.9C329.033 382.327 328.76 382.74 328.36 383.14ZM336.773 381.16C335.173 381.16 333.96 380.547 333.133 379.32C332.307 378.08 331.893 376.267 331.893 373.88C331.893 371.48 332.3 369.667 333.113 368.44C333.94 367.213 335.16 366.6 336.773 366.6C338.387 366.6 339.6 367.213 340.413 368.44C341.24 369.667 341.653 371.473 341.653 373.86C341.653 376.247 341.24 378.06 340.413 379.3C339.587 380.54 338.373 381.16 336.773 381.16ZM336.773 380.06C338 380.06 338.907 379.56 339.493 378.56C340.093 377.547 340.393 375.98 340.393 373.86C340.393 371.74 340.1 370.187 339.513 369.2C338.927 368.2 338.013 367.7 336.773 367.7C335.547 367.7 334.633 368.2 334.033 369.2C333.447 370.2 333.153 371.753 333.153 373.86C333.153 375.967 333.447 377.527 334.033 378.54C334.633 379.553 335.547 380.06 336.773 380.06ZM348.766 381.16C347.166 381.16 345.952 380.547 345.126 379.32C344.299 378.08 343.886 376.267 343.886 373.88C343.886 371.48 344.292 369.667 345.106 368.44C345.932 367.213 347.152 366.6 348.766 366.6C350.379 366.6 351.592 367.213 352.406 368.44C353.232 369.667 353.646 371.473 353.646 373.86C353.646 376.247 353.232 378.06 352.406 379.3C351.579 380.54 350.366 381.16 348.766 381.16ZM348.766 380.06C349.992 380.06 350.899 379.56 351.486 378.56C352.086 377.547 352.386 375.98 352.386 373.86C352.386 371.74 352.092 370.187 351.506 369.2C350.919 368.2 350.006 367.7 348.766 367.7C347.539 367.7 346.626 368.2 346.026 369.2C345.439 370.2 345.146 371.753 345.146 373.86C345.146 375.967 345.439 377.527 346.026 378.54C346.626 379.553 347.539 380.06 348.766 380.06ZM360.758 381.16C359.158 381.16 357.944 380.547 357.118 379.32C356.291 378.08 355.878 376.267 355.878 373.88C355.878 371.48 356.284 369.667 357.098 368.44C357.924 367.213 359.144 366.6 360.758 366.6C362.371 366.6 363.584 367.213 364.398 368.44C365.224 369.667 365.638 371.473 365.638 373.86C365.638 376.247 365.224 378.06 364.398 379.3C363.571 380.54 362.358 381.16 360.758 381.16ZM360.758 380.06C361.984 380.06 362.891 379.56 363.478 378.56C364.078 377.547 364.378 375.98 364.378 373.86C364.378 371.74 364.084 370.187 363.498 369.2C362.911 368.2 361.998 367.7 360.758 367.7C359.531 367.7 358.618 368.2 358.018 369.2C357.431 370.2 357.138 371.753 357.138 373.86C357.138 375.967 357.431 377.527 358.018 378.54C358.618 379.553 359.531 380.06 360.758 380.06Z" fill="#10C273"/>
<path d="M62.79 381.128C62.2033 381.128 61.6487 381.08 61.126 380.984C60.614 380.877 60.134 380.717 59.686 380.504C59.2487 380.291 58.854 380.024 58.502 379.704L59.046 378.584C59.6113 379.053 60.1873 379.389 60.774 379.592C61.3607 379.795 62.038 379.896 62.806 379.896C63.6913 379.896 64.374 379.725 64.854 379.384C65.334 379.043 65.574 378.563 65.574 377.944C65.574 377.571 65.4567 377.272 65.222 377.048C64.9873 376.813 64.6567 376.627 64.23 376.488C63.814 376.339 63.334 376.2 62.79 376.072C62.214 375.955 61.6753 375.816 61.174 375.656C60.6833 375.496 60.2513 375.299 59.878 375.064C59.5047 374.819 59.2167 374.515 59.014 374.152C58.8113 373.789 58.71 373.341 58.71 372.808C58.71 372.157 58.8807 371.581 59.222 371.08C59.574 370.579 60.0647 370.189 60.694 369.912C61.3233 369.624 62.0647 369.48 62.918 369.48C63.4407 369.48 63.942 369.539 64.422 369.656C64.9127 369.763 65.366 369.923 65.782 370.136C66.198 370.339 66.5607 370.595 66.87 370.904L66.326 372.024C65.8033 371.576 65.2647 371.245 64.71 371.032C64.1553 370.819 63.558 370.712 62.918 370.712C62.0647 370.712 61.3927 370.893 60.902 371.256C60.422 371.608 60.182 372.104 60.182 372.744C60.182 373.139 60.2887 373.459 60.502 373.704C60.7153 373.949 61.0193 374.147 61.414 374.296C61.8087 374.445 62.278 374.584 62.822 374.712C63.398 374.84 63.942 374.984 64.454 375.144C64.966 375.304 65.414 375.496 65.798 375.72C66.1927 375.944 66.502 376.232 66.726 376.584C66.95 376.925 67.062 377.357 67.062 377.88C67.062 378.541 66.8913 379.117 66.55 379.608C66.2087 380.088 65.718 380.461 65.078 380.728C64.438 380.995 63.6753 381.128 62.79 381.128ZM67.8464 374.072V372.952H73.1264V374.072H67.8464ZM73.0944 379.736V380.952C72.913 381.005 72.7264 381.043 72.5344 381.064C72.353 381.096 72.1557 381.112 71.9424 381.112C71.153 381.112 70.529 380.888 70.0704 380.44C69.6224 379.992 69.3984 379.331 69.3984 378.456V370.904L70.8544 370.392V378.296C70.8544 378.712 70.913 379.037 71.0304 379.272C71.1584 379.496 71.3237 379.656 71.5264 379.752C71.7397 379.837 71.9797 379.88 72.2464 379.88C72.3957 379.88 72.5344 379.869 72.6624 379.848C72.7904 379.827 72.9344 379.789 73.0944 379.736ZM78.0611 381.112C77.2825 381.112 76.5998 380.941 76.0131 380.6C75.4371 380.259 74.9891 379.779 74.6691 379.16C74.3491 378.531 74.1891 377.789 74.1891 376.936C74.1891 376.093 74.3491 375.357 74.6691 374.728C74.9891 374.088 75.4371 373.597 76.0131 373.256C76.5998 372.915 77.2825 372.744 78.0611 372.744C78.8505 372.744 79.5331 372.915 80.1091 373.256C80.6851 373.597 81.1331 374.088 81.4531 374.728C81.7731 375.357 81.9331 376.093 81.9331 376.936C81.9331 377.789 81.7731 378.531 81.4531 379.16C81.1331 379.779 80.6851 380.259 80.1091 380.6C79.5331 380.941 78.8505 381.112 78.0611 381.112ZM78.0611 379.928C78.8291 379.928 79.4211 379.677 79.8371 379.176C80.2531 378.664 80.4611 377.917 80.4611 376.936C80.4611 375.965 80.2478 375.224 79.8211 374.712C79.4051 374.2 78.8185 373.944 78.0611 373.944C77.3145 373.944 76.7278 374.2 76.3011 374.712C75.8745 375.224 75.6611 375.965 75.6611 376.936C75.6611 377.917 75.8691 378.664 76.2851 379.176C76.7011 379.677 77.2931 379.928 78.0611 379.928ZM87.3435 381.112C86.5328 381.112 85.8342 380.941 85.2475 380.6C84.6715 380.259 84.2235 379.779 83.9035 379.16C83.5835 378.541 83.4235 377.811 83.4235 376.968C83.4235 376.136 83.5835 375.4 83.9035 374.76C84.2342 374.12 84.6982 373.624 85.2955 373.272C85.8928 372.92 86.5968 372.744 87.4075 372.744C87.9622 372.744 88.4955 372.84 89.0075 373.032C89.5195 373.213 89.9408 373.469 90.2715 373.8L89.8075 374.856C89.4235 374.557 89.0395 374.333 88.6555 374.184C88.2822 374.024 87.8928 373.944 87.4875 373.944C86.7088 373.944 86.0848 374.205 85.6155 374.728C85.1568 375.251 84.9275 375.997 84.9275 376.968C84.9275 377.917 85.1568 378.648 85.6155 379.16C86.0742 379.672 86.7035 379.928 87.5035 379.928C87.8875 379.928 88.2715 379.853 88.6555 379.704C89.0395 379.555 89.4235 379.325 89.8075 379.016L90.2715 380.072C89.9302 380.392 89.4982 380.648 88.9755 380.84C88.4528 381.021 87.9088 381.112 87.3435 381.112ZM97.2966 381L93.0246 376.888L96.9926 372.968H98.8166L94.4006 377.272L94.4646 376.424L99.1686 381H97.2966ZM91.8566 381V369.224H93.3126V381H91.8566ZM102.859 381.112C101.483 381.112 100.39 380.765 99.579 380.072L100.043 379.016C100.47 379.347 100.912 379.592 101.371 379.752C101.84 379.901 102.352 379.976 102.907 379.976C103.483 379.976 103.92 379.88 104.219 379.688C104.528 379.485 104.683 379.197 104.683 378.824C104.683 378.525 104.576 378.291 104.363 378.12C104.16 377.939 103.819 377.789 103.339 377.672L101.995 377.352C101.302 377.203 100.768 376.936 100.395 376.552C100.032 376.168 99.851 375.704 99.851 375.16C99.851 374.691 99.979 374.275 100.235 373.912C100.502 373.549 100.87 373.267 101.339 373.064C101.808 372.851 102.363 372.744 103.003 372.744C103.568 372.744 104.102 372.835 104.603 373.016C105.115 373.197 105.547 373.459 105.899 373.8L105.435 374.84C105.051 374.52 104.656 374.285 104.251 374.136C103.846 373.976 103.424 373.896 102.987 373.896C102.443 373.896 102.016 374.003 101.707 374.216C101.408 374.429 101.259 374.717 101.259 375.08C101.259 375.389 101.355 375.635 101.547 375.816C101.739 375.997 102.043 376.141 102.459 376.248L103.819 376.584C104.587 376.744 105.152 377.011 105.515 377.384C105.878 377.747 106.059 378.216 106.059 378.792C106.059 379.496 105.771 380.061 105.195 380.488C104.619 380.904 103.84 381.112 102.859 381.112ZM112.199 377.288V376.104H116.791V377.288H112.199ZM122.434 380.328V370.552L123.25 370.888L120.098 372.872V371.48L123.074 369.608H123.922V380.328H122.434ZM119.922 381V379.768H126.434V381H119.922ZM132.331 381.128C131.019 381.128 130.022 380.637 129.339 379.656C128.657 378.664 128.315 377.213 128.315 375.304C128.315 373.395 128.651 371.949 129.323 370.968C130.006 369.976 131.009 369.48 132.331 369.48C133.654 369.48 134.651 369.976 135.323 370.968C136.006 371.949 136.347 373.389 136.347 375.288C136.347 377.197 136.006 378.648 135.323 379.64C134.641 380.632 133.643 381.128 132.331 381.128ZM132.331 379.912C133.195 379.912 133.83 379.539 134.235 378.792C134.651 378.045 134.859 376.877 134.859 375.288C134.859 373.699 134.651 372.541 134.235 371.816C133.83 371.08 133.195 370.712 132.331 370.712C131.467 370.712 130.827 371.08 130.411 371.816C130.006 372.552 129.803 373.709 129.803 375.288C129.803 376.877 130.006 378.045 130.411 378.792C130.827 379.539 131.467 379.912 132.331 379.912ZM140.165 376.504C139.376 376.504 138.752 376.216 138.293 375.64C137.834 375.064 137.605 374.189 137.605 373.016C137.605 371.832 137.834 370.957 138.293 370.392C138.752 369.827 139.376 369.544 140.165 369.544C140.954 369.544 141.573 369.827 142.021 370.392C142.48 370.957 142.709 371.832 142.709 373.016C142.709 374.189 142.48 375.064 142.021 375.64C141.573 376.216 140.954 376.504 140.165 376.504ZM140.165 375.496C140.581 375.496 140.89 375.304 141.093 374.92C141.306 374.525 141.413 373.891 141.413 373.016C141.413 372.152 141.306 371.528 141.093 371.144C140.89 370.749 140.581 370.552 140.165 370.552C139.749 370.552 139.434 370.749 139.221 371.144C139.018 371.528 138.917 372.152 138.917 373.016C138.917 373.891 139.018 374.525 139.221 374.92C139.434 375.304 139.749 375.496 140.165 375.496ZM139.941 381L146.533 369.608H147.925L141.349 381H139.941ZM147.701 381.064C146.912 381.064 146.288 380.776 145.829 380.2C145.37 379.624 145.141 378.749 145.141 377.576C145.141 376.392 145.37 375.517 145.829 374.952C146.288 374.387 146.912 374.104 147.701 374.104C148.49 374.104 149.109 374.387 149.557 374.952C150.016 375.517 150.245 376.392 150.245 377.576C150.245 378.749 150.016 379.624 149.557 380.2C149.109 380.776 148.49 381.064 147.701 381.064ZM147.701 380.056C148.117 380.056 148.426 379.864 148.629 379.48C148.842 379.085 148.949 378.451 148.949 377.576C148.949 376.712 148.842 376.088 148.629 375.704C148.426 375.309 148.117 375.112 147.701 375.112C147.285 375.112 146.97 375.309 146.757 375.704C146.554 376.088 146.453 376.712 146.453 377.576C146.453 378.451 146.554 379.085 146.757 379.48C146.97 379.864 147.285 380.056 147.701 380.056Z" fill="#10C273"/>
<g filter="url(#filter0_d)">
<rect x="15.75" y="363" width="22" height="22" rx="2" fill="#235EE7"/>
</g>
<path d="M1 377.75L5.5 373.25L1 368.75" stroke="#969EAC" stroke-width="1.3" stroke-linejoin="round"/>
<path d="M192.25 12C165.13 12 138.487 19.1389 115 32.6991C91.513 46.2593 72.0093 65.763 58.4491 89.25L111.969 120.15C120.106 106.058 131.808 94.3556 145.9 86.2194C159.992 78.0833 175.978 73.8 192.25 73.8V12Z" fill="#D3365F"/>
<path d="M58.4491 89.25C44.8889 112.737 37.75 139.38 37.75 166.5L99.55 166.5C99.55 150.228 103.833 134.242 111.969 120.15L58.4491 89.25Z" fill="#29CFD6"/>
<path d="M37.75 166.5C37.75 193.62 44.8889 220.263 58.4491 243.75C72.0093 267.237 91.513 286.741 115 300.301L145.9 246.781C131.808 238.644 120.106 226.942 111.969 212.85C103.833 198.758 99.55 182.772 99.55 166.5H37.75Z" fill="#FFBC02"/>
<path d="M115 300.301C132.571 310.446 151.968 317.03 172.084 319.678C192.199 322.327 212.64 320.987 232.238 315.736C251.835 310.484 270.207 301.424 286.304 289.073C302.4 276.722 315.906 261.321 326.051 243.75L272.531 212.85C266.444 223.393 258.34 232.633 248.682 240.044C239.024 247.455 228.001 252.891 216.243 256.041C204.484 259.192 192.22 259.996 180.15 258.407C168.081 256.818 156.443 252.867 145.9 246.781L115 300.301Z" fill="#1F32AD"/>
<g filter="url(#filter1_d)">
<path d="M326.051 243.75C339.611 220.263 346.75 193.62 346.75 166.5C346.75 139.38 339.611 112.737 326.051 89.25C312.491 65.763 292.987 46.2593 269.5 32.6991C246.013 19.1389 219.37 12 192.25 12V73.8C208.522 73.8 224.508 78.0833 238.6 86.2194C252.692 94.3556 264.394 106.058 272.531 120.15C280.667 134.242 284.95 150.228 284.95 166.5C284.95 182.772 280.667 198.758 272.531 212.85L326.051 243.75Z" fill="#235EE7"/>
</g>
<g filter="url(#filter2_d)">
<path d="M332.548 139.144L328.303 143.625C327.572 144.396 327.572 145.604 328.303 146.375L332.548 150.856C333.792 152.169 336 151.289 336 149.481V140.519C336 138.711 333.792 137.831 332.548 139.144Z" fill="#081833"/>
</g>
<g filter="url(#filter3_d)">
<path d="M332 103C332 99.6863 334.686 97 338 97H510C513.314 97 516 99.6863 516 103V187C516 190.314 513.314 193 510 193H338C334.686 193 332 190.314 332 187V103Z" fill="#081833"/>
</g>
<path d="M369.472 162.984C369.472 164.669 368.864 166.077 367.648 167.208C366.432 168.339 364.821 169 362.816 169.192V172.712H361.024V169.224C359.552 169.16 358.176 168.872 356.896 168.36C355.637 167.848 354.528 167.123 353.568 166.184L354.4 164.616C355.488 165.555 356.555 166.259 357.6 166.728C358.667 167.176 359.819 167.432 361.056 167.496V158.664C359.584 158.28 358.368 157.885 357.408 157.48C356.448 157.053 355.648 156.435 355.008 155.624C354.368 154.813 354.048 153.736 354.048 152.392C354.048 151.219 354.336 150.163 354.912 149.224C355.509 148.285 356.331 147.539 357.376 146.984C358.443 146.408 359.659 146.077 361.024 145.992V142.504H362.816V145.992C364.075 146.099 365.259 146.408 366.368 146.92C367.499 147.432 368.48 148.104 369.312 148.936L368.48 150.504C366.859 148.883 364.96 147.965 362.784 147.752V157.16C364.213 157.523 365.376 157.907 366.272 158.312C367.189 158.696 367.947 159.261 368.544 160.008C369.163 160.755 369.472 161.747 369.472 162.984ZM356.064 152.392C356.064 153.629 356.491 154.557 357.344 155.176C358.197 155.795 359.435 156.317 361.056 156.744V147.752C359.499 147.859 358.272 148.328 357.376 149.16C356.501 149.971 356.064 151.048 356.064 152.392ZM362.784 167.432C364.277 167.261 365.429 166.792 366.24 166.024C367.051 165.256 367.456 164.232 367.456 162.952C367.456 161.864 367.051 161.053 366.24 160.52C365.451 159.965 364.299 159.485 362.784 159.08V167.432ZM389.011 167.272V169H374.643V167.528L382.74 158.472C383.891 157.149 384.723 155.987 385.236 154.984C385.748 153.96 386.003 152.947 386.003 151.944C386.003 150.579 385.609 149.533 384.819 148.808C384.051 148.061 382.942 147.688 381.491 147.688C379.251 147.688 377.065 148.605 374.931 150.44L374.099 148.872C374.995 147.997 376.115 147.293 377.459 146.76C378.803 146.227 380.147 145.96 381.491 145.96C383.518 145.96 385.108 146.493 386.26 147.56C387.433 148.605 388.02 150.035 388.02 151.848C388.02 153.149 387.71 154.419 387.092 155.656C386.494 156.893 385.513 158.269 384.148 159.784L377.299 167.272H389.011ZM404.199 157.288C405.543 157.672 406.567 158.344 407.271 159.304C407.975 160.243 408.327 161.427 408.327 162.856C408.327 164.819 407.676 166.376 406.375 167.528C405.095 168.659 403.346 169.224 401.127 169.224C399.676 169.224 398.29 168.968 396.967 168.456C395.644 167.944 394.514 167.229 393.575 166.312L394.407 164.744C395.452 165.661 396.519 166.355 397.607 166.824C398.716 167.272 399.89 167.496 401.127 167.496C402.791 167.496 404.071 167.101 404.967 166.312C405.884 165.501 406.343 164.349 406.343 162.856C406.343 159.827 404.466 158.312 400.711 158.312H398.279V156.552H400.231C402.023 156.552 403.399 156.147 404.359 155.336C405.34 154.504 405.831 153.32 405.831 151.784C405.831 150.483 405.436 149.48 404.647 148.776C403.858 148.051 402.748 147.688 401.319 147.688C399.079 147.688 396.892 148.605 394.759 150.44L393.927 148.872C394.844 147.955 395.954 147.24 397.255 146.728C398.578 146.216 399.943 145.96 401.351 145.96C403.335 145.96 404.914 146.483 406.087 147.528C407.26 148.552 407.847 149.939 407.847 151.688C407.847 153.011 407.516 154.173 406.855 155.176C406.215 156.157 405.33 156.861 404.199 157.288ZM421.914 154.856C423.365 154.856 424.624 155.155 425.69 155.752C426.757 156.349 427.578 157.192 428.154 158.28C428.73 159.368 429.018 160.616 429.018 162.024C429.018 163.432 428.709 164.68 428.09 165.768C427.493 166.856 426.629 167.709 425.498 168.328C424.368 168.925 423.056 169.224 421.562 169.224C420.218 169.224 418.874 168.968 417.53 168.456C416.208 167.923 415.088 167.208 414.17 166.312L415.002 164.744C417.136 166.579 419.333 167.496 421.594 167.496C423.258 167.496 424.57 167.005 425.53 166.024C426.512 165.021 427.002 163.688 427.002 162.024C427.002 160.424 426.522 159.123 425.562 158.12C424.602 157.096 423.344 156.584 421.786 156.584C420.592 156.584 419.546 156.829 418.65 157.32C417.754 157.789 416.976 158.525 416.314 159.528H414.778V146.216H428.154V147.912H416.762V157C417.381 156.317 418.128 155.795 419.002 155.432C419.898 155.048 420.869 154.856 421.914 154.856ZM436.238 166.216V168.264C436.238 169.075 436.11 169.821 435.854 170.504C435.598 171.187 435.171 171.827 434.574 172.424L433.55 171.624C434.275 170.813 434.681 169.939 434.766 169H433.518V166.216H436.238ZM448.644 169.256C446.084 169.256 444.132 168.275 442.788 166.312C441.465 164.328 440.804 161.427 440.804 157.608C440.804 153.789 441.465 150.899 442.788 148.936C444.11 146.952 446.062 145.96 448.644 145.96C451.225 145.96 453.177 146.941 454.5 148.904C455.822 150.867 456.484 153.757 456.484 157.576C456.484 161.395 455.812 164.296 454.468 166.28C453.145 168.264 451.204 169.256 448.644 169.256ZM448.644 167.496C450.606 167.496 452.057 166.696 452.996 165.096C453.956 163.475 454.436 160.968 454.436 157.576C454.436 154.184 453.966 151.699 453.028 150.12C452.089 148.52 450.628 147.72 448.644 147.72C446.681 147.72 445.22 148.52 444.26 150.12C443.321 151.72 442.852 154.205 442.852 157.576C442.852 160.947 443.321 163.443 444.26 165.064C445.22 166.685 446.681 167.496 448.644 167.496ZM468.471 169.256C465.911 169.256 463.959 168.275 462.615 166.312C461.293 164.328 460.631 161.427 460.631 157.608C460.631 153.789 461.293 150.899 462.615 148.936C463.938 146.952 465.89 145.96 468.471 145.96C471.053 145.96 473.005 146.941 474.327 148.904C475.65 150.867 476.311 153.757 476.311 157.576C476.311 161.395 475.639 164.296 474.295 166.28C472.973 168.264 471.031 169.256 468.471 169.256ZM468.471 167.496C470.434 167.496 471.885 166.696 472.823 165.096C473.783 163.475 474.263 160.968 474.263 157.576C474.263 154.184 473.794 151.699 472.855 150.12C471.917 148.52 470.455 147.72 468.471 147.72C466.509 147.72 465.047 148.52 464.087 150.12C463.149 151.72 462.679 154.205 462.679 157.576C462.679 160.947 463.149 163.443 464.087 165.064C465.047 166.685 466.509 167.496 468.471 167.496ZM488.299 169.256C485.739 169.256 483.787 168.275 482.443 166.312C481.12 164.328 480.459 161.427 480.459 157.608C480.459 153.789 481.12 150.899 482.443 148.936C483.765 146.952 485.717 145.96 488.299 145.96C490.88 145.96 492.832 146.941 494.155 148.904C495.477 150.867 496.139 153.757 496.139 157.576C496.139 161.395 495.467 164.296 494.123 166.28C492.8 168.264 490.859 169.256 488.299 169.256ZM488.299 167.496C490.261 167.496 491.712 166.696 492.651 165.096C493.611 163.475 494.091 160.968 494.091 157.576C494.091 154.184 493.621 151.699 492.683 150.12C491.744 148.52 490.283 147.72 488.299 147.72C486.336 147.72 484.875 148.52 483.915 150.12C482.976 151.72 482.507 154.205 482.507 157.576C482.507 160.947 482.976 163.443 483.915 165.064C484.875 166.685 486.336 167.496 488.299 167.496Z" fill="white"/>
<path d="M357.056 129.128C356.171 129.128 355.36 129.011 354.624 128.776C353.899 128.541 353.269 128.189 352.736 127.72L353.328 126.504C353.883 126.952 354.459 127.277 355.056 127.48C355.653 127.683 356.325 127.784 357.072 127.784C357.925 127.784 358.587 127.624 359.056 127.304C359.525 126.984 359.76 126.531 359.76 125.944C359.76 125.453 359.541 125.085 359.104 124.84C358.667 124.584 357.973 124.349 357.024 124.136C356.117 123.944 355.376 123.725 354.8 123.48C354.224 123.224 353.771 122.888 353.44 122.472C353.109 122.045 352.944 121.501 352.944 120.84C352.944 120.179 353.12 119.597 353.472 119.096C353.824 118.584 354.32 118.189 354.96 117.912C355.611 117.624 356.357 117.48 357.2 117.48C358 117.48 358.747 117.603 359.44 117.848C360.144 118.093 360.731 118.44 361.2 118.888L360.608 120.104C360.085 119.667 359.547 119.347 358.992 119.144C358.437 118.931 357.845 118.824 357.216 118.824C356.395 118.824 355.749 119 355.28 119.352C354.811 119.693 354.576 120.163 354.576 120.76C354.576 121.272 354.779 121.661 355.184 121.928C355.6 122.195 356.261 122.435 357.168 122.648C358.117 122.861 358.885 123.085 359.472 123.32C360.059 123.555 360.528 123.875 360.88 124.28C361.232 124.685 361.408 125.208 361.408 125.848C361.408 126.509 361.232 127.085 360.88 127.576C360.528 128.067 360.021 128.451 359.36 128.728C358.709 128.995 357.941 129.128 357.056 129.128ZM365.327 122.184V126.232C365.327 126.787 365.444 127.181 365.679 127.416C365.924 127.64 366.26 127.752 366.687 127.752C366.964 127.752 367.247 127.709 367.535 127.624V128.936C367.183 129.053 366.783 129.112 366.335 129.112C365.503 129.112 364.858 128.877 364.399 128.408C363.94 127.939 363.711 127.256 363.711 126.36V122.184H362.143V120.936H363.711V118.92L365.327 118.36V120.936H367.551V122.184H365.327ZM372.515 129.112C371.726 129.112 371.033 128.941 370.435 128.6C369.838 128.259 369.374 127.773 369.043 127.144C368.723 126.515 368.563 125.779 368.563 124.936C368.563 124.093 368.723 123.357 369.043 122.728C369.374 122.088 369.838 121.597 370.435 121.256C371.033 120.915 371.726 120.744 372.515 120.744C373.294 120.744 373.982 120.915 374.579 121.256C375.177 121.597 375.635 122.088 375.955 122.728C376.286 123.357 376.451 124.093 376.451 124.936C376.451 125.779 376.286 126.515 375.955 127.144C375.635 127.773 375.177 128.259 374.579 128.6C373.982 128.941 373.294 129.112 372.515 129.112ZM372.499 127.832C373.246 127.832 373.817 127.587 374.211 127.096C374.606 126.605 374.803 125.885 374.803 124.936C374.803 124.008 374.601 123.293 374.195 122.792C373.801 122.291 373.241 122.04 372.515 122.04C371.779 122.04 371.209 122.291 370.803 122.792C370.398 123.293 370.195 124.008 370.195 124.936C370.195 125.885 370.393 126.605 370.787 127.096C371.193 127.587 371.763 127.832 372.499 127.832ZM381.844 129.112C381.034 129.112 380.324 128.941 379.716 128.6C379.119 128.259 378.66 127.779 378.34 127.16C378.02 126.531 377.86 125.8 377.86 124.968C377.86 124.136 378.026 123.4 378.356 122.76C378.698 122.12 379.172 121.624 379.78 121.272C380.388 120.92 381.098 120.744 381.908 120.744C382.474 120.744 383.018 120.84 383.54 121.032C384.063 121.213 384.484 121.464 384.804 121.784L384.308 122.952C383.551 122.355 382.788 122.056 382.02 122.056C381.242 122.056 380.634 122.312 380.196 122.824C379.759 123.325 379.54 124.035 379.54 124.952C379.54 125.869 379.759 126.579 380.196 127.08C380.634 127.571 381.242 127.816 382.02 127.816C382.81 127.816 383.572 127.517 384.308 126.92L384.804 128.088C384.463 128.408 384.026 128.659 383.492 128.84C382.97 129.021 382.42 129.112 381.844 129.112ZM391.781 129L387.925 125.192V129H386.325V117.224H387.925V124.584L391.509 120.952H393.509L389.653 124.824L393.845 129H391.781ZM397.516 129.112C396.108 129.112 394.998 128.771 394.188 128.088L394.668 126.92C395.51 127.56 396.476 127.88 397.564 127.88C398.118 127.88 398.54 127.789 398.828 127.608C399.116 127.416 399.26 127.149 399.26 126.808C399.26 126.52 399.158 126.296 398.956 126.136C398.764 125.965 398.433 125.821 397.964 125.704L396.62 125.384C395.916 125.235 395.377 124.973 395.004 124.6C394.641 124.216 394.46 123.741 394.46 123.176C394.46 122.451 394.748 121.864 395.324 121.416C395.91 120.968 396.684 120.744 397.644 120.744C398.22 120.744 398.764 120.835 399.276 121.016C399.798 121.197 400.241 121.453 400.604 121.784L400.108 122.92C399.329 122.301 398.508 121.992 397.644 121.992C397.121 121.992 396.716 122.093 396.428 122.296C396.14 122.488 395.996 122.76 395.996 123.112C395.996 123.389 396.086 123.613 396.268 123.784C396.449 123.955 396.737 124.088 397.132 124.184L398.508 124.52C399.276 124.691 399.841 124.963 400.204 125.336C400.577 125.699 400.764 126.173 400.764 126.76C400.764 127.485 400.47 128.061 399.884 128.488C399.308 128.904 398.518 129.112 397.516 129.112ZM406.886 124.04H411.542V125.352H406.886V124.04ZM421.264 127.64V129H414.608V127.64H417.104V119.576L414.784 121.016V119.496L417.808 117.608H418.768V127.64H421.264ZM427.066 129.128C425.743 129.128 424.735 128.632 424.042 127.64C423.348 126.648 423.002 125.203 423.002 123.304C423.002 121.405 423.348 119.96 424.042 118.968C424.735 117.976 425.743 117.48 427.066 117.48C428.388 117.48 429.396 117.976 430.09 118.968C430.783 119.949 431.13 121.389 431.13 123.288C431.13 125.197 430.783 126.648 430.09 127.64C429.396 128.632 428.388 129.128 427.066 129.128ZM427.066 127.8C427.887 127.8 428.49 127.437 428.874 126.712C429.268 125.976 429.466 124.835 429.466 123.288C429.466 121.741 429.274 120.611 428.89 119.896C428.506 119.181 427.898 118.824 427.066 118.824C426.244 118.824 425.636 119.187 425.242 119.912C424.858 120.627 424.666 121.752 424.666 123.288C424.666 124.835 424.858 125.976 425.242 126.712C425.636 127.437 426.244 127.8 427.066 127.8ZM435.459 124.424C434.585 124.424 433.897 124.131 433.395 123.544C432.905 122.947 432.659 122.077 432.659 120.936C432.659 119.795 432.905 118.931 433.395 118.344C433.897 117.757 434.585 117.464 435.459 117.464C436.345 117.464 437.033 117.757 437.523 118.344C438.025 118.931 438.275 119.795 438.275 120.936C438.275 122.077 438.025 122.947 437.523 123.544C437.033 124.131 436.345 124.424 435.459 124.424ZM435.379 129L441.971 117.608H443.475L436.883 129H435.379ZM435.459 123.336C435.939 123.336 436.291 123.149 436.515 122.776C436.739 122.392 436.851 121.779 436.851 120.936C436.851 120.115 436.739 119.517 436.515 119.144C436.291 118.76 435.939 118.568 435.459 118.568C434.99 118.568 434.643 118.76 434.419 119.144C434.195 119.517 434.083 120.115 434.083 120.936C434.083 121.779 434.195 122.392 434.419 122.776C434.643 123.149 434.99 123.336 435.459 123.336ZM443.395 129.112C442.51 129.112 441.817 128.819 441.315 128.232C440.825 127.635 440.579 126.765 440.579 125.624C440.579 124.483 440.825 123.619 441.315 123.032C441.817 122.445 442.51 122.152 443.395 122.152C444.281 122.152 444.969 122.445 445.459 123.032C445.95 123.619 446.195 124.483 446.195 125.624C446.195 126.765 445.95 127.635 445.459 128.232C444.969 128.819 444.281 129.112 443.395 129.112ZM443.395 128.008C443.875 128.008 444.227 127.821 444.451 127.448C444.675 127.064 444.787 126.456 444.787 125.624C444.787 124.803 444.67 124.205 444.435 123.832C444.211 123.448 443.865 123.256 443.395 123.256C442.915 123.256 442.563 123.448 442.339 123.832C442.115 124.205 442.003 124.803 442.003 125.624C442.003 126.456 442.115 127.064 442.339 127.448C442.563 127.821 442.915 128.008 443.395 128.008Z" fill="white"/>
<defs>
<filter id="filter0_d" x="7.75" y="357" width="38" height="38" filterUnits="userSpaceOnUse" color-interpolation-filters="sRGB">
<feFlood flood-opacity="0" result="BackgroundImageFix"/>
<feColorMatrix in="SourceAlpha" type="matrix" values="0 0 0 0 0 0 0 0 0 0 0 0 0 0 0 0 0 0 127 0"/>
<feOffset dy="2"/>
<feGaussianBlur stdDeviation="4"/>
<feColorMatrix type="matrix" values="0 0 0 0 0.18 0 0 0 0 0.252615 0 0 0 0 0.42 0 0 0 0.4 0"/>
<feBlend mode="normal" in2="BackgroundImageFix" result="effect1_dropShadow"/>
<feBlend mode="normal" in="SourceGraphic" in2="effect1_dropShadow" result="shape"/>
</filter>
<filter id="filter1_d" x="176.25" y="0" width="186.5" height="263.75" filterUnits="userSpaceOnUse" color-interpolation-filters="sRGB">
<feFlood flood-opacity="0" result="BackgroundImageFix"/>
<feColorMatrix in="SourceAlpha" type="matrix" values="0 0 0 0 0 0 0 0 0 0 0 0 0 0 0 0 0 0 127 0"/>
<feOffset dy="4"/>
<feGaussianBlur stdDeviation="8"/>
<feColorMatrix type="matrix" values="0 0 0 0 0.18 0 0 0 0 0.252615 0 0 0 0 0.42 0 0 0 0.4 0"/>
<feBlend mode="normal" in2="BackgroundImageFix" result="effect1_dropShadow"/>
<feBlend mode="normal" in="SourceGraphic" in2="effect1_dropShadow" result="shape"/>
</filter>
<filter id="filter2_d" x="299.756" y="114.516" width="64.245" height="68.9697" filterUnits="userSpaceOnUse" color-interpolation-filters="sRGB">
<feFlood flood-opacity="0" result="BackgroundImageFix"/>
<feColorMatrix in="SourceAlpha" type="matrix" values="0 0 0 0 0 0 0 0 0 0 0 0 0 0 0 0 0 0 127 0"/>
<feOffset dy="4"/>
<feGaussianBlur stdDeviation="14"/>
<feColorMatrix type="matrix" values="0 0 0 0 0.0313726 0 0 0 0 0.0941176 0 0 0 0 0.2 0 0 0 0.44 0"/>
<feBlend mode="normal" in2="BackgroundImageFix" result="effect1_dropShadow"/>
<feBlend mode="normal" in="SourceGraphic" in2="effect1_dropShadow" result="shape"/>
</filter>
<filter id="filter3_d" x="304" y="73" width="240" height="152" filterUnits="userSpaceOnUse" color-interpolation-filters="sRGB">
<feFlood flood-opacity="0" result="BackgroundImageFix"/>
<feColorMatrix in="SourceAlpha" type="matrix" values="0 0 0 0 0 0 0 0 0 0 0 0 0 0 0 0 0 0 127 0"/>
<feOffset dy="4"/>
<feGaussianBlur stdDeviation="14"/>
<feColorMatrix type="matrix" values="0 0 0 0 0.0313726 0 0 0 0 0.0941176 0 0 0 0 0.2 0 0 0 0.44 0"/>
<feBlend mode="normal" in2="BackgroundImageFix" result="effect1_dropShadow"/>
<feBlend mode="normal" in="SourceGraphic" in2="effect1_dropShadow" result="shape"/>
</filter>
</defs>
</svg>
