<svg width="507" height="321" viewBox="0 0 507 321" fill="none" xmlns="http://www.w3.org/2000/svg">
<path d="M155.25 12C128.13 12 101.487 19.1389 78 32.6991C54.513 46.2593 35.0093 65.763 21.4491 89.25L74.9694 120.15C83.1056 106.058 94.8078 94.3556 108.9 86.2194C122.992 78.0833 138.978 73.8 155.25 73.8V12Z" fill="#D3365F"/>
<path d="M21.4491 89.25C7.88886 112.737 0.749996 139.38 0.75 166.5L62.55 166.5C62.55 150.228 66.8333 134.242 74.9694 120.15L21.4491 89.25Z" fill="#29CFD6"/>
<path d="M0.75 166.5C0.749998 193.62 7.88886 220.263 21.4491 243.75C35.0093 267.237 54.513 286.741 78 300.301L108.9 246.781C94.8078 238.644 83.1056 226.942 74.9694 212.85C66.8333 198.758 62.55 182.772 62.55 166.5H0.75Z" fill="#FFBC02"/>
<path d="M78 300.301C95.571 310.446 114.968 317.03 135.084 319.678C155.199 322.327 175.64 320.987 195.238 315.736C214.835 310.484 233.207 301.424 249.304 289.073C265.4 276.722 278.906 261.321 289.051 243.75L235.531 212.85C229.444 223.393 221.34 232.633 211.682 240.044C202.024 247.455 191.001 252.891 179.243 256.041C167.484 259.192 155.22 259.996 143.15 258.407C131.081 256.818 119.443 252.867 108.9 246.781L78 300.301Z" fill="#1F32AD"/>
  <path d="M289.051 243.75C302.611 220.263 309.75 193.62 309.75 166.5C309.75 139.38 302.611 112.737 289.051 89.25C275.491 65.763 255.987 46.2593 232.5 32.6991C209.013 19.1389 182.37 12 155.25 12V73.8C171.522 73.8 187.508 78.0833 201.6 86.2194C215.692 94.3556 227.394 106.058 235.531 120.15C243.667 134.242 247.95 150.228 247.95 166.5C247.95 182.772 243.667 198.758 235.531 212.85L289.051 243.75Z" fill="#235EE7"/>
<g filter="url(#filter1_d)">
<path d="M295.548 139.144L291.303 143.625C290.572 144.396 290.572 145.604 291.303 146.375L295.548 150.856C296.792 152.169 299 151.289 299 149.481V140.519C299 138.711 296.792 137.831 295.548 139.144Z" fill="#081833"/>
</g>
<g filter="url(#filter2_d)">
<path d="M295 103C295 99.6863 297.686 97 301 97H473C476.314 97 479 99.6863 479 103V187C479 190.314 476.314 193 473 193H301C297.686 193 295 190.314 295 187V103Z" fill="#081833"/>
</g>
<path d="M332.472 162.984C332.472 164.669 331.864 166.077 330.648 167.208C329.432 168.339 327.821 169 325.816 169.192V172.712H324.024V169.224C322.552 169.16 321.176 168.872 319.896 168.36C318.637 167.848 317.528 167.123 316.568 166.184L317.4 164.616C318.488 165.555 319.555 166.259 320.6 166.728C321.667 167.176 322.819 167.432 324.056 167.496V158.664C322.584 158.28 321.368 157.885 320.408 157.48C319.448 157.053 318.648 156.435 318.008 155.624C317.368 154.813 317.048 153.736 317.048 152.392C317.048 151.219 317.336 150.163 317.912 149.224C318.509 148.285 319.331 147.539 320.376 146.984C321.443 146.408 322.659 146.077 324.024 145.992V142.504H325.816V145.992C327.075 146.099 328.259 146.408 329.368 146.92C330.499 147.432 331.48 148.104 332.312 148.936L331.48 150.504C329.859 148.883 327.96 147.965 325.784 147.752V157.16C327.213 157.523 328.376 157.907 329.272 158.312C330.189 158.696 330.947 159.261 331.544 160.008C332.163 160.755 332.472 161.747 332.472 162.984ZM319.064 152.392C319.064 153.629 319.491 154.557 320.344 155.176C321.197 155.795 322.435 156.317 324.056 156.744V147.752C322.499 147.859 321.272 148.328 320.376 149.16C319.501 149.971 319.064 151.048 319.064 152.392ZM325.784 167.432C327.277 167.261 328.429 166.792 329.24 166.024C330.051 165.256 330.456 164.232 330.456 162.952C330.456 161.864 330.051 161.053 329.24 160.52C328.451 159.965 327.299 159.485 325.784 159.08V167.432ZM352.011 167.272V169H337.643V167.528L345.74 158.472C346.891 157.149 347.723 155.987 348.236 154.984C348.748 153.96 349.003 152.947 349.003 151.944C349.003 150.579 348.609 149.533 347.819 148.808C347.051 148.061 345.942 147.688 344.491 147.688C342.251 147.688 340.065 148.605 337.931 150.44L337.099 148.872C337.995 147.997 339.115 147.293 340.459 146.76C341.803 146.227 343.147 145.96 344.491 145.96C346.518 145.96 348.108 146.493 349.26 147.56C350.433 148.605 351.02 150.035 351.02 151.848C351.02 153.149 350.71 154.419 350.092 155.656C349.494 156.893 348.513 158.269 347.148 159.784L340.299 167.272H352.011ZM367.199 157.288C368.543 157.672 369.567 158.344 370.271 159.304C370.975 160.243 371.327 161.427 371.327 162.856C371.327 164.819 370.676 166.376 369.375 167.528C368.095 168.659 366.346 169.224 364.127 169.224C362.676 169.224 361.29 168.968 359.967 168.456C358.644 167.944 357.514 167.229 356.575 166.312L357.407 164.744C358.452 165.661 359.519 166.355 360.607 166.824C361.716 167.272 362.89 167.496 364.127 167.496C365.791 167.496 367.071 167.101 367.967 166.312C368.884 165.501 369.343 164.349 369.343 162.856C369.343 159.827 367.466 158.312 363.711 158.312H361.279V156.552H363.231C365.023 156.552 366.399 156.147 367.359 155.336C368.34 154.504 368.831 153.32 368.831 151.784C368.831 150.483 368.436 149.48 367.647 148.776C366.858 148.051 365.748 147.688 364.319 147.688C362.079 147.688 359.892 148.605 357.759 150.44L356.927 148.872C357.844 147.955 358.954 147.24 360.255 146.728C361.578 146.216 362.943 145.96 364.351 145.96C366.335 145.96 367.914 146.483 369.087 147.528C370.26 148.552 370.847 149.939 370.847 151.688C370.847 153.011 370.516 154.173 369.855 155.176C369.215 156.157 368.33 156.861 367.199 157.288ZM384.914 154.856C386.365 154.856 387.624 155.155 388.69 155.752C389.757 156.349 390.578 157.192 391.154 158.28C391.73 159.368 392.018 160.616 392.018 162.024C392.018 163.432 391.709 164.68 391.09 165.768C390.493 166.856 389.629 167.709 388.498 168.328C387.368 168.925 386.056 169.224 384.562 169.224C383.218 169.224 381.874 168.968 380.53 168.456C379.208 167.923 378.088 167.208 377.17 166.312L378.002 164.744C380.136 166.579 382.333 167.496 384.594 167.496C386.258 167.496 387.57 167.005 388.53 166.024C389.512 165.021 390.002 163.688 390.002 162.024C390.002 160.424 389.522 159.123 388.562 158.12C387.602 157.096 386.344 156.584 384.786 156.584C383.592 156.584 382.546 156.829 381.65 157.32C380.754 157.789 379.976 158.525 379.314 159.528H377.778V146.216H391.154V147.912H379.762V157C380.381 156.317 381.128 155.795 382.002 155.432C382.898 155.048 383.869 154.856 384.914 154.856ZM399.238 166.216V168.264C399.238 169.075 399.11 169.821 398.854 170.504C398.598 171.187 398.171 171.827 397.574 172.424L396.55 171.624C397.275 170.813 397.681 169.939 397.766 169H396.518V166.216H399.238ZM411.644 169.256C409.084 169.256 407.132 168.275 405.788 166.312C404.465 164.328 403.804 161.427 403.804 157.608C403.804 153.789 404.465 150.899 405.788 148.936C407.11 146.952 409.062 145.96 411.644 145.96C414.225 145.96 416.177 146.941 417.5 148.904C418.822 150.867 419.484 153.757 419.484 157.576C419.484 161.395 418.812 164.296 417.468 166.28C416.145 168.264 414.204 169.256 411.644 169.256ZM411.644 167.496C413.606 167.496 415.057 166.696 415.996 165.096C416.956 163.475 417.436 160.968 417.436 157.576C417.436 154.184 416.966 151.699 416.028 150.12C415.089 148.52 413.628 147.72 411.644 147.72C409.681 147.72 408.22 148.52 407.26 150.12C406.321 151.72 405.852 154.205 405.852 157.576C405.852 160.947 406.321 163.443 407.26 165.064C408.22 166.685 409.681 167.496 411.644 167.496ZM431.471 169.256C428.911 169.256 426.959 168.275 425.615 166.312C424.293 164.328 423.631 161.427 423.631 157.608C423.631 153.789 424.293 150.899 425.615 148.936C426.938 146.952 428.89 145.96 431.471 145.96C434.053 145.96 436.005 146.941 437.327 148.904C438.65 150.867 439.311 153.757 439.311 157.576C439.311 161.395 438.639 164.296 437.295 166.28C435.973 168.264 434.031 169.256 431.471 169.256ZM431.471 167.496C433.434 167.496 434.885 166.696 435.823 165.096C436.783 163.475 437.263 160.968 437.263 157.576C437.263 154.184 436.794 151.699 435.855 150.12C434.917 148.52 433.455 147.72 431.471 147.72C429.509 147.72 428.047 148.52 427.087 150.12C426.149 151.72 425.679 154.205 425.679 157.576C425.679 160.947 426.149 163.443 427.087 165.064C428.047 166.685 429.509 167.496 431.471 167.496ZM451.299 169.256C448.739 169.256 446.787 168.275 445.443 166.312C444.12 164.328 443.459 161.427 443.459 157.608C443.459 153.789 444.12 150.899 445.443 148.936C446.765 146.952 448.717 145.96 451.299 145.96C453.88 145.96 455.832 146.941 457.155 148.904C458.477 150.867 459.139 153.757 459.139 157.576C459.139 161.395 458.467 164.296 457.123 166.28C455.8 168.264 453.859 169.256 451.299 169.256ZM451.299 167.496C453.261 167.496 454.712 166.696 455.651 165.096C456.611 163.475 457.091 160.968 457.091 157.576C457.091 154.184 456.621 151.699 455.683 150.12C454.744 148.52 453.283 147.72 451.299 147.72C449.336 147.72 447.875 148.52 446.915 150.12C445.976 151.72 445.507 154.205 445.507 157.576C445.507 160.947 445.976 163.443 446.915 165.064C447.875 166.685 449.336 167.496 451.299 167.496Z" fill="white"/>
<path d="M320.056 129.128C319.171 129.128 318.36 129.011 317.624 128.776C316.899 128.541 316.269 128.189 315.736 127.72L316.328 126.504C316.883 126.952 317.459 127.277 318.056 127.48C318.653 127.683 319.325 127.784 320.072 127.784C320.925 127.784 321.587 127.624 322.056 127.304C322.525 126.984 322.76 126.531 322.76 125.944C322.76 125.453 322.541 125.085 322.104 124.84C321.667 124.584 320.973 124.349 320.024 124.136C319.117 123.944 318.376 123.725 317.8 123.48C317.224 123.224 316.771 122.888 316.44 122.472C316.109 122.045 315.944 121.501 315.944 120.84C315.944 120.179 316.12 119.597 316.472 119.096C316.824 118.584 317.32 118.189 317.96 117.912C318.611 117.624 319.357 117.48 320.2 117.48C321 117.48 321.747 117.603 322.44 117.848C323.144 118.093 323.731 118.44 324.2 118.888L323.608 120.104C323.085 119.667 322.547 119.347 321.992 119.144C321.437 118.931 320.845 118.824 320.216 118.824C319.395 118.824 318.749 119 318.28 119.352C317.811 119.693 317.576 120.163 317.576 120.76C317.576 121.272 317.779 121.661 318.184 121.928C318.6 122.195 319.261 122.435 320.168 122.648C321.117 122.861 321.885 123.085 322.472 123.32C323.059 123.555 323.528 123.875 323.88 124.28C324.232 124.685 324.408 125.208 324.408 125.848C324.408 126.509 324.232 127.085 323.88 127.576C323.528 128.067 323.021 128.451 322.36 128.728C321.709 128.995 320.941 129.128 320.056 129.128ZM328.327 122.184V126.232C328.327 126.787 328.444 127.181 328.679 127.416C328.924 127.64 329.26 127.752 329.687 127.752C329.964 127.752 330.247 127.709 330.535 127.624V128.936C330.183 129.053 329.783 129.112 329.335 129.112C328.503 129.112 327.858 128.877 327.399 128.408C326.94 127.939 326.711 127.256 326.711 126.36V122.184H325.143V120.936H326.711V118.92L328.327 118.36V120.936H330.551V122.184H328.327ZM335.515 129.112C334.726 129.112 334.033 128.941 333.435 128.6C332.838 128.259 332.374 127.773 332.043 127.144C331.723 126.515 331.563 125.779 331.563 124.936C331.563 124.093 331.723 123.357 332.043 122.728C332.374 122.088 332.838 121.597 333.435 121.256C334.033 120.915 334.726 120.744 335.515 120.744C336.294 120.744 336.982 120.915 337.579 121.256C338.177 121.597 338.635 122.088 338.955 122.728C339.286 123.357 339.451 124.093 339.451 124.936C339.451 125.779 339.286 126.515 338.955 127.144C338.635 127.773 338.177 128.259 337.579 128.6C336.982 128.941 336.294 129.112 335.515 129.112ZM335.499 127.832C336.246 127.832 336.817 127.587 337.211 127.096C337.606 126.605 337.803 125.885 337.803 124.936C337.803 124.008 337.601 123.293 337.195 122.792C336.801 122.291 336.241 122.04 335.515 122.04C334.779 122.04 334.209 122.291 333.803 122.792C333.398 123.293 333.195 124.008 333.195 124.936C333.195 125.885 333.393 126.605 333.787 127.096C334.193 127.587 334.763 127.832 335.499 127.832ZM344.844 129.112C344.034 129.112 343.324 128.941 342.716 128.6C342.119 128.259 341.66 127.779 341.34 127.16C341.02 126.531 340.86 125.8 340.86 124.968C340.86 124.136 341.026 123.4 341.356 122.76C341.698 122.12 342.172 121.624 342.78 121.272C343.388 120.92 344.098 120.744 344.908 120.744C345.474 120.744 346.018 120.84 346.54 121.032C347.063 121.213 347.484 121.464 347.804 121.784L347.308 122.952C346.551 122.355 345.788 122.056 345.02 122.056C344.242 122.056 343.634 122.312 343.196 122.824C342.759 123.325 342.54 124.035 342.54 124.952C342.54 125.869 342.759 126.579 343.196 127.08C343.634 127.571 344.242 127.816 345.02 127.816C345.81 127.816 346.572 127.517 347.308 126.92L347.804 128.088C347.463 128.408 347.026 128.659 346.492 128.84C345.97 129.021 345.42 129.112 344.844 129.112ZM354.781 129L350.925 125.192V129H349.325V117.224H350.925V124.584L354.509 120.952H356.509L352.653 124.824L356.845 129H354.781ZM360.516 129.112C359.108 129.112 357.998 128.771 357.188 128.088L357.668 126.92C358.51 127.56 359.476 127.88 360.564 127.88C361.118 127.88 361.54 127.789 361.828 127.608C362.116 127.416 362.26 127.149 362.26 126.808C362.26 126.52 362.158 126.296 361.956 126.136C361.764 125.965 361.433 125.821 360.964 125.704L359.62 125.384C358.916 125.235 358.377 124.973 358.004 124.6C357.641 124.216 357.46 123.741 357.46 123.176C357.46 122.451 357.748 121.864 358.324 121.416C358.91 120.968 359.684 120.744 360.644 120.744C361.22 120.744 361.764 120.835 362.276 121.016C362.798 121.197 363.241 121.453 363.604 121.784L363.108 122.92C362.329 122.301 361.508 121.992 360.644 121.992C360.121 121.992 359.716 122.093 359.428 122.296C359.14 122.488 358.996 122.76 358.996 123.112C358.996 123.389 359.086 123.613 359.268 123.784C359.449 123.955 359.737 124.088 360.132 124.184L361.508 124.52C362.276 124.691 362.841 124.963 363.204 125.336C363.577 125.699 363.764 126.173 363.764 126.76C363.764 127.485 363.47 128.061 362.884 128.488C362.308 128.904 361.518 129.112 360.516 129.112ZM369.886 124.04H374.542V125.352H369.886V124.04ZM384.264 127.64V129H377.608V127.64H380.104V119.576L377.784 121.016V119.496L380.808 117.608H381.768V127.64H384.264ZM390.066 129.128C388.743 129.128 387.735 128.632 387.042 127.64C386.348 126.648 386.002 125.203 386.002 123.304C386.002 121.405 386.348 119.96 387.042 118.968C387.735 117.976 388.743 117.48 390.066 117.48C391.388 117.48 392.396 117.976 393.09 118.968C393.783 119.949 394.13 121.389 394.13 123.288C394.13 125.197 393.783 126.648 393.09 127.64C392.396 128.632 391.388 129.128 390.066 129.128ZM390.066 127.8C390.887 127.8 391.49 127.437 391.874 126.712C392.268 125.976 392.466 124.835 392.466 123.288C392.466 121.741 392.274 120.611 391.89 119.896C391.506 119.181 390.898 118.824 390.066 118.824C389.244 118.824 388.636 119.187 388.242 119.912C387.858 120.627 387.666 121.752 387.666 123.288C387.666 124.835 387.858 125.976 388.242 126.712C388.636 127.437 389.244 127.8 390.066 127.8ZM398.459 124.424C397.585 124.424 396.897 124.131 396.395 123.544C395.905 122.947 395.659 122.077 395.659 120.936C395.659 119.795 395.905 118.931 396.395 118.344C396.897 117.757 397.585 117.464 398.459 117.464C399.345 117.464 400.033 117.757 400.523 118.344C401.025 118.931 401.275 119.795 401.275 120.936C401.275 122.077 401.025 122.947 400.523 123.544C400.033 124.131 399.345 124.424 398.459 124.424ZM398.379 129L404.971 117.608H406.475L399.883 129H398.379ZM398.459 123.336C398.939 123.336 399.291 123.149 399.515 122.776C399.739 122.392 399.851 121.779 399.851 120.936C399.851 120.115 399.739 119.517 399.515 119.144C399.291 118.76 398.939 118.568 398.459 118.568C397.99 118.568 397.643 118.76 397.419 119.144C397.195 119.517 397.083 120.115 397.083 120.936C397.083 121.779 397.195 122.392 397.419 122.776C397.643 123.149 397.99 123.336 398.459 123.336ZM406.395 129.112C405.51 129.112 404.817 128.819 404.315 128.232C403.825 127.635 403.579 126.765 403.579 125.624C403.579 124.483 403.825 123.619 404.315 123.032C404.817 122.445 405.51 122.152 406.395 122.152C407.281 122.152 407.969 122.445 408.459 123.032C408.95 123.619 409.195 124.483 409.195 125.624C409.195 126.765 408.95 127.635 408.459 128.232C407.969 128.819 407.281 129.112 406.395 129.112ZM406.395 128.008C406.875 128.008 407.227 127.821 407.451 127.448C407.675 127.064 407.787 126.456 407.787 125.624C407.787 124.803 407.67 124.205 407.435 123.832C407.211 123.448 406.865 123.256 406.395 123.256C405.915 123.256 405.563 123.448 405.339 123.832C405.115 124.205 405.003 124.803 405.003 125.624C405.003 126.456 405.115 127.064 405.339 127.448C405.563 127.821 405.915 128.008 406.395 128.008Z" fill="white"/>
<defs>
<filter id="filter0_d" x="139.25" y="0" width="186.5" height="263.75" filterUnits="userSpaceOnUse" color-interpolation-filters="sRGB">
<feFlood flood-opacity="0" result="BackgroundImageFix"/>
<feColorMatrix in="SourceAlpha" type="matrix" values="0 0 0 0 0 0 0 0 0 0 0 0 0 0 0 0 0 0 127 0"/>
<feOffset dy="4"/>
<feGaussianBlur stdDeviation="8"/>
<feColorMatrix type="matrix" values="0 0 0 0 0.18 0 0 0 0 0.252615 0 0 0 0 0.42 0 0 0 0.4 0"/>
<feBlend mode="normal" in2="BackgroundImageFix" result="effect1_dropShadow"/>
<feBlend mode="normal" in="SourceGraphic" in2="effect1_dropShadow" result="shape"/>
</filter>
<filter id="filter1_d" x="262.756" y="114.516" width="64.245" height="68.9697" filterUnits="userSpaceOnUse" color-interpolation-filters="sRGB">
<feFlood flood-opacity="0" result="BackgroundImageFix"/>
<feColorMatrix in="SourceAlpha" type="matrix" values="0 0 0 0 0 0 0 0 0 0 0 0 0 0 0 0 0 0 127 0"/>
<feOffset dy="4"/>
<feGaussianBlur stdDeviation="14"/>
<feColorMatrix type="matrix" values="0 0 0 0 0.0313726 0 0 0 0 0.0941176 0 0 0 0 0.2 0 0 0 0.44 0"/>
<feBlend mode="normal" in2="BackgroundImageFix" result="effect1_dropShadow"/>
<feBlend mode="normal" in="SourceGraphic" in2="effect1_dropShadow" result="shape"/>
</filter>
<filter id="filter2_d" x="267" y="73" width="240" height="152" filterUnits="userSpaceOnUse" color-interpolation-filters="sRGB">
<feFlood flood-opacity="0" result="BackgroundImageFix"/>
<feColorMatrix in="SourceAlpha" type="matrix" values="0 0 0 0 0 0 0 0 0 0 0 0 0 0 0 0 0 0 127 0"/>
<feOffset dy="4"/>
<feGaussianBlur stdDeviation="14"/>
<feColorMatrix type="matrix" values="0 0 0 0 0.0313726 0 0 0 0 0.0941176 0 0 0 0 0.2 0 0 0 0.44 0"/>
<feBlend mode="normal" in2="BackgroundImageFix" result="effect1_dropShadow"/>
<feBlend mode="normal" in="SourceGraphic" in2="effect1_dropShadow" result="shape"/>
</filter>
</defs>
</svg>
