<svg width="718" height="405" viewBox="0 0 718 405" fill="none" xmlns="http://www.w3.org/2000/svg">
  <path d="M646.675 400.16C645.688 400.16 644.755 400 643.875 399.68C643.008 399.347 642.255 398.867 641.615 398.24L642.115 397.26C642.835 397.9 643.555 398.36 644.275 398.64C644.995 398.92 645.795 399.06 646.675 399.06C647.808 399.06 648.688 398.813 649.315 398.32C649.955 397.813 650.275 397.12 650.275 396.24C650.275 395.693 650.122 395.267 649.815 394.96C649.522 394.64 649.122 394.387 648.615 394.2C648.122 394.013 647.575 393.853 646.975 393.72C646.388 393.573 645.795 393.413 645.195 393.24C644.595 393.067 644.042 392.84 643.535 392.56C643.042 392.28 642.642 391.907 642.335 391.44C642.042 390.973 641.895 390.367 641.895 389.62C641.895 388.833 642.102 388.14 642.515 387.54C642.928 386.927 643.502 386.453 644.235 386.12C644.968 385.773 645.802 385.6 646.735 385.6C647.335 385.6 647.915 385.673 648.475 385.82C649.048 385.967 649.582 386.18 650.075 386.46C650.582 386.727 651.028 387.06 651.415 387.46L650.915 388.44C649.768 387.28 648.375 386.7 646.735 386.7C645.628 386.7 644.755 386.96 644.115 387.48C643.475 388 643.155 388.707 643.155 389.6C643.155 390.2 643.302 390.673 643.595 391.02C643.902 391.367 644.308 391.647 644.815 391.86C645.322 392.06 645.868 392.233 646.455 392.38C647.055 392.527 647.648 392.68 648.235 392.84C648.835 393 649.382 393.213 649.875 393.48C650.382 393.733 650.782 394.08 651.075 394.52C651.382 394.96 651.535 395.527 651.535 396.22C651.535 397.007 651.328 397.693 650.915 398.28C650.502 398.867 649.928 399.327 649.195 399.66C648.462 399.993 647.622 400.16 646.675 400.16ZM646.255 402.32V399.94L646.275 399.32V386.36L646.255 385.82V383.44H647.375V385.82L647.355 386.36V399.32L647.375 399.94V402.32H646.255ZM654.367 400V399.06L659.427 393.42C660.134 392.607 660.647 391.887 660.967 391.26C661.301 390.62 661.467 389.973 661.467 389.32C661.467 388.48 661.221 387.833 660.727 387.38C660.247 386.913 659.554 386.68 658.647 386.68C657.927 386.68 657.227 386.827 656.547 387.12C655.881 387.4 655.214 387.827 654.547 388.4L654.027 387.42C654.587 386.873 655.287 386.433 656.127 386.1C656.967 385.767 657.807 385.6 658.647 385.6C659.487 385.6 660.207 385.747 660.807 386.04C661.421 386.333 661.894 386.76 662.227 387.32C662.561 387.867 662.727 388.52 662.727 389.28C662.727 390.093 662.534 390.887 662.147 391.66C661.774 392.42 661.161 393.28 660.307 394.24L655.287 399.72L655.267 398.94H663.347V400H654.367ZM670.459 399.46V386.28L671.259 386.88L667.519 389.3V388.04L670.999 385.76H671.699V399.46H670.459ZM667.299 400V398.94H674.859V400H667.299ZM678.612 402.14L677.992 401.64C678.312 401.28 678.518 400.953 678.612 400.66C678.705 400.38 678.752 400.087 678.752 399.78L679.172 400H677.972V398.26H679.672V399.56C679.672 400.027 679.592 400.473 679.432 400.9C679.285 401.327 679.012 401.74 678.612 402.14ZM687.025 400.16C685.425 400.16 684.212 399.547 683.385 398.32C682.558 397.08 682.145 395.267 682.145 392.88C682.145 390.48 682.552 388.667 683.365 387.44C684.192 386.213 685.412 385.6 687.025 385.6C688.638 385.6 689.852 386.213 690.665 387.44C691.492 388.667 691.905 390.473 691.905 392.86C691.905 395.247 691.492 397.06 690.665 398.3C689.838 399.54 688.625 400.16 687.025 400.16ZM687.025 399.06C688.252 399.06 689.158 398.56 689.745 397.56C690.345 396.547 690.645 394.98 690.645 392.86C690.645 390.74 690.352 389.187 689.765 388.2C689.178 387.2 688.265 386.7 687.025 386.7C685.798 386.7 684.885 387.2 684.285 388.2C683.698 389.2 683.405 390.753 683.405 392.86C683.405 394.967 683.698 396.527 684.285 397.54C684.885 398.553 685.798 399.06 687.025 399.06ZM699.017 400.16C697.417 400.16 696.204 399.547 695.377 398.32C694.551 397.08 694.137 395.267 694.137 392.88C694.137 390.48 694.544 388.667 695.357 387.44C696.184 386.213 697.404 385.6 699.017 385.6C700.631 385.6 701.844 386.213 702.657 387.44C703.484 388.667 703.897 390.473 703.897 392.86C703.897 395.247 703.484 397.06 702.657 398.3C701.831 399.54 700.617 400.16 699.017 400.16ZM699.017 399.06C700.244 399.06 701.151 398.56 701.737 397.56C702.337 396.547 702.637 394.98 702.637 392.86C702.637 390.74 702.344 389.187 701.757 388.2C701.171 387.2 700.257 386.7 699.017 386.7C697.791 386.7 696.877 387.2 696.277 388.2C695.691 389.2 695.397 390.753 695.397 392.86C695.397 394.967 695.691 396.527 696.277 397.54C696.877 398.553 697.791 399.06 699.017 399.06ZM711.01 400.16C709.41 400.16 708.196 399.547 707.37 398.32C706.543 397.08 706.13 395.267 706.13 392.88C706.13 390.48 706.536 388.667 707.35 387.44C708.176 386.213 709.396 385.6 711.01 385.6C712.623 385.6 713.836 386.213 714.65 387.44C715.476 388.667 715.89 390.473 715.89 392.86C715.89 395.247 715.476 397.06 714.65 398.3C713.823 399.54 712.61 400.16 711.01 400.16ZM711.01 399.06C712.236 399.06 713.143 398.56 713.73 397.56C714.33 396.547 714.63 394.98 714.63 392.86C714.63 390.74 714.336 389.187 713.75 388.2C713.163 387.2 712.25 386.7 711.01 386.7C709.783 386.7 708.87 387.2 708.27 388.2C707.683 389.2 707.39 390.753 707.39 392.86C707.39 394.967 707.683 396.527 708.27 397.54C708.87 398.553 709.783 399.06 711.01 399.06Z" fill="#969EAC"/>
  <path d="M409.165 400V388.608H413.757C415.005 388.608 415.954 388.885 416.605 389.44C417.266 389.984 417.597 390.773 417.597 391.808C417.597 392.789 417.261 393.563 416.589 394.128C415.917 394.693 414.978 394.976 413.773 394.976L414.973 394.752C415.389 394.752 415.746 394.869 416.045 395.104C416.344 395.328 416.584 395.691 416.765 396.192L418.205 400H416.621L415.213 396.208C415.042 395.749 414.802 395.445 414.493 395.296C414.194 395.147 413.794 395.072 413.293 395.072H410.621V400H409.165ZM410.621 393.872H413.613C414.477 393.872 415.117 393.701 415.533 393.36C415.949 393.008 416.157 392.496 416.157 391.824C416.157 391.141 415.949 390.635 415.533 390.304C415.128 389.973 414.488 389.808 413.613 389.808H410.621V393.872ZM426.786 399.056C426.434 399.387 425.981 399.648 425.426 399.84C424.871 400.021 424.306 400.112 423.73 400.112C422.887 400.112 422.162 399.947 421.554 399.616C420.946 399.285 420.477 398.811 420.146 398.192C419.815 397.563 419.65 396.816 419.65 395.952C419.65 395.12 419.81 394.389 420.13 393.76C420.461 393.131 420.914 392.64 421.49 392.288C422.066 391.925 422.727 391.744 423.474 391.744C424.199 391.744 424.818 391.904 425.33 392.224C425.853 392.544 426.247 393.003 426.514 393.6C426.791 394.187 426.93 394.891 426.93 395.712V395.968H420.93V395.072H426.098L425.65 395.648C425.671 394.741 425.495 394.048 425.122 393.568C424.749 393.088 424.205 392.848 423.49 392.848C422.743 392.848 422.157 393.115 421.73 393.648C421.314 394.171 421.106 394.907 421.106 395.856C421.106 396.88 421.33 397.653 421.778 398.176C422.226 398.688 422.887 398.944 423.762 398.944C424.231 398.944 424.679 398.869 425.106 398.72C425.533 398.56 425.938 398.325 426.322 398.016L426.786 399.056ZM431.937 400.112C431.233 400.112 430.609 399.947 430.065 399.616C429.531 399.275 429.115 398.795 428.817 398.176C428.518 397.547 428.369 396.811 428.369 395.968C428.369 395.125 428.518 394.389 428.817 393.76C429.126 393.131 429.547 392.64 430.081 392.288C430.625 391.925 431.243 391.744 431.937 391.744C432.662 391.744 433.281 391.925 433.793 392.288C434.305 392.64 434.651 393.147 434.833 393.808L434.641 393.92V391.952H436.081V400H434.641V397.984L434.833 398.064C434.651 398.715 434.305 399.221 433.793 399.584C433.281 399.936 432.662 400.112 431.937 400.112ZM432.257 398.928C433.025 398.928 433.611 398.672 434.017 398.16C434.433 397.637 434.641 396.896 434.641 395.936C434.641 394.976 434.433 394.24 434.017 393.728C433.601 393.205 433.014 392.944 432.257 392.944C431.499 392.944 430.907 393.211 430.481 393.744C430.054 394.277 429.841 395.019 429.841 395.968C429.841 396.917 430.054 397.648 430.481 398.16C430.907 398.672 431.499 398.928 432.257 398.928ZM438.505 400V388.224H439.961V400H438.505ZM446.774 400V388.608H454.054V389.824H448.23V393.6H453.734V394.832H448.23V398.784H454.054V400H446.774ZM458.82 400.112C457.444 400.112 456.351 399.765 455.54 399.072L456.004 398.016C456.431 398.347 456.873 398.592 457.332 398.752C457.801 398.901 458.313 398.976 458.868 398.976C459.444 398.976 459.881 398.88 460.18 398.688C460.489 398.485 460.644 398.197 460.644 397.824C460.644 397.525 460.537 397.291 460.324 397.12C460.121 396.939 459.78 396.789 459.3 396.672L457.956 396.352C457.263 396.203 456.729 395.936 456.356 395.552C455.993 395.168 455.812 394.704 455.812 394.16C455.812 393.691 455.94 393.275 456.196 392.912C456.463 392.549 456.831 392.267 457.3 392.064C457.769 391.851 458.324 391.744 458.964 391.744C459.529 391.744 460.063 391.835 460.564 392.016C461.076 392.197 461.508 392.459 461.86 392.8L461.396 393.84C461.012 393.52 460.617 393.285 460.212 393.136C459.807 392.976 459.385 392.896 458.948 392.896C458.404 392.896 457.977 393.003 457.668 393.216C457.369 393.429 457.22 393.717 457.22 394.08C457.22 394.389 457.316 394.635 457.508 394.816C457.7 394.997 458.004 395.141 458.42 395.248L459.78 395.584C460.548 395.744 461.113 396.011 461.476 396.384C461.839 396.747 462.02 397.216 462.02 397.792C462.02 398.496 461.732 399.061 461.156 399.488C460.58 399.904 459.801 400.112 458.82 400.112ZM462.823 393.072V391.952H468.103V393.072H462.823ZM468.071 398.736V399.952C467.89 400.005 467.703 400.043 467.511 400.064C467.33 400.096 467.132 400.112 466.919 400.112C466.13 400.112 465.506 399.888 465.047 399.44C464.599 398.992 464.375 398.331 464.375 397.456V389.904L465.831 389.392V397.296C465.831 397.712 465.89 398.037 466.007 398.272C466.135 398.496 466.3 398.656 466.503 398.752C466.716 398.837 466.956 398.88 467.223 398.88C467.372 398.88 467.511 398.869 467.639 398.848C467.767 398.827 467.911 398.789 468.071 398.736ZM472.734 400.112C472.03 400.112 471.406 399.947 470.862 399.616C470.328 399.275 469.912 398.795 469.614 398.176C469.315 397.547 469.166 396.811 469.166 395.968C469.166 395.125 469.315 394.389 469.614 393.76C469.923 393.131 470.344 392.64 470.878 392.288C471.422 391.925 472.04 391.744 472.734 391.744C473.459 391.744 474.078 391.925 474.59 392.288C475.102 392.64 475.448 393.147 475.63 393.808L475.438 393.92V391.952H476.878V400H475.438V397.984L475.63 398.064C475.448 398.715 475.102 399.221 474.59 399.584C474.078 399.936 473.459 400.112 472.734 400.112ZM473.054 398.928C473.822 398.928 474.408 398.672 474.814 398.16C475.23 397.637 475.438 396.896 475.438 395.936C475.438 394.976 475.23 394.24 474.814 393.728C474.398 393.205 473.811 392.944 473.054 392.944C472.296 392.944 471.704 393.211 471.278 393.744C470.851 394.277 470.638 395.019 470.638 395.968C470.638 396.917 470.851 397.648 471.278 398.16C471.704 398.672 472.296 398.928 473.054 398.928ZM478.198 393.072V391.952H483.478V393.072H478.198ZM483.446 398.736V399.952C483.265 400.005 483.078 400.043 482.886 400.064C482.705 400.096 482.507 400.112 482.294 400.112C481.505 400.112 480.881 399.888 480.422 399.44C479.974 398.992 479.75 398.331 479.75 397.456V389.904L481.206 389.392V397.296C481.206 397.712 481.265 398.037 481.382 398.272C481.51 398.496 481.675 398.656 481.878 398.752C482.091 398.837 482.331 398.88 482.598 398.88C482.747 398.88 482.886 398.869 483.014 398.848C483.142 398.827 483.286 398.789 483.446 398.736ZM491.677 399.056C491.325 399.387 490.871 399.648 490.317 399.84C489.762 400.021 489.197 400.112 488.621 400.112C487.778 400.112 487.053 399.947 486.445 399.616C485.837 399.285 485.367 398.811 485.037 398.192C484.706 397.563 484.541 396.816 484.541 395.952C484.541 395.12 484.701 394.389 485.021 393.76C485.351 393.131 485.805 392.64 486.381 392.288C486.957 391.925 487.618 391.744 488.365 391.744C489.09 391.744 489.709 391.904 490.221 392.224C490.743 392.544 491.138 393.003 491.405 393.6C491.682 394.187 491.821 394.891 491.821 395.712V395.968H485.821V395.072H490.989L490.541 395.648C490.562 394.741 490.386 394.048 490.013 393.568C489.639 393.088 489.095 392.848 488.381 392.848C487.634 392.848 487.047 393.115 486.621 393.648C486.205 394.171 485.997 394.907 485.997 395.856C485.997 396.88 486.221 397.653 486.669 398.176C487.117 398.688 487.778 398.944 488.653 398.944C489.122 398.944 489.57 398.869 489.997 398.72C490.423 398.56 490.829 398.325 491.213 398.016L491.677 399.056ZM497.894 396.288V395.104H502.486V396.288H497.894ZM508.129 399.328V389.552L508.945 389.888L505.793 391.872V390.48L508.769 388.608H509.617V399.328H508.129ZM505.617 400V398.768H512.129V400H505.617ZM518.027 400.128C516.715 400.128 515.717 399.637 515.035 398.656C514.352 397.664 514.011 396.213 514.011 394.304C514.011 392.395 514.347 390.949 515.019 389.968C515.701 388.976 516.704 388.48 518.027 388.48C519.349 388.48 520.347 388.976 521.019 389.968C521.701 390.949 522.043 392.389 522.043 394.288C522.043 396.197 521.701 397.648 521.019 398.64C520.336 399.632 519.339 400.128 518.027 400.128ZM518.027 398.912C518.891 398.912 519.525 398.539 519.931 397.792C520.347 397.045 520.555 395.877 520.555 394.288C520.555 392.699 520.347 391.541 519.931 390.816C519.525 390.08 518.891 389.712 518.027 389.712C517.163 389.712 516.523 390.08 516.107 390.816C515.701 391.552 515.499 392.709 515.499 394.288C515.499 395.877 515.701 397.045 516.107 397.792C516.523 398.539 517.163 398.912 518.027 398.912ZM525.86 395.504C525.071 395.504 524.447 395.216 523.988 394.64C523.53 394.064 523.3 393.189 523.3 392.016C523.3 390.832 523.53 389.957 523.988 389.392C524.447 388.827 525.071 388.544 525.86 388.544C526.65 388.544 527.268 388.827 527.716 389.392C528.175 389.957 528.404 390.832 528.404 392.016C528.404 393.189 528.175 394.064 527.716 394.64C527.268 395.216 526.65 395.504 525.86 395.504ZM525.86 394.496C526.276 394.496 526.586 394.304 526.788 393.92C527.002 393.525 527.108 392.891 527.108 392.016C527.108 391.152 527.002 390.528 526.788 390.144C526.586 389.749 526.276 389.552 525.86 389.552C525.444 389.552 525.13 389.749 524.916 390.144C524.714 390.528 524.612 391.152 524.612 392.016C524.612 392.891 524.714 393.525 524.916 393.92C525.13 394.304 525.444 394.496 525.86 394.496ZM525.636 400L532.228 388.608H533.62L527.044 400H525.636ZM533.396 400.064C532.607 400.064 531.983 399.776 531.524 399.2C531.066 398.624 530.836 397.749 530.836 396.576C530.836 395.392 531.066 394.517 531.524 393.952C531.983 393.387 532.607 393.104 533.396 393.104C534.186 393.104 534.804 393.387 535.252 393.952C535.711 394.517 535.94 395.392 535.94 396.576C535.94 397.749 535.711 398.624 535.252 399.2C534.804 399.776 534.186 400.064 533.396 400.064ZM533.396 399.056C533.812 399.056 534.122 398.864 534.324 398.48C534.538 398.085 534.644 397.451 534.644 396.576C534.644 395.712 534.538 395.088 534.324 394.704C534.122 394.309 533.812 394.112 533.396 394.112C532.98 394.112 532.666 394.309 532.452 394.704C532.25 395.088 532.148 395.712 532.148 396.576C532.148 397.451 532.25 398.085 532.452 398.48C532.666 398.864 532.98 399.056 533.396 399.056Z" fill="#969EAC"/>
  <rect x="367.762" y="384" width="18.0123" height="18" rx="2" fill="#D3365F"/>
  <path d="M646.675 364.16C645.688 364.16 644.755 364 643.875 363.68C643.008 363.347 642.255 362.867 641.615 362.24L642.115 361.26C642.835 361.9 643.555 362.36 644.275 362.64C644.995 362.92 645.795 363.06 646.675 363.06C647.808 363.06 648.688 362.813 649.315 362.32C649.955 361.813 650.275 361.12 650.275 360.24C650.275 359.693 650.122 359.267 649.815 358.96C649.522 358.64 649.122 358.387 648.615 358.2C648.122 358.013 647.575 357.853 646.975 357.72C646.388 357.573 645.795 357.413 645.195 357.24C644.595 357.067 644.042 356.84 643.535 356.56C643.042 356.28 642.642 355.907 642.335 355.44C642.042 354.973 641.895 354.367 641.895 353.62C641.895 352.833 642.102 352.14 642.515 351.54C642.928 350.927 643.502 350.453 644.235 350.12C644.968 349.773 645.802 349.6 646.735 349.6C647.335 349.6 647.915 349.673 648.475 349.82C649.048 349.967 649.582 350.18 650.075 350.46C650.582 350.727 651.028 351.06 651.415 351.46L650.915 352.44C649.768 351.28 648.375 350.7 646.735 350.7C645.628 350.7 644.755 350.96 644.115 351.48C643.475 352 643.155 352.707 643.155 353.6C643.155 354.2 643.302 354.673 643.595 355.02C643.902 355.367 644.308 355.647 644.815 355.86C645.322 356.06 645.868 356.233 646.455 356.38C647.055 356.527 647.648 356.68 648.235 356.84C648.835 357 649.382 357.213 649.875 357.48C650.382 357.733 650.782 358.08 651.075 358.52C651.382 358.96 651.535 359.527 651.535 360.22C651.535 361.007 651.328 361.693 650.915 362.28C650.502 362.867 649.928 363.327 649.195 363.66C648.462 363.993 647.622 364.16 646.675 364.16ZM646.255 366.32V363.94L646.275 363.32V350.36L646.255 349.82V347.44H647.375V349.82L647.355 350.36V363.32L647.375 363.94V366.32H646.255ZM658.527 364.14C657.621 364.14 656.754 363.98 655.927 363.66C655.101 363.34 654.394 362.893 653.807 362.32L654.327 361.34C654.981 361.913 655.647 362.347 656.327 362.64C657.021 362.92 657.754 363.06 658.527 363.06C659.567 363.06 660.367 362.813 660.927 362.32C661.501 361.813 661.787 361.093 661.787 360.16C661.787 359.2 661.487 358.487 660.887 358.02C660.301 357.54 659.434 357.3 658.287 357.3H656.747V356.22H657.967C659.087 356.22 659.947 355.96 660.547 355.44C661.161 354.92 661.467 354.187 661.467 353.24C661.467 352.427 661.221 351.8 660.727 351.36C660.234 350.907 659.541 350.68 658.647 350.68C657.914 350.68 657.214 350.827 656.547 351.12C655.881 351.4 655.214 351.827 654.547 352.4L654.027 351.42C654.601 350.847 655.294 350.4 656.107 350.08C656.934 349.76 657.787 349.6 658.667 349.6C659.494 349.6 660.214 349.747 660.827 350.04C661.441 350.333 661.907 350.753 662.227 351.3C662.561 351.833 662.727 352.473 662.727 353.22C662.714 354.1 662.474 354.86 662.007 355.5C661.554 356.14 660.927 356.567 660.127 356.78L660.047 356.58C661.021 356.78 661.761 357.187 662.267 357.8C662.774 358.4 663.027 359.187 663.027 360.16C663.027 361.387 662.621 362.36 661.807 363.08C660.994 363.787 659.901 364.14 658.527 364.14ZM672.399 364V351.3H672.859L666.479 360.52L666.499 359.7H675.839V360.76H665.679V359.82L672.619 349.76H673.639V364H672.399ZM678.612 366.14L677.992 365.64C678.312 365.28 678.518 364.953 678.612 364.66C678.705 364.38 678.752 364.087 678.752 363.78L679.172 364H677.972V362.26H679.672V363.56C679.672 364.027 679.592 364.473 679.432 364.9C679.285 365.327 679.012 365.74 678.612 366.14ZM687.025 364.16C685.425 364.16 684.212 363.547 683.385 362.32C682.558 361.08 682.145 359.267 682.145 356.88C682.145 354.48 682.552 352.667 683.365 351.44C684.192 350.213 685.412 349.6 687.025 349.6C688.638 349.6 689.852 350.213 690.665 351.44C691.492 352.667 691.905 354.473 691.905 356.86C691.905 359.247 691.492 361.06 690.665 362.3C689.838 363.54 688.625 364.16 687.025 364.16ZM687.025 363.06C688.252 363.06 689.158 362.56 689.745 361.56C690.345 360.547 690.645 358.98 690.645 356.86C690.645 354.74 690.352 353.187 689.765 352.2C689.178 351.2 688.265 350.7 687.025 350.7C685.798 350.7 684.885 351.2 684.285 352.2C683.698 353.2 683.405 354.753 683.405 356.86C683.405 358.967 683.698 360.527 684.285 361.54C684.885 362.553 685.798 363.06 687.025 363.06ZM699.017 364.16C697.417 364.16 696.204 363.547 695.377 362.32C694.551 361.08 694.137 359.267 694.137 356.88C694.137 354.48 694.544 352.667 695.357 351.44C696.184 350.213 697.404 349.6 699.017 349.6C700.631 349.6 701.844 350.213 702.657 351.44C703.484 352.667 703.897 354.473 703.897 356.86C703.897 359.247 703.484 361.06 702.657 362.3C701.831 363.54 700.617 364.16 699.017 364.16ZM699.017 363.06C700.244 363.06 701.151 362.56 701.737 361.56C702.337 360.547 702.637 358.98 702.637 356.86C702.637 354.74 702.344 353.187 701.757 352.2C701.171 351.2 700.257 350.7 699.017 350.7C697.791 350.7 696.877 351.2 696.277 352.2C695.691 353.2 695.397 354.753 695.397 356.86C695.397 358.967 695.691 360.527 696.277 361.54C696.877 362.553 697.791 363.06 699.017 363.06ZM711.01 364.16C709.41 364.16 708.196 363.547 707.37 362.32C706.543 361.08 706.13 359.267 706.13 356.88C706.13 354.48 706.536 352.667 707.35 351.44C708.176 350.213 709.396 349.6 711.01 349.6C712.623 349.6 713.836 350.213 714.65 351.44C715.476 352.667 715.89 354.473 715.89 356.86C715.89 359.247 715.476 361.06 714.65 362.3C713.823 363.54 712.61 364.16 711.01 364.16ZM711.01 363.06C712.236 363.06 713.143 362.56 713.73 361.56C714.33 360.547 714.63 358.98 714.63 356.86C714.63 354.74 714.336 353.187 713.75 352.2C713.163 351.2 712.25 350.7 711.01 350.7C709.783 350.7 708.87 351.2 708.27 352.2C707.683 353.2 707.39 354.753 707.39 356.86C707.39 358.967 707.683 360.527 708.27 361.54C708.87 362.553 709.783 363.06 711.01 363.06Z" fill="#969EAC"/>
  <path d="M409.165 364V352.608H410.381L414.925 362.96H414.285L418.797 352.608H419.997V364H418.653V354.624L419.149 354.688L415.101 364H414.077L409.965 354.688L410.509 354.624L410.525 364H409.165ZM425.447 364.112C424.477 364.112 423.746 363.845 423.255 363.312C422.775 362.768 422.535 361.968 422.535 360.912V355.952H423.991V360.896C423.991 361.589 424.13 362.101 424.407 362.432C424.695 362.752 425.133 362.912 425.719 362.912C426.402 362.912 426.951 362.693 427.367 362.256C427.783 361.808 427.991 361.216 427.991 360.48V355.952H429.463V364H428.039V362.272L428.231 362.192C428.018 362.821 427.661 363.301 427.159 363.632C426.658 363.952 426.087 364.112 425.447 364.112ZM431.88 364V358.208C431.88 357.835 431.869 357.461 431.848 357.088C431.837 356.704 431.805 356.325 431.752 355.952H433.128L433.272 357.6L433.112 357.696C433.347 357.067 433.72 356.587 434.232 356.256C434.755 355.915 435.352 355.744 436.024 355.744C437.955 355.744 438.92 356.816 438.92 358.96V364H437.464V359.04C437.464 358.315 437.32 357.787 437.032 357.456C436.755 357.115 436.307 356.944 435.688 356.944C434.973 356.944 434.403 357.168 433.976 357.616C433.549 358.053 433.336 358.645 433.336 359.392V364H431.88ZM441.302 364V355.952H442.758V364H441.302ZM441.174 352.48H442.886V354.064H441.174V352.48ZM447.961 364.112C446.585 364.112 445.491 363.765 444.681 363.072L445.145 362.016C445.571 362.347 446.014 362.592 446.473 362.752C446.942 362.901 447.454 362.976 448.009 362.976C448.585 362.976 449.022 362.88 449.321 362.688C449.63 362.485 449.785 362.197 449.785 361.824C449.785 361.525 449.678 361.291 449.465 361.12C449.262 360.939 448.921 360.789 448.441 360.672L447.097 360.352C446.403 360.203 445.87 359.936 445.497 359.552C445.134 359.168 444.953 358.704 444.953 358.16C444.953 357.691 445.081 357.275 445.337 356.912C445.603 356.549 445.971 356.267 446.441 356.064C446.91 355.851 447.465 355.744 448.105 355.744C448.67 355.744 449.203 355.835 449.705 356.016C450.217 356.197 450.649 356.459 451.001 356.8L450.537 357.84C450.153 357.52 449.758 357.285 449.353 357.136C448.947 356.976 448.526 356.896 448.089 356.896C447.545 356.896 447.118 357.003 446.809 357.216C446.51 357.429 446.361 357.717 446.361 358.08C446.361 358.389 446.457 358.635 446.649 358.816C446.841 358.997 447.145 359.141 447.561 359.248L448.921 359.584C449.689 359.744 450.254 360.011 450.617 360.384C450.979 360.747 451.161 361.216 451.161 361.792C451.161 362.496 450.873 363.061 450.297 363.488C449.721 363.904 448.942 364.112 447.961 364.112ZM457.3 360.288V359.104H461.892V360.288H457.3ZM468.975 364V354.464H469.391L464.831 361.024L464.847 360.368H472.143V361.568H463.791V360.464L469.231 352.608H470.447V364H468.975ZM477.577 364.112C476.873 364.112 476.179 363.989 475.497 363.744C474.825 363.499 474.259 363.157 473.801 362.72L474.345 361.6C474.867 362.027 475.395 362.352 475.929 362.576C476.462 362.789 477.011 362.896 477.577 362.896C478.355 362.896 478.963 362.683 479.401 362.256C479.838 361.819 480.057 361.221 480.057 360.464C480.057 359.984 479.955 359.563 479.753 359.2C479.561 358.837 479.283 358.555 478.921 358.352C478.569 358.139 478.153 358.032 477.673 358.032C477.15 358.032 476.675 358.139 476.249 358.352C475.822 358.555 475.449 358.864 475.129 359.28H474.137V352.608H481.033V353.808H475.609V358.224L475.145 358.176C475.454 357.739 475.849 357.403 476.329 357.168C476.809 356.933 477.347 356.816 477.945 356.816C478.67 356.816 479.299 356.971 479.833 357.28C480.366 357.579 480.777 358 481.065 358.544C481.353 359.088 481.497 359.717 481.497 360.432C481.497 361.157 481.337 361.797 481.017 362.352C480.697 362.907 480.243 363.339 479.657 363.648C479.07 363.957 478.377 364.112 477.577 364.112ZM485.267 359.504C484.477 359.504 483.853 359.216 483.395 358.64C482.936 358.064 482.707 357.189 482.707 356.016C482.707 354.832 482.936 353.957 483.395 353.392C483.853 352.827 484.477 352.544 485.267 352.544C486.056 352.544 486.675 352.827 487.123 353.392C487.581 353.957 487.811 354.832 487.811 356.016C487.811 357.189 487.581 358.064 487.123 358.64C486.675 359.216 486.056 359.504 485.267 359.504ZM485.267 358.496C485.683 358.496 485.992 358.304 486.195 357.92C486.408 357.525 486.515 356.891 486.515 356.016C486.515 355.152 486.408 354.528 486.195 354.144C485.992 353.749 485.683 353.552 485.267 353.552C484.851 353.552 484.536 353.749 484.323 354.144C484.12 354.528 484.019 355.152 484.019 356.016C484.019 356.891 484.12 357.525 484.323 357.92C484.536 358.304 484.851 358.496 485.267 358.496ZM485.043 364L491.635 352.608H493.027L486.451 364H485.043ZM492.803 364.064C492.013 364.064 491.389 363.776 490.931 363.2C490.472 362.624 490.243 361.749 490.243 360.576C490.243 359.392 490.472 358.517 490.931 357.952C491.389 357.387 492.013 357.104 492.803 357.104C493.592 357.104 494.211 357.387 494.659 357.952C495.117 358.517 495.347 359.392 495.347 360.576C495.347 361.749 495.117 362.624 494.659 363.2C494.211 363.776 493.592 364.064 492.803 364.064ZM492.803 363.056C493.219 363.056 493.528 362.864 493.731 362.48C493.944 362.085 494.051 361.451 494.051 360.576C494.051 359.712 493.944 359.088 493.731 358.704C493.528 358.309 493.219 358.112 492.803 358.112C492.387 358.112 492.072 358.309 491.859 358.704C491.656 359.088 491.555 359.712 491.555 360.576C491.555 361.451 491.656 362.085 491.859 362.48C492.072 362.864 492.387 363.056 492.803 363.056Z" fill="#969EAC"/>
  <rect x="367.762" y="348" width="18.0123" height="18" rx="2" fill="#29CFD6"/>
  <path d="M646.675 328.16C645.688 328.16 644.755 328 643.875 327.68C643.008 327.347 642.255 326.867 641.615 326.24L642.115 325.26C642.835 325.9 643.555 326.36 644.275 326.64C644.995 326.92 645.795 327.06 646.675 327.06C647.808 327.06 648.688 326.813 649.315 326.32C649.955 325.813 650.275 325.12 650.275 324.24C650.275 323.693 650.122 323.267 649.815 322.96C649.522 322.64 649.122 322.387 648.615 322.2C648.122 322.013 647.575 321.853 646.975 321.72C646.388 321.573 645.795 321.413 645.195 321.24C644.595 321.067 644.042 320.84 643.535 320.56C643.042 320.28 642.642 319.907 642.335 319.44C642.042 318.973 641.895 318.367 641.895 317.62C641.895 316.833 642.102 316.14 642.515 315.54C642.928 314.927 643.502 314.453 644.235 314.12C644.968 313.773 645.802 313.6 646.735 313.6C647.335 313.6 647.915 313.673 648.475 313.82C649.048 313.967 649.582 314.18 650.075 314.46C650.582 314.727 651.028 315.06 651.415 315.46L650.915 316.44C649.768 315.28 648.375 314.7 646.735 314.7C645.628 314.7 644.755 314.96 644.115 315.48C643.475 316 643.155 316.707 643.155 317.6C643.155 318.2 643.302 318.673 643.595 319.02C643.902 319.367 644.308 319.647 644.815 319.86C645.322 320.06 645.868 320.233 646.455 320.38C647.055 320.527 647.648 320.68 648.235 320.84C648.835 321 649.382 321.213 649.875 321.48C650.382 321.733 650.782 322.08 651.075 322.52C651.382 322.96 651.535 323.527 651.535 324.22C651.535 325.007 651.328 325.693 650.915 326.28C650.502 326.867 649.928 327.327 649.195 327.66C648.462 327.993 647.622 328.16 646.675 328.16ZM646.255 330.32V327.94L646.275 327.32V314.36L646.255 313.82V311.44H647.375V313.82L647.355 314.36V327.32L647.375 327.94V330.32H646.255ZM658.527 328.14C657.621 328.14 656.754 327.98 655.927 327.66C655.101 327.34 654.394 326.893 653.807 326.32L654.327 325.34C654.981 325.913 655.647 326.347 656.327 326.64C657.021 326.92 657.754 327.06 658.527 327.06C659.567 327.06 660.367 326.813 660.927 326.32C661.501 325.813 661.787 325.093 661.787 324.16C661.787 323.2 661.487 322.487 660.887 322.02C660.301 321.54 659.434 321.3 658.287 321.3H656.747V320.22H657.967C659.087 320.22 659.947 319.96 660.547 319.44C661.161 318.92 661.467 318.187 661.467 317.24C661.467 316.427 661.221 315.8 660.727 315.36C660.234 314.907 659.541 314.68 658.647 314.68C657.914 314.68 657.214 314.827 656.547 315.12C655.881 315.4 655.214 315.827 654.547 316.4L654.027 315.42C654.601 314.847 655.294 314.4 656.107 314.08C656.934 313.76 657.787 313.6 658.667 313.6C659.494 313.6 660.214 313.747 660.827 314.04C661.441 314.333 661.907 314.753 662.227 315.3C662.561 315.833 662.727 316.473 662.727 317.22C662.714 318.1 662.474 318.86 662.007 319.5C661.554 320.14 660.927 320.567 660.127 320.78L660.047 320.58C661.021 320.78 661.761 321.187 662.267 321.8C662.774 322.4 663.027 323.187 663.027 324.16C663.027 325.387 662.621 326.36 661.807 327.08C660.994 327.787 659.901 328.14 658.527 328.14ZM672.399 328V315.3H672.859L666.479 324.52L666.499 323.7H675.839V324.76H665.679V323.82L672.619 313.76H673.639V328H672.399ZM678.612 330.14L677.992 329.64C678.312 329.28 678.518 328.953 678.612 328.66C678.705 328.38 678.752 328.087 678.752 327.78L679.172 328H677.972V326.26H679.672V327.56C679.672 328.027 679.592 328.473 679.432 328.9C679.285 329.327 679.012 329.74 678.612 330.14ZM687.025 328.16C685.425 328.16 684.212 327.547 683.385 326.32C682.558 325.08 682.145 323.267 682.145 320.88C682.145 318.48 682.552 316.667 683.365 315.44C684.192 314.213 685.412 313.6 687.025 313.6C688.638 313.6 689.852 314.213 690.665 315.44C691.492 316.667 691.905 318.473 691.905 320.86C691.905 323.247 691.492 325.06 690.665 326.3C689.838 327.54 688.625 328.16 687.025 328.16ZM687.025 327.06C688.252 327.06 689.158 326.56 689.745 325.56C690.345 324.547 690.645 322.98 690.645 320.86C690.645 318.74 690.352 317.187 689.765 316.2C689.178 315.2 688.265 314.7 687.025 314.7C685.798 314.7 684.885 315.2 684.285 316.2C683.698 317.2 683.405 318.753 683.405 320.86C683.405 322.967 683.698 324.527 684.285 325.54C684.885 326.553 685.798 327.06 687.025 327.06ZM699.017 328.16C697.417 328.16 696.204 327.547 695.377 326.32C694.551 325.08 694.137 323.267 694.137 320.88C694.137 318.48 694.544 316.667 695.357 315.44C696.184 314.213 697.404 313.6 699.017 313.6C700.631 313.6 701.844 314.213 702.657 315.44C703.484 316.667 703.897 318.473 703.897 320.86C703.897 323.247 703.484 325.06 702.657 326.3C701.831 327.54 700.617 328.16 699.017 328.16ZM699.017 327.06C700.244 327.06 701.151 326.56 701.737 325.56C702.337 324.547 702.637 322.98 702.637 320.86C702.637 318.74 702.344 317.187 701.757 316.2C701.171 315.2 700.257 314.7 699.017 314.7C697.791 314.7 696.877 315.2 696.277 316.2C695.691 317.2 695.397 318.753 695.397 320.86C695.397 322.967 695.691 324.527 696.277 325.54C696.877 326.553 697.791 327.06 699.017 327.06ZM711.01 328.16C709.41 328.16 708.196 327.547 707.37 326.32C706.543 325.08 706.13 323.267 706.13 320.88C706.13 318.48 706.536 316.667 707.35 315.44C708.176 314.213 709.396 313.6 711.01 313.6C712.623 313.6 713.836 314.213 714.65 315.44C715.476 316.667 715.89 318.473 715.89 320.86C715.89 323.247 715.476 325.06 714.65 326.3C713.823 327.54 712.61 328.16 711.01 328.16ZM711.01 327.06C712.236 327.06 713.143 326.56 713.73 325.56C714.33 324.547 714.63 322.98 714.63 320.86C714.63 318.74 714.336 317.187 713.75 316.2C713.163 315.2 712.25 314.7 711.01 314.7C709.783 314.7 708.87 315.2 708.27 316.2C707.683 317.2 707.39 318.753 707.39 320.86C707.39 322.967 707.683 324.527 708.27 325.54C708.87 326.553 709.783 327.06 711.01 327.06Z" fill="#969EAC"/>
  <path d="M409.165 328V316.608H410.381L414.925 326.96H414.285L418.797 316.608H419.997V328H418.653V318.624L419.149 318.688L415.101 328H414.077L409.965 318.688L410.509 318.624L410.525 328H409.165ZM425.447 328.112C424.477 328.112 423.746 327.845 423.255 327.312C422.775 326.768 422.535 325.968 422.535 324.912V319.952H423.991V324.896C423.991 325.589 424.13 326.101 424.407 326.432C424.695 326.752 425.133 326.912 425.719 326.912C426.402 326.912 426.951 326.693 427.367 326.256C427.783 325.808 427.991 325.216 427.991 324.48V319.952H429.463V328H428.039V326.272L428.231 326.192C428.018 326.821 427.661 327.301 427.159 327.632C426.658 327.952 426.087 328.112 425.447 328.112ZM430.776 321.072V319.952H436.056V321.072H430.776ZM436.024 326.736V327.952C435.843 328.005 435.656 328.043 435.464 328.064C435.283 328.096 435.085 328.112 434.872 328.112C434.083 328.112 433.459 327.888 433 327.44C432.552 326.992 432.328 326.331 432.328 325.456V317.904L433.784 317.392V325.296C433.784 325.712 433.843 326.037 433.96 326.272C434.088 326.496 434.253 326.656 434.456 326.752C434.669 326.837 434.909 326.88 435.176 326.88C435.325 326.88 435.464 326.869 435.592 326.848C435.72 326.827 435.864 326.789 436.024 326.736ZM440.463 328.112C439.492 328.112 438.761 327.845 438.271 327.312C437.791 326.768 437.551 325.968 437.551 324.912V319.952H439.007V324.896C439.007 325.589 439.145 326.101 439.423 326.432C439.711 326.752 440.148 326.912 440.735 326.912C441.417 326.912 441.967 326.693 442.383 326.256C442.799 325.808 443.007 325.216 443.007 324.48V319.952H444.479V328H443.055V326.272L443.247 326.192C443.033 326.821 442.676 327.301 442.175 327.632C441.673 327.952 441.103 328.112 440.463 328.112ZM449.984 328.112C449.28 328.112 448.656 327.947 448.112 327.616C447.578 327.275 447.162 326.795 446.864 326.176C446.565 325.547 446.416 324.811 446.416 323.968C446.416 323.125 446.565 322.389 446.864 321.76C447.173 321.131 447.594 320.64 448.128 320.288C448.672 319.925 449.29 319.744 449.984 319.744C450.709 319.744 451.328 319.925 451.84 320.288C452.352 320.64 452.698 321.147 452.88 321.808L452.688 321.92V319.952H454.128V328H452.688V325.984L452.88 326.064C452.698 326.715 452.352 327.221 451.84 327.584C451.328 327.936 450.709 328.112 449.984 328.112ZM450.304 326.928C451.072 326.928 451.658 326.672 452.064 326.16C452.48 325.637 452.688 324.896 452.688 323.936C452.688 322.976 452.48 322.24 452.064 321.728C451.648 321.205 451.061 320.944 450.304 320.944C449.546 320.944 448.954 321.211 448.528 321.744C448.101 322.277 447.888 323.019 447.888 323.968C447.888 324.917 448.101 325.648 448.528 326.16C448.954 326.672 449.546 326.928 450.304 326.928ZM456.552 328V316.224H458.008V328H456.552ZM464.821 328V316.608H471.941V317.84H466.277V321.6H471.621V322.832H466.277V328H464.821ZM476.416 328.112C475.445 328.112 474.715 327.845 474.224 327.312C473.744 326.768 473.504 325.968 473.504 324.912V319.952H474.96V324.896C474.96 325.589 475.099 326.101 475.376 326.432C475.664 326.752 476.101 326.912 476.688 326.912C477.371 326.912 477.92 326.693 478.336 326.256C478.752 325.808 478.96 325.216 478.96 324.48V319.952H480.432V328H479.008V326.272L479.2 326.192C478.987 326.821 478.629 327.301 478.128 327.632C477.627 327.952 477.056 328.112 476.416 328.112ZM482.849 328V322.208C482.849 321.835 482.838 321.461 482.817 321.088C482.806 320.704 482.774 320.325 482.721 319.952H484.097L484.241 321.6L484.081 321.696C484.315 321.067 484.689 320.587 485.201 320.256C485.723 319.915 486.321 319.744 486.993 319.744C488.923 319.744 489.889 320.816 489.889 322.96V328H488.433V323.04C488.433 322.315 488.289 321.787 488.001 321.456C487.723 321.115 487.275 320.944 486.657 320.944C485.942 320.944 485.371 321.168 484.945 321.616C484.518 322.053 484.305 322.645 484.305 323.392V328H482.849ZM499.503 328H498.063V325.872L498.255 326.064C498.073 326.715 497.727 327.221 497.215 327.584C496.703 327.936 496.084 328.112 495.359 328.112C494.665 328.112 494.047 327.941 493.503 327.6C492.969 327.248 492.548 326.757 492.239 326.128C491.94 325.488 491.791 324.747 491.791 323.904C491.791 323.061 491.94 322.331 492.239 321.712C492.537 321.083 492.953 320.597 493.487 320.256C494.031 319.915 494.655 319.744 495.359 319.744C496.084 319.744 496.703 319.925 497.215 320.288C497.727 320.651 498.073 321.152 498.255 321.792L498.047 321.984V316.224H499.503V328ZM495.679 326.928C496.436 326.928 497.023 326.672 497.439 326.16C497.855 325.637 498.063 324.896 498.063 323.936C498.063 322.987 497.855 322.251 497.439 321.728C497.033 321.205 496.447 320.944 495.679 320.944C494.921 320.944 494.329 321.205 493.903 321.728C493.476 322.24 493.263 322.965 493.263 323.904C493.263 324.864 493.476 325.611 493.903 326.144C494.329 326.667 494.921 326.928 495.679 326.928ZM504.695 328.112C503.319 328.112 502.226 327.765 501.415 327.072L501.879 326.016C502.306 326.347 502.748 326.592 503.207 326.752C503.676 326.901 504.188 326.976 504.743 326.976C505.319 326.976 505.756 326.88 506.055 326.688C506.364 326.485 506.519 326.197 506.519 325.824C506.519 325.525 506.412 325.291 506.199 325.12C505.996 324.939 505.655 324.789 505.175 324.672L503.831 324.352C503.138 324.203 502.604 323.936 502.231 323.552C501.868 323.168 501.687 322.704 501.687 322.16C501.687 321.691 501.815 321.275 502.071 320.912C502.338 320.549 502.706 320.267 503.175 320.064C503.644 319.851 504.199 319.744 504.839 319.744C505.404 319.744 505.938 319.835 506.439 320.016C506.951 320.197 507.383 320.459 507.735 320.8L507.271 321.84C506.887 321.52 506.492 321.285 506.087 321.136C505.682 320.976 505.26 320.896 504.823 320.896C504.279 320.896 503.852 321.003 503.543 321.216C503.244 321.429 503.095 321.717 503.095 322.08C503.095 322.389 503.191 322.635 503.383 322.816C503.575 322.997 503.879 323.141 504.295 323.248L505.655 323.584C506.423 323.744 506.988 324.011 507.351 324.384C507.714 324.747 507.895 325.216 507.895 325.792C507.895 326.496 507.607 327.061 507.031 327.488C506.455 327.904 505.676 328.112 504.695 328.112ZM514.035 324.288V323.104H518.627V324.288H514.035ZM521.053 328V326.88L525.021 322.528C525.533 321.952 525.907 321.435 526.141 320.976C526.387 320.507 526.509 320.037 526.509 319.568C526.509 318.971 526.333 318.512 525.981 318.192C525.629 317.861 525.133 317.696 524.493 317.696C523.949 317.696 523.411 317.808 522.877 318.032C522.344 318.245 521.816 318.565 521.293 318.992L520.749 317.872C521.197 317.445 521.763 317.109 522.445 316.864C523.139 316.608 523.832 316.48 524.525 316.48C525.24 316.48 525.853 316.603 526.365 316.848C526.877 317.083 527.277 317.429 527.565 317.888C527.853 318.336 527.997 318.869 527.997 319.488C527.997 320.139 527.848 320.763 527.549 321.36C527.261 321.957 526.781 322.629 526.109 323.376L522.349 327.424L522.221 326.768H528.461V328H521.053ZM534.311 328.112C533.607 328.112 532.914 327.989 532.231 327.744C531.559 327.499 530.994 327.157 530.535 326.72L531.079 325.6C531.602 326.027 532.13 326.352 532.663 326.576C533.197 326.789 533.746 326.896 534.311 326.896C535.09 326.896 535.698 326.683 536.135 326.256C536.573 325.819 536.791 325.221 536.791 324.464C536.791 323.984 536.69 323.563 536.487 323.2C536.295 322.837 536.018 322.555 535.655 322.352C535.303 322.139 534.887 322.032 534.407 322.032C533.885 322.032 533.41 322.139 532.983 322.352C532.557 322.555 532.183 322.864 531.863 323.28H530.871V316.608H537.767V317.808H532.343V322.224L531.879 322.176C532.189 321.739 532.583 321.403 533.063 321.168C533.543 320.933 534.082 320.816 534.679 320.816C535.405 320.816 536.034 320.971 536.567 321.28C537.101 321.579 537.511 322 537.799 322.544C538.087 323.088 538.231 323.717 538.231 324.432C538.231 325.157 538.071 325.797 537.751 326.352C537.431 326.907 536.978 327.339 536.391 327.648C535.805 327.957 535.111 328.112 534.311 328.112ZM542.001 323.504C541.212 323.504 540.588 323.216 540.129 322.64C539.67 322.064 539.441 321.189 539.441 320.016C539.441 318.832 539.67 317.957 540.129 317.392C540.588 316.827 541.212 316.544 542.001 316.544C542.79 316.544 543.409 316.827 543.857 317.392C544.316 317.957 544.545 318.832 544.545 320.016C544.545 321.189 544.316 322.064 543.857 322.64C543.409 323.216 542.79 323.504 542.001 323.504ZM542.001 322.496C542.417 322.496 542.726 322.304 542.929 321.92C543.142 321.525 543.249 320.891 543.249 320.016C543.249 319.152 543.142 318.528 542.929 318.144C542.726 317.749 542.417 317.552 542.001 317.552C541.585 317.552 541.27 317.749 541.057 318.144C540.854 318.528 540.753 319.152 540.753 320.016C540.753 320.891 540.854 321.525 541.057 321.92C541.27 322.304 541.585 322.496 542.001 322.496ZM541.777 328L548.369 316.608H549.761L543.185 328H541.777ZM549.537 328.064C548.748 328.064 548.124 327.776 547.665 327.2C547.206 326.624 546.977 325.749 546.977 324.576C546.977 323.392 547.206 322.517 547.665 321.952C548.124 321.387 548.748 321.104 549.537 321.104C550.326 321.104 550.945 321.387 551.393 321.952C551.852 322.517 552.081 323.392 552.081 324.576C552.081 325.749 551.852 326.624 551.393 327.2C550.945 327.776 550.326 328.064 549.537 328.064ZM549.537 327.056C549.953 327.056 550.262 326.864 550.465 326.48C550.678 326.085 550.785 325.451 550.785 324.576C550.785 323.712 550.678 323.088 550.465 322.704C550.262 322.309 549.953 322.112 549.537 322.112C549.121 322.112 548.806 322.309 548.593 322.704C548.39 323.088 548.289 323.712 548.289 324.576C548.289 325.451 548.39 326.085 548.593 326.48C548.806 326.864 549.121 327.056 549.537 327.056Z" fill="#969EAC"/>
  <rect x="367.762" y="312" width="18.0123" height="18" rx="2" fill="#FFBC02"/>
  <path d="M634.679 292.16C633.693 292.16 632.759 292 631.879 291.68C631.013 291.347 630.259 290.867 629.619 290.24L630.119 289.26C630.839 289.9 631.559 290.36 632.279 290.64C632.999 290.92 633.799 291.06 634.679 291.06C635.813 291.06 636.693 290.813 637.319 290.32C637.959 289.813 638.279 289.12 638.279 288.24C638.279 287.693 638.126 287.267 637.819 286.96C637.526 286.64 637.126 286.387 636.619 286.2C636.126 286.013 635.579 285.853 634.979 285.72C634.393 285.573 633.799 285.413 633.199 285.24C632.599 285.067 632.046 284.84 631.539 284.56C631.046 284.28 630.646 283.907 630.339 283.44C630.046 282.973 629.899 282.367 629.899 281.62C629.899 280.833 630.106 280.14 630.519 279.54C630.933 278.927 631.506 278.453 632.239 278.12C632.973 277.773 633.806 277.6 634.739 277.6C635.339 277.6 635.919 277.673 636.479 277.82C637.053 277.967 637.586 278.18 638.079 278.46C638.586 278.727 639.033 279.06 639.419 279.46L638.919 280.44C637.773 279.28 636.379 278.7 634.739 278.7C633.633 278.7 632.759 278.96 632.119 279.48C631.479 280 631.159 280.707 631.159 281.6C631.159 282.2 631.306 282.673 631.599 283.02C631.906 283.367 632.313 283.647 632.819 283.86C633.326 284.06 633.873 284.233 634.459 284.38C635.059 284.527 635.653 284.68 636.239 284.84C636.839 285 637.386 285.213 637.879 285.48C638.386 285.733 638.786 286.08 639.079 286.52C639.386 286.96 639.539 287.527 639.539 288.22C639.539 289.007 639.333 289.693 638.919 290.28C638.506 290.867 637.933 291.327 637.199 291.66C636.466 291.993 635.626 292.16 634.679 292.16ZM634.259 294.32V291.94L634.279 291.32V278.36L634.259 277.82V275.44H635.379V277.82L635.359 278.36V291.32L635.379 291.94V294.32H634.259ZM646.471 291.46V278.28L647.271 278.88L643.531 281.3V280.04L647.011 277.76H647.711V291.46H646.471ZM643.311 292V290.94H650.871V292H643.311ZM654.364 292V291.06L659.424 285.42C660.13 284.607 660.644 283.887 660.964 283.26C661.297 282.62 661.464 281.973 661.464 281.32C661.464 280.48 661.217 279.833 660.724 279.38C660.244 278.913 659.55 278.68 658.644 278.68C657.924 278.68 657.224 278.827 656.544 279.12C655.877 279.4 655.21 279.827 654.544 280.4L654.024 279.42C654.584 278.873 655.284 278.433 656.124 278.1C656.964 277.767 657.804 277.6 658.644 277.6C659.484 277.6 660.204 277.747 660.804 278.04C661.417 278.333 661.89 278.76 662.224 279.32C662.557 279.867 662.724 280.52 662.724 281.28C662.724 282.093 662.53 282.887 662.144 283.66C661.77 284.42 661.157 285.28 660.304 286.24L655.284 291.72L655.264 290.94H663.344V292H654.364ZM672.396 292V279.3H672.856L666.476 288.52L666.496 287.7H675.836V288.76H665.676V287.82L672.616 277.76H673.636V292H672.396ZM678.608 294.14L677.988 293.64C678.308 293.28 678.515 292.953 678.608 292.66C678.701 292.38 678.748 292.087 678.748 291.78L679.168 292H677.968V290.26H679.668V291.56C679.668 292.027 679.588 292.473 679.428 292.9C679.281 293.327 679.008 293.74 678.608 294.14ZM687.022 292.16C685.422 292.16 684.208 291.547 683.382 290.32C682.555 289.08 682.142 287.267 682.142 284.88C682.142 282.48 682.548 280.667 683.362 279.44C684.188 278.213 685.408 277.6 687.022 277.6C688.635 277.6 689.848 278.213 690.662 279.44C691.488 280.667 691.902 282.473 691.902 284.86C691.902 287.247 691.488 289.06 690.662 290.3C689.835 291.54 688.622 292.16 687.022 292.16ZM687.022 291.06C688.248 291.06 689.155 290.56 689.742 289.56C690.342 288.547 690.642 286.98 690.642 284.86C690.642 282.74 690.348 281.187 689.762 280.2C689.175 279.2 688.262 278.7 687.022 278.7C685.795 278.7 684.882 279.2 684.282 280.2C683.695 281.2 683.402 282.753 683.402 284.86C683.402 286.967 683.695 288.527 684.282 289.54C684.882 290.553 685.795 291.06 687.022 291.06ZM699.014 292.16C697.414 292.16 696.2 291.547 695.374 290.32C694.547 289.08 694.134 287.267 694.134 284.88C694.134 282.48 694.54 280.667 695.354 279.44C696.18 278.213 697.4 277.6 699.014 277.6C700.627 277.6 701.84 278.213 702.654 279.44C703.48 280.667 703.894 282.473 703.894 284.86C703.894 287.247 703.48 289.06 702.654 290.3C701.827 291.54 700.614 292.16 699.014 292.16ZM699.014 291.06C700.24 291.06 701.147 290.56 701.734 289.56C702.334 288.547 702.634 286.98 702.634 284.86C702.634 282.74 702.34 281.187 701.754 280.2C701.167 279.2 700.254 278.7 699.014 278.7C697.787 278.7 696.874 279.2 696.274 280.2C695.687 281.2 695.394 282.753 695.394 284.86C695.394 286.967 695.687 288.527 696.274 289.54C696.874 290.553 697.787 291.06 699.014 291.06ZM711.006 292.16C709.406 292.16 708.193 291.547 707.366 290.32C706.539 289.08 706.126 287.267 706.126 284.88C706.126 282.48 706.533 280.667 707.346 279.44C708.173 278.213 709.393 277.6 711.006 277.6C712.619 277.6 713.833 278.213 714.646 279.44C715.473 280.667 715.886 282.473 715.886 284.86C715.886 287.247 715.473 289.06 714.646 290.3C713.819 291.54 712.606 292.16 711.006 292.16ZM711.006 291.06C712.233 291.06 713.139 290.56 713.726 289.56C714.326 288.547 714.626 286.98 714.626 284.86C714.626 282.74 714.333 281.187 713.746 280.2C713.159 279.2 712.246 278.7 711.006 278.7C709.779 278.7 708.866 279.2 708.266 280.2C707.679 281.2 707.386 282.753 707.386 284.86C707.386 286.967 707.679 288.527 708.266 289.54C708.866 290.553 709.779 291.06 711.006 291.06Z" fill="#969EAC"/>
  <path d="M409.165 292V280.608H413.837C414.989 280.608 415.89 280.869 416.541 281.392C417.202 281.904 417.533 282.635 417.533 283.584C417.533 284.245 417.352 284.805 416.989 285.264C416.637 285.712 416.146 286.032 415.517 286.224V286.096C416.232 286.235 416.792 286.549 417.197 287.04C417.602 287.531 417.805 288.149 417.805 288.896C417.805 289.888 417.469 290.656 416.797 291.2C416.136 291.733 415.197 292 413.981 292H409.165ZM410.621 290.8H413.853C414.717 290.8 415.352 290.64 415.757 290.32C416.162 290 416.365 289.504 416.365 288.832C416.365 288.16 416.157 287.659 415.741 287.328C415.336 286.997 414.706 286.832 413.853 286.832H410.621V290.8ZM410.621 285.6H413.597C414.429 285.6 415.053 285.44 415.469 285.12C415.885 284.8 416.093 284.32 416.093 283.68C416.093 283.061 415.885 282.597 415.469 282.288C415.064 281.968 414.44 281.808 413.597 281.808H410.621V285.6ZM423.319 292.112C422.54 292.112 421.858 291.941 421.271 291.6C420.695 291.259 420.247 290.779 419.927 290.16C419.607 289.531 419.447 288.789 419.447 287.936C419.447 287.093 419.607 286.357 419.927 285.728C420.247 285.088 420.695 284.597 421.271 284.256C421.858 283.915 422.54 283.744 423.319 283.744C424.108 283.744 424.791 283.915 425.367 284.256C425.943 284.597 426.391 285.088 426.711 285.728C427.031 286.357 427.191 287.093 427.191 287.936C427.191 288.789 427.031 289.531 426.711 290.16C426.391 290.779 425.943 291.259 425.367 291.6C424.791 291.941 424.108 292.112 423.319 292.112ZM423.319 290.928C424.087 290.928 424.679 290.677 425.095 290.176C425.511 289.664 425.719 288.917 425.719 287.936C425.719 286.965 425.506 286.224 425.079 285.712C424.663 285.2 424.076 284.944 423.319 284.944C422.572 284.944 421.986 285.2 421.559 285.712C421.132 286.224 420.919 286.965 420.919 287.936C420.919 288.917 421.127 289.664 421.543 290.176C421.959 290.677 422.551 290.928 423.319 290.928ZM429.161 292V286.208C429.161 285.835 429.151 285.461 429.129 285.088C429.119 284.704 429.087 284.325 429.033 283.952H430.409L430.553 285.6L430.393 285.696C430.628 285.067 431.001 284.587 431.513 284.256C432.036 283.915 432.633 283.744 433.305 283.744C435.236 283.744 436.201 284.816 436.201 286.96V292H434.745V287.04C434.745 286.315 434.601 285.787 434.313 285.456C434.036 285.115 433.588 284.944 432.969 284.944C432.255 284.944 431.684 285.168 431.257 285.616C430.831 286.053 430.617 286.645 430.617 287.392V292H429.161ZM445.815 292H444.375V289.872L444.567 290.064C444.386 290.715 444.039 291.221 443.527 291.584C443.015 291.936 442.397 292.112 441.671 292.112C440.978 292.112 440.359 291.941 439.815 291.6C439.282 291.248 438.861 290.757 438.551 290.128C438.253 289.488 438.103 288.747 438.103 287.904C438.103 287.061 438.253 286.331 438.551 285.712C438.85 285.083 439.266 284.597 439.799 284.256C440.343 283.915 440.967 283.744 441.671 283.744C442.397 283.744 443.015 283.925 443.527 284.288C444.039 284.651 444.386 285.152 444.567 285.792L444.359 285.984V280.224H445.815V292ZM441.991 290.928C442.749 290.928 443.335 290.672 443.751 290.16C444.167 289.637 444.375 288.896 444.375 287.936C444.375 286.987 444.167 286.251 443.751 285.728C443.346 285.205 442.759 284.944 441.991 284.944C441.234 284.944 440.642 285.205 440.215 285.728C439.789 286.24 439.575 286.965 439.575 287.904C439.575 288.864 439.789 289.611 440.215 290.144C440.642 290.667 441.234 290.928 441.991 290.928ZM451.007 292.112C449.631 292.112 448.538 291.765 447.727 291.072L448.191 290.016C448.618 290.347 449.061 290.592 449.519 290.752C449.989 290.901 450.501 290.976 451.055 290.976C451.631 290.976 452.069 290.88 452.367 290.688C452.677 290.485 452.831 290.197 452.831 289.824C452.831 289.525 452.725 289.291 452.511 289.12C452.309 288.939 451.967 288.789 451.487 288.672L450.143 288.352C449.45 288.203 448.917 287.936 448.543 287.552C448.181 287.168 447.999 286.704 447.999 286.16C447.999 285.691 448.127 285.275 448.383 284.912C448.65 284.549 449.018 284.267 449.487 284.064C449.957 283.851 450.511 283.744 451.151 283.744C451.717 283.744 452.25 283.835 452.751 284.016C453.263 284.197 453.695 284.459 454.047 284.8L453.583 285.84C453.199 285.52 452.805 285.285 452.399 285.136C451.994 284.976 451.573 284.896 451.135 284.896C450.591 284.896 450.165 285.003 449.855 285.216C449.557 285.429 449.407 285.717 449.407 286.08C449.407 286.389 449.503 286.635 449.695 286.816C449.887 286.997 450.191 287.141 450.607 287.248L451.967 287.584C452.735 287.744 453.301 288.011 453.663 288.384C454.026 288.747 454.207 289.216 454.207 289.792C454.207 290.496 453.919 291.061 453.343 291.488C452.767 291.904 451.989 292.112 451.007 292.112ZM460.347 288.288V287.104H464.939V288.288H460.347ZM470.582 291.328V281.552L471.398 281.888L468.246 283.872V282.48L471.222 280.608H472.07V291.328H470.582ZM468.07 292V290.768H474.582V292H468.07ZM480.624 292.112C479.92 292.112 479.226 291.989 478.544 291.744C477.872 291.499 477.306 291.157 476.848 290.72L477.392 289.6C477.914 290.027 478.442 290.352 478.976 290.576C479.509 290.789 480.058 290.896 480.624 290.896C481.402 290.896 482.01 290.683 482.448 290.256C482.885 289.819 483.104 289.221 483.104 288.464C483.104 287.984 483.002 287.563 482.8 287.2C482.608 286.837 482.33 286.555 481.968 286.352C481.616 286.139 481.2 286.032 480.72 286.032C480.197 286.032 479.722 286.139 479.296 286.352C478.869 286.555 478.496 286.864 478.176 287.28H477.184V280.608H484.08V281.808H478.656V286.224L478.192 286.176C478.501 285.739 478.896 285.403 479.376 285.168C479.856 284.933 480.394 284.816 480.992 284.816C481.717 284.816 482.346 284.971 482.88 285.28C483.413 285.579 483.824 286 484.112 286.544C484.4 287.088 484.544 287.717 484.544 288.432C484.544 289.157 484.384 289.797 484.064 290.352C483.744 290.907 483.29 291.339 482.704 291.648C482.117 291.957 481.424 292.112 480.624 292.112ZM488.313 287.504C487.524 287.504 486.9 287.216 486.441 286.64C485.983 286.064 485.753 285.189 485.753 284.016C485.753 282.832 485.983 281.957 486.441 281.392C486.9 280.827 487.524 280.544 488.313 280.544C489.103 280.544 489.721 280.827 490.169 281.392C490.628 281.957 490.857 282.832 490.857 284.016C490.857 285.189 490.628 286.064 490.169 286.64C489.721 287.216 489.103 287.504 488.313 287.504ZM488.313 286.496C488.729 286.496 489.039 286.304 489.241 285.92C489.455 285.525 489.561 284.891 489.561 284.016C489.561 283.152 489.455 282.528 489.241 282.144C489.039 281.749 488.729 281.552 488.313 281.552C487.897 281.552 487.583 281.749 487.369 282.144C487.167 282.528 487.065 283.152 487.065 284.016C487.065 284.891 487.167 285.525 487.369 285.92C487.583 286.304 487.897 286.496 488.313 286.496ZM488.089 292L494.681 280.608H496.073L489.497 292H488.089ZM495.849 292.064C495.06 292.064 494.436 291.776 493.977 291.2C493.519 290.624 493.289 289.749 493.289 288.576C493.289 287.392 493.519 286.517 493.977 285.952C494.436 285.387 495.06 285.104 495.849 285.104C496.639 285.104 497.257 285.387 497.705 285.952C498.164 286.517 498.393 287.392 498.393 288.576C498.393 289.749 498.164 290.624 497.705 291.2C497.257 291.776 496.639 292.064 495.849 292.064ZM495.849 291.056C496.265 291.056 496.575 290.864 496.777 290.48C496.991 290.085 497.097 289.451 497.097 288.576C497.097 287.712 496.991 287.088 496.777 286.704C496.575 286.309 496.265 286.112 495.849 286.112C495.433 286.112 495.119 286.309 494.905 286.704C494.703 287.088 494.601 287.712 494.601 288.576C494.601 289.451 494.703 290.085 494.905 290.48C495.119 290.864 495.433 291.056 495.849 291.056Z" fill="#969EAC"/>
  <rect x="367.762" y="276" width="18.0123" height="18" rx="2" fill="#1F32AD"/>
  <path d="M634.679 256.16C633.693 256.16 632.759 256 631.879 255.68C631.013 255.347 630.259 254.867 629.619 254.24L630.119 253.26C630.839 253.9 631.559 254.36 632.279 254.64C632.999 254.92 633.799 255.06 634.679 255.06C635.813 255.06 636.693 254.813 637.319 254.32C637.959 253.813 638.279 253.12 638.279 252.24C638.279 251.693 638.126 251.267 637.819 250.96C637.526 250.64 637.126 250.387 636.619 250.2C636.126 250.013 635.579 249.853 634.979 249.72C634.393 249.573 633.799 249.413 633.199 249.24C632.599 249.067 632.046 248.84 631.539 248.56C631.046 248.28 630.646 247.907 630.339 247.44C630.046 246.973 629.899 246.367 629.899 245.62C629.899 244.833 630.106 244.14 630.519 243.54C630.933 242.927 631.506 242.453 632.239 242.12C632.973 241.773 633.806 241.6 634.739 241.6C635.339 241.6 635.919 241.673 636.479 241.82C637.053 241.967 637.586 242.18 638.079 242.46C638.586 242.727 639.033 243.06 639.419 243.46L638.919 244.44C637.773 243.28 636.379 242.7 634.739 242.7C633.633 242.7 632.759 242.96 632.119 243.48C631.479 244 631.159 244.707 631.159 245.6C631.159 246.2 631.306 246.673 631.599 247.02C631.906 247.367 632.313 247.647 632.819 247.86C633.326 248.06 633.873 248.233 634.459 248.38C635.059 248.527 635.653 248.68 636.239 248.84C636.839 249 637.386 249.213 637.879 249.48C638.386 249.733 638.786 250.08 639.079 250.52C639.386 250.96 639.539 251.527 639.539 252.22C639.539 253.007 639.333 253.693 638.919 254.28C638.506 254.867 637.933 255.327 637.199 255.66C636.466 255.993 635.626 256.16 634.679 256.16ZM634.259 258.32V255.94L634.279 255.32V242.36L634.259 241.82V239.44H635.379V241.82L635.359 242.36V255.32L635.379 255.94V258.32H634.259ZM642.371 256V255.06L647.431 249.42C648.138 248.607 648.651 247.887 648.971 247.26C649.305 246.62 649.471 245.973 649.471 245.32C649.471 244.48 649.225 243.833 648.731 243.38C648.251 242.913 647.558 242.68 646.651 242.68C645.931 242.68 645.231 242.827 644.551 243.12C643.885 243.4 643.218 243.827 642.551 244.4L642.031 243.42C642.591 242.873 643.291 242.433 644.131 242.1C644.971 241.767 645.811 241.6 646.651 241.6C647.491 241.6 648.211 241.747 648.811 242.04C649.425 242.333 649.898 242.76 650.231 243.32C650.565 243.867 650.731 244.52 650.731 245.28C650.731 246.093 650.538 246.887 650.151 247.66C649.778 248.42 649.165 249.28 648.311 250.24L643.291 255.72L643.271 254.94H651.351V256H642.371ZM658.524 256.14C657.617 256.14 656.75 255.98 655.924 255.66C655.097 255.34 654.39 254.893 653.804 254.32L654.324 253.34C654.977 253.913 655.644 254.347 656.324 254.64C657.017 254.92 657.75 255.06 658.524 255.06C659.564 255.06 660.364 254.813 660.924 254.32C661.497 253.813 661.784 253.093 661.784 252.16C661.784 251.2 661.484 250.487 660.884 250.02C660.297 249.54 659.43 249.3 658.284 249.3H656.744V248.22H657.964C659.084 248.22 659.944 247.96 660.544 247.44C661.157 246.92 661.464 246.187 661.464 245.24C661.464 244.427 661.217 243.8 660.724 243.36C660.23 242.907 659.537 242.68 658.644 242.68C657.91 242.68 657.21 242.827 656.544 243.12C655.877 243.4 655.21 243.827 654.544 244.4L654.024 243.42C654.597 242.847 655.29 242.4 656.104 242.08C656.93 241.76 657.784 241.6 658.664 241.6C659.49 241.6 660.21 241.747 660.824 242.04C661.437 242.333 661.904 242.753 662.224 243.3C662.557 243.833 662.724 244.473 662.724 245.22C662.71 246.1 662.47 246.86 662.004 247.5C661.55 248.14 660.924 248.567 660.124 248.78L660.044 248.58C661.017 248.78 661.757 249.187 662.264 249.8C662.77 250.4 663.024 251.187 663.024 252.16C663.024 253.387 662.617 254.36 661.804 255.08C660.99 255.787 659.897 256.14 658.524 256.14ZM670.916 256.14C670.062 256.14 669.222 255.98 668.396 255.66C667.569 255.34 666.862 254.893 666.276 254.32L666.796 253.34C667.449 253.9 668.116 254.327 668.796 254.62C669.476 254.913 670.182 255.06 670.916 255.06C671.956 255.06 672.776 254.753 673.376 254.14C673.989 253.513 674.296 252.68 674.296 251.64C674.296 250.973 674.162 250.387 673.896 249.88C673.629 249.36 673.249 248.96 672.756 248.68C672.276 248.387 671.702 248.24 671.036 248.24C670.289 248.24 669.636 248.393 669.076 248.7C668.516 248.993 668.029 249.453 667.616 250.08H666.656V241.76H675.016V242.82H667.896V249.08L667.496 249.02C667.869 248.433 668.369 247.973 668.996 247.64C669.622 247.307 670.329 247.14 671.116 247.14C672.036 247.14 672.822 247.333 673.476 247.72C674.142 248.093 674.649 248.62 674.996 249.3C675.356 249.98 675.536 250.76 675.536 251.64C675.536 252.52 675.349 253.3 674.976 253.98C674.602 254.66 674.069 255.193 673.376 255.58C672.682 255.953 671.862 256.14 670.916 256.14ZM678.608 258.14L677.988 257.64C678.308 257.28 678.515 256.953 678.608 256.66C678.701 256.38 678.748 256.087 678.748 255.78L679.168 256H677.968V254.26H679.668V255.56C679.668 256.027 679.588 256.473 679.428 256.9C679.281 257.327 679.008 257.74 678.608 258.14ZM687.022 256.16C685.422 256.16 684.208 255.547 683.382 254.32C682.555 253.08 682.142 251.267 682.142 248.88C682.142 246.48 682.548 244.667 683.362 243.44C684.188 242.213 685.408 241.6 687.022 241.6C688.635 241.6 689.848 242.213 690.662 243.44C691.488 244.667 691.902 246.473 691.902 248.86C691.902 251.247 691.488 253.06 690.662 254.3C689.835 255.54 688.622 256.16 687.022 256.16ZM687.022 255.06C688.248 255.06 689.155 254.56 689.742 253.56C690.342 252.547 690.642 250.98 690.642 248.86C690.642 246.74 690.348 245.187 689.762 244.2C689.175 243.2 688.262 242.7 687.022 242.7C685.795 242.7 684.882 243.2 684.282 244.2C683.695 245.2 683.402 246.753 683.402 248.86C683.402 250.967 683.695 252.527 684.282 253.54C684.882 254.553 685.795 255.06 687.022 255.06ZM699.014 256.16C697.414 256.16 696.2 255.547 695.374 254.32C694.547 253.08 694.134 251.267 694.134 248.88C694.134 246.48 694.54 244.667 695.354 243.44C696.18 242.213 697.4 241.6 699.014 241.6C700.627 241.6 701.84 242.213 702.654 243.44C703.48 244.667 703.894 246.473 703.894 248.86C703.894 251.247 703.48 253.06 702.654 254.3C701.827 255.54 700.614 256.16 699.014 256.16ZM699.014 255.06C700.24 255.06 701.147 254.56 701.734 253.56C702.334 252.547 702.634 250.98 702.634 248.86C702.634 246.74 702.34 245.187 701.754 244.2C701.167 243.2 700.254 242.7 699.014 242.7C697.787 242.7 696.874 243.2 696.274 244.2C695.687 245.2 695.394 246.753 695.394 248.86C695.394 250.967 695.687 252.527 696.274 253.54C696.874 254.553 697.787 255.06 699.014 255.06ZM711.006 256.16C709.406 256.16 708.193 255.547 707.366 254.32C706.539 253.08 706.126 251.267 706.126 248.88C706.126 246.48 706.533 244.667 707.346 243.44C708.173 242.213 709.393 241.6 711.006 241.6C712.619 241.6 713.833 242.213 714.646 243.44C715.473 244.667 715.886 246.473 715.886 248.86C715.886 251.247 715.473 253.06 714.646 254.3C713.819 255.54 712.606 256.16 711.006 256.16ZM711.006 255.06C712.233 255.06 713.139 254.56 713.726 253.56C714.326 252.547 714.626 250.98 714.626 248.86C714.626 246.74 714.333 245.187 713.746 244.2C713.159 243.2 712.246 242.7 711.006 242.7C709.779 242.7 708.866 243.2 708.266 244.2C707.679 245.2 707.386 246.753 707.386 248.86C707.386 250.967 707.679 252.527 708.266 253.54C708.866 254.553 709.779 255.06 711.006 255.06Z" fill="#10C273"/>
  <path d="M412.829 256.128C412.242 256.128 411.688 256.08 411.165 255.984C410.653 255.877 410.173 255.717 409.725 255.504C409.288 255.291 408.893 255.024 408.541 254.704L409.085 253.584C409.65 254.053 410.226 254.389 410.813 254.592C411.4 254.795 412.077 254.896 412.845 254.896C413.73 254.896 414.413 254.725 414.893 254.384C415.373 254.043 415.613 253.563 415.613 252.944C415.613 252.571 415.496 252.272 415.261 252.048C415.026 251.813 414.696 251.627 414.269 251.488C413.853 251.339 413.373 251.2 412.829 251.072C412.253 250.955 411.714 250.816 411.213 250.656C410.722 250.496 410.29 250.299 409.917 250.064C409.544 249.819 409.256 249.515 409.053 249.152C408.85 248.789 408.749 248.341 408.749 247.808C408.749 247.157 408.92 246.581 409.261 246.08C409.613 245.579 410.104 245.189 410.733 244.912C411.362 244.624 412.104 244.48 412.957 244.48C413.48 244.48 413.981 244.539 414.461 244.656C414.952 244.763 415.405 244.923 415.821 245.136C416.237 245.339 416.6 245.595 416.909 245.904L416.365 247.024C415.842 246.576 415.304 246.245 414.749 246.032C414.194 245.819 413.597 245.712 412.957 245.712C412.104 245.712 411.432 245.893 410.941 246.256C410.461 246.608 410.221 247.104 410.221 247.744C410.221 248.139 410.328 248.459 410.541 248.704C410.754 248.949 411.058 249.147 411.453 249.296C411.848 249.445 412.317 249.584 412.861 249.712C413.437 249.84 413.981 249.984 414.493 250.144C415.005 250.304 415.453 250.496 415.837 250.72C416.232 250.944 416.541 251.232 416.765 251.584C416.989 251.925 417.101 252.357 417.101 252.88C417.101 253.541 416.93 254.117 416.589 254.608C416.248 255.088 415.757 255.461 415.117 255.728C414.477 255.995 413.714 256.128 412.829 256.128ZM417.885 249.072V247.952H423.165V249.072H417.885ZM423.133 254.736V255.952C422.952 256.005 422.765 256.043 422.573 256.064C422.392 256.096 422.195 256.112 421.981 256.112C421.192 256.112 420.568 255.888 420.109 255.44C419.661 254.992 419.437 254.331 419.437 253.456V245.904L420.893 245.392V253.296C420.893 253.712 420.952 254.037 421.069 254.272C421.197 254.496 421.363 254.656 421.565 254.752C421.779 254.837 422.019 254.88 422.285 254.88C422.435 254.88 422.573 254.869 422.701 254.848C422.829 254.827 422.973 254.789 423.133 254.736ZM428.1 256.112C427.322 256.112 426.639 255.941 426.052 255.6C425.476 255.259 425.028 254.779 424.708 254.16C424.388 253.531 424.228 252.789 424.228 251.936C424.228 251.093 424.388 250.357 424.708 249.728C425.028 249.088 425.476 248.597 426.052 248.256C426.639 247.915 427.322 247.744 428.1 247.744C428.89 247.744 429.572 247.915 430.148 248.256C430.724 248.597 431.172 249.088 431.492 249.728C431.812 250.357 431.972 251.093 431.972 251.936C431.972 252.789 431.812 253.531 431.492 254.16C431.172 254.779 430.724 255.259 430.148 255.6C429.572 255.941 428.89 256.112 428.1 256.112ZM428.1 254.928C428.868 254.928 429.46 254.677 429.876 254.176C430.292 253.664 430.5 252.917 430.5 251.936C430.5 250.965 430.287 250.224 429.86 249.712C429.444 249.2 428.858 248.944 428.1 248.944C427.354 248.944 426.767 249.2 426.34 249.712C425.914 250.224 425.7 250.965 425.7 251.936C425.7 252.917 425.908 253.664 426.324 254.176C426.74 254.677 427.332 254.928 428.1 254.928ZM437.383 256.112C436.572 256.112 435.873 255.941 435.287 255.6C434.711 255.259 434.263 254.779 433.943 254.16C433.623 253.541 433.463 252.811 433.463 251.968C433.463 251.136 433.623 250.4 433.943 249.76C434.273 249.12 434.737 248.624 435.335 248.272C435.932 247.92 436.636 247.744 437.447 247.744C438.001 247.744 438.535 247.84 439.047 248.032C439.559 248.213 439.98 248.469 440.311 248.8L439.847 249.856C439.463 249.557 439.079 249.333 438.695 249.184C438.321 249.024 437.932 248.944 437.527 248.944C436.748 248.944 436.124 249.205 435.655 249.728C435.196 250.251 434.967 250.997 434.967 251.968C434.967 252.917 435.196 253.648 435.655 254.16C436.113 254.672 436.743 254.928 437.543 254.928C437.927 254.928 438.311 254.853 438.695 254.704C439.079 254.555 439.463 254.325 439.847 254.016L440.311 255.072C439.969 255.392 439.537 255.648 439.015 255.84C438.492 256.021 437.948 256.112 437.383 256.112ZM447.336 256L443.064 251.888L447.032 247.968H448.856L444.44 252.272L444.504 251.424L449.208 256H447.336ZM441.896 256V244.224H443.352V256H441.896ZM452.898 256.112C451.522 256.112 450.429 255.765 449.618 255.072L450.082 254.016C450.509 254.347 450.951 254.592 451.41 254.752C451.879 254.901 452.391 254.976 452.946 254.976C453.522 254.976 453.959 254.88 454.258 254.688C454.567 254.485 454.722 254.197 454.722 253.824C454.722 253.525 454.615 253.291 454.402 253.12C454.199 252.939 453.858 252.789 453.378 252.672L452.034 252.352C451.341 252.203 450.807 251.936 450.434 251.552C450.071 251.168 449.89 250.704 449.89 250.16C449.89 249.691 450.018 249.275 450.274 248.912C450.541 248.549 450.909 248.267 451.378 248.064C451.847 247.851 452.402 247.744 453.042 247.744C453.607 247.744 454.141 247.835 454.642 248.016C455.154 248.197 455.586 248.459 455.938 248.8L455.474 249.84C455.09 249.52 454.695 249.285 454.29 249.136C453.885 248.976 453.463 248.896 453.026 248.896C452.482 248.896 452.055 249.003 451.746 249.216C451.447 249.429 451.298 249.717 451.298 250.08C451.298 250.389 451.394 250.635 451.586 250.816C451.778 250.997 452.082 251.141 452.498 251.248L453.858 251.584C454.626 251.744 455.191 252.011 455.554 252.384C455.917 252.747 456.098 253.216 456.098 253.792C456.098 254.496 455.81 255.061 455.234 255.488C454.658 255.904 453.879 256.112 452.898 256.112ZM462.238 252.288V251.104H466.83V252.288H462.238ZM472.473 255.328V245.552L473.289 245.888L470.137 247.872V246.48L473.113 244.608H473.961V255.328H472.473ZM469.961 256V254.768H476.473V256H469.961ZM482.37 256.128C481.058 256.128 480.061 255.637 479.378 254.656C478.696 253.664 478.354 252.213 478.354 250.304C478.354 248.395 478.69 246.949 479.362 245.968C480.045 244.976 481.048 244.48 482.37 244.48C483.693 244.48 484.69 244.976 485.362 245.968C486.045 246.949 486.386 248.389 486.386 250.288C486.386 252.197 486.045 253.648 485.362 254.64C484.68 255.632 483.682 256.128 482.37 256.128ZM482.37 254.912C483.234 254.912 483.869 254.539 484.274 253.792C484.69 253.045 484.898 251.877 484.898 250.288C484.898 248.699 484.69 247.541 484.274 246.816C483.869 246.08 483.234 245.712 482.37 245.712C481.506 245.712 480.866 246.08 480.45 246.816C480.045 247.552 479.842 248.709 479.842 250.288C479.842 251.877 480.045 253.045 480.45 253.792C480.866 254.539 481.506 254.912 482.37 254.912ZM490.204 251.504C489.415 251.504 488.791 251.216 488.332 250.64C487.873 250.064 487.644 249.189 487.644 248.016C487.644 246.832 487.873 245.957 488.332 245.392C488.791 244.827 489.415 244.544 490.204 244.544C490.993 244.544 491.612 244.827 492.06 245.392C492.519 245.957 492.748 246.832 492.748 248.016C492.748 249.189 492.519 250.064 492.06 250.64C491.612 251.216 490.993 251.504 490.204 251.504ZM490.204 250.496C490.62 250.496 490.929 250.304 491.132 249.92C491.345 249.525 491.452 248.891 491.452 248.016C491.452 247.152 491.345 246.528 491.132 246.144C490.929 245.749 490.62 245.552 490.204 245.552C489.788 245.552 489.473 245.749 489.26 246.144C489.057 246.528 488.956 247.152 488.956 248.016C488.956 248.891 489.057 249.525 489.26 249.92C489.473 250.304 489.788 250.496 490.204 250.496ZM489.98 256L496.572 244.608H497.964L491.388 256H489.98ZM497.74 256.064C496.951 256.064 496.327 255.776 495.868 255.2C495.409 254.624 495.18 253.749 495.18 252.576C495.18 251.392 495.409 250.517 495.868 249.952C496.327 249.387 496.951 249.104 497.74 249.104C498.529 249.104 499.148 249.387 499.596 249.952C500.055 250.517 500.284 251.392 500.284 252.576C500.284 253.749 500.055 254.624 499.596 255.2C499.148 255.776 498.529 256.064 497.74 256.064ZM497.74 255.056C498.156 255.056 498.465 254.864 498.668 254.48C498.881 254.085 498.988 253.451 498.988 252.576C498.988 251.712 498.881 251.088 498.668 250.704C498.465 250.309 498.156 250.112 497.74 250.112C497.324 250.112 497.009 250.309 496.796 250.704C496.593 251.088 496.492 251.712 496.492 252.576C496.492 253.451 496.593 254.085 496.796 254.48C497.009 254.864 497.324 255.056 497.74 255.056Z" fill="#10C273"/>
  <g>
    <rect x="365.76" y="238" width="22.015" height="22" rx="2" fill="#235EE7"/>
  </g>
  <path d="M351 252.75L355.503 248.25L351 243.75" stroke="#969EAC" stroke-width="1.3" stroke-linejoin="round"/>
  <path d="M154.5 12C127.38 12 100.737 19.1389 77.25 32.6991C53.763 46.2593 34.2593 65.763 20.6991 89.25L74.2194 120.15C82.3556 106.058 94.0578 94.3556 108.15 86.2194C122.242 78.0833 138.228 73.8 154.5 73.8V12Z" fill="#D3365F"/>
  <path d="M20.6991 89.25C7.13886 112.737 -4.09507e-06 139.38 0 166.5L61.8 166.5C61.8 150.228 66.0833 134.242 74.2194 120.15L20.6991 89.25Z" fill="#29CFD6"/>
  <path d="M0 166.5C-2.37094e-06 193.62 7.13886 220.263 20.6991 243.75C34.2593 267.237 53.763 286.741 77.25 300.301L108.15 246.781C94.0578 238.644 82.3556 226.942 74.2194 212.85C66.0833 198.758 61.8 182.772 61.8 166.5H0Z" fill="#FFBC02"/>
  <path d="M77.25 300.301C94.821 310.446 114.218 317.03 134.334 319.678C154.449 322.327 174.89 320.987 194.488 315.736C214.085 310.484 232.457 301.424 248.554 289.073C264.65 276.722 278.156 261.321 288.301 243.75L234.781 212.85C228.694 223.393 220.59 232.633 210.932 240.044C201.274 247.455 190.251 252.891 178.493 256.041C166.734 259.192 154.47 259.996 142.4 258.407C130.331 256.818 118.693 252.867 108.15 246.781L77.25 300.301Z" fill="#1F32AD"/>
  <g>
    <path d="M288.301 243.75C301.861 220.263 309 193.62 309 166.5C309 139.38 301.861 112.737 288.301 89.25C274.741 65.763 255.237 46.2593 231.75 32.6991C208.263 19.1389 181.62 12 154.5 12V73.8C170.772 73.8 186.758 78.0833 200.85 86.2194C214.942 94.3556 226.644 106.058 234.781 120.15C242.917 134.242 247.2 150.228 247.2 166.5C247.2 182.772 242.917 198.758 234.781 212.85L288.301 243.75Z" fill="#235EE7"/>
  </g>
  <g>
    <path d="M294.798 139.144L290.553 143.625C289.822 144.396 289.822 145.604 290.553 146.375L294.798 150.856C296.042 152.169 298.25 151.289 298.25 149.481V140.519C298.25 138.711 296.042 137.831 294.798 139.144Z" fill="#081833"/>
  </g>
  <g>
    <path d="M294.25 103C294.25 99.6863 296.936 97 300.25 97H472.25C475.564 97 478.25 99.6863 478.25 103V187C478.25 190.314 475.564 193 472.25 193H300.25C296.936 193 294.25 190.314 294.25 187V103Z" fill="#081833"/>
  </g>
  <path d="M323.946 169.256C322.367 169.256 320.874 169 319.466 168.488C318.079 167.955 316.874 167.187 315.85 166.184L316.65 164.616C317.802 165.64 318.954 166.376 320.106 166.824C321.258 167.272 322.538 167.496 323.946 167.496C325.759 167.496 327.167 167.101 328.17 166.312C329.194 165.501 329.706 164.392 329.706 162.984C329.706 162.109 329.461 161.427 328.97 160.936C328.501 160.424 327.861 160.019 327.05 159.72C326.261 159.421 325.386 159.165 324.426 158.952C323.487 158.717 322.538 158.461 321.578 158.184C320.618 157.907 319.733 157.544 318.922 157.096C318.133 156.648 317.493 156.051 317.002 155.304C316.533 154.557 316.298 153.587 316.298 152.392C316.298 151.133 316.629 150.024 317.29 149.064C317.951 148.083 318.869 147.325 320.042 146.792C321.215 146.237 322.549 145.96 324.042 145.96C325.002 145.96 325.93 146.077 326.826 146.312C327.743 146.547 328.597 146.888 329.386 147.336C330.197 147.763 330.911 148.296 331.53 148.936L330.73 150.504C328.895 148.648 326.666 147.72 324.042 147.72C322.271 147.72 320.874 148.136 319.85 148.968C318.826 149.8 318.314 150.931 318.314 152.36C318.314 153.32 318.549 154.077 319.018 154.632C319.509 155.187 320.159 155.635 320.97 155.976C321.781 156.296 322.655 156.573 323.594 156.808C324.554 157.043 325.503 157.288 326.442 157.544C327.402 157.8 328.277 158.141 329.066 158.568C329.877 158.973 330.517 159.528 330.986 160.232C331.477 160.936 331.722 161.843 331.722 162.952C331.722 164.211 331.391 165.309 330.73 166.248C330.069 167.187 329.151 167.923 327.978 168.456C326.805 168.989 325.461 169.256 323.946 169.256ZM323.274 172.712V168.904L323.306 167.912V147.176L323.274 146.312V142.504H325.066V146.312L325.034 147.176V167.912L325.066 168.904V172.712H323.274ZM336.893 169V167.496L344.99 158.472C346.12 157.171 346.942 156.019 347.453 155.016C347.987 153.992 348.253 152.957 348.253 151.912C348.253 150.568 347.859 149.533 347.069 148.808C346.301 148.061 345.192 147.688 343.741 147.688C342.589 147.688 341.469 147.923 340.381 148.392C339.315 148.84 338.248 149.523 337.181 150.44L336.349 148.872C337.245 147.997 338.365 147.293 339.709 146.76C341.053 146.227 342.397 145.96 343.741 145.96C345.085 145.96 346.237 146.195 347.198 146.664C348.179 147.133 348.936 147.816 349.47 148.712C350.003 149.587 350.27 150.632 350.27 151.848C350.27 153.149 349.96 154.419 349.342 155.656C348.744 156.872 347.763 158.248 346.398 159.784L338.365 168.552L338.333 167.304H351.261V169H336.893ZM363.377 169.224C361.926 169.224 360.54 168.968 359.217 168.456C357.894 167.944 356.764 167.229 355.825 166.312L356.657 164.744C357.702 165.661 358.769 166.355 359.857 166.824C360.966 167.272 362.14 167.496 363.377 167.496C365.041 167.496 366.321 167.101 367.217 166.312C368.134 165.501 368.593 164.349 368.593 162.856C368.593 161.32 368.113 160.179 367.153 159.432C366.214 158.664 364.828 158.28 362.993 158.28H360.529V156.552H362.481C364.273 156.552 365.649 156.136 366.609 155.304C367.59 154.472 368.081 153.299 368.081 151.784C368.081 150.483 367.686 149.48 366.897 148.776C366.108 148.051 364.998 147.688 363.569 147.688C362.396 147.688 361.276 147.923 360.209 148.392C359.142 148.84 358.076 149.523 357.009 150.44L356.177 148.872C357.094 147.955 358.204 147.24 359.505 146.728C360.828 146.216 362.193 145.96 363.601 145.96C364.924 145.96 366.076 146.195 367.057 146.664C368.038 147.133 368.785 147.805 369.297 148.68C369.83 149.533 370.097 150.557 370.097 151.752C370.076 153.16 369.692 154.376 368.945 155.4C368.22 156.424 367.217 157.107 365.937 157.448L365.809 157.128C367.366 157.448 368.55 158.099 369.361 159.08C370.172 160.04 370.577 161.299 370.577 162.856C370.577 164.819 369.926 166.376 368.625 167.528C367.324 168.659 365.574 169.224 363.377 169.224ZM383.844 169.224C382.479 169.224 381.135 168.968 379.812 168.456C378.49 167.944 377.359 167.229 376.42 166.312L377.252 164.744C378.298 165.64 379.364 166.323 380.452 166.792C381.54 167.261 382.671 167.496 383.844 167.496C385.508 167.496 386.82 167.005 387.78 166.024C388.762 165.021 389.252 163.688 389.252 162.024C389.252 160.957 389.039 160.019 388.612 159.208C388.186 158.376 387.578 157.736 386.788 157.288C386.02 156.819 385.103 156.584 384.036 156.584C382.842 156.584 381.796 156.829 380.9 157.32C380.004 157.789 379.226 158.525 378.564 159.528H377.028V146.216H390.404V147.912H379.012V157.928L378.372 157.832C378.97 156.893 379.77 156.157 380.772 155.624C381.775 155.091 382.906 154.824 384.164 154.824C385.636 154.824 386.895 155.133 387.94 155.752C389.007 156.349 389.818 157.192 390.372 158.28C390.948 159.368 391.236 160.616 391.236 162.024C391.236 163.432 390.938 164.68 390.34 165.768C389.743 166.856 388.89 167.709 387.78 168.328C386.671 168.925 385.359 169.224 383.844 169.224ZM396.792 172.424L395.8 171.624C396.312 171.048 396.643 170.525 396.792 170.056C396.941 169.608 397.016 169.139 397.016 168.648L397.688 169H395.768V166.216H398.488V168.296C398.488 169.043 398.36 169.757 398.104 170.44C397.869 171.123 397.432 171.784 396.792 172.424ZM410.894 169.256C408.334 169.256 406.392 168.275 405.07 166.312C403.747 164.328 403.086 161.427 403.086 157.608C403.086 153.768 403.736 150.867 405.038 148.904C406.36 146.941 408.312 145.96 410.894 145.96C413.475 145.96 415.416 146.941 416.718 148.904C418.04 150.867 418.702 153.757 418.702 157.576C418.702 161.395 418.04 164.296 416.718 166.28C415.395 168.264 413.454 169.256 410.894 169.256ZM410.894 167.496C412.856 167.496 414.307 166.696 415.246 165.096C416.206 163.475 416.686 160.968 416.686 157.576C416.686 154.184 416.216 151.699 415.278 150.12C414.339 148.52 412.878 147.72 410.894 147.72C408.931 147.72 407.47 148.52 406.51 150.12C405.571 151.72 405.102 154.205 405.102 157.576C405.102 160.947 405.571 163.443 406.51 165.064C407.47 166.685 408.931 167.496 410.894 167.496ZM430.721 169.256C428.161 169.256 426.22 168.275 424.897 166.312C423.575 164.328 422.913 161.427 422.913 157.608C422.913 153.768 423.564 150.867 424.865 148.904C426.188 146.941 428.14 145.96 430.721 145.96C433.303 145.96 435.244 146.941 436.545 148.904C437.868 150.867 438.529 153.757 438.529 157.576C438.529 161.395 437.868 164.296 436.545 166.28C435.223 168.264 433.281 169.256 430.721 169.256ZM430.721 167.496C432.684 167.496 434.135 166.696 435.073 165.096C436.033 163.475 436.513 160.968 436.513 157.576C436.513 154.184 436.044 151.699 435.105 150.12C434.167 148.52 432.705 147.72 430.721 147.72C428.759 147.72 427.297 148.52 426.337 150.12C425.399 151.72 424.929 154.205 424.929 157.576C424.929 160.947 425.399 163.443 426.337 165.064C427.297 166.685 428.759 167.496 430.721 167.496ZM450.549 169.256C447.989 169.256 446.047 168.275 444.725 166.312C443.402 164.328 442.741 161.427 442.741 157.608C442.741 153.768 443.391 150.867 444.693 148.904C446.015 146.941 447.967 145.96 450.549 145.96C453.13 145.96 455.071 146.941 456.373 148.904C457.695 150.867 458.357 153.757 458.357 157.576C458.357 161.395 457.695 164.296 456.373 166.28C455.05 168.264 453.109 169.256 450.549 169.256ZM450.549 167.496C452.511 167.496 453.962 166.696 454.901 165.096C455.861 163.475 456.341 160.968 456.341 157.576C456.341 154.184 455.871 151.699 454.933 150.12C453.994 148.52 452.533 147.72 450.549 147.72C448.586 147.72 447.125 148.52 446.165 150.12C445.226 151.72 444.757 154.205 444.757 157.576C444.757 160.947 445.226 163.443 446.165 165.064C447.125 166.685 448.586 167.496 450.549 167.496Z" fill="white"/>
  <path d="M319.306 129.128C318.719 129.128 318.165 129.08 317.642 128.984C317.119 128.877 316.634 128.717 316.186 128.504C315.738 128.291 315.338 128.035 314.986 127.736L315.562 126.504C316.138 126.952 316.719 127.277 317.306 127.48C317.903 127.683 318.575 127.784 319.322 127.784C320.175 127.784 320.837 127.624 321.306 127.304C321.775 126.973 322.01 126.52 322.01 125.944C322.01 125.592 321.898 125.304 321.674 125.08C321.45 124.856 321.13 124.675 320.714 124.536C320.309 124.397 319.829 124.264 319.274 124.136C318.677 124.008 318.127 123.864 317.626 123.704C317.125 123.533 316.693 123.325 316.33 123.08C315.967 122.835 315.685 122.531 315.482 122.168C315.29 121.805 315.194 121.363 315.194 120.84C315.194 120.189 315.37 119.608 315.722 119.096C316.074 118.584 316.565 118.189 317.194 117.912C317.834 117.624 318.586 117.48 319.45 117.48C319.983 117.48 320.495 117.533 320.986 117.64C321.477 117.747 321.93 117.907 322.346 118.12C322.762 118.323 323.13 118.573 323.45 118.872L322.842 120.104C322.33 119.667 321.797 119.347 321.242 119.144C320.687 118.931 320.095 118.824 319.466 118.824C318.645 118.824 317.999 118.995 317.53 119.336C317.061 119.677 316.826 120.152 316.826 120.76C316.826 121.133 316.927 121.437 317.13 121.672C317.333 121.896 317.626 122.083 318.01 122.232C318.405 122.381 318.874 122.52 319.418 122.648C320.026 122.787 320.586 122.941 321.098 123.112C321.61 123.272 322.058 123.469 322.442 123.704C322.826 123.928 323.125 124.216 323.338 124.568C323.551 124.909 323.658 125.336 323.658 125.848C323.658 126.509 323.482 127.085 323.13 127.576C322.778 128.067 322.277 128.451 321.626 128.728C320.975 128.995 320.202 129.128 319.306 129.128ZM324.393 122.184V120.936H329.801V122.184H324.393ZM329.785 127.624V128.936C329.593 129 329.401 129.043 329.209 129.064C329.017 129.096 328.809 129.112 328.585 129.112C327.764 129.112 327.118 128.883 326.649 128.424C326.19 127.955 325.961 127.267 325.961 126.36V118.92L327.577 118.36V126.232C327.577 126.627 327.636 126.936 327.753 127.16C327.87 127.373 328.03 127.528 328.233 127.624C328.446 127.709 328.681 127.752 328.937 127.752C329.086 127.752 329.225 127.741 329.353 127.72C329.481 127.699 329.625 127.667 329.785 127.624ZM334.765 129.112C333.965 129.112 333.267 128.941 332.669 128.6C332.083 128.259 331.629 127.779 331.309 127.16C330.989 126.531 330.829 125.784 330.829 124.92C330.829 124.077 330.989 123.341 331.309 122.712C331.629 122.083 332.083 121.597 332.669 121.256C333.267 120.915 333.965 120.744 334.765 120.744C335.555 120.744 336.243 120.915 336.829 121.256C337.427 121.597 337.885 122.083 338.205 122.712C338.536 123.341 338.701 124.077 338.701 124.92C338.701 125.784 338.536 126.531 338.205 127.16C337.885 127.779 337.427 128.259 336.829 128.6C336.243 128.941 335.555 129.112 334.765 129.112ZM334.765 127.832C335.491 127.832 336.051 127.587 336.445 127.096C336.851 126.605 337.053 125.88 337.053 124.92C337.053 123.992 336.851 123.283 336.445 122.792C336.051 122.291 335.491 122.04 334.765 122.04C334.04 122.04 333.469 122.291 333.053 122.792C332.648 123.283 332.445 123.992 332.445 124.92C332.445 125.88 332.643 126.605 333.037 127.096C333.443 127.587 334.019 127.832 334.765 127.832ZM344.078 129.112C343.268 129.112 342.564 128.941 341.966 128.6C341.38 128.259 340.926 127.779 340.606 127.16C340.286 126.541 340.126 125.811 340.126 124.968C340.126 124.125 340.292 123.389 340.622 122.76C340.953 122.12 341.417 121.624 342.014 121.272C342.622 120.92 343.337 120.744 344.158 120.744C344.713 120.744 345.252 120.835 345.774 121.016C346.297 121.197 346.724 121.453 347.054 121.784L346.558 122.952C346.185 122.653 345.806 122.429 345.422 122.28C345.049 122.131 344.665 122.056 344.27 122.056C343.502 122.056 342.894 122.307 342.446 122.808C342.009 123.309 341.79 124.024 341.79 124.952C341.79 125.88 342.009 126.589 342.446 127.08C342.884 127.571 343.492 127.816 344.27 127.816C344.654 127.816 345.038 127.741 345.422 127.592C345.806 127.443 346.185 127.219 346.558 126.92L347.054 128.088C346.713 128.408 346.276 128.659 345.742 128.84C345.209 129.021 344.654 129.112 344.078 129.112ZM354.031 129L349.871 124.888L353.759 120.952H355.759L351.423 125.304L351.487 124.392L356.095 129H354.031ZM348.559 129V117.224H350.175V129H348.559ZM359.781 129.112C358.373 129.112 357.259 128.771 356.437 128.088L356.933 126.92C357.36 127.251 357.808 127.496 358.277 127.656C358.757 127.805 359.275 127.88 359.829 127.88C360.384 127.88 360.805 127.789 361.093 127.608C361.381 127.416 361.525 127.149 361.525 126.808C361.525 126.52 361.424 126.296 361.221 126.136C361.029 125.965 360.699 125.821 360.229 125.704L358.869 125.384C358.165 125.235 357.627 124.973 357.253 124.6C356.891 124.216 356.709 123.741 356.709 123.176C356.709 122.696 356.843 122.275 357.109 121.912C357.376 121.549 357.749 121.267 358.229 121.064C358.709 120.851 359.269 120.744 359.909 120.744C360.485 120.744 361.029 120.835 361.541 121.016C362.053 121.187 362.496 121.443 362.869 121.784L362.373 122.92C361.979 122.611 361.573 122.381 361.157 122.232C360.752 122.072 360.336 121.992 359.909 121.992C359.387 121.992 358.981 122.093 358.693 122.296C358.405 122.488 358.261 122.76 358.261 123.112C358.261 123.4 358.347 123.629 358.517 123.8C358.699 123.96 358.997 124.088 359.413 124.184L360.773 124.52C361.552 124.691 362.123 124.963 362.485 125.336C362.848 125.709 363.029 126.189 363.029 126.776C363.029 127.491 362.736 128.061 362.149 128.488C361.573 128.904 360.784 129.112 359.781 129.112ZM369.152 125.352V124.04H373.808V125.352H369.152ZM379.37 128.248V118.712L380.25 119.032L377.049 121.016V119.496L380.074 117.608H381.034V128.248H379.37ZM376.874 129V127.64H383.53V129H376.874ZM389.331 129.128C388.009 129.128 387.001 128.637 386.307 127.656C385.614 126.664 385.267 125.213 385.267 123.304C385.267 121.405 385.609 119.96 386.291 118.968C386.985 117.976 387.998 117.48 389.331 117.48C390.665 117.48 391.673 117.976 392.355 118.968C393.049 119.96 393.395 121.4 393.395 123.288C393.395 125.197 393.049 126.648 392.355 127.64C391.662 128.632 390.654 129.128 389.331 129.128ZM389.331 127.8C390.163 127.8 390.771 127.437 391.155 126.712C391.55 125.987 391.747 124.845 391.747 123.288C391.747 121.741 391.55 120.611 391.155 119.896C390.771 119.181 390.163 118.824 389.331 118.824C388.499 118.824 387.886 119.187 387.491 119.912C387.107 120.627 386.915 121.752 386.915 123.288C386.915 124.845 387.107 125.987 387.491 126.712C387.886 127.437 388.499 127.8 389.331 127.8ZM397.165 124.504C396.365 124.504 395.73 124.216 395.261 123.64C394.802 123.053 394.573 122.179 394.573 121.016C394.573 119.843 394.802 118.973 395.261 118.408C395.73 117.832 396.365 117.544 397.165 117.544C397.965 117.544 398.594 117.832 399.053 118.408C399.512 118.973 399.741 119.843 399.741 121.016C399.741 122.179 399.512 123.053 399.053 123.64C398.594 124.216 397.965 124.504 397.165 124.504ZM397.165 123.4C397.56 123.4 397.853 123.213 398.045 122.84C398.237 122.467 398.333 121.859 398.333 121.016C398.333 120.184 398.237 119.581 398.045 119.208C397.853 118.835 397.56 118.648 397.165 118.648C396.77 118.648 396.477 118.835 396.285 119.208C396.093 119.581 395.997 120.184 395.997 121.016C395.997 121.859 396.093 122.467 396.285 122.84C396.477 123.213 396.77 123.4 397.165 123.4ZM396.925 129L403.533 117.608H405.069L398.493 129H396.925ZM404.829 129.064C404.029 129.064 403.394 128.776 402.925 128.2C402.466 127.613 402.237 126.739 402.237 125.576C402.237 124.403 402.466 123.533 402.925 122.968C403.394 122.392 404.029 122.104 404.829 122.104C405.629 122.104 406.258 122.392 406.717 122.968C407.176 123.533 407.405 124.403 407.405 125.576C407.405 126.739 407.176 127.613 406.717 128.2C406.258 128.776 405.629 129.064 404.829 129.064ZM404.829 127.96C405.224 127.96 405.517 127.773 405.709 127.4C405.901 127.027 405.997 126.419 405.997 125.576C405.997 124.744 405.901 124.141 405.709 123.768C405.517 123.395 405.224 123.208 404.829 123.208C404.434 123.208 404.141 123.395 403.949 123.768C403.757 124.141 403.661 124.744 403.661 125.576C403.661 126.419 403.757 127.027 403.949 127.4C404.141 127.773 404.434 127.96 404.829 127.96Z" fill="white"/>
  <defs>
    <filter id="filter0_d" x="357.76" y="232" width="38.015" height="38" filterUnits="userSpaceOnUse" color-interpolation-filters="sRGB">
      <feFlood flood-opacity="0" result="BackgroundImageFix"/>
      <feColorMatrix in="SourceAlpha" type="matrix" values="0 0 0 0 0 0 0 0 0 0 0 0 0 0 0 0 0 0 127 0"/>
      <feOffset dy="2"/>
      <feGaussianBlur stdDeviation="4"/>
      <feColorMatrix type="matrix" values="0 0 0 0 0.18 0 0 0 0 0.252615 0 0 0 0 0.42 0 0 0 0.4 0"/>
      <feBlend mode="normal" in2="BackgroundImageFix" result="effect1_dropShadow"/>
      <feBlend mode="normal" in="SourceGraphic" in2="effect1_dropShadow" result="shape"/>
    </filter>
    <filter id="filter1_d" x="138.5" y="0" width="186.5" height="263.75" filterUnits="userSpaceOnUse" color-interpolation-filters="sRGB">
      <feFlood flood-opacity="0" result="BackgroundImageFix"/>
      <feColorMatrix in="SourceAlpha" type="matrix" values="0 0 0 0 0 0 0 0 0 0 0 0 0 0 0 0 0 0 127 0"/>
      <feOffset dy="4"/>
      <feGaussianBlur stdDeviation="8"/>
      <feColorMatrix type="matrix" values="0 0 0 0 0.18 0 0 0 0 0.252615 0 0 0 0 0.42 0 0 0 0.4 0"/>
      <feBlend mode="normal" in2="BackgroundImageFix" result="effect1_dropShadow"/>
      <feBlend mode="normal" in="SourceGraphic" in2="effect1_dropShadow" result="shape"/>
    </filter>
    <filter id="filter2_d" x="262.006" y="114.515" width="64.245" height="68.9697" filterUnits="userSpaceOnUse" color-interpolation-filters="sRGB">
      <feFlood flood-opacity="0" result="BackgroundImageFix"/>
      <feColorMatrix in="SourceAlpha" type="matrix" values="0 0 0 0 0 0 0 0 0 0 0 0 0 0 0 0 0 0 127 0"/>
      <feOffset dy="4"/>
      <feGaussianBlur stdDeviation="14"/>
      <feColorMatrix type="matrix" values="0 0 0 0 0.0313726 0 0 0 0 0.0941176 0 0 0 0 0.2 0 0 0 0.44 0"/>
      <feBlend mode="normal" in2="BackgroundImageFix" result="effect1_dropShadow"/>
      <feBlend mode="normal" in="SourceGraphic" in2="effect1_dropShadow" result="shape"/>
    </filter>
    <filter id="filter3_d" x="266.25" y="73" width="240" height="152" filterUnits="userSpaceOnUse" color-interpolation-filters="sRGB">
      <feFlood flood-opacity="0" result="BackgroundImageFix"/>
      <feColorMatrix in="SourceAlpha" type="matrix" values="0 0 0 0 0 0 0 0 0 0 0 0 0 0 0 0 0 0 127 0"/>
      <feOffset dy="4"/>
      <feGaussianBlur stdDeviation="14"/>
      <feColorMatrix type="matrix" values="0 0 0 0 0.0313726 0 0 0 0 0.0941176 0 0 0 0 0.2 0 0 0 0.44 0"/>
      <feBlend mode="normal" in2="BackgroundImageFix" result="effect1_dropShadow"/>
      <feBlend mode="normal" in="SourceGraphic" in2="effect1_dropShadow" result="shape"/>
    </filter>
  </defs>
</svg>
