<svg width="100" height="100" viewBox="0 0 100 100" fill="none" xmlns="http://www.w3.org/2000/svg">
<rect x="0.5" y="0.5" width="99" height="99" rx="3.5" stroke="#534CEA"/>
<path d="M38.0009 64.2931V54.3211C37.9192 52.9765 38.4172 51.6612 39.3688 50.7078C40.3205 49.7544 41.6348 49.254 42.9795 49.3331H45.9715C48.9635 49.3331 51.9555 47.3331 51.9555 45.3438V42.3531C51.9555 37.3664 55.9449 37.3664 55.9449 37.3664L56.9422 40.3584C56.9422 40.3584 59.9342 40.3584 60.9315 42.3584C61.9289 44.3584 64.9209 44.3584 64.9209 44.3584C64.9209 44.3584 65.9182 48.3478 60.9315 49.3451C57.8382 49.9638 56.9422 53.3344 56.9422 55.3291V64.2931M38.0007 60.3051C38.0007 60.3051 42.986 61.3024 43.9833 56.3157M43.2008 58.3104H50.9568C53.5608 58.4465 55.9708 56.936 56.9835 54.5331M38.5342 51.8664L38.0009 51.333C36.204 49.4343 35.141 46.9583 35.0022 44.3477C34.797 40.0441 37.7605 36.2337 41.9822 35.373C43.9822 36.369 43.9822 39.361 41.9822 43.3504C41.0249 45.1888 40.6757 47.2835 40.9849 49.333L41.0556 49.649M36.997 38.3638C36.997 38.3638 36.997 42.6011 42.4543 42.3424M58.938 44.8465C58.938 44.5704 58.7142 44.3465 58.438 44.3465C58.1619 44.3465 57.938 44.5704 57.938 44.8465C57.938 45.1227 58.1619 45.3465 58.438 45.3465M58.9344 44.8465C58.9344 45.1227 58.7105 45.3465 58.4344 45.3465" stroke="#534CEA" stroke-width="1.5" stroke-linecap="round" stroke-linejoin="round"/>
</svg>
