<svg width="93" height="26" viewBox="0 0 93 26" fill="none" xmlns="http://www.w3.org/2000/svg">
<path d="M1.70853 10.6663V0.223633H8.90986V1.9983H3.95253V4.4623H8.60186V6.25163H3.95253V8.89163H8.90986V10.6663H1.70853Z" fill="white"/>
<path d="M14.3786 10.6663H12.0759L16.8719 0.223633H18.7199L23.5159 10.6663H21.2426L17.5466 2.0423H18.1039L14.3786 10.6663ZM14.2466 8.34897L15.1266 6.60363H20.3479L21.2132 8.34897H14.2466Z" fill="white"/>
<path d="M27.3408 10.6663V0.223633H31.9902C33.2124 0.223633 34.1364 0.492522 34.7622 1.0303C35.3879 1.5583 35.7008 2.31119 35.7008 3.28897C35.7008 4.21785 35.3782 4.96586 34.7328 5.53297C34.0875 6.0903 33.1879 6.36897 32.0342 6.36897L33.2368 6.11963C33.5986 6.11963 33.9213 6.22719 34.2048 6.4423C34.4982 6.65741 34.7279 6.98497 34.8941 7.42497L36.1555 10.6663H33.7355L32.4008 7.1903C32.2933 6.90674 32.1222 6.71608 31.8875 6.6183C31.6528 6.51074 31.3839 6.45697 31.0808 6.45697H29.5995V10.6663H27.3408ZM29.5848 4.71163H31.6528C32.3079 4.71163 32.787 4.59919 33.0902 4.3743C33.3933 4.14941 33.5448 3.80719 33.5448 3.34763C33.5448 2.8783 33.3933 2.53608 33.0902 2.32097C32.7968 2.09608 32.3177 1.98363 31.6528 1.98363H29.5848V4.71163Z" fill="white"/>
<path d="M40.6583 10.6663V0.223633H42.9463V8.80363H47.6103V10.6663H40.6583Z" fill="white"/>
<path d="M52.6022 10.6663V5.97297L53.0862 7.29297L48.3049 0.223633H50.9009L54.0542 5.1663H53.4382L56.6209 0.223633H59.2315L54.4502 7.29297L54.9049 5.97297V10.6663H52.6022Z" fill="white"/>
<path d="M2.80853 25.333H0.505859L5.30186 14.8903H7.14986L11.9459 25.333H9.67253L5.97653 16.709H6.53386L2.80853 25.333ZM2.67653 23.0156L3.55653 21.2703H8.77786L9.64319 23.0156H2.67653Z" fill="white"/>
<path d="M15.7708 25.333V14.8903H19.8188C20.9628 14.8903 21.9405 15.0956 22.7521 15.5063C23.5734 15.917 24.1992 16.5134 24.6294 17.2956C25.0694 18.0681 25.2894 19.0019 25.2894 20.097C25.2894 21.2019 25.0743 22.1454 24.6441 22.9276C24.2139 23.7001 23.5881 24.2965 22.7668 24.717C21.9552 25.1276 20.9725 25.333 19.8188 25.333H15.7708ZM18.0588 23.485H19.6574C20.7721 23.485 21.6081 23.2063 22.1654 22.649C22.7228 22.0819 23.0014 21.2312 23.0014 20.097C23.0014 17.8579 21.8868 16.7383 19.6574 16.7383H18.0588V23.485Z" fill="white"/>
<path d="M34.8152 25.465C33.769 25.465 32.8645 25.245 32.1019 24.805C31.3392 24.365 30.7476 23.7441 30.3272 22.9423C29.9165 22.1405 29.7112 21.1921 29.7112 20.097C29.7112 19.0116 29.9165 18.0681 30.3272 17.2663C30.7476 16.4645 31.3392 15.8485 32.1019 15.4183C32.8645 14.9783 33.769 14.7583 34.8152 14.7583C35.8614 14.7583 36.761 14.9783 37.5139 15.4183C38.2765 15.8485 38.8632 16.4645 39.2739 17.2663C39.6845 18.0681 39.8899 19.0116 39.8899 20.097C39.8899 21.1921 39.6845 22.1405 39.2739 22.9423C38.8632 23.7441 38.2765 24.365 37.5139 24.805C36.761 25.245 35.8614 25.465 34.8152 25.465ZM34.8152 23.6903C35.6756 23.6903 36.3552 23.3872 36.8539 22.781C37.3623 22.165 37.6165 21.2703 37.6165 20.097C37.6165 18.9236 37.3623 18.0387 36.8539 17.4423C36.3552 16.8361 35.6756 16.533 34.8152 16.533C33.945 16.533 33.2605 16.8361 32.7619 17.4423C32.2632 18.0387 32.0139 18.9236 32.0139 20.097C32.0139 21.2801 32.2632 22.1747 32.7619 22.781C33.2605 23.3872 33.945 23.6903 34.8152 23.6903Z" fill="white"/>
<path d="M44.6114 25.333V14.8903H49.3487C50.5221 14.8903 51.4216 15.169 52.0474 15.7263C52.6829 16.2836 53.0007 17.0414 53.0007 17.9996C53.0007 18.9481 52.6781 19.7059 52.0327 20.273C51.3972 20.8303 50.5025 21.109 49.3487 21.109H46.8994V25.333H44.6114ZM46.8994 19.3636H49.0554C49.6616 19.3636 50.1114 19.2463 50.4047 19.0116C50.6981 18.777 50.8447 18.4445 50.8447 18.0143C50.8447 17.5743 50.6981 17.237 50.4047 17.0023C50.1212 16.7676 49.6714 16.6503 49.0554 16.6503H46.8994V19.3636Z" fill="white"/>
<path d="M59.6324 25.333V16.753H56.3617V14.8903H65.2204V16.753H61.9497V25.333H59.6324Z" fill="white"/>
<path d="M69.37 25.333V14.8903H76.5713V16.665H71.614V19.129H76.2633V20.9183H71.614V23.5583H76.5713V25.333H69.37Z" fill="white"/>
<path d="M81.0833 25.333V14.8903H85.7326C86.9548 14.8903 87.8788 15.1592 88.5046 15.697C89.1304 16.225 89.4433 16.9779 89.4433 17.9556C89.4433 18.8845 89.1206 19.6325 88.4753 20.1996C87.8299 20.757 86.9304 21.0356 85.7766 21.0356L86.9793 20.7863C87.341 20.7863 87.6637 20.8939 87.9473 21.109C88.2406 21.3241 88.4704 21.6516 88.6366 22.0916L89.8979 25.333H87.4779L86.1433 21.857C86.0357 21.5734 85.8646 21.3827 85.6299 21.285C85.3953 21.1774 85.1264 21.1236 84.8233 21.1236H83.3419V25.333H81.0833ZM83.3273 19.3783H85.3953C86.0504 19.3783 86.5295 19.2659 86.8326 19.041C87.1357 18.8161 87.2873 18.4739 87.2873 18.0143C87.2873 17.545 87.1357 17.2027 86.8326 16.9876C86.5393 16.7627 86.0602 16.6503 85.3953 16.6503H83.3273V19.3783Z" fill="white"/>
<path d="M84.134 1.33301H91.334C91.334 1.33301 91.334 6.03527 88.134 6.03527H87.334M89.7639 5.49399C89.6465 6.8869 89.3372 9.17011 85.734 9.17011M74.534 1.33301H67.334C67.334 1.33301 67.334 6.03527 70.534 6.03527H71.334M68.9041 5.49399C69.0215 6.8869 69.3308 9.17011 72.934 9.17011M78.8689 1.61305C78.9578 1.44151 79.1376 1.33344 79.334 1.33344C79.5304 1.33344 79.7101 1.44151 79.7991 1.61305L80.8785 3.74684C80.9545 3.89543 81.0999 3.99812 81.2679 4.02166L83.6924 4.3644C83.8854 4.39156 84.0463 4.52293 84.1084 4.70401C84.169 4.88449 84.1188 5.08301 83.9793 5.21499L82.2193 6.88691C82.0993 7.00088 82.0443 7.16539 82.0721 7.32683L82.4871 9.68318C82.5201 9.87135 82.4395 10.0613 82.2801 10.1712C82.1201 10.2833 81.9092 10.2975 81.7351 10.2077L79.5761 9.10219C79.4246 9.02379 79.2434 9.02379 79.0919 9.10219L76.9329 10.2077C76.7588 10.2975 76.5479 10.2833 76.3879 10.1712C76.2285 10.0613 76.1479 9.87135 76.1809 9.68318L76.5959 7.32683C76.6237 7.16539 76.5686 7.00088 76.4487 6.88691L74.6887 5.21499C74.5492 5.08301 74.499 4.88449 74.5596 4.70401C74.6214 4.52279 74.7825 4.39133 74.9756 4.3644L77.3991 4.02166C77.5674 3.99844 77.7133 3.89571 77.7895 3.74684L78.8689 1.61305Z" stroke="white" stroke-width="1.5" stroke-linecap="round" stroke-linejoin="round"/>
</svg>
