<svg width="100" height="100" viewBox="0 0 100 100" fill="none" xmlns="http://www.w3.org/2000/svg">
<rect x="0.5" y="0.5" width="99" height="99" rx="3.5" stroke="#534CEA"/>
<path d="M34.998 63.76H63.998M43.1768 40.5549L37.8208 45.6915M53.0809 42.0959L46.8489 40.4959M61.1889 37.6978L56.4142 41.2818M37.6647 57.9999H41.3327C41.7009 57.9999 41.9994 58.2864 41.9994 58.6399V63.7599H36.998V58.6399C36.998 58.2864 37.2965 57.9999 37.6647 57.9999ZM47.6647 46.48H51.3327C51.7009 46.48 51.9994 46.7665 51.9994 47.12V63.76H46.998V47.12C46.998 46.7665 47.2965 46.48 47.6647 46.48ZM57.665 52.2399H61.333C61.7012 52.2399 61.9997 52.5265 61.9997 52.8799V63.7599H56.9997V52.8799C56.9997 52.527 57.2974 52.2407 57.665 52.2399ZM44.998 41.6813C46.1026 41.6813 46.998 40.8217 46.998 39.7613C46.998 38.7009 46.1026 37.8413 44.998 37.8413C43.8935 37.8413 42.998 38.7009 42.998 39.7613C42.998 40.8217 43.8935 41.6813 44.998 41.6813ZM62.9997 38.8C64.1043 38.8 64.9997 37.9403 64.9997 36.88C64.9997 35.8196 64.1043 34.96 62.9997 34.96C61.8951 34.96 60.9997 35.8196 60.9997 36.88C60.9997 37.9403 61.8951 38.8 62.9997 38.8ZM54.9997 44.5599C56.1043 44.5599 56.9997 43.7003 56.9997 42.6399C56.9997 41.5795 56.1043 40.7199 54.9997 40.7199C53.8951 40.7199 52.9997 41.5795 52.9997 42.6399C52.9997 43.7003 53.8951 44.5599 54.9997 44.5599ZM36.998 49.3612C38.1026 49.3612 38.998 48.5016 38.998 47.4412C38.998 46.3808 38.1026 45.5212 36.998 45.5212C35.8935 45.5212 34.998 46.3808 34.998 47.4412C34.998 48.5016 35.8935 49.3612 36.998 49.3612Z" stroke="#534CEA" stroke-width="1.5" stroke-linecap="round" stroke-linejoin="round"/>
</svg>
