<svg width="100" height="100" viewBox="0 0 100 100" fill="none" xmlns="http://www.w3.org/2000/svg">
<rect x="0.5" y="0.5" width="99" height="99" rx="3.5" stroke="#534CEA"/>
<path d="M48.4441 44.8508L47.2425 63.7449M37.7183 63.7603L45.467 44.0547M45.467 44.0547L58.4333 47.5223C58.8318 47.6315 59.2713 47.5588 59.5864 47.3315C59.9015 47.1042 60.0442 46.7568 59.9608 46.4202C59.578 43.9132 57.3294 41.8643 54.3208 41.281C48.4458 40.321 46.0958 43.201 46.0958 43.201L45.4691 44.0547M45.467 44.0547L33.6637 46.6722C33.2697 46.7602 32.8479 46.6749 32.5496 46.4468C32.2513 46.2188 32.1191 45.8806 32.2005 45.5535C32.5533 43.0092 34.8178 40.9175 37.8655 40.3208C41.284 39.7615 44.5599 40.3208 46.5261 42.7848M53.0564 41.1273L57.9131 37.1375C58.1875 36.9179 58.3125 36.6021 58.2475 36.2927C58.1824 35.9833 57.9357 35.7198 57.5872 35.5875C54.9929 34.5559 51.9081 34.8085 49.616 36.2403C46.9527 37.8697 47.266 41.2809 47.266 41.2809V42.2652M39.8976 40.1251L36.8426 37.4153C36.5544 37.1627 36.455 36.8028 36.5825 36.4736C36.71 36.1443 37.0447 35.8967 37.4583 35.8255C38.7541 35.6215 40.0709 35.5194 41.3906 35.5209C43.9998 35.7152 46.3247 36.9464 47.6071 38.8131M32.1758 63.7603H67.4258M61.5508 39.7603H66.2508M63.9008 37.8403V41.6803M53.3258 57.0403H58.0258M55.6758 55.1203V58.9603M66.2508 53.2002C66.2508 54.2606 65.1987 55.1202 63.9008 55.1202C62.6029 55.1202 61.5508 54.2606 61.5508 53.2002C61.5508 52.1398 62.6029 51.2802 63.9008 51.2802C65.1987 51.2802 66.2508 52.1398 66.2508 53.2002ZM66.2508 53.2002V47.4402" stroke="#534CEA" stroke-width="1.5" stroke-linecap="round" stroke-linejoin="round"/>
</svg>
