<svg width="100" height="100" viewBox="0 0 100 100" fill="none" xmlns="http://www.w3.org/2000/svg">
<rect x="0.5" y="0.5" width="99" height="99" rx="3.5" stroke="#534CEA"/>
<path d="M34.8184 62.8944H65.1808M63.0121 42.0742V45.1972C63.0121 45.7722 62.5266 46.2382 61.9277 46.2382H38.0715C37.4726 46.2382 36.9871 45.7722 36.9871 45.1972V42.0742M63.0121 42.0742L50.4839 36.0614C50.1789 35.9157 49.8203 35.9157 49.5152 36.0614L36.9871 42.0742M63.0121 42.0742H36.9871M39.1559 46.2382H43.4933V58.7302H39.1559V46.2382ZM47.8308 46.2382H52.1683V58.7302H47.8308V46.2382ZM56.5058 46.2382H60.8433V58.7302H56.5058V46.2382ZM63.0121 62.894H36.9871V59.771C36.9871 59.1961 37.4726 58.73 38.0715 58.73H61.9277C62.5266 58.73 63.0121 59.1961 63.0121 59.771V62.894Z" stroke="#534CEA" stroke-width="1.5" stroke-linecap="round" stroke-linejoin="round"/>
</svg>
