<svg width="740" height="370" viewBox="0 0 740 370" fill="none" xmlns="http://www.w3.org/2000/svg">
<g filter="url(#filter0_di)">
<rect x="8" y="6" width="1069" height="354" rx="6" fill="white"/>
</g>
<rect opacity="0.1" x="542" y="6" width="286" height="288" fill="url(#paint0_linear)"/>
<path opacity="0.4" d="M563.094 28V20.168H566.493C567.344 20.168 568 20.3733 568.462 20.784C568.931 21.1873 569.166 21.741 569.166 22.445C569.166 23.1417 568.928 23.6953 568.451 24.106C567.982 24.5167 567.329 24.722 566.493 24.722H564.513V28H563.094ZM564.513 23.633H566.328C566.827 23.633 567.197 23.5303 567.439 23.325C567.688 23.1197 567.813 22.83 567.813 22.456C567.813 22.0747 567.692 21.785 567.45 21.587C567.208 21.3817 566.834 21.279 566.328 21.279H564.513V23.633ZM572.62 28V20.168H575.975C576.862 20.168 577.537 20.3623 577.999 20.751C578.461 21.1397 578.692 21.697 578.692 22.423C578.692 23.1123 578.454 23.6623 577.977 24.073C577.5 24.4763 576.837 24.678 575.986 24.678L576.866 24.502C577.137 24.502 577.379 24.5827 577.592 24.744C577.805 24.9053 577.973 25.1547 578.098 25.492L579.066 28H577.57L576.58 25.393C576.477 25.1363 576.331 24.964 576.14 24.876C575.957 24.788 575.726 24.744 575.447 24.744H574.017V28H572.62ZM574.006 23.644H575.777C576.32 23.644 576.716 23.545 576.965 23.347C577.214 23.149 577.339 22.852 577.339 22.456C577.339 22.0527 577.214 21.7557 576.965 21.565C576.716 21.3743 576.32 21.279 575.777 21.279H574.006V23.644ZM585.966 28.088C585.203 28.088 584.543 27.9267 583.986 27.604C583.429 27.2813 583 26.8193 582.699 26.218C582.398 25.6167 582.248 24.9053 582.248 24.084C582.248 23.2553 582.398 22.544 582.699 21.95C583 21.3487 583.429 20.8867 583.986 20.564C584.543 20.2413 585.203 20.08 585.966 20.08C586.736 20.08 587.4 20.2413 587.957 20.564C588.514 20.8867 588.943 21.3487 589.244 21.95C589.545 22.544 589.695 23.2517 589.695 24.073C589.695 24.9017 589.541 25.6167 589.233 26.218C588.932 26.8193 588.503 27.2813 587.946 27.604C587.396 27.9267 586.736 28.088 585.966 28.088ZM585.966 26.966C586.685 26.966 587.249 26.7203 587.66 26.229C588.071 25.7303 588.276 25.0117 588.276 24.073C588.276 23.1343 588.071 22.423 587.66 21.939C587.249 21.4477 586.685 21.202 585.966 21.202C585.255 21.202 584.694 21.4477 584.283 21.939C583.872 22.423 583.667 23.1343 583.667 24.073C583.667 25.0117 583.872 25.7303 584.283 26.229C584.694 26.7203 585.255 26.966 585.966 26.966ZM592.103 29.958V28.803C592.565 28.869 592.921 28.8837 593.17 28.847C593.42 28.8177 593.592 28.7113 593.687 28.528C593.783 28.3447 593.83 28.0623 593.83 27.681V20.168H595.249V27.67C595.249 28.3153 595.15 28.8287 594.952 29.21C594.754 29.5913 594.424 29.8407 593.962 29.958C593.508 30.0827 592.888 30.0827 592.103 29.958ZM599.158 28V20.168H604.394V21.279H600.544V23.457H604.174V24.579H600.544V26.889H604.394V28H599.158ZM611.431 28.088C610.654 28.088 609.979 27.9267 609.407 27.604C608.835 27.274 608.395 26.8083 608.087 26.207C607.786 25.6057 607.636 24.8943 607.636 24.073C607.636 23.259 607.786 22.555 608.087 21.961C608.395 21.3597 608.835 20.8977 609.407 20.575C609.979 20.245 610.654 20.08 611.431 20.08C611.959 20.08 612.454 20.1607 612.916 20.322C613.385 20.476 613.774 20.7033 614.082 21.004L613.62 22.038C613.261 21.752 612.909 21.5467 612.564 21.422C612.219 21.29 611.849 21.224 611.453 21.224C610.698 21.224 610.111 21.4697 609.693 21.961C609.282 22.445 609.077 23.149 609.077 24.073C609.077 24.997 609.282 25.7083 609.693 26.207C610.111 26.6983 610.698 26.944 611.453 26.944C611.849 26.944 612.219 26.8817 612.564 26.757C612.909 26.625 613.261 26.416 613.62 26.13L614.082 27.164C613.774 27.4647 613.385 27.6957 612.916 27.857C612.454 28.011 611.959 28.088 611.431 28.088ZM619.327 28V21.334H616.775V20.168H623.309V21.334H620.757V28H619.327ZM626.49 28V20.168H631.726V21.279H627.876V23.457H631.506V24.579H627.876V26.889H631.726V28H626.49ZM635.232 28V20.168H638.114C638.972 20.168 639.702 20.322 640.303 20.63C640.904 20.938 641.363 21.3853 641.678 21.972C642.001 22.5513 642.162 23.2517 642.162 24.073C642.162 24.9017 642.001 25.6093 641.678 26.196C641.363 26.7827 640.901 27.23 640.292 27.538C639.691 27.846 638.965 28 638.114 28H635.232ZM636.651 26.845H638.026C638.928 26.845 639.603 26.614 640.05 26.152C640.505 25.69 640.732 24.997 640.732 24.073C640.732 22.2397 639.83 21.323 638.026 21.323H636.651V26.845Z" fill="#534CEA"/>
<path d="M669.904 324H668.574L672.984 314.032H674.09L678.514 324H677.198L673.334 314.998H673.768L669.904 324ZM670.464 321.494L670.926 320.43H676.134L676.596 321.494H670.464ZM682.27 324.098C681.421 324.098 680.782 323.865 680.352 323.398C679.932 322.922 679.722 322.222 679.722 321.298V316.958H680.996V321.284C680.996 321.891 681.118 322.339 681.36 322.628C681.612 322.908 681.995 323.048 682.508 323.048C683.106 323.048 683.586 322.857 683.95 322.474C684.314 322.082 684.496 321.564 684.496 320.92V316.958H685.784V324H684.538V322.488L684.706 322.418C684.52 322.969 684.207 323.389 683.768 323.678C683.33 323.958 682.83 324.098 682.27 324.098ZM691.021 327.122C689.948 327.122 689.014 326.884 688.221 326.408L688.445 325.386C688.884 325.638 689.299 325.82 689.691 325.932C690.092 326.044 690.536 326.1 691.021 326.1C691.684 326.1 692.183 325.923 692.519 325.568C692.864 325.223 693.037 324.705 693.037 324.014V322.138L693.191 321.998C693.079 322.362 692.902 322.679 692.659 322.95C692.426 323.211 692.136 323.417 691.791 323.566C691.455 323.715 691.068 323.79 690.629 323.79C690.013 323.79 689.467 323.645 688.991 323.356C688.515 323.057 688.142 322.647 687.871 322.124C687.61 321.601 687.479 320.99 687.479 320.29C687.479 319.59 687.61 318.979 687.871 318.456C688.142 317.924 688.515 317.513 688.991 317.224C689.467 316.925 690.013 316.776 690.629 316.776C691.273 316.776 691.819 316.935 692.267 317.252C692.724 317.569 693.032 318.008 693.191 318.568L693.023 318.456V316.958H694.297V323.902C694.297 324.975 694.017 325.778 693.457 326.31C692.906 326.851 692.094 327.122 691.021 327.122ZM690.909 322.74C691.572 322.74 692.09 322.525 692.463 322.096C692.836 321.657 693.023 321.055 693.023 320.29C693.023 319.525 692.836 318.923 692.463 318.484C692.09 318.045 691.572 317.826 690.909 317.826C690.246 317.826 689.724 318.045 689.341 318.484C688.958 318.923 688.767 319.525 688.767 320.29C688.767 321.065 688.958 321.667 689.341 322.096C689.724 322.525 690.246 322.74 690.909 322.74ZM700.164 324V323.02L703.636 319.212C704.084 318.708 704.411 318.255 704.616 317.854C704.831 317.443 704.938 317.033 704.938 316.622C704.938 316.099 704.784 315.698 704.476 315.418C704.168 315.129 703.734 314.984 703.174 314.984C702.698 314.984 702.227 315.082 701.76 315.278C701.293 315.465 700.831 315.745 700.374 316.118L699.898 315.138C700.29 314.765 700.785 314.471 701.382 314.256C701.989 314.032 702.595 313.92 703.202 313.92C703.827 313.92 704.364 314.027 704.812 314.242C705.26 314.447 705.61 314.751 705.862 315.152C706.114 315.544 706.24 316.011 706.24 316.552C706.24 317.121 706.109 317.667 705.848 318.19C705.596 318.713 705.176 319.301 704.588 319.954L701.298 323.496L701.186 322.922H706.646V324H700.164ZM711.638 324.112C710.49 324.112 709.618 323.683 709.02 322.824C708.423 321.956 708.124 320.687 708.124 319.016C708.124 317.345 708.418 316.081 709.006 315.222C709.604 314.354 710.481 313.92 711.638 313.92C712.796 313.92 713.668 314.354 714.256 315.222C714.854 316.081 715.152 317.341 715.152 319.002C715.152 320.673 714.854 321.942 714.256 322.81C713.659 323.678 712.786 324.112 711.638 324.112ZM711.638 323.048C712.394 323.048 712.95 322.721 713.304 322.068C713.668 321.415 713.85 320.393 713.85 319.002C713.85 317.611 713.668 316.599 713.304 315.964C712.95 315.32 712.394 314.998 711.638 314.998C710.882 314.998 710.322 315.32 709.958 315.964C709.604 316.608 709.426 317.621 709.426 319.002C709.426 320.393 709.604 321.415 709.958 322.068C710.322 322.721 710.882 323.048 711.638 323.048ZM716.953 324V323.02L720.425 319.212C720.873 318.708 721.2 318.255 721.405 317.854C721.62 317.443 721.727 317.033 721.727 316.622C721.727 316.099 721.573 315.698 721.265 315.418C720.957 315.129 720.523 314.984 719.963 314.984C719.487 314.984 719.016 315.082 718.549 315.278C718.082 315.465 717.62 315.745 717.163 316.118L716.687 315.138C717.079 314.765 717.574 314.471 718.171 314.256C718.778 314.032 719.384 313.92 719.991 313.92C720.616 313.92 721.153 314.027 721.601 314.242C722.049 314.447 722.399 314.751 722.651 315.152C722.903 315.544 723.029 316.011 723.029 316.552C723.029 317.121 722.898 317.667 722.637 318.19C722.385 318.713 721.965 319.301 721.377 319.954L718.087 323.496L717.975 322.922H723.435V324H716.953ZM728.428 324.112C727.28 324.112 726.407 323.683 725.81 322.824C725.212 321.956 724.914 320.687 724.914 319.016C724.914 317.345 725.208 316.081 725.796 315.222C726.393 314.354 727.27 313.92 728.428 313.92C729.585 313.92 730.458 314.354 731.046 315.222C731.643 316.081 731.942 317.341 731.942 319.002C731.942 320.673 731.643 321.942 731.046 322.81C730.448 323.678 729.576 324.112 728.428 324.112ZM728.428 323.048C729.184 323.048 729.739 322.721 730.094 322.068C730.458 321.415 730.64 320.393 730.64 319.002C730.64 317.611 730.458 316.599 730.094 315.964C729.739 315.32 729.184 314.998 728.428 314.998C727.672 314.998 727.112 315.32 726.748 315.964C726.393 316.608 726.216 317.621 726.216 319.002C726.216 320.393 726.393 321.415 726.748 322.068C727.112 322.721 727.672 323.048 728.428 323.048Z" fill="#969EAC"/>
<path d="M568.188 326.492V325.386C568.767 325.489 569.219 325.512 569.546 325.456C569.882 325.409 570.115 325.251 570.246 324.98C570.386 324.719 570.456 324.322 570.456 323.79V314.032H571.758V323.79C571.758 324.583 571.641 325.199 571.408 325.638C571.175 326.086 570.797 326.375 570.274 326.506C569.761 326.637 569.065 326.632 568.188 326.492ZM576.517 324.098C575.668 324.098 575.029 323.865 574.599 323.398C574.179 322.922 573.969 322.222 573.969 321.298V316.958H575.243V321.284C575.243 321.891 575.365 322.339 575.607 322.628C575.859 322.908 576.242 323.048 576.755 323.048C577.353 323.048 577.833 322.857 578.197 322.474C578.561 322.082 578.743 321.564 578.743 320.92V316.958H580.031V324H578.785V322.488L578.953 322.418C578.767 322.969 578.454 323.389 578.015 323.678C577.577 323.958 577.077 324.098 576.517 324.098ZM582.146 324V313.696H583.42V324H582.146ZM589.298 324V323.02L592.77 319.212C593.218 318.708 593.544 318.255 593.75 317.854C593.964 317.443 594.072 317.033 594.072 316.622C594.072 316.099 593.918 315.698 593.61 315.418C593.302 315.129 592.868 314.984 592.308 314.984C591.832 314.984 591.36 315.082 590.894 315.278C590.427 315.465 589.965 315.745 589.508 316.118L589.032 315.138C589.424 314.765 589.918 314.471 590.516 314.256C591.122 314.032 591.729 313.92 592.336 313.92C592.961 313.92 593.498 314.027 593.946 314.242C594.394 314.447 594.744 314.751 594.996 315.152C595.248 315.544 595.374 316.011 595.374 316.552C595.374 317.121 595.243 317.667 594.982 318.19C594.73 318.713 594.31 319.301 593.722 319.954L590.432 323.496L590.32 322.922H595.78V324H589.298ZM600.772 324.112C599.624 324.112 598.752 323.683 598.154 322.824C597.557 321.956 597.258 320.687 597.258 319.016C597.258 317.345 597.552 316.081 598.14 315.222C598.738 314.354 599.615 313.92 600.772 313.92C601.93 313.92 602.802 314.354 603.39 315.222C603.988 316.081 604.286 317.341 604.286 319.002C604.286 320.673 603.988 321.942 603.39 322.81C602.793 323.678 601.92 324.112 600.772 324.112ZM600.772 323.048C601.528 323.048 602.084 322.721 602.438 322.068C602.802 321.415 602.984 320.393 602.984 319.002C602.984 317.611 602.802 316.599 602.438 315.964C602.084 315.32 601.528 314.998 600.772 314.998C600.016 314.998 599.456 315.32 599.092 315.964C598.738 316.608 598.56 317.621 598.56 319.002C598.56 320.393 598.738 321.415 599.092 322.068C599.456 322.721 600.016 323.048 600.772 323.048ZM606.087 324V323.02L609.559 319.212C610.007 318.708 610.333 318.255 610.539 317.854C610.753 317.443 610.861 317.033 610.861 316.622C610.861 316.099 610.707 315.698 610.399 315.418C610.091 315.129 609.657 314.984 609.097 314.984C608.621 314.984 608.149 315.082 607.683 315.278C607.216 315.465 606.754 315.745 606.297 316.118L605.821 315.138C606.213 314.765 606.707 314.471 607.305 314.256C607.911 314.032 608.518 313.92 609.125 313.92C609.75 313.92 610.287 314.027 610.735 314.242C611.183 314.447 611.533 314.751 611.785 315.152C612.037 315.544 612.163 316.011 612.163 316.552C612.163 317.121 612.032 317.667 611.771 318.19C611.519 318.713 611.099 319.301 610.511 319.954L607.221 323.496L607.109 322.922H612.569V324H606.087ZM617.561 324.112C616.413 324.112 615.541 323.683 614.943 322.824C614.346 321.956 614.047 320.687 614.047 319.016C614.047 317.345 614.341 316.081 614.929 315.222C615.527 314.354 616.404 313.92 617.561 313.92C618.719 313.92 619.591 314.354 620.179 315.222C620.777 316.081 621.075 317.341 621.075 319.002C621.075 320.673 620.777 321.942 620.179 322.81C619.582 323.678 618.709 324.112 617.561 324.112ZM617.561 323.048C618.317 323.048 618.873 322.721 619.227 322.068C619.591 321.415 619.773 320.393 619.773 319.002C619.773 317.611 619.591 316.599 619.227 315.964C618.873 315.32 618.317 314.998 617.561 314.998C616.805 314.998 616.245 315.32 615.881 315.964C615.527 316.608 615.349 317.621 615.349 319.002C615.349 320.393 615.527 321.415 615.881 322.068C616.245 322.721 616.805 323.048 617.561 323.048Z" fill="#969EAC"/>
<path d="M459.268 326.492V325.386C459.847 325.489 460.3 325.512 460.626 325.456C460.962 325.409 461.196 325.251 461.326 324.98C461.466 324.719 461.536 324.322 461.536 323.79V314.032H462.838V323.79C462.838 324.583 462.722 325.199 462.488 325.638C462.255 326.086 461.877 326.375 461.354 326.506C460.841 326.637 460.146 326.632 459.268 326.492ZM467.597 324.098C466.748 324.098 466.109 323.865 465.679 323.398C465.259 322.922 465.049 322.222 465.049 321.298V316.958H466.323V321.284C466.323 321.891 466.445 322.339 466.687 322.628C466.939 322.908 467.322 323.048 467.835 323.048C468.433 323.048 468.913 322.857 469.277 322.474C469.641 322.082 469.823 321.564 469.823 320.92V316.958H471.111V324H469.865V322.488L470.033 322.418C469.847 322.969 469.534 323.389 469.095 323.678C468.657 323.958 468.157 324.098 467.597 324.098ZM473.226 324V318.932C473.226 318.605 473.217 318.279 473.198 317.952C473.189 317.616 473.161 317.285 473.114 316.958H474.318L474.444 318.4L474.304 318.484C474.509 317.933 474.836 317.513 475.284 317.224C475.741 316.925 476.264 316.776 476.852 316.776C478.541 316.776 479.386 317.714 479.386 319.59V324H478.112V319.66C478.112 319.025 477.986 318.563 477.734 318.274C477.491 317.975 477.099 317.826 476.558 317.826C475.933 317.826 475.433 318.022 475.06 318.414C474.687 318.797 474.5 319.315 474.5 319.968V324H473.226ZM485.218 324V323.02L488.69 319.212C489.138 318.708 489.464 318.255 489.67 317.854C489.884 317.443 489.992 317.033 489.992 316.622C489.992 316.099 489.838 315.698 489.53 315.418C489.222 315.129 488.788 314.984 488.228 314.984C487.752 314.984 487.28 315.082 486.814 315.278C486.347 315.465 485.885 315.745 485.428 316.118L484.952 315.138C485.344 314.765 485.838 314.471 486.436 314.256C487.042 314.032 487.649 313.92 488.256 313.92C488.881 313.92 489.418 314.027 489.866 314.242C490.314 314.447 490.664 314.751 490.916 315.152C491.168 315.544 491.294 316.011 491.294 316.552C491.294 317.121 491.163 317.667 490.902 318.19C490.65 318.713 490.23 319.301 489.642 319.954L486.352 323.496L486.24 322.922H491.7V324H485.218ZM496.692 324.112C495.544 324.112 494.672 323.683 494.074 322.824C493.477 321.956 493.178 320.687 493.178 319.016C493.178 317.345 493.472 316.081 494.06 315.222C494.658 314.354 495.535 313.92 496.692 313.92C497.85 313.92 498.722 314.354 499.31 315.222C499.908 316.081 500.206 317.341 500.206 319.002C500.206 320.673 499.908 321.942 499.31 322.81C498.713 323.678 497.84 324.112 496.692 324.112ZM496.692 323.048C497.448 323.048 498.004 322.721 498.358 322.068C498.722 321.415 498.904 320.393 498.904 319.002C498.904 317.611 498.722 316.599 498.358 315.964C498.004 315.32 497.448 314.998 496.692 314.998C495.936 314.998 495.376 315.32 495.012 315.964C494.658 316.608 494.48 317.621 494.48 319.002C494.48 320.393 494.658 321.415 495.012 322.068C495.376 322.721 495.936 323.048 496.692 323.048ZM502.007 324V323.02L505.479 319.212C505.927 318.708 506.253 318.255 506.459 317.854C506.673 317.443 506.781 317.033 506.781 316.622C506.781 316.099 506.627 315.698 506.319 315.418C506.011 315.129 505.577 314.984 505.017 314.984C504.541 314.984 504.069 315.082 503.603 315.278C503.136 315.465 502.674 315.745 502.217 316.118L501.741 315.138C502.133 314.765 502.627 314.471 503.225 314.256C503.831 314.032 504.438 313.92 505.045 313.92C505.67 313.92 506.207 314.027 506.655 314.242C507.103 314.447 507.453 314.751 507.705 315.152C507.957 315.544 508.083 316.011 508.083 316.552C508.083 317.121 507.952 317.667 507.691 318.19C507.439 318.713 507.019 319.301 506.431 319.954L503.141 323.496L503.029 322.922H508.489V324H502.007ZM513.481 324.112C512.333 324.112 511.461 323.683 510.863 322.824C510.266 321.956 509.967 320.687 509.967 319.016C509.967 317.345 510.261 316.081 510.849 315.222C511.447 314.354 512.324 313.92 513.481 313.92C514.639 313.92 515.511 314.354 516.099 315.222C516.697 316.081 516.995 317.341 516.995 319.002C516.995 320.673 516.697 321.942 516.099 322.81C515.502 323.678 514.629 324.112 513.481 324.112ZM513.481 323.048C514.237 323.048 514.793 322.721 515.147 322.068C515.511 321.415 515.693 320.393 515.693 319.002C515.693 317.611 515.511 316.599 515.147 315.964C514.793 315.32 514.237 314.998 513.481 314.998C512.725 314.998 512.165 315.32 511.801 315.964C511.447 316.608 511.269 317.621 511.269 319.002C511.269 320.393 511.447 321.415 511.801 322.068C512.165 322.721 512.725 323.048 513.481 323.048Z" fill="#969EAC"/>
<path d="M351.665 324V314.032H352.729L356.705 323.09H356.145L360.093 314.032H361.143V324H359.967V315.796L360.401 315.852L356.859 324H355.963L352.365 315.852L352.841 315.796L352.855 324H351.665ZM366.108 324.098C365.492 324.098 364.946 323.953 364.47 323.664C364.003 323.365 363.639 322.945 363.378 322.404C363.116 321.853 362.986 321.209 362.986 320.472C362.986 319.735 363.116 319.091 363.378 318.54C363.648 317.989 364.017 317.56 364.484 317.252C364.96 316.935 365.501 316.776 366.108 316.776C366.742 316.776 367.284 316.935 367.732 317.252C368.18 317.56 368.483 318.003 368.642 318.582L368.474 318.68V316.958H369.734V324H368.474V322.236L368.642 322.306C368.483 322.875 368.18 323.319 367.732 323.636C367.284 323.944 366.742 324.098 366.108 324.098ZM366.388 323.062C367.06 323.062 367.573 322.838 367.928 322.39C368.292 321.933 368.474 321.284 368.474 320.444C368.474 319.604 368.292 318.96 367.928 318.512C367.564 318.055 367.05 317.826 366.388 317.826C365.725 317.826 365.207 318.059 364.834 318.526C364.46 318.993 364.274 319.641 364.274 320.472C364.274 321.303 364.46 321.942 364.834 322.39C365.207 322.838 365.725 323.062 366.388 323.062ZM371.547 327.178L371.281 326.198C371.71 326.095 372.07 325.974 372.359 325.834C372.658 325.703 372.905 325.531 373.101 325.316C373.297 325.111 373.47 324.835 373.619 324.49L374.081 323.44L374.375 323.02L376.881 316.958H378.155L374.865 324.602C374.613 325.181 374.324 325.643 373.997 325.988C373.67 326.343 373.302 326.609 372.891 326.786C372.49 326.963 372.042 327.094 371.547 327.178ZM374.095 324.392L370.917 316.958H372.247L374.725 323.02L374.095 324.392ZM383.081 324V323.02L386.553 319.212C387.001 318.708 387.328 318.255 387.533 317.854C387.748 317.443 387.855 317.033 387.855 316.622C387.855 316.099 387.701 315.698 387.393 315.418C387.085 315.129 386.651 314.984 386.091 314.984C385.615 314.984 385.144 315.082 384.677 315.278C384.21 315.465 383.748 315.745 383.291 316.118L382.815 315.138C383.207 314.765 383.702 314.471 384.299 314.256C384.906 314.032 385.512 313.92 386.119 313.92C386.744 313.92 387.281 314.027 387.729 314.242C388.177 314.447 388.527 314.751 388.779 315.152C389.031 315.544 389.157 316.011 389.157 316.552C389.157 317.121 389.026 317.667 388.765 318.19C388.513 318.713 388.093 319.301 387.505 319.954L384.215 323.496L384.103 322.922H389.563V324H383.081ZM394.555 324.112C393.407 324.112 392.535 323.683 391.937 322.824C391.34 321.956 391.041 320.687 391.041 319.016C391.041 317.345 391.335 316.081 391.923 315.222C392.521 314.354 393.398 313.92 394.555 313.92C395.713 313.92 396.585 314.354 397.173 315.222C397.771 316.081 398.069 317.341 398.069 319.002C398.069 320.673 397.771 321.942 397.173 322.81C396.576 323.678 395.703 324.112 394.555 324.112ZM394.555 323.048C395.311 323.048 395.867 322.721 396.221 322.068C396.585 321.415 396.767 320.393 396.767 319.002C396.767 317.611 396.585 316.599 396.221 315.964C395.867 315.32 395.311 314.998 394.555 314.998C393.799 314.998 393.239 315.32 392.875 315.964C392.521 316.608 392.343 317.621 392.343 319.002C392.343 320.393 392.521 321.415 392.875 322.068C393.239 322.721 393.799 323.048 394.555 323.048ZM399.87 324V323.02L403.342 319.212C403.79 318.708 404.117 318.255 404.322 317.854C404.537 317.443 404.644 317.033 404.644 316.622C404.644 316.099 404.49 315.698 404.182 315.418C403.874 315.129 403.44 314.984 402.88 314.984C402.404 314.984 401.933 315.082 401.466 315.278C400.999 315.465 400.537 315.745 400.08 316.118L399.604 315.138C399.996 314.765 400.491 314.471 401.088 314.256C401.695 314.032 402.301 313.92 402.908 313.92C403.533 313.92 404.07 314.027 404.518 314.242C404.966 314.447 405.316 314.751 405.568 315.152C405.82 315.544 405.946 316.011 405.946 316.552C405.946 317.121 405.815 317.667 405.554 318.19C405.302 318.713 404.882 319.301 404.294 319.954L401.004 323.496L400.892 322.922H406.352V324H399.87ZM411.345 324.112C410.197 324.112 409.324 323.683 408.727 322.824C408.129 321.956 407.831 320.687 407.831 319.016C407.831 317.345 408.125 316.081 408.713 315.222C409.31 314.354 410.187 313.92 411.345 313.92C412.502 313.92 413.375 314.354 413.963 315.222C414.56 316.081 414.859 317.341 414.859 319.002C414.859 320.673 414.56 321.942 413.963 322.81C413.365 323.678 412.493 324.112 411.345 324.112ZM411.345 323.048C412.101 323.048 412.656 322.721 413.011 322.068C413.375 321.415 413.557 320.393 413.557 319.002C413.557 317.611 413.375 316.599 413.011 315.964C412.656 315.32 412.101 314.998 411.345 314.998C410.589 314.998 410.029 315.32 409.665 315.964C409.31 316.608 409.133 317.621 409.133 319.002C409.133 320.393 409.31 321.415 409.665 322.068C410.029 322.721 410.589 323.048 411.345 323.048Z" fill="#969EAC"/>
<path d="M247.922 324H246.592L251.002 314.032H252.108L256.532 324H255.216L251.352 314.998H251.786L247.922 324ZM248.482 321.494L248.944 320.43H254.152L254.614 321.494H248.482ZM257.782 327.024V318.932C257.782 318.605 257.772 318.279 257.754 317.952C257.744 317.616 257.716 317.285 257.67 316.958H258.874L259 318.4L258.888 318.582C259.046 318.003 259.35 317.56 259.798 317.252C260.246 316.935 260.782 316.776 261.408 316.776C262.024 316.776 262.565 316.935 263.032 317.252C263.508 317.56 263.876 317.989 264.138 318.54C264.408 319.091 264.544 319.735 264.544 320.472C264.544 321.209 264.408 321.853 264.138 322.404C263.876 322.945 263.512 323.365 263.046 323.664C262.579 323.953 262.033 324.098 261.408 324.098C260.782 324.098 260.246 323.944 259.798 323.636C259.35 323.319 259.046 322.875 258.888 322.306L259.056 322.152V327.024H257.782ZM261.142 323.062C261.804 323.062 262.318 322.838 262.682 322.39C263.046 321.942 263.228 321.303 263.228 320.472C263.228 319.641 263.046 318.993 262.682 318.526C262.318 318.059 261.804 317.826 261.142 317.826C260.47 317.826 259.952 318.055 259.588 318.512C259.224 318.96 259.042 319.604 259.042 320.444C259.042 321.284 259.224 321.933 259.588 322.39C259.952 322.838 260.47 323.062 261.142 323.062ZM266.231 324V318.932C266.231 318.605 266.222 318.279 266.203 317.952C266.194 317.616 266.166 317.285 266.119 316.958H267.323L267.477 318.708L267.323 318.652C267.444 318.036 267.72 317.574 268.149 317.266C268.588 316.949 269.078 316.79 269.619 316.79C269.75 316.79 269.866 316.799 269.969 316.818C270.081 316.827 270.184 316.846 270.277 316.874L270.263 318.036C270.03 317.952 269.768 317.91 269.479 317.91C269.003 317.91 268.62 318.013 268.331 318.218C268.042 318.423 267.832 318.685 267.701 319.002C267.57 319.319 267.505 319.66 267.505 320.024V324H266.231ZM275.146 324V323.02L278.618 319.212C279.066 318.708 279.393 318.255 279.598 317.854C279.813 317.443 279.92 317.033 279.92 316.622C279.92 316.099 279.766 315.698 279.458 315.418C279.15 315.129 278.716 314.984 278.156 314.984C277.68 314.984 277.209 315.082 276.742 315.278C276.276 315.465 275.814 315.745 275.356 316.118L274.88 315.138C275.272 314.765 275.767 314.471 276.364 314.256C276.971 314.032 277.578 313.92 278.184 313.92C278.81 313.92 279.346 314.027 279.794 314.242C280.242 314.447 280.592 314.751 280.844 315.152C281.096 315.544 281.222 316.011 281.222 316.552C281.222 317.121 281.092 317.667 280.83 318.19C280.578 318.713 280.158 319.301 279.57 319.954L276.28 323.496L276.168 322.922H281.628V324H275.146ZM286.621 324.112C285.473 324.112 284.6 323.683 284.003 322.824C283.406 321.956 283.107 320.687 283.107 319.016C283.107 317.345 283.401 316.081 283.989 315.222C284.586 314.354 285.464 313.92 286.621 313.92C287.778 313.92 288.651 314.354 289.239 315.222C289.836 316.081 290.135 317.341 290.135 319.002C290.135 320.673 289.836 321.942 289.239 322.81C288.642 323.678 287.769 324.112 286.621 324.112ZM286.621 323.048C287.377 323.048 287.932 322.721 288.287 322.068C288.651 321.415 288.833 320.393 288.833 319.002C288.833 317.611 288.651 316.599 288.287 315.964C287.932 315.32 287.377 314.998 286.621 314.998C285.865 314.998 285.305 315.32 284.941 315.964C284.586 316.608 284.409 317.621 284.409 319.002C284.409 320.393 284.586 321.415 284.941 322.068C285.305 322.721 285.865 323.048 286.621 323.048ZM291.935 324V323.02L295.407 319.212C295.855 318.708 296.182 318.255 296.387 317.854C296.602 317.443 296.709 317.033 296.709 316.622C296.709 316.099 296.555 315.698 296.247 315.418C295.939 315.129 295.505 314.984 294.945 314.984C294.469 314.984 293.998 315.082 293.531 315.278C293.065 315.465 292.603 315.745 292.145 316.118L291.669 315.138C292.061 314.765 292.556 314.471 293.153 314.256C293.76 314.032 294.367 313.92 294.973 313.92C295.599 313.92 296.135 314.027 296.583 314.242C297.031 314.447 297.381 314.751 297.633 315.152C297.885 315.544 298.011 316.011 298.011 316.552C298.011 317.121 297.881 317.667 297.619 318.19C297.367 318.713 296.947 319.301 296.359 319.954L293.069 323.496L292.957 322.922H298.417V324H291.935ZM303.41 324.112C302.262 324.112 301.389 323.683 300.792 322.824C300.195 321.956 299.896 320.687 299.896 319.016C299.896 317.345 300.19 316.081 300.778 315.222C301.375 314.354 302.253 313.92 303.41 313.92C304.567 313.92 305.44 314.354 306.028 315.222C306.625 316.081 306.924 317.341 306.924 319.002C306.924 320.673 306.625 321.942 306.028 322.81C305.431 323.678 304.558 324.112 303.41 324.112ZM303.41 323.048C304.166 323.048 304.721 322.721 305.076 322.068C305.44 321.415 305.622 320.393 305.622 319.002C305.622 317.611 305.44 316.599 305.076 315.964C304.721 315.32 304.166 314.998 303.41 314.998C302.654 314.998 302.094 315.32 301.73 315.964C301.375 316.608 301.198 317.621 301.198 319.002C301.198 320.393 301.375 321.415 301.73 322.068C302.094 322.721 302.654 323.048 303.41 323.048Z" fill="#969EAC"/>
<path d="M140.32 324V314.032H141.384L145.36 323.09H144.8L148.748 314.032H149.798V324H148.622V315.796L149.056 315.852L145.514 324H144.618L141.02 315.852L141.496 315.796L141.51 324H140.32ZM154.763 324.098C154.147 324.098 153.601 323.953 153.125 323.664C152.658 323.365 152.294 322.945 152.033 322.404C151.772 321.853 151.641 321.209 151.641 320.472C151.641 319.735 151.772 319.091 152.033 318.54C152.304 317.989 152.672 317.56 153.139 317.252C153.615 316.935 154.156 316.776 154.763 316.776C155.398 316.776 155.939 316.935 156.387 317.252C156.835 317.56 157.138 318.003 157.297 318.582L157.129 318.68V316.958H158.389V324H157.129V322.236L157.297 322.306C157.138 322.875 156.835 323.319 156.387 323.636C155.939 323.944 155.398 324.098 154.763 324.098ZM155.043 323.062C155.715 323.062 156.228 322.838 156.583 322.39C156.947 321.933 157.129 321.284 157.129 320.444C157.129 319.604 156.947 318.96 156.583 318.512C156.219 318.055 155.706 317.826 155.043 317.826C154.38 317.826 153.862 318.059 153.489 318.526C153.116 318.993 152.929 319.641 152.929 320.472C152.929 321.303 153.116 321.942 153.489 322.39C153.862 322.838 154.38 323.062 155.043 323.062ZM160.51 324V318.932C160.51 318.605 160.501 318.279 160.482 317.952C160.473 317.616 160.445 317.285 160.398 316.958H161.602L161.756 318.708L161.602 318.652C161.724 318.036 161.999 317.574 162.428 317.266C162.867 316.949 163.357 316.79 163.898 316.79C164.029 316.79 164.146 316.799 164.248 316.818C164.36 316.827 164.463 316.846 164.556 316.874L164.542 318.036C164.309 317.952 164.048 317.91 163.758 317.91C163.282 317.91 162.9 318.013 162.61 318.218C162.321 318.423 162.111 318.685 161.98 319.002C161.85 319.319 161.784 319.66 161.784 320.024V324H160.51ZM169.426 324V323.02L172.898 319.212C173.346 318.708 173.672 318.255 173.878 317.854C174.092 317.443 174.2 317.033 174.2 316.622C174.2 316.099 174.046 315.698 173.738 315.418C173.43 315.129 172.996 314.984 172.436 314.984C171.96 314.984 171.488 315.082 171.022 315.278C170.555 315.465 170.093 315.745 169.636 316.118L169.16 315.138C169.552 314.765 170.046 314.471 170.644 314.256C171.25 314.032 171.857 313.92 172.464 313.92C173.089 313.92 173.626 314.027 174.074 314.242C174.522 314.447 174.872 314.751 175.124 315.152C175.376 315.544 175.502 316.011 175.502 316.552C175.502 317.121 175.371 317.667 175.11 318.19C174.858 318.713 174.438 319.301 173.85 319.954L170.56 323.496L170.448 322.922H175.908V324H169.426ZM180.9 324.112C179.752 324.112 178.88 323.683 178.282 322.824C177.685 321.956 177.386 320.687 177.386 319.016C177.386 317.345 177.68 316.081 178.268 315.222C178.866 314.354 179.743 313.92 180.9 313.92C182.058 313.92 182.93 314.354 183.518 315.222C184.116 316.081 184.414 317.341 184.414 319.002C184.414 320.673 184.116 321.942 183.518 322.81C182.921 323.678 182.048 324.112 180.9 324.112ZM180.9 323.048C181.656 323.048 182.212 322.721 182.566 322.068C182.93 321.415 183.112 320.393 183.112 319.002C183.112 317.611 182.93 316.599 182.566 315.964C182.212 315.32 181.656 314.998 180.9 314.998C180.144 314.998 179.584 315.32 179.22 315.964C178.866 316.608 178.688 317.621 178.688 319.002C178.688 320.393 178.866 321.415 179.22 322.068C179.584 322.721 180.144 323.048 180.9 323.048ZM186.215 324V323.02L189.687 319.212C190.135 318.708 190.461 318.255 190.667 317.854C190.881 317.443 190.989 317.033 190.989 316.622C190.989 316.099 190.835 315.698 190.527 315.418C190.219 315.129 189.785 314.984 189.225 314.984C188.749 314.984 188.277 315.082 187.811 315.278C187.344 315.465 186.882 315.745 186.425 316.118L185.949 315.138C186.341 314.765 186.835 314.471 187.433 314.256C188.039 314.032 188.646 313.92 189.253 313.92C189.878 313.92 190.415 314.027 190.863 314.242C191.311 314.447 191.661 314.751 191.913 315.152C192.165 315.544 192.291 316.011 192.291 316.552C192.291 317.121 192.16 317.667 191.899 318.19C191.647 318.713 191.227 319.301 190.639 319.954L187.349 323.496L187.237 322.922H192.697V324H186.215ZM197.689 324.112C196.541 324.112 195.669 323.683 195.071 322.824C194.474 321.956 194.175 320.687 194.175 319.016C194.175 317.345 194.469 316.081 195.057 315.222C195.655 314.354 196.532 313.92 197.689 313.92C198.847 313.92 199.719 314.354 200.307 315.222C200.905 316.081 201.203 317.341 201.203 319.002C201.203 320.673 200.905 321.942 200.307 322.81C199.71 323.678 198.837 324.112 197.689 324.112ZM197.689 323.048C198.445 323.048 199.001 322.721 199.355 322.068C199.719 321.415 199.901 320.393 199.901 319.002C199.901 317.611 199.719 316.599 199.355 315.964C199.001 315.32 198.445 314.998 197.689 314.998C196.933 314.998 196.373 315.32 196.009 315.964C195.655 316.608 195.477 317.621 195.477 319.002C195.477 320.393 195.655 321.415 196.009 322.068C196.373 322.721 196.933 323.048 197.689 323.048Z" fill="#969EAC"/>
<path d="M35.6405 324V314.032H41.8705V315.11H36.9145V318.4H41.5905V319.478H36.9145V324H35.6405ZM49.1038 323.174C48.7958 323.463 48.3992 323.692 47.9138 323.86C47.4285 324.019 46.9338 324.098 46.4298 324.098C45.6925 324.098 45.0578 323.953 44.5258 323.664C43.9938 323.375 43.5832 322.959 43.2938 322.418C43.0045 321.867 42.8598 321.214 42.8598 320.458C42.8598 319.73 42.9998 319.091 43.2798 318.54C43.5692 317.989 43.9658 317.56 44.4698 317.252C44.9738 316.935 45.5525 316.776 46.2058 316.776C46.8405 316.776 47.3818 316.916 47.8298 317.196C48.2872 317.476 48.6325 317.877 48.8658 318.4C49.1085 318.913 49.2298 319.529 49.2298 320.248V320.472H43.9798V319.688H48.5018L48.1098 320.192C48.1285 319.399 47.9745 318.792 47.6478 318.372C47.3212 317.952 46.8452 317.742 46.2198 317.742C45.5665 317.742 45.0532 317.975 44.6798 318.442C44.3158 318.899 44.1338 319.543 44.1338 320.374C44.1338 321.27 44.3298 321.947 44.7218 322.404C45.1138 322.852 45.6925 323.076 46.4578 323.076C46.8685 323.076 47.2605 323.011 47.6338 322.88C48.0072 322.74 48.3618 322.535 48.6978 322.264L49.1038 323.174ZM50.9087 324V313.696H52.1827V318.736L52.0147 318.568C52.1734 318.008 52.4767 317.569 52.9247 317.252C53.3727 316.935 53.9094 316.776 54.5347 316.776C55.1601 316.776 55.7061 316.925 56.1727 317.224C56.6394 317.523 57.0034 317.947 57.2647 318.498C57.5354 319.039 57.6707 319.679 57.6707 320.416C57.6707 321.153 57.5354 321.802 57.2647 322.362C57.0034 322.913 56.6347 323.342 56.1587 323.65C55.6921 323.949 55.1507 324.098 54.5347 324.098C53.9094 324.098 53.3727 323.944 52.9247 323.636C52.4767 323.319 52.1734 322.875 52.0147 322.306L52.1687 322.138V324H50.9087ZM54.2687 323.062C54.9314 323.062 55.4447 322.833 55.8087 322.376C56.1727 321.909 56.3547 321.256 56.3547 320.416C56.3547 319.595 56.1727 318.96 55.8087 318.512C55.4447 318.055 54.9314 317.826 54.2687 317.826C53.5967 317.826 53.0787 318.055 52.7147 318.512C52.3507 318.969 52.1687 319.613 52.1687 320.444C52.1687 321.284 52.3507 321.933 52.7147 322.39C53.0787 322.838 53.5967 323.062 54.2687 323.062ZM63.1054 324V323.02L66.5774 319.212C67.0254 318.708 67.352 318.255 67.5574 317.854C67.772 317.443 67.8794 317.033 67.8794 316.622C67.8794 316.099 67.7254 315.698 67.4174 315.418C67.1094 315.129 66.6754 314.984 66.1154 314.984C65.6394 314.984 65.168 315.082 64.7014 315.278C64.2347 315.465 63.7727 315.745 63.3154 316.118L62.8394 315.138C63.2314 314.765 63.726 314.471 64.3234 314.256C64.93 314.032 65.5367 313.92 66.1434 313.92C66.7687 313.92 67.3054 314.027 67.7534 314.242C68.2014 314.447 68.5514 314.751 68.8034 315.152C69.0554 315.544 69.1814 316.011 69.1814 316.552C69.1814 317.121 69.0507 317.667 68.7894 318.19C68.5374 318.713 68.1174 319.301 67.5294 319.954L64.2394 323.496L64.1274 322.922H69.5874V324H63.1054ZM74.5799 324.112C73.4319 324.112 72.5592 323.683 71.9619 322.824C71.3645 321.956 71.0659 320.687 71.0659 319.016C71.0659 317.345 71.3599 316.081 71.9479 315.222C72.5452 314.354 73.4225 313.92 74.5799 313.92C75.7372 313.92 76.6099 314.354 77.1979 315.222C77.7952 316.081 78.0939 317.341 78.0939 319.002C78.0939 320.673 77.7952 321.942 77.1979 322.81C76.6005 323.678 75.7279 324.112 74.5799 324.112ZM74.5799 323.048C75.3359 323.048 75.8912 322.721 76.2459 322.068C76.6099 321.415 76.7919 320.393 76.7919 319.002C76.7919 317.611 76.6099 316.599 76.2459 315.964C75.8912 315.32 75.3359 314.998 74.5799 314.998C73.8239 314.998 73.2639 315.32 72.8999 315.964C72.5452 316.608 72.3679 317.621 72.3679 319.002C72.3679 320.393 72.5452 321.415 72.8999 322.068C73.2639 322.721 73.8239 323.048 74.5799 323.048ZM79.8944 324V323.02L83.3664 319.212C83.8144 318.708 84.1411 318.255 84.3464 317.854C84.5611 317.443 84.6684 317.033 84.6684 316.622C84.6684 316.099 84.5144 315.698 84.2064 315.418C83.8984 315.129 83.4644 314.984 82.9044 314.984C82.4284 314.984 81.9571 315.082 81.4904 315.278C81.0237 315.465 80.5617 315.745 80.1044 316.118L79.6284 315.138C80.0204 314.765 80.5151 314.471 81.1124 314.256C81.7191 314.032 82.3257 313.92 82.9324 313.92C83.5577 313.92 84.0944 314.027 84.5424 314.242C84.9904 314.447 85.3404 314.751 85.5924 315.152C85.8444 315.544 85.9704 316.011 85.9704 316.552C85.9704 317.121 85.8397 317.667 85.5784 318.19C85.3264 318.713 84.9064 319.301 84.3184 319.954L81.0284 323.496L80.9164 322.922H86.3764V324H79.8944ZM91.3689 324.112C90.2209 324.112 89.3483 323.683 88.7509 322.824C88.1536 321.956 87.8549 320.687 87.8549 319.016C87.8549 317.345 88.1489 316.081 88.7369 315.222C89.3343 314.354 90.2116 313.92 91.3689 313.92C92.5263 313.92 93.3989 314.354 93.9869 315.222C94.5843 316.081 94.8829 317.341 94.8829 319.002C94.8829 320.673 94.5843 321.942 93.9869 322.81C93.3896 323.678 92.5169 324.112 91.3689 324.112ZM91.3689 323.048C92.1249 323.048 92.6803 322.721 93.0349 322.068C93.3989 321.415 93.5809 320.393 93.5809 319.002C93.5809 317.611 93.3989 316.599 93.0349 315.964C92.6803 315.32 92.1249 314.998 91.3689 314.998C90.6129 314.998 90.0529 315.32 89.6889 315.964C89.3343 316.608 89.1569 317.621 89.1569 319.002C89.1569 320.393 89.3343 321.415 89.6889 322.068C90.0529 322.721 90.6129 323.048 91.3689 323.048Z" fill="#969EAC"/>
<path opacity="0.24" d="M44 294.5L828 294.5" stroke="#969EAC"/>
<path opacity="0.1" d="M44 258H828" stroke="#969EAC"/>
<path opacity="0.1" d="M44 222H828" stroke="#969EAC"/>
<path opacity="0.1" d="M44 186H828" stroke="#969EAC"/>
<path opacity="0.1" d="M44 150H828" stroke="#969EAC"/>
<path opacity="0.1" d="M44 114H828" stroke="#969EAC"/>
<path opacity="0.1" d="M44 78H828" stroke="#969EAC"/>
<path opacity="0.1" d="M44 42H828" stroke="#969EAC"/>
<path d="M712 44C712 42.8954 712.895 42 714 42H720C721.105 42 722 42.8954 722 44V294H712V44Z" fill="#D3365F"/>
<path d="M696 270C696 268.895 696.895 268 698 268H704C705.105 268 706 268.895 706 270V294H696V270Z" fill="#235EE7"/>
<path d="M680 206C680 204.895 680.895 204 682 204H688C689.105 204 690 204.895 690 206V294H680V206Z" fill="#29CFD6"/>
<path d="M606 136C606 134.895 606.895 134 608 134H614C615.105 134 616 134.895 616 136V294H606V136Z" fill="#D3365F"/>
<path d="M590 162C590 160.895 590.895 160 592 160H598C599.105 160 600 160.895 600 162V294H590V162Z" fill="#235EE7"/>
<path d="M574 191C574 189.895 574.895 189 576 189H582C583.105 189 584 189.895 584 191V294H574V191Z" fill="#29CFD6"/>
<path d="M500 77C500 75.8954 500.895 75 502 75H508C509.105 75 510 75.8954 510 77V294H500V77Z" fill="#D3365F"/>
<path d="M484 128C484 126.895 484.895 126 486 126H492C493.105 126 494 126.895 494 128V294H484V128Z" fill="#235EE7"/>
<path d="M468 91C468 89.8954 468.895 89 470 89H476C477.105 89 478 89.8954 478 91V294H468V91Z" fill="#29CFD6"/>
<path d="M288 136C288 134.895 288.895 134 290 134H296C297.105 134 298 134.895 298 136V294H288V136Z" fill="#D3365F"/>
<path d="M272 44C272 42.8954 272.895 42 274 42H280C281.105 42 282 42.8954 282 44V294H272V44Z" fill="#235EE7"/>
<path d="M256 270C256 268.895 256.895 268 258 268H264C265.105 268 266 268.895 266 270V294H256V270Z" fill="#29CFD6"/>
<path d="M182 84C182 82.8954 182.895 82 184 82H190C191.105 82 192 82.8954 192 84V294H182V84Z" fill="#D3365F"/>
<path d="M166 116C166 114.895 166.895 114 168 114H174C175.105 114 176 114.895 176 116V294H166V116Z" fill="#235EE7"/>
<path d="M150 178C150 176.895 150.895 176 152 176H158C159.105 176 160 176.895 160 178V294H150V178Z" fill="#29CFD6"/>
<path d="M76 162C76 160.895 76.8954 160 78 160H84C85.1046 160 86 160.895 86 162V294H76V162Z" fill="#D3365F"/>
<path d="M60 206C60 204.895 60.8954 204 62 204H68C69.1046 204 70 204.895 70 206V294H60V206Z" fill="#235EE7"/>
<path d="M44 191C44 189.895 44.8954 189 46 189H52C53.1046 189 54 189.895 54 191V294H44V191Z" fill="#29CFD6"/>
<path d="M394 162C394 160.895 394.895 160 396 160H402C403.105 160 404 160.895 404 162V294H394V162Z" fill="#D3365F"/>
<path d="M378 206C378 204.895 378.895 204 380 204H386C387.105 204 388 204.895 388 206V294H378V206Z" fill="#235EE7"/>
<path d="M362 103C362 101.895 362.895 101 364 101H370C371.105 101 372 101.895 372 103V294H362V103Z" fill="#29CFD6"/>
<circle cx="542" cy="294" r="4" fill="#FAFBFD"/>
<circle cx="542" cy="294" r="3" stroke="#969EAC" stroke-opacity="0.3" stroke-width="2"/>
<defs>
<filter id="filter0_di" x="0" y="0" width="1085" height="370" filterUnits="userSpaceOnUse" color-interpolation-filters="sRGB">
<feFlood flood-opacity="0" result="BackgroundImageFix"/>
<feColorMatrix in="SourceAlpha" type="matrix" values="0 0 0 0 0 0 0 0 0 0 0 0 0 0 0 0 0 0 127 0"/>
<feOffset dy="2"/>
<feGaussianBlur stdDeviation="4"/>
<feColorMatrix type="matrix" values="0 0 0 0 0.888 0 0 0 0 0.911467 0 0 0 0 0.952 0 0 0 1 0"/>
<feBlend mode="normal" in2="BackgroundImageFix" result="effect1_dropShadow"/>
<feBlend mode="normal" in="SourceGraphic" in2="effect1_dropShadow" result="shape"/>
<feColorMatrix in="SourceAlpha" type="matrix" values="0 0 0 0 0 0 0 0 0 0 0 0 0 0 0 0 0 0 127 0" result="hardAlpha"/>
<feOffset dy="-1"/>
<feComposite in2="hardAlpha" operator="arithmetic" k2="-1" k3="1"/>
<feColorMatrix type="matrix" values="0 0 0 0 0.921569 0 0 0 0 0.92549 0 0 0 0 0.945098 0 0 0 1 0"/>
<feBlend mode="normal" in2="shape" result="effect2_innerShadow"/>
</filter>
<linearGradient id="paint0_linear" x1="542" y1="133.5" x2="828" y2="133.5" gradientUnits="userSpaceOnUse">
<stop stop-color="#534CEA"/>
<stop offset="1" stop-color="#534CEA" stop-opacity="0"/>
</linearGradient>
</defs>
</svg>
