<svg width="740" height="530" viewBox="0 0 740 530" fill="none" xmlns="http://www.w3.org/2000/svg">
<g filter="url(#filter0_di)">
<rect x="8" y="6" width="1069" height="354" rx="6" fill="white"/>
</g>
<rect opacity="0.1" x="542" y="6" width="286" height="288" fill="url(#paint0_linear)"/>
<path opacity="0.4" d="M563.094 28V20.168H566.493C567.344 20.168 568 20.3733 568.462 20.784C568.931 21.1873 569.166 21.741 569.166 22.445C569.166 23.1417 568.928 23.6953 568.451 24.106C567.982 24.5167 567.329 24.722 566.493 24.722H564.513V28H563.094ZM564.513 23.633H566.328C566.827 23.633 567.197 23.5303 567.439 23.325C567.688 23.1197 567.813 22.83 567.813 22.456C567.813 22.0747 567.692 21.785 567.45 21.587C567.208 21.3817 566.834 21.279 566.328 21.279H564.513V23.633ZM572.62 28V20.168H575.975C576.862 20.168 577.537 20.3623 577.999 20.751C578.461 21.1397 578.692 21.697 578.692 22.423C578.692 23.1123 578.454 23.6623 577.977 24.073C577.5 24.4763 576.837 24.678 575.986 24.678L576.866 24.502C577.137 24.502 577.379 24.5827 577.592 24.744C577.805 24.9053 577.973 25.1547 578.098 25.492L579.066 28H577.57L576.58 25.393C576.477 25.1363 576.331 24.964 576.14 24.876C575.957 24.788 575.726 24.744 575.447 24.744H574.017V28H572.62ZM574.006 23.644H575.777C576.32 23.644 576.716 23.545 576.965 23.347C577.214 23.149 577.339 22.852 577.339 22.456C577.339 22.0527 577.214 21.7557 576.965 21.565C576.716 21.3743 576.32 21.279 575.777 21.279H574.006V23.644ZM585.966 28.088C585.203 28.088 584.543 27.9267 583.986 27.604C583.429 27.2813 583 26.8193 582.699 26.218C582.398 25.6167 582.248 24.9053 582.248 24.084C582.248 23.2553 582.398 22.544 582.699 21.95C583 21.3487 583.429 20.8867 583.986 20.564C584.543 20.2413 585.203 20.08 585.966 20.08C586.736 20.08 587.4 20.2413 587.957 20.564C588.514 20.8867 588.943 21.3487 589.244 21.95C589.545 22.544 589.695 23.2517 589.695 24.073C589.695 24.9017 589.541 25.6167 589.233 26.218C588.932 26.8193 588.503 27.2813 587.946 27.604C587.396 27.9267 586.736 28.088 585.966 28.088ZM585.966 26.966C586.685 26.966 587.249 26.7203 587.66 26.229C588.071 25.7303 588.276 25.0117 588.276 24.073C588.276 23.1343 588.071 22.423 587.66 21.939C587.249 21.4477 586.685 21.202 585.966 21.202C585.255 21.202 584.694 21.4477 584.283 21.939C583.872 22.423 583.667 23.1343 583.667 24.073C583.667 25.0117 583.872 25.7303 584.283 26.229C584.694 26.7203 585.255 26.966 585.966 26.966ZM592.103 29.958V28.803C592.565 28.869 592.921 28.8837 593.17 28.847C593.42 28.8177 593.592 28.7113 593.687 28.528C593.783 28.3447 593.83 28.0623 593.83 27.681V20.168H595.249V27.67C595.249 28.3153 595.15 28.8287 594.952 29.21C594.754 29.5913 594.424 29.8407 593.962 29.958C593.508 30.0827 592.888 30.0827 592.103 29.958ZM599.158 28V20.168H604.394V21.279H600.544V23.457H604.174V24.579H600.544V26.889H604.394V28H599.158ZM611.431 28.088C610.654 28.088 609.979 27.9267 609.407 27.604C608.835 27.274 608.395 26.8083 608.087 26.207C607.786 25.6057 607.636 24.8943 607.636 24.073C607.636 23.259 607.786 22.555 608.087 21.961C608.395 21.3597 608.835 20.8977 609.407 20.575C609.979 20.245 610.654 20.08 611.431 20.08C611.959 20.08 612.454 20.1607 612.916 20.322C613.385 20.476 613.774 20.7033 614.082 21.004L613.62 22.038C613.261 21.752 612.909 21.5467 612.564 21.422C612.219 21.29 611.849 21.224 611.453 21.224C610.698 21.224 610.111 21.4697 609.693 21.961C609.282 22.445 609.077 23.149 609.077 24.073C609.077 24.997 609.282 25.7083 609.693 26.207C610.111 26.6983 610.698 26.944 611.453 26.944C611.849 26.944 612.219 26.8817 612.564 26.757C612.909 26.625 613.261 26.416 613.62 26.13L614.082 27.164C613.774 27.4647 613.385 27.6957 612.916 27.857C612.454 28.011 611.959 28.088 611.431 28.088ZM619.327 28V21.334H616.775V20.168H623.309V21.334H620.757V28H619.327ZM626.49 28V20.168H631.726V21.279H627.876V23.457H631.506V24.579H627.876V26.889H631.726V28H626.49ZM635.232 28V20.168H638.114C638.972 20.168 639.702 20.322 640.303 20.63C640.904 20.938 641.363 21.3853 641.678 21.972C642.001 22.5513 642.162 23.2517 642.162 24.073C642.162 24.9017 642.001 25.6093 641.678 26.196C641.363 26.7827 640.901 27.23 640.292 27.538C639.691 27.846 638.965 28 638.114 28H635.232ZM636.651 26.845H638.026C638.928 26.845 639.603 26.614 640.05 26.152C640.505 25.69 640.732 24.997 640.732 24.073C640.732 22.2397 639.83 21.323 638.026 21.323H636.651V26.845Z" fill="#534CEA"/>
<path d="M669.904 324H668.574L672.984 314.032H674.09L678.514 324H677.198L673.334 314.998H673.768L669.904 324ZM670.464 321.494L670.926 320.43H676.134L676.596 321.494H670.464ZM682.27 324.098C681.421 324.098 680.782 323.865 680.352 323.398C679.932 322.922 679.722 322.222 679.722 321.298V316.958H680.996V321.284C680.996 321.891 681.118 322.339 681.36 322.628C681.612 322.908 681.995 323.048 682.508 323.048C683.106 323.048 683.586 322.857 683.95 322.474C684.314 322.082 684.496 321.564 684.496 320.92V316.958H685.784V324H684.538V322.488L684.706 322.418C684.52 322.969 684.207 323.389 683.768 323.678C683.33 323.958 682.83 324.098 682.27 324.098ZM691.021 327.122C689.948 327.122 689.014 326.884 688.221 326.408L688.445 325.386C688.884 325.638 689.299 325.82 689.691 325.932C690.092 326.044 690.536 326.1 691.021 326.1C691.684 326.1 692.183 325.923 692.519 325.568C692.864 325.223 693.037 324.705 693.037 324.014V322.138L693.191 321.998C693.079 322.362 692.902 322.679 692.659 322.95C692.426 323.211 692.136 323.417 691.791 323.566C691.455 323.715 691.068 323.79 690.629 323.79C690.013 323.79 689.467 323.645 688.991 323.356C688.515 323.057 688.142 322.647 687.871 322.124C687.61 321.601 687.479 320.99 687.479 320.29C687.479 319.59 687.61 318.979 687.871 318.456C688.142 317.924 688.515 317.513 688.991 317.224C689.467 316.925 690.013 316.776 690.629 316.776C691.273 316.776 691.819 316.935 692.267 317.252C692.724 317.569 693.032 318.008 693.191 318.568L693.023 318.456V316.958H694.297V323.902C694.297 324.975 694.017 325.778 693.457 326.31C692.906 326.851 692.094 327.122 691.021 327.122ZM690.909 322.74C691.572 322.74 692.09 322.525 692.463 322.096C692.836 321.657 693.023 321.055 693.023 320.29C693.023 319.525 692.836 318.923 692.463 318.484C692.09 318.045 691.572 317.826 690.909 317.826C690.246 317.826 689.724 318.045 689.341 318.484C688.958 318.923 688.767 319.525 688.767 320.29C688.767 321.065 688.958 321.667 689.341 322.096C689.724 322.525 690.246 322.74 690.909 322.74ZM700.164 324V323.02L703.636 319.212C704.084 318.708 704.411 318.255 704.616 317.854C704.831 317.443 704.938 317.033 704.938 316.622C704.938 316.099 704.784 315.698 704.476 315.418C704.168 315.129 703.734 314.984 703.174 314.984C702.698 314.984 702.227 315.082 701.76 315.278C701.293 315.465 700.831 315.745 700.374 316.118L699.898 315.138C700.29 314.765 700.785 314.471 701.382 314.256C701.989 314.032 702.595 313.92 703.202 313.92C703.827 313.92 704.364 314.027 704.812 314.242C705.26 314.447 705.61 314.751 705.862 315.152C706.114 315.544 706.24 316.011 706.24 316.552C706.24 317.121 706.109 317.667 705.848 318.19C705.596 318.713 705.176 319.301 704.588 319.954L701.298 323.496L701.186 322.922H706.646V324H700.164ZM711.638 324.112C710.49 324.112 709.618 323.683 709.02 322.824C708.423 321.956 708.124 320.687 708.124 319.016C708.124 317.345 708.418 316.081 709.006 315.222C709.604 314.354 710.481 313.92 711.638 313.92C712.796 313.92 713.668 314.354 714.256 315.222C714.854 316.081 715.152 317.341 715.152 319.002C715.152 320.673 714.854 321.942 714.256 322.81C713.659 323.678 712.786 324.112 711.638 324.112ZM711.638 323.048C712.394 323.048 712.95 322.721 713.304 322.068C713.668 321.415 713.85 320.393 713.85 319.002C713.85 317.611 713.668 316.599 713.304 315.964C712.95 315.32 712.394 314.998 711.638 314.998C710.882 314.998 710.322 315.32 709.958 315.964C709.604 316.608 709.426 317.621 709.426 319.002C709.426 320.393 709.604 321.415 709.958 322.068C710.322 322.721 710.882 323.048 711.638 323.048ZM716.953 324V323.02L720.425 319.212C720.873 318.708 721.2 318.255 721.405 317.854C721.62 317.443 721.727 317.033 721.727 316.622C721.727 316.099 721.573 315.698 721.265 315.418C720.957 315.129 720.523 314.984 719.963 314.984C719.487 314.984 719.016 315.082 718.549 315.278C718.082 315.465 717.62 315.745 717.163 316.118L716.687 315.138C717.079 314.765 717.574 314.471 718.171 314.256C718.778 314.032 719.384 313.92 719.991 313.92C720.616 313.92 721.153 314.027 721.601 314.242C722.049 314.447 722.399 314.751 722.651 315.152C722.903 315.544 723.029 316.011 723.029 316.552C723.029 317.121 722.898 317.667 722.637 318.19C722.385 318.713 721.965 319.301 721.377 319.954L718.087 323.496L717.975 322.922H723.435V324H716.953ZM728.428 324.112C727.28 324.112 726.407 323.683 725.81 322.824C725.212 321.956 724.914 320.687 724.914 319.016C724.914 317.345 725.208 316.081 725.796 315.222C726.393 314.354 727.27 313.92 728.428 313.92C729.585 313.92 730.458 314.354 731.046 315.222C731.643 316.081 731.942 317.341 731.942 319.002C731.942 320.673 731.643 321.942 731.046 322.81C730.448 323.678 729.576 324.112 728.428 324.112ZM728.428 323.048C729.184 323.048 729.739 322.721 730.094 322.068C730.458 321.415 730.64 320.393 730.64 319.002C730.64 317.611 730.458 316.599 730.094 315.964C729.739 315.32 729.184 314.998 728.428 314.998C727.672 314.998 727.112 315.32 726.748 315.964C726.393 316.608 726.216 317.621 726.216 319.002C726.216 320.393 726.393 321.415 726.748 322.068C727.112 322.721 727.672 323.048 728.428 323.048Z" fill="#969EAC"/>
<path d="M568.188 326.492V325.386C568.767 325.489 569.219 325.512 569.546 325.456C569.882 325.409 570.115 325.251 570.246 324.98C570.386 324.719 570.456 324.322 570.456 323.79V314.032H571.758V323.79C571.758 324.583 571.641 325.199 571.408 325.638C571.175 326.086 570.797 326.375 570.274 326.506C569.761 326.637 569.065 326.632 568.188 326.492ZM576.517 324.098C575.668 324.098 575.029 323.865 574.599 323.398C574.179 322.922 573.969 322.222 573.969 321.298V316.958H575.243V321.284C575.243 321.891 575.365 322.339 575.607 322.628C575.859 322.908 576.242 323.048 576.755 323.048C577.353 323.048 577.833 322.857 578.197 322.474C578.561 322.082 578.743 321.564 578.743 320.92V316.958H580.031V324H578.785V322.488L578.953 322.418C578.767 322.969 578.454 323.389 578.015 323.678C577.577 323.958 577.077 324.098 576.517 324.098ZM582.146 324V313.696H583.42V324H582.146ZM589.298 324V323.02L592.77 319.212C593.218 318.708 593.544 318.255 593.75 317.854C593.964 317.443 594.072 317.033 594.072 316.622C594.072 316.099 593.918 315.698 593.61 315.418C593.302 315.129 592.868 314.984 592.308 314.984C591.832 314.984 591.36 315.082 590.894 315.278C590.427 315.465 589.965 315.745 589.508 316.118L589.032 315.138C589.424 314.765 589.918 314.471 590.516 314.256C591.122 314.032 591.729 313.92 592.336 313.92C592.961 313.92 593.498 314.027 593.946 314.242C594.394 314.447 594.744 314.751 594.996 315.152C595.248 315.544 595.374 316.011 595.374 316.552C595.374 317.121 595.243 317.667 594.982 318.19C594.73 318.713 594.31 319.301 593.722 319.954L590.432 323.496L590.32 322.922H595.78V324H589.298ZM600.772 324.112C599.624 324.112 598.752 323.683 598.154 322.824C597.557 321.956 597.258 320.687 597.258 319.016C597.258 317.345 597.552 316.081 598.14 315.222C598.738 314.354 599.615 313.92 600.772 313.92C601.93 313.92 602.802 314.354 603.39 315.222C603.988 316.081 604.286 317.341 604.286 319.002C604.286 320.673 603.988 321.942 603.39 322.81C602.793 323.678 601.92 324.112 600.772 324.112ZM600.772 323.048C601.528 323.048 602.084 322.721 602.438 322.068C602.802 321.415 602.984 320.393 602.984 319.002C602.984 317.611 602.802 316.599 602.438 315.964C602.084 315.32 601.528 314.998 600.772 314.998C600.016 314.998 599.456 315.32 599.092 315.964C598.738 316.608 598.56 317.621 598.56 319.002C598.56 320.393 598.738 321.415 599.092 322.068C599.456 322.721 600.016 323.048 600.772 323.048ZM606.087 324V323.02L609.559 319.212C610.007 318.708 610.333 318.255 610.539 317.854C610.753 317.443 610.861 317.033 610.861 316.622C610.861 316.099 610.707 315.698 610.399 315.418C610.091 315.129 609.657 314.984 609.097 314.984C608.621 314.984 608.149 315.082 607.683 315.278C607.216 315.465 606.754 315.745 606.297 316.118L605.821 315.138C606.213 314.765 606.707 314.471 607.305 314.256C607.911 314.032 608.518 313.92 609.125 313.92C609.75 313.92 610.287 314.027 610.735 314.242C611.183 314.447 611.533 314.751 611.785 315.152C612.037 315.544 612.163 316.011 612.163 316.552C612.163 317.121 612.032 317.667 611.771 318.19C611.519 318.713 611.099 319.301 610.511 319.954L607.221 323.496L607.109 322.922H612.569V324H606.087ZM617.561 324.112C616.413 324.112 615.541 323.683 614.943 322.824C614.346 321.956 614.047 320.687 614.047 319.016C614.047 317.345 614.341 316.081 614.929 315.222C615.527 314.354 616.404 313.92 617.561 313.92C618.719 313.92 619.591 314.354 620.179 315.222C620.777 316.081 621.075 317.341 621.075 319.002C621.075 320.673 620.777 321.942 620.179 322.81C619.582 323.678 618.709 324.112 617.561 324.112ZM617.561 323.048C618.317 323.048 618.873 322.721 619.227 322.068C619.591 321.415 619.773 320.393 619.773 319.002C619.773 317.611 619.591 316.599 619.227 315.964C618.873 315.32 618.317 314.998 617.561 314.998C616.805 314.998 616.245 315.32 615.881 315.964C615.527 316.608 615.349 317.621 615.349 319.002C615.349 320.393 615.527 321.415 615.881 322.068C616.245 322.721 616.805 323.048 617.561 323.048Z" fill="#969EAC"/>
<path d="M459.268 326.492V325.386C459.847 325.489 460.3 325.512 460.626 325.456C460.962 325.409 461.196 325.251 461.326 324.98C461.466 324.719 461.536 324.322 461.536 323.79V314.032H462.838V323.79C462.838 324.583 462.722 325.199 462.488 325.638C462.255 326.086 461.877 326.375 461.354 326.506C460.841 326.637 460.146 326.632 459.268 326.492ZM467.597 324.098C466.748 324.098 466.109 323.865 465.679 323.398C465.259 322.922 465.049 322.222 465.049 321.298V316.958H466.323V321.284C466.323 321.891 466.445 322.339 466.687 322.628C466.939 322.908 467.322 323.048 467.835 323.048C468.433 323.048 468.913 322.857 469.277 322.474C469.641 322.082 469.823 321.564 469.823 320.92V316.958H471.111V324H469.865V322.488L470.033 322.418C469.847 322.969 469.534 323.389 469.095 323.678C468.657 323.958 468.157 324.098 467.597 324.098ZM473.226 324V318.932C473.226 318.605 473.217 318.279 473.198 317.952C473.189 317.616 473.161 317.285 473.114 316.958H474.318L474.444 318.4L474.304 318.484C474.509 317.933 474.836 317.513 475.284 317.224C475.741 316.925 476.264 316.776 476.852 316.776C478.541 316.776 479.386 317.714 479.386 319.59V324H478.112V319.66C478.112 319.025 477.986 318.563 477.734 318.274C477.491 317.975 477.099 317.826 476.558 317.826C475.933 317.826 475.433 318.022 475.06 318.414C474.687 318.797 474.5 319.315 474.5 319.968V324H473.226ZM485.218 324V323.02L488.69 319.212C489.138 318.708 489.464 318.255 489.67 317.854C489.884 317.443 489.992 317.033 489.992 316.622C489.992 316.099 489.838 315.698 489.53 315.418C489.222 315.129 488.788 314.984 488.228 314.984C487.752 314.984 487.28 315.082 486.814 315.278C486.347 315.465 485.885 315.745 485.428 316.118L484.952 315.138C485.344 314.765 485.838 314.471 486.436 314.256C487.042 314.032 487.649 313.92 488.256 313.92C488.881 313.92 489.418 314.027 489.866 314.242C490.314 314.447 490.664 314.751 490.916 315.152C491.168 315.544 491.294 316.011 491.294 316.552C491.294 317.121 491.163 317.667 490.902 318.19C490.65 318.713 490.23 319.301 489.642 319.954L486.352 323.496L486.24 322.922H491.7V324H485.218ZM496.692 324.112C495.544 324.112 494.672 323.683 494.074 322.824C493.477 321.956 493.178 320.687 493.178 319.016C493.178 317.345 493.472 316.081 494.06 315.222C494.658 314.354 495.535 313.92 496.692 313.92C497.85 313.92 498.722 314.354 499.31 315.222C499.908 316.081 500.206 317.341 500.206 319.002C500.206 320.673 499.908 321.942 499.31 322.81C498.713 323.678 497.84 324.112 496.692 324.112ZM496.692 323.048C497.448 323.048 498.004 322.721 498.358 322.068C498.722 321.415 498.904 320.393 498.904 319.002C498.904 317.611 498.722 316.599 498.358 315.964C498.004 315.32 497.448 314.998 496.692 314.998C495.936 314.998 495.376 315.32 495.012 315.964C494.658 316.608 494.48 317.621 494.48 319.002C494.48 320.393 494.658 321.415 495.012 322.068C495.376 322.721 495.936 323.048 496.692 323.048ZM502.007 324V323.02L505.479 319.212C505.927 318.708 506.253 318.255 506.459 317.854C506.673 317.443 506.781 317.033 506.781 316.622C506.781 316.099 506.627 315.698 506.319 315.418C506.011 315.129 505.577 314.984 505.017 314.984C504.541 314.984 504.069 315.082 503.603 315.278C503.136 315.465 502.674 315.745 502.217 316.118L501.741 315.138C502.133 314.765 502.627 314.471 503.225 314.256C503.831 314.032 504.438 313.92 505.045 313.92C505.67 313.92 506.207 314.027 506.655 314.242C507.103 314.447 507.453 314.751 507.705 315.152C507.957 315.544 508.083 316.011 508.083 316.552C508.083 317.121 507.952 317.667 507.691 318.19C507.439 318.713 507.019 319.301 506.431 319.954L503.141 323.496L503.029 322.922H508.489V324H502.007ZM513.481 324.112C512.333 324.112 511.461 323.683 510.863 322.824C510.266 321.956 509.967 320.687 509.967 319.016C509.967 317.345 510.261 316.081 510.849 315.222C511.447 314.354 512.324 313.92 513.481 313.92C514.639 313.92 515.511 314.354 516.099 315.222C516.697 316.081 516.995 317.341 516.995 319.002C516.995 320.673 516.697 321.942 516.099 322.81C515.502 323.678 514.629 324.112 513.481 324.112ZM513.481 323.048C514.237 323.048 514.793 322.721 515.147 322.068C515.511 321.415 515.693 320.393 515.693 319.002C515.693 317.611 515.511 316.599 515.147 315.964C514.793 315.32 514.237 314.998 513.481 314.998C512.725 314.998 512.165 315.32 511.801 315.964C511.447 316.608 511.269 317.621 511.269 319.002C511.269 320.393 511.447 321.415 511.801 322.068C512.165 322.721 512.725 323.048 513.481 323.048Z" fill="#969EAC"/>
<path d="M351.665 324V314.032H352.729L356.705 323.09H356.145L360.093 314.032H361.143V324H359.967V315.796L360.401 315.852L356.859 324H355.963L352.365 315.852L352.841 315.796L352.855 324H351.665ZM366.108 324.098C365.492 324.098 364.946 323.953 364.47 323.664C364.003 323.365 363.639 322.945 363.378 322.404C363.116 321.853 362.986 321.209 362.986 320.472C362.986 319.735 363.116 319.091 363.378 318.54C363.648 317.989 364.017 317.56 364.484 317.252C364.96 316.935 365.501 316.776 366.108 316.776C366.742 316.776 367.284 316.935 367.732 317.252C368.18 317.56 368.483 318.003 368.642 318.582L368.474 318.68V316.958H369.734V324H368.474V322.236L368.642 322.306C368.483 322.875 368.18 323.319 367.732 323.636C367.284 323.944 366.742 324.098 366.108 324.098ZM366.388 323.062C367.06 323.062 367.573 322.838 367.928 322.39C368.292 321.933 368.474 321.284 368.474 320.444C368.474 319.604 368.292 318.96 367.928 318.512C367.564 318.055 367.05 317.826 366.388 317.826C365.725 317.826 365.207 318.059 364.834 318.526C364.46 318.993 364.274 319.641 364.274 320.472C364.274 321.303 364.46 321.942 364.834 322.39C365.207 322.838 365.725 323.062 366.388 323.062ZM371.547 327.178L371.281 326.198C371.71 326.095 372.07 325.974 372.359 325.834C372.658 325.703 372.905 325.531 373.101 325.316C373.297 325.111 373.47 324.835 373.619 324.49L374.081 323.44L374.375 323.02L376.881 316.958H378.155L374.865 324.602C374.613 325.181 374.324 325.643 373.997 325.988C373.67 326.343 373.302 326.609 372.891 326.786C372.49 326.963 372.042 327.094 371.547 327.178ZM374.095 324.392L370.917 316.958H372.247L374.725 323.02L374.095 324.392ZM383.081 324V323.02L386.553 319.212C387.001 318.708 387.328 318.255 387.533 317.854C387.748 317.443 387.855 317.033 387.855 316.622C387.855 316.099 387.701 315.698 387.393 315.418C387.085 315.129 386.651 314.984 386.091 314.984C385.615 314.984 385.144 315.082 384.677 315.278C384.21 315.465 383.748 315.745 383.291 316.118L382.815 315.138C383.207 314.765 383.702 314.471 384.299 314.256C384.906 314.032 385.512 313.92 386.119 313.92C386.744 313.92 387.281 314.027 387.729 314.242C388.177 314.447 388.527 314.751 388.779 315.152C389.031 315.544 389.157 316.011 389.157 316.552C389.157 317.121 389.026 317.667 388.765 318.19C388.513 318.713 388.093 319.301 387.505 319.954L384.215 323.496L384.103 322.922H389.563V324H383.081ZM394.555 324.112C393.407 324.112 392.535 323.683 391.937 322.824C391.34 321.956 391.041 320.687 391.041 319.016C391.041 317.345 391.335 316.081 391.923 315.222C392.521 314.354 393.398 313.92 394.555 313.92C395.713 313.92 396.585 314.354 397.173 315.222C397.771 316.081 398.069 317.341 398.069 319.002C398.069 320.673 397.771 321.942 397.173 322.81C396.576 323.678 395.703 324.112 394.555 324.112ZM394.555 323.048C395.311 323.048 395.867 322.721 396.221 322.068C396.585 321.415 396.767 320.393 396.767 319.002C396.767 317.611 396.585 316.599 396.221 315.964C395.867 315.32 395.311 314.998 394.555 314.998C393.799 314.998 393.239 315.32 392.875 315.964C392.521 316.608 392.343 317.621 392.343 319.002C392.343 320.393 392.521 321.415 392.875 322.068C393.239 322.721 393.799 323.048 394.555 323.048ZM399.87 324V323.02L403.342 319.212C403.79 318.708 404.117 318.255 404.322 317.854C404.537 317.443 404.644 317.033 404.644 316.622C404.644 316.099 404.49 315.698 404.182 315.418C403.874 315.129 403.44 314.984 402.88 314.984C402.404 314.984 401.933 315.082 401.466 315.278C400.999 315.465 400.537 315.745 400.08 316.118L399.604 315.138C399.996 314.765 400.491 314.471 401.088 314.256C401.695 314.032 402.301 313.92 402.908 313.92C403.533 313.92 404.07 314.027 404.518 314.242C404.966 314.447 405.316 314.751 405.568 315.152C405.82 315.544 405.946 316.011 405.946 316.552C405.946 317.121 405.815 317.667 405.554 318.19C405.302 318.713 404.882 319.301 404.294 319.954L401.004 323.496L400.892 322.922H406.352V324H399.87ZM411.345 324.112C410.197 324.112 409.324 323.683 408.727 322.824C408.129 321.956 407.831 320.687 407.831 319.016C407.831 317.345 408.125 316.081 408.713 315.222C409.31 314.354 410.187 313.92 411.345 313.92C412.502 313.92 413.375 314.354 413.963 315.222C414.56 316.081 414.859 317.341 414.859 319.002C414.859 320.673 414.56 321.942 413.963 322.81C413.365 323.678 412.493 324.112 411.345 324.112ZM411.345 323.048C412.101 323.048 412.656 322.721 413.011 322.068C413.375 321.415 413.557 320.393 413.557 319.002C413.557 317.611 413.375 316.599 413.011 315.964C412.656 315.32 412.101 314.998 411.345 314.998C410.589 314.998 410.029 315.32 409.665 315.964C409.31 316.608 409.133 317.621 409.133 319.002C409.133 320.393 409.31 321.415 409.665 322.068C410.029 322.721 410.589 323.048 411.345 323.048Z" fill="#969EAC"/>
<path d="M247.922 324H246.592L251.002 314.032H252.108L256.532 324H255.216L251.352 314.998H251.786L247.922 324ZM248.482 321.494L248.944 320.43H254.152L254.614 321.494H248.482ZM257.782 327.024V318.932C257.782 318.605 257.772 318.279 257.754 317.952C257.744 317.616 257.716 317.285 257.67 316.958H258.874L259 318.4L258.888 318.582C259.046 318.003 259.35 317.56 259.798 317.252C260.246 316.935 260.782 316.776 261.408 316.776C262.024 316.776 262.565 316.935 263.032 317.252C263.508 317.56 263.876 317.989 264.138 318.54C264.408 319.091 264.544 319.735 264.544 320.472C264.544 321.209 264.408 321.853 264.138 322.404C263.876 322.945 263.512 323.365 263.046 323.664C262.579 323.953 262.033 324.098 261.408 324.098C260.782 324.098 260.246 323.944 259.798 323.636C259.35 323.319 259.046 322.875 258.888 322.306L259.056 322.152V327.024H257.782ZM261.142 323.062C261.804 323.062 262.318 322.838 262.682 322.39C263.046 321.942 263.228 321.303 263.228 320.472C263.228 319.641 263.046 318.993 262.682 318.526C262.318 318.059 261.804 317.826 261.142 317.826C260.47 317.826 259.952 318.055 259.588 318.512C259.224 318.96 259.042 319.604 259.042 320.444C259.042 321.284 259.224 321.933 259.588 322.39C259.952 322.838 260.47 323.062 261.142 323.062ZM266.231 324V318.932C266.231 318.605 266.222 318.279 266.203 317.952C266.194 317.616 266.166 317.285 266.119 316.958H267.323L267.477 318.708L267.323 318.652C267.444 318.036 267.72 317.574 268.149 317.266C268.588 316.949 269.078 316.79 269.619 316.79C269.75 316.79 269.866 316.799 269.969 316.818C270.081 316.827 270.184 316.846 270.277 316.874L270.263 318.036C270.03 317.952 269.768 317.91 269.479 317.91C269.003 317.91 268.62 318.013 268.331 318.218C268.042 318.423 267.832 318.685 267.701 319.002C267.57 319.319 267.505 319.66 267.505 320.024V324H266.231ZM275.146 324V323.02L278.618 319.212C279.066 318.708 279.393 318.255 279.598 317.854C279.813 317.443 279.92 317.033 279.92 316.622C279.92 316.099 279.766 315.698 279.458 315.418C279.15 315.129 278.716 314.984 278.156 314.984C277.68 314.984 277.209 315.082 276.742 315.278C276.276 315.465 275.814 315.745 275.356 316.118L274.88 315.138C275.272 314.765 275.767 314.471 276.364 314.256C276.971 314.032 277.578 313.92 278.184 313.92C278.81 313.92 279.346 314.027 279.794 314.242C280.242 314.447 280.592 314.751 280.844 315.152C281.096 315.544 281.222 316.011 281.222 316.552C281.222 317.121 281.092 317.667 280.83 318.19C280.578 318.713 280.158 319.301 279.57 319.954L276.28 323.496L276.168 322.922H281.628V324H275.146ZM286.621 324.112C285.473 324.112 284.6 323.683 284.003 322.824C283.406 321.956 283.107 320.687 283.107 319.016C283.107 317.345 283.401 316.081 283.989 315.222C284.586 314.354 285.464 313.92 286.621 313.92C287.778 313.92 288.651 314.354 289.239 315.222C289.836 316.081 290.135 317.341 290.135 319.002C290.135 320.673 289.836 321.942 289.239 322.81C288.642 323.678 287.769 324.112 286.621 324.112ZM286.621 323.048C287.377 323.048 287.932 322.721 288.287 322.068C288.651 321.415 288.833 320.393 288.833 319.002C288.833 317.611 288.651 316.599 288.287 315.964C287.932 315.32 287.377 314.998 286.621 314.998C285.865 314.998 285.305 315.32 284.941 315.964C284.586 316.608 284.409 317.621 284.409 319.002C284.409 320.393 284.586 321.415 284.941 322.068C285.305 322.721 285.865 323.048 286.621 323.048ZM291.935 324V323.02L295.407 319.212C295.855 318.708 296.182 318.255 296.387 317.854C296.602 317.443 296.709 317.033 296.709 316.622C296.709 316.099 296.555 315.698 296.247 315.418C295.939 315.129 295.505 314.984 294.945 314.984C294.469 314.984 293.998 315.082 293.531 315.278C293.065 315.465 292.603 315.745 292.145 316.118L291.669 315.138C292.061 314.765 292.556 314.471 293.153 314.256C293.76 314.032 294.367 313.92 294.973 313.92C295.599 313.92 296.135 314.027 296.583 314.242C297.031 314.447 297.381 314.751 297.633 315.152C297.885 315.544 298.011 316.011 298.011 316.552C298.011 317.121 297.881 317.667 297.619 318.19C297.367 318.713 296.947 319.301 296.359 319.954L293.069 323.496L292.957 322.922H298.417V324H291.935ZM303.41 324.112C302.262 324.112 301.389 323.683 300.792 322.824C300.195 321.956 299.896 320.687 299.896 319.016C299.896 317.345 300.19 316.081 300.778 315.222C301.375 314.354 302.253 313.92 303.41 313.92C304.567 313.92 305.44 314.354 306.028 315.222C306.625 316.081 306.924 317.341 306.924 319.002C306.924 320.673 306.625 321.942 306.028 322.81C305.431 323.678 304.558 324.112 303.41 324.112ZM303.41 323.048C304.166 323.048 304.721 322.721 305.076 322.068C305.44 321.415 305.622 320.393 305.622 319.002C305.622 317.611 305.44 316.599 305.076 315.964C304.721 315.32 304.166 314.998 303.41 314.998C302.654 314.998 302.094 315.32 301.73 315.964C301.375 316.608 301.198 317.621 301.198 319.002C301.198 320.393 301.375 321.415 301.73 322.068C302.094 322.721 302.654 323.048 303.41 323.048Z" fill="#969EAC"/>
<path d="M140.32 324V314.032H141.384L145.36 323.09H144.8L148.748 314.032H149.798V324H148.622V315.796L149.056 315.852L145.514 324H144.618L141.02 315.852L141.496 315.796L141.51 324H140.32ZM154.763 324.098C154.147 324.098 153.601 323.953 153.125 323.664C152.658 323.365 152.294 322.945 152.033 322.404C151.772 321.853 151.641 321.209 151.641 320.472C151.641 319.735 151.772 319.091 152.033 318.54C152.304 317.989 152.672 317.56 153.139 317.252C153.615 316.935 154.156 316.776 154.763 316.776C155.398 316.776 155.939 316.935 156.387 317.252C156.835 317.56 157.138 318.003 157.297 318.582L157.129 318.68V316.958H158.389V324H157.129V322.236L157.297 322.306C157.138 322.875 156.835 323.319 156.387 323.636C155.939 323.944 155.398 324.098 154.763 324.098ZM155.043 323.062C155.715 323.062 156.228 322.838 156.583 322.39C156.947 321.933 157.129 321.284 157.129 320.444C157.129 319.604 156.947 318.96 156.583 318.512C156.219 318.055 155.706 317.826 155.043 317.826C154.38 317.826 153.862 318.059 153.489 318.526C153.116 318.993 152.929 319.641 152.929 320.472C152.929 321.303 153.116 321.942 153.489 322.39C153.862 322.838 154.38 323.062 155.043 323.062ZM160.51 324V318.932C160.51 318.605 160.501 318.279 160.482 317.952C160.473 317.616 160.445 317.285 160.398 316.958H161.602L161.756 318.708L161.602 318.652C161.724 318.036 161.999 317.574 162.428 317.266C162.867 316.949 163.357 316.79 163.898 316.79C164.029 316.79 164.146 316.799 164.248 316.818C164.36 316.827 164.463 316.846 164.556 316.874L164.542 318.036C164.309 317.952 164.048 317.91 163.758 317.91C163.282 317.91 162.9 318.013 162.61 318.218C162.321 318.423 162.111 318.685 161.98 319.002C161.85 319.319 161.784 319.66 161.784 320.024V324H160.51ZM169.426 324V323.02L172.898 319.212C173.346 318.708 173.672 318.255 173.878 317.854C174.092 317.443 174.2 317.033 174.2 316.622C174.2 316.099 174.046 315.698 173.738 315.418C173.43 315.129 172.996 314.984 172.436 314.984C171.96 314.984 171.488 315.082 171.022 315.278C170.555 315.465 170.093 315.745 169.636 316.118L169.16 315.138C169.552 314.765 170.046 314.471 170.644 314.256C171.25 314.032 171.857 313.92 172.464 313.92C173.089 313.92 173.626 314.027 174.074 314.242C174.522 314.447 174.872 314.751 175.124 315.152C175.376 315.544 175.502 316.011 175.502 316.552C175.502 317.121 175.371 317.667 175.11 318.19C174.858 318.713 174.438 319.301 173.85 319.954L170.56 323.496L170.448 322.922H175.908V324H169.426ZM180.9 324.112C179.752 324.112 178.88 323.683 178.282 322.824C177.685 321.956 177.386 320.687 177.386 319.016C177.386 317.345 177.68 316.081 178.268 315.222C178.866 314.354 179.743 313.92 180.9 313.92C182.058 313.92 182.93 314.354 183.518 315.222C184.116 316.081 184.414 317.341 184.414 319.002C184.414 320.673 184.116 321.942 183.518 322.81C182.921 323.678 182.048 324.112 180.9 324.112ZM180.9 323.048C181.656 323.048 182.212 322.721 182.566 322.068C182.93 321.415 183.112 320.393 183.112 319.002C183.112 317.611 182.93 316.599 182.566 315.964C182.212 315.32 181.656 314.998 180.9 314.998C180.144 314.998 179.584 315.32 179.22 315.964C178.866 316.608 178.688 317.621 178.688 319.002C178.688 320.393 178.866 321.415 179.22 322.068C179.584 322.721 180.144 323.048 180.9 323.048ZM186.215 324V323.02L189.687 319.212C190.135 318.708 190.461 318.255 190.667 317.854C190.881 317.443 190.989 317.033 190.989 316.622C190.989 316.099 190.835 315.698 190.527 315.418C190.219 315.129 189.785 314.984 189.225 314.984C188.749 314.984 188.277 315.082 187.811 315.278C187.344 315.465 186.882 315.745 186.425 316.118L185.949 315.138C186.341 314.765 186.835 314.471 187.433 314.256C188.039 314.032 188.646 313.92 189.253 313.92C189.878 313.92 190.415 314.027 190.863 314.242C191.311 314.447 191.661 314.751 191.913 315.152C192.165 315.544 192.291 316.011 192.291 316.552C192.291 317.121 192.16 317.667 191.899 318.19C191.647 318.713 191.227 319.301 190.639 319.954L187.349 323.496L187.237 322.922H192.697V324H186.215ZM197.689 324.112C196.541 324.112 195.669 323.683 195.071 322.824C194.474 321.956 194.175 320.687 194.175 319.016C194.175 317.345 194.469 316.081 195.057 315.222C195.655 314.354 196.532 313.92 197.689 313.92C198.847 313.92 199.719 314.354 200.307 315.222C200.905 316.081 201.203 317.341 201.203 319.002C201.203 320.673 200.905 321.942 200.307 322.81C199.71 323.678 198.837 324.112 197.689 324.112ZM197.689 323.048C198.445 323.048 199.001 322.721 199.355 322.068C199.719 321.415 199.901 320.393 199.901 319.002C199.901 317.611 199.719 316.599 199.355 315.964C199.001 315.32 198.445 314.998 197.689 314.998C196.933 314.998 196.373 315.32 196.009 315.964C195.655 316.608 195.477 317.621 195.477 319.002C195.477 320.393 195.655 321.415 196.009 322.068C196.373 322.721 196.933 323.048 197.689 323.048Z" fill="#969EAC"/>
<path d="M35.6405 324V314.032H41.8705V315.11H36.9145V318.4H41.5905V319.478H36.9145V324H35.6405ZM49.1038 323.174C48.7958 323.463 48.3992 323.692 47.9138 323.86C47.4285 324.019 46.9338 324.098 46.4298 324.098C45.6925 324.098 45.0578 323.953 44.5258 323.664C43.9938 323.375 43.5832 322.959 43.2938 322.418C43.0045 321.867 42.8598 321.214 42.8598 320.458C42.8598 319.73 42.9998 319.091 43.2798 318.54C43.5692 317.989 43.9658 317.56 44.4698 317.252C44.9738 316.935 45.5525 316.776 46.2058 316.776C46.8405 316.776 47.3818 316.916 47.8298 317.196C48.2872 317.476 48.6325 317.877 48.8658 318.4C49.1085 318.913 49.2298 319.529 49.2298 320.248V320.472H43.9798V319.688H48.5018L48.1098 320.192C48.1285 319.399 47.9745 318.792 47.6478 318.372C47.3212 317.952 46.8452 317.742 46.2198 317.742C45.5665 317.742 45.0532 317.975 44.6798 318.442C44.3158 318.899 44.1338 319.543 44.1338 320.374C44.1338 321.27 44.3298 321.947 44.7218 322.404C45.1138 322.852 45.6925 323.076 46.4578 323.076C46.8685 323.076 47.2605 323.011 47.6338 322.88C48.0072 322.74 48.3618 322.535 48.6978 322.264L49.1038 323.174ZM50.9087 324V313.696H52.1827V318.736L52.0147 318.568C52.1734 318.008 52.4767 317.569 52.9247 317.252C53.3727 316.935 53.9094 316.776 54.5347 316.776C55.1601 316.776 55.7061 316.925 56.1727 317.224C56.6394 317.523 57.0034 317.947 57.2647 318.498C57.5354 319.039 57.6707 319.679 57.6707 320.416C57.6707 321.153 57.5354 321.802 57.2647 322.362C57.0034 322.913 56.6347 323.342 56.1587 323.65C55.6921 323.949 55.1507 324.098 54.5347 324.098C53.9094 324.098 53.3727 323.944 52.9247 323.636C52.4767 323.319 52.1734 322.875 52.0147 322.306L52.1687 322.138V324H50.9087ZM54.2687 323.062C54.9314 323.062 55.4447 322.833 55.8087 322.376C56.1727 321.909 56.3547 321.256 56.3547 320.416C56.3547 319.595 56.1727 318.96 55.8087 318.512C55.4447 318.055 54.9314 317.826 54.2687 317.826C53.5967 317.826 53.0787 318.055 52.7147 318.512C52.3507 318.969 52.1687 319.613 52.1687 320.444C52.1687 321.284 52.3507 321.933 52.7147 322.39C53.0787 322.838 53.5967 323.062 54.2687 323.062ZM63.1054 324V323.02L66.5774 319.212C67.0254 318.708 67.352 318.255 67.5574 317.854C67.772 317.443 67.8794 317.033 67.8794 316.622C67.8794 316.099 67.7254 315.698 67.4174 315.418C67.1094 315.129 66.6754 314.984 66.1154 314.984C65.6394 314.984 65.168 315.082 64.7014 315.278C64.2347 315.465 63.7727 315.745 63.3154 316.118L62.8394 315.138C63.2314 314.765 63.726 314.471 64.3234 314.256C64.93 314.032 65.5367 313.92 66.1434 313.92C66.7687 313.92 67.3054 314.027 67.7534 314.242C68.2014 314.447 68.5514 314.751 68.8034 315.152C69.0554 315.544 69.1814 316.011 69.1814 316.552C69.1814 317.121 69.0507 317.667 68.7894 318.19C68.5374 318.713 68.1174 319.301 67.5294 319.954L64.2394 323.496L64.1274 322.922H69.5874V324H63.1054ZM74.5799 324.112C73.4319 324.112 72.5592 323.683 71.9619 322.824C71.3645 321.956 71.0659 320.687 71.0659 319.016C71.0659 317.345 71.3599 316.081 71.9479 315.222C72.5452 314.354 73.4225 313.92 74.5799 313.92C75.7372 313.92 76.6099 314.354 77.1979 315.222C77.7952 316.081 78.0939 317.341 78.0939 319.002C78.0939 320.673 77.7952 321.942 77.1979 322.81C76.6005 323.678 75.7279 324.112 74.5799 324.112ZM74.5799 323.048C75.3359 323.048 75.8912 322.721 76.2459 322.068C76.6099 321.415 76.7919 320.393 76.7919 319.002C76.7919 317.611 76.6099 316.599 76.2459 315.964C75.8912 315.32 75.3359 314.998 74.5799 314.998C73.8239 314.998 73.2639 315.32 72.8999 315.964C72.5452 316.608 72.3679 317.621 72.3679 319.002C72.3679 320.393 72.5452 321.415 72.8999 322.068C73.2639 322.721 73.8239 323.048 74.5799 323.048ZM79.8944 324V323.02L83.3664 319.212C83.8144 318.708 84.1411 318.255 84.3464 317.854C84.5611 317.443 84.6684 317.033 84.6684 316.622C84.6684 316.099 84.5144 315.698 84.2064 315.418C83.8984 315.129 83.4644 314.984 82.9044 314.984C82.4284 314.984 81.9571 315.082 81.4904 315.278C81.0237 315.465 80.5617 315.745 80.1044 316.118L79.6284 315.138C80.0204 314.765 80.5151 314.471 81.1124 314.256C81.7191 314.032 82.3257 313.92 82.9324 313.92C83.5577 313.92 84.0944 314.027 84.5424 314.242C84.9904 314.447 85.3404 314.751 85.5924 315.152C85.8444 315.544 85.9704 316.011 85.9704 316.552C85.9704 317.121 85.8397 317.667 85.5784 318.19C85.3264 318.713 84.9064 319.301 84.3184 319.954L81.0284 323.496L80.9164 322.922H86.3764V324H79.8944ZM91.3689 324.112C90.2209 324.112 89.3483 323.683 88.7509 322.824C88.1536 321.956 87.8549 320.687 87.8549 319.016C87.8549 317.345 88.1489 316.081 88.7369 315.222C89.3343 314.354 90.2116 313.92 91.3689 313.92C92.5263 313.92 93.3989 314.354 93.9869 315.222C94.5843 316.081 94.8829 317.341 94.8829 319.002C94.8829 320.673 94.5843 321.942 93.9869 322.81C93.3896 323.678 92.5169 324.112 91.3689 324.112ZM91.3689 323.048C92.1249 323.048 92.6803 322.721 93.0349 322.068C93.3989 321.415 93.5809 320.393 93.5809 319.002C93.5809 317.611 93.3989 316.599 93.0349 315.964C92.6803 315.32 92.1249 314.998 91.3689 314.998C90.6129 314.998 90.0529 315.32 89.6889 315.964C89.3343 316.608 89.1569 317.621 89.1569 319.002C89.1569 320.393 89.3343 321.415 89.6889 322.068C90.0529 322.721 90.6129 323.048 91.3689 323.048Z" fill="#969EAC"/>
<path opacity="0.24" d="M44 294.5L828 294.5" stroke="#969EAC"/>
<path opacity="0.1" d="M44 258H828" stroke="#969EAC"/>
<path opacity="0.1" d="M44 222H828" stroke="#969EAC"/>
<path opacity="0.1" d="M44 186H828" stroke="#969EAC"/>
<path opacity="0.1" d="M44 150H828" stroke="#969EAC"/>
<path opacity="0.1" d="M44 114H828" stroke="#969EAC"/>
<path opacity="0.1" d="M44 78H828" stroke="#969EAC"/>
<path opacity="0.1" d="M44 42H828" stroke="#969EAC"/>
<path d="M712 44C712 42.8954 712.895 42 714 42H720C721.105 42 722 42.8954 722 44V294H712V44Z" fill="#D3365F"/>
<path d="M696 270C696 268.895 696.895 268 698 268H704C705.105 268 706 268.895 706 270V294H696V270Z" fill="#235EE7"/>
<path d="M680 206C680 204.895 680.895 204 682 204H688C689.105 204 690 204.895 690 206V294H680V206Z" fill="#29CFD6"/>
<path d="M606 136C606 134.895 606.895 134 608 134H614C615.105 134 616 134.895 616 136V294H606V136Z" fill="#D3365F"/>
<path d="M590 162C590 160.895 590.895 160 592 160H598C599.105 160 600 160.895 600 162V294H590V162Z" fill="#235EE7"/>
<path d="M574 191C574 189.895 574.895 189 576 189H582C583.105 189 584 189.895 584 191V294H574V191Z" fill="#29CFD6"/>
<path d="M500 77C500 75.8954 500.895 75 502 75H508C509.105 75 510 75.8954 510 77V294H500V77Z" fill="#D3365F"/>
<path d="M484 128C484 126.895 484.895 126 486 126H492C493.105 126 494 126.895 494 128V294H484V128Z" fill="#235EE7"/>
<path d="M468 91C468 89.8954 468.895 89 470 89H476C477.105 89 478 89.8954 478 91V294H468V91Z" fill="#29CFD6"/>
<path d="M288 136C288 134.895 288.895 134 290 134H296C297.105 134 298 134.895 298 136V294H288V136Z" fill="#D3365F"/>
<path d="M272 44C272 42.8954 272.895 42 274 42H280C281.105 42 282 42.8954 282 44V294H272V44Z" fill="#235EE7"/>
<path d="M256 270C256 268.895 256.895 268 258 268H264C265.105 268 266 268.895 266 270V294H256V270Z" fill="#29CFD6"/>
<path d="M182 84C182 82.8954 182.895 82 184 82H190C191.105 82 192 82.8954 192 84V294H182V84Z" fill="#D3365F"/>
<path d="M166 116C166 114.895 166.895 114 168 114H174C175.105 114 176 114.895 176 116V294H166V116Z" fill="#235EE7"/>
<path d="M150 178C150 176.895 150.895 176 152 176H158C159.105 176 160 176.895 160 178V294H150V178Z" fill="#29CFD6"/>
<path d="M76 162C76 160.895 76.8954 160 78 160H84C85.1046 160 86 160.895 86 162V294H76V162Z" fill="#D3365F"/>
<path d="M60 206C60 204.895 60.8954 204 62 204H68C69.1046 204 70 204.895 70 206V294H60V206Z" fill="#235EE7"/>
<path d="M44 191C44 189.895 44.8954 189 46 189H52C53.1046 189 54 189.895 54 191V294H44V191Z" fill="#29CFD6"/>
<path d="M394 162C394 160.895 394.895 160 396 160H402C403.105 160 404 160.895 404 162V294H394V162Z" fill="#D3365F"/>
<path d="M378 206C378 204.895 378.895 204 380 204H386C387.105 204 388 204.895 388 206V294H378V206Z" fill="#235EE7"/>
<path d="M362 103C362 101.895 362.895 101 364 101H370C371.105 101 372 101.895 372 103V294H362V103Z" fill="#29CFD6"/>
<circle cx="542" cy="294" r="4" fill="#FAFBFD"/>
<circle cx="542" cy="294" r="3" stroke="#969EAC" stroke-opacity="0.3" stroke-width="2"/>
<g filter="url(#filter1_d)">
<path d="M435 228C435 224.686 437.686 222 441 222H613C616.314 222 619 224.686 619 228V492C619 495.314 616.314 498 613 498H441C437.686 498 435 495.314 435 492V228Z" fill="#081833"/>
</g>
<path d="M482.104 467.488C482.104 468.752 481.648 469.808 480.736 470.656C479.824 471.504 478.616 472 477.112 472.144V474.784H475.768V472.168C474.664 472.12 473.632 471.904 472.672 471.52C471.728 471.136 470.896 470.592 470.176 469.888L470.8 468.712C471.616 469.416 472.416 469.944 473.2 470.296C474 470.632 474.864 470.824 475.792 470.872V464.248C474.688 463.96 473.776 463.664 473.056 463.36C472.336 463.04 471.736 462.576 471.256 461.968C470.776 461.36 470.536 460.552 470.536 459.544C470.536 458.664 470.752 457.872 471.184 457.168C471.632 456.464 472.248 455.904 473.032 455.488C473.832 455.056 474.744 454.808 475.768 454.744V452.128H477.112V454.744C478.056 454.824 478.944 455.056 479.776 455.44C480.624 455.824 481.36 456.328 481.984 456.952L481.36 458.128C480.144 456.912 478.72 456.224 477.088 456.064V463.12C478.16 463.392 479.032 463.68 479.704 463.984C480.392 464.272 480.96 464.696 481.408 465.256C481.872 465.816 482.104 466.56 482.104 467.488ZM472.048 459.544C472.048 460.472 472.368 461.168 473.008 461.632C473.648 462.096 474.576 462.488 475.792 462.808V456.064C474.624 456.144 473.704 456.496 473.032 457.12C472.376 457.728 472.048 458.536 472.048 459.544ZM477.088 470.824C478.208 470.696 479.072 470.344 479.68 469.768C480.288 469.192 480.592 468.424 480.592 467.464C480.592 466.648 480.288 466.04 479.68 465.64C479.088 465.224 478.224 464.864 477.088 464.56V470.824ZM491.215 461.392C492.303 461.392 493.247 461.616 494.047 462.064C494.847 462.512 495.463 463.144 495.895 463.96C496.327 464.776 496.543 465.712 496.543 466.768C496.543 467.824 496.311 468.76 495.847 469.576C495.399 470.392 494.751 471.032 493.903 471.496C493.055 471.944 492.071 472.168 490.951 472.168C489.943 472.168 488.935 471.976 487.927 471.592C486.935 471.192 486.095 470.656 485.407 469.984L486.031 468.808C487.631 470.184 489.279 470.872 490.975 470.872C492.223 470.872 493.207 470.504 493.927 469.768C494.663 469.016 495.031 468.016 495.031 466.768C495.031 465.568 494.671 464.592 493.951 463.84C493.231 463.072 492.287 462.688 491.119 462.688C490.223 462.688 489.439 462.872 488.767 463.24C488.095 463.592 487.511 464.144 487.015 464.896H485.863V454.912H495.895V456.184H487.351V463C487.815 462.488 488.375 462.096 489.031 461.824C489.703 461.536 490.431 461.392 491.215 461.392ZM507.189 463.216C508.197 463.504 508.965 464.008 509.493 464.728C510.021 465.432 510.285 466.32 510.285 467.392C510.285 468.864 509.797 470.032 508.821 470.896C507.861 471.744 506.549 472.168 504.885 472.168C503.797 472.168 502.757 471.976 501.765 471.592C500.773 471.208 499.925 470.672 499.221 469.984L499.845 468.808C500.629 469.496 501.429 470.016 502.245 470.368C503.077 470.704 503.957 470.872 504.885 470.872C506.133 470.872 507.093 470.576 507.765 469.984C508.453 469.376 508.797 468.512 508.797 467.392C508.797 465.12 507.389 463.984 504.573 463.984H502.749V462.664H504.213C505.557 462.664 506.589 462.36 507.309 461.752C508.045 461.128 508.413 460.24 508.413 459.088C508.413 458.112 508.117 457.36 507.525 456.832C506.933 456.288 506.101 456.016 505.029 456.016C503.349 456.016 501.709 456.704 500.109 458.08L499.485 456.904C500.173 456.216 501.005 455.68 501.981 455.296C502.973 454.912 503.997 454.72 505.053 454.72C506.541 454.72 507.725 455.112 508.605 455.896C509.485 456.664 509.925 457.704 509.925 459.016C509.925 460.008 509.677 460.88 509.181 461.632C508.701 462.368 508.037 462.896 507.189 463.216ZM519.996 461.392C521.084 461.392 522.028 461.616 522.828 462.064C523.628 462.512 524.244 463.144 524.676 463.96C525.108 464.776 525.324 465.712 525.324 466.768C525.324 467.824 525.092 468.76 524.628 469.576C524.18 470.392 523.532 471.032 522.684 471.496C521.836 471.944 520.852 472.168 519.732 472.168C518.724 472.168 517.716 471.976 516.708 471.592C515.716 471.192 514.876 470.656 514.188 469.984L514.812 468.808C516.412 470.184 518.06 470.872 519.756 470.872C521.004 470.872 521.988 470.504 522.708 469.768C523.444 469.016 523.812 468.016 523.812 466.768C523.812 465.568 523.452 464.592 522.732 463.84C522.012 463.072 521.068 462.688 519.9 462.688C519.004 462.688 518.22 462.872 517.548 463.24C516.876 463.592 516.292 464.144 515.796 464.896H514.644V454.912H524.676V456.184H516.132V463C516.596 462.488 517.156 462.096 517.812 461.824C518.484 461.536 519.212 461.392 519.996 461.392ZM530.259 469.912V471.448C530.259 472.056 530.163 472.616 529.971 473.128C529.779 473.64 529.459 474.12 529.011 474.568L528.243 473.968C528.787 473.36 529.091 472.704 529.155 472H528.219V469.912H530.259ZM539.083 472.192C537.163 472.192 535.699 471.456 534.691 469.984C533.699 468.496 533.203 466.32 533.203 463.456C533.203 460.592 533.699 458.424 534.691 456.952C535.683 455.464 537.147 454.72 539.083 454.72C541.019 454.72 542.483 455.456 543.475 456.928C544.467 458.4 544.963 460.568 544.963 463.432C544.963 466.296 544.459 468.472 543.451 469.96C542.459 471.448 541.003 472.192 539.083 472.192ZM539.083 470.872C540.555 470.872 541.643 470.272 542.347 469.072C543.067 467.856 543.427 465.976 543.427 463.432C543.427 460.888 543.075 459.024 542.371 457.84C541.667 456.64 540.571 456.04 539.083 456.04C537.611 456.04 536.515 456.64 535.795 457.84C535.091 459.04 534.739 460.904 534.739 463.432C534.739 465.96 535.091 467.832 535.795 469.048C536.515 470.264 537.611 470.872 539.083 470.872ZM553.473 472.192C551.553 472.192 550.089 471.456 549.081 469.984C548.089 468.496 547.593 466.32 547.593 463.456C547.593 460.592 548.089 458.424 549.081 456.952C550.073 455.464 551.537 454.72 553.473 454.72C555.409 454.72 556.873 455.456 557.865 456.928C558.857 458.4 559.353 460.568 559.353 463.432C559.353 466.296 558.849 468.472 557.841 469.96C556.849 471.448 555.393 472.192 553.473 472.192ZM553.473 470.872C554.945 470.872 556.033 470.272 556.737 469.072C557.457 467.856 557.817 465.976 557.817 463.432C557.817 460.888 557.465 459.024 556.761 457.84C556.057 456.64 554.961 456.04 553.473 456.04C552.001 456.04 550.905 456.64 550.185 457.84C549.481 459.04 549.129 460.904 549.129 463.432C549.129 465.96 549.481 467.832 550.185 469.048C550.905 470.264 552.001 470.872 553.473 470.872ZM567.864 472.192C565.944 472.192 564.48 471.456 563.472 469.984C562.48 468.496 561.984 466.32 561.984 463.456C561.984 460.592 562.48 458.424 563.472 456.952C564.464 455.464 565.928 454.72 567.864 454.72C569.8 454.72 571.264 455.456 572.256 456.928C573.248 458.4 573.744 460.568 573.744 463.432C573.744 466.296 573.24 468.472 572.232 469.96C571.24 471.448 569.784 472.192 567.864 472.192ZM567.864 470.872C569.336 470.872 570.424 470.272 571.128 469.072C571.848 467.856 572.208 465.976 572.208 463.432C572.208 460.888 571.856 459.024 571.152 457.84C570.448 456.64 569.352 456.04 567.864 456.04C566.392 456.04 565.296 456.64 564.576 457.84C563.872 459.04 563.52 460.904 563.52 463.432C563.52 465.96 563.872 467.832 564.576 469.048C565.296 470.264 566.392 470.872 567.864 470.872Z" fill="white"/>
<path d="M470.204 444V434.032H471.184L477.4 442.278L477.05 442.376V434.032H478.282V444H477.288L471.086 435.768L471.408 435.656V444H470.204ZM486.361 443.174C486.053 443.463 485.656 443.692 485.171 443.86C484.685 444.019 484.191 444.098 483.687 444.098C482.949 444.098 482.315 443.953 481.783 443.664C481.251 443.375 480.84 442.959 480.551 442.418C480.261 441.867 480.117 441.214 480.117 440.458C480.117 439.73 480.257 439.091 480.537 438.54C480.826 437.989 481.223 437.56 481.727 437.252C482.231 436.935 482.809 436.776 483.463 436.776C484.097 436.776 484.639 436.916 485.087 437.196C485.544 437.476 485.889 437.877 486.123 438.4C486.365 438.913 486.487 439.529 486.487 440.248V440.472H481.237V439.688H485.759L485.367 440.192C485.385 439.399 485.231 438.792 484.905 438.372C484.578 437.952 484.102 437.742 483.477 437.742C482.823 437.742 482.31 437.975 481.937 438.442C481.573 438.899 481.391 439.543 481.391 440.374C481.391 441.27 481.587 441.947 481.979 442.404C482.371 442.852 482.949 443.076 483.715 443.076C484.125 443.076 484.517 443.011 484.891 442.88C485.264 442.74 485.619 442.535 485.955 442.264L486.361 443.174ZM487.145 437.938V436.958H491.765V437.938H487.145ZM491.737 442.894V443.958C491.578 444.005 491.415 444.037 491.247 444.056C491.088 444.084 490.916 444.098 490.729 444.098C490.038 444.098 489.492 443.902 489.091 443.51C488.699 443.118 488.503 442.539 488.503 441.774V435.166L489.777 434.718V441.634C489.777 441.998 489.828 442.283 489.931 442.488C490.043 442.684 490.188 442.824 490.365 442.908C490.552 442.983 490.762 443.02 490.995 443.02C491.126 443.02 491.247 443.011 491.359 442.992C491.471 442.973 491.597 442.941 491.737 442.894ZM499.676 444L496.176 434.032H497.506L500.474 442.838H500.012L503.078 434.032L504.058 434.046L507.054 442.838H506.606L509.63 434.032H510.89L507.404 444H506.312L503.386 435.614H503.694L500.754 444H499.676ZM514.581 444.098C513.899 444.098 513.302 443.949 512.789 443.65C512.285 443.351 511.893 442.931 511.613 442.39C511.333 441.839 511.193 441.191 511.193 440.444C511.193 439.707 511.333 439.063 511.613 438.512C511.893 437.952 512.285 437.523 512.789 437.224C513.302 436.925 513.899 436.776 514.581 436.776C515.271 436.776 515.869 436.925 516.373 437.224C516.877 437.523 517.269 437.952 517.549 438.512C517.829 439.063 517.969 439.707 517.969 440.444C517.969 441.191 517.829 441.839 517.549 442.39C517.269 442.931 516.877 443.351 516.373 443.65C515.869 443.949 515.271 444.098 514.581 444.098ZM514.581 443.062C515.253 443.062 515.771 442.843 516.135 442.404C516.499 441.956 516.681 441.303 516.681 440.444C516.681 439.595 516.494 438.946 516.121 438.498C515.757 438.05 515.243 437.826 514.581 437.826C513.927 437.826 513.414 438.05 513.041 438.498C512.667 438.946 512.481 439.595 512.481 440.444C512.481 441.303 512.663 441.956 513.027 442.404C513.391 442.843 513.909 443.062 514.581 443.062ZM519.693 444V438.932C519.693 438.605 519.684 438.279 519.665 437.952C519.656 437.616 519.628 437.285 519.581 436.958H520.785L520.939 438.708L520.785 438.652C520.906 438.036 521.182 437.574 521.611 437.266C522.05 436.949 522.54 436.79 523.081 436.79C523.212 436.79 523.328 436.799 523.431 436.818C523.543 436.827 523.646 436.846 523.739 436.874L523.725 438.036C523.492 437.952 523.23 437.91 522.941 437.91C522.465 437.91 522.082 438.013 521.793 438.218C521.504 438.423 521.294 438.685 521.163 439.002C521.032 439.319 520.967 439.66 520.967 440.024V444H519.693ZM524.469 437.938V436.958H529.089V437.938H524.469ZM529.061 442.894V443.958C528.902 444.005 528.739 444.037 528.571 444.056C528.412 444.084 528.24 444.098 528.053 444.098C527.362 444.098 526.816 443.902 526.415 443.51C526.023 443.118 525.827 442.539 525.827 441.774V435.166L527.101 434.718V441.634C527.101 441.998 527.152 442.283 527.255 442.488C527.367 442.684 527.512 442.824 527.689 442.908C527.876 442.983 528.086 443.02 528.319 443.02C528.45 443.02 528.571 443.011 528.683 442.992C528.795 442.973 528.921 442.941 529.061 442.894ZM530.439 444V433.696H531.713V438.386L531.517 438.484C531.722 437.933 532.049 437.513 532.497 437.224C532.954 436.925 533.477 436.776 534.065 436.776C535.754 436.776 536.599 437.714 536.599 439.59V444H535.325V439.66C535.325 439.025 535.199 438.563 534.947 438.274C534.704 437.975 534.312 437.826 533.771 437.826C533.146 437.826 532.646 438.022 532.273 438.414C531.9 438.797 531.713 439.315 531.713 439.968V444H530.439Z" fill="white"/>
<rect x="447" y="434" width="10" height="10" rx="2" fill="#534CEA"/>
<path d="M482.104 403.488C482.104 404.752 481.648 405.808 480.736 406.656C479.824 407.504 478.616 408 477.112 408.144V410.784H475.768V408.168C474.664 408.12 473.632 407.904 472.672 407.52C471.728 407.136 470.896 406.592 470.176 405.888L470.8 404.712C471.616 405.416 472.416 405.944 473.2 406.296C474 406.632 474.864 406.824 475.792 406.872V400.248C474.688 399.96 473.776 399.664 473.056 399.36C472.336 399.04 471.736 398.576 471.256 397.968C470.776 397.36 470.536 396.552 470.536 395.544C470.536 394.664 470.752 393.872 471.184 393.168C471.632 392.464 472.248 391.904 473.032 391.488C473.832 391.056 474.744 390.808 475.768 390.744V388.128H477.112V390.744C478.056 390.824 478.944 391.056 479.776 391.44C480.624 391.824 481.36 392.328 481.984 392.952L481.36 394.128C480.144 392.912 478.72 392.224 477.088 392.064V399.12C478.16 399.392 479.032 399.68 479.704 399.984C480.392 400.272 480.96 400.696 481.408 401.256C481.872 401.816 482.104 402.56 482.104 403.488ZM472.048 395.544C472.048 396.472 472.368 397.168 473.008 397.632C473.648 398.096 474.576 398.488 475.792 398.808V392.064C474.624 392.144 473.704 392.496 473.032 393.12C472.376 393.728 472.048 394.536 472.048 395.544ZM477.088 406.824C478.208 406.696 479.072 406.344 479.68 405.768C480.288 405.192 480.592 404.424 480.592 403.464C480.592 402.648 480.288 402.04 479.68 401.64C479.088 401.224 478.224 400.864 477.088 400.56V406.824ZM495.679 406.704V408H486.631V406.704H490.423V392.88L486.895 395.16V393.648L491.071 390.912H491.911V406.704H495.679ZM501.477 405.912V407.448C501.477 408.056 501.381 408.616 501.189 409.128C500.997 409.64 500.677 410.12 500.229 410.568L499.461 409.968C500.005 409.36 500.309 408.704 500.373 408H499.437V405.912H501.477ZM510.926 397.392C512.014 397.392 512.958 397.616 513.758 398.064C514.558 398.512 515.174 399.144 515.606 399.96C516.038 400.776 516.254 401.712 516.254 402.768C516.254 403.824 516.022 404.76 515.558 405.576C515.11 406.392 514.462 407.032 513.614 407.496C512.766 407.944 511.782 408.168 510.662 408.168C509.654 408.168 508.646 407.976 507.638 407.592C506.646 407.192 505.806 406.656 505.118 405.984L505.742 404.808C507.342 406.184 508.99 406.872 510.686 406.872C511.934 406.872 512.918 406.504 513.638 405.768C514.374 405.016 514.742 404.016 514.742 402.768C514.742 401.568 514.382 400.592 513.662 399.84C512.942 399.072 511.998 398.688 510.83 398.688C509.934 398.688 509.15 398.872 508.478 399.24C507.806 399.592 507.222 400.144 506.726 400.896H505.574V390.912H515.606V392.184H507.062V399C507.526 398.488 508.086 398.096 508.742 397.824C509.414 397.536 510.142 397.392 510.926 397.392ZM524.692 408.192C522.772 408.192 521.308 407.456 520.3 405.984C519.308 404.496 518.812 402.32 518.812 399.456C518.812 396.592 519.308 394.424 520.3 392.952C521.292 391.464 522.756 390.72 524.692 390.72C526.628 390.72 528.092 391.456 529.084 392.928C530.076 394.4 530.572 396.568 530.572 399.432C530.572 402.296 530.068 404.472 529.06 405.96C528.068 407.448 526.612 408.192 524.692 408.192ZM524.692 406.872C526.164 406.872 527.252 406.272 527.956 405.072C528.676 403.856 529.036 401.976 529.036 399.432C529.036 396.888 528.684 395.024 527.98 393.84C527.276 392.64 526.18 392.04 524.692 392.04C523.22 392.04 522.124 392.64 521.404 393.84C520.7 395.04 520.348 396.904 520.348 399.432C520.348 401.96 520.7 403.832 521.404 405.048C522.124 406.264 523.22 406.872 524.692 406.872ZM539.707 397.392C540.795 397.392 541.739 397.616 542.539 398.064C543.339 398.512 543.955 399.144 544.387 399.96C544.819 400.776 545.035 401.712 545.035 402.768C545.035 403.824 544.803 404.76 544.339 405.576C543.891 406.392 543.243 407.032 542.395 407.496C541.547 407.944 540.563 408.168 539.443 408.168C538.435 408.168 537.427 407.976 536.419 407.592C535.427 407.192 534.587 406.656 533.899 405.984L534.523 404.808C536.123 406.184 537.771 406.872 539.467 406.872C540.715 406.872 541.699 406.504 542.419 405.768C543.155 405.016 543.523 404.016 543.523 402.768C543.523 401.568 543.163 400.592 542.443 399.84C541.723 399.072 540.779 398.688 539.611 398.688C538.715 398.688 537.931 398.872 537.259 399.24C536.587 399.592 536.003 400.144 535.507 400.896H534.355V390.912H544.387V392.184H535.843V399C536.307 398.488 536.867 398.096 537.523 397.824C538.195 397.536 538.923 397.392 539.707 397.392ZM549.969 405.912V407.448C549.969 408.056 549.873 408.616 549.681 409.128C549.489 409.64 549.169 410.12 548.721 410.568L547.953 409.968C548.497 409.36 548.801 408.704 548.865 408H547.929V405.912H549.969ZM558.794 408.192C556.874 408.192 555.41 407.456 554.402 405.984C553.41 404.496 552.914 402.32 552.914 399.456C552.914 396.592 553.41 394.424 554.402 392.952C555.394 391.464 556.858 390.72 558.794 390.72C560.73 390.72 562.194 391.456 563.186 392.928C564.178 394.4 564.674 396.568 564.674 399.432C564.674 402.296 564.17 404.472 563.162 405.96C562.17 407.448 560.714 408.192 558.794 408.192ZM558.794 406.872C560.266 406.872 561.354 406.272 562.058 405.072C562.778 403.856 563.138 401.976 563.138 399.432C563.138 396.888 562.786 395.024 562.082 393.84C561.378 392.64 560.282 392.04 558.794 392.04C557.322 392.04 556.226 392.64 555.506 393.84C554.802 395.04 554.45 396.904 554.45 399.432C554.45 401.96 554.802 403.832 555.506 405.048C556.226 406.264 557.322 406.872 558.794 406.872ZM573.184 408.192C571.264 408.192 569.8 407.456 568.792 405.984C567.8 404.496 567.304 402.32 567.304 399.456C567.304 396.592 567.8 394.424 568.792 392.952C569.784 391.464 571.248 390.72 573.184 390.72C575.12 390.72 576.584 391.456 577.576 392.928C578.568 394.4 579.064 396.568 579.064 399.432C579.064 402.296 578.56 404.472 577.552 405.96C576.56 407.448 575.104 408.192 573.184 408.192ZM573.184 406.872C574.656 406.872 575.744 406.272 576.448 405.072C577.168 403.856 577.528 401.976 577.528 399.432C577.528 396.888 577.176 395.024 576.472 393.84C575.768 392.64 574.672 392.04 573.184 392.04C571.712 392.04 570.616 392.64 569.896 393.84C569.192 395.04 568.84 396.904 568.84 399.432C568.84 401.96 569.192 403.832 569.896 405.048C570.616 406.264 571.712 406.872 573.184 406.872ZM587.575 408.192C585.655 408.192 584.191 407.456 583.183 405.984C582.191 404.496 581.695 402.32 581.695 399.456C581.695 396.592 582.191 394.424 583.183 392.952C584.175 391.464 585.639 390.72 587.575 390.72C589.511 390.72 590.975 391.456 591.967 392.928C592.959 394.4 593.455 396.568 593.455 399.432C593.455 402.296 592.951 404.472 591.943 405.96C590.951 407.448 589.495 408.192 587.575 408.192ZM587.575 406.872C589.047 406.872 590.135 406.272 590.839 405.072C591.559 403.856 591.919 401.976 591.919 399.432C591.919 396.888 591.567 395.024 590.863 393.84C590.159 392.64 589.063 392.04 587.575 392.04C586.103 392.04 585.007 392.64 584.287 393.84C583.583 395.04 583.231 396.904 583.231 399.432C583.231 401.96 583.583 403.832 584.287 405.048C585.007 406.264 586.103 406.872 587.575 406.872Z" fill="white"/>
<path d="M470.204 380V370.032H471.492V378.908H476.42V380H470.204ZM477.734 380V372.958H479.008V380H477.734ZM477.622 369.92H479.12V371.306H477.622V369.92ZM483.84 380.098C483.224 380.098 482.678 379.953 482.202 379.664C481.736 379.365 481.372 378.945 481.11 378.404C480.849 377.853 480.718 377.209 480.718 376.472C480.718 375.735 480.849 375.091 481.11 374.54C481.381 373.989 481.75 373.56 482.216 373.252C482.692 372.935 483.234 372.776 483.84 372.776C484.475 372.776 485.016 372.935 485.464 373.252C485.912 373.56 486.216 374.003 486.374 374.582L486.206 374.68V372.958H487.466V380H486.206V378.236L486.374 378.306C486.216 378.875 485.912 379.319 485.464 379.636C485.016 379.944 484.475 380.098 483.84 380.098ZM484.12 379.062C484.792 379.062 485.306 378.838 485.66 378.39C486.024 377.933 486.206 377.284 486.206 376.444C486.206 375.604 486.024 374.96 485.66 374.512C485.296 374.055 484.783 373.826 484.12 373.826C483.458 373.826 482.94 374.059 482.566 374.526C482.193 374.993 482.006 375.641 482.006 376.472C482.006 377.303 482.193 377.942 482.566 378.39C482.94 378.838 483.458 379.062 484.12 379.062ZM489.587 380V369.696H490.861V374.736L490.693 374.568C490.852 374.008 491.155 373.569 491.603 373.252C492.051 372.935 492.588 372.776 493.213 372.776C493.839 372.776 494.385 372.925 494.851 373.224C495.318 373.523 495.682 373.947 495.943 374.498C496.214 375.039 496.349 375.679 496.349 376.416C496.349 377.153 496.214 377.802 495.943 378.362C495.682 378.913 495.313 379.342 494.837 379.65C494.371 379.949 493.829 380.098 493.213 380.098C492.588 380.098 492.051 379.944 491.603 379.636C491.155 379.319 490.852 378.875 490.693 378.306L490.847 378.138V380H489.587ZM492.947 379.062C493.61 379.062 494.123 378.833 494.487 378.376C494.851 377.909 495.033 377.256 495.033 376.416C495.033 375.595 494.851 374.96 494.487 374.512C494.123 374.055 493.61 373.826 492.947 373.826C492.275 373.826 491.757 374.055 491.393 374.512C491.029 374.969 490.847 375.613 490.847 376.444C490.847 377.284 491.029 377.933 491.393 378.39C491.757 378.838 492.275 379.062 492.947 379.062ZM498.037 380V372.958H499.311V380H498.037ZM497.925 369.92H499.423V371.306H497.925V369.92ZM501.441 380V369.696H502.715V380H501.441ZM504.845 380V372.958H506.119V380H504.845ZM504.733 369.92H506.231V371.306H504.733V369.92ZM507.284 373.938V372.958H511.904V373.938H507.284ZM511.876 378.894V379.958C511.717 380.005 511.554 380.037 511.386 380.056C511.227 380.084 511.054 380.098 510.868 380.098C510.177 380.098 509.631 379.902 509.23 379.51C508.838 379.118 508.642 378.539 508.642 377.774V371.166L509.916 370.718V377.634C509.916 377.998 509.967 378.283 510.07 378.488C510.182 378.684 510.326 378.824 510.504 378.908C510.69 378.983 510.9 379.02 511.134 379.02C511.264 379.02 511.386 379.011 511.498 378.992C511.61 378.973 511.736 378.941 511.876 378.894ZM513.253 380V372.958H514.527V380H513.253ZM513.141 369.92H514.639V371.306H513.141V369.92ZM522.482 379.174C522.174 379.463 521.777 379.692 521.292 379.86C520.806 380.019 520.312 380.098 519.808 380.098C519.07 380.098 518.436 379.953 517.904 379.664C517.372 379.375 516.961 378.959 516.672 378.418C516.382 377.867 516.238 377.214 516.238 376.458C516.238 375.73 516.378 375.091 516.658 374.54C516.947 373.989 517.344 373.56 517.848 373.252C518.352 372.935 518.93 372.776 519.584 372.776C520.218 372.776 520.76 372.916 521.208 373.196C521.665 373.476 522.01 373.877 522.244 374.4C522.486 374.913 522.608 375.529 522.608 376.248V376.472H517.358V375.688H521.88L521.488 376.192C521.506 375.399 521.352 374.792 521.026 374.372C520.699 373.952 520.223 373.742 519.598 373.742C518.944 373.742 518.431 373.975 518.058 374.442C517.694 374.899 517.512 375.543 517.512 376.374C517.512 377.27 517.708 377.947 518.1 378.404C518.492 378.852 519.07 379.076 519.836 379.076C520.246 379.076 520.638 379.011 521.012 378.88C521.385 378.74 521.74 378.535 522.076 378.264L522.482 379.174ZM526.709 380.098C525.505 380.098 524.548 379.795 523.839 379.188L524.245 378.264C524.618 378.553 525.005 378.768 525.407 378.908C525.817 379.039 526.265 379.104 526.751 379.104C527.255 379.104 527.637 379.02 527.899 378.852C528.169 378.675 528.305 378.423 528.305 378.096C528.305 377.835 528.211 377.629 528.025 377.48C527.847 377.321 527.549 377.191 527.129 377.088L525.953 376.808C525.346 376.677 524.879 376.444 524.553 376.108C524.235 375.772 524.077 375.366 524.077 374.89C524.077 374.479 524.189 374.115 524.413 373.798C524.646 373.481 524.968 373.233 525.379 373.056C525.789 372.869 526.275 372.776 526.835 372.776C527.329 372.776 527.796 372.855 528.235 373.014C528.683 373.173 529.061 373.401 529.369 373.7L528.963 374.61C528.627 374.33 528.281 374.125 527.927 373.994C527.572 373.854 527.203 373.784 526.821 373.784C526.345 373.784 525.971 373.877 525.701 374.064C525.439 374.251 525.309 374.503 525.309 374.82C525.309 375.091 525.393 375.305 525.561 375.464C525.729 375.623 525.995 375.749 526.359 375.842L527.549 376.136C528.221 376.276 528.715 376.509 529.033 376.836C529.35 377.153 529.509 377.564 529.509 378.068C529.509 378.684 529.257 379.179 528.753 379.552C528.249 379.916 527.567 380.098 526.709 380.098Z" fill="white"/>
<rect x="447" y="370" width="10" height="10" rx="2" fill="#D3365F"/>
<path d="M482.104 339.488C482.104 340.752 481.648 341.808 480.736 342.656C479.824 343.504 478.616 344 477.112 344.144V346.784H475.768V344.168C474.664 344.12 473.632 343.904 472.672 343.52C471.728 343.136 470.896 342.592 470.176 341.888L470.8 340.712C471.616 341.416 472.416 341.944 473.2 342.296C474 342.632 474.864 342.824 475.792 342.872V336.248C474.688 335.96 473.776 335.664 473.056 335.36C472.336 335.04 471.736 334.576 471.256 333.968C470.776 333.36 470.536 332.552 470.536 331.544C470.536 330.664 470.752 329.872 471.184 329.168C471.632 328.464 472.248 327.904 473.032 327.488C473.832 327.056 474.744 326.808 475.768 326.744V324.128H477.112V326.744C478.056 326.824 478.944 327.056 479.776 327.44C480.624 327.824 481.36 328.328 481.984 328.952L481.36 330.128C480.144 328.912 478.72 328.224 477.088 328.064V335.12C478.16 335.392 479.032 335.68 479.704 335.984C480.392 336.272 480.96 336.696 481.408 337.256C481.872 337.816 482.104 338.56 482.104 339.488ZM472.048 331.544C472.048 332.472 472.368 333.168 473.008 333.632C473.648 334.096 474.576 334.488 475.792 334.808V328.064C474.624 328.144 473.704 328.496 473.032 329.12C472.376 329.728 472.048 330.536 472.048 331.544ZM477.088 342.824C478.208 342.696 479.072 342.344 479.68 341.768C480.288 341.192 480.592 340.424 480.592 339.464C480.592 338.648 480.288 338.04 479.68 337.64C479.088 337.224 478.224 336.864 477.088 336.56V342.824ZM496.087 326.912V328.016L487.975 344H486.367L494.431 328.208H485.095V326.912H496.087ZM507.189 335.216C508.197 335.504 508.965 336.008 509.493 336.728C510.021 337.432 510.285 338.32 510.285 339.392C510.285 340.864 509.797 342.032 508.821 342.896C507.861 343.744 506.549 344.168 504.885 344.168C503.797 344.168 502.757 343.976 501.765 343.592C500.773 343.208 499.925 342.672 499.221 341.984L499.845 340.808C500.629 341.496 501.429 342.016 502.245 342.368C503.077 342.704 503.957 342.872 504.885 342.872C506.133 342.872 507.093 342.576 507.765 341.984C508.453 341.376 508.797 340.512 508.797 339.392C508.797 337.12 507.389 335.984 504.573 335.984H502.749V334.664H504.213C505.557 334.664 506.589 334.36 507.309 333.752C508.045 333.128 508.413 332.24 508.413 331.088C508.413 330.112 508.117 329.36 507.525 328.832C506.933 328.288 506.101 328.016 505.029 328.016C503.349 328.016 501.709 328.704 500.109 330.08L499.485 328.904C500.173 328.216 501.005 327.68 501.981 327.296C502.973 326.912 503.997 326.72 505.053 326.72C506.541 326.72 507.725 327.112 508.605 327.896C509.485 328.664 509.925 329.704 509.925 331.016C509.925 332.008 509.677 332.88 509.181 333.632C508.701 334.368 508.037 334.896 507.189 335.216ZM519.996 333.392C521.084 333.392 522.028 333.616 522.828 334.064C523.628 334.512 524.244 335.144 524.676 335.96C525.108 336.776 525.324 337.712 525.324 338.768C525.324 339.824 525.092 340.76 524.628 341.576C524.18 342.392 523.532 343.032 522.684 343.496C521.836 343.944 520.852 344.168 519.732 344.168C518.724 344.168 517.716 343.976 516.708 343.592C515.716 343.192 514.876 342.656 514.188 341.984L514.812 340.808C516.412 342.184 518.06 342.872 519.756 342.872C521.004 342.872 521.988 342.504 522.708 341.768C523.444 341.016 523.812 340.016 523.812 338.768C523.812 337.568 523.452 336.592 522.732 335.84C522.012 335.072 521.068 334.688 519.9 334.688C519.004 334.688 518.22 334.872 517.548 335.24C516.876 335.592 516.292 336.144 515.796 336.896H514.644V326.912H524.676V328.184H516.132V335C516.596 334.488 517.156 334.096 517.812 333.824C518.484 333.536 519.212 333.392 519.996 333.392ZM530.259 341.912V343.448C530.259 344.056 530.163 344.616 529.971 345.128C529.779 345.64 529.459 346.12 529.011 346.568L528.243 345.968C528.787 345.36 529.091 344.704 529.155 344H528.219V341.912H530.259ZM539.083 344.192C537.163 344.192 535.699 343.456 534.691 341.984C533.699 340.496 533.203 338.32 533.203 335.456C533.203 332.592 533.699 330.424 534.691 328.952C535.683 327.464 537.147 326.72 539.083 326.72C541.019 326.72 542.483 327.456 543.475 328.928C544.467 330.4 544.963 332.568 544.963 335.432C544.963 338.296 544.459 340.472 543.451 341.96C542.459 343.448 541.003 344.192 539.083 344.192ZM539.083 342.872C540.555 342.872 541.643 342.272 542.347 341.072C543.067 339.856 543.427 337.976 543.427 335.432C543.427 332.888 543.075 331.024 542.371 329.84C541.667 328.64 540.571 328.04 539.083 328.04C537.611 328.04 536.515 328.64 535.795 329.84C535.091 331.04 534.739 332.904 534.739 335.432C534.739 337.96 535.091 339.832 535.795 341.048C536.515 342.264 537.611 342.872 539.083 342.872ZM553.473 344.192C551.553 344.192 550.089 343.456 549.081 341.984C548.089 340.496 547.593 338.32 547.593 335.456C547.593 332.592 548.089 330.424 549.081 328.952C550.073 327.464 551.537 326.72 553.473 326.72C555.409 326.72 556.873 327.456 557.865 328.928C558.857 330.4 559.353 332.568 559.353 335.432C559.353 338.296 558.849 340.472 557.841 341.96C556.849 343.448 555.393 344.192 553.473 344.192ZM553.473 342.872C554.945 342.872 556.033 342.272 556.737 341.072C557.457 339.856 557.817 337.976 557.817 335.432C557.817 332.888 557.465 331.024 556.761 329.84C556.057 328.64 554.961 328.04 553.473 328.04C552.001 328.04 550.905 328.64 550.185 329.84C549.481 331.04 549.129 332.904 549.129 335.432C549.129 337.96 549.481 339.832 550.185 341.048C550.905 342.264 552.001 342.872 553.473 342.872ZM567.864 344.192C565.944 344.192 564.48 343.456 563.472 341.984C562.48 340.496 561.984 338.32 561.984 335.456C561.984 332.592 562.48 330.424 563.472 328.952C564.464 327.464 565.928 326.72 567.864 326.72C569.8 326.72 571.264 327.456 572.256 328.928C573.248 330.4 573.744 332.568 573.744 335.432C573.744 338.296 573.24 340.472 572.232 341.96C571.24 343.448 569.784 344.192 567.864 344.192ZM567.864 342.872C569.336 342.872 570.424 342.272 571.128 341.072C571.848 339.856 572.208 337.976 572.208 335.432C572.208 332.888 571.856 331.024 571.152 329.84C570.448 328.64 569.352 328.04 567.864 328.04C566.392 328.04 565.296 328.64 564.576 329.84C563.872 331.04 563.52 332.904 563.52 335.432C563.52 337.96 563.872 339.832 564.576 341.048C565.296 342.264 566.392 342.872 567.864 342.872Z" fill="white"/>
<path d="M474.432 316.112C473.489 316.112 472.673 315.907 471.982 315.496C471.301 315.085 470.773 314.497 470.4 313.732C470.027 312.967 469.84 312.061 469.84 311.016C469.84 309.961 470.022 309.056 470.386 308.3C470.759 307.535 471.287 306.947 471.968 306.536C472.659 306.125 473.48 305.92 474.432 305.92C475.375 305.92 476.187 306.125 476.868 306.536C477.559 306.947 478.086 307.535 478.45 308.3C478.823 309.056 479.01 309.957 479.01 311.002C479.01 312.057 478.823 312.967 478.45 313.732C478.077 314.497 477.549 315.085 476.868 315.496C476.187 315.907 475.375 316.112 474.432 316.112ZM474.432 315.034C475.449 315.034 476.243 314.689 476.812 313.998C477.391 313.298 477.68 312.299 477.68 311.002C477.68 309.705 477.391 308.715 476.812 308.034C476.243 307.343 475.449 306.998 474.432 306.998C473.405 306.998 472.603 307.343 472.024 308.034C471.455 308.725 471.17 309.714 471.17 311.002C471.17 312.29 471.455 313.284 472.024 313.984C472.603 314.684 473.405 315.034 474.432 315.034ZM479.953 309.938V308.958H484.573V309.938H479.953ZM484.545 314.894V315.958C484.387 316.005 484.223 316.037 484.055 316.056C483.897 316.084 483.724 316.098 483.537 316.098C482.847 316.098 482.301 315.902 481.899 315.51C481.507 315.118 481.311 314.539 481.311 313.774V307.166L482.585 306.718V313.634C482.585 313.998 482.637 314.283 482.739 314.488C482.851 314.684 482.996 314.824 483.173 314.908C483.36 314.983 483.57 315.02 483.803 315.02C483.934 315.02 484.055 315.011 484.167 314.992C484.279 314.973 484.405 314.941 484.545 314.894ZM485.923 316V305.696H487.197V310.386L487.001 310.484C487.207 309.933 487.533 309.513 487.981 309.224C488.439 308.925 488.961 308.776 489.549 308.776C491.239 308.776 492.083 309.714 492.083 311.59V316H490.809V311.66C490.809 311.025 490.683 310.563 490.431 310.274C490.189 309.975 489.797 309.826 489.255 309.826C488.63 309.826 488.131 310.022 487.757 310.414C487.384 310.797 487.197 311.315 487.197 311.968V316H485.923ZM499.992 315.174C499.684 315.463 499.287 315.692 498.802 315.86C498.316 316.019 497.822 316.098 497.318 316.098C496.58 316.098 495.946 315.953 495.414 315.664C494.882 315.375 494.471 314.959 494.182 314.418C493.892 313.867 493.748 313.214 493.748 312.458C493.748 311.73 493.888 311.091 494.168 310.54C494.457 309.989 494.854 309.56 495.358 309.252C495.862 308.935 496.44 308.776 497.094 308.776C497.728 308.776 498.27 308.916 498.718 309.196C499.175 309.476 499.52 309.877 499.754 310.4C499.996 310.913 500.118 311.529 500.118 312.248V312.472H494.868V311.688H499.39L498.998 312.192C499.016 311.399 498.862 310.792 498.536 310.372C498.209 309.952 497.733 309.742 497.108 309.742C496.454 309.742 495.941 309.975 495.568 310.442C495.204 310.899 495.022 311.543 495.022 312.374C495.022 313.27 495.218 313.947 495.61 314.404C496.002 314.852 496.58 315.076 497.346 315.076C497.756 315.076 498.148 315.011 498.522 314.88C498.895 314.74 499.25 314.535 499.586 314.264L499.992 315.174ZM501.796 316V310.932C501.796 310.605 501.787 310.279 501.768 309.952C501.759 309.616 501.731 309.285 501.684 308.958H502.888L503.042 310.708L502.888 310.652C503.01 310.036 503.285 309.574 503.714 309.266C504.153 308.949 504.643 308.79 505.184 308.79C505.315 308.79 505.432 308.799 505.534 308.818C505.646 308.827 505.749 308.846 505.842 308.874L505.828 310.036C505.595 309.952 505.334 309.91 505.044 309.91C504.568 309.91 504.186 310.013 503.896 310.218C503.607 310.423 503.397 310.685 503.266 311.002C503.136 311.319 503.07 311.66 503.07 312.024V316H501.796ZM511.118 316H509.788L514.198 306.032H515.304L519.728 316H518.412L514.548 306.998H514.982L511.118 316ZM511.678 313.494L512.14 312.43H517.348L517.81 313.494H511.678ZM523.318 316.098C522.114 316.098 521.157 315.795 520.448 315.188L520.854 314.264C521.227 314.553 521.615 314.768 522.016 314.908C522.427 315.039 522.875 315.104 523.36 315.104C523.864 315.104 524.247 315.02 524.508 314.852C524.779 314.675 524.914 314.423 524.914 314.096C524.914 313.835 524.821 313.629 524.634 313.48C524.457 313.321 524.158 313.191 523.738 313.088L522.562 312.808C521.955 312.677 521.489 312.444 521.162 312.108C520.845 311.772 520.686 311.366 520.686 310.89C520.686 310.479 520.798 310.115 521.022 309.798C521.255 309.481 521.577 309.233 521.988 309.056C522.399 308.869 522.884 308.776 523.444 308.776C523.939 308.776 524.405 308.855 524.844 309.014C525.292 309.173 525.67 309.401 525.978 309.7L525.572 310.61C525.236 310.33 524.891 310.125 524.536 309.994C524.181 309.854 523.813 309.784 523.43 309.784C522.954 309.784 522.581 309.877 522.31 310.064C522.049 310.251 521.918 310.503 521.918 310.82C521.918 311.091 522.002 311.305 522.17 311.464C522.338 311.623 522.604 311.749 522.968 311.842L524.158 312.136C524.83 312.276 525.325 312.509 525.642 312.836C525.959 313.153 526.118 313.564 526.118 314.068C526.118 314.684 525.866 315.179 525.362 315.552C524.858 315.916 524.177 316.098 523.318 316.098ZM530.277 316.098C529.073 316.098 528.116 315.795 527.407 315.188L527.813 314.264C528.186 314.553 528.574 314.768 528.975 314.908C529.386 315.039 529.834 315.104 530.319 315.104C530.823 315.104 531.206 315.02 531.467 314.852C531.738 314.675 531.873 314.423 531.873 314.096C531.873 313.835 531.78 313.629 531.593 313.48C531.416 313.321 531.117 313.191 530.697 313.088L529.521 312.808C528.914 312.677 528.448 312.444 528.121 312.108C527.804 311.772 527.645 311.366 527.645 310.89C527.645 310.479 527.757 310.115 527.981 309.798C528.214 309.481 528.536 309.233 528.947 309.056C529.358 308.869 529.843 308.776 530.403 308.776C530.898 308.776 531.364 308.855 531.803 309.014C532.251 309.173 532.629 309.401 532.937 309.7L532.531 310.61C532.195 310.33 531.85 310.125 531.495 309.994C531.14 309.854 530.772 309.784 530.389 309.784C529.913 309.784 529.54 309.877 529.269 310.064C529.008 310.251 528.877 310.503 528.877 310.82C528.877 311.091 528.961 311.305 529.129 311.464C529.297 311.623 529.563 311.749 529.927 311.842L531.117 312.136C531.789 312.276 532.284 312.509 532.601 312.836C532.918 313.153 533.077 313.564 533.077 314.068C533.077 314.684 532.825 315.179 532.321 315.552C531.817 315.916 531.136 316.098 530.277 316.098ZM540.638 315.174C540.33 315.463 539.933 315.692 539.448 315.86C538.963 316.019 538.468 316.098 537.964 316.098C537.227 316.098 536.592 315.953 536.06 315.664C535.528 315.375 535.117 314.959 534.828 314.418C534.539 313.867 534.394 313.214 534.394 312.458C534.394 311.73 534.534 311.091 534.814 310.54C535.103 309.989 535.5 309.56 536.004 309.252C536.508 308.935 537.087 308.776 537.74 308.776C538.375 308.776 538.916 308.916 539.364 309.196C539.821 309.476 540.167 309.877 540.4 310.4C540.643 310.913 540.764 311.529 540.764 312.248V312.472H535.514V311.688H540.036L539.644 312.192C539.663 311.399 539.509 310.792 539.182 310.372C538.855 309.952 538.379 309.742 537.754 309.742C537.101 309.742 536.587 309.975 536.214 310.442C535.85 310.899 535.668 311.543 535.668 312.374C535.668 313.27 535.864 313.947 536.256 314.404C536.648 314.852 537.227 315.076 537.992 315.076C538.403 315.076 538.795 315.011 539.168 314.88C539.541 314.74 539.896 314.535 540.232 314.264L540.638 315.174ZM541.422 309.938V308.958H546.042V309.938H541.422ZM546.014 314.894V315.958C545.856 316.005 545.692 316.037 545.524 316.056C545.366 316.084 545.193 316.098 545.006 316.098C544.316 316.098 543.77 315.902 543.368 315.51C542.976 315.118 542.78 314.539 542.78 313.774V307.166L544.054 306.718V313.634C544.054 313.998 544.106 314.283 544.208 314.488C544.32 314.684 544.465 314.824 544.642 314.908C544.829 314.983 545.039 315.02 545.272 315.02C545.403 315.02 545.524 315.011 545.636 314.992C545.748 314.973 545.874 314.941 546.014 314.894ZM549.814 316.098C548.61 316.098 547.653 315.795 546.944 315.188L547.35 314.264C547.723 314.553 548.111 314.768 548.512 314.908C548.923 315.039 549.371 315.104 549.856 315.104C550.36 315.104 550.743 315.02 551.004 314.852C551.275 314.675 551.41 314.423 551.41 314.096C551.41 313.835 551.317 313.629 551.13 313.48C550.953 313.321 550.654 313.191 550.234 313.088L549.058 312.808C548.451 312.677 547.985 312.444 547.658 312.108C547.341 311.772 547.182 311.366 547.182 310.89C547.182 310.479 547.294 310.115 547.518 309.798C547.751 309.481 548.073 309.233 548.484 309.056C548.895 308.869 549.38 308.776 549.94 308.776C550.435 308.776 550.901 308.855 551.34 309.014C551.788 309.173 552.166 309.401 552.474 309.7L552.068 310.61C551.732 310.33 551.387 310.125 551.032 309.994C550.677 309.854 550.309 309.784 549.926 309.784C549.45 309.784 549.077 309.877 548.806 310.064C548.545 310.251 548.414 310.503 548.414 310.82C548.414 311.091 548.498 311.305 548.666 311.464C548.834 311.623 549.1 311.749 549.464 311.842L550.654 312.136C551.326 312.276 551.821 312.509 552.138 312.836C552.455 313.153 552.614 313.564 552.614 314.068C552.614 314.684 552.362 315.179 551.858 315.552C551.354 315.916 550.673 316.098 549.814 316.098Z" fill="white"/>
<rect x="447" y="306" width="10" height="10" rx="2" fill="#235EE7"/>
<path d="M482.104 275.488C482.104 276.752 481.648 277.808 480.736 278.656C479.824 279.504 478.616 280 477.112 280.144V282.784H475.768V280.168C474.664 280.12 473.632 279.904 472.672 279.52C471.728 279.136 470.896 278.592 470.176 277.888L470.8 276.712C471.616 277.416 472.416 277.944 473.2 278.296C474 278.632 474.864 278.824 475.792 278.872V272.248C474.688 271.96 473.776 271.664 473.056 271.36C472.336 271.04 471.736 270.576 471.256 269.968C470.776 269.36 470.536 268.552 470.536 267.544C470.536 266.664 470.752 265.872 471.184 265.168C471.632 264.464 472.248 263.904 473.032 263.488C473.832 263.056 474.744 262.808 475.768 262.744V260.128H477.112V262.744C478.056 262.824 478.944 263.056 479.776 263.44C480.624 263.824 481.36 264.328 481.984 264.952L481.36 266.128C480.144 264.912 478.72 264.224 477.088 264.064V271.12C478.16 271.392 479.032 271.68 479.704 271.984C480.392 272.272 480.96 272.696 481.408 273.256C481.872 273.816 482.104 274.56 482.104 275.488ZM472.048 267.544C472.048 268.472 472.368 269.168 473.008 269.632C473.648 270.096 474.576 270.488 475.792 270.808V264.064C474.624 264.144 473.704 264.496 473.032 265.12C472.376 265.728 472.048 266.536 472.048 267.544ZM477.088 278.824C478.208 278.696 479.072 278.344 479.68 277.768C480.288 277.192 480.592 276.424 480.592 275.464C480.592 274.648 480.288 274.04 479.68 273.64C479.088 273.224 478.224 272.864 477.088 272.56V278.824ZM496.279 278.704V280H485.503V278.896L491.575 272.104C492.439 271.112 493.063 270.24 493.447 269.488C493.831 268.72 494.023 267.96 494.023 267.208C494.023 266.184 493.727 265.4 493.135 264.856C492.559 264.296 491.727 264.016 490.639 264.016C488.959 264.016 487.319 264.704 485.719 266.08L485.095 264.904C485.767 264.248 486.607 263.72 487.615 263.32C488.623 262.92 489.631 262.72 490.639 262.72C492.159 262.72 493.351 263.12 494.215 263.92C495.095 264.704 495.535 265.776 495.535 267.136C495.535 268.112 495.303 269.064 494.839 269.992C494.391 270.92 493.655 271.952 492.631 273.088L487.495 278.704H496.279ZM507.189 271.216C508.197 271.504 508.965 272.008 509.493 272.728C510.021 273.432 510.285 274.32 510.285 275.392C510.285 276.864 509.797 278.032 508.821 278.896C507.861 279.744 506.549 280.168 504.885 280.168C503.797 280.168 502.757 279.976 501.765 279.592C500.773 279.208 499.925 278.672 499.221 277.984L499.845 276.808C500.629 277.496 501.429 278.016 502.245 278.368C503.077 278.704 503.957 278.872 504.885 278.872C506.133 278.872 507.093 278.576 507.765 277.984C508.453 277.376 508.797 276.512 508.797 275.392C508.797 273.12 507.389 271.984 504.573 271.984H502.749V270.664H504.213C505.557 270.664 506.589 270.36 507.309 269.752C508.045 269.128 508.413 268.24 508.413 267.088C508.413 266.112 508.117 265.36 507.525 264.832C506.933 264.288 506.101 264.016 505.029 264.016C503.349 264.016 501.709 264.704 500.109 266.08L499.485 264.904C500.173 264.216 501.005 263.68 501.981 263.296C502.973 262.912 503.997 262.72 505.053 262.72C506.541 262.72 507.725 263.112 508.605 263.896C509.485 264.664 509.925 265.704 509.925 267.016C509.925 268.008 509.677 268.88 509.181 269.632C508.701 270.368 508.037 270.896 507.189 271.216ZM519.996 269.392C521.084 269.392 522.028 269.616 522.828 270.064C523.628 270.512 524.244 271.144 524.676 271.96C525.108 272.776 525.324 273.712 525.324 274.768C525.324 275.824 525.092 276.76 524.628 277.576C524.18 278.392 523.532 279.032 522.684 279.496C521.836 279.944 520.852 280.168 519.732 280.168C518.724 280.168 517.716 279.976 516.708 279.592C515.716 279.192 514.876 278.656 514.188 277.984L514.812 276.808C516.412 278.184 518.06 278.872 519.756 278.872C521.004 278.872 521.988 278.504 522.708 277.768C523.444 277.016 523.812 276.016 523.812 274.768C523.812 273.568 523.452 272.592 522.732 271.84C522.012 271.072 521.068 270.688 519.9 270.688C519.004 270.688 518.22 270.872 517.548 271.24C516.876 271.592 516.292 272.144 515.796 272.896H514.644V262.912H524.676V264.184H516.132V271C516.596 270.488 517.156 270.096 517.812 269.824C518.484 269.536 519.212 269.392 519.996 269.392ZM530.259 277.912V279.448C530.259 280.056 530.163 280.616 529.971 281.128C529.779 281.64 529.459 282.12 529.011 282.568L528.243 281.968C528.787 281.36 529.091 280.704 529.155 280H528.219V277.912H530.259ZM539.083 280.192C537.163 280.192 535.699 279.456 534.691 277.984C533.699 276.496 533.203 274.32 533.203 271.456C533.203 268.592 533.699 266.424 534.691 264.952C535.683 263.464 537.147 262.72 539.083 262.72C541.019 262.72 542.483 263.456 543.475 264.928C544.467 266.4 544.963 268.568 544.963 271.432C544.963 274.296 544.459 276.472 543.451 277.96C542.459 279.448 541.003 280.192 539.083 280.192ZM539.083 278.872C540.555 278.872 541.643 278.272 542.347 277.072C543.067 275.856 543.427 273.976 543.427 271.432C543.427 268.888 543.075 267.024 542.371 265.84C541.667 264.64 540.571 264.04 539.083 264.04C537.611 264.04 536.515 264.64 535.795 265.84C535.091 267.04 534.739 268.904 534.739 271.432C534.739 273.96 535.091 275.832 535.795 277.048C536.515 278.264 537.611 278.872 539.083 278.872ZM553.473 280.192C551.553 280.192 550.089 279.456 549.081 277.984C548.089 276.496 547.593 274.32 547.593 271.456C547.593 268.592 548.089 266.424 549.081 264.952C550.073 263.464 551.537 262.72 553.473 262.72C555.409 262.72 556.873 263.456 557.865 264.928C558.857 266.4 559.353 268.568 559.353 271.432C559.353 274.296 558.849 276.472 557.841 277.96C556.849 279.448 555.393 280.192 553.473 280.192ZM553.473 278.872C554.945 278.872 556.033 278.272 556.737 277.072C557.457 275.856 557.817 273.976 557.817 271.432C557.817 268.888 557.465 267.024 556.761 265.84C556.057 264.64 554.961 264.04 553.473 264.04C552.001 264.04 550.905 264.64 550.185 265.84C549.481 267.04 549.129 268.904 549.129 271.432C549.129 273.96 549.481 275.832 550.185 277.048C550.905 278.264 552.001 278.872 553.473 278.872ZM567.864 280.192C565.944 280.192 564.48 279.456 563.472 277.984C562.48 276.496 561.984 274.32 561.984 271.456C561.984 268.592 562.48 266.424 563.472 264.952C564.464 263.464 565.928 262.72 567.864 262.72C569.8 262.72 571.264 263.456 572.256 264.928C573.248 266.4 573.744 268.568 573.744 271.432C573.744 274.296 573.24 276.472 572.232 277.96C571.24 279.448 569.784 280.192 567.864 280.192ZM567.864 278.872C569.336 278.872 570.424 278.272 571.128 277.072C571.848 275.856 572.208 273.976 572.208 271.432C572.208 268.888 571.856 267.024 571.152 265.84C570.448 264.64 569.352 264.04 567.864 264.04C566.392 264.04 565.296 264.64 564.576 265.84C563.872 267.04 563.52 268.904 563.52 271.432C563.52 273.96 563.872 275.832 564.576 277.048C565.296 278.264 566.392 278.872 567.864 278.872Z" fill="white"/>
<path d="M470.204 252V242.032H471.492V252H470.204ZM473.755 252V246.932C473.755 246.605 473.746 246.279 473.727 245.952C473.718 245.616 473.69 245.285 473.643 244.958H474.847L474.973 246.4L474.833 246.484C475.039 245.933 475.365 245.513 475.813 245.224C476.271 244.925 476.793 244.776 477.381 244.776C479.071 244.776 479.915 245.714 479.915 247.59V252H478.641V247.66C478.641 247.025 478.515 246.563 478.263 246.274C478.021 245.975 477.629 245.826 477.087 245.826C476.462 245.826 475.963 246.022 475.589 246.414C475.216 246.797 475.029 247.315 475.029 247.968V252H473.755ZM484.072 252L481.062 244.972H482.392L484.87 251.02H484.52L487.026 244.972H488.3L485.248 252H484.072ZM495.22 251.174C494.912 251.463 494.515 251.692 494.03 251.86C493.545 252.019 493.05 252.098 492.546 252.098C491.809 252.098 491.174 251.953 490.642 251.664C490.11 251.375 489.699 250.959 489.41 250.418C489.121 249.867 488.976 249.214 488.976 248.458C488.976 247.73 489.116 247.091 489.396 246.54C489.685 245.989 490.082 245.56 490.586 245.252C491.09 244.935 491.669 244.776 492.322 244.776C492.957 244.776 493.498 244.916 493.946 245.196C494.403 245.476 494.749 245.877 494.982 246.4C495.225 246.913 495.346 247.529 495.346 248.248V248.472H490.096V247.688H494.618L494.226 248.192C494.245 247.399 494.091 246.792 493.764 246.372C493.437 245.952 492.961 245.742 492.336 245.742C491.683 245.742 491.169 245.975 490.796 246.442C490.432 246.899 490.25 247.543 490.25 248.374C490.25 249.27 490.446 249.947 490.838 250.404C491.23 250.852 491.809 251.076 492.574 251.076C492.985 251.076 493.377 251.011 493.75 250.88C494.123 250.74 494.478 250.535 494.814 250.264L495.22 251.174ZM499.447 252.098C498.243 252.098 497.286 251.795 496.577 251.188L496.983 250.264C497.356 250.553 497.744 250.768 498.145 250.908C498.556 251.039 499.004 251.104 499.489 251.104C499.993 251.104 500.376 251.02 500.637 250.852C500.908 250.675 501.043 250.423 501.043 250.096C501.043 249.835 500.95 249.629 500.763 249.48C500.586 249.321 500.287 249.191 499.867 249.088L498.691 248.808C498.084 248.677 497.618 248.444 497.291 248.108C496.974 247.772 496.815 247.366 496.815 246.89C496.815 246.479 496.927 246.115 497.151 245.798C497.384 245.481 497.706 245.233 498.117 245.056C498.528 244.869 499.013 244.776 499.573 244.776C500.068 244.776 500.534 244.855 500.973 245.014C501.421 245.173 501.799 245.401 502.107 245.7L501.701 246.61C501.365 246.33 501.02 246.125 500.665 245.994C500.31 245.854 499.942 245.784 499.559 245.784C499.083 245.784 498.71 245.877 498.439 246.064C498.178 246.251 498.047 246.503 498.047 246.82C498.047 247.091 498.131 247.305 498.299 247.464C498.467 247.623 498.733 247.749 499.097 247.842L500.287 248.136C500.959 248.276 501.454 248.509 501.771 248.836C502.088 249.153 502.247 249.564 502.247 250.068C502.247 250.684 501.995 251.179 501.491 251.552C500.987 251.916 500.306 252.098 499.447 252.098ZM502.95 245.938V244.958H507.57V245.938H502.95ZM507.542 250.894V251.958C507.383 252.005 507.22 252.037 507.052 252.056C506.893 252.084 506.72 252.098 506.534 252.098C505.843 252.098 505.297 251.902 504.896 251.51C504.504 251.118 504.308 250.539 504.308 249.774V243.166L505.582 242.718V249.634C505.582 249.998 505.633 250.283 505.736 250.488C505.848 250.684 505.992 250.824 506.17 250.908C506.356 250.983 506.566 251.02 506.8 251.02C506.93 251.02 507.052 251.011 507.164 250.992C507.276 250.973 507.402 250.941 507.542 250.894ZM508.919 252V246.932C508.919 246.605 508.91 246.279 508.891 245.952C508.882 245.616 508.854 245.285 508.807 244.958H510.011L510.137 246.4L509.997 246.47C510.165 245.929 510.455 245.513 510.865 245.224C511.285 244.925 511.78 244.776 512.349 244.776C513.031 244.776 513.558 244.944 513.931 245.28C514.314 245.616 514.557 246.129 514.659 246.82L514.323 246.61C514.482 246.05 514.785 245.607 515.233 245.28C515.681 244.944 516.218 244.776 516.843 244.776C517.627 244.776 518.215 245.009 518.607 245.476C518.999 245.943 519.195 246.647 519.195 247.59V252H517.921V247.646C517.921 247.021 517.809 246.563 517.585 246.274C517.371 245.975 517.021 245.826 516.535 245.826C515.966 245.826 515.518 246.022 515.191 246.414C514.865 246.797 514.701 247.324 514.701 247.996V252H513.427V247.646C513.427 247.021 513.315 246.563 513.091 246.274C512.867 245.975 512.513 245.826 512.027 245.826C511.449 245.826 510.996 246.022 510.669 246.414C510.352 246.797 510.193 247.324 510.193 247.996V252H508.919ZM527.117 251.174C526.809 251.463 526.412 251.692 525.927 251.86C525.441 252.019 524.947 252.098 524.443 252.098C523.705 252.098 523.071 251.953 522.539 251.664C522.007 251.375 521.596 250.959 521.307 250.418C521.017 249.867 520.873 249.214 520.873 248.458C520.873 247.73 521.013 247.091 521.293 246.54C521.582 245.989 521.979 245.56 522.483 245.252C522.987 244.935 523.565 244.776 524.219 244.776C524.853 244.776 525.395 244.916 525.843 245.196C526.3 245.476 526.645 245.877 526.879 246.4C527.121 246.913 527.243 247.529 527.243 248.248V248.472H521.993V247.688H526.515L526.123 248.192C526.141 247.399 525.987 246.792 525.661 246.372C525.334 245.952 524.858 245.742 524.233 245.742C523.579 245.742 523.066 245.975 522.693 246.442C522.329 246.899 522.147 247.543 522.147 248.374C522.147 249.27 522.343 249.947 522.735 250.404C523.127 250.852 523.705 251.076 524.471 251.076C524.881 251.076 525.273 251.011 525.647 250.88C526.02 250.74 526.375 250.535 526.711 250.264L527.117 251.174ZM528.921 252V246.932C528.921 246.605 528.912 246.279 528.893 245.952C528.884 245.616 528.856 245.285 528.809 244.958H530.013L530.139 246.4L529.999 246.484C530.205 245.933 530.531 245.513 530.979 245.224C531.437 244.925 531.959 244.776 532.547 244.776C534.237 244.776 535.081 245.714 535.081 247.59V252H533.807V247.66C533.807 247.025 533.681 246.563 533.429 246.274C533.187 245.975 532.795 245.826 532.253 245.826C531.628 245.826 531.129 246.022 530.755 246.414C530.382 246.797 530.195 247.315 530.195 247.968V252H528.921ZM536.2 245.938V244.958H540.82V245.938H536.2ZM540.792 250.894V251.958C540.633 252.005 540.47 252.037 540.302 252.056C540.143 252.084 539.97 252.098 539.784 252.098C539.093 252.098 538.547 251.902 538.146 251.51C537.754 251.118 537.558 250.539 537.558 249.774V243.166L538.832 242.718V249.634C538.832 249.998 538.883 250.283 538.986 250.488C539.098 250.684 539.242 250.824 539.42 250.908C539.606 250.983 539.816 251.02 540.05 251.02C540.18 251.02 540.302 251.011 540.414 250.992C540.526 250.973 540.652 250.941 540.792 250.894ZM546.323 252H544.993L549.403 242.032H550.509L554.933 252H553.617L549.753 242.998H550.187L546.323 252ZM546.883 249.494L547.345 248.43H552.553L553.015 249.494H546.883ZM558.523 252.098C557.319 252.098 556.362 251.795 555.653 251.188L556.059 250.264C556.432 250.553 556.82 250.768 557.221 250.908C557.632 251.039 558.08 251.104 558.565 251.104C559.069 251.104 559.452 251.02 559.713 250.852C559.984 250.675 560.119 250.423 560.119 250.096C560.119 249.835 560.026 249.629 559.839 249.48C559.662 249.321 559.363 249.191 558.943 249.088L557.767 248.808C557.16 248.677 556.694 248.444 556.367 248.108C556.05 247.772 555.891 247.366 555.891 246.89C555.891 246.479 556.003 246.115 556.227 245.798C556.46 245.481 556.782 245.233 557.193 245.056C557.604 244.869 558.089 244.776 558.649 244.776C559.144 244.776 559.61 244.855 560.049 245.014C560.497 245.173 560.875 245.401 561.183 245.7L560.777 246.61C560.441 246.33 560.096 246.125 559.741 245.994C559.386 245.854 559.018 245.784 558.635 245.784C558.159 245.784 557.786 245.877 557.515 246.064C557.254 246.251 557.123 246.503 557.123 246.82C557.123 247.091 557.207 247.305 557.375 247.464C557.543 247.623 557.809 247.749 558.173 247.842L559.363 248.136C560.035 248.276 560.53 248.509 560.847 248.836C561.164 249.153 561.323 249.564 561.323 250.068C561.323 250.684 561.071 251.179 560.567 251.552C560.063 251.916 559.382 252.098 558.523 252.098ZM565.482 252.098C564.278 252.098 563.321 251.795 562.612 251.188L563.018 250.264C563.391 250.553 563.779 250.768 564.18 250.908C564.591 251.039 565.039 251.104 565.524 251.104C566.028 251.104 566.411 251.02 566.672 250.852C566.943 250.675 567.078 250.423 567.078 250.096C567.078 249.835 566.985 249.629 566.798 249.48C566.621 249.321 566.322 249.191 565.902 249.088L564.726 248.808C564.119 248.677 563.653 248.444 563.326 248.108C563.009 247.772 562.85 247.366 562.85 246.89C562.85 246.479 562.962 246.115 563.186 245.798C563.419 245.481 563.741 245.233 564.152 245.056C564.563 244.869 565.048 244.776 565.608 244.776C566.103 244.776 566.569 244.855 567.008 245.014C567.456 245.173 567.834 245.401 568.142 245.7L567.736 246.61C567.4 246.33 567.055 246.125 566.7 245.994C566.345 245.854 565.977 245.784 565.594 245.784C565.118 245.784 564.745 245.877 564.474 246.064C564.213 246.251 564.082 246.503 564.082 246.82C564.082 247.091 564.166 247.305 564.334 247.464C564.502 247.623 564.768 247.749 565.132 247.842L566.322 248.136C566.994 248.276 567.489 248.509 567.806 248.836C568.123 249.153 568.282 249.564 568.282 250.068C568.282 250.684 568.03 251.179 567.526 251.552C567.022 251.916 566.341 252.098 565.482 252.098ZM575.843 251.174C575.535 251.463 575.138 251.692 574.653 251.86C574.168 252.019 573.673 252.098 573.169 252.098C572.432 252.098 571.797 251.953 571.265 251.664C570.733 251.375 570.322 250.959 570.033 250.418C569.744 249.867 569.599 249.214 569.599 248.458C569.599 247.73 569.739 247.091 570.019 246.54C570.308 245.989 570.705 245.56 571.209 245.252C571.713 244.935 572.292 244.776 572.945 244.776C573.58 244.776 574.121 244.916 574.569 245.196C575.026 245.476 575.372 245.877 575.605 246.4C575.848 246.913 575.969 247.529 575.969 248.248V248.472H570.719V247.688H575.241L574.849 248.192C574.868 247.399 574.714 246.792 574.387 246.372C574.06 245.952 573.584 245.742 572.959 245.742C572.306 245.742 571.792 245.975 571.419 246.442C571.055 246.899 570.873 247.543 570.873 248.374C570.873 249.27 571.069 249.947 571.461 250.404C571.853 250.852 572.432 251.076 573.197 251.076C573.608 251.076 574 251.011 574.373 250.88C574.746 250.74 575.101 250.535 575.437 250.264L575.843 251.174ZM576.627 245.938V244.958H581.247V245.938H576.627ZM581.219 250.894V251.958C581.061 252.005 580.897 252.037 580.729 252.056C580.571 252.084 580.398 252.098 580.211 252.098C579.521 252.098 578.975 251.902 578.573 251.51C578.181 251.118 577.985 250.539 577.985 249.774V243.166L579.259 242.718V249.634C579.259 249.998 579.311 250.283 579.413 250.488C579.525 250.684 579.67 250.824 579.847 250.908C580.034 250.983 580.244 251.02 580.477 251.02C580.608 251.02 580.729 251.011 580.841 250.992C580.953 250.973 581.079 250.941 581.219 250.894ZM585.019 252.098C583.815 252.098 582.859 251.795 582.149 251.188L582.555 250.264C582.929 250.553 583.316 250.768 583.717 250.908C584.128 251.039 584.576 251.104 585.061 251.104C585.565 251.104 585.948 251.02 586.209 250.852C586.48 250.675 586.615 250.423 586.615 250.096C586.615 249.835 586.522 249.629 586.335 249.48C586.158 249.321 585.859 249.191 585.439 249.088L584.263 248.808C583.657 248.677 583.19 248.444 582.863 248.108C582.546 247.772 582.387 247.366 582.387 246.89C582.387 246.479 582.499 246.115 582.723 245.798C582.957 245.481 583.279 245.233 583.689 245.056C584.1 244.869 584.585 244.776 585.145 244.776C585.64 244.776 586.107 244.855 586.545 245.014C586.993 245.173 587.371 245.401 587.679 245.7L587.273 246.61C586.937 246.33 586.592 246.125 586.237 245.994C585.883 245.854 585.514 245.784 585.131 245.784C584.655 245.784 584.282 245.877 584.011 246.064C583.75 246.251 583.619 246.503 583.619 246.82C583.619 247.091 583.703 247.305 583.871 247.464C584.039 247.623 584.305 247.749 584.669 247.842L585.859 248.136C586.531 248.276 587.026 248.509 587.343 248.836C587.661 249.153 587.819 249.564 587.819 250.068C587.819 250.684 587.567 251.179 587.063 251.552C586.559 251.916 585.878 252.098 585.019 252.098Z" fill="white"/>
<rect x="447" y="242" width="10" height="10" rx="2" fill="#29CFD6"/>
<defs>
<filter id="filter0_di" x="0" y="0" width="1085" height="370" filterUnits="userSpaceOnUse" color-interpolation-filters="sRGB">
<feFlood flood-opacity="0" result="BackgroundImageFix"/>
<feColorMatrix in="SourceAlpha" type="matrix" values="0 0 0 0 0 0 0 0 0 0 0 0 0 0 0 0 0 0 127 0"/>
<feOffset dy="2"/>
<feGaussianBlur stdDeviation="4"/>
<feColorMatrix type="matrix" values="0 0 0 0 0.888 0 0 0 0 0.911467 0 0 0 0 0.952 0 0 0 1 0"/>
<feBlend mode="normal" in2="BackgroundImageFix" result="effect1_dropShadow"/>
<feBlend mode="normal" in="SourceGraphic" in2="effect1_dropShadow" result="shape"/>
<feColorMatrix in="SourceAlpha" type="matrix" values="0 0 0 0 0 0 0 0 0 0 0 0 0 0 0 0 0 0 127 0" result="hardAlpha"/>
<feOffset dy="-1"/>
<feComposite in2="hardAlpha" operator="arithmetic" k2="-1" k3="1"/>
<feColorMatrix type="matrix" values="0 0 0 0 0.921569 0 0 0 0 0.92549 0 0 0 0 0.945098 0 0 0 1 0"/>
<feBlend mode="normal" in2="shape" result="effect2_innerShadow"/>
</filter>
<filter id="filter1_d" x="407" y="198" width="240" height="332" filterUnits="userSpaceOnUse" color-interpolation-filters="sRGB">
<feFlood flood-opacity="0" result="BackgroundImageFix"/>
<feColorMatrix in="SourceAlpha" type="matrix" values="0 0 0 0 0 0 0 0 0 0 0 0 0 0 0 0 0 0 127 0"/>
<feOffset dy="4"/>
<feGaussianBlur stdDeviation="14"/>
<feColorMatrix type="matrix" values="0 0 0 0 0.0313726 0 0 0 0 0.0941176 0 0 0 0 0.2 0 0 0 0.44 0"/>
<feBlend mode="normal" in2="BackgroundImageFix" result="effect1_dropShadow"/>
<feBlend mode="normal" in="SourceGraphic" in2="effect1_dropShadow" result="shape"/>
</filter>
<linearGradient id="paint0_linear" x1="542" y1="133.5" x2="828" y2="133.5" gradientUnits="userSpaceOnUse">
<stop stop-color="#534CEA"/>
<stop offset="1" stop-color="#534CEA" stop-opacity="0"/>
</linearGradient>
</defs>
</svg>
