<svg width="734" height="538" viewBox="0 0 734 538" fill="none" xmlns="http://www.w3.org/2000/svg">
  <path d="M278.673 231.16C277.687 231.16 276.753 231 275.873 230.68C275.007 230.347 274.253 229.867 273.613 229.24L274.113 228.26C274.833 228.9 275.553 229.36 276.273 229.64C276.993 229.92 277.793 230.06 278.673 230.06C279.807 230.06 280.687 229.813 281.313 229.32C281.953 228.813 282.273 228.12 282.273 227.24C282.273 226.693 282.12 226.267 281.813 225.96C281.52 225.64 281.12 225.387 280.613 225.2C280.12 225.013 279.573 224.853 278.973 224.72C278.387 224.573 277.793 224.413 277.193 224.24C276.593 224.067 276.04 223.84 275.533 223.56C275.04 223.28 274.64 222.907 274.333 222.44C274.04 221.973 273.893 221.367 273.893 220.62C273.893 219.833 274.1 219.14 274.513 218.54C274.927 217.927 275.5 217.453 276.233 217.12C276.967 216.773 277.8 216.6 278.733 216.6C279.333 216.6 279.913 216.673 280.473 216.82C281.047 216.967 281.58 217.18 282.073 217.46C282.58 217.727 283.027 218.06 283.413 218.46L282.913 219.44C281.767 218.28 280.373 217.7 278.733 217.7C277.627 217.7 276.753 217.96 276.113 218.48C275.473 219 275.153 219.707 275.153 220.6C275.153 221.2 275.3 221.673 275.593 222.02C275.9 222.367 276.307 222.647 276.813 222.86C277.32 223.06 277.867 223.233 278.453 223.38C279.053 223.527 279.647 223.68 280.233 223.84C280.833 224 281.38 224.213 281.873 224.48C282.38 224.733 282.78 225.08 283.073 225.52C283.38 225.96 283.533 226.527 283.533 227.22C283.533 228.007 283.327 228.693 282.913 229.28C282.5 229.867 281.927 230.327 281.193 230.66C280.46 230.993 279.62 231.16 278.673 231.16ZM278.253 233.32V230.94L278.273 230.32V217.36L278.253 216.82V214.44H279.373V216.82L279.353 217.36V230.32L279.373 230.94V233.32H278.253ZM286.365 231V230.06L291.425 224.42C292.132 223.607 292.645 222.887 292.965 222.26C293.299 221.62 293.465 220.973 293.465 220.32C293.465 219.48 293.219 218.833 292.725 218.38C292.245 217.913 291.552 217.68 290.645 217.68C289.925 217.68 289.225 217.827 288.545 218.12C287.879 218.4 287.212 218.827 286.545 219.4L286.025 218.42C286.585 217.873 287.285 217.433 288.125 217.1C288.965 216.767 289.805 216.6 290.645 216.6C291.485 216.6 292.205 216.747 292.805 217.04C293.419 217.333 293.892 217.76 294.225 218.32C294.559 218.867 294.725 219.52 294.725 220.28C294.725 221.093 294.532 221.887 294.145 222.66C293.772 223.42 293.159 224.28 292.305 225.24L287.285 230.72L287.265 229.94H295.345V231H286.365ZM302.458 230.46V217.28L303.258 217.88L299.518 220.3V219.04L302.998 216.76H303.698V230.46H302.458ZM299.298 231V229.94H306.858V231H299.298ZM310.61 233.14L309.99 232.64C310.31 232.28 310.517 231.953 310.61 231.66C310.703 231.38 310.75 231.087 310.75 230.78L311.17 231H309.97V229.26H311.67V230.56C311.67 231.027 311.59 231.473 311.43 231.9C311.283 232.327 311.01 232.74 310.61 233.14ZM319.023 231.16C317.423 231.16 316.21 230.547 315.383 229.32C314.557 228.08 314.143 226.267 314.143 223.88C314.143 221.48 314.55 219.667 315.363 218.44C316.19 217.213 317.41 216.6 319.023 216.6C320.637 216.6 321.85 217.213 322.663 218.44C323.49 219.667 323.903 221.473 323.903 223.86C323.903 226.247 323.49 228.06 322.663 229.3C321.837 230.54 320.623 231.16 319.023 231.16ZM319.023 230.06C320.25 230.06 321.157 229.56 321.743 228.56C322.343 227.547 322.643 225.98 322.643 223.86C322.643 221.74 322.35 220.187 321.763 219.2C321.177 218.2 320.263 217.7 319.023 217.7C317.797 217.7 316.883 218.2 316.283 219.2C315.697 220.2 315.403 221.753 315.403 223.86C315.403 225.967 315.697 227.527 316.283 228.54C316.883 229.553 317.797 230.06 319.023 230.06ZM331.016 231.16C329.416 231.16 328.202 230.547 327.376 229.32C326.549 228.08 326.136 226.267 326.136 223.88C326.136 221.48 326.542 219.667 327.356 218.44C328.182 217.213 329.402 216.6 331.016 216.6C332.629 216.6 333.842 217.213 334.656 218.44C335.482 219.667 335.896 221.473 335.896 223.86C335.896 226.247 335.482 228.06 334.656 229.3C333.829 230.54 332.616 231.16 331.016 231.16ZM331.016 230.06C332.242 230.06 333.149 229.56 333.736 228.56C334.336 227.547 334.636 225.98 334.636 223.86C334.636 221.74 334.342 220.187 333.756 219.2C333.169 218.2 332.256 217.7 331.016 217.7C329.789 217.7 328.876 218.2 328.276 219.2C327.689 220.2 327.396 221.753 327.396 223.86C327.396 225.967 327.689 227.527 328.276 228.54C328.876 229.553 329.789 230.06 331.016 230.06ZM343.008 231.16C341.408 231.16 340.194 230.547 339.368 229.32C338.541 228.08 338.128 226.267 338.128 223.88C338.128 221.48 338.534 219.667 339.348 218.44C340.174 217.213 341.394 216.6 343.008 216.6C344.621 216.6 345.834 217.213 346.648 218.44C347.474 219.667 347.888 221.473 347.888 223.86C347.888 226.247 347.474 228.06 346.648 229.3C345.821 230.54 344.608 231.16 343.008 231.16ZM343.008 230.06C344.234 230.06 345.141 229.56 345.728 228.56C346.328 227.547 346.628 225.98 346.628 223.86C346.628 221.74 346.334 220.187 345.748 219.2C345.161 218.2 344.248 217.7 343.008 217.7C341.781 217.7 340.868 218.2 340.268 219.2C339.681 220.2 339.388 221.753 339.388 223.86C339.388 225.967 339.681 227.527 340.268 228.54C340.868 229.553 341.781 230.06 343.008 230.06Z" fill="#969EAC"/>
  <path d="M41.376 231V219.608H45.968C47.216 219.608 48.1653 219.885 48.816 220.44C49.4773 220.984 49.808 221.773 49.808 222.808C49.808 223.789 49.472 224.563 48.8 225.128C48.128 225.693 47.1893 225.976 45.984 225.976L47.184 225.752C47.6 225.752 47.9573 225.869 48.256 226.104C48.5547 226.328 48.7947 226.691 48.976 227.192L50.416 231H48.832L47.424 227.208C47.2533 226.749 47.0133 226.445 46.704 226.296C46.4053 226.147 46.0053 226.072 45.504 226.072H42.832V231H41.376ZM42.832 224.872H45.824C46.688 224.872 47.328 224.701 47.744 224.36C48.16 224.008 48.368 223.496 48.368 222.824C48.368 222.141 48.16 221.635 47.744 221.304C47.3387 220.973 46.6987 220.808 45.824 220.808H42.832V224.872ZM58.997 230.056C58.645 230.387 58.1917 230.648 57.637 230.84C57.0823 231.021 56.517 231.112 55.941 231.112C55.0983 231.112 54.373 230.947 53.765 230.616C53.157 230.285 52.6877 229.811 52.357 229.192C52.0263 228.563 51.861 227.816 51.861 226.952C51.861 226.12 52.021 225.389 52.341 224.76C52.6717 224.131 53.125 223.64 53.701 223.288C54.277 222.925 54.9383 222.744 55.685 222.744C56.4103 222.744 57.029 222.904 57.541 223.224C58.0637 223.544 58.4583 224.003 58.725 224.6C59.0023 225.187 59.141 225.891 59.141 226.712V226.968H53.141V226.072H58.309L57.861 226.648C57.8823 225.741 57.7063 225.048 57.333 224.568C56.9597 224.088 56.4157 223.848 55.701 223.848C54.9543 223.848 54.3677 224.115 53.941 224.648C53.525 225.171 53.317 225.907 53.317 226.856C53.317 227.88 53.541 228.653 53.989 229.176C54.437 229.688 55.0983 229.944 55.973 229.944C56.4423 229.944 56.8903 229.869 57.317 229.72C57.7437 229.56 58.149 229.325 58.533 229.016L58.997 230.056ZM64.1478 231.112C63.4438 231.112 62.8198 230.947 62.2758 230.616C61.7424 230.275 61.3264 229.795 61.0278 229.176C60.7291 228.547 60.5798 227.811 60.5798 226.968C60.5798 226.125 60.7291 225.389 61.0278 224.76C61.3371 224.131 61.7584 223.64 62.2918 223.288C62.8358 222.925 63.4544 222.744 64.1478 222.744C64.8731 222.744 65.4918 222.925 66.0038 223.288C66.5158 223.64 66.8624 224.147 67.0438 224.808L66.8518 224.92V222.952H68.2917V231H66.8518V228.984L67.0438 229.064C66.8624 229.715 66.5158 230.221 66.0038 230.584C65.4918 230.936 64.8731 231.112 64.1478 231.112ZM64.4678 229.928C65.2358 229.928 65.8224 229.672 66.2278 229.16C66.6438 228.637 66.8518 227.896 66.8518 226.936C66.8518 225.976 66.6438 225.24 66.2278 224.728C65.8118 224.205 65.2251 223.944 64.4678 223.944C63.7104 223.944 63.1184 224.211 62.6918 224.744C62.2651 225.277 62.0518 226.019 62.0518 226.968C62.0518 227.917 62.2651 228.648 62.6918 229.16C63.1184 229.672 63.7104 229.928 64.4678 229.928ZM70.716 231V219.224H72.172V231H70.716ZM78.9854 231V219.608H86.2654V220.824H80.4414V224.6H85.9454V225.832H80.4414V229.784H86.2654V231H78.9854ZM91.0309 231.112C89.6549 231.112 88.5615 230.765 87.7509 230.072L88.2149 229.016C88.6415 229.347 89.0842 229.592 89.5429 229.752C90.0122 229.901 90.5242 229.976 91.0789 229.976C91.6549 229.976 92.0922 229.88 92.3909 229.688C92.7002 229.485 92.8549 229.197 92.8549 228.824C92.8549 228.525 92.7482 228.291 92.5349 228.12C92.3322 227.939 91.9909 227.789 91.5109 227.672L90.1669 227.352C89.4735 227.203 88.9402 226.936 88.5669 226.552C88.2042 226.168 88.0229 225.704 88.0229 225.16C88.0229 224.691 88.1509 224.275 88.4069 223.912C88.6735 223.549 89.0415 223.267 89.5109 223.064C89.9802 222.851 90.5349 222.744 91.1749 222.744C91.7402 222.744 92.2735 222.835 92.7749 223.016C93.2869 223.197 93.7189 223.459 94.0709 223.8L93.6069 224.84C93.2229 224.52 92.8282 224.285 92.4229 224.136C92.0175 223.976 91.5962 223.896 91.1589 223.896C90.6149 223.896 90.1882 224.003 89.8789 224.216C89.5802 224.429 89.4309 224.717 89.4309 225.08C89.4309 225.389 89.5269 225.635 89.7189 225.816C89.9109 225.997 90.2149 226.141 90.6309 226.248L91.9909 226.584C92.7589 226.744 93.3242 227.011 93.6869 227.384C94.0495 227.747 94.2309 228.216 94.2309 228.792C94.2309 229.496 93.9429 230.061 93.3669 230.488C92.7909 230.904 92.0122 231.112 91.0309 231.112ZM95.0339 224.072V222.952H100.314V224.072H95.0339ZM100.282 229.736V230.952C100.101 231.005 99.9139 231.043 99.7219 231.064C99.5405 231.096 99.3432 231.112 99.1299 231.112C98.3405 231.112 97.7165 230.888 97.2579 230.44C96.8099 229.992 96.5859 229.331 96.5859 228.456V220.904L98.0419 220.392V228.296C98.0419 228.712 98.1005 229.037 98.2179 229.272C98.3459 229.496 98.5112 229.656 98.7139 229.752C98.9272 229.837 99.1672 229.88 99.4339 229.88C99.5832 229.88 99.7219 229.869 99.8499 229.848C99.9779 229.827 100.122 229.789 100.282 229.736ZM104.945 231.112C104.241 231.112 103.617 230.947 103.073 230.616C102.539 230.275 102.123 229.795 101.825 229.176C101.526 228.547 101.377 227.811 101.377 226.968C101.377 226.125 101.526 225.389 101.825 224.76C102.134 224.131 102.555 223.64 103.089 223.288C103.633 222.925 104.251 222.744 104.945 222.744C105.67 222.744 106.289 222.925 106.801 223.288C107.313 223.64 107.659 224.147 107.841 224.808L107.649 224.92V222.952H109.089V231H107.649V228.984L107.841 229.064C107.659 229.715 107.313 230.221 106.801 230.584C106.289 230.936 105.67 231.112 104.945 231.112ZM105.265 229.928C106.033 229.928 106.619 229.672 107.025 229.16C107.441 228.637 107.649 227.896 107.649 226.936C107.649 225.976 107.441 225.24 107.025 224.728C106.609 224.205 106.022 223.944 105.265 223.944C104.507 223.944 103.915 224.211 103.489 224.744C103.062 225.277 102.849 226.019 102.849 226.968C102.849 227.917 103.062 228.648 103.489 229.16C103.915 229.672 104.507 229.928 105.265 229.928ZM110.409 224.072V222.952H115.689V224.072H110.409ZM115.657 229.736V230.952C115.476 231.005 115.289 231.043 115.097 231.064C114.916 231.096 114.718 231.112 114.505 231.112C113.716 231.112 113.092 230.888 112.633 230.44C112.185 229.992 111.961 229.331 111.961 228.456V220.904L113.417 220.392V228.296C113.417 228.712 113.476 229.037 113.593 229.272C113.721 229.496 113.886 229.656 114.089 229.752C114.302 229.837 114.542 229.88 114.809 229.88C114.958 229.88 115.097 229.869 115.225 229.848C115.353 229.827 115.497 229.789 115.657 229.736ZM123.888 230.056C123.536 230.387 123.082 230.648 122.528 230.84C121.973 231.021 121.408 231.112 120.832 231.112C119.989 231.112 119.264 230.947 118.656 230.616C118.048 230.285 117.578 229.811 117.248 229.192C116.917 228.563 116.752 227.816 116.752 226.952C116.752 226.12 116.912 225.389 117.232 224.76C117.562 224.131 118.016 223.64 118.592 223.288C119.168 222.925 119.829 222.744 120.576 222.744C121.301 222.744 121.92 222.904 122.432 223.224C122.954 223.544 123.349 224.003 123.616 224.6C123.893 225.187 124.032 225.891 124.032 226.712V226.968H118.032V226.072H123.2L122.752 226.648C122.773 225.741 122.597 225.048 122.224 224.568C121.85 224.088 121.306 223.848 120.592 223.848C119.845 223.848 119.258 224.115 118.832 224.648C118.416 225.171 118.208 225.907 118.208 226.856C118.208 227.88 118.432 228.653 118.88 229.176C119.328 229.688 119.989 229.944 120.864 229.944C121.333 229.944 121.781 229.869 122.208 229.72C122.634 229.56 123.04 229.325 123.424 229.016L123.888 230.056ZM130.105 227.288V226.104H134.697V227.288H130.105ZM140.34 230.328V220.552L141.156 220.888L138.004 222.872V221.48L140.98 219.608H141.828V230.328H140.34ZM137.828 231V229.768H144.34V231H137.828ZM150.238 231.128C148.926 231.128 147.928 230.637 147.246 229.656C146.563 228.664 146.222 227.213 146.222 225.304C146.222 223.395 146.558 221.949 147.23 220.968C147.912 219.976 148.915 219.48 150.238 219.48C151.56 219.48 152.558 219.976 153.23 220.968C153.912 221.949 154.253 223.389 154.253 225.288C154.253 227.197 153.912 228.648 153.23 229.64C152.547 230.632 151.55 231.128 150.238 231.128ZM150.238 229.912C151.102 229.912 151.736 229.539 152.142 228.792C152.558 228.045 152.766 226.877 152.766 225.288C152.766 223.699 152.558 222.541 152.142 221.816C151.736 221.08 151.102 220.712 150.238 220.712C149.374 220.712 148.734 221.08 148.318 221.816C147.912 222.552 147.71 223.709 147.71 225.288C147.71 226.877 147.912 228.045 148.318 228.792C148.734 229.539 149.374 229.912 150.238 229.912ZM158.071 226.504C157.282 226.504 156.658 226.216 156.199 225.64C155.741 225.064 155.511 224.189 155.511 223.016C155.511 221.832 155.741 220.957 156.199 220.392C156.658 219.827 157.282 219.544 158.071 219.544C158.861 219.544 159.479 219.827 159.927 220.392C160.386 220.957 160.615 221.832 160.615 223.016C160.615 224.189 160.386 225.064 159.927 225.64C159.479 226.216 158.861 226.504 158.071 226.504ZM158.071 225.496C158.487 225.496 158.797 225.304 158.999 224.92C159.213 224.525 159.319 223.891 159.319 223.016C159.319 222.152 159.213 221.528 158.999 221.144C158.797 220.749 158.487 220.552 158.071 220.552C157.655 220.552 157.341 220.749 157.127 221.144C156.925 221.528 156.823 222.152 156.823 223.016C156.823 223.891 156.925 224.525 157.127 224.92C157.341 225.304 157.655 225.496 158.071 225.496ZM157.847 231L164.439 219.608H165.831L159.255 231H157.847ZM165.607 231.064C164.818 231.064 164.194 230.776 163.735 230.2C163.277 229.624 163.047 228.749 163.047 227.576C163.047 226.392 163.277 225.517 163.735 224.952C164.194 224.387 164.818 224.104 165.607 224.104C166.397 224.104 167.015 224.387 167.463 224.952C167.922 225.517 168.151 226.392 168.151 227.576C168.151 228.749 167.922 229.624 167.463 230.2C167.015 230.776 166.397 231.064 165.607 231.064ZM165.607 230.056C166.023 230.056 166.333 229.864 166.535 229.48C166.749 229.085 166.855 228.451 166.855 227.576C166.855 226.712 166.749 226.088 166.535 225.704C166.333 225.309 166.023 225.112 165.607 225.112C165.191 225.112 164.877 225.309 164.663 225.704C164.461 226.088 164.359 226.712 164.359 227.576C164.359 228.451 164.461 229.085 164.663 229.48C164.877 229.864 165.191 230.056 165.607 230.056Z" fill="#969EAC"/>
  <rect y="215" width="18" height="18" rx="2" fill="#D3365F"/>
  <path d="M278.673 195.16C277.687 195.16 276.753 195 275.873 194.68C275.007 194.347 274.253 193.867 273.613 193.24L274.113 192.26C274.833 192.9 275.553 193.36 276.273 193.64C276.993 193.92 277.793 194.06 278.673 194.06C279.807 194.06 280.687 193.813 281.313 193.32C281.953 192.813 282.273 192.12 282.273 191.24C282.273 190.693 282.12 190.267 281.813 189.96C281.52 189.64 281.12 189.387 280.613 189.2C280.12 189.013 279.573 188.853 278.973 188.72C278.387 188.573 277.793 188.413 277.193 188.24C276.593 188.067 276.04 187.84 275.533 187.56C275.04 187.28 274.64 186.907 274.333 186.44C274.04 185.973 273.893 185.367 273.893 184.62C273.893 183.833 274.1 183.14 274.513 182.54C274.927 181.927 275.5 181.453 276.233 181.12C276.967 180.773 277.8 180.6 278.733 180.6C279.333 180.6 279.913 180.673 280.473 180.82C281.047 180.967 281.58 181.18 282.073 181.46C282.58 181.727 283.027 182.06 283.413 182.46L282.913 183.44C281.767 182.28 280.373 181.7 278.733 181.7C277.627 181.7 276.753 181.96 276.113 182.48C275.473 183 275.153 183.707 275.153 184.6C275.153 185.2 275.3 185.673 275.593 186.02C275.9 186.367 276.307 186.647 276.813 186.86C277.32 187.06 277.867 187.233 278.453 187.38C279.053 187.527 279.647 187.68 280.233 187.84C280.833 188 281.38 188.213 281.873 188.48C282.38 188.733 282.78 189.08 283.073 189.52C283.38 189.96 283.533 190.527 283.533 191.22C283.533 192.007 283.327 192.693 282.913 193.28C282.5 193.867 281.927 194.327 281.193 194.66C280.46 194.993 279.62 195.16 278.673 195.16ZM278.253 197.32V194.94L278.273 194.32V181.36L278.253 180.82V178.44H279.373V180.82L279.353 181.36V194.32L279.373 194.94V197.32H278.253ZM290.525 195.14C289.619 195.14 288.752 194.98 287.925 194.66C287.099 194.34 286.392 193.893 285.805 193.32L286.325 192.34C286.979 192.913 287.645 193.347 288.325 193.64C289.019 193.92 289.752 194.06 290.525 194.06C291.565 194.06 292.365 193.813 292.925 193.32C293.499 192.813 293.785 192.093 293.785 191.16C293.785 190.2 293.485 189.487 292.885 189.02C292.299 188.54 291.432 188.3 290.285 188.3H288.745V187.22H289.965C291.085 187.22 291.945 186.96 292.545 186.44C293.159 185.92 293.465 185.187 293.465 184.24C293.465 183.427 293.219 182.8 292.725 182.36C292.232 181.907 291.539 181.68 290.645 181.68C289.912 181.68 289.212 181.827 288.545 182.12C287.879 182.4 287.212 182.827 286.545 183.4L286.025 182.42C286.599 181.847 287.292 181.4 288.105 181.08C288.932 180.76 289.785 180.6 290.665 180.6C291.492 180.6 292.212 180.747 292.825 181.04C293.439 181.333 293.905 181.753 294.225 182.3C294.559 182.833 294.725 183.473 294.725 184.22C294.712 185.1 294.472 185.86 294.005 186.5C293.552 187.14 292.925 187.567 292.125 187.78L292.045 187.58C293.019 187.78 293.759 188.187 294.265 188.8C294.772 189.4 295.025 190.187 295.025 191.16C295.025 192.387 294.619 193.36 293.805 194.08C292.992 194.787 291.899 195.14 290.525 195.14ZM304.398 195V182.3H304.858L298.478 191.52L298.498 190.7H307.838V191.76H297.678V190.82L304.618 180.76H305.638V195H304.398ZM310.61 197.14L309.99 196.64C310.31 196.28 310.517 195.953 310.61 195.66C310.703 195.38 310.75 195.087 310.75 194.78L311.17 195H309.97V193.26H311.67V194.56C311.67 195.027 311.59 195.473 311.43 195.9C311.283 196.327 311.01 196.74 310.61 197.14ZM319.023 195.16C317.423 195.16 316.21 194.547 315.383 193.32C314.557 192.08 314.143 190.267 314.143 187.88C314.143 185.48 314.55 183.667 315.363 182.44C316.19 181.213 317.41 180.6 319.023 180.6C320.637 180.6 321.85 181.213 322.663 182.44C323.49 183.667 323.903 185.473 323.903 187.86C323.903 190.247 323.49 192.06 322.663 193.3C321.837 194.54 320.623 195.16 319.023 195.16ZM319.023 194.06C320.25 194.06 321.157 193.56 321.743 192.56C322.343 191.547 322.643 189.98 322.643 187.86C322.643 185.74 322.35 184.187 321.763 183.2C321.177 182.2 320.263 181.7 319.023 181.7C317.797 181.7 316.883 182.2 316.283 183.2C315.697 184.2 315.403 185.753 315.403 187.86C315.403 189.967 315.697 191.527 316.283 192.54C316.883 193.553 317.797 194.06 319.023 194.06ZM331.016 195.16C329.416 195.16 328.202 194.547 327.376 193.32C326.549 192.08 326.136 190.267 326.136 187.88C326.136 185.48 326.542 183.667 327.356 182.44C328.182 181.213 329.402 180.6 331.016 180.6C332.629 180.6 333.842 181.213 334.656 182.44C335.482 183.667 335.896 185.473 335.896 187.86C335.896 190.247 335.482 192.06 334.656 193.3C333.829 194.54 332.616 195.16 331.016 195.16ZM331.016 194.06C332.242 194.06 333.149 193.56 333.736 192.56C334.336 191.547 334.636 189.98 334.636 187.86C334.636 185.74 334.342 184.187 333.756 183.2C333.169 182.2 332.256 181.7 331.016 181.7C329.789 181.7 328.876 182.2 328.276 183.2C327.689 184.2 327.396 185.753 327.396 187.86C327.396 189.967 327.689 191.527 328.276 192.54C328.876 193.553 329.789 194.06 331.016 194.06ZM343.008 195.16C341.408 195.16 340.194 194.547 339.368 193.32C338.541 192.08 338.128 190.267 338.128 187.88C338.128 185.48 338.534 183.667 339.348 182.44C340.174 181.213 341.394 180.6 343.008 180.6C344.621 180.6 345.834 181.213 346.648 182.44C347.474 183.667 347.888 185.473 347.888 187.86C347.888 190.247 347.474 192.06 346.648 193.3C345.821 194.54 344.608 195.16 343.008 195.16ZM343.008 194.06C344.234 194.06 345.141 193.56 345.728 192.56C346.328 191.547 346.628 189.98 346.628 187.86C346.628 185.74 346.334 184.187 345.748 183.2C345.161 182.2 344.248 181.7 343.008 181.7C341.781 181.7 340.868 182.2 340.268 183.2C339.681 184.2 339.388 185.753 339.388 187.86C339.388 189.967 339.681 191.527 340.268 192.54C340.868 193.553 341.781 194.06 343.008 194.06Z" fill="#969EAC"/>
  <path d="M41.376 195V183.608H42.592L47.136 193.96H46.496L51.008 183.608H52.208V195H50.864V185.624L51.36 185.688L47.312 195H46.288L42.176 185.688L42.72 185.624L42.736 195H41.376ZM57.6581 195.112C56.6875 195.112 55.9568 194.845 55.4661 194.312C54.9861 193.768 54.7461 192.968 54.7461 191.912V186.952H56.2021V191.896C56.2021 192.589 56.3408 193.101 56.6181 193.432C56.9061 193.752 57.3435 193.912 57.9301 193.912C58.6128 193.912 59.1621 193.693 59.5781 193.256C59.9941 192.808 60.2021 192.216 60.2021 191.48V186.952H61.6741V195H60.2501V193.272L60.4421 193.192C60.2288 193.821 59.8715 194.301 59.3701 194.632C58.8688 194.952 58.2981 195.112 57.6581 195.112ZM64.091 195V189.208C64.091 188.835 64.0803 188.461 64.059 188.088C64.0483 187.704 64.0163 187.325 63.963 186.952H65.339L65.483 188.6L65.323 188.696C65.5577 188.067 65.931 187.587 66.443 187.256C66.9657 186.915 67.563 186.744 68.235 186.744C70.1657 186.744 71.131 187.816 71.131 189.96V195H69.675V190.04C69.675 189.315 69.531 188.787 69.243 188.456C68.9657 188.115 68.5177 187.944 67.899 187.944C67.1843 187.944 66.6137 188.168 66.187 188.616C65.7603 189.053 65.547 189.645 65.547 190.392V195H64.091ZM73.5129 195V186.952H74.9689V195H73.5129ZM73.3849 183.48H75.0969V185.064H73.3849V183.48ZM80.1715 195.112C78.7955 195.112 77.7022 194.765 76.8915 194.072L77.3555 193.016C77.7822 193.347 78.2248 193.592 78.6835 193.752C79.1528 193.901 79.6648 193.976 80.2195 193.976C80.7955 193.976 81.2328 193.88 81.5315 193.688C81.8408 193.485 81.9955 193.197 81.9955 192.824C81.9955 192.525 81.8888 192.291 81.6755 192.12C81.4728 191.939 81.1315 191.789 80.6515 191.672L79.3075 191.352C78.6142 191.203 78.0808 190.936 77.7075 190.552C77.3448 190.168 77.1635 189.704 77.1635 189.16C77.1635 188.691 77.2915 188.275 77.5475 187.912C77.8142 187.549 78.1822 187.267 78.6515 187.064C79.1208 186.851 79.6755 186.744 80.3155 186.744C80.8808 186.744 81.4142 186.835 81.9155 187.016C82.4275 187.197 82.8595 187.459 83.2115 187.8L82.7475 188.84C82.3635 188.52 81.9688 188.285 81.5635 188.136C81.1582 187.976 80.7368 187.896 80.2995 187.896C79.7555 187.896 79.3288 188.003 79.0195 188.216C78.7208 188.429 78.5715 188.717 78.5715 189.08C78.5715 189.389 78.6675 189.635 78.8595 189.816C79.0515 189.997 79.3555 190.141 79.7715 190.248L81.1315 190.584C81.8995 190.744 82.4648 191.011 82.8275 191.384C83.1902 191.747 83.3715 192.216 83.3715 192.792C83.3715 193.496 83.0835 194.061 82.5075 194.488C81.9315 194.904 81.1528 195.112 80.1715 195.112ZM89.5114 191.288V190.104H94.1034V191.288H89.5114ZM101.186 195V185.464H101.602L97.042 192.024L97.058 191.368H104.354V192.568H96.002V191.464L101.442 183.608H102.658V195H101.186ZM109.788 195.112C109.084 195.112 108.39 194.989 107.708 194.744C107.036 194.499 106.47 194.157 106.012 193.72L106.556 192.6C107.078 193.027 107.606 193.352 108.14 193.576C108.673 193.789 109.222 193.896 109.788 193.896C110.566 193.896 111.174 193.683 111.612 193.256C112.049 192.819 112.268 192.221 112.268 191.464C112.268 190.984 112.166 190.563 111.964 190.2C111.772 189.837 111.494 189.555 111.132 189.352C110.78 189.139 110.364 189.032 109.884 189.032C109.361 189.032 108.886 189.139 108.46 189.352C108.033 189.555 107.66 189.864 107.34 190.28H106.348V183.608H113.244V184.808H107.82V189.224L107.356 189.176C107.665 188.739 108.06 188.403 108.54 188.168C109.02 187.933 109.558 187.816 110.156 187.816C110.881 187.816 111.51 187.971 112.044 188.28C112.577 188.579 112.988 189 113.276 189.544C113.564 190.088 113.708 190.717 113.708 191.432C113.708 192.157 113.548 192.797 113.228 193.352C112.908 193.907 112.454 194.339 111.868 194.648C111.281 194.957 110.588 195.112 109.788 195.112ZM117.478 190.504C116.688 190.504 116.064 190.216 115.606 189.64C115.147 189.064 114.918 188.189 114.918 187.016C114.918 185.832 115.147 184.957 115.606 184.392C116.064 183.827 116.688 183.544 117.478 183.544C118.267 183.544 118.886 183.827 119.334 184.392C119.792 184.957 120.022 185.832 120.022 187.016C120.022 188.189 119.792 189.064 119.334 189.64C118.886 190.216 118.267 190.504 117.478 190.504ZM117.478 189.496C117.894 189.496 118.203 189.304 118.406 188.92C118.619 188.525 118.726 187.891 118.726 187.016C118.726 186.152 118.619 185.528 118.406 185.144C118.203 184.749 117.894 184.552 117.478 184.552C117.062 184.552 116.747 184.749 116.534 185.144C116.331 185.528 116.23 186.152 116.23 187.016C116.23 187.891 116.331 188.525 116.534 188.92C116.747 189.304 117.062 189.496 117.478 189.496ZM117.254 195L123.845 183.608H125.238L118.661 195H117.254ZM125.014 195.064C124.224 195.064 123.6 194.776 123.142 194.2C122.683 193.624 122.454 192.749 122.454 191.576C122.454 190.392 122.683 189.517 123.142 188.952C123.6 188.387 124.224 188.104 125.014 188.104C125.803 188.104 126.422 188.387 126.87 188.952C127.328 189.517 127.558 190.392 127.558 191.576C127.558 192.749 127.328 193.624 126.87 194.2C126.422 194.776 125.803 195.064 125.014 195.064ZM125.014 194.056C125.43 194.056 125.739 193.864 125.942 193.48C126.155 193.085 126.262 192.451 126.262 191.576C126.262 190.712 126.155 190.088 125.942 189.704C125.739 189.309 125.43 189.112 125.014 189.112C124.598 189.112 124.283 189.309 124.07 189.704C123.867 190.088 123.766 190.712 123.766 191.576C123.766 192.451 123.867 193.085 124.07 193.48C124.283 193.864 124.598 194.056 125.014 194.056Z" fill="#969EAC"/>
  <rect y="179" width="18" height="18" rx="2" fill="#29CFD6"/>
  <path d="M278.673 159.16C277.687 159.16 276.753 159 275.873 158.68C275.007 158.347 274.253 157.867 273.613 157.24L274.113 156.26C274.833 156.9 275.553 157.36 276.273 157.64C276.993 157.92 277.793 158.06 278.673 158.06C279.807 158.06 280.687 157.813 281.313 157.32C281.953 156.813 282.273 156.12 282.273 155.24C282.273 154.693 282.12 154.267 281.813 153.96C281.52 153.64 281.12 153.387 280.613 153.2C280.12 153.013 279.573 152.853 278.973 152.72C278.387 152.573 277.793 152.413 277.193 152.24C276.593 152.067 276.04 151.84 275.533 151.56C275.04 151.28 274.64 150.907 274.333 150.44C274.04 149.973 273.893 149.367 273.893 148.62C273.893 147.833 274.1 147.14 274.513 146.54C274.927 145.927 275.5 145.453 276.233 145.12C276.967 144.773 277.8 144.6 278.733 144.6C279.333 144.6 279.913 144.673 280.473 144.82C281.047 144.967 281.58 145.18 282.073 145.46C282.58 145.727 283.027 146.06 283.413 146.46L282.913 147.44C281.767 146.28 280.373 145.7 278.733 145.7C277.627 145.7 276.753 145.96 276.113 146.48C275.473 147 275.153 147.707 275.153 148.6C275.153 149.2 275.3 149.673 275.593 150.02C275.9 150.367 276.307 150.647 276.813 150.86C277.32 151.06 277.867 151.233 278.453 151.38C279.053 151.527 279.647 151.68 280.233 151.84C280.833 152 281.38 152.213 281.873 152.48C282.38 152.733 282.78 153.08 283.073 153.52C283.38 153.96 283.533 154.527 283.533 155.22C283.533 156.007 283.327 156.693 282.913 157.28C282.5 157.867 281.927 158.327 281.193 158.66C280.46 158.993 279.62 159.16 278.673 159.16ZM278.253 161.32V158.94L278.273 158.32V145.36L278.253 144.82V142.44H279.373V144.82L279.353 145.36V158.32L279.373 158.94V161.32H278.253ZM292.405 159V146.3H292.865L286.485 155.52L286.505 154.7H295.845V155.76H285.685V154.82L292.625 144.76H293.645V159H292.405ZM300.418 159H299.078L306.118 145.22L306.278 145.82H298.018V144.76H307.178V145.68L300.418 159ZM310.61 161.14L309.99 160.64C310.31 160.28 310.517 159.953 310.61 159.66C310.703 159.38 310.75 159.087 310.75 158.78L311.17 159H309.97V157.26H311.67V158.56C311.67 159.027 311.59 159.473 311.43 159.9C311.283 160.327 311.01 160.74 310.61 161.14ZM319.023 159.16C317.423 159.16 316.21 158.547 315.383 157.32C314.557 156.08 314.143 154.267 314.143 151.88C314.143 149.48 314.55 147.667 315.363 146.44C316.19 145.213 317.41 144.6 319.023 144.6C320.637 144.6 321.85 145.213 322.663 146.44C323.49 147.667 323.903 149.473 323.903 151.86C323.903 154.247 323.49 156.06 322.663 157.3C321.837 158.54 320.623 159.16 319.023 159.16ZM319.023 158.06C320.25 158.06 321.157 157.56 321.743 156.56C322.343 155.547 322.643 153.98 322.643 151.86C322.643 149.74 322.35 148.187 321.763 147.2C321.177 146.2 320.263 145.7 319.023 145.7C317.797 145.7 316.883 146.2 316.283 147.2C315.697 148.2 315.403 149.753 315.403 151.86C315.403 153.967 315.697 155.527 316.283 156.54C316.883 157.553 317.797 158.06 319.023 158.06ZM331.016 159.16C329.416 159.16 328.202 158.547 327.376 157.32C326.549 156.08 326.136 154.267 326.136 151.88C326.136 149.48 326.542 147.667 327.356 146.44C328.182 145.213 329.402 144.6 331.016 144.6C332.629 144.6 333.842 145.213 334.656 146.44C335.482 147.667 335.896 149.473 335.896 151.86C335.896 154.247 335.482 156.06 334.656 157.3C333.829 158.54 332.616 159.16 331.016 159.16ZM331.016 158.06C332.242 158.06 333.149 157.56 333.736 156.56C334.336 155.547 334.636 153.98 334.636 151.86C334.636 149.74 334.342 148.187 333.756 147.2C333.169 146.2 332.256 145.7 331.016 145.7C329.789 145.7 328.876 146.2 328.276 147.2C327.689 148.2 327.396 149.753 327.396 151.86C327.396 153.967 327.689 155.527 328.276 156.54C328.876 157.553 329.789 158.06 331.016 158.06ZM343.008 159.16C341.408 159.16 340.194 158.547 339.368 157.32C338.541 156.08 338.128 154.267 338.128 151.88C338.128 149.48 338.534 147.667 339.348 146.44C340.174 145.213 341.394 144.6 343.008 144.6C344.621 144.6 345.834 145.213 346.648 146.44C347.474 147.667 347.888 149.473 347.888 151.86C347.888 154.247 347.474 156.06 346.648 157.3C345.821 158.54 344.608 159.16 343.008 159.16ZM343.008 158.06C344.234 158.06 345.141 157.56 345.728 156.56C346.328 155.547 346.628 153.98 346.628 151.86C346.628 149.74 346.334 148.187 345.748 147.2C345.161 146.2 344.248 145.7 343.008 145.7C341.781 145.7 340.868 146.2 340.268 147.2C339.681 148.2 339.388 149.753 339.388 151.86C339.388 153.967 339.681 155.527 340.268 156.54C340.868 157.553 341.781 158.06 343.008 158.06Z" fill="#969EAC"/>
  <path d="M41.376 159V147.608H42.592L47.136 157.96H46.496L51.008 147.608H52.208V159H50.864V149.624L51.36 149.688L47.312 159H46.288L42.176 149.688L42.72 149.624L42.736 159H41.376ZM57.6581 159.112C56.6875 159.112 55.9568 158.845 55.4661 158.312C54.9861 157.768 54.7461 156.968 54.7461 155.912V150.952H56.2021V155.896C56.2021 156.589 56.3408 157.101 56.6181 157.432C56.9061 157.752 57.3435 157.912 57.9301 157.912C58.6128 157.912 59.1621 157.693 59.5781 157.256C59.9941 156.808 60.2021 156.216 60.2021 155.48V150.952H61.6741V159H60.2501V157.272L60.4421 157.192C60.2288 157.821 59.8715 158.301 59.3701 158.632C58.8688 158.952 58.2981 159.112 57.6581 159.112ZM62.987 152.072V150.952H68.267V152.072H62.987ZM68.235 157.736V158.952C68.0537 159.005 67.867 159.043 67.675 159.064C67.4937 159.096 67.2963 159.112 67.083 159.112C66.2937 159.112 65.6697 158.888 65.211 158.44C64.763 157.992 64.539 157.331 64.539 156.456V148.904L65.995 148.392V156.296C65.995 156.712 66.0537 157.037 66.171 157.272C66.299 157.496 66.4643 157.656 66.667 157.752C66.8803 157.837 67.1203 157.88 67.387 157.88C67.5363 157.88 67.675 157.869 67.803 157.848C67.931 157.827 68.075 157.789 68.235 157.736ZM72.6738 159.112C71.7031 159.112 70.9724 158.845 70.4818 158.312C70.0018 157.768 69.7618 156.968 69.7618 155.912V150.952H71.2178V155.896C71.2178 156.589 71.3564 157.101 71.6338 157.432C71.9218 157.752 72.3591 157.912 72.9458 157.912C73.6284 157.912 74.1778 157.693 74.5938 157.256C75.0098 156.808 75.2178 156.216 75.2178 155.48V150.952H76.6898V159H75.2658V157.272L75.4578 157.192C75.2444 157.821 74.8871 158.301 74.3858 158.632C73.8844 158.952 73.3138 159.112 72.6738 159.112ZM82.1946 159.112C81.4906 159.112 80.8666 158.947 80.3226 158.616C79.7893 158.275 79.3733 157.795 79.0746 157.176C78.776 156.547 78.6266 155.811 78.6266 154.968C78.6266 154.125 78.776 153.389 79.0746 152.76C79.384 152.131 79.8053 151.64 80.3386 151.288C80.8826 150.925 81.5013 150.744 82.1946 150.744C82.92 150.744 83.5386 150.925 84.0506 151.288C84.5626 151.64 84.9093 152.147 85.0906 152.808L84.8986 152.92V150.952H86.3386V159H84.8986V156.984L85.0906 157.064C84.9093 157.715 84.5626 158.221 84.0506 158.584C83.5386 158.936 82.92 159.112 82.1946 159.112ZM82.5146 157.928C83.2826 157.928 83.8693 157.672 84.2746 157.16C84.6906 156.637 84.8986 155.896 84.8986 154.936C84.8986 153.976 84.6906 153.24 84.2746 152.728C83.8586 152.205 83.272 151.944 82.5146 151.944C81.7573 151.944 81.1653 152.211 80.7386 152.744C80.312 153.277 80.0986 154.019 80.0986 154.968C80.0986 155.917 80.312 156.648 80.7386 157.16C81.1653 157.672 81.7573 157.928 82.5146 157.928ZM88.7629 159V147.224H90.2189V159H88.7629ZM97.0323 159V147.608H104.152V148.84H98.4883V152.6H103.832V153.832H98.4883V159H97.0323ZM108.627 159.112C107.656 159.112 106.926 158.845 106.435 158.312C105.955 157.768 105.715 156.968 105.715 155.912V150.952H107.171V155.896C107.171 156.589 107.31 157.101 107.587 157.432C107.875 157.752 108.312 157.912 108.899 157.912C109.582 157.912 110.131 157.693 110.547 157.256C110.963 156.808 111.171 156.216 111.171 155.48V150.952H112.643V159H111.219V157.272L111.411 157.192C111.198 157.821 110.84 158.301 110.339 158.632C109.838 158.952 109.267 159.112 108.627 159.112ZM115.06 159V153.208C115.06 152.835 115.049 152.461 115.028 152.088C115.017 151.704 114.985 151.325 114.932 150.952H116.308L116.452 152.6L116.292 152.696C116.526 152.067 116.9 151.587 117.412 151.256C117.934 150.915 118.532 150.744 119.204 150.744C121.134 150.744 122.1 151.816 122.1 153.96V159H120.644V154.04C120.644 153.315 120.5 152.787 120.212 152.456C119.934 152.115 119.486 151.944 118.868 151.944C118.153 151.944 117.582 152.168 117.156 152.616C116.729 153.053 116.516 153.645 116.516 154.392V159H115.06ZM131.714 159H130.274V156.872L130.466 157.064C130.284 157.715 129.938 158.221 129.426 158.584C128.914 158.936 128.295 159.112 127.57 159.112C126.876 159.112 126.258 158.941 125.714 158.6C125.18 158.248 124.759 157.757 124.45 157.128C124.151 156.488 124.002 155.747 124.002 154.904C124.002 154.061 124.151 153.331 124.45 152.712C124.748 152.083 125.164 151.597 125.698 151.256C126.242 150.915 126.866 150.744 127.57 150.744C128.295 150.744 128.914 150.925 129.426 151.288C129.938 151.651 130.284 152.152 130.466 152.792L130.258 152.984V147.224H131.714V159ZM127.89 157.928C128.647 157.928 129.234 157.672 129.65 157.16C130.066 156.637 130.274 155.896 130.274 154.936C130.274 153.987 130.066 153.251 129.65 152.728C129.244 152.205 128.658 151.944 127.89 151.944C127.132 151.944 126.54 152.205 126.114 152.728C125.687 153.24 125.474 153.965 125.474 154.904C125.474 155.864 125.687 156.611 126.114 157.144C126.54 157.667 127.132 157.928 127.89 157.928ZM136.906 159.112C135.53 159.112 134.437 158.765 133.626 158.072L134.09 157.016C134.517 157.347 134.959 157.592 135.418 157.752C135.887 157.901 136.399 157.976 136.954 157.976C137.53 157.976 137.967 157.88 138.266 157.688C138.575 157.485 138.73 157.197 138.73 156.824C138.73 156.525 138.623 156.291 138.41 156.12C138.207 155.939 137.866 155.789 137.386 155.672L136.042 155.352C135.349 155.203 134.815 154.936 134.442 154.552C134.079 154.168 133.898 153.704 133.898 153.16C133.898 152.691 134.026 152.275 134.282 151.912C134.549 151.549 134.917 151.267 135.386 151.064C135.855 150.851 136.41 150.744 137.05 150.744C137.615 150.744 138.149 150.835 138.65 151.016C139.162 151.197 139.594 151.459 139.946 151.8L139.482 152.84C139.098 152.52 138.703 152.285 138.298 152.136C137.893 151.976 137.471 151.896 137.034 151.896C136.49 151.896 136.063 152.003 135.754 152.216C135.455 152.429 135.306 152.717 135.306 153.08C135.306 153.389 135.402 153.635 135.594 153.816C135.786 153.997 136.09 154.141 136.506 154.248L137.866 154.584C138.634 154.744 139.199 155.011 139.562 155.384C139.925 155.747 140.106 156.216 140.106 156.792C140.106 157.496 139.818 158.061 139.242 158.488C138.666 158.904 137.887 159.112 136.906 159.112ZM146.246 155.288V154.104H150.838V155.288H146.246ZM153.264 159V157.88L157.232 153.528C157.744 152.952 158.118 152.435 158.352 151.976C158.598 151.507 158.72 151.037 158.72 150.568C158.72 149.971 158.544 149.512 158.192 149.192C157.84 148.861 157.344 148.696 156.704 148.696C156.16 148.696 155.622 148.808 155.088 149.032C154.555 149.245 154.027 149.565 153.504 149.992L152.96 148.872C153.408 148.445 153.974 148.109 154.656 147.864C155.35 147.608 156.043 147.48 156.736 147.48C157.451 147.48 158.064 147.603 158.576 147.848C159.088 148.083 159.488 148.429 159.776 148.888C160.064 149.336 160.208 149.869 160.208 150.488C160.208 151.139 160.059 151.763 159.76 152.36C159.472 152.957 158.992 153.629 158.32 154.376L154.56 158.424L154.432 157.768H160.672V159H153.264ZM166.378 159.128C165.066 159.128 164.069 158.637 163.386 157.656C162.703 156.664 162.362 155.213 162.362 153.304C162.362 151.395 162.698 149.949 163.37 148.968C164.053 147.976 165.055 147.48 166.378 147.48C167.701 147.48 168.698 147.976 169.37 148.968C170.053 149.949 170.394 151.389 170.394 153.288C170.394 155.197 170.053 156.648 169.37 157.64C168.687 158.632 167.69 159.128 166.378 159.128ZM166.378 157.912C167.242 157.912 167.877 157.539 168.282 156.792C168.698 156.045 168.906 154.877 168.906 153.288C168.906 151.699 168.698 150.541 168.282 149.816C167.877 149.08 167.242 148.712 166.378 148.712C165.514 148.712 164.874 149.08 164.458 149.816C164.053 150.552 163.85 151.709 163.85 153.288C163.85 154.877 164.053 156.045 164.458 156.792C164.874 157.539 165.514 157.912 166.378 157.912ZM174.212 154.504C173.423 154.504 172.799 154.216 172.34 153.64C171.881 153.064 171.652 152.189 171.652 151.016C171.652 149.832 171.881 148.957 172.34 148.392C172.799 147.827 173.423 147.544 174.212 147.544C175.001 147.544 175.62 147.827 176.068 148.392C176.527 148.957 176.756 149.832 176.756 151.016C176.756 152.189 176.527 153.064 176.068 153.64C175.62 154.216 175.001 154.504 174.212 154.504ZM174.212 153.496C174.628 153.496 174.937 153.304 175.14 152.92C175.353 152.525 175.46 151.891 175.46 151.016C175.46 150.152 175.353 149.528 175.14 149.144C174.937 148.749 174.628 148.552 174.212 148.552C173.796 148.552 173.481 148.749 173.268 149.144C173.065 149.528 172.964 150.152 172.964 151.016C172.964 151.891 173.065 152.525 173.268 152.92C173.481 153.304 173.796 153.496 174.212 153.496ZM173.988 159L180.58 147.608H181.972L175.396 159H173.988ZM181.748 159.064C180.959 159.064 180.335 158.776 179.876 158.2C179.417 157.624 179.188 156.749 179.188 155.576C179.188 154.392 179.417 153.517 179.876 152.952C180.335 152.387 180.959 152.104 181.748 152.104C182.537 152.104 183.156 152.387 183.604 152.952C184.063 153.517 184.292 154.392 184.292 155.576C184.292 156.749 184.063 157.624 183.604 158.2C183.156 158.776 182.537 159.064 181.748 159.064ZM181.748 158.056C182.164 158.056 182.473 157.864 182.676 157.48C182.889 157.085 182.996 156.451 182.996 155.576C182.996 154.712 182.889 154.088 182.676 153.704C182.473 153.309 182.164 153.112 181.748 153.112C181.332 153.112 181.017 153.309 180.804 153.704C180.601 154.088 180.5 154.712 180.5 155.576C180.5 156.451 180.601 157.085 180.804 157.48C181.017 157.864 181.332 158.056 181.748 158.056Z" fill="#969EAC"/>
  <rect y="143" width="18" height="18" rx="2" fill="#FFBC02"/>
  <path d="M278.673 123.16C277.687 123.16 276.753 123 275.873 122.68C275.007 122.347 274.253 121.867 273.613 121.24L274.113 120.26C274.833 120.9 275.553 121.36 276.273 121.64C276.993 121.92 277.793 122.06 278.673 122.06C279.807 122.06 280.687 121.813 281.313 121.32C281.953 120.813 282.273 120.12 282.273 119.24C282.273 118.693 282.12 118.267 281.813 117.96C281.52 117.64 281.12 117.387 280.613 117.2C280.12 117.013 279.573 116.853 278.973 116.72C278.387 116.573 277.793 116.413 277.193 116.24C276.593 116.067 276.04 115.84 275.533 115.56C275.04 115.28 274.64 114.907 274.333 114.44C274.04 113.973 273.893 113.367 273.893 112.62C273.893 111.833 274.1 111.14 274.513 110.54C274.927 109.927 275.5 109.453 276.233 109.12C276.967 108.773 277.8 108.6 278.733 108.6C279.333 108.6 279.913 108.673 280.473 108.82C281.047 108.967 281.58 109.18 282.073 109.46C282.58 109.727 283.027 110.06 283.413 110.46L282.913 111.44C281.767 110.28 280.373 109.7 278.733 109.7C277.627 109.7 276.753 109.96 276.113 110.48C275.473 111 275.153 111.707 275.153 112.6C275.153 113.2 275.3 113.673 275.593 114.02C275.9 114.367 276.307 114.647 276.813 114.86C277.32 115.06 277.867 115.233 278.453 115.38C279.053 115.527 279.647 115.68 280.233 115.84C280.833 116 281.38 116.213 281.873 116.48C282.38 116.733 282.78 117.08 283.073 117.52C283.38 117.96 283.533 118.527 283.533 119.22C283.533 120.007 283.327 120.693 282.913 121.28C282.5 121.867 281.927 122.327 281.193 122.66C280.46 122.993 279.62 123.16 278.673 123.16ZM278.253 125.32V122.94L278.273 122.32V109.36L278.253 108.82V106.44H279.373V108.82L279.353 109.36V122.32L279.373 122.94V125.32H278.253ZM290.925 123.14C290.072 123.14 289.232 122.98 288.405 122.66C287.579 122.34 286.872 121.893 286.285 121.32L286.805 120.34C287.459 120.9 288.125 121.327 288.805 121.62C289.485 121.913 290.192 122.06 290.925 122.06C291.965 122.06 292.785 121.753 293.385 121.14C293.999 120.513 294.305 119.68 294.305 118.64C294.305 117.973 294.172 117.387 293.905 116.88C293.639 116.36 293.259 115.96 292.765 115.68C292.285 115.387 291.712 115.24 291.045 115.24C290.299 115.24 289.645 115.393 289.085 115.7C288.525 115.993 288.039 116.453 287.625 117.08H286.665V108.76H295.025V109.82H287.905V116.08L287.505 116.02C287.879 115.433 288.379 114.973 289.005 114.64C289.632 114.307 290.339 114.14 291.125 114.14C292.045 114.14 292.832 114.333 293.485 114.72C294.152 115.093 294.659 115.62 295.005 116.3C295.365 116.98 295.545 117.76 295.545 118.64C295.545 119.52 295.359 120.3 294.985 120.98C294.612 121.66 294.079 122.193 293.385 122.58C292.692 122.953 291.872 123.14 290.925 123.14ZM302.598 123.14C301.571 123.14 300.684 122.987 299.938 122.68C299.191 122.36 298.611 121.913 298.198 121.34C297.798 120.753 297.598 120.06 297.598 119.26C297.598 118.273 297.931 117.453 298.598 116.8C299.278 116.133 300.178 115.72 301.298 115.56L301.178 115.84C300.124 115.64 299.318 115.233 298.758 114.62C298.198 113.993 297.918 113.24 297.918 112.36C297.918 111.6 298.111 110.94 298.498 110.38C298.898 109.82 299.444 109.387 300.138 109.08C300.844 108.76 301.664 108.6 302.598 108.6C303.531 108.6 304.344 108.76 305.038 109.08C305.744 109.387 306.291 109.82 306.678 110.38C307.078 110.94 307.278 111.6 307.278 112.36C307.278 113.24 306.998 113.993 306.438 114.62C305.878 115.233 305.078 115.64 304.038 115.84L303.898 115.56C305.071 115.707 305.978 116.113 306.618 116.78C307.271 117.447 307.598 118.273 307.598 119.26C307.598 120.06 307.391 120.753 306.978 121.34C306.578 121.913 306.004 122.36 305.258 122.68C304.511 122.987 303.624 123.14 302.598 123.14ZM302.598 122.06C303.811 122.06 304.738 121.82 305.378 121.34C306.018 120.847 306.338 120.133 306.338 119.2C306.338 118.32 305.984 117.633 305.278 117.14C304.584 116.647 303.691 116.347 302.598 116.24C301.504 116.347 300.604 116.647 299.898 117.14C299.204 117.633 298.858 118.32 298.858 119.2C298.858 120.133 299.178 120.847 299.818 121.34C300.458 121.82 301.384 122.06 302.598 122.06ZM302.598 115.32C303.624 115.227 304.451 114.927 305.078 114.42C305.704 113.913 306.018 113.247 306.018 112.42C306.018 111.567 305.718 110.9 305.118 110.42C304.518 109.927 303.678 109.68 302.598 109.68C301.518 109.68 300.678 109.927 300.078 110.42C299.478 110.9 299.178 111.567 299.178 112.42C299.178 113.247 299.491 113.913 300.118 114.42C300.744 114.927 301.571 115.227 302.598 115.32ZM310.61 125.14L309.99 124.64C310.31 124.28 310.517 123.953 310.61 123.66C310.703 123.38 310.75 123.087 310.75 122.78L311.17 123H309.97V121.26H311.67V122.56C311.67 123.027 311.59 123.473 311.43 123.9C311.283 124.327 311.01 124.74 310.61 125.14ZM316.843 123H315.503L322.543 109.22L322.703 109.82H314.443V108.76H323.603V109.68L316.843 123ZM331.336 123.14C330.482 123.14 329.642 122.98 328.816 122.66C327.989 122.34 327.282 121.893 326.696 121.32L327.216 120.34C327.869 120.9 328.536 121.327 329.216 121.62C329.896 121.913 330.602 122.06 331.336 122.06C332.376 122.06 333.196 121.753 333.796 121.14C334.409 120.513 334.716 119.68 334.716 118.64C334.716 117.973 334.582 117.387 334.316 116.88C334.049 116.36 333.669 115.96 333.176 115.68C332.696 115.387 332.122 115.24 331.456 115.24C330.709 115.24 330.056 115.393 329.496 115.7C328.936 115.993 328.449 116.453 328.036 117.08H327.076V108.76H335.436V109.82H328.316V116.08L327.916 116.02C328.289 115.433 328.789 114.973 329.416 114.64C330.042 114.307 330.749 114.14 331.536 114.14C332.456 114.14 333.242 114.333 333.896 114.72C334.562 115.093 335.069 115.62 335.416 116.3C335.776 116.98 335.956 117.76 335.956 118.64C335.956 119.52 335.769 120.3 335.396 120.98C335.022 121.66 334.489 122.193 333.796 122.58C333.102 122.953 332.282 123.14 331.336 123.14ZM343.008 123.16C341.408 123.16 340.194 122.547 339.368 121.32C338.541 120.08 338.128 118.267 338.128 115.88C338.128 113.48 338.534 111.667 339.348 110.44C340.174 109.213 341.394 108.6 343.008 108.6C344.621 108.6 345.834 109.213 346.648 110.44C347.474 111.667 347.888 113.473 347.888 115.86C347.888 118.247 347.474 120.06 346.648 121.3C345.821 122.54 344.608 123.16 343.008 123.16ZM343.008 122.06C344.234 122.06 345.141 121.56 345.728 120.56C346.328 119.547 346.628 117.98 346.628 115.86C346.628 113.74 346.334 112.187 345.748 111.2C345.161 110.2 344.248 109.7 343.008 109.7C341.781 109.7 340.868 110.2 340.268 111.2C339.681 112.2 339.388 113.753 339.388 115.86C339.388 117.967 339.681 119.527 340.268 120.54C340.868 121.553 341.781 122.06 343.008 122.06Z" fill="#969EAC"/>
  <path d="M41.376 123V111.608H46.048C47.2 111.608 48.1013 111.869 48.752 112.392C49.4133 112.904 49.744 113.635 49.744 114.584C49.744 115.245 49.5627 115.805 49.2 116.264C48.848 116.712 48.3573 117.032 47.728 117.224V117.096C48.4427 117.235 49.0027 117.549 49.408 118.04C49.8133 118.531 50.016 119.149 50.016 119.896C50.016 120.888 49.68 121.656 49.008 122.2C48.3467 122.733 47.408 123 46.192 123H41.376ZM42.832 121.8H46.064C46.928 121.8 47.5627 121.64 47.968 121.32C48.3733 121 48.576 120.504 48.576 119.832C48.576 119.16 48.368 118.659 47.952 118.328C47.5467 117.997 46.9173 117.832 46.064 117.832H42.832V121.8ZM42.832 116.6H45.808C46.64 116.6 47.264 116.44 47.68 116.12C48.096 115.8 48.304 115.32 48.304 114.68C48.304 114.061 48.096 113.597 47.68 113.288C47.2747 112.968 46.6507 112.808 45.808 112.808H42.832V116.6ZM55.5299 123.112C54.7512 123.112 54.0685 122.941 53.4819 122.6C52.9059 122.259 52.4579 121.779 52.1379 121.16C51.8179 120.531 51.6579 119.789 51.6579 118.936C51.6579 118.093 51.8179 117.357 52.1379 116.728C52.4579 116.088 52.9059 115.597 53.4819 115.256C54.0685 114.915 54.7512 114.744 55.5299 114.744C56.3192 114.744 57.0019 114.915 57.5779 115.256C58.1539 115.597 58.6019 116.088 58.9219 116.728C59.2419 117.357 59.4019 118.093 59.4019 118.936C59.4019 119.789 59.2419 120.531 58.9219 121.16C58.6019 121.779 58.1539 122.259 57.5779 122.6C57.0019 122.941 56.3192 123.112 55.5299 123.112ZM55.5299 121.928C56.2979 121.928 56.8899 121.677 57.3059 121.176C57.7219 120.664 57.9299 119.917 57.9299 118.936C57.9299 117.965 57.7165 117.224 57.2899 116.712C56.8739 116.2 56.2872 115.944 55.5299 115.944C54.7832 115.944 54.1965 116.2 53.7699 116.712C53.3432 117.224 53.1299 117.965 53.1299 118.936C53.1299 119.917 53.3379 120.664 53.7539 121.176C54.1699 121.677 54.7619 121.928 55.5299 121.928ZM61.3723 123V117.208C61.3723 116.835 61.3616 116.461 61.3403 116.088C61.3296 115.704 61.2976 115.325 61.2443 114.952H62.6203L62.7643 116.6L62.6043 116.696C62.8389 116.067 63.2123 115.587 63.7243 115.256C64.2469 114.915 64.8443 114.744 65.5163 114.744C67.4469 114.744 68.4123 115.816 68.4123 117.96V123H66.9563V118.04C66.9563 117.315 66.8123 116.787 66.5243 116.456C66.2469 116.115 65.7989 115.944 65.1803 115.944C64.4656 115.944 63.8949 116.168 63.4683 116.616C63.0416 117.053 62.8283 117.645 62.8283 118.392V123H61.3723ZM78.0261 123H76.5861V120.872L76.7781 121.064C76.5968 121.715 76.2501 122.221 75.7381 122.584C75.2261 122.936 74.6075 123.112 73.8821 123.112C73.1888 123.112 72.5701 122.941 72.0261 122.6C71.4928 122.248 71.0715 121.757 70.7621 121.128C70.4635 120.488 70.3141 119.747 70.3141 118.904C70.3141 118.061 70.4635 117.331 70.7621 116.712C71.0608 116.083 71.4768 115.597 72.0101 115.256C72.5541 114.915 73.1781 114.744 73.8821 114.744C74.6075 114.744 75.2261 114.925 75.7381 115.288C76.2501 115.651 76.5968 116.152 76.7781 116.792L76.5701 116.984V111.224H78.0261V123ZM74.2021 121.928C74.9595 121.928 75.5461 121.672 75.9621 121.16C76.3781 120.637 76.5861 119.896 76.5861 118.936C76.5861 117.987 76.3781 117.251 75.9621 116.728C75.5568 116.205 74.9701 115.944 74.2021 115.944C73.4448 115.944 72.8528 116.205 72.4261 116.728C71.9995 117.24 71.7861 117.965 71.7861 118.904C71.7861 119.864 71.9995 120.611 72.4261 121.144C72.8528 121.667 73.4448 121.928 74.2021 121.928ZM83.2184 123.112C81.8424 123.112 80.749 122.765 79.9384 122.072L80.4024 121.016C80.829 121.347 81.2717 121.592 81.7304 121.752C82.1997 121.901 82.7117 121.976 83.2664 121.976C83.8424 121.976 84.2797 121.88 84.5784 121.688C84.8877 121.485 85.0424 121.197 85.0424 120.824C85.0424 120.525 84.9357 120.291 84.7224 120.12C84.5197 119.939 84.1784 119.789 83.6984 119.672L82.3544 119.352C81.661 119.203 81.1277 118.936 80.7544 118.552C80.3917 118.168 80.2104 117.704 80.2104 117.16C80.2104 116.691 80.3384 116.275 80.5944 115.912C80.861 115.549 81.229 115.267 81.6984 115.064C82.1677 114.851 82.7224 114.744 83.3624 114.744C83.9277 114.744 84.461 114.835 84.9624 115.016C85.4744 115.197 85.9064 115.459 86.2584 115.8L85.7944 116.84C85.4104 116.52 85.0157 116.285 84.6104 116.136C84.205 115.976 83.7837 115.896 83.3464 115.896C82.8024 115.896 82.3757 116.003 82.0664 116.216C81.7677 116.429 81.6184 116.717 81.6184 117.08C81.6184 117.389 81.7144 117.635 81.9064 117.816C82.0984 117.997 82.4024 118.141 82.8184 118.248L84.1784 118.584C84.9464 118.744 85.5117 119.011 85.8744 119.384C86.237 119.747 86.4184 120.216 86.4184 120.792C86.4184 121.496 86.1304 122.061 85.5544 122.488C84.9784 122.904 84.1997 123.112 83.2184 123.112ZM92.5583 119.288V118.104H97.1503V119.288H92.5583ZM99.5769 123V121.88L103.545 117.528C104.057 116.952 104.43 116.435 104.665 115.976C104.91 115.507 105.033 115.037 105.033 114.568C105.033 113.971 104.857 113.512 104.505 113.192C104.153 112.861 103.657 112.696 103.017 112.696C102.473 112.696 101.934 112.808 101.401 113.032C100.868 113.245 100.34 113.565 99.8169 113.992L99.2729 112.872C99.7209 112.445 100.286 112.109 100.969 111.864C101.662 111.608 102.356 111.48 103.049 111.48C103.764 111.48 104.377 111.603 104.889 111.848C105.401 112.083 105.801 112.429 106.089 112.888C106.377 113.336 106.521 113.869 106.521 114.488C106.521 115.139 106.372 115.763 106.073 116.36C105.785 116.957 105.305 117.629 104.633 118.376L100.873 122.424L100.745 121.768H106.985V123H99.5769ZM112.835 123.112C112.131 123.112 111.437 122.989 110.755 122.744C110.083 122.499 109.517 122.157 109.059 121.72L109.603 120.6C110.125 121.027 110.653 121.352 111.187 121.576C111.72 121.789 112.269 121.896 112.835 121.896C113.613 121.896 114.221 121.683 114.659 121.256C115.096 120.819 115.315 120.221 115.315 119.464C115.315 118.984 115.213 118.563 115.011 118.2C114.819 117.837 114.541 117.555 114.179 117.352C113.827 117.139 113.411 117.032 112.931 117.032C112.408 117.032 111.933 117.139 111.507 117.352C111.08 117.555 110.707 117.864 110.387 118.28H109.395V111.608H116.291V112.808H110.867V117.224L110.403 117.176C110.712 116.739 111.107 116.403 111.587 116.168C112.067 115.933 112.605 115.816 113.203 115.816C113.928 115.816 114.557 115.971 115.091 116.28C115.624 116.579 116.035 117 116.323 117.544C116.611 118.088 116.755 118.717 116.755 119.432C116.755 120.157 116.595 120.797 116.275 121.352C115.955 121.907 115.501 122.339 114.915 122.648C114.328 122.957 113.635 123.112 112.835 123.112ZM120.524 118.504C119.735 118.504 119.111 118.216 118.652 117.64C118.194 117.064 117.964 116.189 117.964 115.016C117.964 113.832 118.194 112.957 118.652 112.392C119.111 111.827 119.735 111.544 120.524 111.544C121.314 111.544 121.932 111.827 122.38 112.392C122.839 112.957 123.068 113.832 123.068 115.016C123.068 116.189 122.839 117.064 122.38 117.64C121.932 118.216 121.314 118.504 120.524 118.504ZM120.524 117.496C120.94 117.496 121.25 117.304 121.452 116.92C121.666 116.525 121.772 115.891 121.772 115.016C121.772 114.152 121.666 113.528 121.452 113.144C121.25 112.749 120.94 112.552 120.524 112.552C120.108 112.552 119.794 112.749 119.58 113.144C119.378 113.528 119.276 114.152 119.276 115.016C119.276 115.891 119.378 116.525 119.58 116.92C119.794 117.304 120.108 117.496 120.524 117.496ZM120.3 123L126.892 111.608H128.284L121.708 123H120.3ZM128.06 123.064C127.271 123.064 126.647 122.776 126.188 122.2C125.73 121.624 125.5 120.749 125.5 119.576C125.5 118.392 125.73 117.517 126.188 116.952C126.647 116.387 127.271 116.104 128.06 116.104C128.85 116.104 129.468 116.387 129.916 116.952C130.375 117.517 130.604 118.392 130.604 119.576C130.604 120.749 130.375 121.624 129.916 122.2C129.468 122.776 128.85 123.064 128.06 123.064ZM128.06 122.056C128.476 122.056 128.786 121.864 128.988 121.48C129.202 121.085 129.308 120.451 129.308 119.576C129.308 118.712 129.202 118.088 128.988 117.704C128.786 117.309 128.476 117.112 128.06 117.112C127.644 117.112 127.33 117.309 127.116 117.704C126.914 118.088 126.812 118.712 126.812 119.576C126.812 120.451 126.914 121.085 127.116 121.48C127.33 121.864 127.644 122.056 128.06 122.056Z" fill="#969EAC"/>
  <rect y="107" width="18" height="18" rx="2" fill="#1F32AD"/>
  <path d="M278.673 87.16C277.687 87.16 276.753 87 275.873 86.68C275.007 86.3467 274.253 85.8667 273.613 85.24L274.113 84.26C274.833 84.9 275.553 85.36 276.273 85.64C276.993 85.92 277.793 86.06 278.673 86.06C279.807 86.06 280.687 85.8133 281.313 85.32C281.953 84.8133 282.273 84.12 282.273 83.24C282.273 82.6933 282.12 82.2667 281.813 81.96C281.52 81.64 281.12 81.3867 280.613 81.2C280.12 81.0133 279.573 80.8533 278.973 80.72C278.387 80.5733 277.793 80.4133 277.193 80.24C276.593 80.0667 276.04 79.84 275.533 79.56C275.04 79.28 274.64 78.9067 274.333 78.44C274.04 77.9733 273.893 77.3667 273.893 76.62C273.893 75.8333 274.1 75.14 274.513 74.54C274.927 73.9267 275.5 73.4533 276.233 73.12C276.967 72.7733 277.8 72.6 278.733 72.6C279.333 72.6 279.913 72.6733 280.473 72.82C281.047 72.9667 281.58 73.18 282.073 73.46C282.58 73.7267 283.027 74.06 283.413 74.46L282.913 75.44C281.767 74.28 280.373 73.7 278.733 73.7C277.627 73.7 276.753 73.96 276.113 74.48C275.473 75 275.153 75.7067 275.153 76.6C275.153 77.2 275.3 77.6733 275.593 78.02C275.9 78.3667 276.307 78.6467 276.813 78.86C277.32 79.06 277.867 79.2333 278.453 79.38C279.053 79.5267 279.647 79.68 280.233 79.84C280.833 80 281.38 80.2133 281.873 80.48C282.38 80.7333 282.78 81.08 283.073 81.52C283.38 81.96 283.533 82.5267 283.533 83.22C283.533 84.0067 283.327 84.6933 282.913 85.28C282.5 85.8667 281.927 86.3267 281.193 86.66C280.46 86.9933 279.62 87.16 278.673 87.16ZM278.253 89.32V86.94L278.273 86.32V73.36L278.253 72.82V70.44H279.373V72.82L279.353 73.36V86.32L279.373 86.94V89.32H278.253ZM288.425 87H287.085L294.125 73.22L294.285 73.82H286.025V72.76H295.185V73.68L288.425 87ZM302.598 87.16C300.998 87.16 299.784 86.5467 298.958 85.32C298.131 84.08 297.718 82.2667 297.718 79.88C297.718 77.48 298.124 75.6667 298.938 74.44C299.764 73.2133 300.984 72.6 302.598 72.6C304.211 72.6 305.424 73.2133 306.238 74.44C307.064 75.6667 307.478 77.4733 307.478 79.86C307.478 82.2467 307.064 84.06 306.238 85.3C305.411 86.54 304.198 87.16 302.598 87.16ZM302.598 86.06C303.824 86.06 304.731 85.56 305.318 84.56C305.918 83.5467 306.218 81.98 306.218 79.86C306.218 77.74 305.924 76.1867 305.338 75.2C304.751 74.2 303.838 73.7 302.598 73.7C301.371 73.7 300.458 74.2 299.858 75.2C299.271 76.2 298.978 77.7533 298.978 79.86C298.978 81.9667 299.271 83.5267 299.858 84.54C300.458 85.5533 301.371 86.06 302.598 86.06ZM310.61 89.14L309.99 88.64C310.31 88.28 310.517 87.9533 310.61 87.66C310.703 87.38 310.75 87.0867 310.75 86.78L311.17 87H309.97V85.26H311.67V86.56C311.67 87.0267 311.59 87.4733 311.43 87.9C311.283 88.3267 311.01 88.74 310.61 89.14ZM319.343 87.14C318.49 87.14 317.65 86.98 316.823 86.66C315.997 86.34 315.29 85.8933 314.703 85.32L315.223 84.34C315.877 84.9 316.543 85.3267 317.223 85.62C317.903 85.9133 318.61 86.06 319.343 86.06C320.383 86.06 321.203 85.7533 321.803 85.14C322.417 84.5133 322.723 83.68 322.723 82.64C322.723 81.9733 322.59 81.3867 322.323 80.88C322.057 80.36 321.677 79.96 321.183 79.68C320.703 79.3867 320.13 79.24 319.463 79.24C318.717 79.24 318.063 79.3933 317.503 79.7C316.943 79.9933 316.457 80.4533 316.043 81.08H315.083V72.76H323.443V73.82H316.323V80.08L315.923 80.02C316.297 79.4333 316.797 78.9733 317.423 78.64C318.05 78.3067 318.757 78.14 319.543 78.14C320.463 78.14 321.25 78.3333 321.903 78.72C322.57 79.0933 323.077 79.62 323.423 80.3C323.783 80.98 323.963 81.76 323.963 82.64C323.963 83.52 323.777 84.3 323.403 84.98C323.03 85.66 322.497 86.1933 321.803 86.58C321.11 86.9533 320.29 87.14 319.343 87.14ZM331.016 87.16C329.416 87.16 328.202 86.5467 327.376 85.32C326.549 84.08 326.136 82.2667 326.136 79.88C326.136 77.48 326.542 75.6667 327.356 74.44C328.182 73.2133 329.402 72.6 331.016 72.6C332.629 72.6 333.842 73.2133 334.656 74.44C335.482 75.6667 335.896 77.4733 335.896 79.86C335.896 82.2467 335.482 84.06 334.656 85.3C333.829 86.54 332.616 87.16 331.016 87.16ZM331.016 86.06C332.242 86.06 333.149 85.56 333.736 84.56C334.336 83.5467 334.636 81.98 334.636 79.86C334.636 77.74 334.342 76.1867 333.756 75.2C333.169 74.2 332.256 73.7 331.016 73.7C329.789 73.7 328.876 74.2 328.276 75.2C327.689 76.2 327.396 77.7533 327.396 79.86C327.396 81.9667 327.689 83.5267 328.276 84.54C328.876 85.5533 329.789 86.06 331.016 86.06ZM343.008 87.16C341.408 87.16 340.194 86.5467 339.368 85.32C338.541 84.08 338.128 82.2667 338.128 79.88C338.128 77.48 338.534 75.6667 339.348 74.44C340.174 73.2133 341.394 72.6 343.008 72.6C344.621 72.6 345.834 73.2133 346.648 74.44C347.474 75.6667 347.888 77.4733 347.888 79.86C347.888 82.2467 347.474 84.06 346.648 85.3C345.821 86.54 344.608 87.16 343.008 87.16ZM343.008 86.06C344.234 86.06 345.141 85.56 345.728 84.56C346.328 83.5467 346.628 81.98 346.628 79.86C346.628 77.74 346.334 76.1867 345.748 75.2C345.161 74.2 344.248 73.7 343.008 73.7C341.781 73.7 340.868 74.2 340.268 75.2C339.681 76.2 339.388 77.7533 339.388 79.86C339.388 81.9667 339.681 83.5267 340.268 84.54C340.868 85.5533 341.781 86.06 343.008 86.06Z" fill="#969EAC"/>
  <path d="M45.04 87.128C44.4533 87.128 43.8987 87.08 43.376 86.984C42.864 86.8773 42.384 86.7173 41.936 86.504C41.4987 86.2907 41.104 86.024 40.752 85.704L41.296 84.584C41.8613 85.0533 42.4373 85.3893 43.024 85.592C43.6107 85.7947 44.288 85.896 45.056 85.896C45.9413 85.896 46.624 85.7253 47.104 85.384C47.584 85.0427 47.824 84.5627 47.824 83.944C47.824 83.5707 47.7067 83.272 47.472 83.048C47.2373 82.8133 46.9067 82.6267 46.48 82.488C46.064 82.3387 45.584 82.2 45.04 82.072C44.464 81.9547 43.9253 81.816 43.424 81.656C42.9333 81.496 42.5013 81.2987 42.128 81.064C41.7547 80.8187 41.4667 80.5147 41.264 80.152C41.0613 79.7893 40.96 79.3413 40.96 78.808C40.96 78.1573 41.1307 77.5813 41.472 77.08C41.824 76.5787 42.3147 76.1893 42.944 75.912C43.5733 75.624 44.3147 75.48 45.168 75.48C45.6907 75.48 46.192 75.5387 46.672 75.656C47.1627 75.7627 47.616 75.9227 48.032 76.136C48.448 76.3387 48.8107 76.5947 49.12 76.904L48.576 78.024C48.0533 77.576 47.5147 77.2453 46.96 77.032C46.4053 76.8187 45.808 76.712 45.168 76.712C44.3147 76.712 43.6427 76.8933 43.152 77.256C42.672 77.608 42.432 78.104 42.432 78.744C42.432 79.1387 42.5387 79.4587 42.752 79.704C42.9653 79.9493 43.2693 80.1467 43.664 80.296C44.0587 80.4453 44.528 80.584 45.072 80.712C45.648 80.84 46.192 80.984 46.704 81.144C47.216 81.304 47.664 81.496 48.048 81.72C48.4427 81.944 48.752 82.232 48.976 82.584C49.2 82.9253 49.312 83.3573 49.312 83.88C49.312 84.5413 49.1413 85.1173 48.8 85.608C48.4587 86.088 47.968 86.4613 47.328 86.728C46.688 86.9947 45.9253 87.128 45.04 87.128ZM50.0964 80.072V78.952H55.3764V80.072H50.0964ZM55.3444 85.736V86.952C55.163 87.0053 54.9764 87.0427 54.7844 87.064C54.603 87.096 54.4057 87.112 54.1924 87.112C53.403 87.112 52.779 86.888 52.3204 86.44C51.8724 85.992 51.6484 85.3307 51.6484 84.456V76.904L53.1044 76.392V84.296C53.1044 84.712 53.163 85.0373 53.2804 85.272C53.4084 85.496 53.5737 85.656 53.7764 85.752C53.9897 85.8373 54.2297 85.88 54.4964 85.88C54.6457 85.88 54.7844 85.8693 54.9124 85.848C55.0404 85.8267 55.1844 85.7893 55.3444 85.736ZM60.3111 87.112C59.5325 87.112 58.8498 86.9413 58.2631 86.6C57.6871 86.2587 57.2391 85.7787 56.9191 85.16C56.5991 84.5307 56.4391 83.7893 56.4391 82.936C56.4391 82.0933 56.5991 81.3573 56.9191 80.728C57.2391 80.088 57.6871 79.5973 58.2631 79.256C58.8498 78.9147 59.5325 78.744 60.3111 78.744C61.1005 78.744 61.7831 78.9147 62.3591 79.256C62.9351 79.5973 63.3831 80.088 63.7031 80.728C64.0231 81.3573 64.1831 82.0933 64.1831 82.936C64.1831 83.7893 64.0231 84.5307 63.7031 85.16C63.3831 85.7787 62.9351 86.2587 62.3591 86.6C61.7831 86.9413 61.1005 87.112 60.3111 87.112ZM60.3111 85.928C61.0791 85.928 61.6711 85.6773 62.0871 85.176C62.5031 84.664 62.7111 83.9173 62.7111 82.936C62.7111 81.9653 62.4978 81.224 62.0711 80.712C61.6551 80.2 61.0685 79.944 60.3111 79.944C59.5645 79.944 58.9778 80.2 58.5511 80.712C58.1245 81.224 57.9111 81.9653 57.9111 82.936C57.9111 83.9173 58.1191 84.664 58.5351 85.176C58.9511 85.6773 59.5431 85.928 60.3111 85.928ZM69.5935 87.112C68.7828 87.112 68.0842 86.9413 67.4975 86.6C66.9215 86.2587 66.4735 85.7787 66.1535 85.16C65.8335 84.5413 65.6735 83.8107 65.6735 82.968C65.6735 82.136 65.8335 81.4 66.1535 80.76C66.4842 80.12 66.9482 79.624 67.5455 79.272C68.1428 78.92 68.8468 78.744 69.6575 78.744C70.2122 78.744 70.7455 78.84 71.2575 79.032C71.7695 79.2133 72.1908 79.4693 72.5215 79.8L72.0575 80.856C71.6735 80.5573 71.2895 80.3333 70.9055 80.184C70.5322 80.024 70.1428 79.944 69.7375 79.944C68.9588 79.944 68.3348 80.2053 67.8655 80.728C67.4068 81.2507 67.1775 81.9973 67.1775 82.968C67.1775 83.9173 67.4068 84.648 67.8655 85.16C68.3242 85.672 68.9535 85.928 69.7535 85.928C70.1375 85.928 70.5215 85.8533 70.9055 85.704C71.2895 85.5547 71.6735 85.3253 72.0575 85.016L72.5215 86.072C72.1802 86.392 71.7482 86.648 71.2255 86.84C70.7028 87.0213 70.1588 87.112 69.5935 87.112ZM79.5466 87L75.2746 82.888L79.2426 78.968H81.0666L76.6506 83.272L76.7146 82.424L81.4186 87H79.5466ZM74.1066 87V75.224H75.5626V87H74.1066ZM85.109 87.112C83.733 87.112 82.6397 86.7653 81.829 86.072L82.293 85.016C82.7197 85.3467 83.1623 85.592 83.621 85.752C84.0903 85.9013 84.6023 85.976 85.157 85.976C85.733 85.976 86.1703 85.88 86.469 85.688C86.7783 85.4853 86.933 85.1973 86.933 84.824C86.933 84.5253 86.8263 84.2907 86.613 84.12C86.4103 83.9387 86.069 83.7893 85.589 83.672L84.245 83.352C83.5517 83.2027 83.0183 82.936 82.645 82.552C82.2823 82.168 82.101 81.704 82.101 81.16C82.101 80.6907 82.229 80.2747 82.485 79.912C82.7517 79.5493 83.1197 79.2667 83.589 79.064C84.0583 78.8507 84.613 78.744 85.253 78.744C85.8183 78.744 86.3517 78.8347 86.853 79.016C87.365 79.1973 87.797 79.4587 88.149 79.8L87.685 80.84C87.301 80.52 86.9063 80.2853 86.501 80.136C86.0957 79.976 85.6743 79.896 85.237 79.896C84.693 79.896 84.2663 80.0027 83.957 80.216C83.6583 80.4293 83.509 80.7173 83.509 81.08C83.509 81.3893 83.605 81.6347 83.797 81.816C83.989 81.9973 84.293 82.1413 84.709 82.248L86.069 82.584C86.837 82.744 87.4023 83.0107 87.765 83.384C88.1277 83.7467 88.309 84.216 88.309 84.792C88.309 85.496 88.021 86.0613 87.445 86.488C86.869 86.904 86.0903 87.112 85.109 87.112ZM94.4489 83.288V82.104H99.0409V83.288H94.4489ZM104.86 87.112C104.113 87.112 103.398 86.9947 102.716 86.76C102.033 86.5147 101.457 86.168 100.988 85.72L101.548 84.6C102.049 85.0267 102.572 85.352 103.116 85.576C103.66 85.7893 104.225 85.896 104.812 85.896C105.601 85.896 106.198 85.7253 106.604 85.384C107.009 85.032 107.212 84.5147 107.212 83.832C107.212 83.16 107.004 82.6587 106.588 82.328C106.172 81.9973 105.537 81.832 104.684 81.832H103.324V80.6H104.428C105.249 80.6 105.873 80.424 106.3 80.072C106.726 79.72 106.94 79.2133 106.94 78.552C106.94 77.9547 106.758 77.496 106.396 77.176C106.044 76.856 105.542 76.696 104.891 76.696C104.337 76.696 103.793 76.808 103.26 77.032C102.737 77.2453 102.22 77.5653 101.708 77.992L101.164 76.872C101.622 76.4347 102.188 76.0933 102.86 75.848C103.542 75.6027 104.241 75.48 104.956 75.48C105.66 75.48 106.268 75.6027 106.78 75.848C107.302 76.0827 107.702 76.424 107.98 76.872C108.268 77.3093 108.411 77.8267 108.411 78.424C108.411 79.128 108.225 79.7253 107.852 80.216C107.489 80.7067 106.988 81.0427 106.348 81.224L106.316 81.064C107.073 81.224 107.654 81.5493 108.06 82.04C108.465 82.5307 108.668 83.1547 108.668 83.912C108.668 84.904 108.321 85.688 107.628 86.264C106.945 86.8293 106.022 87.112 104.86 87.112ZM114.581 87.128C113.269 87.128 112.272 86.6373 111.589 85.656C110.907 84.664 110.565 83.2133 110.565 81.304C110.565 79.3947 110.901 77.9493 111.573 76.968C112.256 75.976 113.259 75.48 114.581 75.48C115.904 75.48 116.901 75.976 117.573 76.968C118.256 77.9493 118.597 79.3893 118.597 81.288C118.597 83.1973 118.256 84.648 117.573 85.64C116.891 86.632 115.893 87.128 114.581 87.128ZM114.581 85.912C115.445 85.912 116.08 85.5387 116.485 84.792C116.901 84.0453 117.109 82.8773 117.109 81.288C117.109 79.6987 116.901 78.5413 116.485 77.816C116.08 77.08 115.445 76.712 114.581 76.712C113.717 76.712 113.077 77.08 112.661 77.816C112.256 78.552 112.053 79.7093 112.053 81.288C112.053 82.8773 112.256 84.0453 112.661 84.792C113.077 85.5387 113.717 85.912 114.581 85.912ZM122.415 82.504C121.626 82.504 121.002 82.216 120.543 81.64C120.084 81.064 119.855 80.1893 119.855 79.016C119.855 77.832 120.084 76.9573 120.543 76.392C121.002 75.8267 121.626 75.544 122.415 75.544C123.204 75.544 123.823 75.8267 124.271 76.392C124.73 76.9573 124.959 77.832 124.959 79.016C124.959 80.1893 124.73 81.064 124.271 81.64C123.823 82.216 123.204 82.504 122.415 82.504ZM122.415 81.496C122.831 81.496 123.14 81.304 123.343 80.92C123.556 80.5253 123.663 79.8907 123.663 79.016C123.663 78.152 123.556 77.528 123.343 77.144C123.14 76.7493 122.831 76.552 122.415 76.552C121.999 76.552 121.684 76.7493 121.471 77.144C121.268 77.528 121.167 78.152 121.167 79.016C121.167 79.8907 121.268 80.5253 121.471 80.92C121.684 81.304 121.999 81.496 122.415 81.496ZM122.191 87L128.783 75.608H130.175L123.599 87H122.191ZM129.951 87.064C129.162 87.064 128.538 86.776 128.079 86.2C127.62 85.624 127.391 84.7493 127.391 83.576C127.391 82.392 127.62 81.5173 128.079 80.952C128.538 80.3867 129.162 80.104 129.951 80.104C130.74 80.104 131.359 80.3867 131.807 80.952C132.266 81.5173 132.495 82.392 132.495 83.576C132.495 84.7493 132.266 85.624 131.807 86.2C131.359 86.776 130.74 87.064 129.951 87.064ZM129.951 86.056C130.367 86.056 130.676 85.864 130.879 85.48C131.092 85.0853 131.199 84.4507 131.199 83.576C131.199 82.712 131.092 82.088 130.879 81.704C130.676 81.3093 130.367 81.112 129.951 81.112C129.535 81.112 129.22 81.3093 129.007 81.704C128.804 82.088 128.703 82.712 128.703 83.576C128.703 84.4507 128.804 85.0853 129.007 85.48C129.22 85.864 129.535 86.056 129.951 86.056Z" fill="#969EAC"/>
  <rect x="0.25" y="71" width="18" height="18" rx="2" fill="#235EE7"/>
  <path d="M554.75 24C527.63 24 500.987 31.1389 477.5 44.6991C454.013 58.2593 434.509 77.763 420.949 101.25L474.469 132.15C482.606 118.058 494.308 106.356 508.4 98.2194C522.492 90.0833 538.478 85.8 554.75 85.8V24Z" fill="#D3365F"/>
  <path d="M420.949 101.25C407.389 124.737 400.25 151.38 400.25 178.5L462.05 178.5C462.05 162.228 466.333 146.242 474.469 132.15L420.949 101.25Z" fill="#29CFD6"/>
  <path d="M400.25 178.5C400.25 205.62 407.389 232.263 420.949 255.75C434.509 279.237 454.013 298.741 477.5 312.301L508.4 258.781C494.308 250.644 482.606 238.942 474.469 224.85C466.333 210.758 462.05 194.772 462.05 178.5H400.25Z" fill="#FFBC02"/>
  <path d="M477.5 312.301C495.071 322.446 514.468 329.03 534.584 331.678C554.699 334.327 575.14 332.987 594.738 327.736C614.335 322.484 632.707 313.424 648.804 301.073C664.9 288.722 678.406 273.321 688.551 255.75L635.031 224.85C628.944 235.393 620.84 244.633 611.182 252.044C601.524 259.455 590.501 264.891 578.743 268.041C566.984 271.192 554.72 271.996 542.65 270.407C530.581 268.818 518.943 264.867 508.4 258.781L477.5 312.301Z" fill="#1F32AD"/>
  <g filter="url(#filter0_d)">
    <path d="M688.551 255.75C702.111 232.263 709.25 205.62 709.25 178.5C709.25 151.38 702.111 124.737 688.551 101.25C674.991 77.763 655.487 58.2593 632 44.6991C608.513 31.1389 581.87 24 554.75 24V85.8C571.022 85.8 587.008 90.0833 601.1 98.2194C615.192 106.356 626.894 118.058 635.031 132.15C643.167 146.242 647.45 162.228 647.45 178.5C647.45 194.772 643.167 210.758 635.031 224.85L688.551 255.75Z" fill="#235EE7"/>
  </g>
  <g filter="url(#filter1_di)">
    <rect x="69.25" y="174" width="440" height="354" rx="6" fill="white"/>
  </g>
  <path d="M419.518 494.492V493.386C420.097 493.489 420.55 493.512 420.876 493.456C421.212 493.409 421.446 493.251 421.576 492.98C421.716 492.719 421.786 492.322 421.786 491.79V482.032H423.088V491.79C423.088 492.583 422.972 493.199 422.738 493.638C422.505 494.086 422.127 494.375 421.604 494.506C421.091 494.637 420.396 494.632 419.518 494.492ZM427.847 492.098C426.998 492.098 426.359 491.865 425.929 491.398C425.509 490.922 425.299 490.222 425.299 489.298V484.958H426.573V489.284C426.573 489.891 426.695 490.339 426.937 490.628C427.189 490.908 427.572 491.048 428.085 491.048C428.683 491.048 429.163 490.857 429.527 490.474C429.891 490.082 430.073 489.564 430.073 488.92V484.958H431.361V492H430.115V490.488L430.283 490.418C430.097 490.969 429.784 491.389 429.345 491.678C428.907 491.958 428.407 492.098 427.847 492.098ZM433.476 492V486.932C433.476 486.605 433.467 486.279 433.448 485.952C433.439 485.616 433.411 485.285 433.364 484.958H434.568L434.694 486.4L434.554 486.484C434.759 485.933 435.086 485.513 435.534 485.224C435.991 484.925 436.514 484.776 437.102 484.776C438.791 484.776 439.636 485.714 439.636 487.59V492H438.362V487.66C438.362 487.025 438.236 486.563 437.984 486.274C437.741 485.975 437.349 485.826 436.808 485.826C436.183 485.826 435.683 486.022 435.31 486.414C434.937 486.797 434.75 487.315 434.75 487.968V492H433.476ZM445.468 492V491.02L448.94 487.212C449.388 486.708 449.714 486.255 449.92 485.854C450.134 485.443 450.242 485.033 450.242 484.622C450.242 484.099 450.088 483.698 449.78 483.418C449.472 483.129 449.038 482.984 448.478 482.984C448.002 482.984 447.53 483.082 447.064 483.278C446.597 483.465 446.135 483.745 445.678 484.118L445.202 483.138C445.594 482.765 446.088 482.471 446.686 482.256C447.292 482.032 447.899 481.92 448.506 481.92C449.131 481.92 449.668 482.027 450.116 482.242C450.564 482.447 450.914 482.751 451.166 483.152C451.418 483.544 451.544 484.011 451.544 484.552C451.544 485.121 451.413 485.667 451.152 486.19C450.9 486.713 450.48 487.301 449.892 487.954L446.602 491.496L446.49 490.922H451.95V492H445.468ZM456.942 492.112C455.794 492.112 454.922 491.683 454.324 490.824C453.727 489.956 453.428 488.687 453.428 487.016C453.428 485.345 453.722 484.081 454.31 483.222C454.908 482.354 455.785 481.92 456.942 481.92C458.1 481.92 458.972 482.354 459.56 483.222C460.158 484.081 460.456 485.341 460.456 487.002C460.456 488.673 460.158 489.942 459.56 490.81C458.963 491.678 458.09 492.112 456.942 492.112ZM456.942 491.048C457.698 491.048 458.254 490.721 458.608 490.068C458.972 489.415 459.154 488.393 459.154 487.002C459.154 485.611 458.972 484.599 458.608 483.964C458.254 483.32 457.698 482.998 456.942 482.998C456.186 482.998 455.626 483.32 455.262 483.964C454.908 484.608 454.73 485.621 454.73 487.002C454.73 488.393 454.908 489.415 455.262 490.068C455.626 490.721 456.186 491.048 456.942 491.048ZM462.257 492V491.02L465.729 487.212C466.177 486.708 466.503 486.255 466.709 485.854C466.923 485.443 467.031 485.033 467.031 484.622C467.031 484.099 466.877 483.698 466.569 483.418C466.261 483.129 465.827 482.984 465.267 482.984C464.791 482.984 464.319 483.082 463.853 483.278C463.386 483.465 462.924 483.745 462.467 484.118L461.991 483.138C462.383 482.765 462.877 482.471 463.475 482.256C464.081 482.032 464.688 481.92 465.295 481.92C465.92 481.92 466.457 482.027 466.905 482.242C467.353 482.447 467.703 482.751 467.955 483.152C468.207 483.544 468.333 484.011 468.333 484.552C468.333 485.121 468.202 485.667 467.941 486.19C467.689 486.713 467.269 487.301 466.681 487.954L463.391 491.496L463.279 490.922H468.739V492H462.257ZM473.731 492.112C472.583 492.112 471.711 491.683 471.113 490.824C470.516 489.956 470.217 488.687 470.217 487.016C470.217 485.345 470.511 484.081 471.099 483.222C471.697 482.354 472.574 481.92 473.731 481.92C474.889 481.92 475.761 482.354 476.349 483.222C476.947 484.081 477.245 485.341 477.245 487.002C477.245 488.673 476.947 489.942 476.349 490.81C475.752 491.678 474.879 492.112 473.731 492.112ZM473.731 491.048C474.487 491.048 475.043 490.721 475.397 490.068C475.761 489.415 475.943 488.393 475.943 487.002C475.943 485.611 475.761 484.599 475.397 483.964C475.043 483.32 474.487 482.998 473.731 482.998C472.975 482.998 472.415 483.32 472.051 483.964C471.697 484.608 471.519 485.621 471.519 487.002C471.519 488.393 471.697 489.415 472.051 490.068C472.415 490.721 472.975 491.048 473.731 491.048Z" fill="#969EAC"/>
  <path d="M310.915 492V482.032H311.979L315.955 491.09H315.395L319.343 482.032H320.393V492H319.217V483.796L319.651 483.852L316.109 492H315.213L311.615 483.852L312.091 483.796L312.105 492H310.915ZM325.358 492.098C324.742 492.098 324.196 491.953 323.72 491.664C323.253 491.365 322.889 490.945 322.628 490.404C322.366 489.853 322.236 489.209 322.236 488.472C322.236 487.735 322.366 487.091 322.628 486.54C322.898 485.989 323.267 485.56 323.734 485.252C324.21 484.935 324.751 484.776 325.358 484.776C325.992 484.776 326.534 484.935 326.982 485.252C327.43 485.56 327.733 486.003 327.892 486.582L327.724 486.68V484.958H328.984V492H327.724V490.236L327.892 490.306C327.733 490.875 327.43 491.319 326.982 491.636C326.534 491.944 325.992 492.098 325.358 492.098ZM325.638 491.062C326.31 491.062 326.823 490.838 327.178 490.39C327.542 489.933 327.724 489.284 327.724 488.444C327.724 487.604 327.542 486.96 327.178 486.512C326.814 486.055 326.3 485.826 325.638 485.826C324.975 485.826 324.457 486.059 324.084 486.526C323.71 486.993 323.524 487.641 323.524 488.472C323.524 489.303 323.71 489.942 324.084 490.39C324.457 490.838 324.975 491.062 325.638 491.062ZM330.797 495.178L330.531 494.198C330.96 494.095 331.32 493.974 331.609 493.834C331.908 493.703 332.155 493.531 332.351 493.316C332.547 493.111 332.72 492.835 332.869 492.49L333.331 491.44L333.625 491.02L336.131 484.958H337.405L334.115 492.602C333.863 493.181 333.574 493.643 333.247 493.988C332.92 494.343 332.552 494.609 332.141 494.786C331.74 494.963 331.292 495.094 330.797 495.178ZM333.345 492.392L330.167 484.958H331.497L333.975 491.02L333.345 492.392ZM342.331 492V491.02L345.803 487.212C346.251 486.708 346.578 486.255 346.783 485.854C346.998 485.443 347.105 485.033 347.105 484.622C347.105 484.099 346.951 483.698 346.643 483.418C346.335 483.129 345.901 482.984 345.341 482.984C344.865 482.984 344.394 483.082 343.927 483.278C343.46 483.465 342.998 483.745 342.541 484.118L342.065 483.138C342.457 482.765 342.952 482.471 343.549 482.256C344.156 482.032 344.762 481.92 345.369 481.92C345.994 481.92 346.531 482.027 346.979 482.242C347.427 482.447 347.777 482.751 348.029 483.152C348.281 483.544 348.407 484.011 348.407 484.552C348.407 485.121 348.276 485.667 348.015 486.19C347.763 486.713 347.343 487.301 346.755 487.954L343.465 491.496L343.353 490.922H348.813V492H342.331ZM353.805 492.112C352.657 492.112 351.785 491.683 351.187 490.824C350.59 489.956 350.291 488.687 350.291 487.016C350.291 485.345 350.585 484.081 351.173 483.222C351.771 482.354 352.648 481.92 353.805 481.92C354.963 481.92 355.835 482.354 356.423 483.222C357.021 484.081 357.319 485.341 357.319 487.002C357.319 488.673 357.021 489.942 356.423 490.81C355.826 491.678 354.953 492.112 353.805 492.112ZM353.805 491.048C354.561 491.048 355.117 490.721 355.471 490.068C355.835 489.415 356.017 488.393 356.017 487.002C356.017 485.611 355.835 484.599 355.471 483.964C355.117 483.32 354.561 482.998 353.805 482.998C353.049 482.998 352.489 483.32 352.125 483.964C351.771 484.608 351.593 485.621 351.593 487.002C351.593 488.393 351.771 489.415 352.125 490.068C352.489 490.721 353.049 491.048 353.805 491.048ZM359.12 492V491.02L362.592 487.212C363.04 486.708 363.367 486.255 363.572 485.854C363.787 485.443 363.894 485.033 363.894 484.622C363.894 484.099 363.74 483.698 363.432 483.418C363.124 483.129 362.69 482.984 362.13 482.984C361.654 482.984 361.183 483.082 360.716 483.278C360.249 483.465 359.787 483.745 359.33 484.118L358.854 483.138C359.246 482.765 359.741 482.471 360.338 482.256C360.945 482.032 361.551 481.92 362.158 481.92C362.783 481.92 363.32 482.027 363.768 482.242C364.216 482.447 364.566 482.751 364.818 483.152C365.07 483.544 365.196 484.011 365.196 484.552C365.196 485.121 365.065 485.667 364.804 486.19C364.552 486.713 364.132 487.301 363.544 487.954L360.254 491.496L360.142 490.922H365.602V492H359.12ZM370.595 492.112C369.447 492.112 368.574 491.683 367.977 490.824C367.379 489.956 367.081 488.687 367.081 487.016C367.081 485.345 367.375 484.081 367.963 483.222C368.56 482.354 369.437 481.92 370.595 481.92C371.752 481.92 372.625 482.354 373.213 483.222C373.81 484.081 374.109 485.341 374.109 487.002C374.109 488.673 373.81 489.942 373.213 490.81C372.615 491.678 371.743 492.112 370.595 492.112ZM370.595 491.048C371.351 491.048 371.906 490.721 372.261 490.068C372.625 489.415 372.807 488.393 372.807 487.002C372.807 485.611 372.625 484.599 372.261 483.964C371.906 483.32 371.351 482.998 370.595 482.998C369.839 482.998 369.279 483.32 368.915 483.964C368.56 484.608 368.383 485.621 368.383 487.002C368.383 488.393 368.56 489.415 368.915 490.068C369.279 490.721 369.839 491.048 370.595 491.048Z" fill="#969EAC"/>
  <path d="M207.172 492H205.842L210.252 482.032H211.358L215.782 492H214.466L210.602 482.998H211.036L207.172 492ZM207.732 489.494L208.194 488.43H213.402L213.864 489.494H207.732ZM217.032 495.024V486.932C217.032 486.605 217.022 486.279 217.004 485.952C216.994 485.616 216.966 485.285 216.92 484.958H218.124L218.25 486.4L218.138 486.582C218.296 486.003 218.6 485.56 219.048 485.252C219.496 484.935 220.032 484.776 220.658 484.776C221.274 484.776 221.815 484.935 222.282 485.252C222.758 485.56 223.126 485.989 223.388 486.54C223.658 487.091 223.794 487.735 223.794 488.472C223.794 489.209 223.658 489.853 223.388 490.404C223.126 490.945 222.762 491.365 222.296 491.664C221.829 491.953 221.283 492.098 220.658 492.098C220.032 492.098 219.496 491.944 219.048 491.636C218.6 491.319 218.296 490.875 218.138 490.306L218.306 490.152V495.024H217.032ZM220.392 491.062C221.054 491.062 221.568 490.838 221.932 490.39C222.296 489.942 222.478 489.303 222.478 488.472C222.478 487.641 222.296 486.993 221.932 486.526C221.568 486.059 221.054 485.826 220.392 485.826C219.72 485.826 219.202 486.055 218.838 486.512C218.474 486.96 218.292 487.604 218.292 488.444C218.292 489.284 218.474 489.933 218.838 490.39C219.202 490.838 219.72 491.062 220.392 491.062ZM225.481 492V486.932C225.481 486.605 225.472 486.279 225.453 485.952C225.444 485.616 225.416 485.285 225.369 484.958H226.573L226.727 486.708L226.573 486.652C226.694 486.036 226.97 485.574 227.399 485.266C227.838 484.949 228.328 484.79 228.869 484.79C229 484.79 229.116 484.799 229.219 484.818C229.331 484.827 229.434 484.846 229.527 484.874L229.513 486.036C229.28 485.952 229.018 485.91 228.729 485.91C228.253 485.91 227.87 486.013 227.581 486.218C227.292 486.423 227.082 486.685 226.951 487.002C226.82 487.319 226.755 487.66 226.755 488.024V492H225.481ZM234.396 492V491.02L237.868 487.212C238.316 486.708 238.643 486.255 238.848 485.854C239.063 485.443 239.17 485.033 239.17 484.622C239.17 484.099 239.016 483.698 238.708 483.418C238.4 483.129 237.966 482.984 237.406 482.984C236.93 482.984 236.459 483.082 235.992 483.278C235.526 483.465 235.064 483.745 234.606 484.118L234.13 483.138C234.522 482.765 235.017 482.471 235.614 482.256C236.221 482.032 236.828 481.92 237.434 481.92C238.06 481.92 238.596 482.027 239.044 482.242C239.492 482.447 239.842 482.751 240.094 483.152C240.346 483.544 240.472 484.011 240.472 484.552C240.472 485.121 240.342 485.667 240.08 486.19C239.828 486.713 239.408 487.301 238.82 487.954L235.53 491.496L235.418 490.922H240.878V492H234.396ZM245.871 492.112C244.723 492.112 243.85 491.683 243.253 490.824C242.656 489.956 242.357 488.687 242.357 487.016C242.357 485.345 242.651 484.081 243.239 483.222C243.836 482.354 244.714 481.92 245.871 481.92C247.028 481.92 247.901 482.354 248.489 483.222C249.086 484.081 249.385 485.341 249.385 487.002C249.385 488.673 249.086 489.942 248.489 490.81C247.892 491.678 247.019 492.112 245.871 492.112ZM245.871 491.048C246.627 491.048 247.182 490.721 247.537 490.068C247.901 489.415 248.083 488.393 248.083 487.002C248.083 485.611 247.901 484.599 247.537 483.964C247.182 483.32 246.627 482.998 245.871 482.998C245.115 482.998 244.555 483.32 244.191 483.964C243.836 484.608 243.659 485.621 243.659 487.002C243.659 488.393 243.836 489.415 244.191 490.068C244.555 490.721 245.115 491.048 245.871 491.048ZM251.185 492V491.02L254.657 487.212C255.105 486.708 255.432 486.255 255.637 485.854C255.852 485.443 255.959 485.033 255.959 484.622C255.959 484.099 255.805 483.698 255.497 483.418C255.189 483.129 254.755 482.984 254.195 482.984C253.719 482.984 253.248 483.082 252.781 483.278C252.315 483.465 251.853 483.745 251.395 484.118L250.919 483.138C251.311 482.765 251.806 482.471 252.403 482.256C253.01 482.032 253.617 481.92 254.223 481.92C254.849 481.92 255.385 482.027 255.833 482.242C256.281 482.447 256.631 482.751 256.883 483.152C257.135 483.544 257.261 484.011 257.261 484.552C257.261 485.121 257.131 485.667 256.869 486.19C256.617 486.713 256.197 487.301 255.609 487.954L252.319 491.496L252.207 490.922H257.667V492H251.185ZM262.66 492.112C261.512 492.112 260.639 491.683 260.042 490.824C259.445 489.956 259.146 488.687 259.146 487.016C259.146 485.345 259.44 484.081 260.028 483.222C260.625 482.354 261.503 481.92 262.66 481.92C263.817 481.92 264.69 482.354 265.278 483.222C265.875 484.081 266.174 485.341 266.174 487.002C266.174 488.673 265.875 489.942 265.278 490.81C264.681 491.678 263.808 492.112 262.66 492.112ZM262.66 491.048C263.416 491.048 263.971 490.721 264.326 490.068C264.69 489.415 264.872 488.393 264.872 487.002C264.872 485.611 264.69 484.599 264.326 483.964C263.971 483.32 263.416 482.998 262.66 482.998C261.904 482.998 261.344 483.32 260.98 483.964C260.625 484.608 260.448 485.621 260.448 487.002C260.448 488.393 260.625 489.415 260.98 490.068C261.344 490.721 261.904 491.048 262.66 491.048Z" fill="#969EAC"/>
  <path d="M100.57 492V482.032H101.634L105.61 491.09H105.05L108.998 482.032H110.048V492H108.872V483.796L109.306 483.852L105.764 492H104.868L101.27 483.852L101.746 483.796L101.76 492H100.57ZM115.013 492.098C114.397 492.098 113.851 491.953 113.375 491.664C112.908 491.365 112.544 490.945 112.283 490.404C112.022 489.853 111.891 489.209 111.891 488.472C111.891 487.735 112.022 487.091 112.283 486.54C112.554 485.989 112.922 485.56 113.389 485.252C113.865 484.935 114.406 484.776 115.013 484.776C115.648 484.776 116.189 484.935 116.637 485.252C117.085 485.56 117.388 486.003 117.547 486.582L117.379 486.68V484.958H118.639V492H117.379V490.236L117.547 490.306C117.388 490.875 117.085 491.319 116.637 491.636C116.189 491.944 115.648 492.098 115.013 492.098ZM115.293 491.062C115.965 491.062 116.478 490.838 116.833 490.39C117.197 489.933 117.379 489.284 117.379 488.444C117.379 487.604 117.197 486.96 116.833 486.512C116.469 486.055 115.956 485.826 115.293 485.826C114.63 485.826 114.112 486.059 113.739 486.526C113.366 486.993 113.179 487.641 113.179 488.472C113.179 489.303 113.366 489.942 113.739 490.39C114.112 490.838 114.63 491.062 115.293 491.062ZM120.76 492V486.932C120.76 486.605 120.751 486.279 120.732 485.952C120.723 485.616 120.695 485.285 120.648 484.958H121.852L122.006 486.708L121.852 486.652C121.974 486.036 122.249 485.574 122.678 485.266C123.117 484.949 123.607 484.79 124.148 484.79C124.279 484.79 124.396 484.799 124.498 484.818C124.61 484.827 124.713 484.846 124.806 484.874L124.792 486.036C124.559 485.952 124.298 485.91 124.008 485.91C123.532 485.91 123.15 486.013 122.86 486.218C122.571 486.423 122.361 486.685 122.23 487.002C122.1 487.319 122.034 487.66 122.034 488.024V492H120.76ZM129.676 492V491.02L133.148 487.212C133.596 486.708 133.922 486.255 134.128 485.854C134.342 485.443 134.45 485.033 134.45 484.622C134.45 484.099 134.296 483.698 133.988 483.418C133.68 483.129 133.246 482.984 132.686 482.984C132.21 482.984 131.738 483.082 131.272 483.278C130.805 483.465 130.343 483.745 129.886 484.118L129.41 483.138C129.802 482.765 130.296 482.471 130.894 482.256C131.5 482.032 132.107 481.92 132.714 481.92C133.339 481.92 133.876 482.027 134.324 482.242C134.772 482.447 135.122 482.751 135.374 483.152C135.626 483.544 135.752 484.011 135.752 484.552C135.752 485.121 135.621 485.667 135.36 486.19C135.108 486.713 134.688 487.301 134.1 487.954L130.81 491.496L130.698 490.922H136.158V492H129.676ZM141.15 492.112C140.002 492.112 139.13 491.683 138.532 490.824C137.935 489.956 137.636 488.687 137.636 487.016C137.636 485.345 137.93 484.081 138.518 483.222C139.116 482.354 139.993 481.92 141.15 481.92C142.308 481.92 143.18 482.354 143.768 483.222C144.366 484.081 144.664 485.341 144.664 487.002C144.664 488.673 144.366 489.942 143.768 490.81C143.171 491.678 142.298 492.112 141.15 492.112ZM141.15 491.048C141.906 491.048 142.462 490.721 142.816 490.068C143.18 489.415 143.362 488.393 143.362 487.002C143.362 485.611 143.18 484.599 142.816 483.964C142.462 483.32 141.906 482.998 141.15 482.998C140.394 482.998 139.834 483.32 139.47 483.964C139.116 484.608 138.938 485.621 138.938 487.002C138.938 488.393 139.116 489.415 139.47 490.068C139.834 490.721 140.394 491.048 141.15 491.048ZM146.465 492V491.02L149.937 487.212C150.385 486.708 150.711 486.255 150.917 485.854C151.131 485.443 151.239 485.033 151.239 484.622C151.239 484.099 151.085 483.698 150.777 483.418C150.469 483.129 150.035 482.984 149.475 482.984C148.999 482.984 148.527 483.082 148.061 483.278C147.594 483.465 147.132 483.745 146.675 484.118L146.199 483.138C146.591 482.765 147.085 482.471 147.683 482.256C148.289 482.032 148.896 481.92 149.503 481.92C150.128 481.92 150.665 482.027 151.113 482.242C151.561 482.447 151.911 482.751 152.163 483.152C152.415 483.544 152.541 484.011 152.541 484.552C152.541 485.121 152.41 485.667 152.149 486.19C151.897 486.713 151.477 487.301 150.889 487.954L147.599 491.496L147.487 490.922H152.947V492H146.465ZM157.939 492.112C156.791 492.112 155.919 491.683 155.321 490.824C154.724 489.956 154.425 488.687 154.425 487.016C154.425 485.345 154.719 484.081 155.307 483.222C155.905 482.354 156.782 481.92 157.939 481.92C159.097 481.92 159.969 482.354 160.557 483.222C161.155 484.081 161.453 485.341 161.453 487.002C161.453 488.673 161.155 489.942 160.557 490.81C159.96 491.678 159.087 492.112 157.939 492.112ZM157.939 491.048C158.695 491.048 159.251 490.721 159.605 490.068C159.969 489.415 160.151 488.393 160.151 487.002C160.151 485.611 159.969 484.599 159.605 483.964C159.251 483.32 158.695 482.998 157.939 482.998C157.183 482.998 156.623 483.32 156.259 483.964C155.905 484.608 155.727 485.621 155.727 487.002C155.727 488.393 155.905 489.415 156.259 490.068C156.623 490.721 157.183 491.048 157.939 491.048Z" fill="#969EAC"/>
  <path opacity="0.24" d="M109.25 462H469.25" stroke="#969EAC"/>
  <path opacity="0.1" d="M109.25 426H469.25" stroke="#969EAC"/>
  <path opacity="0.1" d="M109.25 390H469.25" stroke="#969EAC"/>
  <path opacity="0.1" d="M109.25 354H469.25" stroke="#969EAC"/>
  <path opacity="0.1" d="M109.25 318H469.25" stroke="#969EAC"/>
  <path opacity="0.1" d="M109.25 282H469.25" stroke="#969EAC"/>
  <path opacity="0.1" d="M109.25 246H469.25" stroke="#969EAC"/>
  <path opacity="0.1" d="M109.25 210H469.25" stroke="#969EAC"/>
  <path d="M459.25 304C459.25 302.895 460.145 302 461.25 302H467.25C468.355 302 469.25 302.895 469.25 304V462H459.25V304Z" fill="#D3365F"/>
  <path d="M443.25 212C443.25 210.895 444.145 210 445.25 210H451.25C452.355 210 453.25 210.895 453.25 212V462H443.25V212Z" fill="#235EE7"/>
  <path d="M427.25 438C427.25 436.895 428.145 436 429.25 436H435.25C436.355 436 437.25 436.895 437.25 438V462H427.25V438Z" fill="#29CFD6"/>
  <path d="M353.25 252C353.25 250.895 354.145 250 355.25 250H361.25C362.355 250 363.25 250.895 363.25 252V462H353.25V252Z" fill="#D3365F"/>
  <path d="M337.25 284C337.25 282.895 338.145 282 339.25 282H345.25C346.355 282 347.25 282.895 347.25 284V462H337.25V284Z" fill="#235EE7"/>
  <path d="M321.25 346C321.25 344.895 322.145 344 323.25 344H329.25C330.355 344 331.25 344.895 331.25 346V462H321.25V346Z" fill="#29CFD6"/>
  <path d="M247.25 330C247.25 328.895 248.145 328 249.25 328H255.25C256.355 328 257.25 328.895 257.25 330V462H247.25V330Z" fill="#D3365F"/>
  <path d="M231.25 374C231.25 372.895 232.145 372 233.25 372H239.25C240.355 372 241.25 372.895 241.25 374V462H231.25V374Z" fill="#235EE7"/>
  <path d="M215.25 359C215.25 357.895 216.145 357 217.25 357H223.25C224.355 357 225.25 357.895 225.25 359V462H215.25V359Z" fill="#29CFD6"/>
  <path d="M141.25 226C141.25 224.895 142.145 224 143.25 224H149.25C150.355 224 151.25 224.895 151.25 226V462H141.25V226Z" fill="#D3365F"/>
  <path d="M125.25 296C125.25 294.895 126.145 294 127.25 294H133.25C134.355 294 135.25 294.895 135.25 296V462H125.25V296Z" fill="#235EE7"/>
  <path d="M109.25 409C109.25 407.895 110.145 407 111.25 407H117.25C118.355 407 119.25 407.895 119.25 409V462H109.25V409Z" fill="#29CFD6"/>
  <defs>
    <filter id="filter0_d" x="514.75" y="0" width="218.5" height="295.75" filterUnits="userSpaceOnUse" color-interpolation-filters="sRGB">
      <feFlood flood-opacity="0" result="BackgroundImageFix"/>
      <feColorMatrix in="SourceAlpha" type="matrix" values="0 0 0 0 0 0 0 0 0 0 0 0 0 0 0 0 0 0 127 0"/>
      <feOffset dx="-8" dy="8"/>
      <feGaussianBlur stdDeviation="16"/>
      <feColorMatrix type="matrix" values="0 0 0 0 0.32549 0 0 0 0 0.298039 0 0 0 0 0.917647 0 0 0 0.2 0"/>
      <feBlend mode="normal" in2="BackgroundImageFix" result="effect1_dropShadow"/>
      <feBlend mode="normal" in="SourceGraphic" in2="effect1_dropShadow" result="shape"/>
    </filter>
    <filter id="filter1_di" x="61.25" y="168" width="456" height="370" filterUnits="userSpaceOnUse" color-interpolation-filters="sRGB">
      <feFlood flood-opacity="0" result="BackgroundImageFix"/>
      <feColorMatrix in="SourceAlpha" type="matrix" values="0 0 0 0 0 0 0 0 0 0 0 0 0 0 0 0 0 0 127 0"/>
      <feOffset dy="2"/>
      <feGaussianBlur stdDeviation="4"/>
      <feColorMatrix type="matrix" values="0 0 0 0 0.888 0 0 0 0 0.911467 0 0 0 0 0.952 0 0 0 1 0"/>
      <feBlend mode="normal" in2="BackgroundImageFix" result="effect1_dropShadow"/>
      <feBlend mode="normal" in="SourceGraphic" in2="effect1_dropShadow" result="shape"/>
      <feColorMatrix in="SourceAlpha" type="matrix" values="0 0 0 0 0 0 0 0 0 0 0 0 0 0 0 0 0 0 127 0" result="hardAlpha"/>
      <feOffset dy="-1"/>
      <feComposite in2="hardAlpha" operator="arithmetic" k2="-1" k3="1"/>
      <feColorMatrix type="matrix" values="0 0 0 0 0.921569 0 0 0 0 0.92549 0 0 0 0 0.945098 0 0 0 1 0"/>
      <feBlend mode="normal" in2="shape" result="effect2_innerShadow"/>
    </filter>
  </defs>
</svg>
