<svg width="630" height="538" viewBox="0 0 630 538" fill="none" xmlns="http://www.w3.org/2000/svg">
<path d="M279.423 231.16C278.437 231.16 277.503 231 276.623 230.68C275.757 230.347 275.003 229.867 274.363 229.24L274.863 228.26C275.583 228.9 276.303 229.36 277.023 229.64C277.743 229.92 278.543 230.06 279.423 230.06C280.557 230.06 281.437 229.813 282.063 229.32C282.703 228.813 283.023 228.12 283.023 227.24C283.023 226.693 282.87 226.267 282.563 225.96C282.27 225.64 281.87 225.387 281.363 225.2C280.87 225.013 280.323 224.853 279.723 224.72C279.137 224.573 278.543 224.413 277.943 224.24C277.343 224.067 276.79 223.84 276.283 223.56C275.79 223.28 275.39 222.907 275.083 222.44C274.79 221.973 274.643 221.367 274.643 220.62C274.643 219.833 274.85 219.14 275.263 218.54C275.677 217.927 276.25 217.453 276.983 217.12C277.717 216.773 278.55 216.6 279.483 216.6C280.083 216.6 280.663 216.673 281.223 216.82C281.797 216.967 282.33 217.18 282.823 217.46C283.33 217.727 283.777 218.06 284.163 218.46L283.663 219.44C282.517 218.28 281.123 217.7 279.483 217.7C278.377 217.7 277.503 217.96 276.863 218.48C276.223 219 275.903 219.707 275.903 220.6C275.903 221.2 276.05 221.673 276.343 222.02C276.65 222.367 277.057 222.647 277.563 222.86C278.07 223.06 278.617 223.233 279.203 223.38C279.803 223.527 280.397 223.68 280.983 223.84C281.583 224 282.13 224.213 282.623 224.48C283.13 224.733 283.53 225.08 283.823 225.52C284.13 225.96 284.283 226.527 284.283 227.22C284.283 228.007 284.077 228.693 283.663 229.28C283.25 229.867 282.677 230.327 281.943 230.66C281.21 230.993 280.37 231.16 279.423 231.16ZM279.003 233.32V230.94L279.023 230.32V217.36L279.003 216.82V214.44H280.123V216.82L280.103 217.36V230.32L280.123 230.94V233.32H279.003ZM287.115 231V230.06L292.175 224.42C292.882 223.607 293.395 222.887 293.715 222.26C294.049 221.62 294.215 220.973 294.215 220.32C294.215 219.48 293.969 218.833 293.475 218.38C292.995 217.913 292.302 217.68 291.395 217.68C290.675 217.68 289.975 217.827 289.295 218.12C288.629 218.4 287.962 218.827 287.295 219.4L286.775 218.42C287.335 217.873 288.035 217.433 288.875 217.1C289.715 216.767 290.555 216.6 291.395 216.6C292.235 216.6 292.955 216.747 293.555 217.04C294.169 217.333 294.642 217.76 294.975 218.32C295.309 218.867 295.475 219.52 295.475 220.28C295.475 221.093 295.282 221.887 294.895 222.66C294.522 223.42 293.909 224.28 293.055 225.24L288.035 230.72L288.015 229.94H296.095V231H287.115ZM303.208 230.46V217.28L304.008 217.88L300.268 220.3V219.04L303.748 216.76H304.448V230.46H303.208ZM300.048 231V229.94H307.608V231H300.048ZM311.36 233.14L310.74 232.64C311.06 232.28 311.267 231.953 311.36 231.66C311.453 231.38 311.5 231.087 311.5 230.78L311.92 231H310.72V229.26H312.42V230.56C312.42 231.027 312.34 231.473 312.18 231.9C312.033 232.327 311.76 232.74 311.36 233.14ZM319.773 231.16C318.173 231.16 316.96 230.547 316.133 229.32C315.307 228.08 314.893 226.267 314.893 223.88C314.893 221.48 315.3 219.667 316.113 218.44C316.94 217.213 318.16 216.6 319.773 216.6C321.387 216.6 322.6 217.213 323.413 218.44C324.24 219.667 324.653 221.473 324.653 223.86C324.653 226.247 324.24 228.06 323.413 229.3C322.587 230.54 321.373 231.16 319.773 231.16ZM319.773 230.06C321 230.06 321.907 229.56 322.493 228.56C323.093 227.547 323.393 225.98 323.393 223.86C323.393 221.74 323.1 220.187 322.513 219.2C321.927 218.2 321.013 217.7 319.773 217.7C318.547 217.7 317.633 218.2 317.033 219.2C316.447 220.2 316.153 221.753 316.153 223.86C316.153 225.967 316.447 227.527 317.033 228.54C317.633 229.553 318.547 230.06 319.773 230.06ZM331.766 231.16C330.166 231.16 328.952 230.547 328.126 229.32C327.299 228.08 326.886 226.267 326.886 223.88C326.886 221.48 327.292 219.667 328.106 218.44C328.932 217.213 330.152 216.6 331.766 216.6C333.379 216.6 334.592 217.213 335.406 218.44C336.232 219.667 336.646 221.473 336.646 223.86C336.646 226.247 336.232 228.06 335.406 229.3C334.579 230.54 333.366 231.16 331.766 231.16ZM331.766 230.06C332.992 230.06 333.899 229.56 334.486 228.56C335.086 227.547 335.386 225.98 335.386 223.86C335.386 221.74 335.092 220.187 334.506 219.2C333.919 218.2 333.006 217.7 331.766 217.7C330.539 217.7 329.626 218.2 329.026 219.2C328.439 220.2 328.146 221.753 328.146 223.86C328.146 225.967 328.439 227.527 329.026 228.54C329.626 229.553 330.539 230.06 331.766 230.06ZM343.758 231.16C342.158 231.16 340.944 230.547 340.118 229.32C339.291 228.08 338.878 226.267 338.878 223.88C338.878 221.48 339.284 219.667 340.098 218.44C340.924 217.213 342.144 216.6 343.758 216.6C345.371 216.6 346.584 217.213 347.398 218.44C348.224 219.667 348.638 221.473 348.638 223.86C348.638 226.247 348.224 228.06 347.398 229.3C346.571 230.54 345.358 231.16 343.758 231.16ZM343.758 230.06C344.984 230.06 345.891 229.56 346.478 228.56C347.078 227.547 347.378 225.98 347.378 223.86C347.378 221.74 347.084 220.187 346.498 219.2C345.911 218.2 344.998 217.7 343.758 217.7C342.531 217.7 341.618 218.2 341.018 219.2C340.431 220.2 340.138 221.753 340.138 223.86C340.138 225.967 340.431 227.527 341.018 228.54C341.618 229.553 342.531 230.06 343.758 230.06Z" fill="#969EAC"/>
<path d="M42.126 231V219.608H46.718C47.966 219.608 48.9153 219.885 49.566 220.44C50.2273 220.984 50.558 221.773 50.558 222.808C50.558 223.789 50.222 224.563 49.55 225.128C48.878 225.693 47.9393 225.976 46.734 225.976L47.934 225.752C48.35 225.752 48.7073 225.869 49.006 226.104C49.3047 226.328 49.5447 226.691 49.726 227.192L51.166 231H49.582L48.174 227.208C48.0033 226.749 47.7633 226.445 47.454 226.296C47.1553 226.147 46.7553 226.072 46.254 226.072H43.582V231H42.126ZM43.582 224.872H46.574C47.438 224.872 48.078 224.701 48.494 224.36C48.91 224.008 49.118 223.496 49.118 222.824C49.118 222.141 48.91 221.635 48.494 221.304C48.0887 220.973 47.4487 220.808 46.574 220.808H43.582V224.872ZM59.747 230.056C59.395 230.387 58.9417 230.648 58.387 230.84C57.8323 231.021 57.267 231.112 56.691 231.112C55.8483 231.112 55.123 230.947 54.515 230.616C53.907 230.285 53.4377 229.811 53.107 229.192C52.7763 228.563 52.611 227.816 52.611 226.952C52.611 226.12 52.771 225.389 53.091 224.76C53.4217 224.131 53.875 223.64 54.451 223.288C55.027 222.925 55.6883 222.744 56.435 222.744C57.1603 222.744 57.779 222.904 58.291 223.224C58.8137 223.544 59.2083 224.003 59.475 224.6C59.7523 225.187 59.891 225.891 59.891 226.712V226.968H53.891V226.072H59.059L58.611 226.648C58.6323 225.741 58.4563 225.048 58.083 224.568C57.7097 224.088 57.1657 223.848 56.451 223.848C55.7043 223.848 55.1177 224.115 54.691 224.648C54.275 225.171 54.067 225.907 54.067 226.856C54.067 227.88 54.291 228.653 54.739 229.176C55.187 229.688 55.8483 229.944 56.723 229.944C57.1923 229.944 57.6403 229.869 58.067 229.72C58.4937 229.56 58.899 229.325 59.283 229.016L59.747 230.056ZM64.8978 231.112C64.1938 231.112 63.5698 230.947 63.0258 230.616C62.4924 230.275 62.0764 229.795 61.7778 229.176C61.4791 228.547 61.3298 227.811 61.3298 226.968C61.3298 226.125 61.4791 225.389 61.7778 224.76C62.0871 224.131 62.5084 223.64 63.0418 223.288C63.5858 222.925 64.2044 222.744 64.8978 222.744C65.6231 222.744 66.2418 222.925 66.7538 223.288C67.2658 223.64 67.6124 224.147 67.7938 224.808L67.6018 224.92V222.952H69.0417V231H67.6018V228.984L67.7938 229.064C67.6124 229.715 67.2658 230.221 66.7538 230.584C66.2418 230.936 65.6231 231.112 64.8978 231.112ZM65.2178 229.928C65.9858 229.928 66.5724 229.672 66.9778 229.16C67.3938 228.637 67.6018 227.896 67.6018 226.936C67.6018 225.976 67.3938 225.24 66.9778 224.728C66.5618 224.205 65.9751 223.944 65.2178 223.944C64.4604 223.944 63.8684 224.211 63.4418 224.744C63.0151 225.277 62.8018 226.019 62.8018 226.968C62.8018 227.917 63.0151 228.648 63.4418 229.16C63.8684 229.672 64.4604 229.928 65.2178 229.928ZM71.466 231V219.224H72.922V231H71.466ZM79.7354 231V219.608H87.0154V220.824H81.1914V224.6H86.6954V225.832H81.1914V229.784H87.0154V231H79.7354ZM91.7809 231.112C90.4049 231.112 89.3115 230.765 88.5009 230.072L88.9649 229.016C89.3915 229.347 89.8342 229.592 90.2929 229.752C90.7622 229.901 91.2742 229.976 91.8289 229.976C92.4049 229.976 92.8422 229.88 93.1409 229.688C93.4502 229.485 93.6049 229.197 93.6049 228.824C93.6049 228.525 93.4982 228.291 93.2849 228.12C93.0822 227.939 92.7409 227.789 92.2609 227.672L90.9169 227.352C90.2235 227.203 89.6902 226.936 89.3169 226.552C88.9542 226.168 88.7729 225.704 88.7729 225.16C88.7729 224.691 88.9009 224.275 89.1569 223.912C89.4235 223.549 89.7915 223.267 90.2609 223.064C90.7302 222.851 91.2849 222.744 91.9249 222.744C92.4902 222.744 93.0235 222.835 93.5249 223.016C94.0369 223.197 94.4689 223.459 94.8209 223.8L94.3569 224.84C93.9729 224.52 93.5782 224.285 93.1729 224.136C92.7675 223.976 92.3462 223.896 91.9089 223.896C91.3649 223.896 90.9382 224.003 90.6289 224.216C90.3302 224.429 90.1809 224.717 90.1809 225.08C90.1809 225.389 90.2769 225.635 90.4689 225.816C90.6609 225.997 90.9649 226.141 91.3809 226.248L92.7409 226.584C93.5089 226.744 94.0742 227.011 94.4369 227.384C94.7995 227.747 94.9809 228.216 94.9809 228.792C94.9809 229.496 94.6929 230.061 94.1169 230.488C93.5409 230.904 92.7622 231.112 91.7809 231.112ZM95.7839 224.072V222.952H101.064V224.072H95.7839ZM101.032 229.736V230.952C100.851 231.005 100.664 231.043 100.472 231.064C100.291 231.096 100.093 231.112 99.8799 231.112C99.0905 231.112 98.4665 230.888 98.0079 230.44C97.5599 229.992 97.3359 229.331 97.3359 228.456V220.904L98.7919 220.392V228.296C98.7919 228.712 98.8505 229.037 98.9679 229.272C99.0959 229.496 99.2612 229.656 99.4639 229.752C99.6772 229.837 99.9172 229.88 100.184 229.88C100.333 229.88 100.472 229.869 100.6 229.848C100.728 229.827 100.872 229.789 101.032 229.736ZM105.695 231.112C104.991 231.112 104.367 230.947 103.823 230.616C103.289 230.275 102.873 229.795 102.575 229.176C102.276 228.547 102.127 227.811 102.127 226.968C102.127 226.125 102.276 225.389 102.575 224.76C102.884 224.131 103.305 223.64 103.839 223.288C104.383 222.925 105.001 222.744 105.695 222.744C106.42 222.744 107.039 222.925 107.551 223.288C108.063 223.64 108.409 224.147 108.591 224.808L108.399 224.92V222.952H109.839V231H108.399V228.984L108.591 229.064C108.409 229.715 108.063 230.221 107.551 230.584C107.039 230.936 106.42 231.112 105.695 231.112ZM106.015 229.928C106.783 229.928 107.369 229.672 107.775 229.16C108.191 228.637 108.399 227.896 108.399 226.936C108.399 225.976 108.191 225.24 107.775 224.728C107.359 224.205 106.772 223.944 106.015 223.944C105.257 223.944 104.665 224.211 104.239 224.744C103.812 225.277 103.599 226.019 103.599 226.968C103.599 227.917 103.812 228.648 104.239 229.16C104.665 229.672 105.257 229.928 106.015 229.928ZM111.159 224.072V222.952H116.439V224.072H111.159ZM116.407 229.736V230.952C116.226 231.005 116.039 231.043 115.847 231.064C115.666 231.096 115.468 231.112 115.255 231.112C114.466 231.112 113.842 230.888 113.383 230.44C112.935 229.992 112.711 229.331 112.711 228.456V220.904L114.167 220.392V228.296C114.167 228.712 114.226 229.037 114.343 229.272C114.471 229.496 114.636 229.656 114.839 229.752C115.052 229.837 115.292 229.88 115.559 229.88C115.708 229.88 115.847 229.869 115.975 229.848C116.103 229.827 116.247 229.789 116.407 229.736ZM124.638 230.056C124.286 230.387 123.832 230.648 123.278 230.84C122.723 231.021 122.158 231.112 121.582 231.112C120.739 231.112 120.014 230.947 119.406 230.616C118.798 230.285 118.328 229.811 117.998 229.192C117.667 228.563 117.502 227.816 117.502 226.952C117.502 226.12 117.662 225.389 117.982 224.76C118.312 224.131 118.766 223.64 119.342 223.288C119.918 222.925 120.579 222.744 121.326 222.744C122.051 222.744 122.67 222.904 123.182 223.224C123.704 223.544 124.099 224.003 124.366 224.6C124.643 225.187 124.782 225.891 124.782 226.712V226.968H118.782V226.072H123.95L123.502 226.648C123.523 225.741 123.347 225.048 122.974 224.568C122.6 224.088 122.056 223.848 121.342 223.848C120.595 223.848 120.008 224.115 119.582 224.648C119.166 225.171 118.958 225.907 118.958 226.856C118.958 227.88 119.182 228.653 119.63 229.176C120.078 229.688 120.739 229.944 121.614 229.944C122.083 229.944 122.531 229.869 122.958 229.72C123.384 229.56 123.79 229.325 124.174 229.016L124.638 230.056ZM130.855 227.288V226.104H135.447V227.288H130.855ZM141.09 230.328V220.552L141.906 220.888L138.754 222.872V221.48L141.73 219.608H142.578V230.328H141.09ZM138.578 231V229.768H145.09V231H138.578ZM150.988 231.128C149.676 231.128 148.678 230.637 147.996 229.656C147.313 228.664 146.972 227.213 146.972 225.304C146.972 223.395 147.308 221.949 147.98 220.968C148.662 219.976 149.665 219.48 150.988 219.48C152.31 219.48 153.308 219.976 153.98 220.968C154.662 221.949 155.003 223.389 155.003 225.288C155.003 227.197 154.662 228.648 153.98 229.64C153.297 230.632 152.3 231.128 150.988 231.128ZM150.988 229.912C151.852 229.912 152.486 229.539 152.892 228.792C153.308 228.045 153.516 226.877 153.516 225.288C153.516 223.699 153.308 222.541 152.892 221.816C152.486 221.08 151.852 220.712 150.988 220.712C150.124 220.712 149.484 221.08 149.068 221.816C148.662 222.552 148.46 223.709 148.46 225.288C148.46 226.877 148.662 228.045 149.068 228.792C149.484 229.539 150.124 229.912 150.988 229.912ZM158.821 226.504C158.032 226.504 157.408 226.216 156.949 225.64C156.491 225.064 156.261 224.189 156.261 223.016C156.261 221.832 156.491 220.957 156.949 220.392C157.408 219.827 158.032 219.544 158.821 219.544C159.611 219.544 160.229 219.827 160.677 220.392C161.136 220.957 161.365 221.832 161.365 223.016C161.365 224.189 161.136 225.064 160.677 225.64C160.229 226.216 159.611 226.504 158.821 226.504ZM158.821 225.496C159.237 225.496 159.547 225.304 159.749 224.92C159.963 224.525 160.069 223.891 160.069 223.016C160.069 222.152 159.963 221.528 159.749 221.144C159.547 220.749 159.237 220.552 158.821 220.552C158.405 220.552 158.091 220.749 157.877 221.144C157.675 221.528 157.573 222.152 157.573 223.016C157.573 223.891 157.675 224.525 157.877 224.92C158.091 225.304 158.405 225.496 158.821 225.496ZM158.597 231L165.189 219.608H166.581L160.005 231H158.597ZM166.357 231.064C165.568 231.064 164.944 230.776 164.485 230.2C164.027 229.624 163.797 228.749 163.797 227.576C163.797 226.392 164.027 225.517 164.485 224.952C164.944 224.387 165.568 224.104 166.357 224.104C167.147 224.104 167.765 224.387 168.213 224.952C168.672 225.517 168.901 226.392 168.901 227.576C168.901 228.749 168.672 229.624 168.213 230.2C167.765 230.776 167.147 231.064 166.357 231.064ZM166.357 230.056C166.773 230.056 167.083 229.864 167.285 229.48C167.499 229.085 167.605 228.451 167.605 227.576C167.605 226.712 167.499 226.088 167.285 225.704C167.083 225.309 166.773 225.112 166.357 225.112C165.941 225.112 165.627 225.309 165.413 225.704C165.211 226.088 165.109 226.712 165.109 227.576C165.109 228.451 165.211 229.085 165.413 229.48C165.627 229.864 165.941 230.056 166.357 230.056Z" fill="#969EAC"/>
<rect x="0.75" y="215" width="18" height="18" rx="2" fill="#D3365F"/>
<path d="M279.423 195.16C278.437 195.16 277.503 195 276.623 194.68C275.757 194.347 275.003 193.867 274.363 193.24L274.863 192.26C275.583 192.9 276.303 193.36 277.023 193.64C277.743 193.92 278.543 194.06 279.423 194.06C280.557 194.06 281.437 193.813 282.063 193.32C282.703 192.813 283.023 192.12 283.023 191.24C283.023 190.693 282.87 190.267 282.563 189.96C282.27 189.64 281.87 189.387 281.363 189.2C280.87 189.013 280.323 188.853 279.723 188.72C279.137 188.573 278.543 188.413 277.943 188.24C277.343 188.067 276.79 187.84 276.283 187.56C275.79 187.28 275.39 186.907 275.083 186.44C274.79 185.973 274.643 185.367 274.643 184.62C274.643 183.833 274.85 183.14 275.263 182.54C275.677 181.927 276.25 181.453 276.983 181.12C277.717 180.773 278.55 180.6 279.483 180.6C280.083 180.6 280.663 180.673 281.223 180.82C281.797 180.967 282.33 181.18 282.823 181.46C283.33 181.727 283.777 182.06 284.163 182.46L283.663 183.44C282.517 182.28 281.123 181.7 279.483 181.7C278.377 181.7 277.503 181.96 276.863 182.48C276.223 183 275.903 183.707 275.903 184.6C275.903 185.2 276.05 185.673 276.343 186.02C276.65 186.367 277.057 186.647 277.563 186.86C278.07 187.06 278.617 187.233 279.203 187.38C279.803 187.527 280.397 187.68 280.983 187.84C281.583 188 282.13 188.213 282.623 188.48C283.13 188.733 283.53 189.08 283.823 189.52C284.13 189.96 284.283 190.527 284.283 191.22C284.283 192.007 284.077 192.693 283.663 193.28C283.25 193.867 282.677 194.327 281.943 194.66C281.21 194.993 280.37 195.16 279.423 195.16ZM279.003 197.32V194.94L279.023 194.32V181.36L279.003 180.82V178.44H280.123V180.82L280.103 181.36V194.32L280.123 194.94V197.32H279.003ZM291.275 195.14C290.369 195.14 289.502 194.98 288.675 194.66C287.849 194.34 287.142 193.893 286.555 193.32L287.075 192.34C287.729 192.913 288.395 193.347 289.075 193.64C289.769 193.92 290.502 194.06 291.275 194.06C292.315 194.06 293.115 193.813 293.675 193.32C294.249 192.813 294.535 192.093 294.535 191.16C294.535 190.2 294.235 189.487 293.635 189.02C293.049 188.54 292.182 188.3 291.035 188.3H289.495V187.22H290.715C291.835 187.22 292.695 186.96 293.295 186.44C293.909 185.92 294.215 185.187 294.215 184.24C294.215 183.427 293.969 182.8 293.475 182.36C292.982 181.907 292.289 181.68 291.395 181.68C290.662 181.68 289.962 181.827 289.295 182.12C288.629 182.4 287.962 182.827 287.295 183.4L286.775 182.42C287.349 181.847 288.042 181.4 288.855 181.08C289.682 180.76 290.535 180.6 291.415 180.6C292.242 180.6 292.962 180.747 293.575 181.04C294.189 181.333 294.655 181.753 294.975 182.3C295.309 182.833 295.475 183.473 295.475 184.22C295.462 185.1 295.222 185.86 294.755 186.5C294.302 187.14 293.675 187.567 292.875 187.78L292.795 187.58C293.769 187.78 294.509 188.187 295.015 188.8C295.522 189.4 295.775 190.187 295.775 191.16C295.775 192.387 295.369 193.36 294.555 194.08C293.742 194.787 292.649 195.14 291.275 195.14ZM305.148 195V182.3H305.608L299.228 191.52L299.248 190.7H308.588V191.76H298.428V190.82L305.368 180.76H306.388V195H305.148ZM311.36 197.14L310.74 196.64C311.06 196.28 311.267 195.953 311.36 195.66C311.453 195.38 311.5 195.087 311.5 194.78L311.92 195H310.72V193.26H312.42V194.56C312.42 195.027 312.34 195.473 312.18 195.9C312.033 196.327 311.76 196.74 311.36 197.14ZM319.773 195.16C318.173 195.16 316.96 194.547 316.133 193.32C315.307 192.08 314.893 190.267 314.893 187.88C314.893 185.48 315.3 183.667 316.113 182.44C316.94 181.213 318.16 180.6 319.773 180.6C321.387 180.6 322.6 181.213 323.413 182.44C324.24 183.667 324.653 185.473 324.653 187.86C324.653 190.247 324.24 192.06 323.413 193.3C322.587 194.54 321.373 195.16 319.773 195.16ZM319.773 194.06C321 194.06 321.907 193.56 322.493 192.56C323.093 191.547 323.393 189.98 323.393 187.86C323.393 185.74 323.1 184.187 322.513 183.2C321.927 182.2 321.013 181.7 319.773 181.7C318.547 181.7 317.633 182.2 317.033 183.2C316.447 184.2 316.153 185.753 316.153 187.86C316.153 189.967 316.447 191.527 317.033 192.54C317.633 193.553 318.547 194.06 319.773 194.06ZM331.766 195.16C330.166 195.16 328.952 194.547 328.126 193.32C327.299 192.08 326.886 190.267 326.886 187.88C326.886 185.48 327.292 183.667 328.106 182.44C328.932 181.213 330.152 180.6 331.766 180.6C333.379 180.6 334.592 181.213 335.406 182.44C336.232 183.667 336.646 185.473 336.646 187.86C336.646 190.247 336.232 192.06 335.406 193.3C334.579 194.54 333.366 195.16 331.766 195.16ZM331.766 194.06C332.992 194.06 333.899 193.56 334.486 192.56C335.086 191.547 335.386 189.98 335.386 187.86C335.386 185.74 335.092 184.187 334.506 183.2C333.919 182.2 333.006 181.7 331.766 181.7C330.539 181.7 329.626 182.2 329.026 183.2C328.439 184.2 328.146 185.753 328.146 187.86C328.146 189.967 328.439 191.527 329.026 192.54C329.626 193.553 330.539 194.06 331.766 194.06ZM343.758 195.16C342.158 195.16 340.944 194.547 340.118 193.32C339.291 192.08 338.878 190.267 338.878 187.88C338.878 185.48 339.284 183.667 340.098 182.44C340.924 181.213 342.144 180.6 343.758 180.6C345.371 180.6 346.584 181.213 347.398 182.44C348.224 183.667 348.638 185.473 348.638 187.86C348.638 190.247 348.224 192.06 347.398 193.3C346.571 194.54 345.358 195.16 343.758 195.16ZM343.758 194.06C344.984 194.06 345.891 193.56 346.478 192.56C347.078 191.547 347.378 189.98 347.378 187.86C347.378 185.74 347.084 184.187 346.498 183.2C345.911 182.2 344.998 181.7 343.758 181.7C342.531 181.7 341.618 182.2 341.018 183.2C340.431 184.2 340.138 185.753 340.138 187.86C340.138 189.967 340.431 191.527 341.018 192.54C341.618 193.553 342.531 194.06 343.758 194.06Z" fill="#969EAC"/>
<path d="M42.126 195V183.608H43.342L47.886 193.96H47.246L51.758 183.608H52.958V195H51.614V185.624L52.11 185.688L48.062 195H47.038L42.926 185.688L43.47 185.624L43.486 195H42.126ZM58.4081 195.112C57.4375 195.112 56.7068 194.845 56.2161 194.312C55.7361 193.768 55.4961 192.968 55.4961 191.912V186.952H56.9521V191.896C56.9521 192.589 57.0908 193.101 57.3681 193.432C57.6561 193.752 58.0935 193.912 58.6801 193.912C59.3628 193.912 59.9121 193.693 60.3281 193.256C60.7441 192.808 60.9521 192.216 60.9521 191.48V186.952H62.4241V195H61.0001V193.272L61.1921 193.192C60.9788 193.821 60.6215 194.301 60.1201 194.632C59.6188 194.952 59.0481 195.112 58.4081 195.112ZM64.841 195V189.208C64.841 188.835 64.8303 188.461 64.809 188.088C64.7983 187.704 64.7663 187.325 64.713 186.952H66.089L66.233 188.6L66.073 188.696C66.3077 188.067 66.681 187.587 67.193 187.256C67.7157 186.915 68.313 186.744 68.985 186.744C70.9157 186.744 71.881 187.816 71.881 189.96V195H70.425V190.04C70.425 189.315 70.281 188.787 69.993 188.456C69.7157 188.115 69.2677 187.944 68.649 187.944C67.9343 187.944 67.3637 188.168 66.937 188.616C66.5103 189.053 66.297 189.645 66.297 190.392V195H64.841ZM74.2629 195V186.952H75.7189V195H74.2629ZM74.1349 183.48H75.8469V185.064H74.1349V183.48ZM80.9215 195.112C79.5455 195.112 78.4522 194.765 77.6415 194.072L78.1055 193.016C78.5322 193.347 78.9748 193.592 79.4335 193.752C79.9028 193.901 80.4148 193.976 80.9695 193.976C81.5455 193.976 81.9828 193.88 82.2815 193.688C82.5908 193.485 82.7455 193.197 82.7455 192.824C82.7455 192.525 82.6388 192.291 82.4255 192.12C82.2228 191.939 81.8815 191.789 81.4015 191.672L80.0575 191.352C79.3642 191.203 78.8308 190.936 78.4575 190.552C78.0948 190.168 77.9135 189.704 77.9135 189.16C77.9135 188.691 78.0415 188.275 78.2975 187.912C78.5642 187.549 78.9322 187.267 79.4015 187.064C79.8708 186.851 80.4255 186.744 81.0655 186.744C81.6308 186.744 82.1642 186.835 82.6655 187.016C83.1775 187.197 83.6095 187.459 83.9615 187.8L83.4975 188.84C83.1135 188.52 82.7188 188.285 82.3135 188.136C81.9082 187.976 81.4868 187.896 81.0495 187.896C80.5055 187.896 80.0788 188.003 79.7695 188.216C79.4708 188.429 79.3215 188.717 79.3215 189.08C79.3215 189.389 79.4175 189.635 79.6095 189.816C79.8015 189.997 80.1055 190.141 80.5215 190.248L81.8815 190.584C82.6495 190.744 83.2148 191.011 83.5775 191.384C83.9402 191.747 84.1215 192.216 84.1215 192.792C84.1215 193.496 83.8335 194.061 83.2575 194.488C82.6815 194.904 81.9028 195.112 80.9215 195.112ZM90.2614 191.288V190.104H94.8534V191.288H90.2614ZM101.936 195V185.464H102.352L97.792 192.024L97.808 191.368H105.104V192.568H96.752V191.464L102.192 183.608H103.408V195H101.936ZM110.538 195.112C109.834 195.112 109.14 194.989 108.458 194.744C107.786 194.499 107.22 194.157 106.762 193.72L107.306 192.6C107.828 193.027 108.356 193.352 108.89 193.576C109.423 193.789 109.972 193.896 110.538 193.896C111.316 193.896 111.924 193.683 112.362 193.256C112.799 192.819 113.018 192.221 113.018 191.464C113.018 190.984 112.916 190.563 112.714 190.2C112.522 189.837 112.244 189.555 111.882 189.352C111.53 189.139 111.114 189.032 110.634 189.032C110.111 189.032 109.636 189.139 109.21 189.352C108.783 189.555 108.41 189.864 108.09 190.28H107.098V183.608H113.994V184.808H108.57V189.224L108.106 189.176C108.415 188.739 108.81 188.403 109.29 188.168C109.77 187.933 110.308 187.816 110.906 187.816C111.631 187.816 112.26 187.971 112.794 188.28C113.327 188.579 113.738 189 114.026 189.544C114.314 190.088 114.458 190.717 114.458 191.432C114.458 192.157 114.298 192.797 113.978 193.352C113.658 193.907 113.204 194.339 112.618 194.648C112.031 194.957 111.338 195.112 110.538 195.112ZM118.228 190.504C117.438 190.504 116.814 190.216 116.356 189.64C115.897 189.064 115.668 188.189 115.668 187.016C115.668 185.832 115.897 184.957 116.356 184.392C116.814 183.827 117.438 183.544 118.228 183.544C119.017 183.544 119.636 183.827 120.084 184.392C120.542 184.957 120.772 185.832 120.772 187.016C120.772 188.189 120.542 189.064 120.084 189.64C119.636 190.216 119.017 190.504 118.228 190.504ZM118.228 189.496C118.644 189.496 118.953 189.304 119.156 188.92C119.369 188.525 119.476 187.891 119.476 187.016C119.476 186.152 119.369 185.528 119.156 185.144C118.953 184.749 118.644 184.552 118.228 184.552C117.812 184.552 117.497 184.749 117.284 185.144C117.081 185.528 116.98 186.152 116.98 187.016C116.98 187.891 117.081 188.525 117.284 188.92C117.497 189.304 117.812 189.496 118.228 189.496ZM118.004 195L124.595 183.608H125.988L119.411 195H118.004ZM125.764 195.064C124.974 195.064 124.35 194.776 123.892 194.2C123.433 193.624 123.204 192.749 123.204 191.576C123.204 190.392 123.433 189.517 123.892 188.952C124.35 188.387 124.974 188.104 125.764 188.104C126.553 188.104 127.172 188.387 127.62 188.952C128.078 189.517 128.308 190.392 128.308 191.576C128.308 192.749 128.078 193.624 127.62 194.2C127.172 194.776 126.553 195.064 125.764 195.064ZM125.764 194.056C126.18 194.056 126.489 193.864 126.692 193.48C126.905 193.085 127.012 192.451 127.012 191.576C127.012 190.712 126.905 190.088 126.692 189.704C126.489 189.309 126.18 189.112 125.764 189.112C125.348 189.112 125.033 189.309 124.82 189.704C124.617 190.088 124.516 190.712 124.516 191.576C124.516 192.451 124.617 193.085 124.82 193.48C125.033 193.864 125.348 194.056 125.764 194.056Z" fill="#969EAC"/>
<rect x="0.75" y="179" width="18" height="18" rx="2" fill="#29CFD6"/>
<path d="M279.423 159.16C278.437 159.16 277.503 159 276.623 158.68C275.757 158.347 275.003 157.867 274.363 157.24L274.863 156.26C275.583 156.9 276.303 157.36 277.023 157.64C277.743 157.92 278.543 158.06 279.423 158.06C280.557 158.06 281.437 157.813 282.063 157.32C282.703 156.813 283.023 156.12 283.023 155.24C283.023 154.693 282.87 154.267 282.563 153.96C282.27 153.64 281.87 153.387 281.363 153.2C280.87 153.013 280.323 152.853 279.723 152.72C279.137 152.573 278.543 152.413 277.943 152.24C277.343 152.067 276.79 151.84 276.283 151.56C275.79 151.28 275.39 150.907 275.083 150.44C274.79 149.973 274.643 149.367 274.643 148.62C274.643 147.833 274.85 147.14 275.263 146.54C275.677 145.927 276.25 145.453 276.983 145.12C277.717 144.773 278.55 144.6 279.483 144.6C280.083 144.6 280.663 144.673 281.223 144.82C281.797 144.967 282.33 145.18 282.823 145.46C283.33 145.727 283.777 146.06 284.163 146.46L283.663 147.44C282.517 146.28 281.123 145.7 279.483 145.7C278.377 145.7 277.503 145.96 276.863 146.48C276.223 147 275.903 147.707 275.903 148.6C275.903 149.2 276.05 149.673 276.343 150.02C276.65 150.367 277.057 150.647 277.563 150.86C278.07 151.06 278.617 151.233 279.203 151.38C279.803 151.527 280.397 151.68 280.983 151.84C281.583 152 282.13 152.213 282.623 152.48C283.13 152.733 283.53 153.08 283.823 153.52C284.13 153.96 284.283 154.527 284.283 155.22C284.283 156.007 284.077 156.693 283.663 157.28C283.25 157.867 282.677 158.327 281.943 158.66C281.21 158.993 280.37 159.16 279.423 159.16ZM279.003 161.32V158.94L279.023 158.32V145.36L279.003 144.82V142.44H280.123V144.82L280.103 145.36V158.32L280.123 158.94V161.32H279.003ZM291.275 159.14C290.369 159.14 289.502 158.98 288.675 158.66C287.849 158.34 287.142 157.893 286.555 157.32L287.075 156.34C287.729 156.913 288.395 157.347 289.075 157.64C289.769 157.92 290.502 158.06 291.275 158.06C292.315 158.06 293.115 157.813 293.675 157.32C294.249 156.813 294.535 156.093 294.535 155.16C294.535 154.2 294.235 153.487 293.635 153.02C293.049 152.54 292.182 152.3 291.035 152.3H289.495V151.22H290.715C291.835 151.22 292.695 150.96 293.295 150.44C293.909 149.92 294.215 149.187 294.215 148.24C294.215 147.427 293.969 146.8 293.475 146.36C292.982 145.907 292.289 145.68 291.395 145.68C290.662 145.68 289.962 145.827 289.295 146.12C288.629 146.4 287.962 146.827 287.295 147.4L286.775 146.42C287.349 145.847 288.042 145.4 288.855 145.08C289.682 144.76 290.535 144.6 291.415 144.6C292.242 144.6 292.962 144.747 293.575 145.04C294.189 145.333 294.655 145.753 294.975 146.3C295.309 146.833 295.475 147.473 295.475 148.22C295.462 149.1 295.222 149.86 294.755 150.5C294.302 151.14 293.675 151.567 292.875 151.78L292.795 151.58C293.769 151.78 294.509 152.187 295.015 152.8C295.522 153.4 295.775 154.187 295.775 155.16C295.775 156.387 295.369 157.36 294.555 158.08C293.742 158.787 292.649 159.14 291.275 159.14ZM305.148 159V146.3H305.608L299.228 155.52L299.248 154.7H308.588V155.76H298.428V154.82L305.368 144.76H306.388V159H305.148ZM311.36 161.14L310.74 160.64C311.06 160.28 311.267 159.953 311.36 159.66C311.453 159.38 311.5 159.087 311.5 158.78L311.92 159H310.72V157.26H312.42V158.56C312.42 159.027 312.34 159.473 312.18 159.9C312.033 160.327 311.76 160.74 311.36 161.14ZM319.773 159.16C318.173 159.16 316.96 158.547 316.133 157.32C315.307 156.08 314.893 154.267 314.893 151.88C314.893 149.48 315.3 147.667 316.113 146.44C316.94 145.213 318.16 144.6 319.773 144.6C321.387 144.6 322.6 145.213 323.413 146.44C324.24 147.667 324.653 149.473 324.653 151.86C324.653 154.247 324.24 156.06 323.413 157.3C322.587 158.54 321.373 159.16 319.773 159.16ZM319.773 158.06C321 158.06 321.907 157.56 322.493 156.56C323.093 155.547 323.393 153.98 323.393 151.86C323.393 149.74 323.1 148.187 322.513 147.2C321.927 146.2 321.013 145.7 319.773 145.7C318.547 145.7 317.633 146.2 317.033 147.2C316.447 148.2 316.153 149.753 316.153 151.86C316.153 153.967 316.447 155.527 317.033 156.54C317.633 157.553 318.547 158.06 319.773 158.06ZM331.766 159.16C330.166 159.16 328.952 158.547 328.126 157.32C327.299 156.08 326.886 154.267 326.886 151.88C326.886 149.48 327.292 147.667 328.106 146.44C328.932 145.213 330.152 144.6 331.766 144.6C333.379 144.6 334.592 145.213 335.406 146.44C336.232 147.667 336.646 149.473 336.646 151.86C336.646 154.247 336.232 156.06 335.406 157.3C334.579 158.54 333.366 159.16 331.766 159.16ZM331.766 158.06C332.992 158.06 333.899 157.56 334.486 156.56C335.086 155.547 335.386 153.98 335.386 151.86C335.386 149.74 335.092 148.187 334.506 147.2C333.919 146.2 333.006 145.7 331.766 145.7C330.539 145.7 329.626 146.2 329.026 147.2C328.439 148.2 328.146 149.753 328.146 151.86C328.146 153.967 328.439 155.527 329.026 156.54C329.626 157.553 330.539 158.06 331.766 158.06ZM343.758 159.16C342.158 159.16 340.944 158.547 340.118 157.32C339.291 156.08 338.878 154.267 338.878 151.88C338.878 149.48 339.284 147.667 340.098 146.44C340.924 145.213 342.144 144.6 343.758 144.6C345.371 144.6 346.584 145.213 347.398 146.44C348.224 147.667 348.638 149.473 348.638 151.86C348.638 154.247 348.224 156.06 347.398 157.3C346.571 158.54 345.358 159.16 343.758 159.16ZM343.758 158.06C344.984 158.06 345.891 157.56 346.478 156.56C347.078 155.547 347.378 153.98 347.378 151.86C347.378 149.74 347.084 148.187 346.498 147.2C345.911 146.2 344.998 145.7 343.758 145.7C342.531 145.7 341.618 146.2 341.018 147.2C340.431 148.2 340.138 149.753 340.138 151.86C340.138 153.967 340.431 155.527 341.018 156.54C341.618 157.553 342.531 158.06 343.758 158.06Z" fill="#969EAC"/>
<path d="M42.126 159V147.608H43.342L47.886 157.96H47.246L51.758 147.608H52.958V159H51.614V149.624L52.11 149.688L48.062 159H47.038L42.926 149.688L43.47 149.624L43.486 159H42.126ZM58.4081 159.112C57.4375 159.112 56.7068 158.845 56.2161 158.312C55.7361 157.768 55.4961 156.968 55.4961 155.912V150.952H56.9521V155.896C56.9521 156.589 57.0908 157.101 57.3681 157.432C57.6561 157.752 58.0935 157.912 58.6801 157.912C59.3628 157.912 59.9121 157.693 60.3281 157.256C60.7441 156.808 60.9521 156.216 60.9521 155.48V150.952H62.4241V159H61.0001V157.272L61.1921 157.192C60.9788 157.821 60.6215 158.301 60.1201 158.632C59.6188 158.952 59.0481 159.112 58.4081 159.112ZM63.737 152.072V150.952H69.017V152.072H63.737ZM68.985 157.736V158.952C68.8037 159.005 68.617 159.043 68.425 159.064C68.2437 159.096 68.0463 159.112 67.833 159.112C67.0437 159.112 66.4197 158.888 65.961 158.44C65.513 157.992 65.289 157.331 65.289 156.456V148.904L66.745 148.392V156.296C66.745 156.712 66.8037 157.037 66.921 157.272C67.049 157.496 67.2143 157.656 67.417 157.752C67.6303 157.837 67.8703 157.88 68.137 157.88C68.2863 157.88 68.425 157.869 68.553 157.848C68.681 157.827 68.825 157.789 68.985 157.736ZM73.4238 159.112C72.4531 159.112 71.7224 158.845 71.2318 158.312C70.7518 157.768 70.5118 156.968 70.5118 155.912V150.952H71.9678V155.896C71.9678 156.589 72.1064 157.101 72.3838 157.432C72.6718 157.752 73.1091 157.912 73.6958 157.912C74.3784 157.912 74.9278 157.693 75.3438 157.256C75.7598 156.808 75.9678 156.216 75.9678 155.48V150.952H77.4398V159H76.0158V157.272L76.2078 157.192C75.9944 157.821 75.6371 158.301 75.1358 158.632C74.6344 158.952 74.0638 159.112 73.4238 159.112ZM82.9446 159.112C82.2406 159.112 81.6166 158.947 81.0726 158.616C80.5393 158.275 80.1233 157.795 79.8246 157.176C79.526 156.547 79.3766 155.811 79.3766 154.968C79.3766 154.125 79.526 153.389 79.8246 152.76C80.134 152.131 80.5553 151.64 81.0886 151.288C81.6326 150.925 82.2513 150.744 82.9446 150.744C83.67 150.744 84.2886 150.925 84.8006 151.288C85.3126 151.64 85.6593 152.147 85.8406 152.808L85.6486 152.92V150.952H87.0886V159H85.6486V156.984L85.8406 157.064C85.6593 157.715 85.3126 158.221 84.8006 158.584C84.2886 158.936 83.67 159.112 82.9446 159.112ZM83.2646 157.928C84.0326 157.928 84.6193 157.672 85.0246 157.16C85.4406 156.637 85.6486 155.896 85.6486 154.936C85.6486 153.976 85.4406 153.24 85.0246 152.728C84.6086 152.205 84.022 151.944 83.2646 151.944C82.5073 151.944 81.9153 152.211 81.4886 152.744C81.062 153.277 80.8486 154.019 80.8486 154.968C80.8486 155.917 81.062 156.648 81.4886 157.16C81.9153 157.672 82.5073 157.928 83.2646 157.928ZM89.5129 159V147.224H90.9689V159H89.5129ZM97.7823 159V147.608H104.902V148.84H99.2383V152.6H104.582V153.832H99.2383V159H97.7823ZM109.377 159.112C108.406 159.112 107.676 158.845 107.185 158.312C106.705 157.768 106.465 156.968 106.465 155.912V150.952H107.921V155.896C107.921 156.589 108.06 157.101 108.337 157.432C108.625 157.752 109.062 157.912 109.649 157.912C110.332 157.912 110.881 157.693 111.297 157.256C111.713 156.808 111.921 156.216 111.921 155.48V150.952H113.393V159H111.969V157.272L112.161 157.192C111.948 157.821 111.59 158.301 111.089 158.632C110.588 158.952 110.017 159.112 109.377 159.112ZM115.81 159V153.208C115.81 152.835 115.799 152.461 115.778 152.088C115.767 151.704 115.735 151.325 115.682 150.952H117.058L117.202 152.6L117.042 152.696C117.276 152.067 117.65 151.587 118.162 151.256C118.684 150.915 119.282 150.744 119.954 150.744C121.884 150.744 122.85 151.816 122.85 153.96V159H121.394V154.04C121.394 153.315 121.25 152.787 120.962 152.456C120.684 152.115 120.236 151.944 119.618 151.944C118.903 151.944 118.332 152.168 117.906 152.616C117.479 153.053 117.266 153.645 117.266 154.392V159H115.81ZM132.464 159H131.024V156.872L131.216 157.064C131.034 157.715 130.688 158.221 130.176 158.584C129.664 158.936 129.045 159.112 128.32 159.112C127.626 159.112 127.008 158.941 126.464 158.6C125.93 158.248 125.509 157.757 125.2 157.128C124.901 156.488 124.752 155.747 124.752 154.904C124.752 154.061 124.901 153.331 125.2 152.712C125.498 152.083 125.914 151.597 126.448 151.256C126.992 150.915 127.616 150.744 128.32 150.744C129.045 150.744 129.664 150.925 130.176 151.288C130.688 151.651 131.034 152.152 131.216 152.792L131.008 152.984V147.224H132.464V159ZM128.64 157.928C129.397 157.928 129.984 157.672 130.4 157.16C130.816 156.637 131.024 155.896 131.024 154.936C131.024 153.987 130.816 153.251 130.4 152.728C129.994 152.205 129.408 151.944 128.64 151.944C127.882 151.944 127.29 152.205 126.864 152.728C126.437 153.24 126.224 153.965 126.224 154.904C126.224 155.864 126.437 156.611 126.864 157.144C127.29 157.667 127.882 157.928 128.64 157.928ZM137.656 159.112C136.28 159.112 135.187 158.765 134.376 158.072L134.84 157.016C135.267 157.347 135.709 157.592 136.168 157.752C136.637 157.901 137.149 157.976 137.704 157.976C138.28 157.976 138.717 157.88 139.016 157.688C139.325 157.485 139.48 157.197 139.48 156.824C139.48 156.525 139.373 156.291 139.16 156.12C138.957 155.939 138.616 155.789 138.136 155.672L136.792 155.352C136.099 155.203 135.565 154.936 135.192 154.552C134.829 154.168 134.648 153.704 134.648 153.16C134.648 152.691 134.776 152.275 135.032 151.912C135.299 151.549 135.667 151.267 136.136 151.064C136.605 150.851 137.16 150.744 137.8 150.744C138.365 150.744 138.899 150.835 139.4 151.016C139.912 151.197 140.344 151.459 140.696 151.8L140.232 152.84C139.848 152.52 139.453 152.285 139.048 152.136C138.643 151.976 138.221 151.896 137.784 151.896C137.24 151.896 136.813 152.003 136.504 152.216C136.205 152.429 136.056 152.717 136.056 153.08C136.056 153.389 136.152 153.635 136.344 153.816C136.536 153.997 136.84 154.141 137.256 154.248L138.616 154.584C139.384 154.744 139.949 155.011 140.312 155.384C140.675 155.747 140.856 156.216 140.856 156.792C140.856 157.496 140.568 158.061 139.992 158.488C139.416 158.904 138.637 159.112 137.656 159.112ZM146.996 155.288V154.104H151.588V155.288H146.996ZM154.014 159V157.88L157.982 153.528C158.494 152.952 158.868 152.435 159.102 151.976C159.348 151.507 159.47 151.037 159.47 150.568C159.47 149.971 159.294 149.512 158.942 149.192C158.59 148.861 158.094 148.696 157.454 148.696C156.91 148.696 156.372 148.808 155.838 149.032C155.305 149.245 154.777 149.565 154.254 149.992L153.71 148.872C154.158 148.445 154.724 148.109 155.406 147.864C156.1 147.608 156.793 147.48 157.486 147.48C158.201 147.48 158.814 147.603 159.326 147.848C159.838 148.083 160.238 148.429 160.526 148.888C160.814 149.336 160.958 149.869 160.958 150.488C160.958 151.139 160.809 151.763 160.51 152.36C160.222 152.957 159.742 153.629 159.07 154.376L155.31 158.424L155.182 157.768H161.422V159H154.014ZM167.272 159.112C166.568 159.112 165.875 158.989 165.192 158.744C164.52 158.499 163.955 158.157 163.496 157.72L164.04 156.6C164.563 157.027 165.091 157.352 165.624 157.576C166.157 157.789 166.707 157.896 167.272 157.896C168.051 157.896 168.659 157.683 169.096 157.256C169.533 156.819 169.752 156.221 169.752 155.464C169.752 154.984 169.651 154.563 169.448 154.2C169.256 153.837 168.979 153.555 168.616 153.352C168.264 153.139 167.848 153.032 167.368 153.032C166.845 153.032 166.371 153.139 165.944 153.352C165.517 153.555 165.144 153.864 164.824 154.28H163.832V147.608H170.728V148.808H165.304V153.224L164.84 153.176C165.149 152.739 165.544 152.403 166.024 152.168C166.504 151.933 167.043 151.816 167.64 151.816C168.365 151.816 168.995 151.971 169.528 152.28C170.061 152.579 170.472 153 170.76 153.544C171.048 154.088 171.192 154.717 171.192 155.432C171.192 156.157 171.032 156.797 170.712 157.352C170.392 157.907 169.939 158.339 169.352 158.648C168.765 158.957 168.072 159.112 167.272 159.112ZM174.962 154.504C174.173 154.504 173.549 154.216 173.09 153.64C172.631 153.064 172.402 152.189 172.402 151.016C172.402 149.832 172.631 148.957 173.09 148.392C173.549 147.827 174.173 147.544 174.962 147.544C175.751 147.544 176.37 147.827 176.818 148.392C177.277 148.957 177.506 149.832 177.506 151.016C177.506 152.189 177.277 153.064 176.818 153.64C176.37 154.216 175.751 154.504 174.962 154.504ZM174.962 153.496C175.378 153.496 175.687 153.304 175.89 152.92C176.103 152.525 176.21 151.891 176.21 151.016C176.21 150.152 176.103 149.528 175.89 149.144C175.687 148.749 175.378 148.552 174.962 148.552C174.546 148.552 174.231 148.749 174.018 149.144C173.815 149.528 173.714 150.152 173.714 151.016C173.714 151.891 173.815 152.525 174.018 152.92C174.231 153.304 174.546 153.496 174.962 153.496ZM174.738 159L181.33 147.608H182.722L176.146 159H174.738ZM182.498 159.064C181.709 159.064 181.085 158.776 180.626 158.2C180.167 157.624 179.938 156.749 179.938 155.576C179.938 154.392 180.167 153.517 180.626 152.952C181.085 152.387 181.709 152.104 182.498 152.104C183.287 152.104 183.906 152.387 184.354 152.952C184.813 153.517 185.042 154.392 185.042 155.576C185.042 156.749 184.813 157.624 184.354 158.2C183.906 158.776 183.287 159.064 182.498 159.064ZM182.498 158.056C182.914 158.056 183.223 157.864 183.426 157.48C183.639 157.085 183.746 156.451 183.746 155.576C183.746 154.712 183.639 154.088 183.426 153.704C183.223 153.309 182.914 153.112 182.498 153.112C182.082 153.112 181.767 153.309 181.554 153.704C181.351 154.088 181.25 154.712 181.25 155.576C181.25 156.451 181.351 157.085 181.554 157.48C181.767 157.864 182.082 158.056 182.498 158.056Z" fill="#969EAC"/>
<rect x="0.75" y="143" width="18" height="18" rx="2" fill="#FFBC02"/>
<path d="M267.431 123.16C266.444 123.16 265.511 123 264.631 122.68C263.764 122.347 263.011 121.867 262.371 121.24L262.871 120.26C263.591 120.9 264.311 121.36 265.031 121.64C265.751 121.92 266.551 122.06 267.431 122.06C268.564 122.06 269.444 121.813 270.071 121.32C270.711 120.813 271.031 120.12 271.031 119.24C271.031 118.693 270.878 118.267 270.571 117.96C270.278 117.64 269.878 117.387 269.371 117.2C268.878 117.013 268.331 116.853 267.731 116.72C267.144 116.573 266.551 116.413 265.951 116.24C265.351 116.067 264.798 115.84 264.291 115.56C263.798 115.28 263.398 114.907 263.091 114.44C262.798 113.973 262.651 113.367 262.651 112.62C262.651 111.833 262.858 111.14 263.271 110.54C263.684 109.927 264.258 109.453 264.991 109.12C265.724 108.773 266.558 108.6 267.491 108.6C268.091 108.6 268.671 108.673 269.231 108.82C269.804 108.967 270.338 109.18 270.831 109.46C271.338 109.727 271.784 110.06 272.171 110.46L271.671 111.44C270.524 110.28 269.131 109.7 267.491 109.7C266.384 109.7 265.511 109.96 264.871 110.48C264.231 111 263.911 111.707 263.911 112.6C263.911 113.2 264.058 113.673 264.351 114.02C264.658 114.367 265.064 114.647 265.571 114.86C266.078 115.06 266.624 115.233 267.211 115.38C267.811 115.527 268.404 115.68 268.991 115.84C269.591 116 270.138 116.213 270.631 116.48C271.138 116.733 271.538 117.08 271.831 117.52C272.138 117.96 272.291 118.527 272.291 119.22C272.291 120.007 272.084 120.693 271.671 121.28C271.258 121.867 270.684 122.327 269.951 122.66C269.218 122.993 268.378 123.16 267.431 123.16ZM267.011 125.32V122.94L267.031 122.32V109.36L267.011 108.82V106.44H268.131V108.82L268.111 109.36V122.32L268.131 122.94V125.32H267.011ZM279.223 122.46V109.28L280.023 109.88L276.283 112.3V111.04L279.763 108.76H280.463V122.46H279.223ZM276.063 123V121.94H283.623V123H276.063ZM287.115 123V122.06L292.175 116.42C292.882 115.607 293.395 114.887 293.715 114.26C294.049 113.62 294.215 112.973 294.215 112.32C294.215 111.48 293.969 110.833 293.475 110.38C292.995 109.913 292.302 109.68 291.395 109.68C290.675 109.68 289.975 109.827 289.295 110.12C288.629 110.4 287.962 110.827 287.295 111.4L286.775 110.42C287.335 109.873 288.035 109.433 288.875 109.1C289.715 108.767 290.555 108.6 291.395 108.6C292.235 108.6 292.955 108.747 293.555 109.04C294.169 109.333 294.642 109.76 294.975 110.32C295.309 110.867 295.475 111.52 295.475 112.28C295.475 113.093 295.282 113.887 294.895 114.66C294.522 115.42 293.909 116.28 293.055 117.24L288.035 122.72L288.015 121.94H296.095V123H287.115ZM305.148 123V110.3H305.608L299.228 119.52L299.248 118.7H308.588V119.76H298.428V118.82L305.368 108.76H306.388V123H305.148ZM311.36 125.14L310.74 124.64C311.06 124.28 311.267 123.953 311.36 123.66C311.453 123.38 311.5 123.087 311.5 122.78L311.92 123H310.72V121.26H312.42V122.56C312.42 123.027 312.34 123.473 312.18 123.9C312.033 124.327 311.76 124.74 311.36 125.14ZM319.773 123.16C318.173 123.16 316.96 122.547 316.133 121.32C315.307 120.08 314.893 118.267 314.893 115.88C314.893 113.48 315.3 111.667 316.113 110.44C316.94 109.213 318.16 108.6 319.773 108.6C321.387 108.6 322.6 109.213 323.413 110.44C324.24 111.667 324.653 113.473 324.653 115.86C324.653 118.247 324.24 120.06 323.413 121.3C322.587 122.54 321.373 123.16 319.773 123.16ZM319.773 122.06C321 122.06 321.907 121.56 322.493 120.56C323.093 119.547 323.393 117.98 323.393 115.86C323.393 113.74 323.1 112.187 322.513 111.2C321.927 110.2 321.013 109.7 319.773 109.7C318.547 109.7 317.633 110.2 317.033 111.2C316.447 112.2 316.153 113.753 316.153 115.86C316.153 117.967 316.447 119.527 317.033 120.54C317.633 121.553 318.547 122.06 319.773 122.06ZM331.766 123.16C330.166 123.16 328.952 122.547 328.126 121.32C327.299 120.08 326.886 118.267 326.886 115.88C326.886 113.48 327.292 111.667 328.106 110.44C328.932 109.213 330.152 108.6 331.766 108.6C333.379 108.6 334.592 109.213 335.406 110.44C336.232 111.667 336.646 113.473 336.646 115.86C336.646 118.247 336.232 120.06 335.406 121.3C334.579 122.54 333.366 123.16 331.766 123.16ZM331.766 122.06C332.992 122.06 333.899 121.56 334.486 120.56C335.086 119.547 335.386 117.98 335.386 115.86C335.386 113.74 335.092 112.187 334.506 111.2C333.919 110.2 333.006 109.7 331.766 109.7C330.539 109.7 329.626 110.2 329.026 111.2C328.439 112.2 328.146 113.753 328.146 115.86C328.146 117.967 328.439 119.527 329.026 120.54C329.626 121.553 330.539 122.06 331.766 122.06ZM343.758 123.16C342.158 123.16 340.944 122.547 340.118 121.32C339.291 120.08 338.878 118.267 338.878 115.88C338.878 113.48 339.284 111.667 340.098 110.44C340.924 109.213 342.144 108.6 343.758 108.6C345.371 108.6 346.584 109.213 347.398 110.44C348.224 111.667 348.638 113.473 348.638 115.86C348.638 118.247 348.224 120.06 347.398 121.3C346.571 122.54 345.358 123.16 343.758 123.16ZM343.758 122.06C344.984 122.06 345.891 121.56 346.478 120.56C347.078 119.547 347.378 117.98 347.378 115.86C347.378 113.74 347.084 112.187 346.498 111.2C345.911 110.2 344.998 109.7 343.758 109.7C342.531 109.7 341.618 110.2 341.018 111.2C340.431 112.2 340.138 113.753 340.138 115.86C340.138 117.967 340.431 119.527 341.018 120.54C341.618 121.553 342.531 122.06 343.758 122.06Z" fill="#969EAC"/>
<path d="M42.126 123V111.608H46.798C47.95 111.608 48.8513 111.869 49.502 112.392C50.1633 112.904 50.494 113.635 50.494 114.584C50.494 115.245 50.3127 115.805 49.95 116.264C49.598 116.712 49.1073 117.032 48.478 117.224V117.096C49.1927 117.235 49.7527 117.549 50.158 118.04C50.5633 118.531 50.766 119.149 50.766 119.896C50.766 120.888 50.43 121.656 49.758 122.2C49.0967 122.733 48.158 123 46.942 123H42.126ZM43.582 121.8H46.814C47.678 121.8 48.3127 121.64 48.718 121.32C49.1233 121 49.326 120.504 49.326 119.832C49.326 119.16 49.118 118.659 48.702 118.328C48.2967 117.997 47.6673 117.832 46.814 117.832H43.582V121.8ZM43.582 116.6H46.558C47.39 116.6 48.014 116.44 48.43 116.12C48.846 115.8 49.054 115.32 49.054 114.68C49.054 114.061 48.846 113.597 48.43 113.288C48.0247 112.968 47.4007 112.808 46.558 112.808H43.582V116.6ZM56.2799 123.112C55.5012 123.112 54.8185 122.941 54.2319 122.6C53.6559 122.259 53.2079 121.779 52.8879 121.16C52.5679 120.531 52.4079 119.789 52.4079 118.936C52.4079 118.093 52.5679 117.357 52.8879 116.728C53.2079 116.088 53.6559 115.597 54.2319 115.256C54.8185 114.915 55.5012 114.744 56.2799 114.744C57.0692 114.744 57.7519 114.915 58.3279 115.256C58.9039 115.597 59.3519 116.088 59.6719 116.728C59.9919 117.357 60.1519 118.093 60.1519 118.936C60.1519 119.789 59.9919 120.531 59.6719 121.16C59.3519 121.779 58.9039 122.259 58.3279 122.6C57.7519 122.941 57.0692 123.112 56.2799 123.112ZM56.2799 121.928C57.0479 121.928 57.6399 121.677 58.0559 121.176C58.4719 120.664 58.6799 119.917 58.6799 118.936C58.6799 117.965 58.4665 117.224 58.0399 116.712C57.6239 116.2 57.0372 115.944 56.2799 115.944C55.5332 115.944 54.9465 116.2 54.5199 116.712C54.0932 117.224 53.8799 117.965 53.8799 118.936C53.8799 119.917 54.0879 120.664 54.5039 121.176C54.9199 121.677 55.5119 121.928 56.2799 121.928ZM62.1223 123V117.208C62.1223 116.835 62.1116 116.461 62.0903 116.088C62.0796 115.704 62.0476 115.325 61.9943 114.952H63.3703L63.5143 116.6L63.3543 116.696C63.5889 116.067 63.9623 115.587 64.4743 115.256C64.9969 114.915 65.5943 114.744 66.2663 114.744C68.1969 114.744 69.1623 115.816 69.1623 117.96V123H67.7063V118.04C67.7063 117.315 67.5623 116.787 67.2743 116.456C66.9969 116.115 66.5489 115.944 65.9303 115.944C65.2156 115.944 64.6449 116.168 64.2183 116.616C63.7916 117.053 63.5783 117.645 63.5783 118.392V123H62.1223ZM78.7761 123H77.3361V120.872L77.5281 121.064C77.3468 121.715 77.0001 122.221 76.4881 122.584C75.9761 122.936 75.3575 123.112 74.6321 123.112C73.9388 123.112 73.3201 122.941 72.7761 122.6C72.2428 122.248 71.8215 121.757 71.5121 121.128C71.2135 120.488 71.0641 119.747 71.0641 118.904C71.0641 118.061 71.2135 117.331 71.5121 116.712C71.8108 116.083 72.2268 115.597 72.7601 115.256C73.3041 114.915 73.9281 114.744 74.6321 114.744C75.3575 114.744 75.9761 114.925 76.4881 115.288C77.0001 115.651 77.3468 116.152 77.5281 116.792L77.3201 116.984V111.224H78.7761V123ZM74.9521 121.928C75.7095 121.928 76.2961 121.672 76.7121 121.16C77.1281 120.637 77.3361 119.896 77.3361 118.936C77.3361 117.987 77.1281 117.251 76.7121 116.728C76.3068 116.205 75.7201 115.944 74.9521 115.944C74.1948 115.944 73.6028 116.205 73.1761 116.728C72.7495 117.24 72.5361 117.965 72.5361 118.904C72.5361 119.864 72.7495 120.611 73.1761 121.144C73.6028 121.667 74.1948 121.928 74.9521 121.928ZM83.9684 123.112C82.5924 123.112 81.499 122.765 80.6884 122.072L81.1524 121.016C81.579 121.347 82.0217 121.592 82.4804 121.752C82.9497 121.901 83.4617 121.976 84.0164 121.976C84.5924 121.976 85.0297 121.88 85.3284 121.688C85.6377 121.485 85.7924 121.197 85.7924 120.824C85.7924 120.525 85.6857 120.291 85.4724 120.12C85.2697 119.939 84.9284 119.789 84.4484 119.672L83.1044 119.352C82.411 119.203 81.8777 118.936 81.5044 118.552C81.1417 118.168 80.9604 117.704 80.9604 117.16C80.9604 116.691 81.0884 116.275 81.3444 115.912C81.611 115.549 81.979 115.267 82.4484 115.064C82.9177 114.851 83.4724 114.744 84.1124 114.744C84.6777 114.744 85.211 114.835 85.7124 115.016C86.2244 115.197 86.6564 115.459 87.0084 115.8L86.5444 116.84C86.1604 116.52 85.7657 116.285 85.3604 116.136C84.955 115.976 84.5337 115.896 84.0964 115.896C83.5524 115.896 83.1257 116.003 82.8164 116.216C82.5177 116.429 82.3684 116.717 82.3684 117.08C82.3684 117.389 82.4644 117.635 82.6564 117.816C82.8484 117.997 83.1524 118.141 83.5684 118.248L84.9284 118.584C85.6964 118.744 86.2617 119.011 86.6244 119.384C86.987 119.747 87.1684 120.216 87.1684 120.792C87.1684 121.496 86.8804 122.061 86.3044 122.488C85.7284 122.904 84.9497 123.112 83.9684 123.112ZM93.3083 119.288V118.104H97.9003V119.288H93.3083ZM103.543 122.328V112.552L104.359 112.888L101.207 114.872V113.48L104.183 111.608H105.031V122.328H103.543ZM101.031 123V121.768H107.543V123H101.031ZM113.585 123.112C112.881 123.112 112.187 122.989 111.505 122.744C110.833 122.499 110.267 122.157 109.809 121.72L110.353 120.6C110.875 121.027 111.403 121.352 111.937 121.576C112.47 121.789 113.019 121.896 113.585 121.896C114.363 121.896 114.971 121.683 115.409 121.256C115.846 120.819 116.065 120.221 116.065 119.464C116.065 118.984 115.963 118.563 115.761 118.2C115.569 117.837 115.291 117.555 114.929 117.352C114.577 117.139 114.161 117.032 113.681 117.032C113.158 117.032 112.683 117.139 112.257 117.352C111.83 117.555 111.457 117.864 111.137 118.28H110.145V111.608H117.041V112.808H111.617V117.224L111.153 117.176C111.462 116.739 111.857 116.403 112.337 116.168C112.817 115.933 113.355 115.816 113.953 115.816C114.678 115.816 115.307 115.971 115.841 116.28C116.374 116.579 116.785 117 117.073 117.544C117.361 118.088 117.505 118.717 117.505 119.432C117.505 120.157 117.345 120.797 117.025 121.352C116.705 121.907 116.251 122.339 115.665 122.648C115.078 122.957 114.385 123.112 113.585 123.112ZM121.274 118.504C120.485 118.504 119.861 118.216 119.402 117.64C118.944 117.064 118.714 116.189 118.714 115.016C118.714 113.832 118.944 112.957 119.402 112.392C119.861 111.827 120.485 111.544 121.274 111.544C122.064 111.544 122.682 111.827 123.13 112.392C123.589 112.957 123.818 113.832 123.818 115.016C123.818 116.189 123.589 117.064 123.13 117.64C122.682 118.216 122.064 118.504 121.274 118.504ZM121.274 117.496C121.69 117.496 122 117.304 122.202 116.92C122.416 116.525 122.522 115.891 122.522 115.016C122.522 114.152 122.416 113.528 122.202 113.144C122 112.749 121.69 112.552 121.274 112.552C120.858 112.552 120.544 112.749 120.33 113.144C120.128 113.528 120.026 114.152 120.026 115.016C120.026 115.891 120.128 116.525 120.33 116.92C120.544 117.304 120.858 117.496 121.274 117.496ZM121.05 123L127.642 111.608H129.034L122.458 123H121.05ZM128.81 123.064C128.021 123.064 127.397 122.776 126.938 122.2C126.48 121.624 126.25 120.749 126.25 119.576C126.25 118.392 126.48 117.517 126.938 116.952C127.397 116.387 128.021 116.104 128.81 116.104C129.6 116.104 130.218 116.387 130.666 116.952C131.125 117.517 131.354 118.392 131.354 119.576C131.354 120.749 131.125 121.624 130.666 122.2C130.218 122.776 129.6 123.064 128.81 123.064ZM128.81 122.056C129.226 122.056 129.536 121.864 129.738 121.48C129.952 121.085 130.058 120.451 130.058 119.576C130.058 118.712 129.952 118.088 129.738 117.704C129.536 117.309 129.226 117.112 128.81 117.112C128.394 117.112 128.08 117.309 127.866 117.704C127.664 118.088 127.562 118.712 127.562 119.576C127.562 120.451 127.664 121.085 127.866 121.48C128.08 121.864 128.394 122.056 128.81 122.056Z" fill="#969EAC"/>
<rect x="0.75" y="107" width="18" height="18" rx="2" fill="#1F32AD"/>
<path d="M267.431 87.16C266.444 87.16 265.511 87 264.631 86.68C263.764 86.3467 263.011 85.8667 262.371 85.24L262.871 84.26C263.591 84.9 264.311 85.36 265.031 85.64C265.751 85.92 266.551 86.06 267.431 86.06C268.564 86.06 269.444 85.8133 270.071 85.32C270.711 84.8133 271.031 84.12 271.031 83.24C271.031 82.6933 270.878 82.2667 270.571 81.96C270.278 81.64 269.878 81.3867 269.371 81.2C268.878 81.0133 268.331 80.8533 267.731 80.72C267.144 80.5733 266.551 80.4133 265.951 80.24C265.351 80.0667 264.798 79.84 264.291 79.56C263.798 79.28 263.398 78.9067 263.091 78.44C262.798 77.9733 262.651 77.3667 262.651 76.62C262.651 75.8333 262.858 75.14 263.271 74.54C263.684 73.9267 264.258 73.4533 264.991 73.12C265.724 72.7733 266.558 72.6 267.491 72.6C268.091 72.6 268.671 72.6733 269.231 72.82C269.804 72.9667 270.338 73.18 270.831 73.46C271.338 73.7267 271.784 74.06 272.171 74.46L271.671 75.44C270.524 74.28 269.131 73.7 267.491 73.7C266.384 73.7 265.511 73.96 264.871 74.48C264.231 75 263.911 75.7067 263.911 76.6C263.911 77.2 264.058 77.6733 264.351 78.02C264.658 78.3667 265.064 78.6467 265.571 78.86C266.078 79.06 266.624 79.2333 267.211 79.38C267.811 79.5267 268.404 79.68 268.991 79.84C269.591 80 270.138 80.2133 270.631 80.48C271.138 80.7333 271.538 81.08 271.831 81.52C272.138 81.96 272.291 82.5267 272.291 83.22C272.291 84.0067 272.084 84.6933 271.671 85.28C271.258 85.8667 270.684 86.3267 269.951 86.66C269.218 86.9933 268.378 87.16 267.431 87.16ZM267.011 89.32V86.94L267.031 86.32V73.36L267.011 72.82V70.44H268.131V72.82L268.111 73.36V86.32L268.131 86.94V89.32H267.011ZM275.123 87V86.06L280.183 80.42C280.89 79.6067 281.403 78.8867 281.723 78.26C282.057 77.62 282.223 76.9733 282.223 76.32C282.223 75.48 281.977 74.8333 281.483 74.38C281.003 73.9133 280.31 73.68 279.403 73.68C278.683 73.68 277.983 73.8267 277.303 74.12C276.637 74.4 275.97 74.8267 275.303 75.4L274.783 74.42C275.343 73.8733 276.043 73.4333 276.883 73.1C277.723 72.7667 278.563 72.6 279.403 72.6C280.243 72.6 280.963 72.7467 281.563 73.04C282.177 73.3333 282.65 73.76 282.983 74.32C283.317 74.8667 283.483 75.52 283.483 76.28C283.483 77.0933 283.29 77.8867 282.903 78.66C282.53 79.42 281.917 80.28 281.063 81.24L276.043 86.72L276.023 85.94H284.103V87H275.123ZM291.275 87.14C290.369 87.14 289.502 86.98 288.675 86.66C287.849 86.34 287.142 85.8933 286.555 85.32L287.075 84.34C287.729 84.9133 288.395 85.3467 289.075 85.64C289.769 85.92 290.502 86.06 291.275 86.06C292.315 86.06 293.115 85.8133 293.675 85.32C294.249 84.8133 294.535 84.0933 294.535 83.16C294.535 82.2 294.235 81.4867 293.635 81.02C293.049 80.54 292.182 80.3 291.035 80.3H289.495V79.22H290.715C291.835 79.22 292.695 78.96 293.295 78.44C293.909 77.92 294.215 77.1867 294.215 76.24C294.215 75.4267 293.969 74.8 293.475 74.36C292.982 73.9067 292.289 73.68 291.395 73.68C290.662 73.68 289.962 73.8267 289.295 74.12C288.629 74.4 287.962 74.8267 287.295 75.4L286.775 74.42C287.349 73.8467 288.042 73.4 288.855 73.08C289.682 72.76 290.535 72.6 291.415 72.6C292.242 72.6 292.962 72.7467 293.575 73.04C294.189 73.3333 294.655 73.7533 294.975 74.3C295.309 74.8333 295.475 75.4733 295.475 76.22C295.462 77.1 295.222 77.86 294.755 78.5C294.302 79.14 293.675 79.5667 292.875 79.78L292.795 79.58C293.769 79.78 294.509 80.1867 295.015 80.8C295.522 81.4 295.775 82.1867 295.775 83.16C295.775 84.3867 295.369 85.36 294.555 86.08C293.742 86.7867 292.649 87.14 291.275 87.14ZM303.668 87.14C302.814 87.14 301.974 86.98 301.148 86.66C300.321 86.34 299.614 85.8933 299.028 85.32L299.548 84.34C300.201 84.9 300.868 85.3267 301.548 85.62C302.228 85.9133 302.934 86.06 303.668 86.06C304.708 86.06 305.528 85.7533 306.128 85.14C306.741 84.5133 307.048 83.68 307.048 82.64C307.048 81.9733 306.914 81.3867 306.648 80.88C306.381 80.36 306.001 79.96 305.508 79.68C305.028 79.3867 304.454 79.24 303.788 79.24C303.041 79.24 302.388 79.3933 301.828 79.7C301.268 79.9933 300.781 80.4533 300.368 81.08H299.408V72.76H307.768V73.82H300.648V80.08L300.248 80.02C300.621 79.4333 301.121 78.9733 301.748 78.64C302.374 78.3067 303.081 78.14 303.868 78.14C304.788 78.14 305.574 78.3333 306.228 78.72C306.894 79.0933 307.401 79.62 307.748 80.3C308.108 80.98 308.288 81.76 308.288 82.64C308.288 83.52 308.101 84.3 307.728 84.98C307.354 85.66 306.821 86.1933 306.128 86.58C305.434 86.9533 304.614 87.14 303.668 87.14ZM311.36 89.14L310.74 88.64C311.06 88.28 311.267 87.9533 311.36 87.66C311.453 87.38 311.5 87.0867 311.5 86.78L311.92 87H310.72V85.26H312.42V86.56C312.42 87.0267 312.34 87.4733 312.18 87.9C312.033 88.3267 311.76 88.74 311.36 89.14ZM319.773 87.16C318.173 87.16 316.96 86.5467 316.133 85.32C315.307 84.08 314.893 82.2667 314.893 79.88C314.893 77.48 315.3 75.6667 316.113 74.44C316.94 73.2133 318.16 72.6 319.773 72.6C321.387 72.6 322.6 73.2133 323.413 74.44C324.24 75.6667 324.653 77.4733 324.653 79.86C324.653 82.2467 324.24 84.06 323.413 85.3C322.587 86.54 321.373 87.16 319.773 87.16ZM319.773 86.06C321 86.06 321.907 85.56 322.493 84.56C323.093 83.5467 323.393 81.98 323.393 79.86C323.393 77.74 323.1 76.1867 322.513 75.2C321.927 74.2 321.013 73.7 319.773 73.7C318.547 73.7 317.633 74.2 317.033 75.2C316.447 76.2 316.153 77.7533 316.153 79.86C316.153 81.9667 316.447 83.5267 317.033 84.54C317.633 85.5533 318.547 86.06 319.773 86.06ZM331.766 87.16C330.166 87.16 328.952 86.5467 328.126 85.32C327.299 84.08 326.886 82.2667 326.886 79.88C326.886 77.48 327.292 75.6667 328.106 74.44C328.932 73.2133 330.152 72.6 331.766 72.6C333.379 72.6 334.592 73.2133 335.406 74.44C336.232 75.6667 336.646 77.4733 336.646 79.86C336.646 82.2467 336.232 84.06 335.406 85.3C334.579 86.54 333.366 87.16 331.766 87.16ZM331.766 86.06C332.992 86.06 333.899 85.56 334.486 84.56C335.086 83.5467 335.386 81.98 335.386 79.86C335.386 77.74 335.092 76.1867 334.506 75.2C333.919 74.2 333.006 73.7 331.766 73.7C330.539 73.7 329.626 74.2 329.026 75.2C328.439 76.2 328.146 77.7533 328.146 79.86C328.146 81.9667 328.439 83.5267 329.026 84.54C329.626 85.5533 330.539 86.06 331.766 86.06ZM343.758 87.16C342.158 87.16 340.944 86.5467 340.118 85.32C339.291 84.08 338.878 82.2667 338.878 79.88C338.878 77.48 339.284 75.6667 340.098 74.44C340.924 73.2133 342.144 72.6 343.758 72.6C345.371 72.6 346.584 73.2133 347.398 74.44C348.224 75.6667 348.638 77.4733 348.638 79.86C348.638 82.2467 348.224 84.06 347.398 85.3C346.571 86.54 345.358 87.16 343.758 87.16ZM343.758 86.06C344.984 86.06 345.891 85.56 346.478 84.56C347.078 83.5467 347.378 81.98 347.378 79.86C347.378 77.74 347.084 76.1867 346.498 75.2C345.911 74.2 344.998 73.7 343.758 73.7C342.531 73.7 341.618 74.2 341.018 75.2C340.431 76.2 340.138 77.7533 340.138 79.86C340.138 81.9667 340.431 83.5267 341.018 84.54C341.618 85.5533 342.531 86.06 343.758 86.06Z" fill="#969EAC"/>
<path d="M45.79 87.128C45.2033 87.128 44.6487 87.08 44.126 86.984C43.614 86.8773 43.134 86.7173 42.686 86.504C42.2487 86.2907 41.854 86.024 41.502 85.704L42.046 84.584C42.6113 85.0533 43.1873 85.3893 43.774 85.592C44.3607 85.7947 45.038 85.896 45.806 85.896C46.6913 85.896 47.374 85.7253 47.854 85.384C48.334 85.0427 48.574 84.5627 48.574 83.944C48.574 83.5707 48.4567 83.272 48.222 83.048C47.9873 82.8133 47.6567 82.6267 47.23 82.488C46.814 82.3387 46.334 82.2 45.79 82.072C45.214 81.9547 44.6753 81.816 44.174 81.656C43.6833 81.496 43.2513 81.2987 42.878 81.064C42.5047 80.8187 42.2167 80.5147 42.014 80.152C41.8113 79.7893 41.71 79.3413 41.71 78.808C41.71 78.1573 41.8807 77.5813 42.222 77.08C42.574 76.5787 43.0647 76.1893 43.694 75.912C44.3233 75.624 45.0647 75.48 45.918 75.48C46.4407 75.48 46.942 75.5387 47.422 75.656C47.9127 75.7627 48.366 75.9227 48.782 76.136C49.198 76.3387 49.5607 76.5947 49.87 76.904L49.326 78.024C48.8033 77.576 48.2647 77.2453 47.71 77.032C47.1553 76.8187 46.558 76.712 45.918 76.712C45.0647 76.712 44.3927 76.8933 43.902 77.256C43.422 77.608 43.182 78.104 43.182 78.744C43.182 79.1387 43.2887 79.4587 43.502 79.704C43.7153 79.9493 44.0193 80.1467 44.414 80.296C44.8087 80.4453 45.278 80.584 45.822 80.712C46.398 80.84 46.942 80.984 47.454 81.144C47.966 81.304 48.414 81.496 48.798 81.72C49.1927 81.944 49.502 82.232 49.726 82.584C49.95 82.9253 50.062 83.3573 50.062 83.88C50.062 84.5413 49.8913 85.1173 49.55 85.608C49.2087 86.088 48.718 86.4613 48.078 86.728C47.438 86.9947 46.6753 87.128 45.79 87.128ZM50.8464 80.072V78.952H56.1264V80.072H50.8464ZM56.0944 85.736V86.952C55.913 87.0053 55.7264 87.0427 55.5344 87.064C55.353 87.096 55.1557 87.112 54.9424 87.112C54.153 87.112 53.529 86.888 53.0704 86.44C52.6224 85.992 52.3984 85.3307 52.3984 84.456V76.904L53.8544 76.392V84.296C53.8544 84.712 53.913 85.0373 54.0304 85.272C54.1584 85.496 54.3237 85.656 54.5264 85.752C54.7397 85.8373 54.9797 85.88 55.2464 85.88C55.3957 85.88 55.5344 85.8693 55.6624 85.848C55.7904 85.8267 55.9344 85.7893 56.0944 85.736ZM61.0611 87.112C60.2825 87.112 59.5998 86.9413 59.0131 86.6C58.4371 86.2587 57.9891 85.7787 57.6691 85.16C57.3491 84.5307 57.1891 83.7893 57.1891 82.936C57.1891 82.0933 57.3491 81.3573 57.6691 80.728C57.9891 80.088 58.4371 79.5973 59.0131 79.256C59.5998 78.9147 60.2825 78.744 61.0611 78.744C61.8505 78.744 62.5331 78.9147 63.1091 79.256C63.6851 79.5973 64.1331 80.088 64.4531 80.728C64.7731 81.3573 64.9331 82.0933 64.9331 82.936C64.9331 83.7893 64.7731 84.5307 64.4531 85.16C64.1331 85.7787 63.6851 86.2587 63.1091 86.6C62.5331 86.9413 61.8505 87.112 61.0611 87.112ZM61.0611 85.928C61.8291 85.928 62.4211 85.6773 62.8371 85.176C63.2531 84.664 63.4611 83.9173 63.4611 82.936C63.4611 81.9653 63.2478 81.224 62.8211 80.712C62.4051 80.2 61.8185 79.944 61.0611 79.944C60.3145 79.944 59.7278 80.2 59.3011 80.712C58.8745 81.224 58.6611 81.9653 58.6611 82.936C58.6611 83.9173 58.8691 84.664 59.2851 85.176C59.7011 85.6773 60.2931 85.928 61.0611 85.928ZM70.3435 87.112C69.5328 87.112 68.8342 86.9413 68.2475 86.6C67.6715 86.2587 67.2235 85.7787 66.9035 85.16C66.5835 84.5413 66.4235 83.8107 66.4235 82.968C66.4235 82.136 66.5835 81.4 66.9035 80.76C67.2342 80.12 67.6982 79.624 68.2955 79.272C68.8928 78.92 69.5968 78.744 70.4075 78.744C70.9622 78.744 71.4955 78.84 72.0075 79.032C72.5195 79.2133 72.9408 79.4693 73.2715 79.8L72.8075 80.856C72.4235 80.5573 72.0395 80.3333 71.6555 80.184C71.2822 80.024 70.8928 79.944 70.4875 79.944C69.7088 79.944 69.0848 80.2053 68.6155 80.728C68.1568 81.2507 67.9275 81.9973 67.9275 82.968C67.9275 83.9173 68.1568 84.648 68.6155 85.16C69.0742 85.672 69.7035 85.928 70.5035 85.928C70.8875 85.928 71.2715 85.8533 71.6555 85.704C72.0395 85.5547 72.4235 85.3253 72.8075 85.016L73.2715 86.072C72.9302 86.392 72.4982 86.648 71.9755 86.84C71.4528 87.0213 70.9088 87.112 70.3435 87.112ZM80.2966 87L76.0246 82.888L79.9926 78.968H81.8166L77.4006 83.272L77.4646 82.424L82.1686 87H80.2966ZM74.8566 87V75.224H76.3126V87H74.8566ZM85.859 87.112C84.483 87.112 83.3897 86.7653 82.579 86.072L83.043 85.016C83.4697 85.3467 83.9123 85.592 84.371 85.752C84.8403 85.9013 85.3523 85.976 85.907 85.976C86.483 85.976 86.9203 85.88 87.219 85.688C87.5283 85.4853 87.683 85.1973 87.683 84.824C87.683 84.5253 87.5763 84.2907 87.363 84.12C87.1603 83.9387 86.819 83.7893 86.339 83.672L84.995 83.352C84.3017 83.2027 83.7683 82.936 83.395 82.552C83.0323 82.168 82.851 81.704 82.851 81.16C82.851 80.6907 82.979 80.2747 83.235 79.912C83.5017 79.5493 83.8697 79.2667 84.339 79.064C84.8083 78.8507 85.363 78.744 86.003 78.744C86.5683 78.744 87.1017 78.8347 87.603 79.016C88.115 79.1973 88.547 79.4587 88.899 79.8L88.435 80.84C88.051 80.52 87.6563 80.2853 87.251 80.136C86.8457 79.976 86.4243 79.896 85.987 79.896C85.443 79.896 85.0163 80.0027 84.707 80.216C84.4083 80.4293 84.259 80.7173 84.259 81.08C84.259 81.3893 84.355 81.6347 84.547 81.816C84.739 81.9973 85.043 82.1413 85.459 82.248L86.819 82.584C87.587 82.744 88.1523 83.0107 88.515 83.384C88.8777 83.7467 89.059 84.216 89.059 84.792C89.059 85.496 88.771 86.0613 88.195 86.488C87.619 86.904 86.8403 87.112 85.859 87.112ZM95.1989 83.288V82.104H99.7909V83.288H95.1989ZM105.434 86.328V76.552L106.25 76.888L103.098 78.872V77.48L106.074 75.608H106.922V86.328H105.434ZM102.922 87V85.768H109.434V87H102.922ZM115.331 87.128C114.019 87.128 113.022 86.6373 112.339 85.656C111.657 84.664 111.315 83.2133 111.315 81.304C111.315 79.3947 111.651 77.9493 112.323 76.968C113.006 75.976 114.009 75.48 115.331 75.48C116.654 75.48 117.651 75.976 118.323 76.968C119.006 77.9493 119.347 79.3893 119.347 81.288C119.347 83.1973 119.006 84.648 118.323 85.64C117.641 86.632 116.643 87.128 115.331 87.128ZM115.331 85.912C116.195 85.912 116.83 85.5387 117.235 84.792C117.651 84.0453 117.859 82.8773 117.859 81.288C117.859 79.6987 117.651 78.5413 117.235 77.816C116.83 77.08 116.195 76.712 115.331 76.712C114.467 76.712 113.827 77.08 113.411 77.816C113.006 78.552 112.803 79.7093 112.803 81.288C112.803 82.8773 113.006 84.0453 113.411 84.792C113.827 85.5387 114.467 85.912 115.331 85.912ZM123.165 82.504C122.376 82.504 121.752 82.216 121.293 81.64C120.834 81.064 120.605 80.1893 120.605 79.016C120.605 77.832 120.834 76.9573 121.293 76.392C121.752 75.8267 122.376 75.544 123.165 75.544C123.954 75.544 124.573 75.8267 125.021 76.392C125.48 76.9573 125.709 77.832 125.709 79.016C125.709 80.1893 125.48 81.064 125.021 81.64C124.573 82.216 123.954 82.504 123.165 82.504ZM123.165 81.496C123.581 81.496 123.89 81.304 124.093 80.92C124.306 80.5253 124.413 79.8907 124.413 79.016C124.413 78.152 124.306 77.528 124.093 77.144C123.89 76.7493 123.581 76.552 123.165 76.552C122.749 76.552 122.434 76.7493 122.221 77.144C122.018 77.528 121.917 78.152 121.917 79.016C121.917 79.8907 122.018 80.5253 122.221 80.92C122.434 81.304 122.749 81.496 123.165 81.496ZM122.941 87L129.533 75.608H130.925L124.349 87H122.941ZM130.701 87.064C129.912 87.064 129.288 86.776 128.829 86.2C128.37 85.624 128.141 84.7493 128.141 83.576C128.141 82.392 128.37 81.5173 128.829 80.952C129.288 80.3867 129.912 80.104 130.701 80.104C131.49 80.104 132.109 80.3867 132.557 80.952C133.016 81.5173 133.245 82.392 133.245 83.576C133.245 84.7493 133.016 85.624 132.557 86.2C132.109 86.776 131.49 87.064 130.701 87.064ZM130.701 86.056C131.117 86.056 131.426 85.864 131.629 85.48C131.842 85.0853 131.949 84.4507 131.949 83.576C131.949 82.712 131.842 82.088 131.629 81.704C131.426 81.3093 131.117 81.112 130.701 81.112C130.285 81.112 129.97 81.3093 129.757 81.704C129.554 82.088 129.453 82.712 129.453 83.576C129.453 84.4507 129.554 85.0853 129.757 85.48C129.97 85.864 130.285 86.056 130.701 86.056Z" fill="#969EAC"/>
<rect x="1" y="71" width="18" height="18" rx="2" fill="#235EE7"/>
<path d="M555.5 24C528.38 24 501.737 31.1389 478.25 44.6991C454.763 58.2593 435.259 77.763 421.699 101.25L475.219 132.15C483.356 118.058 495.058 106.356 509.15 98.2194C523.242 90.0833 539.228 85.8 555.5 85.8V24Z" fill="#D3365F"/>
<path d="M421.699 101.25C408.139 124.737 401 151.38 401 178.5L462.8 178.5C462.8 162.228 467.083 146.242 475.219 132.15L421.699 101.25Z" fill="#29CFD6"/>
<path d="M401 178.5C401 205.62 408.139 232.263 421.699 255.75C435.259 279.237 454.763 298.741 478.25 312.301L509.15 258.781C495.058 250.644 483.356 238.942 475.219 224.85C467.083 210.758 462.8 194.772 462.8 178.5H401Z" fill="#FFBC02"/>
<path d="M478.25 312.301C495.821 322.446 515.218 329.03 535.334 331.678C555.449 334.327 575.89 332.987 595.488 327.736C615.085 322.484 633.457 313.424 649.554 301.073C665.65 288.722 679.156 273.321 689.301 255.75L635.781 224.85C629.694 235.393 621.59 244.633 611.932 252.044C602.274 259.455 591.251 264.891 579.493 268.041C567.734 271.192 555.47 271.996 543.4 270.407C531.331 268.818 519.693 264.867 509.15 258.781L478.25 312.301Z" fill="#1F32AD"/>
<g filter="url(#filter0_d)">
<path d="M689.301 255.75C702.861 232.263 710 205.62 710 178.5C710 151.38 702.861 124.737 689.301 101.25C675.741 77.763 656.237 58.2593 632.75 44.6991C609.263 31.1389 582.62 24 555.5 24V85.8C571.772 85.8 587.758 90.0833 601.85 98.2194C615.942 106.356 627.644 118.058 635.781 132.15C643.917 146.242 648.2 162.228 648.2 178.5C648.2 194.772 643.917 210.758 635.781 224.85L689.301 255.75Z" fill="#235EE7"/>
</g>
<g filter="url(#filter1_di)">
<rect x="70" y="174" width="440" height="354" rx="6" fill="white"/>
</g>
<path d="M420.268 494.492V493.386C420.847 493.489 421.3 493.512 421.626 493.456C421.962 493.409 422.196 493.251 422.326 492.98C422.466 492.719 422.536 492.322 422.536 491.79V482.032H423.838V491.79C423.838 492.583 423.722 493.199 423.488 493.638C423.255 494.086 422.877 494.375 422.354 494.506C421.841 494.637 421.146 494.632 420.268 494.492ZM428.597 492.098C427.748 492.098 427.109 491.865 426.679 491.398C426.259 490.922 426.049 490.222 426.049 489.298V484.958H427.323V489.284C427.323 489.891 427.445 490.339 427.687 490.628C427.939 490.908 428.322 491.048 428.835 491.048C429.433 491.048 429.913 490.857 430.277 490.474C430.641 490.082 430.823 489.564 430.823 488.92V484.958H432.111V492H430.865V490.488L431.033 490.418C430.847 490.969 430.534 491.389 430.095 491.678C429.657 491.958 429.157 492.098 428.597 492.098ZM434.226 492V486.932C434.226 486.605 434.217 486.279 434.198 485.952C434.189 485.616 434.161 485.285 434.114 484.958H435.318L435.444 486.4L435.304 486.484C435.509 485.933 435.836 485.513 436.284 485.224C436.741 484.925 437.264 484.776 437.852 484.776C439.541 484.776 440.386 485.714 440.386 487.59V492H439.112V487.66C439.112 487.025 438.986 486.563 438.734 486.274C438.491 485.975 438.099 485.826 437.558 485.826C436.933 485.826 436.433 486.022 436.06 486.414C435.687 486.797 435.5 487.315 435.5 487.968V492H434.226ZM446.218 492V491.02L449.69 487.212C450.138 486.708 450.464 486.255 450.67 485.854C450.884 485.443 450.992 485.033 450.992 484.622C450.992 484.099 450.838 483.698 450.53 483.418C450.222 483.129 449.788 482.984 449.228 482.984C448.752 482.984 448.28 483.082 447.814 483.278C447.347 483.465 446.885 483.745 446.428 484.118L445.952 483.138C446.344 482.765 446.838 482.471 447.436 482.256C448.042 482.032 448.649 481.92 449.256 481.92C449.881 481.92 450.418 482.027 450.866 482.242C451.314 482.447 451.664 482.751 451.916 483.152C452.168 483.544 452.294 484.011 452.294 484.552C452.294 485.121 452.163 485.667 451.902 486.19C451.65 486.713 451.23 487.301 450.642 487.954L447.352 491.496L447.24 490.922H452.7V492H446.218ZM457.692 492.112C456.544 492.112 455.672 491.683 455.074 490.824C454.477 489.956 454.178 488.687 454.178 487.016C454.178 485.345 454.472 484.081 455.06 483.222C455.658 482.354 456.535 481.92 457.692 481.92C458.85 481.92 459.722 482.354 460.31 483.222C460.908 484.081 461.206 485.341 461.206 487.002C461.206 488.673 460.908 489.942 460.31 490.81C459.713 491.678 458.84 492.112 457.692 492.112ZM457.692 491.048C458.448 491.048 459.004 490.721 459.358 490.068C459.722 489.415 459.904 488.393 459.904 487.002C459.904 485.611 459.722 484.599 459.358 483.964C459.004 483.32 458.448 482.998 457.692 482.998C456.936 482.998 456.376 483.32 456.012 483.964C455.658 484.608 455.48 485.621 455.48 487.002C455.48 488.393 455.658 489.415 456.012 490.068C456.376 490.721 456.936 491.048 457.692 491.048ZM463.007 492V491.02L466.479 487.212C466.927 486.708 467.253 486.255 467.459 485.854C467.673 485.443 467.781 485.033 467.781 484.622C467.781 484.099 467.627 483.698 467.319 483.418C467.011 483.129 466.577 482.984 466.017 482.984C465.541 482.984 465.069 483.082 464.603 483.278C464.136 483.465 463.674 483.745 463.217 484.118L462.741 483.138C463.133 482.765 463.627 482.471 464.225 482.256C464.831 482.032 465.438 481.92 466.045 481.92C466.67 481.92 467.207 482.027 467.655 482.242C468.103 482.447 468.453 482.751 468.705 483.152C468.957 483.544 469.083 484.011 469.083 484.552C469.083 485.121 468.952 485.667 468.691 486.19C468.439 486.713 468.019 487.301 467.431 487.954L464.141 491.496L464.029 490.922H469.489V492H463.007ZM474.481 492.112C473.333 492.112 472.461 491.683 471.863 490.824C471.266 489.956 470.967 488.687 470.967 487.016C470.967 485.345 471.261 484.081 471.849 483.222C472.447 482.354 473.324 481.92 474.481 481.92C475.639 481.92 476.511 482.354 477.099 483.222C477.697 484.081 477.995 485.341 477.995 487.002C477.995 488.673 477.697 489.942 477.099 490.81C476.502 491.678 475.629 492.112 474.481 492.112ZM474.481 491.048C475.237 491.048 475.793 490.721 476.147 490.068C476.511 489.415 476.693 488.393 476.693 487.002C476.693 485.611 476.511 484.599 476.147 483.964C475.793 483.32 475.237 482.998 474.481 482.998C473.725 482.998 473.165 483.32 472.801 483.964C472.447 484.608 472.269 485.621 472.269 487.002C472.269 488.393 472.447 489.415 472.801 490.068C473.165 490.721 473.725 491.048 474.481 491.048Z" fill="#969EAC"/>
<path d="M311.665 492V482.032H312.729L316.705 491.09H316.145L320.093 482.032H321.143V492H319.967V483.796L320.401 483.852L316.859 492H315.963L312.365 483.852L312.841 483.796L312.855 492H311.665ZM326.108 492.098C325.492 492.098 324.946 491.953 324.47 491.664C324.003 491.365 323.639 490.945 323.378 490.404C323.116 489.853 322.986 489.209 322.986 488.472C322.986 487.735 323.116 487.091 323.378 486.54C323.648 485.989 324.017 485.56 324.484 485.252C324.96 484.935 325.501 484.776 326.108 484.776C326.742 484.776 327.284 484.935 327.732 485.252C328.18 485.56 328.483 486.003 328.642 486.582L328.474 486.68V484.958H329.734V492H328.474V490.236L328.642 490.306C328.483 490.875 328.18 491.319 327.732 491.636C327.284 491.944 326.742 492.098 326.108 492.098ZM326.388 491.062C327.06 491.062 327.573 490.838 327.928 490.39C328.292 489.933 328.474 489.284 328.474 488.444C328.474 487.604 328.292 486.96 327.928 486.512C327.564 486.055 327.05 485.826 326.388 485.826C325.725 485.826 325.207 486.059 324.834 486.526C324.46 486.993 324.274 487.641 324.274 488.472C324.274 489.303 324.46 489.942 324.834 490.39C325.207 490.838 325.725 491.062 326.388 491.062ZM331.547 495.178L331.281 494.198C331.71 494.095 332.07 493.974 332.359 493.834C332.658 493.703 332.905 493.531 333.101 493.316C333.297 493.111 333.47 492.835 333.619 492.49L334.081 491.44L334.375 491.02L336.881 484.958H338.155L334.865 492.602C334.613 493.181 334.324 493.643 333.997 493.988C333.67 494.343 333.302 494.609 332.891 494.786C332.49 494.963 332.042 495.094 331.547 495.178ZM334.095 492.392L330.917 484.958H332.247L334.725 491.02L334.095 492.392ZM343.081 492V491.02L346.553 487.212C347.001 486.708 347.328 486.255 347.533 485.854C347.748 485.443 347.855 485.033 347.855 484.622C347.855 484.099 347.701 483.698 347.393 483.418C347.085 483.129 346.651 482.984 346.091 482.984C345.615 482.984 345.144 483.082 344.677 483.278C344.21 483.465 343.748 483.745 343.291 484.118L342.815 483.138C343.207 482.765 343.702 482.471 344.299 482.256C344.906 482.032 345.512 481.92 346.119 481.92C346.744 481.92 347.281 482.027 347.729 482.242C348.177 482.447 348.527 482.751 348.779 483.152C349.031 483.544 349.157 484.011 349.157 484.552C349.157 485.121 349.026 485.667 348.765 486.19C348.513 486.713 348.093 487.301 347.505 487.954L344.215 491.496L344.103 490.922H349.563V492H343.081ZM354.555 492.112C353.407 492.112 352.535 491.683 351.937 490.824C351.34 489.956 351.041 488.687 351.041 487.016C351.041 485.345 351.335 484.081 351.923 483.222C352.521 482.354 353.398 481.92 354.555 481.92C355.713 481.92 356.585 482.354 357.173 483.222C357.771 484.081 358.069 485.341 358.069 487.002C358.069 488.673 357.771 489.942 357.173 490.81C356.576 491.678 355.703 492.112 354.555 492.112ZM354.555 491.048C355.311 491.048 355.867 490.721 356.221 490.068C356.585 489.415 356.767 488.393 356.767 487.002C356.767 485.611 356.585 484.599 356.221 483.964C355.867 483.32 355.311 482.998 354.555 482.998C353.799 482.998 353.239 483.32 352.875 483.964C352.521 484.608 352.343 485.621 352.343 487.002C352.343 488.393 352.521 489.415 352.875 490.068C353.239 490.721 353.799 491.048 354.555 491.048ZM359.87 492V491.02L363.342 487.212C363.79 486.708 364.117 486.255 364.322 485.854C364.537 485.443 364.644 485.033 364.644 484.622C364.644 484.099 364.49 483.698 364.182 483.418C363.874 483.129 363.44 482.984 362.88 482.984C362.404 482.984 361.933 483.082 361.466 483.278C360.999 483.465 360.537 483.745 360.08 484.118L359.604 483.138C359.996 482.765 360.491 482.471 361.088 482.256C361.695 482.032 362.301 481.92 362.908 481.92C363.533 481.92 364.07 482.027 364.518 482.242C364.966 482.447 365.316 482.751 365.568 483.152C365.82 483.544 365.946 484.011 365.946 484.552C365.946 485.121 365.815 485.667 365.554 486.19C365.302 486.713 364.882 487.301 364.294 487.954L361.004 491.496L360.892 490.922H366.352V492H359.87ZM371.345 492.112C370.197 492.112 369.324 491.683 368.727 490.824C368.129 489.956 367.831 488.687 367.831 487.016C367.831 485.345 368.125 484.081 368.713 483.222C369.31 482.354 370.187 481.92 371.345 481.92C372.502 481.92 373.375 482.354 373.963 483.222C374.56 484.081 374.859 485.341 374.859 487.002C374.859 488.673 374.56 489.942 373.963 490.81C373.365 491.678 372.493 492.112 371.345 492.112ZM371.345 491.048C372.101 491.048 372.656 490.721 373.011 490.068C373.375 489.415 373.557 488.393 373.557 487.002C373.557 485.611 373.375 484.599 373.011 483.964C372.656 483.32 372.101 482.998 371.345 482.998C370.589 482.998 370.029 483.32 369.665 483.964C369.31 484.608 369.133 485.621 369.133 487.002C369.133 488.393 369.31 489.415 369.665 490.068C370.029 490.721 370.589 491.048 371.345 491.048Z" fill="#969EAC"/>
<path d="M207.922 492H206.592L211.002 482.032H212.108L216.532 492H215.216L211.352 482.998H211.786L207.922 492ZM208.482 489.494L208.944 488.43H214.152L214.614 489.494H208.482ZM217.782 495.024V486.932C217.782 486.605 217.772 486.279 217.754 485.952C217.744 485.616 217.716 485.285 217.67 484.958H218.874L219 486.4L218.888 486.582C219.046 486.003 219.35 485.56 219.798 485.252C220.246 484.935 220.782 484.776 221.408 484.776C222.024 484.776 222.565 484.935 223.032 485.252C223.508 485.56 223.876 485.989 224.138 486.54C224.408 487.091 224.544 487.735 224.544 488.472C224.544 489.209 224.408 489.853 224.138 490.404C223.876 490.945 223.512 491.365 223.046 491.664C222.579 491.953 222.033 492.098 221.408 492.098C220.782 492.098 220.246 491.944 219.798 491.636C219.35 491.319 219.046 490.875 218.888 490.306L219.056 490.152V495.024H217.782ZM221.142 491.062C221.804 491.062 222.318 490.838 222.682 490.39C223.046 489.942 223.228 489.303 223.228 488.472C223.228 487.641 223.046 486.993 222.682 486.526C222.318 486.059 221.804 485.826 221.142 485.826C220.47 485.826 219.952 486.055 219.588 486.512C219.224 486.96 219.042 487.604 219.042 488.444C219.042 489.284 219.224 489.933 219.588 490.39C219.952 490.838 220.47 491.062 221.142 491.062ZM226.231 492V486.932C226.231 486.605 226.222 486.279 226.203 485.952C226.194 485.616 226.166 485.285 226.119 484.958H227.323L227.477 486.708L227.323 486.652C227.444 486.036 227.72 485.574 228.149 485.266C228.588 484.949 229.078 484.79 229.619 484.79C229.75 484.79 229.866 484.799 229.969 484.818C230.081 484.827 230.184 484.846 230.277 484.874L230.263 486.036C230.03 485.952 229.768 485.91 229.479 485.91C229.003 485.91 228.62 486.013 228.331 486.218C228.042 486.423 227.832 486.685 227.701 487.002C227.57 487.319 227.505 487.66 227.505 488.024V492H226.231ZM235.146 492V491.02L238.618 487.212C239.066 486.708 239.393 486.255 239.598 485.854C239.813 485.443 239.92 485.033 239.92 484.622C239.92 484.099 239.766 483.698 239.458 483.418C239.15 483.129 238.716 482.984 238.156 482.984C237.68 482.984 237.209 483.082 236.742 483.278C236.276 483.465 235.814 483.745 235.356 484.118L234.88 483.138C235.272 482.765 235.767 482.471 236.364 482.256C236.971 482.032 237.578 481.92 238.184 481.92C238.81 481.92 239.346 482.027 239.794 482.242C240.242 482.447 240.592 482.751 240.844 483.152C241.096 483.544 241.222 484.011 241.222 484.552C241.222 485.121 241.092 485.667 240.83 486.19C240.578 486.713 240.158 487.301 239.57 487.954L236.28 491.496L236.168 490.922H241.628V492H235.146ZM246.621 492.112C245.473 492.112 244.6 491.683 244.003 490.824C243.406 489.956 243.107 488.687 243.107 487.016C243.107 485.345 243.401 484.081 243.989 483.222C244.586 482.354 245.464 481.92 246.621 481.92C247.778 481.92 248.651 482.354 249.239 483.222C249.836 484.081 250.135 485.341 250.135 487.002C250.135 488.673 249.836 489.942 249.239 490.81C248.642 491.678 247.769 492.112 246.621 492.112ZM246.621 491.048C247.377 491.048 247.932 490.721 248.287 490.068C248.651 489.415 248.833 488.393 248.833 487.002C248.833 485.611 248.651 484.599 248.287 483.964C247.932 483.32 247.377 482.998 246.621 482.998C245.865 482.998 245.305 483.32 244.941 483.964C244.586 484.608 244.409 485.621 244.409 487.002C244.409 488.393 244.586 489.415 244.941 490.068C245.305 490.721 245.865 491.048 246.621 491.048ZM251.935 492V491.02L255.407 487.212C255.855 486.708 256.182 486.255 256.387 485.854C256.602 485.443 256.709 485.033 256.709 484.622C256.709 484.099 256.555 483.698 256.247 483.418C255.939 483.129 255.505 482.984 254.945 482.984C254.469 482.984 253.998 483.082 253.531 483.278C253.065 483.465 252.603 483.745 252.145 484.118L251.669 483.138C252.061 482.765 252.556 482.471 253.153 482.256C253.76 482.032 254.367 481.92 254.973 481.92C255.599 481.92 256.135 482.027 256.583 482.242C257.031 482.447 257.381 482.751 257.633 483.152C257.885 483.544 258.011 484.011 258.011 484.552C258.011 485.121 257.881 485.667 257.619 486.19C257.367 486.713 256.947 487.301 256.359 487.954L253.069 491.496L252.957 490.922H258.417V492H251.935ZM263.41 492.112C262.262 492.112 261.389 491.683 260.792 490.824C260.195 489.956 259.896 488.687 259.896 487.016C259.896 485.345 260.19 484.081 260.778 483.222C261.375 482.354 262.253 481.92 263.41 481.92C264.567 481.92 265.44 482.354 266.028 483.222C266.625 484.081 266.924 485.341 266.924 487.002C266.924 488.673 266.625 489.942 266.028 490.81C265.431 491.678 264.558 492.112 263.41 492.112ZM263.41 491.048C264.166 491.048 264.721 490.721 265.076 490.068C265.44 489.415 265.622 488.393 265.622 487.002C265.622 485.611 265.44 484.599 265.076 483.964C264.721 483.32 264.166 482.998 263.41 482.998C262.654 482.998 262.094 483.32 261.73 483.964C261.375 484.608 261.198 485.621 261.198 487.002C261.198 488.393 261.375 489.415 261.73 490.068C262.094 490.721 262.654 491.048 263.41 491.048Z" fill="#969EAC"/>
<path d="M101.32 492V482.032H102.384L106.36 491.09H105.8L109.748 482.032H110.798V492H109.622V483.796L110.056 483.852L106.514 492H105.618L102.02 483.852L102.496 483.796L102.51 492H101.32ZM115.763 492.098C115.147 492.098 114.601 491.953 114.125 491.664C113.658 491.365 113.294 490.945 113.033 490.404C112.772 489.853 112.641 489.209 112.641 488.472C112.641 487.735 112.772 487.091 113.033 486.54C113.304 485.989 113.672 485.56 114.139 485.252C114.615 484.935 115.156 484.776 115.763 484.776C116.398 484.776 116.939 484.935 117.387 485.252C117.835 485.56 118.138 486.003 118.297 486.582L118.129 486.68V484.958H119.389V492H118.129V490.236L118.297 490.306C118.138 490.875 117.835 491.319 117.387 491.636C116.939 491.944 116.398 492.098 115.763 492.098ZM116.043 491.062C116.715 491.062 117.228 490.838 117.583 490.39C117.947 489.933 118.129 489.284 118.129 488.444C118.129 487.604 117.947 486.96 117.583 486.512C117.219 486.055 116.706 485.826 116.043 485.826C115.38 485.826 114.862 486.059 114.489 486.526C114.116 486.993 113.929 487.641 113.929 488.472C113.929 489.303 114.116 489.942 114.489 490.39C114.862 490.838 115.38 491.062 116.043 491.062ZM121.51 492V486.932C121.51 486.605 121.501 486.279 121.482 485.952C121.473 485.616 121.445 485.285 121.398 484.958H122.602L122.756 486.708L122.602 486.652C122.724 486.036 122.999 485.574 123.428 485.266C123.867 484.949 124.357 484.79 124.898 484.79C125.029 484.79 125.146 484.799 125.248 484.818C125.36 484.827 125.463 484.846 125.556 484.874L125.542 486.036C125.309 485.952 125.048 485.91 124.758 485.91C124.282 485.91 123.9 486.013 123.61 486.218C123.321 486.423 123.111 486.685 122.98 487.002C122.85 487.319 122.784 487.66 122.784 488.024V492H121.51ZM130.426 492V491.02L133.898 487.212C134.346 486.708 134.672 486.255 134.878 485.854C135.092 485.443 135.2 485.033 135.2 484.622C135.2 484.099 135.046 483.698 134.738 483.418C134.43 483.129 133.996 482.984 133.436 482.984C132.96 482.984 132.488 483.082 132.022 483.278C131.555 483.465 131.093 483.745 130.636 484.118L130.16 483.138C130.552 482.765 131.046 482.471 131.644 482.256C132.25 482.032 132.857 481.92 133.464 481.92C134.089 481.92 134.626 482.027 135.074 482.242C135.522 482.447 135.872 482.751 136.124 483.152C136.376 483.544 136.502 484.011 136.502 484.552C136.502 485.121 136.371 485.667 136.11 486.19C135.858 486.713 135.438 487.301 134.85 487.954L131.56 491.496L131.448 490.922H136.908V492H130.426ZM141.9 492.112C140.752 492.112 139.88 491.683 139.282 490.824C138.685 489.956 138.386 488.687 138.386 487.016C138.386 485.345 138.68 484.081 139.268 483.222C139.866 482.354 140.743 481.92 141.9 481.92C143.058 481.92 143.93 482.354 144.518 483.222C145.116 484.081 145.414 485.341 145.414 487.002C145.414 488.673 145.116 489.942 144.518 490.81C143.921 491.678 143.048 492.112 141.9 492.112ZM141.9 491.048C142.656 491.048 143.212 490.721 143.566 490.068C143.93 489.415 144.112 488.393 144.112 487.002C144.112 485.611 143.93 484.599 143.566 483.964C143.212 483.32 142.656 482.998 141.9 482.998C141.144 482.998 140.584 483.32 140.22 483.964C139.866 484.608 139.688 485.621 139.688 487.002C139.688 488.393 139.866 489.415 140.22 490.068C140.584 490.721 141.144 491.048 141.9 491.048ZM147.215 492V491.02L150.687 487.212C151.135 486.708 151.461 486.255 151.667 485.854C151.881 485.443 151.989 485.033 151.989 484.622C151.989 484.099 151.835 483.698 151.527 483.418C151.219 483.129 150.785 482.984 150.225 482.984C149.749 482.984 149.277 483.082 148.811 483.278C148.344 483.465 147.882 483.745 147.425 484.118L146.949 483.138C147.341 482.765 147.835 482.471 148.433 482.256C149.039 482.032 149.646 481.92 150.253 481.92C150.878 481.92 151.415 482.027 151.863 482.242C152.311 482.447 152.661 482.751 152.913 483.152C153.165 483.544 153.291 484.011 153.291 484.552C153.291 485.121 153.16 485.667 152.899 486.19C152.647 486.713 152.227 487.301 151.639 487.954L148.349 491.496L148.237 490.922H153.697V492H147.215ZM158.689 492.112C157.541 492.112 156.669 491.683 156.071 490.824C155.474 489.956 155.175 488.687 155.175 487.016C155.175 485.345 155.469 484.081 156.057 483.222C156.655 482.354 157.532 481.92 158.689 481.92C159.847 481.92 160.719 482.354 161.307 483.222C161.905 484.081 162.203 485.341 162.203 487.002C162.203 488.673 161.905 489.942 161.307 490.81C160.71 491.678 159.837 492.112 158.689 492.112ZM158.689 491.048C159.445 491.048 160.001 490.721 160.355 490.068C160.719 489.415 160.901 488.393 160.901 487.002C160.901 485.611 160.719 484.599 160.355 483.964C160.001 483.32 159.445 482.998 158.689 482.998C157.933 482.998 157.373 483.32 157.009 483.964C156.655 484.608 156.477 485.621 156.477 487.002C156.477 488.393 156.655 489.415 157.009 490.068C157.373 490.721 157.933 491.048 158.689 491.048Z" fill="#969EAC"/>
<path opacity="0.24" d="M110 462H470" stroke="#969EAC"/>
<path opacity="0.1" d="M110 426H470" stroke="#969EAC"/>
<path opacity="0.1" d="M110 390H470" stroke="#969EAC"/>
<path opacity="0.1" d="M110 354H470" stroke="#969EAC"/>
<path opacity="0.1" d="M110 318H470" stroke="#969EAC"/>
<path opacity="0.1" d="M110 282H470" stroke="#969EAC"/>
<path opacity="0.1" d="M110 246H470" stroke="#969EAC"/>
<path opacity="0.1" d="M110 210H470" stroke="#969EAC"/>
<path d="M460 304C460 302.895 460.895 302 462 302H468C469.105 302 470 302.895 470 304V462H460V304Z" fill="#D3365F"/>
<path d="M444 212C444 210.895 444.895 210 446 210H452C453.105 210 454 210.895 454 212V462H444V212Z" fill="#235EE7"/>
<path d="M428 438C428 436.895 428.895 436 430 436H436C437.105 436 438 436.895 438 438V462H428V438Z" fill="#29CFD6"/>
<path d="M354 252C354 250.895 354.895 250 356 250H362C363.105 250 364 250.895 364 252V462H354V252Z" fill="#D3365F"/>
<path d="M338 284C338 282.895 338.895 282 340 282H346C347.105 282 348 282.895 348 284V462H338V284Z" fill="#235EE7"/>
<path d="M322 346C322 344.895 322.895 344 324 344H330C331.105 344 332 344.895 332 346V462H322V346Z" fill="#29CFD6"/>
<path d="M248 330C248 328.895 248.895 328 250 328H256C257.105 328 258 328.895 258 330V462H248V330Z" fill="#D3365F"/>
<path d="M232 374C232 372.895 232.895 372 234 372H240C241.105 372 242 372.895 242 374V462H232V374Z" fill="#235EE7"/>
<path d="M216 359C216 357.895 216.895 357 218 357H224C225.105 357 226 357.895 226 359V462H216V359Z" fill="#29CFD6"/>
<path d="M142 226C142 224.895 142.895 224 144 224H150C151.105 224 152 224.895 152 226V462H142V226Z" fill="#D3365F"/>
<path d="M126 296C126 294.895 126.895 294 128 294H134C135.105 294 136 294.895 136 296V462H126V296Z" fill="#235EE7"/>
<path d="M110 409C110 407.895 110.895 407 112 407H118C119.105 407 120 407.895 120 409V462H110V409Z" fill="#29CFD6"/>
<defs>
<filter id="filter0_d" x="515.5" y="0" width="218.5" height="295.75" filterUnits="userSpaceOnUse" color-interpolation-filters="sRGB">
<feFlood flood-opacity="0" result="BackgroundImageFix"/>
<feColorMatrix in="SourceAlpha" type="matrix" values="0 0 0 0 0 0 0 0 0 0 0 0 0 0 0 0 0 0 127 0"/>
<feOffset dx="-8" dy="8"/>
<feGaussianBlur stdDeviation="16"/>
<feColorMatrix type="matrix" values="0 0 0 0 0.32549 0 0 0 0 0.298039 0 0 0 0 0.917647 0 0 0 0.2 0"/>
<feBlend mode="normal" in2="BackgroundImageFix" result="effect1_dropShadow"/>
<feBlend mode="normal" in="SourceGraphic" in2="effect1_dropShadow" result="shape"/>
</filter>
<filter id="filter1_di" x="62" y="168" width="456" height="370" filterUnits="userSpaceOnUse" color-interpolation-filters="sRGB">
<feFlood flood-opacity="0" result="BackgroundImageFix"/>
<feColorMatrix in="SourceAlpha" type="matrix" values="0 0 0 0 0 0 0 0 0 0 0 0 0 0 0 0 0 0 127 0"/>
<feOffset dy="2"/>
<feGaussianBlur stdDeviation="4"/>
<feColorMatrix type="matrix" values="0 0 0 0 0.888 0 0 0 0 0.911467 0 0 0 0 0.952 0 0 0 1 0"/>
<feBlend mode="normal" in2="BackgroundImageFix" result="effect1_dropShadow"/>
<feBlend mode="normal" in="SourceGraphic" in2="effect1_dropShadow" result="shape"/>
<feColorMatrix in="SourceAlpha" type="matrix" values="0 0 0 0 0 0 0 0 0 0 0 0 0 0 0 0 0 0 127 0" result="hardAlpha"/>
<feOffset dy="-1"/>
<feComposite in2="hardAlpha" operator="arithmetic" k2="-1" k3="1"/>
<feColorMatrix type="matrix" values="0 0 0 0 0.921569 0 0 0 0 0.92549 0 0 0 0 0.945098 0 0 0 1 0"/>
<feBlend mode="normal" in2="shape" result="effect2_innerShadow"/>
</filter>
</defs>
</svg>
