<svg width="614" height="370" viewBox="0 0 614 370" fill="none" xmlns="http://www.w3.org/2000/svg">
<g filter="url(#filter0_di)">
<rect x="8" y="6" width="613" height="354" rx="6" fill="white"/>
</g>
<path d="M534.268 326.492V325.386C534.847 325.489 535.3 325.512 535.626 325.456C535.962 325.409 536.196 325.251 536.326 324.98C536.466 324.719 536.536 324.322 536.536 323.79V314.032H537.838V323.79C537.838 324.583 537.722 325.199 537.488 325.638C537.255 326.086 536.877 326.375 536.354 326.506C535.841 326.637 535.146 326.632 534.268 326.492ZM542.597 324.098C541.748 324.098 541.109 323.865 540.679 323.398C540.259 322.922 540.049 322.222 540.049 321.298V316.958H541.323V321.284C541.323 321.891 541.445 322.339 541.687 322.628C541.939 322.908 542.322 323.048 542.835 323.048C543.433 323.048 543.913 322.857 544.277 322.474C544.641 322.082 544.823 321.564 544.823 320.92V316.958H546.111V324H544.865V322.488L545.033 322.418C544.847 322.969 544.534 323.389 544.095 323.678C543.657 323.958 543.157 324.098 542.597 324.098ZM548.226 324V318.932C548.226 318.605 548.217 318.279 548.198 317.952C548.189 317.616 548.161 317.285 548.114 316.958H549.318L549.444 318.4L549.304 318.484C549.509 317.933 549.836 317.513 550.284 317.224C550.741 316.925 551.264 316.776 551.852 316.776C553.541 316.776 554.386 317.714 554.386 319.59V324H553.112V319.66C553.112 319.025 552.986 318.563 552.734 318.274C552.491 317.975 552.099 317.826 551.558 317.826C550.933 317.826 550.433 318.022 550.06 318.414C549.687 318.797 549.5 319.315 549.5 319.968V324H548.226ZM560.218 324V323.02L563.69 319.212C564.138 318.708 564.464 318.255 564.67 317.854C564.884 317.443 564.992 317.033 564.992 316.622C564.992 316.099 564.838 315.698 564.53 315.418C564.222 315.129 563.788 314.984 563.228 314.984C562.752 314.984 562.28 315.082 561.814 315.278C561.347 315.465 560.885 315.745 560.428 316.118L559.952 315.138C560.344 314.765 560.838 314.471 561.436 314.256C562.042 314.032 562.649 313.92 563.256 313.92C563.881 313.92 564.418 314.027 564.866 314.242C565.314 314.447 565.664 314.751 565.916 315.152C566.168 315.544 566.294 316.011 566.294 316.552C566.294 317.121 566.163 317.667 565.902 318.19C565.65 318.713 565.23 319.301 564.642 319.954L561.352 323.496L561.24 322.922H566.7V324H560.218ZM571.692 324.112C570.544 324.112 569.672 323.683 569.074 322.824C568.477 321.956 568.178 320.687 568.178 319.016C568.178 317.345 568.472 316.081 569.06 315.222C569.658 314.354 570.535 313.92 571.692 313.92C572.85 313.92 573.722 314.354 574.31 315.222C574.908 316.081 575.206 317.341 575.206 319.002C575.206 320.673 574.908 321.942 574.31 322.81C573.713 323.678 572.84 324.112 571.692 324.112ZM571.692 323.048C572.448 323.048 573.004 322.721 573.358 322.068C573.722 321.415 573.904 320.393 573.904 319.002C573.904 317.611 573.722 316.599 573.358 315.964C573.004 315.32 572.448 314.998 571.692 314.998C570.936 314.998 570.376 315.32 570.012 315.964C569.658 316.608 569.48 317.621 569.48 319.002C569.48 320.393 569.658 321.415 570.012 322.068C570.376 322.721 570.936 323.048 571.692 323.048ZM577.007 324V323.02L580.479 319.212C580.927 318.708 581.253 318.255 581.459 317.854C581.673 317.443 581.781 317.033 581.781 316.622C581.781 316.099 581.627 315.698 581.319 315.418C581.011 315.129 580.577 314.984 580.017 314.984C579.541 314.984 579.069 315.082 578.603 315.278C578.136 315.465 577.674 315.745 577.217 316.118L576.741 315.138C577.133 314.765 577.627 314.471 578.225 314.256C578.831 314.032 579.438 313.92 580.045 313.92C580.67 313.92 581.207 314.027 581.655 314.242C582.103 314.447 582.453 314.751 582.705 315.152C582.957 315.544 583.083 316.011 583.083 316.552C583.083 317.121 582.952 317.667 582.691 318.19C582.439 318.713 582.019 319.301 581.431 319.954L578.141 323.496L578.029 322.922H583.489V324H577.007ZM588.481 324.112C587.333 324.112 586.461 323.683 585.863 322.824C585.266 321.956 584.967 320.687 584.967 319.016C584.967 317.345 585.261 316.081 585.849 315.222C586.447 314.354 587.324 313.92 588.481 313.92C589.639 313.92 590.511 314.354 591.099 315.222C591.697 316.081 591.995 317.341 591.995 319.002C591.995 320.673 591.697 321.942 591.099 322.81C590.502 323.678 589.629 324.112 588.481 324.112ZM588.481 323.048C589.237 323.048 589.793 322.721 590.147 322.068C590.511 321.415 590.693 320.393 590.693 319.002C590.693 317.611 590.511 316.599 590.147 315.964C589.793 315.32 589.237 314.998 588.481 314.998C587.725 314.998 587.165 315.32 586.801 315.964C586.447 316.608 586.269 317.621 586.269 319.002C586.269 320.393 586.447 321.415 586.801 322.068C587.165 322.721 587.725 323.048 588.481 323.048Z" fill="#969EAC"/>
<path d="M567 177C567 175.895 567.895 175 569 175H575C576.105 175 577 175.895 577 177V286H567V177Z" fill="#D3365F"/>
<path d="M551 100C551 98.8954 551.895 98 553 98H559C560.105 98 561 98.8954 561 100V286H551V100Z" fill="#235EE7"/>
<path d="M430.665 324V314.032H431.729L435.705 323.09H435.145L439.093 314.032H440.143V324H438.967V315.796L439.401 315.852L435.859 324H434.963L431.365 315.852L431.841 315.796L431.855 324H430.665ZM445.108 324.098C444.492 324.098 443.946 323.953 443.47 323.664C443.003 323.365 442.639 322.945 442.378 322.404C442.116 321.853 441.986 321.209 441.986 320.472C441.986 319.735 442.116 319.091 442.378 318.54C442.648 317.989 443.017 317.56 443.484 317.252C443.96 316.935 444.501 316.776 445.108 316.776C445.742 316.776 446.284 316.935 446.732 317.252C447.18 317.56 447.483 318.003 447.642 318.582L447.474 318.68V316.958H448.734V324H447.474V322.236L447.642 322.306C447.483 322.875 447.18 323.319 446.732 323.636C446.284 323.944 445.742 324.098 445.108 324.098ZM445.388 323.062C446.06 323.062 446.573 322.838 446.928 322.39C447.292 321.933 447.474 321.284 447.474 320.444C447.474 319.604 447.292 318.96 446.928 318.512C446.564 318.055 446.05 317.826 445.388 317.826C444.725 317.826 444.207 318.059 443.834 318.526C443.46 318.993 443.274 319.641 443.274 320.472C443.274 321.303 443.46 321.942 443.834 322.39C444.207 322.838 444.725 323.062 445.388 323.062ZM450.547 327.178L450.281 326.198C450.71 326.095 451.07 325.974 451.359 325.834C451.658 325.703 451.905 325.531 452.101 325.316C452.297 325.111 452.47 324.835 452.619 324.49L453.081 323.44L453.375 323.02L455.881 316.958H457.155L453.865 324.602C453.613 325.181 453.324 325.643 452.997 325.988C452.67 326.343 452.302 326.609 451.891 326.786C451.49 326.963 451.042 327.094 450.547 327.178ZM453.095 324.392L449.917 316.958H451.247L453.725 323.02L453.095 324.392ZM462.081 324V323.02L465.553 319.212C466.001 318.708 466.328 318.255 466.533 317.854C466.748 317.443 466.855 317.033 466.855 316.622C466.855 316.099 466.701 315.698 466.393 315.418C466.085 315.129 465.651 314.984 465.091 314.984C464.615 314.984 464.144 315.082 463.677 315.278C463.21 315.465 462.748 315.745 462.291 316.118L461.815 315.138C462.207 314.765 462.702 314.471 463.299 314.256C463.906 314.032 464.512 313.92 465.119 313.92C465.744 313.92 466.281 314.027 466.729 314.242C467.177 314.447 467.527 314.751 467.779 315.152C468.031 315.544 468.157 316.011 468.157 316.552C468.157 317.121 468.026 317.667 467.765 318.19C467.513 318.713 467.093 319.301 466.505 319.954L463.215 323.496L463.103 322.922H468.563V324H462.081ZM473.555 324.112C472.407 324.112 471.535 323.683 470.937 322.824C470.34 321.956 470.041 320.687 470.041 319.016C470.041 317.345 470.335 316.081 470.923 315.222C471.521 314.354 472.398 313.92 473.555 313.92C474.713 313.92 475.585 314.354 476.173 315.222C476.771 316.081 477.069 317.341 477.069 319.002C477.069 320.673 476.771 321.942 476.173 322.81C475.576 323.678 474.703 324.112 473.555 324.112ZM473.555 323.048C474.311 323.048 474.867 322.721 475.221 322.068C475.585 321.415 475.767 320.393 475.767 319.002C475.767 317.611 475.585 316.599 475.221 315.964C474.867 315.32 474.311 314.998 473.555 314.998C472.799 314.998 472.239 315.32 471.875 315.964C471.521 316.608 471.343 317.621 471.343 319.002C471.343 320.393 471.521 321.415 471.875 322.068C472.239 322.721 472.799 323.048 473.555 323.048ZM478.87 324V323.02L482.342 319.212C482.79 318.708 483.117 318.255 483.322 317.854C483.537 317.443 483.644 317.033 483.644 316.622C483.644 316.099 483.49 315.698 483.182 315.418C482.874 315.129 482.44 314.984 481.88 314.984C481.404 314.984 480.933 315.082 480.466 315.278C479.999 315.465 479.537 315.745 479.08 316.118L478.604 315.138C478.996 314.765 479.491 314.471 480.088 314.256C480.695 314.032 481.301 313.92 481.908 313.92C482.533 313.92 483.07 314.027 483.518 314.242C483.966 314.447 484.316 314.751 484.568 315.152C484.82 315.544 484.946 316.011 484.946 316.552C484.946 317.121 484.815 317.667 484.554 318.19C484.302 318.713 483.882 319.301 483.294 319.954L480.004 323.496L479.892 322.922H485.352V324H478.87ZM490.345 324.112C489.197 324.112 488.324 323.683 487.727 322.824C487.129 321.956 486.831 320.687 486.831 319.016C486.831 317.345 487.125 316.081 487.713 315.222C488.31 314.354 489.187 313.92 490.345 313.92C491.502 313.92 492.375 314.354 492.963 315.222C493.56 316.081 493.859 317.341 493.859 319.002C493.859 320.673 493.56 321.942 492.963 322.81C492.365 323.678 491.493 324.112 490.345 324.112ZM490.345 323.048C491.101 323.048 491.656 322.721 492.011 322.068C492.375 321.415 492.557 320.393 492.557 319.002C492.557 317.611 492.375 316.599 492.011 315.964C491.656 315.32 491.101 314.998 490.345 314.998C489.589 314.998 489.029 315.32 488.665 315.964C488.31 316.608 488.133 317.621 488.133 319.002C488.133 320.393 488.31 321.415 488.665 322.068C489.029 322.721 489.589 323.048 490.345 323.048Z" fill="#969EAC"/>
<path d="M465 148C465 146.895 465.895 146 467 146H473C474.105 146 475 146.895 475 148V286H465V148Z" fill="#D3365F"/>
<path d="M449 127C449 125.895 449.895 125 451 125H457C458.105 125 459 125.895 459 127V286H449V127Z" fill="#235EE7"/>
<path d="M329.922 324H328.592L333.002 314.032H334.108L338.532 324H337.216L333.352 314.998H333.786L329.922 324ZM330.482 321.494L330.944 320.43H336.152L336.614 321.494H330.482ZM339.782 327.024V318.932C339.782 318.605 339.772 318.279 339.754 317.952C339.744 317.616 339.716 317.285 339.67 316.958H340.874L341 318.4L340.888 318.582C341.046 318.003 341.35 317.56 341.798 317.252C342.246 316.935 342.782 316.776 343.408 316.776C344.024 316.776 344.565 316.935 345.032 317.252C345.508 317.56 345.876 317.989 346.138 318.54C346.408 319.091 346.544 319.735 346.544 320.472C346.544 321.209 346.408 321.853 346.138 322.404C345.876 322.945 345.512 323.365 345.046 323.664C344.579 323.953 344.033 324.098 343.408 324.098C342.782 324.098 342.246 323.944 341.798 323.636C341.35 323.319 341.046 322.875 340.888 322.306L341.056 322.152V327.024H339.782ZM343.142 323.062C343.804 323.062 344.318 322.838 344.682 322.39C345.046 321.942 345.228 321.303 345.228 320.472C345.228 319.641 345.046 318.993 344.682 318.526C344.318 318.059 343.804 317.826 343.142 317.826C342.47 317.826 341.952 318.055 341.588 318.512C341.224 318.96 341.042 319.604 341.042 320.444C341.042 321.284 341.224 321.933 341.588 322.39C341.952 322.838 342.47 323.062 343.142 323.062ZM348.231 324V318.932C348.231 318.605 348.222 318.279 348.203 317.952C348.194 317.616 348.166 317.285 348.119 316.958H349.323L349.477 318.708L349.323 318.652C349.444 318.036 349.72 317.574 350.149 317.266C350.588 316.949 351.078 316.79 351.619 316.79C351.75 316.79 351.866 316.799 351.969 316.818C352.081 316.827 352.184 316.846 352.277 316.874L352.263 318.036C352.03 317.952 351.768 317.91 351.479 317.91C351.003 317.91 350.62 318.013 350.331 318.218C350.042 318.423 349.832 318.685 349.701 319.002C349.57 319.319 349.505 319.66 349.505 320.024V324H348.231ZM357.146 324V323.02L360.618 319.212C361.066 318.708 361.393 318.255 361.598 317.854C361.813 317.443 361.92 317.033 361.92 316.622C361.92 316.099 361.766 315.698 361.458 315.418C361.15 315.129 360.716 314.984 360.156 314.984C359.68 314.984 359.209 315.082 358.742 315.278C358.276 315.465 357.814 315.745 357.356 316.118L356.88 315.138C357.272 314.765 357.767 314.471 358.364 314.256C358.971 314.032 359.578 313.92 360.184 313.92C360.81 313.92 361.346 314.027 361.794 314.242C362.242 314.447 362.592 314.751 362.844 315.152C363.096 315.544 363.222 316.011 363.222 316.552C363.222 317.121 363.092 317.667 362.83 318.19C362.578 318.713 362.158 319.301 361.57 319.954L358.28 323.496L358.168 322.922H363.628V324H357.146ZM368.621 324.112C367.473 324.112 366.6 323.683 366.003 322.824C365.406 321.956 365.107 320.687 365.107 319.016C365.107 317.345 365.401 316.081 365.989 315.222C366.586 314.354 367.464 313.92 368.621 313.92C369.778 313.92 370.651 314.354 371.239 315.222C371.836 316.081 372.135 317.341 372.135 319.002C372.135 320.673 371.836 321.942 371.239 322.81C370.642 323.678 369.769 324.112 368.621 324.112ZM368.621 323.048C369.377 323.048 369.932 322.721 370.287 322.068C370.651 321.415 370.833 320.393 370.833 319.002C370.833 317.611 370.651 316.599 370.287 315.964C369.932 315.32 369.377 314.998 368.621 314.998C367.865 314.998 367.305 315.32 366.941 315.964C366.586 316.608 366.409 317.621 366.409 319.002C366.409 320.393 366.586 321.415 366.941 322.068C367.305 322.721 367.865 323.048 368.621 323.048ZM373.935 324V323.02L377.407 319.212C377.855 318.708 378.182 318.255 378.387 317.854C378.602 317.443 378.709 317.033 378.709 316.622C378.709 316.099 378.555 315.698 378.247 315.418C377.939 315.129 377.505 314.984 376.945 314.984C376.469 314.984 375.998 315.082 375.531 315.278C375.065 315.465 374.603 315.745 374.145 316.118L373.669 315.138C374.061 314.765 374.556 314.471 375.153 314.256C375.76 314.032 376.367 313.92 376.973 313.92C377.599 313.92 378.135 314.027 378.583 314.242C379.031 314.447 379.381 314.751 379.633 315.152C379.885 315.544 380.011 316.011 380.011 316.552C380.011 317.121 379.881 317.667 379.619 318.19C379.367 318.713 378.947 319.301 378.359 319.954L375.069 323.496L374.957 322.922H380.417V324H373.935ZM385.41 324.112C384.262 324.112 383.389 323.683 382.792 322.824C382.195 321.956 381.896 320.687 381.896 319.016C381.896 317.345 382.19 316.081 382.778 315.222C383.375 314.354 384.253 313.92 385.41 313.92C386.567 313.92 387.44 314.354 388.028 315.222C388.625 316.081 388.924 317.341 388.924 319.002C388.924 320.673 388.625 321.942 388.028 322.81C387.431 323.678 386.558 324.112 385.41 324.112ZM385.41 323.048C386.166 323.048 386.721 322.721 387.076 322.068C387.44 321.415 387.622 320.393 387.622 319.002C387.622 317.611 387.44 316.599 387.076 315.964C386.721 315.32 386.166 314.998 385.41 314.998C384.654 314.998 384.094 315.32 383.73 315.964C383.375 316.608 383.198 317.621 383.198 319.002C383.198 320.393 383.375 321.415 383.73 322.068C384.094 322.721 384.654 323.048 385.41 323.048Z" fill="#969EAC"/>
<path d="M363 109C363 107.895 363.895 107 365 107H371C372.105 107 373 107.895 373 109V286H363V109Z" fill="#D3365F"/>
<path d="M347 100C347 98.8954 347.895 98 349 98H355C356.105 98 357 98.8954 357 100V286H347V100Z" fill="#235EE7"/>
<path d="M227.32 324V314.032H228.384L232.36 323.09H231.8L235.748 314.032H236.798V324H235.622V315.796L236.056 315.852L232.514 324H231.618L228.02 315.852L228.496 315.796L228.51 324H227.32ZM241.763 324.098C241.147 324.098 240.601 323.953 240.125 323.664C239.658 323.365 239.294 322.945 239.033 322.404C238.772 321.853 238.641 321.209 238.641 320.472C238.641 319.735 238.772 319.091 239.033 318.54C239.304 317.989 239.672 317.56 240.139 317.252C240.615 316.935 241.156 316.776 241.763 316.776C242.398 316.776 242.939 316.935 243.387 317.252C243.835 317.56 244.138 318.003 244.297 318.582L244.129 318.68V316.958H245.389V324H244.129V322.236L244.297 322.306C244.138 322.875 243.835 323.319 243.387 323.636C242.939 323.944 242.398 324.098 241.763 324.098ZM242.043 323.062C242.715 323.062 243.228 322.838 243.583 322.39C243.947 321.933 244.129 321.284 244.129 320.444C244.129 319.604 243.947 318.96 243.583 318.512C243.219 318.055 242.706 317.826 242.043 317.826C241.38 317.826 240.862 318.059 240.489 318.526C240.116 318.993 239.929 319.641 239.929 320.472C239.929 321.303 240.116 321.942 240.489 322.39C240.862 322.838 241.38 323.062 242.043 323.062ZM247.51 324V318.932C247.51 318.605 247.501 318.279 247.482 317.952C247.473 317.616 247.445 317.285 247.398 316.958H248.602L248.756 318.708L248.602 318.652C248.724 318.036 248.999 317.574 249.428 317.266C249.867 316.949 250.357 316.79 250.898 316.79C251.029 316.79 251.146 316.799 251.248 316.818C251.36 316.827 251.463 316.846 251.556 316.874L251.542 318.036C251.309 317.952 251.048 317.91 250.758 317.91C250.282 317.91 249.9 318.013 249.61 318.218C249.321 318.423 249.111 318.685 248.98 319.002C248.85 319.319 248.784 319.66 248.784 320.024V324H247.51ZM256.426 324V323.02L259.898 319.212C260.346 318.708 260.672 318.255 260.878 317.854C261.092 317.443 261.2 317.033 261.2 316.622C261.2 316.099 261.046 315.698 260.738 315.418C260.43 315.129 259.996 314.984 259.436 314.984C258.96 314.984 258.488 315.082 258.022 315.278C257.555 315.465 257.093 315.745 256.636 316.118L256.16 315.138C256.552 314.765 257.046 314.471 257.644 314.256C258.25 314.032 258.857 313.92 259.464 313.92C260.089 313.92 260.626 314.027 261.074 314.242C261.522 314.447 261.872 314.751 262.124 315.152C262.376 315.544 262.502 316.011 262.502 316.552C262.502 317.121 262.371 317.667 262.11 318.19C261.858 318.713 261.438 319.301 260.85 319.954L257.56 323.496L257.448 322.922H262.908V324H256.426ZM267.9 324.112C266.752 324.112 265.88 323.683 265.282 322.824C264.685 321.956 264.386 320.687 264.386 319.016C264.386 317.345 264.68 316.081 265.268 315.222C265.866 314.354 266.743 313.92 267.9 313.92C269.058 313.92 269.93 314.354 270.518 315.222C271.116 316.081 271.414 317.341 271.414 319.002C271.414 320.673 271.116 321.942 270.518 322.81C269.921 323.678 269.048 324.112 267.9 324.112ZM267.9 323.048C268.656 323.048 269.212 322.721 269.566 322.068C269.93 321.415 270.112 320.393 270.112 319.002C270.112 317.611 269.93 316.599 269.566 315.964C269.212 315.32 268.656 314.998 267.9 314.998C267.144 314.998 266.584 315.32 266.22 315.964C265.866 316.608 265.688 317.621 265.688 319.002C265.688 320.393 265.866 321.415 266.22 322.068C266.584 322.721 267.144 323.048 267.9 323.048ZM273.215 324V323.02L276.687 319.212C277.135 318.708 277.461 318.255 277.667 317.854C277.881 317.443 277.989 317.033 277.989 316.622C277.989 316.099 277.835 315.698 277.527 315.418C277.219 315.129 276.785 314.984 276.225 314.984C275.749 314.984 275.277 315.082 274.811 315.278C274.344 315.465 273.882 315.745 273.425 316.118L272.949 315.138C273.341 314.765 273.835 314.471 274.433 314.256C275.039 314.032 275.646 313.92 276.253 313.92C276.878 313.92 277.415 314.027 277.863 314.242C278.311 314.447 278.661 314.751 278.913 315.152C279.165 315.544 279.291 316.011 279.291 316.552C279.291 317.121 279.16 317.667 278.899 318.19C278.647 318.713 278.227 319.301 277.639 319.954L274.349 323.496L274.237 322.922H279.697V324H273.215ZM284.689 324.112C283.541 324.112 282.669 323.683 282.071 322.824C281.474 321.956 281.175 320.687 281.175 319.016C281.175 317.345 281.469 316.081 282.057 315.222C282.655 314.354 283.532 313.92 284.689 313.92C285.847 313.92 286.719 314.354 287.307 315.222C287.905 316.081 288.203 317.341 288.203 319.002C288.203 320.673 287.905 321.942 287.307 322.81C286.71 323.678 285.837 324.112 284.689 324.112ZM284.689 323.048C285.445 323.048 286.001 322.721 286.355 322.068C286.719 321.415 286.901 320.393 286.901 319.002C286.901 317.611 286.719 316.599 286.355 315.964C286.001 315.32 285.445 314.998 284.689 314.998C283.933 314.998 283.373 315.32 283.009 315.964C282.655 316.608 282.477 317.621 282.477 319.002C282.477 320.393 282.655 321.415 283.009 322.068C283.373 322.721 283.933 323.048 284.689 323.048Z" fill="#969EAC"/>
<path d="M261 104C261 102.895 261.895 102 263 102H269C270.105 102 271 102.895 271 104V286H261V104Z" fill="#D3365F"/>
<path d="M245 143C245 141.895 245.895 141 247 141H253C254.105 141 255 141.895 255 143V286H245V143Z" fill="#235EE7"/>
<path d="M126.641 324V314.032H132.871V315.11H127.915V318.4H132.591V319.478H127.915V324H126.641ZM140.104 323.174C139.796 323.463 139.399 323.692 138.914 323.86C138.428 324.019 137.934 324.098 137.43 324.098C136.692 324.098 136.058 323.953 135.526 323.664C134.994 323.375 134.583 322.959 134.294 322.418C134.004 321.867 133.86 321.214 133.86 320.458C133.86 319.73 134 319.091 134.28 318.54C134.569 317.989 134.966 317.56 135.47 317.252C135.974 316.935 136.552 316.776 137.206 316.776C137.84 316.776 138.382 316.916 138.83 317.196C139.287 317.476 139.632 317.877 139.866 318.4C140.108 318.913 140.23 319.529 140.23 320.248V320.472H134.98V319.688H139.502L139.11 320.192C139.128 319.399 138.974 318.792 138.648 318.372C138.321 317.952 137.845 317.742 137.22 317.742C136.566 317.742 136.053 317.975 135.68 318.442C135.316 318.899 135.134 319.543 135.134 320.374C135.134 321.27 135.33 321.947 135.722 322.404C136.114 322.852 136.692 323.076 137.458 323.076C137.868 323.076 138.26 323.011 138.634 322.88C139.007 322.74 139.362 322.535 139.698 322.264L140.104 323.174ZM141.909 324V313.696H143.183V318.736L143.015 318.568C143.173 318.008 143.477 317.569 143.925 317.252C144.373 316.935 144.909 316.776 145.535 316.776C146.16 316.776 146.706 316.925 147.173 317.224C147.639 317.523 148.003 317.947 148.265 318.498C148.535 319.039 148.671 319.679 148.671 320.416C148.671 321.153 148.535 321.802 148.265 322.362C148.003 322.913 147.635 323.342 147.159 323.65C146.692 323.949 146.151 324.098 145.535 324.098C144.909 324.098 144.373 323.944 143.925 323.636C143.477 323.319 143.173 322.875 143.015 322.306L143.169 322.138V324H141.909ZM145.269 323.062C145.931 323.062 146.445 322.833 146.809 322.376C147.173 321.909 147.355 321.256 147.355 320.416C147.355 319.595 147.173 318.96 146.809 318.512C146.445 318.055 145.931 317.826 145.269 317.826C144.597 317.826 144.079 318.055 143.715 318.512C143.351 318.969 143.169 319.613 143.169 320.444C143.169 321.284 143.351 321.933 143.715 322.39C144.079 322.838 144.597 323.062 145.269 323.062ZM154.105 324V323.02L157.577 319.212C158.025 318.708 158.352 318.255 158.557 317.854C158.772 317.443 158.879 317.033 158.879 316.622C158.879 316.099 158.725 315.698 158.417 315.418C158.109 315.129 157.675 314.984 157.115 314.984C156.639 314.984 156.168 315.082 155.701 315.278C155.235 315.465 154.773 315.745 154.315 316.118L153.839 315.138C154.231 314.765 154.726 314.471 155.323 314.256C155.93 314.032 156.537 313.92 157.143 313.92C157.769 313.92 158.305 314.027 158.753 314.242C159.201 314.447 159.551 314.751 159.803 315.152C160.055 315.544 160.181 316.011 160.181 316.552C160.181 317.121 160.051 317.667 159.789 318.19C159.537 318.713 159.117 319.301 158.529 319.954L155.239 323.496L155.127 322.922H160.587V324H154.105ZM165.58 324.112C164.432 324.112 163.559 323.683 162.962 322.824C162.365 321.956 162.066 320.687 162.066 319.016C162.066 317.345 162.36 316.081 162.948 315.222C163.545 314.354 164.423 313.92 165.58 313.92C166.737 313.92 167.61 314.354 168.198 315.222C168.795 316.081 169.094 317.341 169.094 319.002C169.094 320.673 168.795 321.942 168.198 322.81C167.601 323.678 166.728 324.112 165.58 324.112ZM165.58 323.048C166.336 323.048 166.891 322.721 167.246 322.068C167.61 321.415 167.792 320.393 167.792 319.002C167.792 317.611 167.61 316.599 167.246 315.964C166.891 315.32 166.336 314.998 165.58 314.998C164.824 314.998 164.264 315.32 163.9 315.964C163.545 316.608 163.368 317.621 163.368 319.002C163.368 320.393 163.545 321.415 163.9 322.068C164.264 322.721 164.824 323.048 165.58 323.048ZM170.894 324V323.02L174.366 319.212C174.814 318.708 175.141 318.255 175.346 317.854C175.561 317.443 175.668 317.033 175.668 316.622C175.668 316.099 175.514 315.698 175.206 315.418C174.898 315.129 174.464 314.984 173.904 314.984C173.428 314.984 172.957 315.082 172.49 315.278C172.024 315.465 171.562 315.745 171.104 316.118L170.628 315.138C171.02 314.765 171.515 314.471 172.112 314.256C172.719 314.032 173.326 313.92 173.932 313.92C174.558 313.92 175.094 314.027 175.542 314.242C175.99 314.447 176.34 314.751 176.592 315.152C176.844 315.544 176.97 316.011 176.97 316.552C176.97 317.121 176.84 317.667 176.578 318.19C176.326 318.713 175.906 319.301 175.318 319.954L172.028 323.496L171.916 322.922H177.376V324H170.894ZM182.369 324.112C181.221 324.112 180.348 323.683 179.751 322.824C179.154 321.956 178.855 320.687 178.855 319.016C178.855 317.345 179.149 316.081 179.737 315.222C180.334 314.354 181.212 313.92 182.369 313.92C183.526 313.92 184.399 314.354 184.987 315.222C185.584 316.081 185.883 317.341 185.883 319.002C185.883 320.673 185.584 321.942 184.987 322.81C184.39 323.678 183.517 324.112 182.369 324.112ZM182.369 323.048C183.125 323.048 183.68 322.721 184.035 322.068C184.399 321.415 184.581 320.393 184.581 319.002C184.581 317.611 184.399 316.599 184.035 315.964C183.68 315.32 183.125 314.998 182.369 314.998C181.613 314.998 181.053 315.32 180.689 315.964C180.334 316.608 180.157 317.621 180.157 319.002C180.157 320.393 180.334 321.415 180.689 322.068C181.053 322.721 181.613 323.048 182.369 323.048Z" fill="#969EAC"/>
<path d="M159 224C159 222.895 159.895 222 161 222H167C168.105 222 169 222.895 169 224V286H159V224Z" fill="#D3365F"/>
<path d="M143 127C143 125.895 143.895 125 145 125H151C152.105 125 153 125.895 153 127V286H143V127Z" fill="#235EE7"/>
<path d="M24.111 326.492V325.386C24.6897 325.489 25.1423 325.512 25.469 325.456C25.805 325.409 26.0383 325.251 26.169 324.98C26.309 324.719 26.379 324.322 26.379 323.79V314.032H27.681V323.79C27.681 324.583 27.5643 325.199 27.331 325.638C27.0977 326.086 26.7197 326.375 26.197 326.506C25.6837 326.637 24.9883 326.632 24.111 326.492ZM32.6361 324.098C32.0201 324.098 31.4741 323.953 30.9981 323.664C30.5315 323.365 30.1675 322.945 29.9061 322.404C29.6448 321.853 29.5141 321.209 29.5141 320.472C29.5141 319.735 29.6448 319.091 29.9061 318.54C30.1768 317.989 30.5455 317.56 31.0121 317.252C31.4881 316.935 32.0295 316.776 32.6361 316.776C33.2708 316.776 33.8121 316.935 34.2601 317.252C34.7081 317.56 35.0115 318.003 35.1701 318.582L35.0021 318.68V316.958H36.2621V324H35.0021V322.236L35.1701 322.306C35.0115 322.875 34.7081 323.319 34.2601 323.636C33.8121 323.944 33.2708 324.098 32.6361 324.098ZM32.9161 323.062C33.5881 323.062 34.1015 322.838 34.4561 322.39C34.8201 321.933 35.0021 321.284 35.0021 320.444C35.0021 319.604 34.8201 318.96 34.4561 318.512C34.0921 318.055 33.5788 317.826 32.9161 317.826C32.2535 317.826 31.7355 318.059 31.3621 318.526C30.9888 318.993 30.8021 319.641 30.8021 320.472C30.8021 321.303 30.9888 321.942 31.3621 322.39C31.7355 322.838 32.2535 323.062 32.9161 323.062ZM38.3833 324V318.932C38.3833 318.605 38.374 318.279 38.3553 317.952C38.346 317.616 38.318 317.285 38.2713 316.958H39.4753L39.6013 318.4L39.4613 318.484C39.6667 317.933 39.9933 317.513 40.4413 317.224C40.8987 316.925 41.4213 316.776 42.0093 316.776C43.6987 316.776 44.5433 317.714 44.5433 319.59V324H43.2693V319.66C43.2693 319.025 43.1433 318.563 42.8913 318.274C42.6487 317.975 42.2567 317.826 41.7153 317.826C41.09 317.826 40.5907 318.022 40.2173 318.414C39.844 318.797 39.6573 319.315 39.6573 319.968V324H38.3833ZM50.3749 324V323.02L53.8469 319.212C54.2949 318.708 54.6215 318.255 54.8269 317.854C55.0415 317.443 55.1489 317.033 55.1489 316.622C55.1489 316.099 54.9949 315.698 54.6869 315.418C54.3789 315.129 53.9449 314.984 53.3849 314.984C52.9089 314.984 52.4375 315.082 51.9709 315.278C51.5042 315.465 51.0422 315.745 50.5849 316.118L50.1089 315.138C50.5009 314.765 50.9955 314.471 51.5929 314.256C52.1995 314.032 52.8062 313.92 53.4129 313.92C54.0382 313.92 54.5749 314.027 55.0229 314.242C55.4709 314.447 55.8209 314.751 56.0729 315.152C56.3249 315.544 56.4509 316.011 56.4509 316.552C56.4509 317.121 56.3202 317.667 56.0589 318.19C55.8069 318.713 55.3869 319.301 54.7989 319.954L51.5089 323.496L51.3969 322.922H56.8569V324H50.3749ZM61.8494 324.112C60.7014 324.112 59.8287 323.683 59.2314 322.824C58.6341 321.956 58.3354 320.687 58.3354 319.016C58.3354 317.345 58.6294 316.081 59.2174 315.222C59.8147 314.354 60.6921 313.92 61.8494 313.92C63.0067 313.92 63.8794 314.354 64.4674 315.222C65.0647 316.081 65.3634 317.341 65.3634 319.002C65.3634 320.673 65.0647 321.942 64.4674 322.81C63.8701 323.678 62.9974 324.112 61.8494 324.112ZM61.8494 323.048C62.6054 323.048 63.1607 322.721 63.5154 322.068C63.8794 321.415 64.0614 320.393 64.0614 319.002C64.0614 317.611 63.8794 316.599 63.5154 315.964C63.1607 315.32 62.6054 314.998 61.8494 314.998C61.0934 314.998 60.5334 315.32 60.1694 315.964C59.8147 316.608 59.6374 317.621 59.6374 319.002C59.6374 320.393 59.8147 321.415 60.1694 322.068C60.5334 322.721 61.0934 323.048 61.8494 323.048ZM67.1639 324V323.02L70.6359 319.212C71.0839 318.708 71.4106 318.255 71.6159 317.854C71.8306 317.443 71.9379 317.033 71.9379 316.622C71.9379 316.099 71.7839 315.698 71.4759 315.418C71.1679 315.129 70.7339 314.984 70.1739 314.984C69.6979 314.984 69.2266 315.082 68.7599 315.278C68.2933 315.465 67.8313 315.745 67.3739 316.118L66.8979 315.138C67.2899 314.765 67.7846 314.471 68.3819 314.256C68.9886 314.032 69.5953 313.92 70.2019 313.92C70.8273 313.92 71.3639 314.027 71.8119 314.242C72.2599 314.447 72.6099 314.751 72.8619 315.152C73.1139 315.544 73.2399 316.011 73.2399 316.552C73.2399 317.121 73.1093 317.667 72.8479 318.19C72.5959 318.713 72.1759 319.301 71.5879 319.954L68.2979 323.496L68.1859 322.922H73.6459V324H67.1639ZM78.6385 324.112C77.4905 324.112 76.6178 323.683 76.0205 322.824C75.4231 321.956 75.1245 320.687 75.1245 319.016C75.1245 317.345 75.4185 316.081 76.0065 315.222C76.6038 314.354 77.4811 313.92 78.6385 313.92C79.7958 313.92 80.6685 314.354 81.2565 315.222C81.8538 316.081 82.1525 317.341 82.1525 319.002C82.1525 320.673 81.8538 321.942 81.2565 322.81C80.6591 323.678 79.7865 324.112 78.6385 324.112ZM78.6385 323.048C79.3945 323.048 79.9498 322.721 80.3045 322.068C80.6685 321.415 80.8505 320.393 80.8505 319.002C80.8505 317.611 80.6685 316.599 80.3045 315.964C79.9498 315.32 79.3945 314.998 78.6385 314.998C77.8825 314.998 77.3225 315.32 76.9585 315.964C76.6038 316.608 76.4265 317.621 76.4265 319.002C76.4265 320.393 76.6038 321.415 76.9585 322.068C77.3225 322.721 77.8825 323.048 78.6385 323.048Z" fill="#969EAC"/>
<path d="M57 135C57 133.895 57.8954 133 59 133H65C66.1046 133 67 133.895 67 135V286H57V135Z" fill="#D3365F"/>
<path d="M41 100C41 98.8954 41.8954 98 43 98H49C50.1046 98 51 98.8954 51 100V286H41V100Z" fill="#235EE7"/>
<path d="M74.58 46V31.76H76.64L82.02 44.02H81.04L86.38 31.76H88.44V46H86.14L86.12 35.46L86.8 35.62L82.36 46H80.66L76.12 35.62L76.84 35.46L76.86 46H74.58ZM91.3322 46V35.9H93.8322V46H91.3322ZM91.2122 31.32H93.9922V33.78H91.2122V31.32ZM96.5275 46V38.76C96.5275 38.28 96.5142 37.8 96.4875 37.32C96.4742 36.84 96.4342 36.3667 96.3675 35.9H98.7275L98.9475 37.9L98.7275 37.96C99.0475 37.2 99.5208 36.6267 100.148 36.24C100.788 35.84 101.521 35.64 102.348 35.64C104.748 35.64 105.948 37.0267 105.948 39.8V46H103.448V39.9C103.448 39.1133 103.294 38.54 102.988 38.18C102.681 37.8067 102.208 37.62 101.568 37.62C100.794 37.62 100.174 37.8667 99.7075 38.36C99.2542 38.84 99.0275 39.48 99.0275 40.28V46H96.5275ZM115.439 46L112.699 42.58L111.279 40.8L107.279 35.9H110.239L112.699 39.04L114.159 40.8L118.379 46H115.439ZM109.999 46H107.019L111.279 40.8L112.699 39.04L115.159 35.9H118.139L114.159 40.8L112.699 42.58L109.999 46ZM125.264 46V31.76H127.324L132.704 44.02H131.724L137.064 31.76H139.124V46H136.824L136.804 35.46L137.484 35.62L133.044 46H131.344L126.804 35.62L127.524 35.46L127.544 46H125.264ZM150.696 44.88C150.216 45.28 149.622 45.5933 148.916 45.82C148.222 46.0333 147.516 46.14 146.796 46.14C145.702 46.14 144.756 45.9333 143.956 45.52C143.169 45.1067 142.562 44.5067 142.136 43.72C141.709 42.9333 141.496 42 141.496 40.92C141.496 39.88 141.702 38.9667 142.116 38.18C142.529 37.38 143.102 36.76 143.836 36.32C144.569 35.8667 145.416 35.64 146.376 35.64C147.309 35.64 148.109 35.8467 148.776 36.26C149.442 36.66 149.956 37.24 150.316 38C150.689 38.76 150.876 39.66 150.876 40.7V41.08H143.696L143.716 39.74H149.396L148.716 40.42C148.729 39.4467 148.536 38.7067 148.136 38.2C147.749 37.6933 147.182 37.44 146.436 37.44C145.636 37.44 145.016 37.7267 144.576 38.3C144.136 38.86 143.916 39.6667 143.916 40.72C143.916 41.92 144.162 42.8067 144.656 43.38C145.149 43.94 145.896 44.22 146.896 44.22C147.442 44.22 147.976 44.1333 148.496 43.96C149.029 43.7733 149.522 43.5067 149.976 43.16L150.696 44.88ZM156.913 46.14C156.033 46.14 155.253 45.9333 154.573 45.52C153.893 45.0933 153.366 44.4933 152.993 43.72C152.633 42.9333 152.453 42.0133 152.453 40.96C152.453 39.8933 152.639 38.9667 153.013 38.18C153.386 37.38 153.906 36.76 154.573 36.32C155.253 35.8667 156.033 35.64 156.913 35.64C157.766 35.64 158.506 35.8533 159.133 36.28C159.773 36.6933 160.206 37.2733 160.433 38.02L160.193 38.16V35.9H162.653V46H160.193V43.72L160.433 43.8C160.206 44.5467 159.773 45.1267 159.133 45.54C158.506 45.94 157.766 46.14 156.913 46.14ZM157.593 44.22C158.419 44.22 159.059 43.9333 159.513 43.36C159.966 42.7867 160.193 41.9733 160.193 40.92C160.193 39.84 159.966 39.02 159.513 38.46C159.059 37.8867 158.419 37.6 157.593 37.6C156.753 37.6 156.099 37.8933 155.633 38.48C155.166 39.0667 154.933 39.8933 154.933 40.96C154.933 42 155.166 42.8067 155.633 43.38C156.099 43.94 156.753 44.22 157.593 44.22ZM169.076 46.14C167.236 46.14 165.782 45.72 164.716 44.88L165.416 43.12C165.949 43.52 166.529 43.82 167.156 44.02C167.782 44.22 168.436 44.32 169.116 44.32C169.729 44.32 170.196 44.22 170.516 44.02C170.836 43.82 170.996 43.54 170.996 43.18C170.996 42.8733 170.882 42.6333 170.656 42.46C170.429 42.2733 170.042 42.1133 169.496 41.98L167.816 41.6C166.896 41.4 166.202 41.0667 165.736 40.6C165.282 40.12 165.056 39.5133 165.056 38.78C165.056 38.1667 165.229 37.6267 165.576 37.16C165.922 36.68 166.409 36.3067 167.036 36.04C167.662 35.7733 168.389 35.64 169.216 35.64C169.936 35.64 170.629 35.7533 171.296 35.98C171.962 36.1933 172.542 36.5067 173.036 36.92L172.316 38.64C171.809 38.2533 171.289 37.9667 170.756 37.78C170.236 37.5933 169.716 37.5 169.196 37.5C168.622 37.5 168.176 37.6067 167.856 37.82C167.536 38.0333 167.376 38.3267 167.376 38.7C167.376 38.9933 167.469 39.2267 167.656 39.4C167.856 39.5733 168.196 39.7133 168.676 39.82L170.376 40.24C171.376 40.4533 172.102 40.8 172.556 41.28C173.022 41.7467 173.256 42.3667 173.256 43.14C173.256 44.06 172.882 44.7933 172.136 45.34C171.389 45.8733 170.369 46.14 169.076 46.14ZM179.035 46.14C177.795 46.14 176.862 45.8 176.235 45.12C175.622 44.4267 175.315 43.3867 175.315 42V35.9H177.815V42.02C177.815 42.7533 177.968 43.2933 178.275 43.64C178.582 43.9867 179.042 44.16 179.655 44.16C180.388 44.16 180.975 43.92 181.415 43.44C181.855 42.96 182.075 42.32 182.075 41.52V35.9H184.595V46H182.155V43.92L182.415 43.9C182.122 44.6333 181.682 45.1933 181.095 45.58C180.508 45.9533 179.822 46.14 179.035 46.14ZM187.27 46V38.76C187.27 38.2933 187.256 37.82 187.23 37.34C187.216 36.8467 187.176 36.3667 187.11 35.9H189.47L189.75 38.5L189.47 38.36C189.643 37.4667 190.036 36.7933 190.65 36.34C191.263 35.8867 191.956 35.66 192.73 35.66C192.93 35.66 193.116 35.6733 193.29 35.7C193.463 35.7267 193.616 35.7667 193.75 35.82L193.71 38.1C193.296 37.9267 192.856 37.84 192.39 37.84C191.79 37.84 191.296 37.96 190.91 38.2C190.536 38.44 190.25 38.7667 190.05 39.18C189.863 39.58 189.77 40.0333 189.77 40.54V46H187.27ZM203.586 44.88C203.106 45.28 202.513 45.5933 201.806 45.82C201.113 46.0333 200.406 46.14 199.686 46.14C198.593 46.14 197.646 45.9333 196.846 45.52C196.06 45.1067 195.453 44.5067 195.026 43.72C194.6 42.9333 194.386 42 194.386 40.92C194.386 39.88 194.593 38.9667 195.006 38.18C195.42 37.38 195.993 36.76 196.726 36.32C197.46 35.8667 198.306 35.64 199.266 35.64C200.2 35.64 201 35.8467 201.666 36.26C202.333 36.66 202.846 37.24 203.206 38C203.58 38.76 203.766 39.66 203.766 40.7V41.08H196.586L196.606 39.74H202.286L201.606 40.42C201.62 39.4467 201.426 38.7067 201.026 38.2C200.64 37.6933 200.073 37.44 199.326 37.44C198.526 37.44 197.906 37.7267 197.466 38.3C197.026 38.86 196.806 39.6667 196.806 40.72C196.806 41.92 197.053 42.8067 197.546 43.38C198.04 43.94 198.786 44.22 199.786 44.22C200.333 44.22 200.866 44.1333 201.386 43.96C201.92 43.7733 202.413 43.5067 202.866 43.16L203.586 44.88ZM206.177 41.6V39.62H212.197V41.6H206.177ZM220.986 46.16C219.026 46.16 217.54 45.66 216.526 44.66C215.526 43.66 215.026 42.1867 215.026 40.24V31.76H217.546V40.38C217.546 41.6067 217.833 42.54 218.406 43.18C218.993 43.8067 219.853 44.12 220.986 44.12C222.08 44.12 222.913 43.8 223.486 43.16C224.073 42.52 224.366 41.5933 224.366 40.38V31.76H226.926V40.24C226.926 42.1733 226.413 43.6467 225.386 44.66C224.373 45.66 222.906 46.16 220.986 46.16ZM229.711 50.32V38.76C229.711 38.2933 229.698 37.82 229.671 37.34C229.658 36.8467 229.618 36.3667 229.551 35.9H231.911L232.131 37.9L231.991 38.02C232.204 37.2733 232.624 36.6933 233.251 36.28C233.878 35.8533 234.618 35.64 235.471 35.64C236.351 35.64 237.124 35.8667 237.791 36.32C238.471 36.76 239.004 37.38 239.391 38.18C239.778 38.9667 239.971 39.8933 239.971 40.96C239.971 42.0133 239.778 42.9333 239.391 43.72C239.004 44.4933 238.478 45.0933 237.811 45.52C237.144 45.9333 236.364 46.14 235.471 46.14C234.618 46.14 233.878 45.94 233.251 45.54C232.624 45.1267 232.204 44.5467 231.991 43.8L232.211 43.48V50.32H229.711ZM234.831 44.22C235.658 44.22 236.298 43.94 236.751 43.38C237.204 42.8067 237.431 42 237.431 40.96C237.431 39.8933 237.204 39.0667 236.751 38.48C236.298 37.8933 235.658 37.6 234.831 37.6C233.978 37.6 233.324 37.8867 232.871 38.46C232.431 39.02 232.211 39.84 232.211 40.92C232.211 41.9733 232.431 42.7867 232.871 43.36C233.324 43.9333 233.978 44.22 234.831 44.22Z" fill="#534CEA"/>
<path d="M46 35.8422V42.0909M49.2143 37.1818V42.0909M52.5 39.6364V42.0909M56 34.7273V42.0909M43.5 29H58.5C59.3285 29 60 29.6716 60 30.5V45.5C60 46.3284 59.3285 47 58.5 47H43.5C42.6716 47 42 46.3284 42 45.5L42 30.5C42 29.6716 42.6716 29 43.5 29Z" stroke="#534CEA" stroke-width="1.5" stroke-linecap="round" stroke-linejoin="round"/>
<path d="M458.04 44.128C457.453 44.128 456.899 44.08 456.376 43.984C455.864 43.8773 455.384 43.7173 454.936 43.504C454.499 43.2907 454.104 43.024 453.752 42.704L454.296 41.584C454.861 42.0533 455.437 42.3893 456.024 42.592C456.611 42.7947 457.288 42.896 458.056 42.896C458.941 42.896 459.624 42.7253 460.104 42.384C460.584 42.0427 460.824 41.5627 460.824 40.944C460.824 40.5707 460.707 40.272 460.472 40.048C460.237 39.8133 459.907 39.6267 459.48 39.488C459.064 39.3387 458.584 39.2 458.04 39.072C457.464 38.9547 456.925 38.816 456.424 38.656C455.933 38.496 455.501 38.2987 455.128 38.064C454.755 37.8187 454.467 37.5147 454.264 37.152C454.061 36.7893 453.96 36.3413 453.96 35.808C453.96 35.1573 454.131 34.5813 454.472 34.08C454.824 33.5787 455.315 33.1893 455.944 32.912C456.573 32.624 457.315 32.48 458.168 32.48C458.691 32.48 459.192 32.5387 459.672 32.656C460.163 32.7627 460.616 32.9227 461.032 33.136C461.448 33.3387 461.811 33.5947 462.12 33.904L461.576 35.024C461.053 34.576 460.515 34.2453 459.96 34.032C459.405 33.8187 458.808 33.712 458.168 33.712C457.315 33.712 456.643 33.8933 456.152 34.256C455.672 34.608 455.432 35.104 455.432 35.744C455.432 36.1387 455.539 36.4587 455.752 36.704C455.965 36.9493 456.269 37.1467 456.664 37.296C457.059 37.4453 457.528 37.584 458.072 37.712C458.648 37.84 459.192 37.984 459.704 38.144C460.216 38.304 460.664 38.496 461.048 38.72C461.443 38.944 461.752 39.232 461.976 39.584C462.2 39.9253 462.312 40.3573 462.312 40.88C462.312 41.5413 462.141 42.1173 461.8 42.608C461.459 43.088 460.968 43.4613 460.328 43.728C459.688 43.9947 458.925 44.128 458.04 44.128ZM464.263 44V35.952H465.719V44H464.263ZM464.135 32.48H465.847V34.064H464.135V32.48ZM468.154 44V38.208C468.154 37.8347 468.143 37.4613 468.122 37.088C468.111 36.704 468.079 36.3253 468.026 35.952H469.402L469.546 37.6L469.386 37.68C469.578 37.0613 469.908 36.5867 470.378 36.256C470.858 35.9147 471.423 35.744 472.074 35.744C472.852 35.744 473.455 35.936 473.882 36.32C474.319 36.704 474.596 37.2907 474.714 38.08L474.33 37.84C474.511 37.2 474.858 36.6933 475.37 36.32C475.882 35.936 476.495 35.744 477.21 35.744C478.106 35.744 478.778 36.0107 479.226 36.544C479.674 37.0773 479.898 37.8827 479.898 38.96V44H478.442V39.024C478.442 38.3093 478.314 37.7867 478.058 37.456C477.812 37.1147 477.412 36.944 476.858 36.944C476.207 36.944 475.695 37.168 475.322 37.616C474.948 38.0533 474.762 38.656 474.762 39.424V44H473.306V39.024C473.306 38.3093 473.178 37.7867 472.922 37.456C472.666 37.1147 472.26 36.944 471.706 36.944C471.044 36.944 470.527 37.168 470.154 37.616C469.791 38.0533 469.61 38.656 469.61 39.424V44H468.154ZM482.294 44V35.952H483.75V44H482.294ZM482.166 32.48H483.878V34.064H482.166V32.48ZM486.185 44V32.224H487.641V44H486.185ZM493.163 44.112C492.459 44.112 491.835 43.9467 491.291 43.616C490.758 43.2747 490.342 42.7947 490.043 42.176C489.745 41.5467 489.595 40.8107 489.595 39.968C489.595 39.1253 489.745 38.3893 490.043 37.76C490.353 37.1307 490.774 36.64 491.307 36.288C491.851 35.9253 492.47 35.744 493.163 35.744C493.889 35.744 494.507 35.9253 495.019 36.288C495.531 36.64 495.878 37.1467 496.059 37.808L495.867 37.92V35.952H497.307V44H495.867V41.984L496.059 42.064C495.878 42.7147 495.531 43.2213 495.019 43.584C494.507 43.936 493.889 44.112 493.163 44.112ZM493.483 42.928C494.251 42.928 494.838 42.672 495.243 42.16C495.659 41.6373 495.867 40.896 495.867 39.936C495.867 38.976 495.659 38.24 495.243 37.728C494.827 37.2053 494.241 36.944 493.483 36.944C492.726 36.944 492.134 37.2107 491.707 37.744C491.281 38.2773 491.067 39.0187 491.067 39.968C491.067 40.9173 491.281 41.648 491.707 42.16C492.134 42.672 492.726 42.928 493.483 42.928ZM499.732 44V38.208C499.732 37.8347 499.721 37.4613 499.7 37.088C499.689 36.704 499.657 36.3253 499.604 35.952H500.98L501.156 37.952L500.98 37.888C501.118 37.184 501.433 36.656 501.924 36.304C502.425 35.9413 502.985 35.76 503.604 35.76C503.753 35.76 503.886 35.7707 504.004 35.792C504.132 35.8027 504.249 35.824 504.356 35.856L504.34 37.184C504.073 37.088 503.774 37.04 503.444 37.04C502.9 37.04 502.462 37.1573 502.132 37.392C501.801 37.6267 501.561 37.9253 501.412 38.288C501.262 38.6507 501.188 39.04 501.188 39.456V44H499.732ZM510.017 44V32.608H511.489V44H510.017ZM514.075 44V38.208C514.075 37.8347 514.065 37.4613 514.043 37.088C514.033 36.704 514.001 36.3253 513.947 35.952H515.323L515.467 37.6L515.307 37.696C515.542 37.0667 515.915 36.5867 516.427 36.256C516.95 35.9147 517.547 35.744 518.219 35.744C520.15 35.744 521.115 36.816 521.115 38.96V44H519.659V39.04C519.659 38.3147 519.515 37.7867 519.227 37.456C518.95 37.1147 518.502 36.944 517.883 36.944C517.169 36.944 516.598 37.168 516.171 37.616C515.745 38.0533 515.531 38.6453 515.531 39.392V44H514.075ZM525.865 44L522.425 35.968H523.945L526.777 42.88H526.377L529.241 35.968H530.697L527.209 44H525.865ZM538.606 43.056C538.254 43.3867 537.801 43.648 537.246 43.84C536.692 44.0213 536.126 44.112 535.55 44.112C534.708 44.112 533.982 43.9467 533.374 43.616C532.766 43.2853 532.297 42.8107 531.966 42.192C531.636 41.5627 531.47 40.816 531.47 39.952C531.47 39.12 531.63 38.3893 531.95 37.76C532.281 37.1307 532.734 36.64 533.31 36.288C533.886 35.9253 534.548 35.744 535.294 35.744C536.02 35.744 536.638 35.904 537.15 36.224C537.673 36.544 538.068 37.0027 538.334 37.6C538.612 38.1867 538.75 38.8907 538.75 39.712V39.968H532.75V39.072H537.918L537.47 39.648C537.492 38.7413 537.316 38.048 536.942 37.568C536.569 37.088 536.025 36.848 535.31 36.848C534.564 36.848 533.977 37.1147 533.55 37.648C533.134 38.1707 532.926 38.9067 532.926 39.856C532.926 40.88 533.15 41.6533 533.598 42.176C534.046 42.688 534.708 42.944 535.582 42.944C536.052 42.944 536.5 42.8693 536.926 42.72C537.353 42.56 537.758 42.3253 538.142 42.016L538.606 43.056ZM543.437 44.112C542.061 44.112 540.968 43.7653 540.157 43.072L540.621 42.016C541.048 42.3467 541.49 42.592 541.949 42.752C542.418 42.9013 542.93 42.976 543.485 42.976C544.061 42.976 544.498 42.88 544.797 42.688C545.106 42.4853 545.261 42.1973 545.261 41.824C545.261 41.5253 545.154 41.2907 544.941 41.12C544.738 40.9387 544.397 40.7893 543.917 40.672L542.573 40.352C541.88 40.2027 541.346 39.936 540.973 39.552C540.61 39.168 540.429 38.704 540.429 38.16C540.429 37.6907 540.557 37.2747 540.813 36.912C541.08 36.5493 541.448 36.2667 541.917 36.064C542.386 35.8507 542.941 35.744 543.581 35.744C544.146 35.744 544.68 35.8347 545.181 36.016C545.693 36.1973 546.125 36.4587 546.477 36.8L546.013 37.84C545.629 37.52 545.234 37.2853 544.829 37.136C544.424 36.976 544.002 36.896 543.565 36.896C543.021 36.896 542.594 37.0027 542.285 37.216C541.986 37.4293 541.837 37.7173 541.837 38.08C541.837 38.3893 541.933 38.6347 542.125 38.816C542.317 38.9973 542.621 39.1413 543.037 39.248L544.397 39.584C545.165 39.744 545.73 40.0107 546.093 40.384C546.456 40.7467 546.637 41.216 546.637 41.792C546.637 42.496 546.349 43.0613 545.773 43.488C545.197 43.904 544.418 44.112 543.437 44.112ZM547.44 37.072V35.952H552.72V37.072H547.44ZM552.688 42.736V43.952C552.507 44.0053 552.32 44.0427 552.128 44.064C551.947 44.096 551.749 44.112 551.536 44.112C550.747 44.112 550.123 43.888 549.664 43.44C549.216 42.992 548.992 42.3307 548.992 41.456V33.904L550.448 33.392V41.296C550.448 41.712 550.507 42.0373 550.624 42.272C550.752 42.496 550.917 42.656 551.12 42.752C551.333 42.8373 551.573 42.88 551.84 42.88C551.989 42.88 552.128 42.8693 552.256 42.848C552.384 42.8267 552.528 42.7893 552.688 42.736ZM557.655 44.112C556.876 44.112 556.194 43.9413 555.607 43.6C555.031 43.2587 554.583 42.7787 554.263 42.16C553.943 41.5307 553.783 40.7893 553.783 39.936C553.783 39.0933 553.943 38.3573 554.263 37.728C554.583 37.088 555.031 36.5973 555.607 36.256C556.194 35.9147 556.876 35.744 557.655 35.744C558.444 35.744 559.127 35.9147 559.703 36.256C560.279 36.5973 560.727 37.088 561.047 37.728C561.367 38.3573 561.527 39.0933 561.527 39.936C561.527 40.7893 561.367 41.5307 561.047 42.16C560.727 42.7787 560.279 43.2587 559.703 43.6C559.127 43.9413 558.444 44.112 557.655 44.112ZM557.655 42.928C558.423 42.928 559.015 42.6773 559.431 42.176C559.847 41.664 560.055 40.9173 560.055 39.936C560.055 38.9653 559.842 38.224 559.415 37.712C558.999 37.2 558.412 36.944 557.655 36.944C556.908 36.944 556.322 37.2 555.895 37.712C555.468 38.224 555.255 38.9653 555.255 39.936C555.255 40.9173 555.463 41.664 555.879 42.176C556.295 42.6773 556.887 42.928 557.655 42.928ZM563.497 44V38.208C563.497 37.8347 563.487 37.4613 563.465 37.088C563.455 36.704 563.423 36.3253 563.369 35.952H564.745L564.921 37.952L564.745 37.888C564.884 37.184 565.199 36.656 565.689 36.304C566.191 35.9413 566.751 35.76 567.369 35.76C567.519 35.76 567.652 35.7707 567.769 35.792C567.897 35.8027 568.015 35.824 568.121 35.856L568.105 37.184C567.839 37.088 567.54 37.04 567.209 37.04C566.665 37.04 566.228 37.1573 565.897 37.392C565.567 37.6267 565.327 37.9253 565.177 38.288C565.028 38.6507 564.953 39.04 564.953 39.456V44H563.497ZM572.093 44.112C570.717 44.112 569.624 43.7653 568.813 43.072L569.277 42.016C569.704 42.3467 570.147 42.592 570.605 42.752C571.075 42.9013 571.587 42.976 572.141 42.976C572.717 42.976 573.155 42.88 573.453 42.688C573.763 42.4853 573.917 42.1973 573.917 41.824C573.917 41.5253 573.811 41.2907 573.597 41.12C573.395 40.9387 573.053 40.7893 572.573 40.672L571.229 40.352C570.536 40.2027 570.003 39.936 569.629 39.552C569.267 39.168 569.085 38.704 569.085 38.16C569.085 37.6907 569.213 37.2747 569.469 36.912C569.736 36.5493 570.104 36.2667 570.573 36.064C571.043 35.8507 571.597 35.744 572.237 35.744C572.803 35.744 573.336 35.8347 573.837 36.016C574.349 36.1973 574.781 36.4587 575.133 36.8L574.669 37.84C574.285 37.52 573.891 37.2853 573.485 37.136C573.08 36.976 572.659 36.896 572.221 36.896C571.677 36.896 571.251 37.0027 570.941 37.216C570.643 37.4293 570.493 37.7173 570.493 38.08C570.493 38.3893 570.589 38.6347 570.781 38.816C570.973 38.9973 571.277 39.1413 571.693 39.248L573.053 39.584C573.821 39.744 574.387 40.0107 574.749 40.384C575.112 40.7467 575.293 41.216 575.293 41.792C575.293 42.496 575.005 43.0613 574.429 43.488C573.853 43.904 573.075 44.112 572.093 44.112Z" fill="#969EAC"/>
<rect x="423" y="29" width="18" height="18" rx="2" fill="#D3365F"/>
<path d="M359.144 44V38.88L359.464 39.888L354.632 32.608H356.36L360.136 38.48H359.656L363.448 32.608H365.144L360.328 39.888L360.632 38.88V44H359.144ZM368.171 44.112C367.392 44.112 366.709 43.9413 366.123 43.6C365.547 43.2587 365.099 42.7787 364.779 42.16C364.459 41.5307 364.299 40.7893 364.299 39.936C364.299 39.0933 364.459 38.3573 364.779 37.728C365.099 37.088 365.547 36.5973 366.123 36.256C366.709 35.9147 367.392 35.744 368.171 35.744C368.96 35.744 369.643 35.9147 370.219 36.256C370.795 36.5973 371.243 37.088 371.562 37.728C371.883 38.3573 372.043 39.0933 372.043 39.936C372.043 40.7893 371.883 41.5307 371.562 42.16C371.243 42.7787 370.795 43.2587 370.219 43.6C369.643 43.9413 368.96 44.112 368.171 44.112ZM368.171 42.928C368.939 42.928 369.531 42.6773 369.947 42.176C370.363 41.664 370.571 40.9173 370.571 39.936C370.571 38.9653 370.357 38.224 369.931 37.712C369.515 37.2 368.928 36.944 368.171 36.944C367.424 36.944 366.837 37.2 366.411 37.712C365.984 38.224 365.771 38.9653 365.771 39.936C365.771 40.9173 365.979 41.664 366.395 42.176C366.811 42.6773 367.403 42.928 368.171 42.928ZM376.877 44.112C375.906 44.112 375.176 43.8453 374.685 43.312C374.205 42.768 373.965 41.968 373.965 40.912V35.952H375.421V40.896C375.421 41.5893 375.56 42.1013 375.837 42.432C376.125 42.752 376.562 42.912 377.149 42.912C377.832 42.912 378.381 42.6933 378.797 42.256C379.213 41.808 379.421 41.216 379.421 40.48V35.952H380.893V44H379.469V42.272L379.661 42.192C379.448 42.8213 379.09 43.3013 378.589 43.632C378.088 43.952 377.517 44.112 376.877 44.112Z" fill="#969EAC"/>
<rect x="325" y="29" width="18" height="18" rx="2" fill="#235EE7"/>
<defs>
<filter id="filter0_di" x="0" y="0" width="629" height="370" filterUnits="userSpaceOnUse" color-interpolation-filters="sRGB">
<feFlood flood-opacity="0" result="BackgroundImageFix"/>
<feColorMatrix in="SourceAlpha" type="matrix" values="0 0 0 0 0 0 0 0 0 0 0 0 0 0 0 0 0 0 127 0"/>
<feOffset dy="2"/>
<feGaussianBlur stdDeviation="4"/>
<feColorMatrix type="matrix" values="0 0 0 0 0.888 0 0 0 0 0.911467 0 0 0 0 0.952 0 0 0 1 0"/>
<feBlend mode="normal" in2="BackgroundImageFix" result="effect1_dropShadow"/>
<feBlend mode="normal" in="SourceGraphic" in2="effect1_dropShadow" result="shape"/>
<feColorMatrix in="SourceAlpha" type="matrix" values="0 0 0 0 0 0 0 0 0 0 0 0 0 0 0 0 0 0 127 0" result="hardAlpha"/>
<feOffset dy="-1"/>
<feComposite in2="hardAlpha" operator="arithmetic" k2="-1" k3="1"/>
<feColorMatrix type="matrix" values="0 0 0 0 0.921569 0 0 0 0 0.92549 0 0 0 0 0.945098 0 0 0 1 0"/>
<feBlend mode="normal" in2="shape" result="effect2_innerShadow"/>
</filter>
</defs>
</svg>
