<svg width="367" height="173" viewBox="0 0 367 173" fill="none" xmlns="http://www.w3.org/2000/svg">
  <path d="M296.423 168.16C295.437 168.16 294.503 168 293.623 167.68C292.757 167.347 292.003 166.867 291.363 166.24L291.863 165.26C292.583 165.9 293.303 166.36 294.023 166.64C294.743 166.92 295.543 167.06 296.423 167.06C297.557 167.06 298.437 166.813 299.063 166.32C299.703 165.813 300.023 165.12 300.023 164.24C300.023 163.693 299.87 163.267 299.563 162.96C299.27 162.64 298.87 162.387 298.363 162.2C297.87 162.013 297.323 161.853 296.723 161.72C296.137 161.573 295.543 161.413 294.943 161.24C294.343 161.067 293.79 160.84 293.283 160.56C292.79 160.28 292.39 159.907 292.083 159.44C291.79 158.973 291.643 158.367 291.643 157.62C291.643 156.833 291.85 156.14 292.263 155.54C292.677 154.927 293.25 154.453 293.983 154.12C294.717 153.773 295.55 153.6 296.483 153.6C297.083 153.6 297.663 153.673 298.223 153.82C298.797 153.967 299.33 154.18 299.823 154.46C300.33 154.727 300.777 155.06 301.163 155.46L300.663 156.44C299.517 155.28 298.123 154.7 296.483 154.7C295.377 154.7 294.503 154.96 293.863 155.48C293.223 156 292.903 156.707 292.903 157.6C292.903 158.2 293.05 158.673 293.343 159.02C293.65 159.367 294.057 159.647 294.563 159.86C295.07 160.06 295.617 160.233 296.203 160.38C296.803 160.527 297.397 160.68 297.983 160.84C298.583 161 299.13 161.213 299.623 161.48C300.13 161.733 300.53 162.08 300.823 162.52C301.13 162.96 301.283 163.527 301.283 164.22C301.283 165.007 301.077 165.693 300.663 166.28C300.25 166.867 299.677 167.327 298.943 167.66C298.21 167.993 297.37 168.16 296.423 168.16ZM296.003 170.32V167.94L296.023 167.32V154.36L296.003 153.82V151.44H297.123V153.82L297.103 154.36V167.32L297.123 167.94V170.32H296.003ZM308.275 168.14C307.369 168.14 306.502 167.98 305.675 167.66C304.849 167.34 304.142 166.893 303.555 166.32L304.075 165.34C304.729 165.913 305.395 166.347 306.075 166.64C306.769 166.92 307.502 167.06 308.275 167.06C309.315 167.06 310.115 166.813 310.675 166.32C311.249 165.813 311.535 165.093 311.535 164.16C311.535 163.2 311.235 162.487 310.635 162.02C310.049 161.54 309.182 161.3 308.035 161.3H306.495V160.22H307.715C308.835 160.22 309.695 159.96 310.295 159.44C310.909 158.92 311.215 158.187 311.215 157.24C311.215 156.427 310.969 155.8 310.475 155.36C309.982 154.907 309.289 154.68 308.395 154.68C307.662 154.68 306.962 154.827 306.295 155.12C305.629 155.4 304.962 155.827 304.295 156.4L303.775 155.42C304.349 154.847 305.042 154.4 305.855 154.08C306.682 153.76 307.535 153.6 308.415 153.6C309.242 153.6 309.962 153.747 310.575 154.04C311.189 154.333 311.655 154.753 311.975 155.3C312.309 155.833 312.475 156.473 312.475 157.22C312.462 158.1 312.222 158.86 311.755 159.5C311.302 160.14 310.675 160.567 309.875 160.78L309.795 160.58C310.769 160.78 311.509 161.187 312.015 161.8C312.522 162.4 312.775 163.187 312.775 164.16C312.775 165.387 312.369 166.36 311.555 167.08C310.742 167.787 309.649 168.14 308.275 168.14ZM320.668 168.14C319.814 168.14 318.974 167.98 318.148 167.66C317.321 167.34 316.614 166.893 316.028 166.32L316.548 165.34C317.201 165.9 317.868 166.327 318.548 166.62C319.228 166.913 319.934 167.06 320.668 167.06C321.708 167.06 322.528 166.753 323.128 166.14C323.741 165.513 324.048 164.68 324.048 163.64C324.048 162.973 323.914 162.387 323.648 161.88C323.381 161.36 323.001 160.96 322.508 160.68C322.028 160.387 321.454 160.24 320.788 160.24C320.041 160.24 319.388 160.393 318.828 160.7C318.268 160.993 317.781 161.453 317.368 162.08H316.408V153.76H324.768V154.82H317.648V161.08L317.248 161.02C317.621 160.433 318.121 159.973 318.748 159.64C319.374 159.307 320.081 159.14 320.868 159.14C321.788 159.14 322.574 159.333 323.228 159.72C323.894 160.093 324.401 160.62 324.748 161.3C325.108 161.98 325.288 162.76 325.288 163.64C325.288 164.52 325.101 165.3 324.728 165.98C324.354 166.66 323.821 167.193 323.128 167.58C322.434 167.953 321.614 168.14 320.668 168.14ZM328.36 170.14L327.74 169.64C328.06 169.28 328.267 168.953 328.36 168.66C328.453 168.38 328.5 168.087 328.5 167.78L328.92 168H327.72V166.26H329.42V167.56C329.42 168.027 329.34 168.473 329.18 168.9C329.033 169.327 328.76 169.74 328.36 170.14ZM332.533 168V167.06L337.593 161.42C338.3 160.607 338.813 159.887 339.133 159.26C339.467 158.62 339.633 157.973 339.633 157.32C339.633 156.48 339.387 155.833 338.893 155.38C338.413 154.913 337.72 154.68 336.813 154.68C336.093 154.68 335.393 154.827 334.713 155.12C334.047 155.4 333.38 155.827 332.713 156.4L332.193 155.42C332.753 154.873 333.453 154.433 334.293 154.1C335.133 153.767 335.973 153.6 336.813 153.6C337.653 153.6 338.373 153.747 338.973 154.04C339.587 154.333 340.06 154.76 340.393 155.32C340.727 155.867 340.893 156.52 340.893 157.28C340.893 158.093 340.7 158.887 340.313 159.66C339.94 160.42 339.327 161.28 338.473 162.24L333.453 167.72L333.433 166.94H341.513V168H332.533ZM349.086 168.14C348.232 168.14 347.392 167.98 346.566 167.66C345.739 167.34 345.032 166.893 344.446 166.32L344.966 165.34C345.619 165.9 346.286 166.327 346.966 166.62C347.646 166.913 348.352 167.06 349.086 167.06C350.126 167.06 350.946 166.753 351.546 166.14C352.159 165.513 352.466 164.68 352.466 163.64C352.466 162.973 352.332 162.387 352.066 161.88C351.799 161.36 351.419 160.96 350.926 160.68C350.446 160.387 349.872 160.24 349.206 160.24C348.459 160.24 347.806 160.393 347.246 160.7C346.686 160.993 346.199 161.453 345.786 162.08H344.826V153.76H353.186V154.82H346.066V161.08L345.666 161.02C346.039 160.433 346.539 159.973 347.166 159.64C347.792 159.307 348.499 159.14 349.286 159.14C350.206 159.14 350.992 159.333 351.646 159.72C352.312 160.093 352.819 160.62 353.166 161.3C353.526 161.98 353.706 162.76 353.706 163.64C353.706 164.52 353.519 165.3 353.146 165.98C352.772 166.66 352.239 167.193 351.546 167.58C350.852 167.953 350.032 168.14 349.086 168.14ZM360.758 168.16C359.158 168.16 357.944 167.547 357.118 166.32C356.291 165.08 355.878 163.267 355.878 160.88C355.878 158.48 356.284 156.667 357.098 155.44C357.924 154.213 359.144 153.6 360.758 153.6C362.371 153.6 363.584 154.213 364.398 155.44C365.224 156.667 365.638 158.473 365.638 160.86C365.638 163.247 365.224 165.06 364.398 166.3C363.571 167.54 362.358 168.16 360.758 168.16ZM360.758 167.06C361.984 167.06 362.891 166.56 363.478 165.56C364.078 164.547 364.378 162.98 364.378 160.86C364.378 158.74 364.084 157.187 363.498 156.2C362.911 155.2 361.998 154.7 360.758 154.7C359.531 154.7 358.618 155.2 358.018 156.2C357.431 157.2 357.138 158.753 357.138 160.86C357.138 162.967 357.431 164.527 358.018 165.54C358.618 166.553 359.531 167.06 360.758 167.06Z" fill="#969EAC"/>
  <path d="M59.126 168V156.608H63.718C64.966 156.608 65.9153 156.885 66.566 157.44C67.2273 157.984 67.558 158.773 67.558 159.808C67.558 160.789 67.222 161.563 66.55 162.128C65.878 162.693 64.9393 162.976 63.734 162.976L64.934 162.752C65.35 162.752 65.7073 162.869 66.006 163.104C66.3047 163.328 66.5447 163.691 66.726 164.192L68.166 168H66.582L65.174 164.208C65.0033 163.749 64.7633 163.445 64.454 163.296C64.1553 163.147 63.7553 163.072 63.254 163.072H60.582V168H59.126ZM60.582 161.872H63.574C64.438 161.872 65.078 161.701 65.494 161.36C65.91 161.008 66.118 160.496 66.118 159.824C66.118 159.141 65.91 158.635 65.494 158.304C65.0887 157.973 64.4487 157.808 63.574 157.808H60.582V161.872ZM76.747 167.056C76.395 167.387 75.9417 167.648 75.387 167.84C74.8323 168.021 74.267 168.112 73.691 168.112C72.8483 168.112 72.123 167.947 71.515 167.616C70.907 167.285 70.4377 166.811 70.107 166.192C69.7763 165.563 69.611 164.816 69.611 163.952C69.611 163.12 69.771 162.389 70.091 161.76C70.4217 161.131 70.875 160.64 71.451 160.288C72.027 159.925 72.6883 159.744 73.435 159.744C74.1603 159.744 74.779 159.904 75.291 160.224C75.8137 160.544 76.2083 161.003 76.475 161.6C76.7523 162.187 76.891 162.891 76.891 163.712V163.968H70.891V163.072H76.059L75.611 163.648C75.6323 162.741 75.4563 162.048 75.083 161.568C74.7097 161.088 74.1657 160.848 73.451 160.848C72.7043 160.848 72.1177 161.115 71.691 161.648C71.275 162.171 71.067 162.907 71.067 163.856C71.067 164.88 71.291 165.653 71.739 166.176C72.187 166.688 72.8483 166.944 73.723 166.944C74.1923 166.944 74.6403 166.869 75.067 166.72C75.4937 166.56 75.899 166.325 76.283 166.016L76.747 167.056ZM81.8978 168.112C81.1938 168.112 80.5698 167.947 80.0258 167.616C79.4924 167.275 79.0764 166.795 78.7778 166.176C78.4791 165.547 78.3298 164.811 78.3298 163.968C78.3298 163.125 78.4791 162.389 78.7778 161.76C79.0871 161.131 79.5084 160.64 80.0418 160.288C80.5858 159.925 81.2044 159.744 81.8978 159.744C82.6231 159.744 83.2418 159.925 83.7538 160.288C84.2658 160.64 84.6124 161.147 84.7938 161.808L84.6018 161.92V159.952H86.0417V168H84.6018V165.984L84.7938 166.064C84.6124 166.715 84.2658 167.221 83.7538 167.584C83.2418 167.936 82.6231 168.112 81.8978 168.112ZM82.2178 166.928C82.9858 166.928 83.5724 166.672 83.9778 166.16C84.3938 165.637 84.6018 164.896 84.6018 163.936C84.6018 162.976 84.3938 162.24 83.9778 161.728C83.5618 161.205 82.9751 160.944 82.2178 160.944C81.4604 160.944 80.8684 161.211 80.4418 161.744C80.0151 162.277 79.8018 163.019 79.8018 163.968C79.8018 164.917 80.0151 165.648 80.4418 166.16C80.8684 166.672 81.4604 166.928 82.2178 166.928ZM88.466 168V156.224H89.922V168H88.466ZM96.7354 168V156.608H104.015V157.824H98.1914V161.6H103.695V162.832H98.1914V166.784H104.015V168H96.7354ZM108.781 168.112C107.405 168.112 106.312 167.765 105.501 167.072L105.965 166.016C106.392 166.347 106.834 166.592 107.293 166.752C107.762 166.901 108.274 166.976 108.829 166.976C109.405 166.976 109.842 166.88 110.141 166.688C110.45 166.485 110.605 166.197 110.605 165.824C110.605 165.525 110.498 165.291 110.285 165.12C110.082 164.939 109.741 164.789 109.261 164.672L107.917 164.352C107.224 164.203 106.69 163.936 106.317 163.552C105.954 163.168 105.773 162.704 105.773 162.16C105.773 161.691 105.901 161.275 106.157 160.912C106.424 160.549 106.792 160.267 107.261 160.064C107.73 159.851 108.285 159.744 108.925 159.744C109.49 159.744 110.024 159.835 110.525 160.016C111.037 160.197 111.469 160.459 111.821 160.8L111.357 161.84C110.973 161.52 110.578 161.285 110.173 161.136C109.768 160.976 109.346 160.896 108.909 160.896C108.365 160.896 107.938 161.003 107.629 161.216C107.33 161.429 107.181 161.717 107.181 162.08C107.181 162.389 107.277 162.635 107.469 162.816C107.661 162.997 107.965 163.141 108.381 163.248L109.741 163.584C110.509 163.744 111.074 164.011 111.437 164.384C111.8 164.747 111.981 165.216 111.981 165.792C111.981 166.496 111.693 167.061 111.117 167.488C110.541 167.904 109.762 168.112 108.781 168.112ZM112.784 161.072V159.952H118.064V161.072H112.784ZM118.032 166.736V167.952C117.851 168.005 117.664 168.043 117.472 168.064C117.291 168.096 117.093 168.112 116.88 168.112C116.091 168.112 115.467 167.888 115.008 167.44C114.56 166.992 114.336 166.331 114.336 165.456V157.904L115.792 157.392V165.296C115.792 165.712 115.851 166.037 115.968 166.272C116.096 166.496 116.261 166.656 116.464 166.752C116.677 166.837 116.917 166.88 117.184 166.88C117.333 166.88 117.472 166.869 117.6 166.848C117.728 166.827 117.872 166.789 118.032 166.736ZM122.695 168.112C121.991 168.112 121.367 167.947 120.823 167.616C120.289 167.275 119.873 166.795 119.575 166.176C119.276 165.547 119.127 164.811 119.127 163.968C119.127 163.125 119.276 162.389 119.575 161.76C119.884 161.131 120.305 160.64 120.839 160.288C121.383 159.925 122.001 159.744 122.695 159.744C123.42 159.744 124.039 159.925 124.551 160.288C125.063 160.64 125.409 161.147 125.591 161.808L125.399 161.92V159.952H126.839V168H125.399V165.984L125.591 166.064C125.409 166.715 125.063 167.221 124.551 167.584C124.039 167.936 123.42 168.112 122.695 168.112ZM123.015 166.928C123.783 166.928 124.369 166.672 124.775 166.16C125.191 165.637 125.399 164.896 125.399 163.936C125.399 162.976 125.191 162.24 124.775 161.728C124.359 161.205 123.772 160.944 123.015 160.944C122.257 160.944 121.665 161.211 121.239 161.744C120.812 162.277 120.599 163.019 120.599 163.968C120.599 164.917 120.812 165.648 121.239 166.16C121.665 166.672 122.257 166.928 123.015 166.928ZM128.159 161.072V159.952H133.439V161.072H128.159ZM133.407 166.736V167.952C133.226 168.005 133.039 168.043 132.847 168.064C132.666 168.096 132.468 168.112 132.255 168.112C131.466 168.112 130.842 167.888 130.383 167.44C129.935 166.992 129.711 166.331 129.711 165.456V157.904L131.167 157.392V165.296C131.167 165.712 131.226 166.037 131.343 166.272C131.471 166.496 131.636 166.656 131.839 166.752C132.052 166.837 132.292 166.88 132.559 166.88C132.708 166.88 132.847 166.869 132.975 166.848C133.103 166.827 133.247 166.789 133.407 166.736ZM141.638 167.056C141.286 167.387 140.832 167.648 140.278 167.84C139.723 168.021 139.158 168.112 138.582 168.112C137.739 168.112 137.014 167.947 136.406 167.616C135.798 167.285 135.328 166.811 134.998 166.192C134.667 165.563 134.502 164.816 134.502 163.952C134.502 163.12 134.662 162.389 134.982 161.76C135.312 161.131 135.766 160.64 136.342 160.288C136.918 159.925 137.579 159.744 138.326 159.744C139.051 159.744 139.67 159.904 140.182 160.224C140.704 160.544 141.099 161.003 141.366 161.6C141.643 162.187 141.782 162.891 141.782 163.712V163.968H135.782V163.072H140.95L140.502 163.648C140.523 162.741 140.347 162.048 139.974 161.568C139.6 161.088 139.056 160.848 138.342 160.848C137.595 160.848 137.008 161.115 136.582 161.648C136.166 162.171 135.958 162.907 135.958 163.856C135.958 164.88 136.182 165.653 136.63 166.176C137.078 166.688 137.739 166.944 138.614 166.944C139.083 166.944 139.531 166.869 139.958 166.72C140.384 166.56 140.79 166.325 141.174 166.016L141.638 167.056ZM147.855 164.288V163.104H152.447V164.288H147.855ZM158.09 167.328V157.552L158.906 157.888L155.754 159.872V158.48L158.73 156.608H159.578V167.328H158.09ZM155.578 168V166.768H162.09V168H155.578ZM168.132 168.112C167.428 168.112 166.734 167.989 166.052 167.744C165.38 167.499 164.814 167.157 164.356 166.72L164.9 165.6C165.422 166.027 165.95 166.352 166.484 166.576C167.017 166.789 167.566 166.896 168.132 166.896C168.91 166.896 169.518 166.683 169.956 166.256C170.393 165.819 170.612 165.221 170.612 164.464C170.612 163.984 170.51 163.563 170.308 163.2C170.116 162.837 169.838 162.555 169.476 162.352C169.124 162.139 168.708 162.032 168.228 162.032C167.705 162.032 167.23 162.139 166.804 162.352C166.377 162.555 166.004 162.864 165.684 163.28H164.692V156.608H171.588V157.808H166.164V162.224L165.7 162.176C166.009 161.739 166.404 161.403 166.884 161.168C167.364 160.933 167.902 160.816 168.5 160.816C169.225 160.816 169.854 160.971 170.388 161.28C170.921 161.579 171.332 162 171.62 162.544C171.908 163.088 172.052 163.717 172.052 164.432C172.052 165.157 171.892 165.797 171.572 166.352C171.252 166.907 170.798 167.339 170.212 167.648C169.625 167.957 168.932 168.112 168.132 168.112ZM175.821 163.504C175.032 163.504 174.408 163.216 173.949 162.64C173.491 162.064 173.261 161.189 173.261 160.016C173.261 158.832 173.491 157.957 173.949 157.392C174.408 156.827 175.032 156.544 175.821 156.544C176.611 156.544 177.229 156.827 177.677 157.392C178.136 157.957 178.365 158.832 178.365 160.016C178.365 161.189 178.136 162.064 177.677 162.64C177.229 163.216 176.611 163.504 175.821 163.504ZM175.821 162.496C176.237 162.496 176.547 162.304 176.749 161.92C176.963 161.525 177.069 160.891 177.069 160.016C177.069 159.152 176.963 158.528 176.749 158.144C176.547 157.749 176.237 157.552 175.821 157.552C175.405 157.552 175.091 157.749 174.877 158.144C174.675 158.528 174.573 159.152 174.573 160.016C174.573 160.891 174.675 161.525 174.877 161.92C175.091 162.304 175.405 162.496 175.821 162.496ZM175.597 168L182.189 156.608H183.581L177.005 168H175.597ZM183.357 168.064C182.568 168.064 181.944 167.776 181.485 167.2C181.027 166.624 180.797 165.749 180.797 164.576C180.797 163.392 181.027 162.517 181.485 161.952C181.944 161.387 182.568 161.104 183.357 161.104C184.147 161.104 184.765 161.387 185.213 161.952C185.672 162.517 185.901 163.392 185.901 164.576C185.901 165.749 185.672 166.624 185.213 167.2C184.765 167.776 184.147 168.064 183.357 168.064ZM183.357 167.056C183.773 167.056 184.083 166.864 184.285 166.48C184.499 166.085 184.605 165.451 184.605 164.576C184.605 163.712 184.499 163.088 184.285 162.704C184.083 162.309 183.773 162.112 183.357 162.112C182.941 162.112 182.627 162.309 182.413 162.704C182.211 163.088 182.109 163.712 182.109 164.576C182.109 165.451 182.211 166.085 182.413 166.48C182.627 166.864 182.941 167.056 183.357 167.056Z" fill="#969EAC"/>
  <rect x="17.75" y="152" width="18" height="18" rx="2" fill="#D3365F"/>
  <path d="M296.423 132.16C295.437 132.16 294.503 132 293.623 131.68C292.757 131.347 292.003 130.867 291.363 130.24L291.863 129.26C292.583 129.9 293.303 130.36 294.023 130.64C294.743 130.92 295.543 131.06 296.423 131.06C297.557 131.06 298.437 130.813 299.063 130.32C299.703 129.813 300.023 129.12 300.023 128.24C300.023 127.693 299.87 127.267 299.563 126.96C299.27 126.64 298.87 126.387 298.363 126.2C297.87 126.013 297.323 125.853 296.723 125.72C296.137 125.573 295.543 125.413 294.943 125.24C294.343 125.067 293.79 124.84 293.283 124.56C292.79 124.28 292.39 123.907 292.083 123.44C291.79 122.973 291.643 122.367 291.643 121.62C291.643 120.833 291.85 120.14 292.263 119.54C292.677 118.927 293.25 118.453 293.983 118.12C294.717 117.773 295.55 117.6 296.483 117.6C297.083 117.6 297.663 117.673 298.223 117.82C298.797 117.967 299.33 118.18 299.823 118.46C300.33 118.727 300.777 119.06 301.163 119.46L300.663 120.44C299.517 119.28 298.123 118.7 296.483 118.7C295.377 118.7 294.503 118.96 293.863 119.48C293.223 120 292.903 120.707 292.903 121.6C292.903 122.2 293.05 122.673 293.343 123.02C293.65 123.367 294.057 123.647 294.563 123.86C295.07 124.06 295.617 124.233 296.203 124.38C296.803 124.527 297.397 124.68 297.983 124.84C298.583 125 299.13 125.213 299.623 125.48C300.13 125.733 300.53 126.08 300.823 126.52C301.13 126.96 301.283 127.527 301.283 128.22C301.283 129.007 301.077 129.693 300.663 130.28C300.25 130.867 299.677 131.327 298.943 131.66C298.21 131.993 297.37 132.16 296.423 132.16ZM296.003 134.32V131.94L296.023 131.32V118.36L296.003 117.82V115.44H297.123V117.82L297.103 118.36V131.32L297.123 131.94V134.32H296.003ZM304.115 132V131.06L309.175 125.42C309.882 124.607 310.395 123.887 310.715 123.26C311.049 122.62 311.215 121.973 311.215 121.32C311.215 120.48 310.969 119.833 310.475 119.38C309.995 118.913 309.302 118.68 308.395 118.68C307.675 118.68 306.975 118.827 306.295 119.12C305.629 119.4 304.962 119.827 304.295 120.4L303.775 119.42C304.335 118.873 305.035 118.433 305.875 118.1C306.715 117.767 307.555 117.6 308.395 117.6C309.235 117.6 309.955 117.747 310.555 118.04C311.169 118.333 311.642 118.76 311.975 119.32C312.309 119.867 312.475 120.52 312.475 121.28C312.475 122.093 312.282 122.887 311.895 123.66C311.522 124.42 310.909 125.28 310.055 126.24L305.035 131.72L305.015 130.94H313.095V132H304.115ZM320.268 132.14C319.361 132.14 318.494 131.98 317.668 131.66C316.841 131.34 316.134 130.893 315.548 130.32L316.068 129.34C316.721 129.913 317.388 130.347 318.068 130.64C318.761 130.92 319.494 131.06 320.268 131.06C321.308 131.06 322.108 130.813 322.668 130.32C323.241 129.813 323.528 129.093 323.528 128.16C323.528 127.2 323.228 126.487 322.628 126.02C322.041 125.54 321.174 125.3 320.028 125.3H318.488V124.22H319.708C320.828 124.22 321.688 123.96 322.288 123.44C322.901 122.92 323.208 122.187 323.208 121.24C323.208 120.427 322.961 119.8 322.468 119.36C321.974 118.907 321.281 118.68 320.388 118.68C319.654 118.68 318.954 118.827 318.288 119.12C317.621 119.4 316.954 119.827 316.288 120.4L315.768 119.42C316.341 118.847 317.034 118.4 317.848 118.08C318.674 117.76 319.528 117.6 320.408 117.6C321.234 117.6 321.954 117.747 322.568 118.04C323.181 118.333 323.648 118.753 323.968 119.3C324.301 119.833 324.468 120.473 324.468 121.22C324.454 122.1 324.214 122.86 323.748 123.5C323.294 124.14 322.668 124.567 321.868 124.78L321.788 124.58C322.761 124.78 323.501 125.187 324.008 125.8C324.514 126.4 324.768 127.187 324.768 128.16C324.768 129.387 324.361 130.36 323.548 131.08C322.734 131.787 321.641 132.14 320.268 132.14ZM328.36 134.14L327.74 133.64C328.06 133.28 328.267 132.953 328.36 132.66C328.453 132.38 328.5 132.087 328.5 131.78L328.92 132H327.72V130.26H329.42V131.56C329.42 132.027 329.34 132.473 329.18 132.9C329.033 133.327 328.76 133.74 328.36 134.14ZM337.093 132.14C336.24 132.14 335.4 131.98 334.573 131.66C333.747 131.34 333.04 130.893 332.453 130.32L332.973 129.34C333.627 129.9 334.293 130.327 334.973 130.62C335.653 130.913 336.36 131.06 337.093 131.06C338.133 131.06 338.953 130.753 339.553 130.14C340.167 129.513 340.473 128.68 340.473 127.64C340.473 126.973 340.34 126.387 340.073 125.88C339.807 125.36 339.427 124.96 338.933 124.68C338.453 124.387 337.88 124.24 337.213 124.24C336.467 124.24 335.813 124.393 335.253 124.7C334.693 124.993 334.207 125.453 333.793 126.08H332.833V117.76H341.193V118.82H334.073V125.08L333.673 125.02C334.047 124.433 334.547 123.973 335.173 123.64C335.8 123.307 336.507 123.14 337.293 123.14C338.213 123.14 339 123.333 339.653 123.72C340.32 124.093 340.827 124.62 341.173 125.3C341.533 125.98 341.713 126.76 341.713 127.64C341.713 128.52 341.527 129.3 341.153 129.98C340.78 130.66 340.247 131.193 339.553 131.58C338.86 131.953 338.04 132.14 337.093 132.14ZM348.766 132.16C347.166 132.16 345.952 131.547 345.126 130.32C344.299 129.08 343.886 127.267 343.886 124.88C343.886 122.48 344.292 120.667 345.106 119.44C345.932 118.213 347.152 117.6 348.766 117.6C350.379 117.6 351.592 118.213 352.406 119.44C353.232 120.667 353.646 122.473 353.646 124.86C353.646 127.247 353.232 129.06 352.406 130.3C351.579 131.54 350.366 132.16 348.766 132.16ZM348.766 131.06C349.992 131.06 350.899 130.56 351.486 129.56C352.086 128.547 352.386 126.98 352.386 124.86C352.386 122.74 352.092 121.187 351.506 120.2C350.919 119.2 350.006 118.7 348.766 118.7C347.539 118.7 346.626 119.2 346.026 120.2C345.439 121.2 345.146 122.753 345.146 124.86C345.146 126.967 345.439 128.527 346.026 129.54C346.626 130.553 347.539 131.06 348.766 131.06ZM360.758 132.16C359.158 132.16 357.944 131.547 357.118 130.32C356.291 129.08 355.878 127.267 355.878 124.88C355.878 122.48 356.284 120.667 357.098 119.44C357.924 118.213 359.144 117.6 360.758 117.6C362.371 117.6 363.584 118.213 364.398 119.44C365.224 120.667 365.638 122.473 365.638 124.86C365.638 127.247 365.224 129.06 364.398 130.3C363.571 131.54 362.358 132.16 360.758 132.16ZM360.758 131.06C361.984 131.06 362.891 130.56 363.478 129.56C364.078 128.547 364.378 126.98 364.378 124.86C364.378 122.74 364.084 121.187 363.498 120.2C362.911 119.2 361.998 118.7 360.758 118.7C359.531 118.7 358.618 119.2 358.018 120.2C357.431 121.2 357.138 122.753 357.138 124.86C357.138 126.967 357.431 128.527 358.018 129.54C358.618 130.553 359.531 131.06 360.758 131.06Z" fill="#969EAC"/>
  <path d="M59.126 132V120.608H60.342L64.886 130.96H64.246L68.758 120.608H69.958V132H68.614V122.624L69.11 122.688L65.062 132H64.038L59.926 122.688L60.47 122.624L60.486 132H59.126ZM75.4081 132.112C74.4375 132.112 73.7068 131.845 73.2161 131.312C72.7361 130.768 72.4961 129.968 72.4961 128.912V123.952H73.9521V128.896C73.9521 129.589 74.0908 130.101 74.3681 130.432C74.6561 130.752 75.0935 130.912 75.6801 130.912C76.3628 130.912 76.9121 130.693 77.3281 130.256C77.7441 129.808 77.9521 129.216 77.9521 128.48V123.952H79.4241V132H78.0001V130.272L78.1921 130.192C77.9788 130.821 77.6215 131.301 77.1201 131.632C76.6188 131.952 76.0481 132.112 75.4081 132.112ZM81.841 132V126.208C81.841 125.835 81.8303 125.461 81.809 125.088C81.7983 124.704 81.7663 124.325 81.713 123.952H83.089L83.233 125.6L83.073 125.696C83.3077 125.067 83.681 124.587 84.193 124.256C84.7157 123.915 85.313 123.744 85.985 123.744C87.9157 123.744 88.881 124.816 88.881 126.96V132H87.425V127.04C87.425 126.315 87.281 125.787 86.993 125.456C86.7157 125.115 86.2677 124.944 85.649 124.944C84.9343 124.944 84.3637 125.168 83.937 125.616C83.5103 126.053 83.297 126.645 83.297 127.392V132H81.841ZM91.2629 132V123.952H92.7189V132H91.2629ZM91.1349 120.48H92.8469V122.064H91.1349V120.48ZM97.9215 132.112C96.5455 132.112 95.4522 131.765 94.6415 131.072L95.1055 130.016C95.5322 130.347 95.9748 130.592 96.4335 130.752C96.9028 130.901 97.4148 130.976 97.9695 130.976C98.5455 130.976 98.9828 130.88 99.2815 130.688C99.5908 130.485 99.7455 130.197 99.7455 129.824C99.7455 129.525 99.6388 129.291 99.4255 129.12C99.2228 128.939 98.8815 128.789 98.4015 128.672L97.0575 128.352C96.3642 128.203 95.8308 127.936 95.4575 127.552C95.0948 127.168 94.9135 126.704 94.9135 126.16C94.9135 125.691 95.0415 125.275 95.2975 124.912C95.5642 124.549 95.9322 124.267 96.4015 124.064C96.8708 123.851 97.4255 123.744 98.0655 123.744C98.6308 123.744 99.1642 123.835 99.6655 124.016C100.178 124.197 100.61 124.459 100.962 124.8L100.498 125.84C100.114 125.52 99.7188 125.285 99.3135 125.136C98.9082 124.976 98.4868 124.896 98.0495 124.896C97.5055 124.896 97.0788 125.003 96.7695 125.216C96.4708 125.429 96.3215 125.717 96.3215 126.08C96.3215 126.389 96.4175 126.635 96.6095 126.816C96.8015 126.997 97.1055 127.141 97.5215 127.248L98.8815 127.584C99.6495 127.744 100.215 128.011 100.578 128.384C100.94 128.747 101.122 129.216 101.122 129.792C101.122 130.496 100.834 131.061 100.258 131.488C99.6815 131.904 98.9028 132.112 97.9215 132.112ZM107.261 128.288V127.104H111.853V128.288H107.261ZM117.496 131.328V121.552L118.312 121.888L115.16 123.872V122.48L118.136 120.608H118.984V131.328H117.496ZM114.984 132V130.768H121.496V132H114.984ZM127.394 132.128C126.082 132.128 125.084 131.637 124.402 130.656C123.719 129.664 123.378 128.213 123.378 126.304C123.378 124.395 123.714 122.949 124.386 121.968C125.068 120.976 126.071 120.48 127.394 120.48C128.716 120.48 129.714 120.976 130.386 121.968C131.068 122.949 131.41 124.389 131.41 126.288C131.41 128.197 131.068 129.648 130.386 130.64C129.703 131.632 128.706 132.128 127.394 132.128ZM127.394 130.912C128.258 130.912 128.892 130.539 129.298 129.792C129.714 129.045 129.922 127.877 129.922 126.288C129.922 124.699 129.714 123.541 129.298 122.816C128.892 122.08 128.258 121.712 127.394 121.712C126.53 121.712 125.89 122.08 125.474 122.816C125.068 123.552 124.866 124.709 124.866 126.288C124.866 127.877 125.068 129.045 125.474 129.792C125.89 130.539 126.53 130.912 127.394 130.912ZM135.228 127.504C134.438 127.504 133.814 127.216 133.356 126.64C132.897 126.064 132.668 125.189 132.668 124.016C132.668 122.832 132.897 121.957 133.356 121.392C133.814 120.827 134.438 120.544 135.228 120.544C136.017 120.544 136.636 120.827 137.084 121.392C137.542 121.957 137.772 122.832 137.772 124.016C137.772 125.189 137.542 126.064 137.084 126.64C136.636 127.216 136.017 127.504 135.228 127.504ZM135.228 126.496C135.644 126.496 135.953 126.304 136.156 125.92C136.369 125.525 136.476 124.891 136.476 124.016C136.476 123.152 136.369 122.528 136.156 122.144C135.953 121.749 135.644 121.552 135.228 121.552C134.812 121.552 134.497 121.749 134.284 122.144C134.081 122.528 133.98 123.152 133.98 124.016C133.98 124.891 134.081 125.525 134.284 125.92C134.497 126.304 134.812 126.496 135.228 126.496ZM135.004 132L141.595 120.608H142.988L136.411 132H135.004ZM142.764 132.064C141.974 132.064 141.35 131.776 140.892 131.2C140.433 130.624 140.204 129.749 140.204 128.576C140.204 127.392 140.433 126.517 140.892 125.952C141.35 125.387 141.974 125.104 142.764 125.104C143.553 125.104 144.172 125.387 144.62 125.952C145.078 126.517 145.308 127.392 145.308 128.576C145.308 129.749 145.078 130.624 144.62 131.2C144.172 131.776 143.553 132.064 142.764 132.064ZM142.764 131.056C143.18 131.056 143.489 130.864 143.692 130.48C143.905 130.085 144.012 129.451 144.012 128.576C144.012 127.712 143.905 127.088 143.692 126.704C143.489 126.309 143.18 126.112 142.764 126.112C142.348 126.112 142.033 126.309 141.82 126.704C141.617 127.088 141.516 127.712 141.516 128.576C141.516 129.451 141.617 130.085 141.82 130.48C142.033 130.864 142.348 131.056 142.764 131.056Z" fill="#969EAC"/>
  <rect x="17.75" y="116" width="18" height="18" rx="2" fill="#29CFD6"/>
  <path d="M296.423 96.16C295.437 96.16 294.503 96 293.623 95.68C292.757 95.3467 292.003 94.8667 291.363 94.24L291.863 93.26C292.583 93.9 293.303 94.36 294.023 94.64C294.743 94.92 295.543 95.06 296.423 95.06C297.557 95.06 298.437 94.8133 299.063 94.32C299.703 93.8133 300.023 93.12 300.023 92.24C300.023 91.6933 299.87 91.2667 299.563 90.96C299.27 90.64 298.87 90.3867 298.363 90.2C297.87 90.0133 297.323 89.8533 296.723 89.72C296.137 89.5733 295.543 89.4133 294.943 89.24C294.343 89.0667 293.79 88.84 293.283 88.56C292.79 88.28 292.39 87.9067 292.083 87.44C291.79 86.9733 291.643 86.3667 291.643 85.62C291.643 84.8333 291.85 84.14 292.263 83.54C292.677 82.9267 293.25 82.4533 293.983 82.12C294.717 81.7733 295.55 81.6 296.483 81.6C297.083 81.6 297.663 81.6733 298.223 81.82C298.797 81.9667 299.33 82.18 299.823 82.46C300.33 82.7267 300.777 83.06 301.163 83.46L300.663 84.44C299.517 83.28 298.123 82.7 296.483 82.7C295.377 82.7 294.503 82.96 293.863 83.48C293.223 84 292.903 84.7067 292.903 85.6C292.903 86.2 293.05 86.6733 293.343 87.02C293.65 87.3667 294.057 87.6467 294.563 87.86C295.07 88.06 295.617 88.2333 296.203 88.38C296.803 88.5267 297.397 88.68 297.983 88.84C298.583 89 299.13 89.2133 299.623 89.48C300.13 89.7333 300.53 90.08 300.823 90.52C301.13 90.96 301.283 91.5267 301.283 92.22C301.283 93.0067 301.077 93.6933 300.663 94.28C300.25 94.8667 299.677 95.3267 298.943 95.66C298.21 95.9933 297.37 96.16 296.423 96.16ZM296.003 98.32V95.94L296.023 95.32V82.36L296.003 81.82V79.44H297.123V81.82L297.103 82.36V95.32L297.123 95.94V98.32H296.003ZM310.155 96V83.3H310.615L304.235 92.52L304.255 91.7H313.595V92.76H303.435V91.82L310.375 81.76H311.395V96H310.155ZM318.168 96H316.828L323.868 82.22L324.028 82.82H315.768V81.76H324.928V82.68L318.168 96ZM328.36 98.14L327.74 97.64C328.06 97.28 328.267 96.9533 328.36 96.66C328.453 96.38 328.5 96.0867 328.5 95.78L328.92 96H327.72V94.26H329.42V95.56C329.42 96.0267 329.34 96.4733 329.18 96.9C329.033 97.3267 328.76 97.74 328.36 98.14ZM336.773 96.16C335.173 96.16 333.96 95.5467 333.133 94.32C332.307 93.08 331.893 91.2667 331.893 88.88C331.893 86.48 332.3 84.6667 333.113 83.44C333.94 82.2133 335.16 81.6 336.773 81.6C338.387 81.6 339.6 82.2133 340.413 83.44C341.24 84.6667 341.653 86.4733 341.653 88.86C341.653 91.2467 341.24 93.06 340.413 94.3C339.587 95.54 338.373 96.16 336.773 96.16ZM336.773 95.06C338 95.06 338.907 94.56 339.493 93.56C340.093 92.5467 340.393 90.98 340.393 88.86C340.393 86.74 340.1 85.1867 339.513 84.2C338.927 83.2 338.013 82.7 336.773 82.7C335.547 82.7 334.633 83.2 334.033 84.2C333.447 85.2 333.153 86.7533 333.153 88.86C333.153 90.9667 333.447 92.5267 334.033 93.54C334.633 94.5533 335.547 95.06 336.773 95.06ZM348.766 96.16C347.166 96.16 345.952 95.5467 345.126 94.32C344.299 93.08 343.886 91.2667 343.886 88.88C343.886 86.48 344.292 84.6667 345.106 83.44C345.932 82.2133 347.152 81.6 348.766 81.6C350.379 81.6 351.592 82.2133 352.406 83.44C353.232 84.6667 353.646 86.4733 353.646 88.86C353.646 91.2467 353.232 93.06 352.406 94.3C351.579 95.54 350.366 96.16 348.766 96.16ZM348.766 95.06C349.992 95.06 350.899 94.56 351.486 93.56C352.086 92.5467 352.386 90.98 352.386 88.86C352.386 86.74 352.092 85.1867 351.506 84.2C350.919 83.2 350.006 82.7 348.766 82.7C347.539 82.7 346.626 83.2 346.026 84.2C345.439 85.2 345.146 86.7533 345.146 88.86C345.146 90.9667 345.439 92.5267 346.026 93.54C346.626 94.5533 347.539 95.06 348.766 95.06ZM360.758 96.16C359.158 96.16 357.944 95.5467 357.118 94.32C356.291 93.08 355.878 91.2667 355.878 88.88C355.878 86.48 356.284 84.6667 357.098 83.44C357.924 82.2133 359.144 81.6 360.758 81.6C362.371 81.6 363.584 82.2133 364.398 83.44C365.224 84.6667 365.638 86.4733 365.638 88.86C365.638 91.2467 365.224 93.06 364.398 94.3C363.571 95.54 362.358 96.16 360.758 96.16ZM360.758 95.06C361.984 95.06 362.891 94.56 363.478 93.56C364.078 92.5467 364.378 90.98 364.378 88.86C364.378 86.74 364.084 85.1867 363.498 84.2C362.911 83.2 361.998 82.7 360.758 82.7C359.531 82.7 358.618 83.2 358.018 84.2C357.431 85.2 357.138 86.7533 357.138 88.86C357.138 90.9667 357.431 92.5267 358.018 93.54C358.618 94.5533 359.531 95.06 360.758 95.06Z" fill="#969EAC"/>
  <path d="M59.126 96V84.608H60.342L64.886 94.96H64.246L68.758 84.608H69.958V96H68.614V86.624L69.11 86.688L65.062 96H64.038L59.926 86.688L60.47 86.624L60.486 96H59.126ZM75.4081 96.112C74.4375 96.112 73.7068 95.8453 73.2161 95.312C72.7361 94.768 72.4961 93.968 72.4961 92.912V87.952H73.9521V92.896C73.9521 93.5893 74.0908 94.1013 74.3681 94.432C74.6561 94.752 75.0935 94.912 75.6801 94.912C76.3628 94.912 76.9121 94.6933 77.3281 94.256C77.7441 93.808 77.9521 93.216 77.9521 92.48V87.952H79.4241V96H78.0001V94.272L78.1921 94.192C77.9788 94.8213 77.6215 95.3013 77.1201 95.632C76.6188 95.952 76.0481 96.112 75.4081 96.112ZM80.737 89.072V87.952H86.017V89.072H80.737ZM85.985 94.736V95.952C85.8037 96.0053 85.617 96.0427 85.425 96.064C85.2437 96.096 85.0463 96.112 84.833 96.112C84.0437 96.112 83.4197 95.888 82.961 95.44C82.513 94.992 82.289 94.3307 82.289 93.456V85.904L83.745 85.392V93.296C83.745 93.712 83.8037 94.0373 83.921 94.272C84.049 94.496 84.2143 94.656 84.417 94.752C84.6303 94.8373 84.8703 94.88 85.137 94.88C85.2863 94.88 85.425 94.8693 85.553 94.848C85.681 94.8267 85.825 94.7893 85.985 94.736ZM90.4238 96.112C89.4531 96.112 88.7224 95.8453 88.2318 95.312C87.7518 94.768 87.5118 93.968 87.5118 92.912V87.952H88.9678V92.896C88.9678 93.5893 89.1064 94.1013 89.3838 94.432C89.6718 94.752 90.1091 94.912 90.6958 94.912C91.3784 94.912 91.9278 94.6933 92.3438 94.256C92.7598 93.808 92.9678 93.216 92.9678 92.48V87.952H94.4398V96H93.0158V94.272L93.2078 94.192C92.9944 94.8213 92.6371 95.3013 92.1358 95.632C91.6344 95.952 91.0638 96.112 90.4238 96.112ZM99.9446 96.112C99.2406 96.112 98.6166 95.9467 98.0726 95.616C97.5393 95.2747 97.1233 94.7947 96.8246 94.176C96.526 93.5467 96.3766 92.8107 96.3766 91.968C96.3766 91.1253 96.526 90.3893 96.8246 89.76C97.134 89.1307 97.5553 88.64 98.0886 88.288C98.6326 87.9253 99.2513 87.744 99.9446 87.744C100.67 87.744 101.289 87.9253 101.801 88.288C102.313 88.64 102.659 89.1467 102.841 89.808L102.649 89.92V87.952H104.089V96H102.649V93.984L102.841 94.064C102.659 94.7147 102.313 95.2213 101.801 95.584C101.289 95.936 100.67 96.112 99.9446 96.112ZM100.265 94.928C101.033 94.928 101.619 94.672 102.025 94.16C102.441 93.6373 102.649 92.896 102.649 91.936C102.649 90.976 102.441 90.24 102.025 89.728C101.609 89.2053 101.022 88.944 100.265 88.944C99.5073 88.944 98.9153 89.2107 98.4886 89.744C98.062 90.2773 97.8486 91.0187 97.8486 91.968C97.8486 92.9173 98.062 93.648 98.4886 94.16C98.9153 94.672 99.5073 94.928 100.265 94.928ZM106.513 96V84.224H107.969V96H106.513ZM114.782 96V84.608H121.902V85.84H116.238V89.6H121.582V90.832H116.238V96H114.782ZM126.377 96.112C125.406 96.112 124.676 95.8453 124.185 95.312C123.705 94.768 123.465 93.968 123.465 92.912V87.952H124.921V92.896C124.921 93.5893 125.06 94.1013 125.337 94.432C125.625 94.752 126.062 94.912 126.649 94.912C127.332 94.912 127.881 94.6933 128.297 94.256C128.713 93.808 128.921 93.216 128.921 92.48V87.952H130.393V96H128.969V94.272L129.161 94.192C128.948 94.8213 128.59 95.3013 128.089 95.632C127.588 95.952 127.017 96.112 126.377 96.112ZM132.81 96V90.208C132.81 89.8347 132.799 89.4613 132.778 89.088C132.767 88.704 132.735 88.3253 132.682 87.952H134.058L134.202 89.6L134.042 89.696C134.276 89.0667 134.65 88.5867 135.162 88.256C135.684 87.9147 136.282 87.744 136.954 87.744C138.884 87.744 139.85 88.816 139.85 90.96V96H138.394V91.04C138.394 90.3147 138.25 89.7867 137.962 89.456C137.684 89.1147 137.236 88.944 136.618 88.944C135.903 88.944 135.332 89.168 134.906 89.616C134.479 90.0533 134.266 90.6453 134.266 91.392V96H132.81ZM149.464 96H148.024V93.872L148.216 94.064C148.034 94.7147 147.688 95.2213 147.176 95.584C146.664 95.936 146.045 96.112 145.32 96.112C144.626 96.112 144.008 95.9413 143.464 95.6C142.93 95.248 142.509 94.7573 142.2 94.128C141.901 93.488 141.752 92.7467 141.752 91.904C141.752 91.0613 141.901 90.3307 142.2 89.712C142.498 89.0827 142.914 88.5973 143.448 88.256C143.992 87.9147 144.616 87.744 145.32 87.744C146.045 87.744 146.664 87.9253 147.176 88.288C147.688 88.6507 148.034 89.152 148.216 89.792L148.008 89.984V84.224H149.464V96ZM145.64 94.928C146.397 94.928 146.984 94.672 147.4 94.16C147.816 93.6373 148.024 92.896 148.024 91.936C148.024 90.9867 147.816 90.2507 147.4 89.728C146.994 89.2053 146.408 88.944 145.64 88.944C144.882 88.944 144.29 89.2053 143.864 89.728C143.437 90.24 143.224 90.9653 143.224 91.904C143.224 92.864 143.437 93.6107 143.864 94.144C144.29 94.6667 144.882 94.928 145.64 94.928ZM154.656 96.112C153.28 96.112 152.187 95.7653 151.376 95.072L151.84 94.016C152.267 94.3467 152.709 94.592 153.168 94.752C153.637 94.9013 154.149 94.976 154.704 94.976C155.28 94.976 155.717 94.88 156.016 94.688C156.325 94.4853 156.48 94.1973 156.48 93.824C156.48 93.5253 156.373 93.2907 156.16 93.12C155.957 92.9387 155.616 92.7893 155.136 92.672L153.792 92.352C153.099 92.2027 152.565 91.936 152.192 91.552C151.829 91.168 151.648 90.704 151.648 90.16C151.648 89.6907 151.776 89.2747 152.032 88.912C152.299 88.5493 152.667 88.2667 153.136 88.064C153.605 87.8507 154.16 87.744 154.8 87.744C155.365 87.744 155.899 87.8347 156.4 88.016C156.912 88.1973 157.344 88.4587 157.696 88.8L157.232 89.84C156.848 89.52 156.453 89.2853 156.048 89.136C155.643 88.976 155.221 88.896 154.784 88.896C154.24 88.896 153.813 89.0027 153.504 89.216C153.205 89.4293 153.056 89.7173 153.056 90.08C153.056 90.3893 153.152 90.6347 153.344 90.816C153.536 90.9973 153.84 91.1413 154.256 91.248L155.616 91.584C156.384 91.744 156.949 92.0107 157.312 92.384C157.675 92.7467 157.856 93.216 157.856 93.792C157.856 94.496 157.568 95.0613 156.992 95.488C156.416 95.904 155.637 96.112 154.656 96.112ZM163.996 92.288V91.104H168.588V92.288H163.996ZM171.014 96V94.88L174.982 90.528C175.494 89.952 175.868 89.4347 176.102 88.976C176.348 88.5067 176.47 88.0373 176.47 87.568C176.47 86.9707 176.294 86.512 175.942 86.192C175.59 85.8613 175.094 85.696 174.454 85.696C173.91 85.696 173.372 85.808 172.838 86.032C172.305 86.2453 171.777 86.5653 171.254 86.992L170.71 85.872C171.158 85.4453 171.724 85.1093 172.406 84.864C173.1 84.608 173.793 84.48 174.486 84.48C175.201 84.48 175.814 84.6027 176.326 84.848C176.838 85.0827 177.238 85.4293 177.526 85.888C177.814 86.336 177.958 86.8693 177.958 87.488C177.958 88.1387 177.809 88.7627 177.51 89.36C177.222 89.9573 176.742 90.6293 176.07 91.376L172.31 95.424L172.182 94.768H178.422V96H171.014ZM184.128 96.128C182.816 96.128 181.819 95.6373 181.136 94.656C180.453 93.664 180.112 92.2133 180.112 90.304C180.112 88.3947 180.448 86.9493 181.12 85.968C181.803 84.976 182.805 84.48 184.128 84.48C185.451 84.48 186.448 84.976 187.12 85.968C187.803 86.9493 188.144 88.3893 188.144 90.288C188.144 92.1973 187.803 93.648 187.12 94.64C186.437 95.632 185.44 96.128 184.128 96.128ZM184.128 94.912C184.992 94.912 185.627 94.5387 186.032 93.792C186.448 93.0453 186.656 91.8773 186.656 90.288C186.656 88.6987 186.448 87.5413 186.032 86.816C185.627 86.08 184.992 85.712 184.128 85.712C183.264 85.712 182.624 86.08 182.208 86.816C181.803 87.552 181.6 88.7093 181.6 90.288C181.6 91.8773 181.803 93.0453 182.208 93.792C182.624 94.5387 183.264 94.912 184.128 94.912ZM191.962 91.504C191.173 91.504 190.549 91.216 190.09 90.64C189.631 90.064 189.402 89.1893 189.402 88.016C189.402 86.832 189.631 85.9573 190.09 85.392C190.549 84.8267 191.173 84.544 191.962 84.544C192.751 84.544 193.37 84.8267 193.818 85.392C194.277 85.9573 194.506 86.832 194.506 88.016C194.506 89.1893 194.277 90.064 193.818 90.64C193.37 91.216 192.751 91.504 191.962 91.504ZM191.962 90.496C192.378 90.496 192.687 90.304 192.89 89.92C193.103 89.5253 193.21 88.8907 193.21 88.016C193.21 87.152 193.103 86.528 192.89 86.144C192.687 85.7493 192.378 85.552 191.962 85.552C191.546 85.552 191.231 85.7493 191.018 86.144C190.815 86.528 190.714 87.152 190.714 88.016C190.714 88.8907 190.815 89.5253 191.018 89.92C191.231 90.304 191.546 90.496 191.962 90.496ZM191.738 96L198.33 84.608H199.722L193.146 96H191.738ZM199.498 96.064C198.709 96.064 198.085 95.776 197.626 95.2C197.167 94.624 196.938 93.7493 196.938 92.576C196.938 91.392 197.167 90.5173 197.626 89.952C198.085 89.3867 198.709 89.104 199.498 89.104C200.287 89.104 200.906 89.3867 201.354 89.952C201.813 90.5173 202.042 91.392 202.042 92.576C202.042 93.7493 201.813 94.624 201.354 95.2C200.906 95.776 200.287 96.064 199.498 96.064ZM199.498 95.056C199.914 95.056 200.223 94.864 200.426 94.48C200.639 94.0853 200.746 93.4507 200.746 92.576C200.746 91.712 200.639 91.088 200.426 90.704C200.223 90.3093 199.914 90.112 199.498 90.112C199.082 90.112 198.767 90.3093 198.554 90.704C198.351 91.088 198.25 91.712 198.25 92.576C198.25 93.4507 198.351 94.0853 198.554 94.48C198.767 94.864 199.082 95.056 199.498 95.056Z" fill="#969EAC"/>
  <rect x="17.75" y="80" width="18" height="18" rx="2" fill="#FFBC02"/>
  <path d="M296.423 60.16C295.437 60.16 294.503 60 293.623 59.68C292.757 59.3467 292.003 58.8667 291.363 58.24L291.863 57.26C292.583 57.9 293.303 58.36 294.023 58.64C294.743 58.92 295.543 59.06 296.423 59.06C297.557 59.06 298.437 58.8133 299.063 58.32C299.703 57.8133 300.023 57.12 300.023 56.24C300.023 55.6933 299.87 55.2667 299.563 54.96C299.27 54.64 298.87 54.3867 298.363 54.2C297.87 54.0133 297.323 53.8533 296.723 53.72C296.137 53.5733 295.543 53.4133 294.943 53.24C294.343 53.0667 293.79 52.84 293.283 52.56C292.79 52.28 292.39 51.9067 292.083 51.44C291.79 50.9733 291.643 50.3667 291.643 49.62C291.643 48.8333 291.85 48.14 292.263 47.54C292.677 46.9267 293.25 46.4533 293.983 46.12C294.717 45.7733 295.55 45.6 296.483 45.6C297.083 45.6 297.663 45.6733 298.223 45.82C298.797 45.9667 299.33 46.18 299.823 46.46C300.33 46.7267 300.777 47.06 301.163 47.46L300.663 48.44C299.517 47.28 298.123 46.7 296.483 46.7C295.377 46.7 294.503 46.96 293.863 47.48C293.223 48 292.903 48.7067 292.903 49.6C292.903 50.2 293.05 50.6733 293.343 51.02C293.65 51.3667 294.057 51.6467 294.563 51.86C295.07 52.06 295.617 52.2333 296.203 52.38C296.803 52.5267 297.397 52.68 297.983 52.84C298.583 53 299.13 53.2133 299.623 53.48C300.13 53.7333 300.53 54.08 300.823 54.52C301.13 54.96 301.283 55.5267 301.283 56.22C301.283 57.0067 301.077 57.6933 300.663 58.28C300.25 58.8667 299.677 59.3267 298.943 59.66C298.21 59.9933 297.37 60.16 296.423 60.16ZM296.003 62.32V59.94L296.023 59.32V46.36L296.003 45.82V43.44H297.123V45.82L297.103 46.36V59.32L297.123 59.94V62.32H296.003ZM308.675 60.14C307.822 60.14 306.982 59.98 306.155 59.66C305.329 59.34 304.622 58.8933 304.035 58.32L304.555 57.34C305.209 57.9 305.875 58.3267 306.555 58.62C307.235 58.9133 307.942 59.06 308.675 59.06C309.715 59.06 310.535 58.7533 311.135 58.14C311.749 57.5133 312.055 56.68 312.055 55.64C312.055 54.9733 311.922 54.3867 311.655 53.88C311.389 53.36 311.009 52.96 310.515 52.68C310.035 52.3867 309.462 52.24 308.795 52.24C308.049 52.24 307.395 52.3933 306.835 52.7C306.275 52.9933 305.789 53.4533 305.375 54.08H304.415V45.76H312.775V46.82H305.655V53.08L305.255 53.02C305.629 52.4333 306.129 51.9733 306.755 51.64C307.382 51.3067 308.089 51.14 308.875 51.14C309.795 51.14 310.582 51.3333 311.235 51.72C311.902 52.0933 312.409 52.62 312.755 53.3C313.115 53.98 313.295 54.76 313.295 55.64C313.295 56.52 313.109 57.3 312.735 57.98C312.362 58.66 311.829 59.1933 311.135 59.58C310.442 59.9533 309.622 60.14 308.675 60.14ZM320.348 60.14C319.321 60.14 318.434 59.9867 317.688 59.68C316.941 59.36 316.361 58.9133 315.948 58.34C315.548 57.7533 315.348 57.06 315.348 56.26C315.348 55.2733 315.681 54.4533 316.348 53.8C317.028 53.1333 317.928 52.72 319.048 52.56L318.928 52.84C317.874 52.64 317.068 52.2333 316.508 51.62C315.948 50.9933 315.668 50.24 315.668 49.36C315.668 48.6 315.861 47.94 316.248 47.38C316.648 46.82 317.194 46.3867 317.888 46.08C318.594 45.76 319.414 45.6 320.348 45.6C321.281 45.6 322.094 45.76 322.788 46.08C323.494 46.3867 324.041 46.82 324.428 47.38C324.828 47.94 325.028 48.6 325.028 49.36C325.028 50.24 324.748 50.9933 324.188 51.62C323.628 52.2333 322.828 52.64 321.788 52.84L321.648 52.56C322.821 52.7067 323.728 53.1133 324.368 53.78C325.021 54.4467 325.348 55.2733 325.348 56.26C325.348 57.06 325.141 57.7533 324.728 58.34C324.328 58.9133 323.754 59.36 323.008 59.68C322.261 59.9867 321.374 60.14 320.348 60.14ZM320.348 59.06C321.561 59.06 322.488 58.82 323.128 58.34C323.768 57.8467 324.088 57.1333 324.088 56.2C324.088 55.32 323.734 54.6333 323.028 54.14C322.334 53.6467 321.441 53.3467 320.348 53.24C319.254 53.3467 318.354 53.6467 317.648 54.14C316.954 54.6333 316.608 55.32 316.608 56.2C316.608 57.1333 316.928 57.8467 317.568 58.34C318.208 58.82 319.134 59.06 320.348 59.06ZM320.348 52.32C321.374 52.2267 322.201 51.9267 322.828 51.42C323.454 50.9133 323.768 50.2467 323.768 49.42C323.768 48.5667 323.468 47.9 322.868 47.42C322.268 46.9267 321.428 46.68 320.348 46.68C319.268 46.68 318.428 46.9267 317.828 47.42C317.228 47.9 316.928 48.5667 316.928 49.42C316.928 50.2467 317.241 50.9133 317.868 51.42C318.494 51.9267 319.321 52.2267 320.348 52.32ZM328.36 62.14L327.74 61.64C328.06 61.28 328.267 60.9533 328.36 60.66C328.453 60.38 328.5 60.0867 328.5 59.78L328.92 60H327.72V58.26H329.42V59.56C329.42 60.0267 329.34 60.4733 329.18 60.9C329.033 61.3267 328.76 61.74 328.36 62.14ZM334.593 60H333.253L340.293 46.22L340.453 46.82H332.193V45.76H341.353V46.68L334.593 60ZM349.086 60.14C348.232 60.14 347.392 59.98 346.566 59.66C345.739 59.34 345.032 58.8933 344.446 58.32L344.966 57.34C345.619 57.9 346.286 58.3267 346.966 58.62C347.646 58.9133 348.352 59.06 349.086 59.06C350.126 59.06 350.946 58.7533 351.546 58.14C352.159 57.5133 352.466 56.68 352.466 55.64C352.466 54.9733 352.332 54.3867 352.066 53.88C351.799 53.36 351.419 52.96 350.926 52.68C350.446 52.3867 349.872 52.24 349.206 52.24C348.459 52.24 347.806 52.3933 347.246 52.7C346.686 52.9933 346.199 53.4533 345.786 54.08H344.826V45.76H353.186V46.82H346.066V53.08L345.666 53.02C346.039 52.4333 346.539 51.9733 347.166 51.64C347.792 51.3067 348.499 51.14 349.286 51.14C350.206 51.14 350.992 51.3333 351.646 51.72C352.312 52.0933 352.819 52.62 353.166 53.3C353.526 53.98 353.706 54.76 353.706 55.64C353.706 56.52 353.519 57.3 353.146 57.98C352.772 58.66 352.239 59.1933 351.546 59.58C350.852 59.9533 350.032 60.14 349.086 60.14ZM360.758 60.16C359.158 60.16 357.944 59.5467 357.118 58.32C356.291 57.08 355.878 55.2667 355.878 52.88C355.878 50.48 356.284 48.6667 357.098 47.44C357.924 46.2133 359.144 45.6 360.758 45.6C362.371 45.6 363.584 46.2133 364.398 47.44C365.224 48.6667 365.638 50.4733 365.638 52.86C365.638 55.2467 365.224 57.06 364.398 58.3C363.571 59.54 362.358 60.16 360.758 60.16ZM360.758 59.06C361.984 59.06 362.891 58.56 363.478 57.56C364.078 56.5467 364.378 54.98 364.378 52.86C364.378 50.74 364.084 49.1867 363.498 48.2C362.911 47.2 361.998 46.7 360.758 46.7C359.531 46.7 358.618 47.2 358.018 48.2C357.431 49.2 357.138 50.7533 357.138 52.86C357.138 54.9667 357.431 56.5267 358.018 57.54C358.618 58.5533 359.531 59.06 360.758 59.06Z" fill="#969EAC"/>
  <path d="M59.126 60V48.608H63.798C64.95 48.608 65.8513 48.8693 66.502 49.392C67.1633 49.904 67.494 50.6347 67.494 51.584C67.494 52.2453 67.3127 52.8053 66.95 53.264C66.598 53.712 66.1073 54.032 65.478 54.224V54.096C66.1927 54.2347 66.7527 54.5493 67.158 55.04C67.5633 55.5307 67.766 56.1493 67.766 56.896C67.766 57.888 67.43 58.656 66.758 59.2C66.0967 59.7333 65.158 60 63.942 60H59.126ZM60.582 58.8H63.814C64.678 58.8 65.3127 58.64 65.718 58.32C66.1233 58 66.326 57.504 66.326 56.832C66.326 56.16 66.118 55.6587 65.702 55.328C65.2967 54.9973 64.6673 54.832 63.814 54.832H60.582V58.8ZM60.582 53.6H63.558C64.39 53.6 65.014 53.44 65.43 53.12C65.846 52.8 66.054 52.32 66.054 51.68C66.054 51.0613 65.846 50.5973 65.43 50.288C65.0247 49.968 64.4007 49.808 63.558 49.808H60.582V53.6ZM73.2799 60.112C72.5012 60.112 71.8185 59.9413 71.2319 59.6C70.6559 59.2587 70.2079 58.7787 69.8879 58.16C69.5679 57.5307 69.4079 56.7893 69.4079 55.936C69.4079 55.0933 69.5679 54.3573 69.8879 53.728C70.2079 53.088 70.6559 52.5973 71.2319 52.256C71.8185 51.9147 72.5012 51.744 73.2799 51.744C74.0692 51.744 74.7519 51.9147 75.3279 52.256C75.9039 52.5973 76.3519 53.088 76.6719 53.728C76.9919 54.3573 77.1519 55.0933 77.1519 55.936C77.1519 56.7893 76.9919 57.5307 76.6719 58.16C76.3519 58.7787 75.9039 59.2587 75.3279 59.6C74.7519 59.9413 74.0692 60.112 73.2799 60.112ZM73.2799 58.928C74.0479 58.928 74.6399 58.6773 75.0559 58.176C75.4719 57.664 75.6799 56.9173 75.6799 55.936C75.6799 54.9653 75.4665 54.224 75.0399 53.712C74.6239 53.2 74.0372 52.944 73.2799 52.944C72.5332 52.944 71.9465 53.2 71.5199 53.712C71.0932 54.224 70.8799 54.9653 70.8799 55.936C70.8799 56.9173 71.0879 57.664 71.5039 58.176C71.9199 58.6773 72.5119 58.928 73.2799 58.928ZM79.1223 60V54.208C79.1223 53.8347 79.1116 53.4613 79.0903 53.088C79.0796 52.704 79.0476 52.3253 78.9943 51.952H80.3703L80.5143 53.6L80.3543 53.696C80.5889 53.0667 80.9623 52.5867 81.4743 52.256C81.9969 51.9147 82.5943 51.744 83.2663 51.744C85.1969 51.744 86.1623 52.816 86.1623 54.96V60H84.7063V55.04C84.7063 54.3147 84.5623 53.7867 84.2743 53.456C83.9969 53.1147 83.5489 52.944 82.9303 52.944C82.2156 52.944 81.6449 53.168 81.2183 53.616C80.7916 54.0533 80.5783 54.6453 80.5783 55.392V60H79.1223ZM95.7761 60H94.3361V57.872L94.5281 58.064C94.3468 58.7147 94.0001 59.2213 93.4881 59.584C92.9761 59.936 92.3575 60.112 91.6321 60.112C90.9388 60.112 90.3201 59.9413 89.7761 59.6C89.2428 59.248 88.8215 58.7573 88.5121 58.128C88.2135 57.488 88.0641 56.7467 88.0641 55.904C88.0641 55.0613 88.2135 54.3307 88.5121 53.712C88.8108 53.0827 89.2268 52.5973 89.7601 52.256C90.3041 51.9147 90.9281 51.744 91.6321 51.744C92.3575 51.744 92.9761 51.9253 93.4881 52.288C94.0001 52.6507 94.3468 53.152 94.5281 53.792L94.3201 53.984V48.224H95.7761V60ZM91.9521 58.928C92.7095 58.928 93.2961 58.672 93.7121 58.16C94.1281 57.6373 94.3361 56.896 94.3361 55.936C94.3361 54.9867 94.1281 54.2507 93.7121 53.728C93.3068 53.2053 92.7201 52.944 91.9521 52.944C91.1948 52.944 90.6028 53.2053 90.1761 53.728C89.7495 54.24 89.5361 54.9653 89.5361 55.904C89.5361 56.864 89.7495 57.6107 90.1761 58.144C90.6028 58.6667 91.1948 58.928 91.9521 58.928ZM100.968 60.112C99.5924 60.112 98.499 59.7653 97.6884 59.072L98.1524 58.016C98.579 58.3467 99.0217 58.592 99.4804 58.752C99.9497 58.9013 100.462 58.976 101.016 58.976C101.592 58.976 102.03 58.88 102.328 58.688C102.638 58.4853 102.792 58.1973 102.792 57.824C102.792 57.5253 102.686 57.2907 102.472 57.12C102.27 56.9387 101.928 56.7893 101.448 56.672L100.104 56.352C99.411 56.2027 98.8777 55.936 98.5044 55.552C98.1417 55.168 97.9604 54.704 97.9604 54.16C97.9604 53.6907 98.0884 53.2747 98.3444 52.912C98.611 52.5493 98.979 52.2667 99.4484 52.064C99.9177 51.8507 100.472 51.744 101.112 51.744C101.678 51.744 102.211 51.8347 102.712 52.016C103.224 52.1973 103.656 52.4587 104.008 52.8L103.544 53.84C103.16 53.52 102.766 53.2853 102.36 53.136C101.955 52.976 101.534 52.896 101.096 52.896C100.552 52.896 100.126 53.0027 99.8164 53.216C99.5177 53.4293 99.3684 53.7173 99.3684 54.08C99.3684 54.3893 99.4644 54.6347 99.6564 54.816C99.8484 54.9973 100.152 55.1413 100.568 55.248L101.928 55.584C102.696 55.744 103.262 56.0107 103.624 56.384C103.987 56.7467 104.168 57.216 104.168 57.792C104.168 58.496 103.88 59.0613 103.304 59.488C102.728 59.904 101.95 60.112 100.968 60.112ZM110.308 56.288V55.104H114.9V56.288H110.308ZM117.327 60V58.88L121.295 54.528C121.807 53.952 122.18 53.4347 122.415 52.976C122.66 52.5067 122.783 52.0373 122.783 51.568C122.783 50.9707 122.607 50.512 122.255 50.192C121.903 49.8613 121.407 49.696 120.767 49.696C120.223 49.696 119.684 49.808 119.151 50.032C118.618 50.2453 118.09 50.5653 117.567 50.992L117.023 49.872C117.471 49.4453 118.036 49.1093 118.719 48.864C119.412 48.608 120.106 48.48 120.799 48.48C121.514 48.48 122.127 48.6027 122.639 48.848C123.151 49.0827 123.551 49.4293 123.839 49.888C124.127 50.336 124.271 50.8693 124.271 51.488C124.271 52.1387 124.122 52.7627 123.823 53.36C123.535 53.9573 123.055 54.6293 122.383 55.376L118.623 59.424L118.495 58.768H124.735V60H117.327ZM130.585 60.112C129.881 60.112 129.187 59.9893 128.505 59.744C127.833 59.4987 127.267 59.1573 126.809 58.72L127.353 57.6C127.875 58.0267 128.403 58.352 128.937 58.576C129.47 58.7893 130.019 58.896 130.585 58.896C131.363 58.896 131.971 58.6827 132.409 58.256C132.846 57.8187 133.065 57.2213 133.065 56.464C133.065 55.984 132.963 55.5627 132.761 55.2C132.569 54.8373 132.291 54.5547 131.929 54.352C131.577 54.1387 131.161 54.032 130.681 54.032C130.158 54.032 129.683 54.1387 129.257 54.352C128.83 54.5547 128.457 54.864 128.137 55.28H127.145V48.608H134.041V49.808H128.617V54.224L128.153 54.176C128.462 53.7387 128.857 53.4027 129.337 53.168C129.817 52.9333 130.355 52.816 130.953 52.816C131.678 52.816 132.307 52.9707 132.841 53.28C133.374 53.5787 133.785 54 134.073 54.544C134.361 55.088 134.505 55.7173 134.505 56.432C134.505 57.1573 134.345 57.7973 134.025 58.352C133.705 58.9067 133.251 59.3387 132.665 59.648C132.078 59.9573 131.385 60.112 130.585 60.112ZM138.274 55.504C137.485 55.504 136.861 55.216 136.402 54.64C135.944 54.064 135.714 53.1893 135.714 52.016C135.714 50.832 135.944 49.9573 136.402 49.392C136.861 48.8267 137.485 48.544 138.274 48.544C139.064 48.544 139.682 48.8267 140.13 49.392C140.589 49.9573 140.818 50.832 140.818 52.016C140.818 53.1893 140.589 54.064 140.13 54.64C139.682 55.216 139.064 55.504 138.274 55.504ZM138.274 54.496C138.69 54.496 139 54.304 139.202 53.92C139.416 53.5253 139.522 52.8907 139.522 52.016C139.522 51.152 139.416 50.528 139.202 50.144C139 49.7493 138.69 49.552 138.274 49.552C137.858 49.552 137.544 49.7493 137.33 50.144C137.128 50.528 137.026 51.152 137.026 52.016C137.026 52.8907 137.128 53.5253 137.33 53.92C137.544 54.304 137.858 54.496 138.274 54.496ZM138.05 60L144.642 48.608H146.034L139.458 60H138.05ZM145.81 60.064C145.021 60.064 144.397 59.776 143.938 59.2C143.48 58.624 143.25 57.7493 143.25 56.576C143.25 55.392 143.48 54.5173 143.938 53.952C144.397 53.3867 145.021 53.104 145.81 53.104C146.6 53.104 147.218 53.3867 147.666 53.952C148.125 54.5173 148.354 55.392 148.354 56.576C148.354 57.7493 148.125 58.624 147.666 59.2C147.218 59.776 146.6 60.064 145.81 60.064ZM145.81 59.056C146.226 59.056 146.536 58.864 146.738 58.48C146.952 58.0853 147.058 57.4507 147.058 56.576C147.058 55.712 146.952 55.088 146.738 54.704C146.536 54.3093 146.226 54.112 145.81 54.112C145.394 54.112 145.08 54.3093 144.866 54.704C144.664 55.088 144.562 55.712 144.562 56.576C144.562 57.4507 144.664 58.0853 144.866 58.48C145.08 58.864 145.394 59.056 145.81 59.056Z" fill="#969EAC"/>
  <rect x="17.75" y="44" width="18" height="18" rx="2" fill="#1F32AD"/>
  <path d="M296.423 24.16C295.437 24.16 294.503 24 293.623 23.68C292.757 23.3467 292.003 22.8667 291.363 22.24L291.863 21.26C292.583 21.9 293.303 22.36 294.023 22.64C294.743 22.92 295.543 23.06 296.423 23.06C297.557 23.06 298.437 22.8133 299.063 22.32C299.703 21.8133 300.023 21.12 300.023 20.24C300.023 19.6933 299.87 19.2667 299.563 18.96C299.27 18.64 298.87 18.3867 298.363 18.2C297.87 18.0133 297.323 17.8533 296.723 17.72C296.137 17.5733 295.543 17.4133 294.943 17.24C294.343 17.0667 293.79 16.84 293.283 16.56C292.79 16.28 292.39 15.9067 292.083 15.44C291.79 14.9733 291.643 14.3667 291.643 13.62C291.643 12.8333 291.85 12.14 292.263 11.54C292.677 10.9267 293.25 10.4533 293.983 10.12C294.717 9.77333 295.55 9.6 296.483 9.6C297.083 9.6 297.663 9.67333 298.223 9.82C298.797 9.96667 299.33 10.18 299.823 10.46C300.33 10.7267 300.777 11.06 301.163 11.46L300.663 12.44C299.517 11.28 298.123 10.7 296.483 10.7C295.377 10.7 294.503 10.96 293.863 11.48C293.223 12 292.903 12.7067 292.903 13.6C292.903 14.2 293.05 14.6733 293.343 15.02C293.65 15.3667 294.057 15.6467 294.563 15.86C295.07 16.06 295.617 16.2333 296.203 16.38C296.803 16.5267 297.397 16.68 297.983 16.84C298.583 17 299.13 17.2133 299.623 17.48C300.13 17.7333 300.53 18.08 300.823 18.52C301.13 18.96 301.283 19.5267 301.283 20.22C301.283 21.0067 301.077 21.6933 300.663 22.28C300.25 22.8667 299.677 23.3267 298.943 23.66C298.21 23.9933 297.37 24.16 296.423 24.16ZM296.003 26.32V23.94L296.023 23.32V10.36L296.003 9.82V7.44H297.123V9.82L297.103 10.36V23.32L297.123 23.94V26.32H296.003ZM306.175 24H304.835L311.875 10.22L312.035 10.82H303.775V9.76H312.935V10.68L306.175 24ZM320.348 24.16C318.748 24.16 317.534 23.5467 316.708 22.32C315.881 21.08 315.468 19.2667 315.468 16.88C315.468 14.48 315.874 12.6667 316.688 11.44C317.514 10.2133 318.734 9.6 320.348 9.6C321.961 9.6 323.174 10.2133 323.988 11.44C324.814 12.6667 325.228 14.4733 325.228 16.86C325.228 19.2467 324.814 21.06 323.988 22.3C323.161 23.54 321.948 24.16 320.348 24.16ZM320.348 23.06C321.574 23.06 322.481 22.56 323.068 21.56C323.668 20.5467 323.968 18.98 323.968 16.86C323.968 14.74 323.674 13.1867 323.088 12.2C322.501 11.2 321.588 10.7 320.348 10.7C319.121 10.7 318.208 11.2 317.608 12.2C317.021 13.2 316.728 14.7533 316.728 16.86C316.728 18.9667 317.021 20.5267 317.608 21.54C318.208 22.5533 319.121 23.06 320.348 23.06ZM328.36 26.14L327.74 25.64C328.06 25.28 328.267 24.9533 328.36 24.66C328.453 24.38 328.5 24.0867 328.5 23.78L328.92 24H327.72V22.26H329.42V23.56C329.42 24.0267 329.34 24.4733 329.18 24.9C329.033 25.3267 328.76 25.74 328.36 26.14ZM337.093 24.14C336.24 24.14 335.4 23.98 334.573 23.66C333.747 23.34 333.04 22.8933 332.453 22.32L332.973 21.34C333.627 21.9 334.293 22.3267 334.973 22.62C335.653 22.9133 336.36 23.06 337.093 23.06C338.133 23.06 338.953 22.7533 339.553 22.14C340.167 21.5133 340.473 20.68 340.473 19.64C340.473 18.9733 340.34 18.3867 340.073 17.88C339.807 17.36 339.427 16.96 338.933 16.68C338.453 16.3867 337.88 16.24 337.213 16.24C336.467 16.24 335.813 16.3933 335.253 16.7C334.693 16.9933 334.207 17.4533 333.793 18.08H332.833V9.76H341.193V10.82H334.073V17.08L333.673 17.02C334.047 16.4333 334.547 15.9733 335.173 15.64C335.8 15.3067 336.507 15.14 337.293 15.14C338.213 15.14 339 15.3333 339.653 15.72C340.32 16.0933 340.827 16.62 341.173 17.3C341.533 17.98 341.713 18.76 341.713 19.64C341.713 20.52 341.527 21.3 341.153 21.98C340.78 22.66 340.247 23.1933 339.553 23.58C338.86 23.9533 338.04 24.14 337.093 24.14ZM348.766 24.16C347.166 24.16 345.952 23.5467 345.126 22.32C344.299 21.08 343.886 19.2667 343.886 16.88C343.886 14.48 344.292 12.6667 345.106 11.44C345.932 10.2133 347.152 9.6 348.766 9.6C350.379 9.6 351.592 10.2133 352.406 11.44C353.232 12.6667 353.646 14.4733 353.646 16.86C353.646 19.2467 353.232 21.06 352.406 22.3C351.579 23.54 350.366 24.16 348.766 24.16ZM348.766 23.06C349.992 23.06 350.899 22.56 351.486 21.56C352.086 20.5467 352.386 18.98 352.386 16.86C352.386 14.74 352.092 13.1867 351.506 12.2C350.919 11.2 350.006 10.7 348.766 10.7C347.539 10.7 346.626 11.2 346.026 12.2C345.439 13.2 345.146 14.7533 345.146 16.86C345.146 18.9667 345.439 20.5267 346.026 21.54C346.626 22.5533 347.539 23.06 348.766 23.06ZM360.758 24.16C359.158 24.16 357.944 23.5467 357.118 22.32C356.291 21.08 355.878 19.2667 355.878 16.88C355.878 14.48 356.284 12.6667 357.098 11.44C357.924 10.2133 359.144 9.6 360.758 9.6C362.371 9.6 363.584 10.2133 364.398 11.44C365.224 12.6667 365.638 14.4733 365.638 16.86C365.638 19.2467 365.224 21.06 364.398 22.3C363.571 23.54 362.358 24.16 360.758 24.16ZM360.758 23.06C361.984 23.06 362.891 22.56 363.478 21.56C364.078 20.5467 364.378 18.98 364.378 16.86C364.378 14.74 364.084 13.1867 363.498 12.2C362.911 11.2 361.998 10.7 360.758 10.7C359.531 10.7 358.618 11.2 358.018 12.2C357.431 13.2 357.138 14.7533 357.138 16.86C357.138 18.9667 357.431 20.5267 358.018 21.54C358.618 22.5533 359.531 23.06 360.758 23.06Z" fill="#10C273"/>
  <path d="M62.79 24.128C62.2033 24.128 61.6487 24.08 61.126 23.984C60.614 23.8773 60.134 23.7173 59.686 23.504C59.2487 23.2907 58.854 23.024 58.502 22.704L59.046 21.584C59.6113 22.0533 60.1873 22.3893 60.774 22.592C61.3607 22.7947 62.038 22.896 62.806 22.896C63.6913 22.896 64.374 22.7253 64.854 22.384C65.334 22.0427 65.574 21.5627 65.574 20.944C65.574 20.5707 65.4567 20.272 65.222 20.048C64.9873 19.8133 64.6567 19.6267 64.23 19.488C63.814 19.3387 63.334 19.2 62.79 19.072C62.214 18.9547 61.6753 18.816 61.174 18.656C60.6833 18.496 60.2513 18.2987 59.878 18.064C59.5047 17.8187 59.2167 17.5147 59.014 17.152C58.8113 16.7893 58.71 16.3413 58.71 15.808C58.71 15.1573 58.8807 14.5813 59.222 14.08C59.574 13.5787 60.0647 13.1893 60.694 12.912C61.3233 12.624 62.0647 12.48 62.918 12.48C63.4407 12.48 63.942 12.5387 64.422 12.656C64.9127 12.7627 65.366 12.9227 65.782 13.136C66.198 13.3387 66.5607 13.5947 66.87 13.904L66.326 15.024C65.8033 14.576 65.2647 14.2453 64.71 14.032C64.1553 13.8187 63.558 13.712 62.918 13.712C62.0647 13.712 61.3927 13.8933 60.902 14.256C60.422 14.608 60.182 15.104 60.182 15.744C60.182 16.1387 60.2887 16.4587 60.502 16.704C60.7153 16.9493 61.0193 17.1467 61.414 17.296C61.8087 17.4453 62.278 17.584 62.822 17.712C63.398 17.84 63.942 17.984 64.454 18.144C64.966 18.304 65.414 18.496 65.798 18.72C66.1927 18.944 66.502 19.232 66.726 19.584C66.95 19.9253 67.062 20.3573 67.062 20.88C67.062 21.5413 66.8913 22.1173 66.55 22.608C66.2087 23.088 65.718 23.4613 65.078 23.728C64.438 23.9947 63.6753 24.128 62.79 24.128ZM67.8464 17.072V15.952H73.1264V17.072H67.8464ZM73.0944 22.736V23.952C72.913 24.0053 72.7264 24.0427 72.5344 24.064C72.353 24.096 72.1557 24.112 71.9424 24.112C71.153 24.112 70.529 23.888 70.0704 23.44C69.6224 22.992 69.3984 22.3307 69.3984 21.456V13.904L70.8544 13.392V21.296C70.8544 21.712 70.913 22.0373 71.0304 22.272C71.1584 22.496 71.3237 22.656 71.5264 22.752C71.7397 22.8373 71.9797 22.88 72.2464 22.88C72.3957 22.88 72.5344 22.8693 72.6624 22.848C72.7904 22.8267 72.9344 22.7893 73.0944 22.736ZM78.0611 24.112C77.2825 24.112 76.5998 23.9413 76.0131 23.6C75.4371 23.2587 74.9891 22.7787 74.6691 22.16C74.3491 21.5307 74.1891 20.7893 74.1891 19.936C74.1891 19.0933 74.3491 18.3573 74.6691 17.728C74.9891 17.088 75.4371 16.5973 76.0131 16.256C76.5998 15.9147 77.2825 15.744 78.0611 15.744C78.8505 15.744 79.5331 15.9147 80.1091 16.256C80.6851 16.5973 81.1331 17.088 81.4531 17.728C81.7731 18.3573 81.9331 19.0933 81.9331 19.936C81.9331 20.7893 81.7731 21.5307 81.4531 22.16C81.1331 22.7787 80.6851 23.2587 80.1091 23.6C79.5331 23.9413 78.8505 24.112 78.0611 24.112ZM78.0611 22.928C78.8291 22.928 79.4211 22.6773 79.8371 22.176C80.2531 21.664 80.4611 20.9173 80.4611 19.936C80.4611 18.9653 80.2478 18.224 79.8211 17.712C79.4051 17.2 78.8185 16.944 78.0611 16.944C77.3145 16.944 76.7278 17.2 76.3011 17.712C75.8745 18.224 75.6611 18.9653 75.6611 19.936C75.6611 20.9173 75.8691 21.664 76.2851 22.176C76.7011 22.6773 77.2931 22.928 78.0611 22.928ZM87.3435 24.112C86.5328 24.112 85.8342 23.9413 85.2475 23.6C84.6715 23.2587 84.2235 22.7787 83.9035 22.16C83.5835 21.5413 83.4235 20.8107 83.4235 19.968C83.4235 19.136 83.5835 18.4 83.9035 17.76C84.2342 17.12 84.6982 16.624 85.2955 16.272C85.8928 15.92 86.5968 15.744 87.4075 15.744C87.9622 15.744 88.4955 15.84 89.0075 16.032C89.5195 16.2133 89.9408 16.4693 90.2715 16.8L89.8075 17.856C89.4235 17.5573 89.0395 17.3333 88.6555 17.184C88.2822 17.024 87.8928 16.944 87.4875 16.944C86.7088 16.944 86.0848 17.2053 85.6155 17.728C85.1568 18.2507 84.9275 18.9973 84.9275 19.968C84.9275 20.9173 85.1568 21.648 85.6155 22.16C86.0742 22.672 86.7035 22.928 87.5035 22.928C87.8875 22.928 88.2715 22.8533 88.6555 22.704C89.0395 22.5547 89.4235 22.3253 89.8075 22.016L90.2715 23.072C89.9302 23.392 89.4982 23.648 88.9755 23.84C88.4528 24.0213 87.9088 24.112 87.3435 24.112ZM97.2966 24L93.0246 19.888L96.9926 15.968H98.8166L94.4006 20.272L94.4646 19.424L99.1686 24H97.2966ZM91.8566 24V12.224H93.3126V24H91.8566ZM102.859 24.112C101.483 24.112 100.39 23.7653 99.579 23.072L100.043 22.016C100.47 22.3467 100.912 22.592 101.371 22.752C101.84 22.9013 102.352 22.976 102.907 22.976C103.483 22.976 103.92 22.88 104.219 22.688C104.528 22.4853 104.683 22.1973 104.683 21.824C104.683 21.5253 104.576 21.2907 104.363 21.12C104.16 20.9387 103.819 20.7893 103.339 20.672L101.995 20.352C101.302 20.2027 100.768 19.936 100.395 19.552C100.032 19.168 99.851 18.704 99.851 18.16C99.851 17.6907 99.979 17.2747 100.235 16.912C100.502 16.5493 100.87 16.2667 101.339 16.064C101.808 15.8507 102.363 15.744 103.003 15.744C103.568 15.744 104.102 15.8347 104.603 16.016C105.115 16.1973 105.547 16.4587 105.899 16.8L105.435 17.84C105.051 17.52 104.656 17.2853 104.251 17.136C103.846 16.976 103.424 16.896 102.987 16.896C102.443 16.896 102.016 17.0027 101.707 17.216C101.408 17.4293 101.259 17.7173 101.259 18.08C101.259 18.3893 101.355 18.6347 101.547 18.816C101.739 18.9973 102.043 19.1413 102.459 19.248L103.819 19.584C104.587 19.744 105.152 20.0107 105.515 20.384C105.878 20.7467 106.059 21.216 106.059 21.792C106.059 22.496 105.771 23.0613 105.195 23.488C104.619 23.904 103.84 24.112 102.859 24.112ZM112.199 20.288V19.104H116.791V20.288H112.199ZM122.61 24.112C121.863 24.112 121.148 23.9947 120.466 23.76C119.783 23.5147 119.207 23.168 118.738 22.72L119.298 21.6C119.799 22.0267 120.322 22.352 120.866 22.576C121.41 22.7893 121.975 22.896 122.562 22.896C123.351 22.896 123.948 22.7253 124.354 22.384C124.759 22.032 124.962 21.5147 124.962 20.832C124.962 20.16 124.754 19.6587 124.338 19.328C123.922 18.9973 123.287 18.832 122.434 18.832H121.074V17.6H122.178C122.999 17.6 123.623 17.424 124.05 17.072C124.476 16.72 124.69 16.2133 124.69 15.552C124.69 14.9547 124.508 14.496 124.146 14.176C123.794 13.856 123.292 13.696 122.641 13.696C122.087 13.696 121.543 13.808 121.01 14.032C120.487 14.2453 119.97 14.5653 119.458 14.992L118.914 13.872C119.372 13.4347 119.938 13.0933 120.61 12.848C121.292 12.6027 121.991 12.48 122.706 12.48C123.41 12.48 124.018 12.6027 124.53 12.848C125.052 13.0827 125.452 13.424 125.73 13.872C126.018 14.3093 126.161 14.8267 126.161 15.424C126.161 16.128 125.975 16.7253 125.602 17.216C125.239 17.7067 124.738 18.0427 124.098 18.224L124.066 18.064C124.823 18.224 125.404 18.5493 125.81 19.04C126.215 19.5307 126.418 20.1547 126.418 20.912C126.418 21.904 126.071 22.688 125.378 23.264C124.695 23.8293 123.772 24.112 122.61 24.112ZM132.331 24.128C131.019 24.128 130.022 23.6373 129.339 22.656C128.657 21.664 128.315 20.2133 128.315 18.304C128.315 16.3947 128.651 14.9493 129.323 13.968C130.006 12.976 131.009 12.48 132.331 12.48C133.654 12.48 134.651 12.976 135.323 13.968C136.006 14.9493 136.347 16.3893 136.347 18.288C136.347 20.1973 136.006 21.648 135.323 22.64C134.641 23.632 133.643 24.128 132.331 24.128ZM132.331 22.912C133.195 22.912 133.83 22.5387 134.235 21.792C134.651 21.0453 134.859 19.8773 134.859 18.288C134.859 16.6987 134.651 15.5413 134.235 14.816C133.83 14.08 133.195 13.712 132.331 13.712C131.467 13.712 130.827 14.08 130.411 14.816C130.006 15.552 129.803 16.7093 129.803 18.288C129.803 19.8773 130.006 21.0453 130.411 21.792C130.827 22.5387 131.467 22.912 132.331 22.912ZM140.165 19.504C139.376 19.504 138.752 19.216 138.293 18.64C137.834 18.064 137.605 17.1893 137.605 16.016C137.605 14.832 137.834 13.9573 138.293 13.392C138.752 12.8267 139.376 12.544 140.165 12.544C140.954 12.544 141.573 12.8267 142.021 13.392C142.48 13.9573 142.709 14.832 142.709 16.016C142.709 17.1893 142.48 18.064 142.021 18.64C141.573 19.216 140.954 19.504 140.165 19.504ZM140.165 18.496C140.581 18.496 140.89 18.304 141.093 17.92C141.306 17.5253 141.413 16.8907 141.413 16.016C141.413 15.152 141.306 14.528 141.093 14.144C140.89 13.7493 140.581 13.552 140.165 13.552C139.749 13.552 139.434 13.7493 139.221 14.144C139.018 14.528 138.917 15.152 138.917 16.016C138.917 16.8907 139.018 17.5253 139.221 17.92C139.434 18.304 139.749 18.496 140.165 18.496ZM139.941 24L146.533 12.608H147.925L141.349 24H139.941ZM147.701 24.064C146.912 24.064 146.288 23.776 145.829 23.2C145.37 22.624 145.141 21.7493 145.141 20.576C145.141 19.392 145.37 18.5173 145.829 17.952C146.288 17.3867 146.912 17.104 147.701 17.104C148.49 17.104 149.109 17.3867 149.557 17.952C150.016 18.5173 150.245 19.392 150.245 20.576C150.245 21.7493 150.016 22.624 149.557 23.2C149.109 23.776 148.49 24.064 147.701 24.064ZM147.701 23.056C148.117 23.056 148.426 22.864 148.629 22.48C148.842 22.0853 148.949 21.4507 148.949 20.576C148.949 19.712 148.842 19.088 148.629 18.704C148.426 18.3093 148.117 18.112 147.701 18.112C147.285 18.112 146.97 18.3093 146.757 18.704C146.554 19.088 146.453 19.712 146.453 20.576C146.453 21.4507 146.554 22.0853 146.757 22.48C146.97 22.864 147.285 23.056 147.701 23.056Z" fill="#10C273"/>
  <g filter="">
    <rect x="15.75" y="6" width="22" height="22" rx="2" fill="#235EE7"/>
  </g>
  <path d="M1 20.75L5.5 16.25L1 11.75" stroke="#969EAC" stroke-width="1.3" stroke-linejoin="round"/>
  <defs>
    <filter id="filter0_d" x="7.75" y="0" width="38" height="38" filterUnits="userSpaceOnUse" color-interpolation-filters="sRGB">
      <feFlood flood-opacity="0" result="BackgroundImageFix"/>
      <feColorMatrix in="SourceAlpha" type="matrix" values="0 0 0 0 0 0 0 0 0 0 0 0 0 0 0 0 0 0 127 0"/>
      <feOffset dy="2"/>
      <feGaussianBlur stdDeviation="4"/>
      <feColorMatrix type="matrix" values="0 0 0 0 0.18 0 0 0 0 0.252615 0 0 0 0 0.42 0 0 0 0.4 0"/>
      <feBlend mode="normal" in2="BackgroundImageFix" result="effect1_dropShadow"/>
      <feBlend mode="normal" in="SourceGraphic" in2="effect1_dropShadow" result="shape"/>
    </filter>
  </defs>
</svg>
