<svg width="713" height="370" viewBox="0 0 713 370" fill="none" xmlns="http://www.w3.org/2000/svg">
<g filter="url(#filter0_di)">
<rect x="8" y="6" width="1044" height="354" rx="6" fill="white"/>
</g>
<path d="M645.268 326.492V325.386C645.847 325.489 646.3 325.512 646.626 325.456C646.962 325.409 647.196 325.251 647.326 324.98C647.466 324.719 647.536 324.322 647.536 323.79V314.032H648.838V323.79C648.838 324.583 648.722 325.199 648.488 325.638C648.255 326.086 647.877 326.375 647.354 326.506C646.841 326.637 646.146 326.632 645.268 326.492ZM653.597 324.098C652.748 324.098 652.109 323.865 651.679 323.398C651.259 322.922 651.049 322.222 651.049 321.298V316.958H652.323V321.284C652.323 321.891 652.445 322.339 652.687 322.628C652.939 322.908 653.322 323.048 653.835 323.048C654.433 323.048 654.913 322.857 655.277 322.474C655.641 322.082 655.823 321.564 655.823 320.92V316.958H657.111V324H655.865V322.488L656.033 322.418C655.847 322.969 655.534 323.389 655.095 323.678C654.657 323.958 654.157 324.098 653.597 324.098ZM659.226 324V318.932C659.226 318.605 659.217 318.279 659.198 317.952C659.189 317.616 659.161 317.285 659.114 316.958H660.318L660.444 318.4L660.304 318.484C660.509 317.933 660.836 317.513 661.284 317.224C661.741 316.925 662.264 316.776 662.852 316.776C664.541 316.776 665.386 317.714 665.386 319.59V324H664.112V319.66C664.112 319.025 663.986 318.563 663.734 318.274C663.491 317.975 663.099 317.826 662.558 317.826C661.933 317.826 661.433 318.022 661.06 318.414C660.687 318.797 660.5 319.315 660.5 319.968V324H659.226ZM671.218 324V323.02L674.69 319.212C675.138 318.708 675.464 318.255 675.67 317.854C675.884 317.443 675.992 317.033 675.992 316.622C675.992 316.099 675.838 315.698 675.53 315.418C675.222 315.129 674.788 314.984 674.228 314.984C673.752 314.984 673.28 315.082 672.814 315.278C672.347 315.465 671.885 315.745 671.428 316.118L670.952 315.138C671.344 314.765 671.838 314.471 672.436 314.256C673.042 314.032 673.649 313.92 674.256 313.92C674.881 313.92 675.418 314.027 675.866 314.242C676.314 314.447 676.664 314.751 676.916 315.152C677.168 315.544 677.294 316.011 677.294 316.552C677.294 317.121 677.163 317.667 676.902 318.19C676.65 318.713 676.23 319.301 675.642 319.954L672.352 323.496L672.24 322.922H677.7V324H671.218ZM682.692 324.112C681.544 324.112 680.672 323.683 680.074 322.824C679.477 321.956 679.178 320.687 679.178 319.016C679.178 317.345 679.472 316.081 680.06 315.222C680.658 314.354 681.535 313.92 682.692 313.92C683.85 313.92 684.722 314.354 685.31 315.222C685.908 316.081 686.206 317.341 686.206 319.002C686.206 320.673 685.908 321.942 685.31 322.81C684.713 323.678 683.84 324.112 682.692 324.112ZM682.692 323.048C683.448 323.048 684.004 322.721 684.358 322.068C684.722 321.415 684.904 320.393 684.904 319.002C684.904 317.611 684.722 316.599 684.358 315.964C684.004 315.32 683.448 314.998 682.692 314.998C681.936 314.998 681.376 315.32 681.012 315.964C680.658 316.608 680.48 317.621 680.48 319.002C680.48 320.393 680.658 321.415 681.012 322.068C681.376 322.721 681.936 323.048 682.692 323.048ZM688.007 324V323.02L691.479 319.212C691.927 318.708 692.253 318.255 692.459 317.854C692.673 317.443 692.781 317.033 692.781 316.622C692.781 316.099 692.627 315.698 692.319 315.418C692.011 315.129 691.577 314.984 691.017 314.984C690.541 314.984 690.069 315.082 689.603 315.278C689.136 315.465 688.674 315.745 688.217 316.118L687.741 315.138C688.133 314.765 688.627 314.471 689.225 314.256C689.831 314.032 690.438 313.92 691.045 313.92C691.67 313.92 692.207 314.027 692.655 314.242C693.103 314.447 693.453 314.751 693.705 315.152C693.957 315.544 694.083 316.011 694.083 316.552C694.083 317.121 693.952 317.667 693.691 318.19C693.439 318.713 693.019 319.301 692.431 319.954L689.141 323.496L689.029 322.922H694.489V324H688.007ZM699.481 324.112C698.333 324.112 697.461 323.683 696.863 322.824C696.266 321.956 695.967 320.687 695.967 319.016C695.967 317.345 696.261 316.081 696.849 315.222C697.447 314.354 698.324 313.92 699.481 313.92C700.639 313.92 701.511 314.354 702.099 315.222C702.697 316.081 702.995 317.341 702.995 319.002C702.995 320.673 702.697 321.942 702.099 322.81C701.502 323.678 700.629 324.112 699.481 324.112ZM699.481 323.048C700.237 323.048 700.793 322.721 701.147 322.068C701.511 321.415 701.693 320.393 701.693 319.002C701.693 317.611 701.511 316.599 701.147 315.964C700.793 315.32 700.237 314.998 699.481 314.998C698.725 314.998 698.165 315.32 697.801 315.964C697.447 316.608 697.269 317.621 697.269 319.002C697.269 320.393 697.447 321.415 697.801 322.068C698.165 322.721 698.725 323.048 699.481 323.048Z" fill="#969EAC"/>
<path d="M557.665 324V314.032H558.729L562.705 323.09H562.145L566.093 314.032H567.143V324H565.967V315.796L566.401 315.852L562.859 324H561.963L558.365 315.852L558.841 315.796L558.855 324H557.665ZM572.108 324.098C571.492 324.098 570.946 323.953 570.47 323.664C570.003 323.365 569.639 322.945 569.378 322.404C569.116 321.853 568.986 321.209 568.986 320.472C568.986 319.735 569.116 319.091 569.378 318.54C569.648 317.989 570.017 317.56 570.484 317.252C570.96 316.935 571.501 316.776 572.108 316.776C572.742 316.776 573.284 316.935 573.732 317.252C574.18 317.56 574.483 318.003 574.642 318.582L574.474 318.68V316.958H575.734V324H574.474V322.236L574.642 322.306C574.483 322.875 574.18 323.319 573.732 323.636C573.284 323.944 572.742 324.098 572.108 324.098ZM572.388 323.062C573.06 323.062 573.573 322.838 573.928 322.39C574.292 321.933 574.474 321.284 574.474 320.444C574.474 319.604 574.292 318.96 573.928 318.512C573.564 318.055 573.05 317.826 572.388 317.826C571.725 317.826 571.207 318.059 570.834 318.526C570.46 318.993 570.274 319.641 570.274 320.472C570.274 321.303 570.46 321.942 570.834 322.39C571.207 322.838 571.725 323.062 572.388 323.062ZM577.547 327.178L577.281 326.198C577.71 326.095 578.07 325.974 578.359 325.834C578.658 325.703 578.905 325.531 579.101 325.316C579.297 325.111 579.47 324.835 579.619 324.49L580.081 323.44L580.375 323.02L582.881 316.958H584.155L580.865 324.602C580.613 325.181 580.324 325.643 579.997 325.988C579.67 326.343 579.302 326.609 578.891 326.786C578.49 326.963 578.042 327.094 577.547 327.178ZM580.095 324.392L576.917 316.958H578.247L580.725 323.02L580.095 324.392ZM589.081 324V323.02L592.553 319.212C593.001 318.708 593.328 318.255 593.533 317.854C593.748 317.443 593.855 317.033 593.855 316.622C593.855 316.099 593.701 315.698 593.393 315.418C593.085 315.129 592.651 314.984 592.091 314.984C591.615 314.984 591.144 315.082 590.677 315.278C590.21 315.465 589.748 315.745 589.291 316.118L588.815 315.138C589.207 314.765 589.702 314.471 590.299 314.256C590.906 314.032 591.512 313.92 592.119 313.92C592.744 313.92 593.281 314.027 593.729 314.242C594.177 314.447 594.527 314.751 594.779 315.152C595.031 315.544 595.157 316.011 595.157 316.552C595.157 317.121 595.026 317.667 594.765 318.19C594.513 318.713 594.093 319.301 593.505 319.954L590.215 323.496L590.103 322.922H595.563V324H589.081ZM600.555 324.112C599.407 324.112 598.535 323.683 597.937 322.824C597.34 321.956 597.041 320.687 597.041 319.016C597.041 317.345 597.335 316.081 597.923 315.222C598.521 314.354 599.398 313.92 600.555 313.92C601.713 313.92 602.585 314.354 603.173 315.222C603.771 316.081 604.069 317.341 604.069 319.002C604.069 320.673 603.771 321.942 603.173 322.81C602.576 323.678 601.703 324.112 600.555 324.112ZM600.555 323.048C601.311 323.048 601.867 322.721 602.221 322.068C602.585 321.415 602.767 320.393 602.767 319.002C602.767 317.611 602.585 316.599 602.221 315.964C601.867 315.32 601.311 314.998 600.555 314.998C599.799 314.998 599.239 315.32 598.875 315.964C598.521 316.608 598.343 317.621 598.343 319.002C598.343 320.393 598.521 321.415 598.875 322.068C599.239 322.721 599.799 323.048 600.555 323.048ZM605.87 324V323.02L609.342 319.212C609.79 318.708 610.117 318.255 610.322 317.854C610.537 317.443 610.644 317.033 610.644 316.622C610.644 316.099 610.49 315.698 610.182 315.418C609.874 315.129 609.44 314.984 608.88 314.984C608.404 314.984 607.933 315.082 607.466 315.278C606.999 315.465 606.537 315.745 606.08 316.118L605.604 315.138C605.996 314.765 606.491 314.471 607.088 314.256C607.695 314.032 608.301 313.92 608.908 313.92C609.533 313.92 610.07 314.027 610.518 314.242C610.966 314.447 611.316 314.751 611.568 315.152C611.82 315.544 611.946 316.011 611.946 316.552C611.946 317.121 611.815 317.667 611.554 318.19C611.302 318.713 610.882 319.301 610.294 319.954L607.004 323.496L606.892 322.922H612.352V324H605.87ZM617.345 324.112C616.197 324.112 615.324 323.683 614.727 322.824C614.129 321.956 613.831 320.687 613.831 319.016C613.831 317.345 614.125 316.081 614.713 315.222C615.31 314.354 616.187 313.92 617.345 313.92C618.502 313.92 619.375 314.354 619.963 315.222C620.56 316.081 620.859 317.341 620.859 319.002C620.859 320.673 620.56 321.942 619.963 322.81C619.365 323.678 618.493 324.112 617.345 324.112ZM617.345 323.048C618.101 323.048 618.656 322.721 619.011 322.068C619.375 321.415 619.557 320.393 619.557 319.002C619.557 317.611 619.375 316.599 619.011 315.964C618.656 315.32 618.101 314.998 617.345 314.998C616.589 314.998 616.029 315.32 615.665 315.964C615.31 316.608 615.133 317.621 615.133 319.002C615.133 320.393 615.31 321.415 615.665 322.068C616.029 322.721 616.589 323.048 617.345 323.048Z" fill="#969EAC"/>
<path d="M473.922 324H472.592L477.002 314.032H478.108L482.532 324H481.216L477.352 314.998H477.786L473.922 324ZM474.482 321.494L474.944 320.43H480.152L480.614 321.494H474.482ZM483.782 327.024V318.932C483.782 318.605 483.772 318.279 483.754 317.952C483.744 317.616 483.716 317.285 483.67 316.958H484.874L485 318.4L484.888 318.582C485.046 318.003 485.35 317.56 485.798 317.252C486.246 316.935 486.782 316.776 487.408 316.776C488.024 316.776 488.565 316.935 489.032 317.252C489.508 317.56 489.876 317.989 490.138 318.54C490.408 319.091 490.544 319.735 490.544 320.472C490.544 321.209 490.408 321.853 490.138 322.404C489.876 322.945 489.512 323.365 489.046 323.664C488.579 323.953 488.033 324.098 487.408 324.098C486.782 324.098 486.246 323.944 485.798 323.636C485.35 323.319 485.046 322.875 484.888 322.306L485.056 322.152V327.024H483.782ZM487.142 323.062C487.804 323.062 488.318 322.838 488.682 322.39C489.046 321.942 489.228 321.303 489.228 320.472C489.228 319.641 489.046 318.993 488.682 318.526C488.318 318.059 487.804 317.826 487.142 317.826C486.47 317.826 485.952 318.055 485.588 318.512C485.224 318.96 485.042 319.604 485.042 320.444C485.042 321.284 485.224 321.933 485.588 322.39C485.952 322.838 486.47 323.062 487.142 323.062ZM492.231 324V318.932C492.231 318.605 492.222 318.279 492.203 317.952C492.194 317.616 492.166 317.285 492.119 316.958H493.323L493.477 318.708L493.323 318.652C493.444 318.036 493.72 317.574 494.149 317.266C494.588 316.949 495.078 316.79 495.619 316.79C495.75 316.79 495.866 316.799 495.969 316.818C496.081 316.827 496.184 316.846 496.277 316.874L496.263 318.036C496.03 317.952 495.768 317.91 495.479 317.91C495.003 317.91 494.62 318.013 494.331 318.218C494.042 318.423 493.832 318.685 493.701 319.002C493.57 319.319 493.505 319.66 493.505 320.024V324H492.231ZM501.146 324V323.02L504.618 319.212C505.066 318.708 505.393 318.255 505.598 317.854C505.813 317.443 505.92 317.033 505.92 316.622C505.92 316.099 505.766 315.698 505.458 315.418C505.15 315.129 504.716 314.984 504.156 314.984C503.68 314.984 503.209 315.082 502.742 315.278C502.276 315.465 501.814 315.745 501.356 316.118L500.88 315.138C501.272 314.765 501.767 314.471 502.364 314.256C502.971 314.032 503.578 313.92 504.184 313.92C504.81 313.92 505.346 314.027 505.794 314.242C506.242 314.447 506.592 314.751 506.844 315.152C507.096 315.544 507.222 316.011 507.222 316.552C507.222 317.121 507.092 317.667 506.83 318.19C506.578 318.713 506.158 319.301 505.57 319.954L502.28 323.496L502.168 322.922H507.628V324H501.146ZM512.621 324.112C511.473 324.112 510.6 323.683 510.003 322.824C509.406 321.956 509.107 320.687 509.107 319.016C509.107 317.345 509.401 316.081 509.989 315.222C510.586 314.354 511.464 313.92 512.621 313.92C513.778 313.92 514.651 314.354 515.239 315.222C515.836 316.081 516.135 317.341 516.135 319.002C516.135 320.673 515.836 321.942 515.239 322.81C514.642 323.678 513.769 324.112 512.621 324.112ZM512.621 323.048C513.377 323.048 513.932 322.721 514.287 322.068C514.651 321.415 514.833 320.393 514.833 319.002C514.833 317.611 514.651 316.599 514.287 315.964C513.932 315.32 513.377 314.998 512.621 314.998C511.865 314.998 511.305 315.32 510.941 315.964C510.586 316.608 510.409 317.621 510.409 319.002C510.409 320.393 510.586 321.415 510.941 322.068C511.305 322.721 511.865 323.048 512.621 323.048ZM517.935 324V323.02L521.407 319.212C521.855 318.708 522.182 318.255 522.387 317.854C522.602 317.443 522.709 317.033 522.709 316.622C522.709 316.099 522.555 315.698 522.247 315.418C521.939 315.129 521.505 314.984 520.945 314.984C520.469 314.984 519.998 315.082 519.531 315.278C519.065 315.465 518.603 315.745 518.145 316.118L517.669 315.138C518.061 314.765 518.556 314.471 519.153 314.256C519.76 314.032 520.367 313.92 520.973 313.92C521.599 313.92 522.135 314.027 522.583 314.242C523.031 314.447 523.381 314.751 523.633 315.152C523.885 315.544 524.011 316.011 524.011 316.552C524.011 317.121 523.881 317.667 523.619 318.19C523.367 318.713 522.947 319.301 522.359 319.954L519.069 323.496L518.957 322.922H524.417V324H517.935ZM529.41 324.112C528.262 324.112 527.389 323.683 526.792 322.824C526.195 321.956 525.896 320.687 525.896 319.016C525.896 317.345 526.19 316.081 526.778 315.222C527.375 314.354 528.253 313.92 529.41 313.92C530.567 313.92 531.44 314.354 532.028 315.222C532.625 316.081 532.924 317.341 532.924 319.002C532.924 320.673 532.625 321.942 532.028 322.81C531.431 323.678 530.558 324.112 529.41 324.112ZM529.41 323.048C530.166 323.048 530.721 322.721 531.076 322.068C531.44 321.415 531.622 320.393 531.622 319.002C531.622 317.611 531.44 316.599 531.076 315.964C530.721 315.32 530.166 314.998 529.41 314.998C528.654 314.998 528.094 315.32 527.73 315.964C527.375 316.608 527.198 317.621 527.198 319.002C527.198 320.393 527.375 321.415 527.73 322.068C528.094 322.721 528.654 323.048 529.41 323.048Z" fill="#969EAC"/>
<path d="M386.32 324V314.032H387.384L391.36 323.09H390.8L394.748 314.032H395.798V324H394.622V315.796L395.056 315.852L391.514 324H390.618L387.02 315.852L387.496 315.796L387.51 324H386.32ZM400.763 324.098C400.147 324.098 399.601 323.953 399.125 323.664C398.658 323.365 398.294 322.945 398.033 322.404C397.772 321.853 397.641 321.209 397.641 320.472C397.641 319.735 397.772 319.091 398.033 318.54C398.304 317.989 398.672 317.56 399.139 317.252C399.615 316.935 400.156 316.776 400.763 316.776C401.398 316.776 401.939 316.935 402.387 317.252C402.835 317.56 403.138 318.003 403.297 318.582L403.129 318.68V316.958H404.389V324H403.129V322.236L403.297 322.306C403.138 322.875 402.835 323.319 402.387 323.636C401.939 323.944 401.398 324.098 400.763 324.098ZM401.043 323.062C401.715 323.062 402.228 322.838 402.583 322.39C402.947 321.933 403.129 321.284 403.129 320.444C403.129 319.604 402.947 318.96 402.583 318.512C402.219 318.055 401.706 317.826 401.043 317.826C400.38 317.826 399.862 318.059 399.489 318.526C399.116 318.993 398.929 319.641 398.929 320.472C398.929 321.303 399.116 321.942 399.489 322.39C399.862 322.838 400.38 323.062 401.043 323.062ZM406.51 324V318.932C406.51 318.605 406.501 318.279 406.482 317.952C406.473 317.616 406.445 317.285 406.398 316.958H407.602L407.756 318.708L407.602 318.652C407.724 318.036 407.999 317.574 408.428 317.266C408.867 316.949 409.357 316.79 409.898 316.79C410.029 316.79 410.146 316.799 410.248 316.818C410.36 316.827 410.463 316.846 410.556 316.874L410.542 318.036C410.309 317.952 410.048 317.91 409.758 317.91C409.282 317.91 408.9 318.013 408.61 318.218C408.321 318.423 408.111 318.685 407.98 319.002C407.85 319.319 407.784 319.66 407.784 320.024V324H406.51ZM415.426 324V323.02L418.898 319.212C419.346 318.708 419.672 318.255 419.878 317.854C420.092 317.443 420.2 317.033 420.2 316.622C420.2 316.099 420.046 315.698 419.738 315.418C419.43 315.129 418.996 314.984 418.436 314.984C417.96 314.984 417.488 315.082 417.022 315.278C416.555 315.465 416.093 315.745 415.636 316.118L415.16 315.138C415.552 314.765 416.046 314.471 416.644 314.256C417.25 314.032 417.857 313.92 418.464 313.92C419.089 313.92 419.626 314.027 420.074 314.242C420.522 314.447 420.872 314.751 421.124 315.152C421.376 315.544 421.502 316.011 421.502 316.552C421.502 317.121 421.371 317.667 421.11 318.19C420.858 318.713 420.438 319.301 419.85 319.954L416.56 323.496L416.448 322.922H421.908V324H415.426ZM426.9 324.112C425.752 324.112 424.88 323.683 424.282 322.824C423.685 321.956 423.386 320.687 423.386 319.016C423.386 317.345 423.68 316.081 424.268 315.222C424.866 314.354 425.743 313.92 426.9 313.92C428.058 313.92 428.93 314.354 429.518 315.222C430.116 316.081 430.414 317.341 430.414 319.002C430.414 320.673 430.116 321.942 429.518 322.81C428.921 323.678 428.048 324.112 426.9 324.112ZM426.9 323.048C427.656 323.048 428.212 322.721 428.566 322.068C428.93 321.415 429.112 320.393 429.112 319.002C429.112 317.611 428.93 316.599 428.566 315.964C428.212 315.32 427.656 314.998 426.9 314.998C426.144 314.998 425.584 315.32 425.22 315.964C424.866 316.608 424.688 317.621 424.688 319.002C424.688 320.393 424.866 321.415 425.22 322.068C425.584 322.721 426.144 323.048 426.9 323.048ZM432.215 324V323.02L435.687 319.212C436.135 318.708 436.461 318.255 436.667 317.854C436.881 317.443 436.989 317.033 436.989 316.622C436.989 316.099 436.835 315.698 436.527 315.418C436.219 315.129 435.785 314.984 435.225 314.984C434.749 314.984 434.277 315.082 433.811 315.278C433.344 315.465 432.882 315.745 432.425 316.118L431.949 315.138C432.341 314.765 432.835 314.471 433.433 314.256C434.039 314.032 434.646 313.92 435.253 313.92C435.878 313.92 436.415 314.027 436.863 314.242C437.311 314.447 437.661 314.751 437.913 315.152C438.165 315.544 438.291 316.011 438.291 316.552C438.291 317.121 438.16 317.667 437.899 318.19C437.647 318.713 437.227 319.301 436.639 319.954L433.349 323.496L433.237 322.922H438.697V324H432.215ZM443.689 324.112C442.541 324.112 441.669 323.683 441.071 322.824C440.474 321.956 440.175 320.687 440.175 319.016C440.175 317.345 440.469 316.081 441.057 315.222C441.655 314.354 442.532 313.92 443.689 313.92C444.847 313.92 445.719 314.354 446.307 315.222C446.905 316.081 447.203 317.341 447.203 319.002C447.203 320.673 446.905 321.942 446.307 322.81C445.71 323.678 444.837 324.112 443.689 324.112ZM443.689 323.048C444.445 323.048 445.001 322.721 445.355 322.068C445.719 321.415 445.901 320.393 445.901 319.002C445.901 317.611 445.719 316.599 445.355 315.964C445.001 315.32 444.445 314.998 443.689 314.998C442.933 314.998 442.373 315.32 442.009 315.964C441.655 316.608 441.477 317.621 441.477 319.002C441.477 320.393 441.655 321.415 442.009 322.068C442.373 322.721 442.933 323.048 443.689 323.048Z" fill="#969EAC"/>
<path d="M301.641 324V314.032H307.871V315.11H302.915V318.4H307.591V319.478H302.915V324H301.641ZM315.104 323.174C314.796 323.463 314.399 323.692 313.914 323.86C313.428 324.019 312.934 324.098 312.43 324.098C311.692 324.098 311.058 323.953 310.526 323.664C309.994 323.375 309.583 322.959 309.294 322.418C309.004 321.867 308.86 321.214 308.86 320.458C308.86 319.73 309 319.091 309.28 318.54C309.569 317.989 309.966 317.56 310.47 317.252C310.974 316.935 311.552 316.776 312.206 316.776C312.84 316.776 313.382 316.916 313.83 317.196C314.287 317.476 314.632 317.877 314.866 318.4C315.108 318.913 315.23 319.529 315.23 320.248V320.472H309.98V319.688H314.502L314.11 320.192C314.128 319.399 313.974 318.792 313.648 318.372C313.321 317.952 312.845 317.742 312.22 317.742C311.566 317.742 311.053 317.975 310.68 318.442C310.316 318.899 310.134 319.543 310.134 320.374C310.134 321.27 310.33 321.947 310.722 322.404C311.114 322.852 311.692 323.076 312.458 323.076C312.868 323.076 313.26 323.011 313.634 322.88C314.007 322.74 314.362 322.535 314.698 322.264L315.104 323.174ZM316.909 324V313.696H318.183V318.736L318.015 318.568C318.173 318.008 318.477 317.569 318.925 317.252C319.373 316.935 319.909 316.776 320.535 316.776C321.16 316.776 321.706 316.925 322.173 317.224C322.639 317.523 323.003 317.947 323.265 318.498C323.535 319.039 323.671 319.679 323.671 320.416C323.671 321.153 323.535 321.802 323.265 322.362C323.003 322.913 322.635 323.342 322.159 323.65C321.692 323.949 321.151 324.098 320.535 324.098C319.909 324.098 319.373 323.944 318.925 323.636C318.477 323.319 318.173 322.875 318.015 322.306L318.169 322.138V324H316.909ZM320.269 323.062C320.931 323.062 321.445 322.833 321.809 322.376C322.173 321.909 322.355 321.256 322.355 320.416C322.355 319.595 322.173 318.96 321.809 318.512C321.445 318.055 320.931 317.826 320.269 317.826C319.597 317.826 319.079 318.055 318.715 318.512C318.351 318.969 318.169 319.613 318.169 320.444C318.169 321.284 318.351 321.933 318.715 322.39C319.079 322.838 319.597 323.062 320.269 323.062ZM329.105 324V323.02L332.577 319.212C333.025 318.708 333.352 318.255 333.557 317.854C333.772 317.443 333.879 317.033 333.879 316.622C333.879 316.099 333.725 315.698 333.417 315.418C333.109 315.129 332.675 314.984 332.115 314.984C331.639 314.984 331.168 315.082 330.701 315.278C330.235 315.465 329.773 315.745 329.315 316.118L328.839 315.138C329.231 314.765 329.726 314.471 330.323 314.256C330.93 314.032 331.537 313.92 332.143 313.92C332.769 313.92 333.305 314.027 333.753 314.242C334.201 314.447 334.551 314.751 334.803 315.152C335.055 315.544 335.181 316.011 335.181 316.552C335.181 317.121 335.051 317.667 334.789 318.19C334.537 318.713 334.117 319.301 333.529 319.954L330.239 323.496L330.127 322.922H335.587V324H329.105ZM340.58 324.112C339.432 324.112 338.559 323.683 337.962 322.824C337.365 321.956 337.066 320.687 337.066 319.016C337.066 317.345 337.36 316.081 337.948 315.222C338.545 314.354 339.423 313.92 340.58 313.92C341.737 313.92 342.61 314.354 343.198 315.222C343.795 316.081 344.094 317.341 344.094 319.002C344.094 320.673 343.795 321.942 343.198 322.81C342.601 323.678 341.728 324.112 340.58 324.112ZM340.58 323.048C341.336 323.048 341.891 322.721 342.246 322.068C342.61 321.415 342.792 320.393 342.792 319.002C342.792 317.611 342.61 316.599 342.246 315.964C341.891 315.32 341.336 314.998 340.58 314.998C339.824 314.998 339.264 315.32 338.9 315.964C338.545 316.608 338.368 317.621 338.368 319.002C338.368 320.393 338.545 321.415 338.9 322.068C339.264 322.721 339.824 323.048 340.58 323.048ZM345.894 324V323.02L349.366 319.212C349.814 318.708 350.141 318.255 350.346 317.854C350.561 317.443 350.668 317.033 350.668 316.622C350.668 316.099 350.514 315.698 350.206 315.418C349.898 315.129 349.464 314.984 348.904 314.984C348.428 314.984 347.957 315.082 347.49 315.278C347.024 315.465 346.562 315.745 346.104 316.118L345.628 315.138C346.02 314.765 346.515 314.471 347.112 314.256C347.719 314.032 348.326 313.92 348.932 313.92C349.558 313.92 350.094 314.027 350.542 314.242C350.99 314.447 351.34 314.751 351.592 315.152C351.844 315.544 351.97 316.011 351.97 316.552C351.97 317.121 351.84 317.667 351.578 318.19C351.326 318.713 350.906 319.301 350.318 319.954L347.028 323.496L346.916 322.922H352.376V324H345.894ZM357.369 324.112C356.221 324.112 355.348 323.683 354.751 322.824C354.154 321.956 353.855 320.687 353.855 319.016C353.855 317.345 354.149 316.081 354.737 315.222C355.334 314.354 356.212 313.92 357.369 313.92C358.526 313.92 359.399 314.354 359.987 315.222C360.584 316.081 360.883 317.341 360.883 319.002C360.883 320.673 360.584 321.942 359.987 322.81C359.39 323.678 358.517 324.112 357.369 324.112ZM357.369 323.048C358.125 323.048 358.68 322.721 359.035 322.068C359.399 321.415 359.581 320.393 359.581 319.002C359.581 317.611 359.399 316.599 359.035 315.964C358.68 315.32 358.125 314.998 357.369 314.998C356.613 314.998 356.053 315.32 355.689 315.964C355.334 316.608 355.157 317.621 355.157 319.002C355.157 320.393 355.334 321.415 355.689 322.068C356.053 322.721 356.613 323.048 357.369 323.048Z" fill="#969EAC"/>
<path d="M215.111 326.492V325.386C215.69 325.489 216.142 325.512 216.469 325.456C216.805 325.409 217.038 325.251 217.169 324.98C217.309 324.719 217.379 324.322 217.379 323.79V314.032H218.681V323.79C218.681 324.583 218.564 325.199 218.331 325.638C218.098 326.086 217.72 326.375 217.197 326.506C216.684 326.637 215.988 326.632 215.111 326.492ZM223.636 324.098C223.02 324.098 222.474 323.953 221.998 323.664C221.531 323.365 221.167 322.945 220.906 322.404C220.645 321.853 220.514 321.209 220.514 320.472C220.514 319.735 220.645 319.091 220.906 318.54C221.177 317.989 221.545 317.56 222.012 317.252C222.488 316.935 223.029 316.776 223.636 316.776C224.271 316.776 224.812 316.935 225.26 317.252C225.708 317.56 226.011 318.003 226.17 318.582L226.002 318.68V316.958H227.262V324H226.002V322.236L226.17 322.306C226.011 322.875 225.708 323.319 225.26 323.636C224.812 323.944 224.271 324.098 223.636 324.098ZM223.916 323.062C224.588 323.062 225.101 322.838 225.456 322.39C225.82 321.933 226.002 321.284 226.002 320.444C226.002 319.604 225.82 318.96 225.456 318.512C225.092 318.055 224.579 317.826 223.916 317.826C223.253 317.826 222.735 318.059 222.362 318.526C221.989 318.993 221.802 319.641 221.802 320.472C221.802 321.303 221.989 321.942 222.362 322.39C222.735 322.838 223.253 323.062 223.916 323.062ZM229.383 324V318.932C229.383 318.605 229.374 318.279 229.355 317.952C229.346 317.616 229.318 317.285 229.271 316.958H230.475L230.601 318.4L230.461 318.484C230.667 317.933 230.993 317.513 231.441 317.224C231.899 316.925 232.421 316.776 233.009 316.776C234.699 316.776 235.543 317.714 235.543 319.59V324H234.269V319.66C234.269 319.025 234.143 318.563 233.891 318.274C233.649 317.975 233.257 317.826 232.715 317.826C232.09 317.826 231.591 318.022 231.217 318.414C230.844 318.797 230.657 319.315 230.657 319.968V324H229.383ZM241.375 324V323.02L244.847 319.212C245.295 318.708 245.622 318.255 245.827 317.854C246.042 317.443 246.149 317.033 246.149 316.622C246.149 316.099 245.995 315.698 245.687 315.418C245.379 315.129 244.945 314.984 244.385 314.984C243.909 314.984 243.438 315.082 242.971 315.278C242.504 315.465 242.042 315.745 241.585 316.118L241.109 315.138C241.501 314.765 241.996 314.471 242.593 314.256C243.2 314.032 243.806 313.92 244.413 313.92C245.038 313.92 245.575 314.027 246.023 314.242C246.471 314.447 246.821 314.751 247.073 315.152C247.325 315.544 247.451 316.011 247.451 316.552C247.451 317.121 247.32 317.667 247.059 318.19C246.807 318.713 246.387 319.301 245.799 319.954L242.509 323.496L242.397 322.922H247.857V324H241.375ZM252.849 324.112C251.701 324.112 250.829 323.683 250.231 322.824C249.634 321.956 249.335 320.687 249.335 319.016C249.335 317.345 249.629 316.081 250.217 315.222C250.815 314.354 251.692 313.92 252.849 313.92C254.007 313.92 254.879 314.354 255.467 315.222C256.065 316.081 256.363 317.341 256.363 319.002C256.363 320.673 256.065 321.942 255.467 322.81C254.87 323.678 253.997 324.112 252.849 324.112ZM252.849 323.048C253.605 323.048 254.161 322.721 254.515 322.068C254.879 321.415 255.061 320.393 255.061 319.002C255.061 317.611 254.879 316.599 254.515 315.964C254.161 315.32 253.605 314.998 252.849 314.998C252.093 314.998 251.533 315.32 251.169 315.964C250.815 316.608 250.637 317.621 250.637 319.002C250.637 320.393 250.815 321.415 251.169 322.068C251.533 322.721 252.093 323.048 252.849 323.048ZM258.164 324V323.02L261.636 319.212C262.084 318.708 262.411 318.255 262.616 317.854C262.831 317.443 262.938 317.033 262.938 316.622C262.938 316.099 262.784 315.698 262.476 315.418C262.168 315.129 261.734 314.984 261.174 314.984C260.698 314.984 260.227 315.082 259.76 315.278C259.293 315.465 258.831 315.745 258.374 316.118L257.898 315.138C258.29 314.765 258.785 314.471 259.382 314.256C259.989 314.032 260.595 313.92 261.202 313.92C261.827 313.92 262.364 314.027 262.812 314.242C263.26 314.447 263.61 314.751 263.862 315.152C264.114 315.544 264.24 316.011 264.24 316.552C264.24 317.121 264.109 317.667 263.848 318.19C263.596 318.713 263.176 319.301 262.588 319.954L259.298 323.496L259.186 322.922H264.646V324H258.164ZM269.638 324.112C268.49 324.112 267.618 323.683 267.02 322.824C266.423 321.956 266.124 320.687 266.124 319.016C266.124 317.345 266.418 316.081 267.006 315.222C267.604 314.354 268.481 313.92 269.638 313.92C270.796 313.92 271.668 314.354 272.256 315.222C272.854 316.081 273.152 317.341 273.152 319.002C273.152 320.673 272.854 321.942 272.256 322.81C271.659 323.678 270.786 324.112 269.638 324.112ZM269.638 323.048C270.394 323.048 270.95 322.721 271.304 322.068C271.668 321.415 271.85 320.393 271.85 319.002C271.85 317.611 271.668 316.599 271.304 315.964C270.95 315.32 270.394 314.998 269.638 314.998C268.882 314.998 268.322 315.32 267.958 315.964C267.604 316.608 267.426 317.621 267.426 319.002C267.426 320.393 267.604 321.415 267.958 322.068C268.322 322.721 268.882 323.048 269.638 323.048Z" fill="#969EAC"/>
<path opacity="0.24" d="M240 294.5H938" stroke="#969EAC"/>
<path opacity="0.1" d="M240 258H938" stroke="#969EAC"/>
<path opacity="0.1" d="M240 222H938" stroke="#969EAC"/>
<path opacity="0.1" d="M240 186H938" stroke="#969EAC"/>
<path opacity="0.1" d="M240 150H938" stroke="#969EAC"/>
<path opacity="0.1" d="M240 114H938" stroke="#969EAC"/>
<path opacity="0.1" d="M240 78H938" stroke="#969EAC"/>
<path opacity="0.1" d="M240 42H938" stroke="#969EAC"/>
<path opacity="0.12" d="M427.5 173C375.725 192.363 281.667 223 240 222.5V294H938V134C900.5 161.5 830.5 194 753 194C685.33 194 640.487 125 574.5 125C507.5 125 489 150 427.5 173Z" fill="url(#paint0_linear)"/>
<path opacity="0.12" d="M332 209C289.2 234.2 252.833 241.5 240 242V294H938V89C918 110.5 861 124.5 804 124.5C747 124.5 701 191 644 191C587 191 561 127 482 127C403 127 385.5 177.5 332 209Z" fill="url(#paint1_linear)"/>
<path opacity="0.12" d="M332 209C289.2 234.2 252.833 241.5 240 242V294H938V89C918 110.5 861 124.5 804 124.5C747 124.5 701 191 644 191C587 191 561 127 482 127C403 127 385.5 177.5 332 209Z" fill="url(#paint2_linear)"/>
<path d="M240 222.5C281.667 223 375.725 192.363 427.5 173C489 150 507.5 125 574.5 125C640.487 125 685.33 194 753 194C830.5 194 900.5 161.5 938 134" stroke="#D3365F" stroke-width="2.5"/>
<path d="M240 242C252.833 241.5 289.2 234.2 332 209C385.5 177.5 403 127 482 127C561 127 587 191 644 191C701 191 747 124.5 804 124.5C861 124.5 918 110.5 938 89" stroke="#235EE7" stroke-width="2.5"/>
<circle cx="675" cy="166" r="3" fill="#FAFBFD" stroke="#D3365F" stroke-width="2"/>
<circle cx="589" cy="126" r="3" fill="#FAFBFD" stroke="#D3365F" stroke-width="2"/>
<circle cx="503" cy="139" r="3" fill="#FAFBFD" stroke="#D3365F" stroke-width="2"/>
<circle cx="417" cy="177" r="3" fill="#FAFBFD" stroke="#D3365F" stroke-width="2"/>
<circle cx="331" cy="204" r="3" fill="#FAFBFD" stroke="#D3365F" stroke-width="2"/>
<circle cx="241" cy="222" r="3" fill="#FAFBFD" stroke="#D3365F" stroke-width="2"/>
<circle cx="675" cy="185" r="3" fill="#FAFBFD" stroke="#235EE7" stroke-width="2"/>
<circle cx="589" cy="171" r="3" fill="#FAFBFD" stroke="#235EE7" stroke-width="2"/>
<circle cx="503" cy="129" r="3" fill="#FAFBFD" stroke="#235EE7" stroke-width="2"/>
<circle cx="417" cy="143" r="3" fill="#FAFBFD" stroke="#235EE7" stroke-width="2"/>
<circle cx="331" cy="210" r="3" fill="#FAFBFD" stroke="#235EE7" stroke-width="2"/>
<circle cx="241" cy="242" r="3" fill="#FAFBFD" stroke="#235EE7" stroke-width="2"/>
<circle cx="675" cy="185" r="3" fill="#FAFBFD" stroke="#235EE7" stroke-width="2"/>
<circle cx="589" cy="171" r="3" fill="#FAFBFD" stroke="#235EE7" stroke-width="2"/>
<circle cx="503" cy="129" r="3" fill="#FAFBFD" stroke="#235EE7" stroke-width="2"/>
<circle cx="417" cy="143" r="3" fill="#FAFBFD" stroke="#235EE7" stroke-width="2"/>
<circle cx="331" cy="210" r="3" fill="#FAFBFD" stroke="#235EE7" stroke-width="2"/>
<circle cx="241" cy="242" r="3" fill="#FAFBFD" stroke="#235EE7" stroke-width="2"/>
<path d="M49.696 202.256C48.1173 202.256 46.624 202 45.216 201.488C43.8293 200.955 42.624 200.187 41.6 199.184L42.4 197.616C43.552 198.64 44.704 199.376 45.856 199.824C47.008 200.272 48.288 200.496 49.696 200.496C51.5093 200.496 52.9173 200.101 53.92 199.312C54.944 198.501 55.456 197.392 55.456 195.984C55.456 195.109 55.2107 194.427 54.72 193.936C54.2507 193.424 53.6107 193.019 52.8 192.72C52.0107 192.421 51.136 192.165 50.176 191.952C49.2373 191.717 48.288 191.461 47.328 191.184C46.368 190.907 45.4827 190.544 44.672 190.096C43.8827 189.648 43.2427 189.051 42.752 188.304C42.2827 187.557 42.048 186.587 42.048 185.392C42.048 184.133 42.3787 183.024 43.04 182.064C43.7013 181.083 44.6187 180.325 45.792 179.792C46.9653 179.237 48.2987 178.96 49.792 178.96C50.752 178.96 51.68 179.077 52.576 179.312C53.4933 179.547 54.3467 179.888 55.136 180.336C55.9467 180.763 56.6613 181.296 57.28 181.936L56.48 183.504C54.6453 181.648 52.416 180.72 49.792 180.72C48.0213 180.72 46.624 181.136 45.6 181.968C44.576 182.8 44.064 183.931 44.064 185.36C44.064 186.32 44.2987 187.077 44.768 187.632C45.2587 188.187 45.9093 188.635 46.72 188.976C47.5307 189.296 48.4053 189.573 49.344 189.808C50.304 190.043 51.2533 190.288 52.192 190.544C53.152 190.8 54.0267 191.141 54.816 191.568C55.6267 191.973 56.2667 192.528 56.736 193.232C57.2267 193.936 57.472 194.843 57.472 195.952C57.472 197.211 57.1413 198.309 56.48 199.248C55.8187 200.187 54.9013 200.923 53.728 201.456C52.5547 201.989 51.2107 202.256 49.696 202.256ZM49.024 205.712V201.904L49.056 200.912V180.176L49.024 179.312V175.504H50.816V179.312L50.784 180.176V200.912L50.816 201.904V205.712H49.024ZM62.6435 202V200.496L70.7395 191.472C71.8702 190.171 72.6915 189.019 73.2035 188.016C73.7368 186.992 74.0035 185.957 74.0035 184.912C74.0035 183.568 73.6088 182.533 72.8195 181.808C72.0515 181.061 70.9422 180.688 69.4915 180.688C68.3395 180.688 67.2195 180.923 66.1315 181.392C65.0648 181.84 63.9982 182.523 62.9315 183.44L62.0995 181.872C62.9955 180.997 64.1155 180.293 65.4595 179.76C66.8035 179.227 68.1475 178.96 69.4915 178.96C70.8355 178.96 71.9875 179.195 72.9475 179.664C73.9288 180.133 74.6862 180.816 75.2195 181.712C75.7528 182.587 76.0195 183.632 76.0195 184.848C76.0195 186.149 75.7102 187.419 75.0915 188.656C74.4942 189.872 73.5128 191.248 72.1475 192.784L64.1155 201.552L64.0835 200.304H77.0115V202H62.6435ZM89.127 202.224C87.6763 202.224 86.2897 201.968 84.967 201.456C83.6443 200.944 82.5137 200.229 81.575 199.312L82.407 197.744C83.4523 198.661 84.519 199.355 85.607 199.824C86.7163 200.272 87.8897 200.496 89.127 200.496C90.791 200.496 92.071 200.101 92.967 199.312C93.8843 198.501 94.343 197.349 94.343 195.856C94.343 194.32 93.863 193.179 92.903 192.432C91.9643 191.664 90.5777 191.28 88.743 191.28H86.279V189.552H88.231C90.023 189.552 91.399 189.136 92.359 188.304C93.3403 187.472 93.831 186.299 93.831 184.784C93.831 183.483 93.4363 182.48 92.647 181.776C91.8577 181.051 90.7483 180.688 89.319 180.688C88.1457 180.688 87.0257 180.923 85.959 181.392C84.8923 181.84 83.8257 182.523 82.759 183.44L81.927 181.872C82.8443 180.955 83.9537 180.24 85.255 179.728C86.5777 179.216 87.943 178.96 89.351 178.96C90.6737 178.96 91.8257 179.195 92.807 179.664C93.7883 180.133 94.535 180.805 95.047 181.68C95.5803 182.533 95.847 183.557 95.847 184.752C95.8257 186.16 95.4417 187.376 94.695 188.4C93.9697 189.424 92.967 190.107 91.687 190.448L91.559 190.128C93.1163 190.448 94.3003 191.099 95.111 192.08C95.9217 193.04 96.327 194.299 96.327 195.856C96.327 197.819 95.6763 199.376 94.375 200.528C93.0737 201.659 91.3243 202.224 89.127 202.224ZM109.594 202.224C108.229 202.224 106.885 201.968 105.562 201.456C104.24 200.944 103.109 200.229 102.17 199.312L103.002 197.744C104.048 198.64 105.114 199.323 106.202 199.792C107.29 200.261 108.421 200.496 109.594 200.496C111.258 200.496 112.57 200.005 113.53 199.024C114.512 198.021 115.002 196.688 115.002 195.024C115.002 193.957 114.789 193.019 114.362 192.208C113.936 191.376 113.328 190.736 112.538 190.288C111.77 189.819 110.853 189.584 109.786 189.584C108.592 189.584 107.546 189.829 106.65 190.32C105.754 190.789 104.976 191.525 104.314 192.528H102.778V179.216H116.154V180.912H104.762V190.928L104.122 190.832C104.72 189.893 105.52 189.157 106.522 188.624C107.525 188.091 108.656 187.824 109.914 187.824C111.386 187.824 112.645 188.133 113.69 188.752C114.757 189.349 115.568 190.192 116.122 191.28C116.698 192.368 116.986 193.616 116.986 195.024C116.986 196.432 116.688 197.68 116.09 198.768C115.493 199.856 114.64 200.709 113.53 201.328C112.421 201.925 111.109 202.224 109.594 202.224ZM122.542 205.424L121.55 204.624C122.062 204.048 122.393 203.525 122.542 203.056C122.691 202.608 122.766 202.139 122.766 201.648L123.438 202H121.518V199.216H124.238V201.296C124.238 202.043 124.11 202.757 123.854 203.44C123.619 204.123 123.182 204.784 122.542 205.424ZM136.644 202.256C134.084 202.256 132.142 201.275 130.82 199.312C129.497 197.328 128.836 194.427 128.836 190.608C128.836 186.768 129.486 183.867 130.788 181.904C132.11 179.941 134.062 178.96 136.644 178.96C139.225 178.96 141.166 179.941 142.468 181.904C143.79 183.867 144.452 186.757 144.452 190.576C144.452 194.395 143.79 197.296 142.468 199.28C141.145 201.264 139.204 202.256 136.644 202.256ZM136.644 200.496C138.606 200.496 140.057 199.696 140.996 198.096C141.956 196.475 142.436 193.968 142.436 190.576C142.436 187.184 141.966 184.699 141.028 183.12C140.089 181.52 138.628 180.72 136.644 180.72C134.681 180.72 133.22 181.52 132.26 183.12C131.321 184.72 130.852 187.205 130.852 190.576C130.852 193.947 131.321 196.443 132.26 198.064C133.22 199.685 134.681 200.496 136.644 200.496ZM156.471 202.256C153.911 202.256 151.97 201.275 150.647 199.312C149.325 197.328 148.663 194.427 148.663 190.608C148.663 186.768 149.314 183.867 150.615 181.904C151.938 179.941 153.89 178.96 156.471 178.96C159.053 178.96 160.994 179.941 162.295 181.904C163.618 183.867 164.279 186.757 164.279 190.576C164.279 194.395 163.618 197.296 162.295 199.28C160.973 201.264 159.031 202.256 156.471 202.256ZM156.471 200.496C158.434 200.496 159.885 199.696 160.823 198.096C161.783 196.475 162.263 193.968 162.263 190.576C162.263 187.184 161.794 184.699 160.855 183.12C159.917 181.52 158.455 180.72 156.471 180.72C154.509 180.72 153.047 181.52 152.087 183.12C151.149 184.72 150.679 187.205 150.679 190.576C150.679 193.947 151.149 196.443 152.087 198.064C153.047 199.685 154.509 200.496 156.471 200.496ZM176.299 202.256C173.739 202.256 171.797 201.275 170.475 199.312C169.152 197.328 168.491 194.427 168.491 190.608C168.491 186.768 169.141 183.867 170.443 181.904C171.765 179.941 173.717 178.96 176.299 178.96C178.88 178.96 180.821 179.941 182.123 181.904C183.445 183.867 184.107 186.757 184.107 190.576C184.107 194.395 183.445 197.296 182.123 199.28C180.8 201.264 178.859 202.256 176.299 202.256ZM176.299 200.496C178.261 200.496 179.712 199.696 180.651 198.096C181.611 196.475 182.091 193.968 182.091 190.576C182.091 187.184 181.621 184.699 180.683 183.12C179.744 181.52 178.283 180.72 176.299 180.72C174.336 180.72 172.875 181.52 171.915 183.12C170.976 184.72 170.507 187.205 170.507 190.576C170.507 193.947 170.976 196.443 171.915 198.064C172.875 199.685 174.336 200.496 176.299 200.496Z" fill="#D3365F"/>
<path d="M41.328 162V150.608H48.56V151.968H42.96V155.536H48.24V156.896H42.96V162H41.328ZM52.9699 162.112C51.9992 162.112 51.2685 161.845 50.7779 161.312C50.2872 160.768 50.0419 159.957 50.0419 158.88V153.936H51.6579V158.864C51.6579 159.525 51.7912 160.016 52.0579 160.336C52.3352 160.645 52.7565 160.8 53.3219 160.8C53.9725 160.8 54.4952 160.587 54.8899 160.16C55.2952 159.733 55.4979 159.168 55.4979 158.464V153.936H57.1139V162H55.5459V160.288L55.7379 160.224C55.5139 160.843 55.1565 161.312 54.6659 161.632C54.1752 161.952 53.6099 162.112 52.9699 162.112ZM59.4493 162V156.208C59.4493 155.835 59.4386 155.456 59.4173 155.072C59.4066 154.688 59.3746 154.309 59.3213 153.936H60.8573L61.0013 155.568L60.8413 155.664C61.0759 155.035 61.4493 154.56 61.9613 154.24C62.4839 153.909 63.0813 153.744 63.7533 153.744C65.6839 153.744 66.6493 154.827 66.6493 156.992V162H65.0333V157.056C65.0333 156.363 64.8946 155.856 64.6173 155.536C64.3399 155.216 63.9133 155.056 63.3373 155.056C62.6439 155.056 62.0893 155.269 61.6733 155.696C61.2679 156.123 61.0653 156.693 61.0653 157.408V162H59.4493ZM76.3256 162H74.7256V159.888L74.9176 160.112C74.7363 160.752 74.3896 161.248 73.8776 161.6C73.3763 161.941 72.7683 162.112 72.0536 162.112C71.3496 162.112 70.7256 161.941 70.1816 161.6C69.6483 161.248 69.2323 160.757 68.9336 160.128C68.635 159.488 68.4856 158.741 68.4856 157.888C68.4856 157.045 68.6296 156.315 68.9176 155.696C69.2163 155.077 69.6323 154.597 70.1656 154.256C70.7096 153.915 71.339 153.744 72.0536 153.744C72.7683 153.744 73.3763 153.92 73.8776 154.272C74.3896 154.624 74.7363 155.115 74.9176 155.744L74.7096 155.936V150.224H76.3256V162ZM72.4376 160.832C73.163 160.832 73.723 160.581 74.1176 160.08C74.523 159.579 74.7256 158.859 74.7256 157.92C74.7256 157.013 74.523 156.309 74.1176 155.808C73.723 155.296 73.163 155.04 72.4376 155.04C71.7016 155.04 71.1256 155.291 70.7096 155.792C70.3043 156.283 70.1016 156.981 70.1016 157.888C70.1016 158.827 70.3043 159.552 70.7096 160.064C71.1256 160.576 71.7016 160.832 72.4376 160.832ZM78.6836 162V156.208C78.6836 155.835 78.673 155.456 78.6516 155.072C78.641 154.688 78.609 154.309 78.5556 153.936H80.0916L80.2836 155.968L80.0916 155.888C80.2303 155.184 80.545 154.651 81.0356 154.288C81.537 153.925 82.097 153.744 82.7156 153.744C82.865 153.744 83.0036 153.755 83.1316 153.776C83.2596 153.797 83.377 153.824 83.4836 153.856L83.4516 155.328C83.1636 155.221 82.849 155.168 82.5076 155.168C81.985 155.168 81.5636 155.28 81.2436 155.504C80.9236 155.717 80.6836 156.005 80.5236 156.368C80.3743 156.72 80.2996 157.099 80.2996 157.504V162H78.6836ZM84.6993 162V153.936H86.3153V162H84.6993ZM84.5872 150.416H86.4593V152.112H84.5872V150.416ZM91.5 162.112C90.092 162.112 88.9773 161.771 88.156 161.088L88.652 159.92C89.0787 160.251 89.5267 160.496 89.996 160.656C90.476 160.805 90.9933 160.88 91.548 160.88C92.1027 160.88 92.524 160.789 92.812 160.608C93.1 160.416 93.244 160.149 93.244 159.808C93.244 159.52 93.1427 159.296 92.94 159.136C92.748 158.965 92.4173 158.821 91.948 158.704L90.588 158.384C89.884 158.235 89.3453 157.973 88.972 157.6C88.6093 157.216 88.428 156.741 88.428 156.176C88.428 155.696 88.5613 155.275 88.828 154.912C89.0947 154.549 89.468 154.267 89.948 154.064C90.428 153.851 90.988 153.744 91.628 153.744C92.204 153.744 92.748 153.835 93.26 154.016C93.772 154.187 94.2147 154.443 94.588 154.784L94.092 155.92C93.6973 155.611 93.292 155.381 92.876 155.232C92.4707 155.072 92.0547 154.992 91.628 154.992C91.1053 154.992 90.7 155.093 90.412 155.296C90.124 155.488 89.98 155.76 89.98 156.112C89.98 156.4 90.0653 156.629 90.236 156.8C90.4173 156.96 90.716 157.088 91.132 157.184L92.492 157.52C93.2707 157.691 93.8413 157.963 94.204 158.336C94.5667 158.709 94.748 159.189 94.748 159.776C94.748 160.491 94.4547 161.061 93.868 161.488C93.292 161.904 92.5027 162.112 91.5 162.112ZM103.389 161.072C103.026 161.392 102.567 161.648 102.013 161.84C101.458 162.021 100.893 162.112 100.317 162.112C99.4634 162.112 98.7274 161.947 98.1088 161.616C97.4901 161.285 97.0154 160.805 96.6848 160.176C96.3541 159.547 96.1888 158.8 96.1888 157.936C96.1888 157.104 96.3488 156.373 96.6688 155.744C96.9994 155.115 97.4528 154.624 98.0288 154.272C98.6048 153.92 99.2714 153.744 100.029 153.744C100.754 153.744 101.378 153.904 101.901 154.224C102.423 154.544 102.823 155.003 103.101 155.6C103.389 156.187 103.533 156.896 103.533 157.728V158H97.5968L97.6128 157.04H102.589L102.125 157.616C102.135 156.752 101.965 156.091 101.613 155.632C101.261 155.173 100.743 154.944 100.061 154.944C99.3461 154.944 98.7861 155.2 98.3808 155.712C97.9754 156.213 97.7728 156.917 97.7728 157.824C97.7728 158.837 97.9914 159.595 98.4288 160.096C98.8661 160.587 99.5061 160.832 100.349 160.832C100.807 160.832 101.25 160.757 101.677 160.608C102.103 160.459 102.509 160.229 102.893 159.92L103.389 161.072Z" fill="#D3365F"/>
<path d="M49.376 97.136V76.048L50.656 77.008L44.672 80.88V78.864L50.24 75.216H51.36V97.136H49.376ZM44.32 98V96.304H56.416V98H44.32ZM62.6435 98V96.496L70.7395 87.472C71.8702 86.1707 72.6915 85.0187 73.2035 84.016C73.7368 82.992 74.0035 81.9573 74.0035 80.912C74.0035 79.568 73.6088 78.5333 72.8195 77.808C72.0515 77.0613 70.9422 76.688 69.4915 76.688C68.3395 76.688 67.2195 76.9227 66.1315 77.392C65.0648 77.84 63.9982 78.5227 62.9315 79.44L62.0995 77.872C62.9955 76.9973 64.1155 76.2933 65.4595 75.76C66.8035 75.2267 68.1475 74.96 69.4915 74.96C70.8355 74.96 71.9875 75.1947 72.9475 75.664C73.9288 76.1333 74.6862 76.816 75.2195 77.712C75.7528 78.5867 76.0195 79.632 76.0195 80.848C76.0195 82.1493 75.7102 83.4187 75.0915 84.656C74.4942 85.872 73.5128 87.248 72.1475 88.784L64.1155 97.552L64.0835 96.304H77.0115V98H62.6435ZM81.863 95.216H84.583V98H81.863V95.216ZM97.5007 98.224C96.1354 98.224 94.7914 97.968 93.4687 97.456C92.1461 96.944 91.0154 96.2293 90.0767 95.312L90.9087 93.744C91.9541 94.64 93.0207 95.3227 94.1087 95.792C95.1967 96.2613 96.3274 96.496 97.5007 96.496C99.1647 96.496 100.477 96.0053 101.437 95.024C102.418 94.0213 102.909 92.688 102.909 91.024C102.909 89.9573 102.695 89.0187 102.269 88.208C101.842 87.376 101.234 86.736 100.445 86.288C99.6767 85.8187 98.7594 85.584 97.6927 85.584C96.4981 85.584 95.4527 85.8293 94.5567 86.32C93.6607 86.7893 92.8821 87.5253 92.2207 88.528H90.6847V75.216H104.061V76.912H92.6687V86.928L92.0287 86.832C92.6261 85.8933 93.4261 85.1573 94.4287 84.624C95.4314 84.0907 96.5621 83.824 97.8207 83.824C99.2927 83.824 100.551 84.1333 101.597 84.752C102.663 85.3493 103.474 86.192 104.029 87.28C104.605 88.368 104.893 89.616 104.893 91.024C104.893 92.432 104.594 93.68 103.997 94.768C103.399 95.856 102.546 96.7093 101.437 97.328C100.327 97.9253 99.0154 98.224 97.5007 98.224ZM113.296 89.008C111.782 89.008 110.587 88.4427 109.712 87.312C108.838 86.16 108.4 84.4 108.4 82.032C108.4 79.6427 108.838 77.8933 109.712 76.784C110.587 75.6533 111.782 75.088 113.296 75.088C114.811 75.088 115.995 75.6533 116.848 76.784C117.723 77.8933 118.16 79.6427 118.16 82.032C118.16 84.4 117.723 86.16 116.848 87.312C115.995 88.4427 114.811 89.008 113.296 89.008ZM113.296 87.472C114.32 87.472 115.067 87.0453 115.536 86.192C116.027 85.3173 116.272 83.9307 116.272 82.032C116.272 80.1547 116.027 78.7893 115.536 77.936C115.067 77.0613 114.32 76.624 113.296 76.624C112.272 76.624 111.515 77.0613 111.024 77.936C110.555 78.7893 110.32 80.1547 110.32 82.032C110.32 83.9307 110.555 85.3173 111.024 86.192C111.515 87.0453 112.272 87.472 113.296 87.472ZM112.944 98L126.128 75.216H127.952L114.8 98H112.944ZM127.6 98.128C126.086 98.128 124.891 97.5627 124.016 96.432C123.142 95.28 122.704 93.52 122.704 91.152C122.704 88.7627 123.142 87.0133 124.016 85.904C124.891 84.7733 126.086 84.208 127.6 84.208C129.115 84.208 130.299 84.7733 131.152 85.904C132.027 87.0133 132.464 88.7627 132.464 91.152C132.464 93.52 132.027 95.28 131.152 96.432C130.299 97.5627 129.115 98.128 127.6 98.128ZM127.6 96.592C128.624 96.592 129.371 96.1653 129.84 95.312C130.331 94.4373 130.576 93.0507 130.576 91.152C130.576 89.2747 130.331 87.9093 129.84 87.056C129.371 86.1813 128.624 85.744 127.6 85.744C126.576 85.744 125.819 86.1813 125.328 87.056C124.859 87.9093 124.624 89.2747 124.624 91.152C124.624 93.0507 124.859 94.4373 125.328 95.312C125.819 96.1653 126.576 96.592 127.6 96.592Z" fill="#235EE7"/>
<path d="M41.328 58V46.608H46.048C47.2533 46.608 48.1867 46.896 48.848 47.472C49.52 48.048 49.856 48.8427 49.856 49.856C49.856 50.848 49.52 51.6373 48.848 52.224C48.176 52.8107 47.2427 53.104 46.048 53.104H42.976V58H41.328ZM42.976 51.792H45.888C46.6773 51.792 47.2693 51.6267 47.664 51.296C48.0587 50.9547 48.256 50.4747 48.256 49.856C48.256 49.2373 48.0587 48.7627 47.664 48.432C47.2693 48.1013 46.6773 47.936 45.888 47.936H42.976V51.792ZM54.906 58.112C54.106 58.112 53.4073 57.9413 52.81 57.6C52.2233 57.2587 51.77 56.7787 51.45 56.16C51.13 55.5307 50.97 54.784 50.97 53.92C50.97 53.0773 51.13 52.3413 51.45 51.712C51.77 51.0827 52.2233 50.5973 52.81 50.256C53.4073 49.9147 54.106 49.744 54.906 49.744C55.6953 49.744 56.3833 49.9147 56.97 50.256C57.5673 50.5973 58.026 51.0827 58.346 51.712C58.6767 52.3413 58.842 53.0773 58.842 53.92C58.842 54.784 58.6767 55.5307 58.346 56.16C58.026 56.7787 57.5673 57.2587 56.97 57.6C56.3833 57.9413 55.6953 58.112 54.906 58.112ZM54.906 56.832C55.6313 56.832 56.1913 56.5867 56.586 56.096C56.9913 55.6053 57.194 54.88 57.194 53.92C57.194 52.992 56.9913 52.2827 56.586 51.792C56.1913 51.2907 55.6313 51.04 54.906 51.04C54.1807 51.04 53.61 51.2907 53.194 51.792C52.7887 52.2827 52.586 52.992 52.586 53.92C52.586 54.88 52.7833 55.6053 53.178 56.096C53.5833 56.5867 54.1593 56.832 54.906 56.832ZM60.7149 58V52.208C60.7149 51.8347 60.7042 51.456 60.6829 51.072C60.6722 50.688 60.6402 50.3093 60.5869 49.936H62.1229L62.3149 51.968L62.1229 51.888C62.2615 51.184 62.5762 50.6507 63.0669 50.288C63.5682 49.9253 64.1282 49.744 64.7469 49.744C64.8962 49.744 65.0349 49.7547 65.1629 49.776C65.2909 49.7973 65.4082 49.824 65.5149 49.856L65.4829 51.328C65.1949 51.2213 64.8802 51.168 64.5389 51.168C64.0162 51.168 63.5949 51.28 63.2749 51.504C62.9549 51.7173 62.7149 52.0053 62.5549 52.368C62.4055 52.72 62.3309 53.0987 62.3309 53.504V58H60.7149ZM66.346 51.184V49.936H71.754V51.184H66.346ZM71.738 56.624V57.936C71.546 58 71.354 58.0427 71.162 58.064C70.97 58.096 70.762 58.112 70.538 58.112C69.7167 58.112 69.0713 57.8827 68.602 57.424C68.1433 56.9547 67.914 56.2667 67.914 55.36V47.92L69.53 47.36V55.232C69.53 55.6267 69.5887 55.936 69.706 56.16C69.8233 56.3733 69.9833 56.528 70.186 56.624C70.3993 56.7093 70.634 56.752 70.89 56.752C71.0393 56.752 71.178 56.7413 71.306 56.72C71.434 56.6987 71.578 56.6667 71.738 56.624ZM72.2835 51.184V49.936H77.3395V51.184H72.2835ZM77.5955 47.648C77.2968 47.5627 77.0248 47.52 76.7795 47.52C76.5342 47.52 76.3102 47.568 76.1075 47.664C75.9048 47.7493 75.7448 47.904 75.6275 48.128C75.5102 48.352 75.4515 48.656 75.4515 49.04V58H73.8355V48.912C73.8355 48.0053 74.0595 47.3227 74.5075 46.864C74.9662 46.3947 75.6062 46.16 76.4275 46.16C76.6302 46.16 76.8275 46.1707 77.0195 46.192C77.2115 46.2133 77.4035 46.256 77.5955 46.32V47.648ZM82.3748 58.112C81.5748 58.112 80.8761 57.9413 80.2788 57.6C79.6921 57.2587 79.2388 56.7787 78.9188 56.16C78.5988 55.5307 78.4388 54.784 78.4388 53.92C78.4388 53.0773 78.5988 52.3413 78.9188 51.712C79.2388 51.0827 79.6921 50.5973 80.2788 50.256C80.8761 49.9147 81.5748 49.744 82.3748 49.744C83.1641 49.744 83.8521 49.9147 84.4388 50.256C85.0361 50.5973 85.4948 51.0827 85.8148 51.712C86.1454 52.3413 86.3108 53.0773 86.3108 53.92C86.3108 54.784 86.1454 55.5307 85.8148 56.16C85.4948 56.7787 85.0361 57.2587 84.4388 57.6C83.8521 57.9413 83.1641 58.112 82.3748 58.112ZM82.3748 56.832C83.1001 56.832 83.6601 56.5867 84.0548 56.096C84.4601 55.6053 84.6628 54.88 84.6628 53.92C84.6628 52.992 84.4601 52.2827 84.0548 51.792C83.6601 51.2907 83.1001 51.04 82.3748 51.04C81.6494 51.04 81.0788 51.2907 80.6628 51.792C80.2574 52.2827 80.0548 52.992 80.0548 53.92C80.0548 54.88 80.2521 55.6053 80.6468 56.096C81.0521 56.5867 81.6281 56.832 82.3748 56.832ZM88.1836 58V46.224H89.7996V58H88.1836ZM92.1524 58V49.936H93.7684V58H92.1524ZM92.0404 46.416H93.9124V48.112H92.0404V46.416ZM99.6091 58.112C98.8091 58.112 98.1105 57.9413 97.5131 57.6C96.9265 57.2587 96.4731 56.7787 96.1531 56.16C95.8331 55.5307 95.6731 54.784 95.6731 53.92C95.6731 53.0773 95.8331 52.3413 96.1531 51.712C96.4731 51.0827 96.9265 50.5973 97.5131 50.256C98.1105 49.9147 98.8091 49.744 99.6091 49.744C100.398 49.744 101.086 49.9147 101.673 50.256C102.27 50.5973 102.729 51.0827 103.049 51.712C103.38 52.3413 103.545 53.0773 103.545 53.92C103.545 54.784 103.38 55.5307 103.049 56.16C102.729 56.7787 102.27 57.2587 101.673 57.6C101.086 57.9413 100.398 58.112 99.6091 58.112ZM99.6091 56.832C100.334 56.832 100.894 56.5867 101.289 56.096C101.694 55.6053 101.897 54.88 101.897 53.92C101.897 52.992 101.694 52.2827 101.289 51.792C100.894 51.2907 100.334 51.04 99.6091 51.04C98.8838 51.04 98.3131 51.2907 97.8971 51.792C97.4918 52.2827 97.2891 52.992 97.2891 53.92C97.2891 54.88 97.4865 55.6053 97.8811 56.096C98.2865 56.5867 98.8625 56.832 99.6091 56.832Z" fill="#235EE7"/>
<defs>
<filter id="filter0_di" x="0" y="0" width="1060" height="370" filterUnits="userSpaceOnUse" color-interpolation-filters="sRGB">
<feFlood flood-opacity="0" result="BackgroundImageFix"/>
<feColorMatrix in="SourceAlpha" type="matrix" values="0 0 0 0 0 0 0 0 0 0 0 0 0 0 0 0 0 0 127 0"/>
<feOffset dy="2"/>
<feGaussianBlur stdDeviation="4"/>
<feColorMatrix type="matrix" values="0 0 0 0 0.888 0 0 0 0 0.911467 0 0 0 0 0.952 0 0 0 1 0"/>
<feBlend mode="normal" in2="BackgroundImageFix" result="effect1_dropShadow"/>
<feBlend mode="normal" in="SourceGraphic" in2="effect1_dropShadow" result="shape"/>
<feColorMatrix in="SourceAlpha" type="matrix" values="0 0 0 0 0 0 0 0 0 0 0 0 0 0 0 0 0 0 127 0" result="hardAlpha"/>
<feOffset dy="-1"/>
<feComposite in2="hardAlpha" operator="arithmetic" k2="-1" k3="1"/>
<feColorMatrix type="matrix" values="0 0 0 0 0.921569 0 0 0 0 0.92549 0 0 0 0 0.945098 0 0 0 1 0"/>
<feBlend mode="normal" in2="shape" result="effect2_innerShadow"/>
</filter>
<linearGradient id="paint0_linear" x1="589" y1="125" x2="589" y2="294" gradientUnits="userSpaceOnUse">
<stop stop-color="#D3365F"/>
<stop offset="1" stop-color="#D3365F" stop-opacity="0"/>
</linearGradient>
<linearGradient id="paint1_linear" x1="589" y1="89" x2="589" y2="294" gradientUnits="userSpaceOnUse">
<stop stop-color="#235EE7"/>
<stop offset="1" stop-color="#235EE7" stop-opacity="0"/>
</linearGradient>
<linearGradient id="paint2_linear" x1="589" y1="89" x2="589" y2="294" gradientUnits="userSpaceOnUse">
<stop stop-color="#235EE7"/>
<stop offset="1" stop-color="#235EE7" stop-opacity="0"/>
</linearGradient>
</defs>
</svg>
