<?xml version="1.0" encoding="UTF-8"?>
<svg width="707px" height="257px" viewBox="0 0 707 257" version="1.1" xmlns="http://www.w3.org/2000/svg" xmlns:xlink="http://www.w3.org/1999/xlink">
    <title>synced-or-manual</title>
    <defs>
        <rect id="path-1" x="0" y="0" width="3" height="149"></rect>
    </defs>
    <g id="Page-1" stroke="none" stroke-width="1" fill="none" fill-rule="evenodd">
        <g id="synced-or-manual">
            <rect id="Rectangle" fill="#FFFFFF" fill-rule="nonzero" x="0" y="108" width="697" height="149" rx="6"></rect>
            <g id="Clipped" transform="translate(0.000000, 108.000000)">
                <mask id="mask-2" fill="white">
                    <use xlink:href="#path-1"></use>
                </mask>
                <g id="Rectangle"></g>
                <rect id="Rectangle" fill="#235EE7" fill-rule="nonzero" mask="url(#mask-2)" x="0" y="0" width="12" height="149" rx="6"></rect>
            </g>
            <path d="M649.529,202.471 C649.223,202.167 648.808,201.997 648.377,201.999961 C647.945,202.003 647.533,202.178 647.231,202.487 L640.787,208.931 L640,212 L643.069,211.213 L649.513,204.769 C649.822,204.467 649.997,204.055 650.000039,203.623 C650.003,203.192 649.833,202.777 649.529,202.471 Z" id="Path" stroke="#534CEA" stroke-width="1.5" stroke-linecap="round" stroke-linejoin="round"></path>
            <circle id="Oval" stroke="#534CEA" stroke-width="1.5" stroke-linecap="round" stroke-linejoin="round" cx="645" cy="207" r="11.25"></circle>
            <path d="M506.832,209.128 C506.011,209.128 505.243,209.005 504.528,208.76 C503.824,208.515 503.211,208.157 502.688,207.688 L503.216,206.568 C503.781,207.037 504.347,207.379 504.912,207.592 C505.488,207.795 506.117,207.896 506.8,207.896 C507.632,207.896 508.272,207.725 508.72,207.384 C509.179,207.032 509.408,206.547 509.408,205.928 C509.408,205.544 509.291,205.24 509.056,205.016 C508.821,204.792 508.507,204.611 508.112,204.472 C507.728,204.323 507.301,204.195 506.832,204.088 C506.373,203.981 505.909,203.859 505.44,203.72 C504.981,203.571 504.555,203.384 504.16,203.16 C503.776,202.925 503.467,202.621 503.232,202.248 C502.997,201.875 502.88,201.389 502.88,200.792 C502.88,200.141 503.051,199.571 503.392,199.08 C503.744,198.579 504.224,198.189 504.832,197.912 C505.451,197.624 506.149,197.48 506.928,197.48 C507.419,197.48 507.899,197.539 508.368,197.656 C508.837,197.763 509.275,197.923 509.68,198.136 C510.096,198.339 510.453,198.589 510.752,198.888 L510.224,200.008 C509.264,199.144 508.171,198.712 506.944,198.712 C506.155,198.712 505.531,198.893 505.072,199.256 C504.613,199.608 504.384,200.099 504.384,200.728 C504.384,201.144 504.501,201.48 504.736,201.736 C504.971,201.992 505.28,202.195 505.664,202.344 C506.059,202.493 506.485,202.621 506.944,202.728 C507.413,202.835 507.877,202.957 508.336,203.096 C508.805,203.235 509.232,203.411 509.616,203.624 C510.011,203.837 510.32,204.125 510.544,204.488 C510.779,204.851 510.896,205.315 510.896,205.88 C510.896,206.531 510.725,207.101 510.384,207.592 C510.043,208.072 509.563,208.451 508.944,208.728 C508.336,208.995 507.632,209.128 506.832,209.128 Z M506.336,210.856 L506.336,208.872 L506.4,208.168 L506.4,198.296 L506.336,197.704 L506.336,195.752 L507.584,195.752 L507.584,197.704 L507.52,198.296 L507.52,208.168 L507.584,208.872 L507.584,210.856 L506.336,210.856 Z M514.89,209 L513.306,209 L518.874,198.28 L518.97,198.84 L512.586,198.84 L512.586,197.608 L520.202,197.608 L520.202,198.712 L514.89,209 Z M522.916,210.904 L522.26,210.408 C522.558,210.088 522.761,209.795 522.868,209.528 C522.974,209.261 523.028,208.984 523.028,208.696 L523.444,209 L522.18,209 L522.18,207.224 L523.956,207.224 L523.956,208.456 C523.956,208.915 523.881,209.341 523.732,209.736 C523.582,210.131 523.31,210.52 522.916,210.904 Z M526.233,209 L526.233,207.88 L530.201,203.528 C530.713,202.952 531.086,202.435 531.321,201.976 C531.566,201.507 531.689,201.037 531.689,200.568 C531.689,199.971 531.513,199.512 531.161,199.192 C530.809,198.861 530.313,198.696 529.673,198.696 C529.129,198.696 528.59,198.808 528.057,199.032 C527.524,199.245 526.996,199.565 526.473,199.992 L525.929,198.872 C526.377,198.445 526.942,198.109 527.625,197.864 C528.318,197.608 529.012,197.48 529.705,197.48 C530.42,197.48 531.033,197.603 531.545,197.848 C532.057,198.083 532.457,198.429 532.745,198.888 C533.033,199.336 533.177,199.869 533.177,200.488 C533.177,201.139 533.028,201.763 532.729,202.36 C532.441,202.957 531.961,203.629 531.289,204.376 L527.529,208.424 L527.401,207.768 L533.641,207.768 L533.641,209 L526.233,209 Z M539.219,209.112 C538.472,209.112 537.758,208.995 537.075,208.76 C536.392,208.515 535.816,208.168 535.347,207.72 L535.907,206.6 C536.408,207.027 536.931,207.352 537.475,207.576 C538.019,207.789 538.584,207.896 539.171,207.896 C539.96,207.896 540.558,207.725 540.963,207.384 C541.368,207.032 541.571,206.515 541.571,205.832 C541.571,205.16 541.363,204.659 540.947,204.328 C540.531,203.997 539.896,203.832 539.043,203.832 L537.683,203.832 L537.683,202.6 L538.787,202.6 C539.608,202.6 540.232,202.424 540.659,202.072 C541.086,201.72 541.299,201.213 541.299,200.552 C541.299,199.955 541.118,199.496 540.755,199.176 C540.403,198.856 539.902,198.696 539.251,198.696 C538.696,198.696 538.152,198.808 537.619,199.032 C537.096,199.245 536.579,199.565 536.067,199.992 L535.523,198.872 C535.982,198.435 536.547,198.093 537.219,197.848 C537.902,197.603 538.6,197.48 539.315,197.48 C540.019,197.48 540.627,197.603 541.139,197.848 C541.662,198.083 542.062,198.424 542.339,198.872 C542.627,199.309 542.771,199.827 542.771,200.424 C542.771,201.128 542.584,201.725 542.211,202.216 C541.848,202.707 541.347,203.043 540.707,203.224 L540.675,203.064 C541.432,203.224 542.014,203.549 542.419,204.04 C542.824,204.531 543.027,205.155 543.027,205.912 C543.027,206.904 542.68,207.688 541.987,208.264 C541.304,208.829 540.382,209.112 539.219,209.112 Z M549.085,209.112 C548.381,209.112 547.687,208.989 547.005,208.744 C546.333,208.499 545.767,208.157 545.309,207.72 L545.853,206.6 C546.375,207.027 546.903,207.352 547.437,207.576 C547.97,207.789 548.519,207.896 549.085,207.896 C549.863,207.896 550.471,207.683 550.909,207.256 C551.346,206.819 551.565,206.221 551.565,205.464 C551.565,204.984 551.463,204.563 551.261,204.2 C551.069,203.837 550.791,203.555 550.429,203.352 C550.077,203.139 549.661,203.032 549.181,203.032 C548.658,203.032 548.183,203.139 547.757,203.352 C547.33,203.555 546.957,203.864 546.637,204.28 L545.645,204.28 L545.645,197.608 L552.541,197.608 L552.541,198.808 L547.117,198.808 L547.117,203.224 L546.653,203.176 C546.962,202.739 547.357,202.403 547.837,202.168 C548.317,201.933 548.855,201.816 549.453,201.816 C550.178,201.816 550.807,201.971 551.341,202.28 C551.874,202.579 552.285,203 552.573,203.544 C552.861,204.088 553.005,204.717 553.005,205.432 C553.005,206.157 552.845,206.797 552.525,207.352 C552.205,207.907 551.751,208.339 551.165,208.648 C550.578,208.957 549.885,209.112 549.085,209.112 Z" id="Shape" fill="#434A55" fill-rule="nonzero"></path>
            <path d="M101.376,212 L101.376,200.608 L102.848,200.608 L102.848,210.752 L108.48,210.752 L108.48,212 L101.376,212 Z M116.622,211.056 C116.27,211.387 115.817,211.648 115.262,211.84 C114.707,212.021 114.142,212.112 113.566,212.112 C112.723,212.112 111.998,211.947 111.39,211.616 C110.782,211.285 110.313,210.811 109.982,210.192 C109.651,209.563 109.486,208.816 109.486,207.952 C109.486,207.12 109.646,206.389 109.966,205.76 C110.297,205.131 110.75,204.64 111.326,204.288 C111.902,203.925 112.563,203.744 113.31,203.744 C114.035,203.744 114.654,203.904 115.166,204.224 C115.689,204.544 116.083,205.003 116.35,205.6 C116.627,206.187 116.766,206.891 116.766,207.712 L116.766,207.968 L110.766,207.968 L110.766,207.072 L115.934,207.072 L115.486,207.648 C115.507,206.741 115.331,206.048 114.958,205.568 C114.585,205.088 114.041,204.848 113.326,204.848 C112.579,204.848 111.993,205.115 111.566,205.648 C111.15,206.171 110.942,206.907 110.942,207.856 C110.942,208.88 111.166,209.653 111.614,210.176 C112.062,210.688 112.723,210.944 113.598,210.944 C114.067,210.944 114.515,210.869 114.942,210.72 C115.369,210.56 115.774,210.325 116.158,210.016 L116.622,211.056 Z M122.253,215.568 C121.026,215.568 119.959,215.296 119.053,214.752 L119.309,213.584 C119.81,213.872 120.285,214.08 120.733,214.208 C121.191,214.336 121.698,214.4 122.253,214.4 C123.01,214.4 123.581,214.197 123.965,213.792 C124.359,213.397 124.557,212.805 124.557,212.016 L124.557,209.872 L124.733,209.712 C124.605,210.128 124.402,210.491 124.125,210.8 C123.858,211.099 123.527,211.333 123.133,211.504 C122.749,211.675 122.306,211.76 121.805,211.76 C121.101,211.76 120.477,211.595 119.933,211.264 C119.389,210.923 118.962,210.453 118.653,209.856 C118.354,209.259 118.205,208.56 118.205,207.76 C118.205,206.96 118.354,206.261 118.653,205.664 C118.962,205.056 119.389,204.587 119.933,204.256 C120.477,203.915 121.101,203.744 121.805,203.744 C122.541,203.744 123.165,203.925 123.677,204.288 C124.199,204.651 124.551,205.152 124.733,205.792 L124.541,205.664 L124.541,203.952 L125.997,203.952 L125.997,211.888 C125.997,213.115 125.677,214.032 125.037,214.64 C124.407,215.259 123.479,215.568 122.253,215.568 Z M122.125,210.56 C122.882,210.56 123.474,210.315 123.901,209.824 C124.327,209.323 124.541,208.635 124.541,207.76 C124.541,206.885 124.327,206.197 123.901,205.696 C123.474,205.195 122.882,204.944 122.125,204.944 C121.367,204.944 120.77,205.195 120.333,205.696 C119.895,206.197 119.677,206.885 119.677,207.76 C119.677,208.645 119.895,209.333 120.333,209.824 C120.77,210.315 121.367,210.56 122.125,210.56 Z M131.811,212.112 C131.032,212.112 130.35,211.941 129.763,211.6 C129.187,211.259 128.739,210.779 128.419,210.16 C128.099,209.531 127.939,208.789 127.939,207.936 C127.939,207.093 128.099,206.357 128.419,205.728 C128.739,205.088 129.187,204.597 129.763,204.256 C130.35,203.915 131.032,203.744 131.811,203.744 C132.6,203.744 133.283,203.915 133.859,204.256 C134.435,204.597 134.883,205.088 135.203,205.728 C135.523,206.357 135.683,207.093 135.683,207.936 C135.683,208.789 135.523,209.531 135.203,210.16 C134.883,210.779 134.435,211.259 133.859,211.6 C133.283,211.941 132.6,212.112 131.811,212.112 Z M131.811,210.928 C132.579,210.928 133.171,210.677 133.587,210.176 C134.003,209.664 134.211,208.917 134.211,207.936 C134.211,206.965 133.998,206.224 133.571,205.712 C133.155,205.2 132.568,204.944 131.811,204.944 C131.064,204.944 130.478,205.2 130.051,205.712 C129.624,206.224 129.411,206.965 129.411,207.936 C129.411,208.917 129.619,209.664 130.035,210.176 C130.451,210.677 131.043,210.928 131.811,210.928 Z M145.312,212.112 C144.502,212.112 143.803,211.941 143.216,211.6 C142.64,211.259 142.192,210.779 141.872,210.16 C141.552,209.541 141.392,208.811 141.392,207.968 C141.392,207.136 141.552,206.4 141.872,205.76 C142.203,205.12 142.667,204.624 143.264,204.272 C143.862,203.92 144.566,203.744 145.376,203.744 C145.931,203.744 146.464,203.84 146.976,204.032 C147.488,204.213 147.91,204.469 148.24,204.8 L147.776,205.856 C147.392,205.557 147.008,205.333 146.624,205.184 C146.251,205.024 145.862,204.944 145.456,204.944 C144.678,204.944 144.054,205.205 143.584,205.728 C143.126,206.251 142.896,206.997 142.896,207.968 C142.896,208.917 143.126,209.648 143.584,210.16 C144.043,210.672 144.672,210.928 145.472,210.928 C145.856,210.928 146.24,210.853 146.624,210.704 C147.008,210.555 147.392,210.325 147.776,210.016 L148.24,211.072 C147.899,211.392 147.467,211.648 146.944,211.84 C146.422,212.021 145.878,212.112 145.312,212.112 Z M153.217,212.112 C152.439,212.112 151.756,211.941 151.169,211.6 C150.593,211.259 150.145,210.779 149.825,210.16 C149.505,209.531 149.345,208.789 149.345,207.936 C149.345,207.093 149.505,206.357 149.825,205.728 C150.145,205.088 150.593,204.597 151.169,204.256 C151.756,203.915 152.439,203.744 153.217,203.744 C154.007,203.744 154.689,203.915 155.265,204.256 C155.841,204.597 156.289,205.088 156.609,205.728 C156.929,206.357 157.089,207.093 157.089,207.936 C157.089,208.789 156.929,209.531 156.609,210.16 C156.289,210.779 155.841,211.259 155.265,211.6 C154.689,211.941 154.007,212.112 153.217,212.112 Z M153.217,210.928 C153.985,210.928 154.577,210.677 154.993,210.176 C155.409,209.664 155.617,208.917 155.617,207.936 C155.617,206.965 155.404,206.224 154.977,205.712 C154.561,205.2 153.975,204.944 153.217,204.944 C152.471,204.944 151.884,205.2 151.457,205.712 C151.031,206.224 150.817,206.965 150.817,207.936 C150.817,208.917 151.025,209.664 151.441,210.176 C151.857,210.677 152.449,210.928 153.217,210.928 Z M159.06,212 L159.06,200.224 L160.516,200.224 L160.516,212 L159.06,212 Z M162.95,212 L162.95,200.224 L164.406,200.224 L164.406,212 L162.95,212 Z M173.497,211.056 C173.145,211.387 172.692,211.648 172.137,211.84 C171.582,212.021 171.017,212.112 170.441,212.112 C169.598,212.112 168.873,211.947 168.265,211.616 C167.657,211.285 167.188,210.811 166.857,210.192 C166.526,209.563 166.361,208.816 166.361,207.952 C166.361,207.12 166.521,206.389 166.841,205.76 C167.172,205.131 167.625,204.64 168.201,204.288 C168.777,203.925 169.438,203.744 170.185,203.744 C170.91,203.744 171.529,203.904 172.041,204.224 C172.564,204.544 172.958,205.003 173.225,205.6 C173.502,206.187 173.641,206.891 173.641,207.712 L173.641,207.968 L167.641,207.968 L167.641,207.072 L172.809,207.072 L172.361,207.648 C172.382,206.741 172.206,206.048 171.833,205.568 C171.46,205.088 170.916,204.848 170.201,204.848 C169.454,204.848 168.868,205.115 168.441,205.648 C168.025,206.171 167.817,206.907 167.817,207.856 C167.817,208.88 168.041,209.653 168.489,210.176 C168.937,210.688 169.598,210.944 170.473,210.944 C170.942,210.944 171.39,210.869 171.817,210.72 C172.244,210.56 172.649,210.325 173.033,210.016 L173.497,211.056 Z M179,212.112 C178.189,212.112 177.49,211.941 176.904,211.6 C176.328,211.259 175.88,210.779 175.56,210.16 C175.24,209.541 175.08,208.811 175.08,207.968 C175.08,207.136 175.24,206.4 175.56,205.76 C175.89,205.12 176.354,204.624 176.952,204.272 C177.549,203.92 178.253,203.744 179.064,203.744 C179.618,203.744 180.152,203.84 180.664,204.032 C181.176,204.213 181.597,204.469 181.928,204.8 L181.464,205.856 C181.08,205.557 180.696,205.333 180.312,205.184 C179.938,205.024 179.549,204.944 179.144,204.944 C178.365,204.944 177.741,205.205 177.272,205.728 C176.813,206.251 176.584,206.997 176.584,207.968 C176.584,208.917 176.813,209.648 177.272,210.16 C177.73,210.672 178.36,210.928 179.16,210.928 C179.544,210.928 179.928,210.853 180.312,210.704 C180.696,210.555 181.08,210.325 181.464,210.016 L181.928,211.072 C181.586,211.392 181.154,211.648 180.632,211.84 C180.109,212.021 179.565,212.112 179,212.112 Z M182.425,205.072 L182.425,203.952 L187.705,203.952 L187.705,205.072 L182.425,205.072 Z M187.673,210.736 L187.673,211.952 C187.491,212.005 187.305,212.043 187.113,212.064 C186.931,212.096 186.734,212.112 186.521,212.112 C185.731,212.112 185.107,211.888 184.649,211.44 C184.201,210.992 183.977,210.331 183.977,209.456 L183.977,201.904 L185.433,201.392 L185.433,209.296 C185.433,209.712 185.491,210.037 185.609,210.272 C185.737,210.496 185.902,210.656 186.105,210.752 C186.318,210.837 186.558,210.88 186.825,210.88 C186.974,210.88 187.113,210.869 187.241,210.848 C187.369,210.827 187.513,210.789 187.673,210.736 Z M192.335,212.112 C191.631,212.112 191.007,211.947 190.463,211.616 C189.93,211.275 189.514,210.795 189.215,210.176 C188.917,209.547 188.767,208.811 188.767,207.968 C188.767,207.125 188.917,206.389 189.215,205.76 C189.525,205.131 189.946,204.64 190.479,204.288 C191.023,203.925 191.642,203.744 192.335,203.744 C193.061,203.744 193.679,203.925 194.191,204.288 C194.703,204.64 195.05,205.147 195.231,205.808 L195.039,205.92 L195.039,203.952 L196.479,203.952 L196.479,212 L195.039,212 L195.039,209.984 L195.231,210.064 C195.05,210.715 194.703,211.221 194.191,211.584 C193.679,211.936 193.061,212.112 192.335,212.112 Z M192.655,210.928 C193.423,210.928 194.01,210.672 194.415,210.16 C194.831,209.637 195.039,208.896 195.039,207.936 C195.039,206.976 194.831,206.24 194.415,205.728 C193.999,205.205 193.413,204.944 192.655,204.944 C191.898,204.944 191.306,205.211 190.879,205.744 C190.453,206.277 190.239,207.019 190.239,207.968 C190.239,208.917 190.453,209.648 190.879,210.16 C191.306,210.672 191.898,210.928 192.655,210.928 Z M198.904,212 L198.904,200.224 L200.36,200.224 L200.36,205.984 L200.168,205.792 C200.349,205.152 200.696,204.651 201.208,204.288 C201.72,203.925 202.333,203.744 203.048,203.744 C203.762,203.744 204.386,203.915 204.92,204.256 C205.453,204.597 205.869,205.083 206.168,205.712 C206.477,206.331 206.632,207.061 206.632,207.904 C206.632,208.747 206.477,209.488 206.168,210.128 C205.869,210.757 205.448,211.248 204.904,211.6 C204.37,211.941 203.752,212.112 203.048,212.112 C202.333,212.112 201.72,211.936 201.208,211.584 C200.696,211.221 200.349,210.715 200.168,210.064 L200.344,209.872 L200.344,212 L198.904,212 Z M202.744,210.928 C203.501,210.928 204.088,210.667 204.504,210.144 C204.92,209.611 205.128,208.864 205.128,207.904 C205.128,206.965 204.92,206.24 204.504,205.728 C204.088,205.205 203.501,204.944 202.744,204.944 C201.976,204.944 201.384,205.205 200.968,205.728 C200.552,206.251 200.344,206.987 200.344,207.936 C200.344,208.896 200.552,209.637 200.968,210.16 C201.384,210.672 201.976,210.928 202.744,210.928 Z M208.56,212 L208.56,200.224 L210.016,200.224 L210.016,212 L208.56,212 Z M219.106,211.056 C218.754,211.387 218.301,211.648 217.746,211.84 C217.192,212.021 216.626,212.112 216.05,212.112 C215.208,212.112 214.482,211.947 213.874,211.616 C213.266,211.285 212.797,210.811 212.466,210.192 C212.136,209.563 211.97,208.816 211.97,207.952 C211.97,207.12 212.13,206.389 212.45,205.76 C212.781,205.131 213.234,204.64 213.81,204.288 C214.386,203.925 215.048,203.744 215.794,203.744 C216.52,203.744 217.138,203.904 217.65,204.224 C218.173,204.544 218.568,205.003 218.834,205.6 C219.112,206.187 219.25,206.891 219.25,207.712 L219.25,207.968 L213.25,207.968 L213.25,207.072 L218.418,207.072 L217.97,207.648 C217.992,206.741 217.816,206.048 217.442,205.568 C217.069,205.088 216.525,204.848 215.81,204.848 C215.064,204.848 214.477,205.115 214.05,205.648 C213.634,206.171 213.426,206.907 213.426,207.856 C213.426,208.88 213.65,209.653 214.098,210.176 C214.546,210.688 215.208,210.944 216.082,210.944 C216.552,210.944 217,210.869 217.426,210.72 C217.853,210.56 218.258,210.325 218.642,210.016 L219.106,211.056 Z M223.937,212.112 C222.561,212.112 221.468,211.765 220.657,211.072 L221.121,210.016 C221.548,210.347 221.99,210.592 222.449,210.752 C222.918,210.901 223.43,210.976 223.985,210.976 C224.561,210.976 224.998,210.88 225.297,210.688 C225.606,210.485 225.761,210.197 225.761,209.824 C225.761,209.525 225.654,209.291 225.441,209.12 C225.238,208.939 224.897,208.789 224.417,208.672 L223.073,208.352 C222.38,208.203 221.846,207.936 221.473,207.552 C221.11,207.168 220.929,206.704 220.929,206.16 C220.929,205.691 221.057,205.275 221.313,204.912 C221.58,204.549 221.948,204.267 222.417,204.064 C222.886,203.851 223.441,203.744 224.081,203.744 C224.646,203.744 225.18,203.835 225.681,204.016 C226.193,204.197 226.625,204.459 226.977,204.8 L226.513,205.84 C226.129,205.52 225.734,205.285 225.329,205.136 C224.924,204.976 224.502,204.896 224.065,204.896 C223.521,204.896 223.094,205.003 222.785,205.216 C222.486,205.429 222.337,205.717 222.337,206.08 C222.337,206.389 222.433,206.635 222.625,206.816 C222.817,206.997 223.121,207.141 223.537,207.248 L224.897,207.584 C225.665,207.744 226.23,208.011 226.593,208.384 C226.956,208.747 227.137,209.216 227.137,209.792 C227.137,210.496 226.849,211.061 226.273,211.488 C225.697,211.904 224.918,212.112 223.937,212.112 Z" id="Shape" fill="#434A55" fill-rule="nonzero"></path>
            <rect id="Rectangle" fill="#534CEA" fill-rule="nonzero" x="40" y="183" width="40" height="40" rx="20"></rect>
            <path d="M60,213 C54.4772,213 50,208.75 50,203.507 C50,201.81 50.4691,200.217 51.2909,198.838 M60,213 C65.5228,213 70,208.75 70,203.507 L60,203.507 M60,213 L60,203.507 M60,194.013 C57.2743,194.013 54.8033,195.049 52.9995,196.728 C53.059,196.789 57.6913,201.272 60,203.507 M60,194.013 C62.7257,194.013 65.1967,195.049 67.0005,196.728 L60,203.507 M60,194.013 L63.5302,192 L68.6738,198.779 L60,203.507 M60,194.013 L56.4027,192 L51.2909,198.838 M60,203.507 L51.2909,198.838" id="Shape" stroke="#FFFFFF"></path>
            <path d="M651.728,151.69 C649.12,155.783 643.899,157.335 639.479,155.332 C635.058,153.328 632.783,148.38 634.141,143.721 C635.499,139.061 640.076,136.11 644.881,136.795 C649.685,137.48 653.255,141.594 653.256,146.447 L653.256,148.7 M656.256,145.697 L653.256,148.697 L650.256,145.697" id="Shape" stroke="#969EAC" stroke-width="1.5" stroke-linecap="round" stroke-linejoin="round"></path>
            <path d="M443.204,148 L443.204,138.032 L444.492,138.032 L444.492,146.908 L449.42,146.908 L449.42,148 L443.204,148 Z M453.422,148.098 C452.806,148.098 452.26,147.953 451.784,147.664 C451.318,147.365 450.954,146.945 450.692,146.404 C450.431,145.853 450.3,145.209 450.3,144.472 C450.3,143.735 450.431,143.091 450.692,142.54 C450.963,141.989 451.332,141.56 451.798,141.252 C452.274,140.935 452.816,140.776 453.422,140.776 C454.057,140.776 454.598,140.935 455.046,141.252 C455.494,141.56 455.798,142.003 455.956,142.582 L455.788,142.68 L455.788,140.958 L457.048,140.958 L457.048,148 L455.788,148 L455.788,146.236 L455.956,146.306 C455.798,146.875 455.494,147.319 455.046,147.636 C454.598,147.944 454.057,148.098 453.422,148.098 Z M453.702,147.062 C454.374,147.062 454.888,146.838 455.242,146.39 C455.606,145.933 455.788,145.284 455.788,144.444 C455.788,143.604 455.606,142.96 455.242,142.512 C454.878,142.055 454.365,141.826 453.702,141.826 C453.04,141.826 452.522,142.059 452.148,142.526 C451.775,142.993 451.588,143.641 451.588,144.472 C451.588,145.303 451.775,145.942 452.148,146.39 C452.522,146.838 453.04,147.062 453.702,147.062 Z M461.591,148.098 C460.387,148.098 459.431,147.795 458.721,147.188 L459.127,146.264 C459.501,146.553 459.888,146.768 460.289,146.908 C460.7,147.039 461.148,147.104 461.633,147.104 C462.137,147.104 462.52,147.02 462.781,146.852 C463.052,146.675 463.187,146.423 463.187,146.096 C463.187,145.835 463.094,145.629 462.907,145.48 C462.73,145.321 462.431,145.191 462.011,145.088 L460.835,144.808 C460.229,144.677 459.762,144.444 459.435,144.108 C459.118,143.772 458.959,143.366 458.959,142.89 C458.959,142.479 459.071,142.115 459.295,141.798 C459.529,141.481 459.851,141.233 460.261,141.056 C460.672,140.869 461.157,140.776 461.717,140.776 C462.212,140.776 462.679,140.855 463.117,141.014 C463.565,141.173 463.943,141.401 464.251,141.7 L463.845,142.61 C463.509,142.33 463.164,142.125 462.809,141.994 C462.455,141.854 462.086,141.784 461.703,141.784 C461.227,141.784 460.854,141.877 460.583,142.064 C460.322,142.251 460.191,142.503 460.191,142.82 C460.191,143.091 460.275,143.305 460.443,143.464 C460.611,143.623 460.877,143.749 461.241,143.842 L462.431,144.136 C463.103,144.276 463.598,144.509 463.915,144.836 C464.233,145.153 464.391,145.564 464.391,146.068 C464.391,146.684 464.139,147.179 463.635,147.552 C463.131,147.916 462.45,148.098 461.591,148.098 Z M465.094,141.938 L465.094,140.958 L469.714,140.958 L469.714,141.938 L465.094,141.938 Z M469.686,146.894 L469.686,147.958 C469.527,148.005 469.364,148.037 469.196,148.056 C469.037,148.084 468.865,148.098 468.678,148.098 C467.987,148.098 467.441,147.902 467.04,147.51 C466.648,147.118 466.452,146.539 466.452,145.774 L466.452,139.166 L467.726,138.718 L467.726,145.634 C467.726,145.998 467.777,146.283 467.88,146.488 C467.992,146.684 468.137,146.824 468.314,146.908 C468.501,146.983 468.711,147.02 468.944,147.02 C469.075,147.02 469.196,147.011 469.308,146.992 C469.42,146.973 469.546,146.941 469.686,146.894 Z M477.261,148.098 C476.412,148.098 475.773,147.865 475.343,147.398 C474.923,146.922 474.713,146.222 474.713,145.298 L474.713,140.958 L475.987,140.958 L475.987,145.284 C475.987,145.891 476.109,146.339 476.351,146.628 C476.603,146.908 476.986,147.048 477.499,147.048 C478.097,147.048 478.577,146.857 478.941,146.474 C479.305,146.082 479.487,145.564 479.487,144.92 L479.487,140.958 L480.775,140.958 L480.775,148 L479.529,148 L479.529,146.488 L479.697,146.418 C479.511,146.969 479.198,147.389 478.759,147.678 C478.321,147.958 477.821,148.098 477.261,148.098 Z M482.89,151.024 L482.89,142.932 C482.89,142.605 482.881,142.279 482.862,141.952 C482.853,141.616 482.825,141.285 482.778,140.958 L483.982,140.958 L484.108,142.4 L483.996,142.582 C484.155,142.003 484.458,141.56 484.906,141.252 C485.354,140.935 485.891,140.776 486.516,140.776 C487.132,140.776 487.674,140.935 488.14,141.252 C488.616,141.56 488.985,141.989 489.246,142.54 C489.517,143.091 489.652,143.735 489.652,144.472 C489.652,145.209 489.517,145.853 489.246,146.404 C488.985,146.945 488.621,147.365 488.154,147.664 C487.688,147.953 487.142,148.098 486.516,148.098 C485.891,148.098 485.354,147.944 484.906,147.636 C484.458,147.319 484.155,146.875 483.996,146.306 L484.164,146.152 L484.164,151.024 L482.89,151.024 Z M486.25,147.062 C486.913,147.062 487.426,146.838 487.79,146.39 C488.154,145.942 488.336,145.303 488.336,144.472 C488.336,143.641 488.154,142.993 487.79,142.526 C487.426,142.059 486.913,141.826 486.25,141.826 C485.578,141.826 485.06,142.055 484.696,142.512 C484.332,142.96 484.15,143.604 484.15,144.444 C484.15,145.284 484.332,145.933 484.696,146.39 C485.06,146.838 485.578,147.062 486.25,147.062 Z M497.667,148 L496.407,148 L496.407,146.138 L496.575,146.306 C496.417,146.875 496.113,147.319 495.665,147.636 C495.217,147.944 494.676,148.098 494.041,148.098 C493.435,148.098 492.893,147.949 492.417,147.65 C491.951,147.342 491.582,146.913 491.311,146.362 C491.05,145.802 490.919,145.153 490.919,144.416 C490.919,143.679 491.05,143.039 491.311,142.498 C491.573,141.947 491.937,141.523 492.403,141.224 C492.879,140.925 493.425,140.776 494.041,140.776 C494.676,140.776 495.217,140.935 495.665,141.252 C496.113,141.569 496.417,142.008 496.575,142.568 L496.393,142.736 L496.393,137.696 L497.667,137.696 L497.667,148 Z M494.321,147.062 C494.984,147.062 495.497,146.838 495.861,146.39 C496.225,145.933 496.407,145.284 496.407,144.444 C496.407,143.613 496.225,142.969 495.861,142.512 C495.507,142.055 494.993,141.826 494.321,141.826 C493.659,141.826 493.141,142.055 492.767,142.512 C492.394,142.96 492.207,143.595 492.207,144.416 C492.207,145.256 492.394,145.909 492.767,146.376 C493.141,146.833 493.659,147.062 494.321,147.062 Z M502.491,148.098 C501.875,148.098 501.329,147.953 500.853,147.664 C500.386,147.365 500.022,146.945 499.761,146.404 C499.499,145.853 499.369,145.209 499.369,144.472 C499.369,143.735 499.499,143.091 499.761,142.54 C500.031,141.989 500.4,141.56 500.867,141.252 C501.343,140.935 501.884,140.776 502.491,140.776 C503.125,140.776 503.667,140.935 504.115,141.252 C504.563,141.56 504.866,142.003 505.025,142.582 L504.857,142.68 L504.857,140.958 L506.117,140.958 L506.117,148 L504.857,148 L504.857,146.236 L505.025,146.306 C504.866,146.875 504.563,147.319 504.115,147.636 C503.667,147.944 503.125,148.098 502.491,148.098 Z M502.771,147.062 C503.443,147.062 503.956,146.838 504.311,146.39 C504.675,145.933 504.857,145.284 504.857,144.444 C504.857,143.604 504.675,142.96 504.311,142.512 C503.947,142.055 503.433,141.826 502.771,141.826 C502.108,141.826 501.59,142.059 501.217,142.526 C500.843,142.993 500.657,143.641 500.657,144.472 C500.657,145.303 500.843,145.942 501.217,146.39 C501.59,146.838 502.108,147.062 502.771,147.062 Z M507.272,141.938 L507.272,140.958 L511.892,140.958 L511.892,141.938 L507.272,141.938 Z M511.864,146.894 L511.864,147.958 C511.705,148.005 511.542,148.037 511.374,148.056 C511.215,148.084 511.042,148.098 510.856,148.098 C510.165,148.098 509.619,147.902 509.218,147.51 C508.826,147.118 508.63,146.539 508.63,145.774 L508.63,139.166 L509.904,138.718 L509.904,145.634 C509.904,145.998 509.955,146.283 510.058,146.488 C510.17,146.684 510.314,146.824 510.492,146.908 C510.678,146.983 510.888,147.02 511.122,147.02 C511.252,147.02 511.374,147.011 511.486,146.992 C511.598,146.973 511.724,146.941 511.864,146.894 Z M519.066,147.174 C518.758,147.463 518.361,147.692 517.876,147.86 C517.39,148.019 516.896,148.098 516.392,148.098 C515.654,148.098 515.02,147.953 514.488,147.664 C513.956,147.375 513.545,146.959 513.256,146.418 C512.966,145.867 512.822,145.214 512.822,144.458 C512.822,143.73 512.962,143.091 513.242,142.54 C513.531,141.989 513.928,141.56 514.432,141.252 C514.936,140.935 515.514,140.776 516.168,140.776 C516.802,140.776 517.344,140.916 517.792,141.196 C518.249,141.476 518.594,141.877 518.828,142.4 C519.07,142.913 519.192,143.529 519.192,144.248 L519.192,144.472 L513.942,144.472 L513.942,143.688 L518.464,143.688 L518.072,144.192 C518.09,143.399 517.936,142.792 517.61,142.372 C517.283,141.952 516.807,141.742 516.182,141.742 C515.528,141.742 515.015,141.975 514.642,142.442 C514.278,142.899 514.096,143.543 514.096,144.374 C514.096,145.27 514.292,145.947 514.684,146.404 C515.076,146.852 515.654,147.076 516.42,147.076 C516.83,147.076 517.222,147.011 517.596,146.88 C517.969,146.74 518.324,146.535 518.66,146.264 L519.066,147.174 Z M527.199,148 L525.939,148 L525.939,146.138 L526.107,146.306 C525.948,146.875 525.645,147.319 525.197,147.636 C524.749,147.944 524.207,148.098 523.573,148.098 C522.966,148.098 522.425,147.949 521.949,147.65 C521.482,147.342 521.113,146.913 520.843,146.362 C520.581,145.802 520.451,145.153 520.451,144.416 C520.451,143.679 520.581,143.039 520.843,142.498 C521.104,141.947 521.468,141.523 521.935,141.224 C522.411,140.925 522.957,140.776 523.573,140.776 C524.207,140.776 524.749,140.935 525.197,141.252 C525.645,141.569 525.948,142.008 526.107,142.568 L525.925,142.736 L525.925,137.696 L527.199,137.696 L527.199,148 Z M523.853,147.062 C524.515,147.062 525.029,146.838 525.393,146.39 C525.757,145.933 525.939,145.284 525.939,144.444 C525.939,143.613 525.757,142.969 525.393,142.512 C525.038,142.055 524.525,141.826 523.853,141.826 C523.19,141.826 522.672,142.055 522.299,142.512 C521.925,142.96 521.739,143.595 521.739,144.416 C521.739,145.256 521.925,145.909 522.299,146.376 C522.672,146.833 523.19,147.062 523.853,147.062 Z M535.881,147.412 L535.881,138.858 L536.595,139.152 L533.837,140.888 L533.837,139.67 L536.441,138.032 L537.183,138.032 L537.183,147.412 L535.881,147.412 Z M533.683,148 L533.683,146.922 L539.381,146.922 L539.381,148 L533.683,148 Z M544.542,148.112 C543.394,148.112 542.521,147.683 541.924,146.824 C541.326,145.956 541.028,144.687 541.028,143.016 C541.028,141.345 541.322,140.081 541.91,139.222 C542.507,138.354 543.384,137.92 544.542,137.92 C545.699,137.92 546.572,138.354 547.16,139.222 C547.757,140.081 548.056,141.341 548.056,143.002 C548.056,144.673 547.757,145.942 547.16,146.81 C546.562,147.678 545.69,148.112 544.542,148.112 Z M544.542,147.048 C545.298,147.048 545.853,146.721 546.208,146.068 C546.572,145.415 546.754,144.393 546.754,143.002 C546.754,141.611 546.572,140.599 546.208,139.964 C545.853,139.32 545.298,138.998 544.542,138.998 C543.786,138.998 543.226,139.32 542.862,139.964 C542.507,140.608 542.33,141.621 542.33,143.002 C542.33,144.393 542.507,145.415 542.862,146.068 C543.226,146.721 543.786,147.048 544.542,147.048 Z M559.82,148 L558.56,148 L558.56,146.138 L558.728,146.306 C558.569,146.875 558.266,147.319 557.818,147.636 C557.37,147.944 556.828,148.098 556.194,148.098 C555.587,148.098 555.046,147.949 554.57,147.65 C554.103,147.342 553.734,146.913 553.464,146.362 C553.202,145.802 553.072,145.153 553.072,144.416 C553.072,143.679 553.202,143.039 553.464,142.498 C553.725,141.947 554.089,141.523 554.556,141.224 C555.032,140.925 555.578,140.776 556.194,140.776 C556.828,140.776 557.37,140.935 557.818,141.252 C558.266,141.569 558.569,142.008 558.728,142.568 L558.546,142.736 L558.546,137.696 L559.82,137.696 L559.82,148 Z M556.474,147.062 C557.136,147.062 557.65,146.838 558.014,146.39 C558.378,145.933 558.56,145.284 558.56,144.444 C558.56,143.613 558.378,142.969 558.014,142.512 C557.659,142.055 557.146,141.826 556.474,141.826 C555.811,141.826 555.293,142.055 554.92,142.512 C554.546,142.96 554.36,143.595 554.36,144.416 C554.36,145.256 554.546,145.909 554.92,146.376 C555.293,146.833 555.811,147.062 556.474,147.062 Z M564.643,148.098 C564.027,148.098 563.481,147.953 563.005,147.664 C562.538,147.365 562.174,146.945 561.913,146.404 C561.652,145.853 561.521,145.209 561.521,144.472 C561.521,143.735 561.652,143.091 561.913,142.54 C562.184,141.989 562.552,141.56 563.019,141.252 C563.495,140.935 564.036,140.776 564.643,140.776 C565.278,140.776 565.819,140.935 566.267,141.252 C566.715,141.56 567.018,142.003 567.177,142.582 L567.009,142.68 L567.009,140.958 L568.269,140.958 L568.269,148 L567.009,148 L567.009,146.236 L567.177,146.306 C567.018,146.875 566.715,147.319 566.267,147.636 C565.819,147.944 565.278,148.098 564.643,148.098 Z M564.923,147.062 C565.595,147.062 566.108,146.838 566.463,146.39 C566.827,145.933 567.009,145.284 567.009,144.444 C567.009,143.604 566.827,142.96 566.463,142.512 C566.099,142.055 565.586,141.826 564.923,141.826 C564.26,141.826 563.742,142.059 563.369,142.526 C562.996,142.993 562.809,143.641 562.809,144.472 C562.809,145.303 562.996,145.942 563.369,146.39 C563.742,146.838 564.26,147.062 564.923,147.062 Z M570.082,151.178 L569.816,150.198 C570.246,150.095 570.605,149.974 570.894,149.834 C571.193,149.703 571.44,149.531 571.636,149.316 C571.832,149.111 572.005,148.835 572.154,148.49 L572.616,147.44 L572.91,147.02 L575.416,140.958 L576.69,140.958 L573.4,148.602 C573.148,149.181 572.859,149.643 572.532,149.988 C572.206,150.343 571.837,150.609 571.426,150.786 C571.025,150.963 570.577,151.094 570.082,151.178 Z M572.63,148.392 L569.452,140.958 L570.782,140.958 L573.26,147.02 L572.63,148.392 Z M580.168,148.098 C578.964,148.098 578.007,147.795 577.298,147.188 L577.704,146.264 C578.077,146.553 578.464,146.768 578.866,146.908 C579.276,147.039 579.724,147.104 580.21,147.104 C580.714,147.104 581.096,147.02 581.358,146.852 C581.628,146.675 581.764,146.423 581.764,146.096 C581.764,145.835 581.67,145.629 581.484,145.48 C581.306,145.321 581.008,145.191 580.588,145.088 L579.412,144.808 C578.805,144.677 578.338,144.444 578.012,144.108 C577.694,143.772 577.536,143.366 577.536,142.89 C577.536,142.479 577.648,142.115 577.872,141.798 C578.105,141.481 578.427,141.233 578.838,141.056 C579.248,140.869 579.734,140.776 580.294,140.776 C580.788,140.776 581.255,140.855 581.694,141.014 C582.142,141.173 582.52,141.401 582.828,141.7 L582.422,142.61 C582.086,142.33 581.74,142.125 581.386,141.994 C581.031,141.854 580.662,141.784 580.28,141.784 C579.804,141.784 579.43,141.877 579.16,142.064 C578.898,142.251 578.768,142.503 578.768,142.82 C578.768,143.091 578.852,143.305 579.02,143.464 C579.188,143.623 579.454,143.749 579.818,143.842 L581.008,144.136 C581.68,144.276 582.174,144.509 582.492,144.836 C582.809,145.153 582.968,145.564 582.968,146.068 C582.968,146.684 582.716,147.179 582.212,147.552 C581.708,147.916 581.026,148.098 580.168,148.098 Z M591.098,148.098 C590.482,148.098 589.936,147.953 589.46,147.664 C588.993,147.365 588.629,146.945 588.368,146.404 C588.107,145.853 587.976,145.209 587.976,144.472 C587.976,143.735 588.107,143.091 588.368,142.54 C588.639,141.989 589.007,141.56 589.474,141.252 C589.95,140.935 590.491,140.776 591.098,140.776 C591.733,140.776 592.274,140.935 592.722,141.252 C593.17,141.56 593.473,142.003 593.632,142.582 L593.464,142.68 L593.464,140.958 L594.724,140.958 L594.724,148 L593.464,148 L593.464,146.236 L593.632,146.306 C593.473,146.875 593.17,147.319 592.722,147.636 C592.274,147.944 591.733,148.098 591.098,148.098 Z M591.378,147.062 C592.05,147.062 592.563,146.838 592.918,146.39 C593.282,145.933 593.464,145.284 593.464,144.444 C593.464,143.604 593.282,142.96 592.918,142.512 C592.554,142.055 592.041,141.826 591.378,141.826 C590.715,141.826 590.197,142.059 589.824,142.526 C589.451,142.993 589.264,143.641 589.264,144.472 C589.264,145.303 589.451,145.942 589.824,146.39 C590.197,146.838 590.715,147.062 591.378,147.062 Z M599.967,151.122 C598.894,151.122 597.961,150.884 597.167,150.408 L597.391,149.386 C597.83,149.638 598.245,149.82 598.637,149.932 C599.039,150.044 599.482,150.1 599.967,150.1 C600.63,150.1 601.129,149.923 601.465,149.568 C601.811,149.223 601.983,148.705 601.983,148.014 L601.983,146.138 L602.137,145.998 C602.025,146.362 601.848,146.679 601.605,146.95 C601.372,147.211 601.083,147.417 600.737,147.566 C600.401,147.715 600.014,147.79 599.575,147.79 C598.959,147.79 598.413,147.645 597.937,147.356 C597.461,147.057 597.088,146.647 596.817,146.124 C596.556,145.601 596.425,144.99 596.425,144.29 C596.425,143.59 596.556,142.979 596.817,142.456 C597.088,141.924 597.461,141.513 597.937,141.224 C598.413,140.925 598.959,140.776 599.575,140.776 C600.219,140.776 600.765,140.935 601.213,141.252 C601.671,141.569 601.979,142.008 602.137,142.568 L601.969,142.456 L601.969,140.958 L603.243,140.958 L603.243,147.902 C603.243,148.975 602.963,149.778 602.403,150.31 C601.853,150.851 601.041,151.122 599.967,151.122 Z M599.855,146.74 C600.518,146.74 601.036,146.525 601.409,146.096 C601.783,145.657 601.969,145.055 601.969,144.29 C601.969,143.525 601.783,142.923 601.409,142.484 C601.036,142.045 600.518,141.826 599.855,141.826 C599.193,141.826 598.67,142.045 598.287,142.484 C597.905,142.923 597.713,143.525 597.713,144.29 C597.713,145.065 597.905,145.667 598.287,146.096 C598.67,146.525 599.193,146.74 599.855,146.74 Z M608.331,148.098 C607.649,148.098 607.052,147.949 606.539,147.65 C606.035,147.351 605.643,146.931 605.363,146.39 C605.083,145.839 604.943,145.191 604.943,144.444 C604.943,143.707 605.083,143.063 605.363,142.512 C605.643,141.952 606.035,141.523 606.539,141.224 C607.052,140.925 607.649,140.776 608.331,140.776 C609.021,140.776 609.619,140.925 610.123,141.224 C610.627,141.523 611.019,141.952 611.299,142.512 C611.579,143.063 611.719,143.707 611.719,144.444 C611.719,145.191 611.579,145.839 611.299,146.39 C611.019,146.931 610.627,147.351 610.123,147.65 C609.619,147.949 609.021,148.098 608.331,148.098 Z M608.331,147.062 C609.003,147.062 609.521,146.843 609.885,146.404 C610.249,145.956 610.431,145.303 610.431,144.444 C610.431,143.595 610.244,142.946 609.871,142.498 C609.507,142.05 608.993,141.826 608.331,141.826 C607.677,141.826 607.164,142.05 606.791,142.498 C606.417,142.946 606.231,143.595 606.231,144.444 C606.231,145.303 606.413,145.956 606.777,146.404 C607.141,146.843 607.659,147.062 608.331,147.062 Z" id="Shape" fill="#969EAC" fill-rule="nonzero"></path>
            <path d="M41.512,150 L41.512,137.184 L43.024,137.184 L48.064,148.65 L47.29,148.65 L52.276,137.184 L53.788,137.184 L53.788,150 L52.096,150 L52.096,139.758 L52.672,139.866 L48.28,150 L47.02,150 L42.556,139.866 L43.168,139.758 L43.186,150 L41.512,150 Z M60.531,150.126 C59.631,150.126 58.845,149.934 58.173,149.55 C57.513,149.166 57.003,148.626 56.643,147.93 C56.283,147.222 56.103,146.382 56.103,145.41 C56.103,144.462 56.283,143.634 56.643,142.926 C57.003,142.218 57.513,141.672 58.173,141.288 C58.845,140.904 59.631,140.712 60.531,140.712 C61.419,140.712 62.193,140.904 62.853,141.288 C63.525,141.672 64.041,142.218 64.401,142.926 C64.773,143.634 64.959,144.462 64.959,145.41 C64.959,146.382 64.773,147.222 64.401,147.93 C64.041,148.626 63.525,149.166 62.853,149.55 C62.193,149.934 61.419,150.126 60.531,150.126 Z M60.531,148.686 C61.347,148.686 61.977,148.41 62.421,147.858 C62.877,147.306 63.105,146.49 63.105,145.41 C63.105,144.366 62.877,143.568 62.421,143.016 C61.977,142.452 61.347,142.17 60.531,142.17 C59.715,142.17 59.073,142.452 58.605,143.016 C58.149,143.568 57.921,144.366 57.921,145.41 C57.921,146.49 58.143,147.306 58.587,147.858 C59.043,148.41 59.691,148.686 60.531,148.686 Z M67.066,150 L67.066,143.484 C67.066,143.064 67.054,142.638 67.03,142.206 C67.018,141.774 66.982,141.348 66.922,140.928 L68.65,140.928 L68.812,142.764 L68.632,142.872 C68.896,142.164 69.316,141.63 69.892,141.27 C70.48,140.898 71.152,140.712 71.908,140.712 C74.08,140.712 75.166,141.93 75.166,144.366 L75.166,150 L73.348,150 L73.348,144.438 C73.348,143.658 73.192,143.088 72.88,142.728 C72.568,142.368 72.088,142.188 71.44,142.188 C70.66,142.188 70.036,142.428 69.568,142.908 C69.112,143.388 68.884,144.03 68.884,144.834 L68.884,150 L67.066,150 Z M85.332,148.956 C84.924,149.316 84.408,149.604 83.784,149.82 C83.16,150.024 82.524,150.126 81.876,150.126 C80.916,150.126 80.088,149.94 79.392,149.568 C78.696,149.196 78.162,148.656 77.79,147.948 C77.418,147.24 77.232,146.4 77.232,145.428 C77.232,144.492 77.412,143.67 77.772,142.962 C78.144,142.254 78.654,141.702 79.302,141.306 C79.95,140.91 80.7,140.712 81.552,140.712 C82.368,140.712 83.07,140.892 83.658,141.252 C84.246,141.612 84.696,142.128 85.008,142.8 C85.332,143.46 85.494,144.258 85.494,145.194 L85.494,145.5 L78.816,145.5 L78.834,144.42 L84.432,144.42 L83.91,145.068 C83.922,144.096 83.73,143.352 83.334,142.836 C82.938,142.32 82.356,142.062 81.588,142.062 C80.784,142.062 80.154,142.35 79.698,142.926 C79.242,143.49 79.014,144.282 79.014,145.302 C79.014,146.442 79.26,147.294 79.752,147.858 C80.244,148.41 80.964,148.686 81.912,148.686 C82.428,148.686 82.926,148.602 83.406,148.434 C83.886,148.266 84.342,148.008 84.774,147.66 L85.332,148.956 Z M87.115,154.086 L86.719,152.682 C87.271,152.562 87.733,152.412 88.105,152.232 C88.489,152.064 88.807,151.848 89.059,151.584 C89.311,151.32 89.527,150.978 89.707,150.558 L90.319,149.154 L90.751,148.524 L93.883,140.928 L95.701,140.928 L91.471,150.72 C91.135,151.488 90.751,152.094 90.319,152.538 C89.899,152.994 89.419,153.342 88.879,153.582 C88.339,153.822 87.751,153.99 87.115,154.086 Z M90.355,150.522 L86.233,140.928 L88.123,140.928 L91.219,148.524 L90.355,150.522 Z M102.104,150 L102.104,137.184 L103.616,137.184 L108.656,148.65 L107.882,148.65 L112.868,137.184 L114.38,137.184 L114.38,150 L112.688,150 L112.688,139.758 L113.264,139.866 L108.872,150 L107.612,150 L103.148,139.866 L103.76,139.758 L103.778,150 L102.104,150 Z M117.199,150 L117.199,140.928 L119.017,140.928 L119.017,150 L117.199,150 Z M117.073,136.968 L119.179,136.968 L119.179,138.876 L117.073,138.876 L117.073,136.968 Z M121.664,150 L121.664,143.484 C121.664,143.064 121.652,142.638 121.628,142.206 C121.616,141.774 121.58,141.348 121.52,140.928 L123.248,140.928 L123.41,142.764 L123.23,142.872 C123.494,142.164 123.914,141.63 124.49,141.27 C125.078,140.898 125.75,140.712 126.506,140.712 C128.678,140.712 129.764,141.93 129.764,144.366 L129.764,150 L127.946,150 L127.946,144.438 C127.946,143.658 127.79,143.088 127.478,142.728 C127.166,142.368 126.686,142.188 126.038,142.188 C125.258,142.188 124.634,142.428 124.166,142.908 C123.71,143.388 123.482,144.03 123.482,144.834 L123.482,150 L121.664,150 Z M138.562,150 L135.88,146.652 L134.836,145.32 L131.272,140.928 L133.45,140.928 L135.88,144.024 L136.96,145.32 L140.722,150 L138.562,150 Z M133.234,150 L131.056,150 L134.836,145.32 L135.88,144.024 L138.328,140.928 L140.524,140.928 L136.96,145.32 L135.88,146.652 L133.234,150 Z M147.069,150 L147.069,137.184 L148.581,137.184 L153.621,148.65 L152.847,148.65 L157.833,137.184 L159.345,137.184 L159.345,150 L157.653,150 L157.653,139.758 L158.229,139.866 L153.837,150 L152.577,150 L148.113,139.866 L148.725,139.758 L148.743,150 L147.069,150 Z M165.674,150.126 C164.87,150.126 164.162,149.94 163.55,149.568 C162.95,149.184 162.482,148.644 162.146,147.948 C161.822,147.24 161.66,146.412 161.66,145.464 C161.66,144.516 161.828,143.688 162.164,142.98 C162.5,142.26 162.968,141.702 163.568,141.306 C164.18,140.91 164.882,140.712 165.674,140.712 C166.478,140.712 167.162,140.91 167.726,141.306 C168.302,141.69 168.692,142.242 168.896,142.962 L168.68,143.106 L168.68,140.928 L170.48,140.928 L170.48,150 L168.68,150 L168.68,147.786 L168.896,147.876 C168.692,148.596 168.302,149.154 167.726,149.55 C167.162,149.934 166.478,150.126 165.674,150.126 Z M166.106,148.686 C166.922,148.686 167.552,148.404 167.996,147.84 C168.452,147.276 168.68,146.472 168.68,145.428 C168.68,144.384 168.452,143.58 167.996,143.016 C167.552,142.452 166.922,142.17 166.106,142.17 C165.278,142.17 164.63,142.464 164.162,143.052 C163.706,143.628 163.478,144.432 163.478,145.464 C163.478,146.496 163.706,147.294 164.162,147.858 C164.63,148.41 165.278,148.686 166.106,148.686 Z M173.132,150 L173.132,143.484 C173.132,143.064 173.12,142.638 173.096,142.206 C173.084,141.774 173.048,141.348 172.988,140.928 L174.716,140.928 L174.878,142.764 L174.698,142.872 C174.962,142.164 175.382,141.63 175.958,141.27 C176.546,140.898 177.218,140.712 177.974,140.712 C180.146,140.712 181.232,141.93 181.232,144.366 L181.232,150 L179.414,150 L179.414,144.438 C179.414,143.658 179.258,143.088 178.946,142.728 C178.634,142.368 178.154,142.188 177.506,142.188 C176.726,142.188 176.102,142.428 175.634,142.908 C175.178,143.388 174.95,144.03 174.95,144.834 L174.95,150 L173.132,150 Z M187.042,150.126 C185.95,150.126 185.128,149.826 184.576,149.226 C184.024,148.614 183.748,147.702 183.748,146.49 L183.748,140.928 L185.566,140.928 L185.566,146.472 C185.566,147.216 185.716,147.768 186.016,148.128 C186.328,148.476 186.802,148.65 187.438,148.65 C188.17,148.65 188.758,148.41 189.202,147.93 C189.658,147.45 189.886,146.814 189.886,146.022 L189.886,140.928 L191.704,140.928 L191.704,150 L189.94,150 L189.94,148.074 L190.156,148.002 C189.904,148.698 189.502,149.226 188.95,149.586 C188.398,149.946 187.762,150.126 187.042,150.126 Z M197.842,150.126 C197.038,150.126 196.33,149.94 195.718,149.568 C195.118,149.184 194.65,148.644 194.314,147.948 C193.99,147.24 193.828,146.412 193.828,145.464 C193.828,144.516 193.996,143.688 194.332,142.98 C194.668,142.26 195.136,141.702 195.736,141.306 C196.348,140.91 197.05,140.712 197.842,140.712 C198.646,140.712 199.33,140.91 199.894,141.306 C200.47,141.69 200.86,142.242 201.064,142.962 L200.848,143.106 L200.848,140.928 L202.648,140.928 L202.648,150 L200.848,150 L200.848,147.786 L201.064,147.876 C200.86,148.596 200.47,149.154 199.894,149.55 C199.33,149.934 198.646,150.126 197.842,150.126 Z M198.274,148.686 C199.09,148.686 199.72,148.404 200.164,147.84 C200.62,147.276 200.848,146.472 200.848,145.428 C200.848,144.384 200.62,143.58 200.164,143.016 C199.72,142.452 199.09,142.17 198.274,142.17 C197.446,142.17 196.798,142.464 196.33,143.052 C195.874,143.628 195.646,144.432 195.646,145.464 C195.646,146.496 195.874,147.294 196.33,147.858 C196.798,148.41 197.446,148.686 198.274,148.686 Z M205.3,150 L205.3,136.752 L207.118,136.752 L207.118,150 L205.3,150 Z M215.32,150 L213.43,150 L219.136,137.184 L220.702,137.184 L226.408,150 L224.536,150 L219.658,138.588 L220.234,138.588 L215.32,150 Z M215.896,146.832 L216.58,145.356 L223.222,145.356 L223.888,146.832 L215.896,146.832 Z M231.848,150.126 C230.936,150.126 230.144,149.934 229.472,149.55 C228.812,149.166 228.302,148.626 227.942,147.93 C227.582,147.234 227.402,146.412 227.402,145.464 C227.402,144.516 227.588,143.688 227.96,142.98 C228.332,142.26 228.854,141.702 229.526,141.306 C230.21,140.91 231.014,140.712 231.938,140.712 C232.562,140.712 233.168,140.814 233.756,141.018 C234.344,141.222 234.824,141.51 235.196,141.882 L234.638,143.196 C234.218,142.86 233.792,142.608 233.36,142.44 C232.94,142.272 232.508,142.188 232.064,142.188 C231.2,142.188 230.516,142.47 230.012,143.034 C229.52,143.598 229.274,144.402 229.274,145.446 C229.274,146.49 229.52,147.288 230.012,147.84 C230.504,148.392 231.188,148.668 232.064,148.668 C232.496,148.668 232.928,148.584 233.36,148.416 C233.792,148.248 234.218,147.996 234.638,147.66 L235.196,148.974 C234.812,149.334 234.32,149.616 233.72,149.82 C233.12,150.024 232.496,150.126 231.848,150.126 Z M240.83,150.126 C239.918,150.126 239.126,149.934 238.454,149.55 C237.794,149.166 237.284,148.626 236.924,147.93 C236.564,147.234 236.384,146.412 236.384,145.464 C236.384,144.516 236.57,143.688 236.942,142.98 C237.314,142.26 237.836,141.702 238.508,141.306 C239.192,140.91 239.996,140.712 240.92,140.712 C241.544,140.712 242.15,140.814 242.738,141.018 C243.326,141.222 243.806,141.51 244.178,141.882 L243.62,143.196 C243.2,142.86 242.774,142.608 242.342,142.44 C241.922,142.272 241.49,142.188 241.046,142.188 C240.182,142.188 239.498,142.47 238.994,143.034 C238.502,143.598 238.256,144.402 238.256,145.446 C238.256,146.49 238.502,147.288 238.994,147.84 C239.486,148.392 240.17,148.668 241.046,148.668 C241.478,148.668 241.91,148.584 242.342,148.416 C242.774,148.248 243.2,147.996 243.62,147.66 L244.178,148.974 C243.794,149.334 243.302,149.616 242.702,149.82 C242.102,150.024 241.478,150.126 240.83,150.126 Z M249.795,150.126 C248.895,150.126 248.109,149.934 247.437,149.55 C246.777,149.166 246.267,148.626 245.907,147.93 C245.547,147.222 245.367,146.382 245.367,145.41 C245.367,144.462 245.547,143.634 245.907,142.926 C246.267,142.218 246.777,141.672 247.437,141.288 C248.109,140.904 248.895,140.712 249.795,140.712 C250.683,140.712 251.457,140.904 252.117,141.288 C252.789,141.672 253.305,142.218 253.665,142.926 C254.037,143.634 254.223,144.462 254.223,145.41 C254.223,146.382 254.037,147.222 253.665,147.93 C253.305,148.626 252.789,149.166 252.117,149.55 C251.457,149.934 250.683,150.126 249.795,150.126 Z M249.795,148.686 C250.611,148.686 251.241,148.41 251.685,147.858 C252.141,147.306 252.369,146.49 252.369,145.41 C252.369,144.366 252.141,143.568 251.685,143.016 C251.241,142.452 250.611,142.17 249.795,142.17 C248.979,142.17 248.337,142.452 247.869,143.016 C247.413,143.568 247.185,144.366 247.185,145.41 C247.185,146.49 247.407,147.306 247.851,147.858 C248.307,148.41 248.955,148.686 249.795,148.686 Z M259.57,150.126 C258.478,150.126 257.656,149.826 257.104,149.226 C256.552,148.614 256.276,147.702 256.276,146.49 L256.276,140.928 L258.094,140.928 L258.094,146.472 C258.094,147.216 258.244,147.768 258.544,148.128 C258.856,148.476 259.33,148.65 259.966,148.65 C260.698,148.65 261.286,148.41 261.73,147.93 C262.186,147.45 262.414,146.814 262.414,146.022 L262.414,140.928 L264.232,140.928 L264.232,150 L262.468,150 L262.468,148.074 L262.684,148.002 C262.432,148.698 262.03,149.226 261.478,149.586 C260.926,149.946 260.29,150.126 259.57,150.126 Z M266.859,150 L266.859,143.484 C266.859,143.064 266.847,142.638 266.823,142.206 C266.811,141.774 266.775,141.348 266.715,140.928 L268.443,140.928 L268.605,142.764 L268.425,142.872 C268.689,142.164 269.109,141.63 269.685,141.27 C270.273,140.898 270.945,140.712 271.701,140.712 C273.873,140.712 274.959,141.93 274.959,144.366 L274.959,150 L273.141,150 L273.141,144.438 C273.141,143.658 272.985,143.088 272.673,142.728 C272.361,142.368 271.881,142.188 271.233,142.188 C270.453,142.188 269.829,142.428 269.361,142.908 C268.905,143.388 268.677,144.03 268.677,144.834 L268.677,150 L266.859,150 Z M276.323,142.332 L276.323,140.928 L282.407,140.928 L282.407,142.332 L276.323,142.332 Z M282.389,148.452 L282.389,149.928 C282.173,150 281.957,150.048 281.741,150.072 C281.525,150.108 281.291,150.126 281.039,150.126 C280.115,150.126 279.389,149.868 278.861,149.352 C278.345,148.824 278.087,148.05 278.087,147.03 L278.087,138.66 L279.905,138.03 L279.905,146.886 C279.905,147.33 279.971,147.678 280.103,147.93 C280.235,148.17 280.415,148.344 280.643,148.452 C280.883,148.548 281.147,148.596 281.435,148.596 C281.603,148.596 281.759,148.584 281.903,148.56 C282.047,148.536 282.209,148.5 282.389,148.452 Z M287.254,150.126 C285.67,150.126 284.416,149.742 283.492,148.974 L284.05,147.66 C284.53,148.032 285.034,148.308 285.562,148.488 C286.102,148.656 286.684,148.74 287.308,148.74 C287.932,148.74 288.406,148.638 288.73,148.434 C289.054,148.218 289.216,147.918 289.216,147.534 C289.216,147.21 289.102,146.958 288.874,146.778 C288.658,146.586 288.286,146.424 287.758,146.292 L286.228,145.932 C285.436,145.764 284.83,145.47 284.41,145.05 C284.002,144.618 283.798,144.084 283.798,143.448 C283.798,142.908 283.948,142.434 284.248,142.026 C284.548,141.618 284.968,141.3 285.508,141.072 C286.048,140.832 286.678,140.712 287.398,140.712 C288.046,140.712 288.658,140.814 289.234,141.018 C289.81,141.21 290.308,141.498 290.728,141.882 L290.17,143.16 C289.726,142.812 289.27,142.554 288.802,142.386 C288.346,142.206 287.878,142.116 287.398,142.116 C286.81,142.116 286.354,142.23 286.03,142.458 C285.706,142.674 285.544,142.98 285.544,143.376 C285.544,143.7 285.64,143.958 285.832,144.15 C286.036,144.33 286.372,144.474 286.84,144.582 L288.37,144.96 C289.246,145.152 289.888,145.458 290.296,145.878 C290.704,146.298 290.908,146.838 290.908,147.498 C290.908,148.302 290.578,148.944 289.918,149.424 C289.27,149.892 288.382,150.126 287.254,150.126 Z" id="Shape" fill="#434A55" fill-rule="nonzero"></path>
            <rect id="Rectangle" fill="#FFFFFF" fill-rule="nonzero" x="40" y="0" width="667" height="96" rx="6"></rect>
            <rect id="Rectangle" stroke="#534CEA" stroke-width="1.5" x="467.75" y="24.75" width="198.5" height="46.5" rx="3.25"></rect>
            <path d="M526.021,52 L524.201,52 L528.709,42.032 L530.179,42.032 L534.687,52 L532.895,52 L529.227,43.432 L529.717,43.432 L526.021,52 Z M526.189,49.662 L526.875,48.262 L531.957,48.262 L532.615,49.662 L526.189,49.662 Z M542.401,52 L540.68,52 L540.68,50.208 L540.848,50.46 C540.689,50.9827 540.386,51.3887 539.938,51.678 C539.499,51.958 538.981,52.098 538.383,52.098 C537.768,52.098 537.222,51.9487 536.745,51.65 C536.279,51.342 535.915,50.908 535.654,50.348 C535.392,49.788 535.262,49.1393 535.262,48.402 C535.262,47.6647 535.388,47.0207 535.64,46.47 C535.901,45.9193 536.27,45.4947 536.745,45.196 C537.222,44.8973 537.768,44.748 538.383,44.748 C538.981,44.748 539.499,44.8973 539.938,45.196 C540.386,45.4947 540.689,45.896 540.848,46.4 L540.652,46.61 L540.652,41.696 L542.401,41.696 L542.401,52 Z M538.86,50.754 C539.438,50.754 539.886,50.5533 540.204,50.152 C540.521,49.7507 540.68,49.1767 540.68,48.43 C540.68,47.6927 540.521,47.1233 540.204,46.722 C539.886,46.3207 539.438,46.12 538.86,46.12 C538.272,46.12 537.814,46.3207 537.488,46.722 C537.161,47.114 536.998,47.674 536.998,48.402 C536.998,49.1487 537.161,49.7273 537.488,50.138 C537.814,50.5487 538.272,50.754 538.86,50.754 Z M551.069,52 L549.347,52 L549.347,50.208 L549.515,50.46 C549.357,50.9827 549.053,51.3887 548.605,51.678 C548.167,51.958 547.649,52.098 547.051,52.098 C546.435,52.098 545.889,51.9487 545.413,51.65 C544.947,51.342 544.583,50.908 544.321,50.348 C544.06,49.788 543.929,49.1393 543.929,48.402 C543.929,47.6647 544.055,47.0207 544.307,46.47 C544.569,45.9193 544.937,45.4947 545.413,45.196 C545.889,44.8973 546.435,44.748 547.051,44.748 C547.649,44.748 548.167,44.8973 548.605,45.196 C549.053,45.4947 549.357,45.896 549.515,46.4 L549.319,46.61 L549.319,41.696 L551.069,41.696 L551.069,52 Z M547.527,50.754 C548.106,50.754 548.554,50.5533 548.871,50.152 C549.189,49.7507 549.347,49.1767 549.347,48.43 C549.347,47.6927 549.189,47.1233 548.871,46.722 C548.554,46.3207 548.106,46.12 547.527,46.12 C546.939,46.12 546.482,46.3207 546.155,46.722 C545.829,47.114 545.665,47.674 545.665,48.402 C545.665,49.1487 545.829,49.7273 546.155,50.138 C546.482,50.5487 546.939,50.754 547.527,50.754 Z M557.685,52 L555.865,52 L560.373,42.032 L561.843,42.032 L566.351,52 L564.559,52 L560.891,43.432 L561.381,43.432 L557.685,52 Z M557.853,49.662 L558.539,48.262 L563.621,48.262 L564.279,49.662 L557.853,49.662 Z M570.496,52.098 C569.758,52.098 569.119,51.9533 568.578,51.664 C568.046,51.3653 567.635,50.9453 567.346,50.404 C567.066,49.8533 566.926,49.2093 566.926,48.472 C566.926,47.7253 567.075,47.072 567.374,46.512 C567.672,45.952 568.097,45.518 568.648,45.21 C569.198,44.902 569.842,44.748 570.58,44.748 C571.074,44.748 571.555,44.8273 572.022,44.986 C572.498,45.1447 572.885,45.364 573.184,45.644 L572.68,46.876 C572.381,46.6333 572.064,46.4513 571.728,46.33 C571.392,46.1993 571.056,46.134 570.72,46.134 C570.104,46.134 569.614,46.33 569.25,46.722 C568.895,47.114 568.718,47.688 568.718,48.444 C568.718,49.1907 568.895,49.76 569.25,50.152 C569.604,50.544 570.099,50.74 570.734,50.74 C571.06,50.74 571.392,50.6793 571.728,50.558 C572.064,50.4273 572.381,50.236 572.68,49.984 L573.184,51.216 C572.876,51.496 572.479,51.7153 571.994,51.874 C571.518,52.0233 571.018,52.098 570.496,52.098 Z M577.55,52.098 C576.813,52.098 576.174,51.9533 575.632,51.664 C575.1,51.3653 574.69,50.9453 574.4,50.404 C574.12,49.8533 573.98,49.2093 573.98,48.472 C573.98,47.7253 574.13,47.072 574.428,46.512 C574.727,45.952 575.152,45.518 575.702,45.21 C576.253,44.902 576.897,44.748 577.634,44.748 C578.129,44.748 578.61,44.8273 579.076,44.986 C579.552,45.1447 579.94,45.364 580.238,45.644 L579.734,46.876 C579.436,46.6333 579.118,46.4513 578.782,46.33 C578.446,46.1993 578.11,46.134 577.774,46.134 C577.158,46.134 576.668,46.33 576.304,46.722 C575.95,47.114 575.772,47.688 575.772,48.444 C575.772,49.1907 575.95,49.76 576.304,50.152 C576.659,50.544 577.154,50.74 577.788,50.74 C578.115,50.74 578.446,50.6793 578.782,50.558 C579.118,50.4273 579.436,50.236 579.734,49.984 L580.238,51.216 C579.93,51.496 579.534,51.7153 579.048,51.874 C578.572,52.0233 578.073,52.098 577.55,52.098 Z M584.619,52.098 C583.882,52.098 583.242,51.9487 582.701,51.65 C582.169,51.3513 581.758,50.9313 581.469,50.39 C581.18,49.8393 581.035,49.186 581.035,48.43 C581.035,47.6833 581.18,47.0347 581.469,46.484 C581.758,45.924 582.169,45.4947 582.701,45.196 C583.242,44.8973 583.882,44.748 584.619,44.748 C585.338,44.748 585.963,44.8973 586.495,45.196 C587.036,45.4947 587.452,45.924 587.741,46.484 C588.04,47.0347 588.189,47.6833 588.189,48.43 C588.189,49.186 588.04,49.8393 587.741,50.39 C587.452,50.9313 587.036,51.3513 586.495,51.65 C585.963,51.9487 585.338,52.098 584.619,52.098 Z M584.619,50.754 C585.198,50.754 585.641,50.5627 585.949,50.18 C586.266,49.788 586.425,49.2047 586.425,48.43 C586.425,47.6647 586.266,47.0907 585.949,46.708 C585.641,46.316 585.198,46.12 584.619,46.12 C584.031,46.12 583.574,46.316 583.247,46.708 C582.93,47.0907 582.771,47.6647 582.771,48.43 C582.771,49.2047 582.93,49.788 583.247,50.18 C583.564,50.5627 584.022,50.754 584.619,50.754 Z M592.246,52.098 C591.378,52.098 590.725,51.86 590.286,51.384 C589.857,50.8987 589.642,50.1707 589.642,49.2 L589.642,44.93 L591.392,44.93 L591.392,49.214 C591.392,49.7273 591.499,50.1053 591.714,50.348 C591.929,50.5907 592.251,50.712 592.68,50.712 C593.193,50.712 593.604,50.544 593.912,50.208 C594.22,49.872 594.374,49.424 594.374,48.864 L594.374,44.93 L596.138,44.93 L596.138,52 L594.43,52 L594.43,50.544 L594.612,50.53 C594.407,51.0433 594.099,51.4353 593.688,51.706 C593.277,51.9673 592.797,52.098 592.246,52.098 Z M598.01,52 L598.01,46.932 C598.01,46.596 598.001,46.26 597.982,45.924 C597.973,45.588 597.945,45.2567 597.898,44.93 L599.55,44.93 L599.704,46.33 L599.55,46.372 C599.774,45.84 600.106,45.4387 600.544,45.168 C600.992,44.888 601.506,44.748 602.084,44.748 C603.764,44.748 604.604,45.7187 604.604,47.66 L604.604,52 L602.854,52 L602.854,47.73 C602.854,47.1793 602.747,46.778 602.532,46.526 C602.318,46.2647 601.986,46.134 601.538,46.134 C600.997,46.134 600.563,46.3067 600.236,46.652 C599.919,46.988 599.76,47.436 599.76,47.996 L599.76,52 L598.01,52 Z M605.564,46.246 L605.564,44.93 L610.548,44.93 L610.548,46.246 L605.564,46.246 Z M610.548,50.544 L610.548,51.93 C610.361,51.9953 610.175,52.0373 609.988,52.056 C609.811,52.084 609.619,52.098 609.414,52.098 C608.621,52.098 608.005,51.874 607.566,51.426 C607.137,50.978 606.922,50.334 606.922,49.494 L606.922,43.208 L608.672,42.62 L608.672,49.41 C608.672,49.7273 608.723,49.9793 608.826,50.166 C608.929,50.3433 609.064,50.4693 609.232,50.544 C609.409,50.6187 609.605,50.656 609.82,50.656 C609.941,50.656 610.058,50.6467 610.17,50.628 C610.282,50.6093 610.408,50.5813 610.548,50.544 Z" id="Shape" fill="#534CEA" fill-rule="nonzero"></path>
            <path d="M71.68,56 L71.68,41.76 L73.36,41.76 L78.96,54.5 L78.1,54.5 L83.64,41.76 L85.32,41.76 L85.32,56 L83.44,56 L83.44,44.62 L84.08,44.74 L79.2,56 L77.8,56 L72.84,44.74 L73.52,44.62 L73.54,56 L71.68,56 Z M92.352,56.14 C91.459,56.14 90.672,55.9333 89.992,55.52 C89.326,55.0933 88.806,54.4933 88.432,53.72 C88.072,52.9333 87.892,52.0133 87.892,50.96 C87.892,49.9067 88.079,48.9867 88.452,48.2 C88.826,47.4 89.346,46.78 90.012,46.34 C90.692,45.9 91.472,45.68 92.352,45.68 C93.246,45.68 94.006,45.9 94.632,46.34 C95.272,46.7667 95.706,47.38 95.932,48.18 L95.692,48.34 L95.692,45.92 L97.692,45.92 L97.692,56 L95.692,56 L95.692,53.54 L95.932,53.64 C95.706,54.44 95.272,55.06 94.632,55.5 C94.006,55.9267 93.246,56.14 92.352,56.14 Z M92.832,54.54 C93.739,54.54 94.439,54.2267 94.932,53.6 C95.439,52.9733 95.692,52.08 95.692,50.92 C95.692,49.76 95.439,48.8667 94.932,48.24 C94.439,47.6133 93.739,47.3 92.832,47.3 C91.912,47.3 91.192,47.6267 90.672,48.28 C90.166,48.92 89.912,49.8133 89.912,50.96 C89.912,52.1067 90.166,52.9933 90.672,53.62 C91.192,54.2333 91.912,54.54 92.832,54.54 Z M100.64,56 L100.64,48.76 C100.64,48.2933 100.626,47.82 100.6,47.34 C100.586,46.86 100.546,46.3867 100.48,45.92 L102.4,45.92 L102.58,47.96 L102.38,48.08 C102.673,47.2933 103.14,46.7 103.78,46.3 C104.433,45.8867 105.18,45.68 106.02,45.68 C108.433,45.68 109.64,47.0333 109.64,49.74 L109.64,56 L107.62,56 L107.62,49.82 C107.62,48.9533 107.446,48.32 107.1,47.92 C106.753,47.52 106.22,47.32 105.5,47.32 C104.633,47.32 103.94,47.5867 103.42,48.12 C102.913,48.6533 102.66,49.3667 102.66,50.26 L102.66,56 L100.64,56 Z M116.095,56.14 C114.882,56.14 113.968,55.8067 113.355,55.14 C112.742,54.46 112.435,53.4467 112.435,52.1 L112.435,45.92 L114.455,45.92 L114.455,52.08 C114.455,52.9067 114.622,53.52 114.955,53.92 C115.302,54.3067 115.828,54.5 116.535,54.5 C117.348,54.5 118.002,54.2333 118.495,53.7 C119.002,53.1667 119.255,52.46 119.255,51.58 L119.255,45.92 L121.275,45.92 L121.275,56 L119.315,56 L119.315,53.86 L119.555,53.78 C119.275,54.5533 118.828,55.14 118.215,55.54 C117.602,55.94 116.895,56.14 116.095,56.14 Z M128.094,56.14 C127.201,56.14 126.414,55.9333 125.734,55.52 C125.068,55.0933 124.548,54.4933 124.174,53.72 C123.814,52.9333 123.634,52.0133 123.634,50.96 C123.634,49.9067 123.821,48.9867 124.194,48.2 C124.568,47.4 125.088,46.78 125.754,46.34 C126.434,45.9 127.214,45.68 128.094,45.68 C128.988,45.68 129.748,45.9 130.374,46.34 C131.014,46.7667 131.448,47.38 131.674,48.18 L131.434,48.34 L131.434,45.92 L133.434,45.92 L133.434,56 L131.434,56 L131.434,53.54 L131.674,53.64 C131.448,54.44 131.014,55.06 130.374,55.5 C129.748,55.9267 128.988,56.14 128.094,56.14 Z M128.574,54.54 C129.481,54.54 130.181,54.2267 130.674,53.6 C131.181,52.9733 131.434,52.08 131.434,50.92 C131.434,49.76 131.181,48.8667 130.674,48.24 C130.181,47.6133 129.481,47.3 128.574,47.3 C127.654,47.3 126.934,47.6267 126.414,48.28 C125.908,48.92 125.654,49.8133 125.654,50.96 C125.654,52.1067 125.908,52.9933 126.414,53.62 C126.934,54.2333 127.654,54.54 128.574,54.54 Z M136.382,56 L136.382,41.28 L138.402,41.28 L138.402,56 L136.382,56 Z M147.515,56 L145.415,56 L151.755,41.76 L153.495,41.76 L159.835,56 L157.755,56 L152.335,43.32 L152.975,43.32 L147.515,56 Z M148.155,52.48 L148.915,50.84 L156.295,50.84 L157.035,52.48 L148.155,52.48 Z M165.879,56.14 C164.866,56.14 163.986,55.9267 163.239,55.5 C162.506,55.0733 161.939,54.4733 161.539,53.7 C161.139,52.9267 160.939,52.0133 160.939,50.96 C160.939,49.9067 161.146,48.9867 161.559,48.2 C161.972,47.4 162.552,46.78 163.299,46.34 C164.059,45.9 164.952,45.68 165.979,45.68 C166.672,45.68 167.346,45.7933 167.999,46.02 C168.652,46.2467 169.186,46.5667 169.599,46.98 L168.979,48.44 C168.512,48.0667 168.039,47.7867 167.559,47.6 C167.092,47.4133 166.612,47.32 166.119,47.32 C165.159,47.32 164.399,47.6333 163.839,48.26 C163.292,48.8867 163.019,49.78 163.019,50.94 C163.019,52.1 163.292,52.9867 163.839,53.6 C164.386,54.2133 165.146,54.52 166.119,54.52 C166.599,54.52 167.079,54.4267 167.559,54.24 C168.039,54.0533 168.512,53.7733 168.979,53.4 L169.599,54.86 C169.172,55.26 168.626,55.5733 167.959,55.8 C167.292,56.0267 166.599,56.14 165.879,56.14 Z M175.86,56.14 C174.846,56.14 173.966,55.9267 173.22,55.5 C172.486,55.0733 171.92,54.4733 171.52,53.7 C171.12,52.9267 170.92,52.0133 170.92,50.96 C170.92,49.9067 171.126,48.9867 171.54,48.2 C171.953,47.4 172.533,46.78 173.28,46.34 C174.04,45.9 174.933,45.68 175.96,45.68 C176.653,45.68 177.326,45.7933 177.98,46.02 C178.633,46.2467 179.166,46.5667 179.58,46.98 L178.96,48.44 C178.493,48.0667 178.02,47.7867 177.54,47.6 C177.073,47.4133 176.593,47.32 176.1,47.32 C175.14,47.32 174.38,47.6333 173.82,48.26 C173.273,48.8867 173,49.78 173,50.94 C173,52.1 173.273,52.9867 173.82,53.6 C174.366,54.2133 175.126,54.52 176.1,54.52 C176.58,54.52 177.06,54.4267 177.54,54.24 C178.02,54.0533 178.493,53.7733 178.96,53.4 L179.58,54.86 C179.153,55.26 178.606,55.5733 177.94,55.8 C177.273,56.0267 176.58,56.14 175.86,56.14 Z M185.82,56.14 C184.82,56.14 183.947,55.9267 183.2,55.5 C182.467,55.0733 181.9,54.4733 181.5,53.7 C181.1,52.9133 180.9,51.98 180.9,50.9 C180.9,49.8467 181.1,48.9267 181.5,48.14 C181.9,47.3533 182.467,46.7467 183.2,46.32 C183.947,45.8933 184.82,45.68 185.82,45.68 C186.807,45.68 187.667,45.8933 188.4,46.32 C189.147,46.7467 189.72,47.3533 190.12,48.14 C190.533,48.9267 190.74,49.8467 190.74,50.9 C190.74,51.98 190.533,52.9133 190.12,53.7 C189.72,54.4733 189.147,55.0733 188.4,55.5 C187.667,55.9267 186.807,56.14 185.82,56.14 Z M185.82,54.54 C186.727,54.54 187.427,54.2333 187.92,53.62 C188.427,53.0067 188.68,52.1 188.68,50.9 C188.68,49.74 188.427,48.8533 187.92,48.24 C187.427,47.6133 186.727,47.3 185.82,47.3 C184.913,47.3 184.2,47.6133 183.68,48.24 C183.173,48.8533 182.92,49.74 182.92,50.9 C182.92,52.1 183.167,53.0067 183.66,53.62 C184.167,54.2333 184.887,54.54 185.82,54.54 Z M196.681,56.14 C195.468,56.14 194.554,55.8067 193.941,55.14 C193.328,54.46 193.021,53.4467 193.021,52.1 L193.021,45.92 L195.041,45.92 L195.041,52.08 C195.041,52.9067 195.208,53.52 195.541,53.92 C195.888,54.3067 196.414,54.5 197.121,54.5 C197.934,54.5 198.588,54.2333 199.081,53.7 C199.588,53.1667 199.841,52.46 199.841,51.58 L199.841,45.92 L201.861,45.92 L201.861,56 L199.901,56 L199.901,53.86 L200.141,53.78 C199.861,54.5533 199.414,55.14 198.801,55.54 C198.188,55.94 197.481,56.14 196.681,56.14 Z M204.78,56 L204.78,48.76 C204.78,48.2933 204.767,47.82 204.74,47.34 C204.727,46.86 204.687,46.3867 204.62,45.92 L206.54,45.92 L206.72,47.96 L206.52,48.08 C206.814,47.2933 207.28,46.7 207.92,46.3 C208.574,45.8867 209.32,45.68 210.16,45.68 C212.574,45.68 213.78,47.0333 213.78,49.74 L213.78,56 L211.76,56 L211.76,49.82 C211.76,48.9533 211.587,48.32 211.24,47.92 C210.894,47.52 210.36,47.32 209.64,47.32 C208.774,47.32 208.08,47.5867 207.56,48.12 C207.054,48.6533 206.8,49.3667 206.8,50.26 L206.8,56 L204.78,56 Z M215.296,47.48 L215.296,45.92 L222.056,45.92 L222.056,47.48 L215.296,47.48 Z M222.036,54.28 L222.036,55.92 C221.796,56 221.556,56.0533 221.316,56.08 C221.076,56.12 220.816,56.14 220.536,56.14 C219.509,56.14 218.702,55.8533 218.116,55.28 C217.542,54.6933 217.256,53.8333 217.256,52.7 L217.256,43.4 L219.276,42.7 L219.276,52.54 C219.276,53.0333 219.349,53.42 219.496,53.7 C219.642,53.9667 219.842,54.16 220.096,54.28 C220.362,54.3867 220.656,54.44 220.976,54.44 C221.162,54.44 221.336,54.4267 221.496,54.4 C221.656,54.3733 221.836,54.3333 222.036,54.28 Z M227.441,56.14 C225.681,56.14 224.288,55.7133 223.261,54.86 L223.881,53.4 C224.415,53.8133 224.975,54.12 225.561,54.32 C226.161,54.5067 226.808,54.6 227.501,54.6 C228.195,54.6 228.721,54.4867 229.081,54.26 C229.441,54.02 229.621,53.6867 229.621,53.26 C229.621,52.9 229.495,52.62 229.241,52.42 C229.001,52.2067 228.588,52.0267 228.001,51.88 L226.301,51.48 C225.421,51.2933 224.748,50.9667 224.281,50.5 C223.828,50.02 223.601,49.4267 223.601,48.72 C223.601,48.12 223.768,47.5933 224.101,47.14 C224.435,46.6867 224.901,46.3333 225.501,46.08 C226.101,45.8133 226.801,45.68 227.601,45.68 C228.321,45.68 229.001,45.7933 229.641,46.02 C230.281,46.2333 230.835,46.5533 231.301,46.98 L230.681,48.4 C230.188,48.0133 229.681,47.7267 229.161,47.54 C228.655,47.34 228.135,47.24 227.601,47.24 C226.948,47.24 226.441,47.3667 226.081,47.62 C225.721,47.86 225.541,48.2 225.541,48.64 C225.541,49 225.648,49.2867 225.861,49.5 C226.088,49.7 226.461,49.86 226.981,49.98 L228.681,50.4 C229.655,50.6133 230.368,50.9533 230.821,51.42 C231.275,51.8867 231.501,52.4867 231.501,53.22 C231.501,54.1133 231.135,54.8267 230.401,55.36 C229.681,55.88 228.695,56.14 227.441,56.14 Z M242.174,59.64 C241.601,58.5867 241.134,57.5667 240.774,56.58 C240.428,55.5933 240.174,54.62 240.014,53.66 C239.868,52.6867 239.794,51.6933 239.794,50.68 C239.794,49.6667 239.874,48.6733 240.034,47.7 C240.194,46.7267 240.448,45.7533 240.794,44.78 C241.141,43.7933 241.601,42.7867 242.174,41.76 L243.834,41.76 C243.328,42.9733 242.934,44.0867 242.654,45.1 C242.374,46.1 242.174,47.06 242.054,47.98 C241.934,48.8867 241.874,49.7867 241.874,50.68 C241.874,51.5867 241.934,52.4933 242.054,53.4 C242.174,54.3067 242.374,55.2667 242.654,56.28 C242.934,57.3067 243.321,58.4267 243.814,59.64 L242.174,59.64 Z M249.954,55.06 L249.954,43.14 L251.054,43.54 L247.054,46.02 L247.054,44.12 L250.834,41.76 L252.034,41.76 L252.034,55.06 L249.954,55.06 Z M246.834,56 L246.834,54.3 L255.154,54.3 L255.154,56 L246.834,56 Z M257.686,57.14 L255.926,57.14 L261.086,40.98 L262.866,40.98 L257.686,57.14 Z M268.183,56.14 C267.249,56.14 266.349,55.9933 265.483,55.7 C264.616,55.3933 263.896,54.9733 263.323,54.44 L264.063,52.9 C264.703,53.42 265.356,53.8133 266.023,54.08 C266.689,54.3333 267.389,54.46 268.123,54.46 C269.096,54.46 269.823,54.26 270.303,53.86 C270.796,53.4467 271.043,52.8267 271.043,52 C271.043,51.2 270.789,50.6067 270.283,50.22 C269.776,49.82 269.009,49.62 267.983,49.62 L266.243,49.62 L266.243,47.94 L267.663,47.94 C268.649,47.94 269.396,47.7333 269.903,47.32 C270.423,46.9067 270.683,46.3067 270.683,45.52 C270.683,44.8 270.469,44.2467 270.043,43.86 C269.616,43.4733 269.009,43.28 268.223,43.28 C267.543,43.28 266.869,43.4133 266.203,43.68 C265.549,43.9333 264.903,44.32 264.263,44.84 L263.523,43.3 C264.096,42.78 264.809,42.3667 265.663,42.06 C266.529,41.7533 267.416,41.6 268.323,41.6 C269.203,41.6 269.976,41.7533 270.643,42.06 C271.309,42.3533 271.816,42.78 272.163,43.34 C272.523,43.9 272.703,44.5533 272.703,45.3 C272.703,46.1667 272.476,46.9067 272.023,47.52 C271.569,48.1333 270.943,48.5533 270.143,48.78 L270.103,48.58 C271.049,48.78 271.776,49.1867 272.283,49.8 C272.789,50.4133 273.043,51.1933 273.043,52.14 C273.043,53.38 272.603,54.36 271.723,55.08 C270.856,55.7867 269.676,56.14 268.183,56.14 Z M276.615,59.64 L274.995,59.64 C275.488,58.4267 275.868,57.3067 276.135,56.28 C276.415,55.2667 276.615,54.3067 276.735,53.4 C276.855,52.4933 276.915,51.5867 276.915,50.68 C276.915,49.7867 276.855,48.8867 276.735,47.98 C276.628,47.06 276.435,46.1 276.155,45.1 C275.875,44.0867 275.482,42.9733 274.975,41.76 L276.635,41.76 C277.475,43.2933 278.075,44.7867 278.435,46.24 C278.808,47.6933 278.995,49.1733 278.995,50.68 C278.995,51.6933 278.915,52.6867 278.755,53.66 C278.608,54.62 278.362,55.5933 278.015,56.58 C277.668,57.5667 277.202,58.5867 276.615,59.64 Z" id="Shape" fill="#000000" fill-rule="nonzero"></path>
        </g>
    </g>
</svg>