<svg width="857" height="295" viewBox="0 0 857 295" fill="none" xmlns="http://www.w3.org/2000/svg">
  <g filter="url(#filter0_di)">
    <rect x="30" y="114" width="797" height="149" rx="6" fill="white"/>
  </g>
  <mask id="mask0" mask-type="alpha" maskUnits="userSpaceOnUse" x="30" y="114" width="3" height="149">
    <rect x="30" y="114" width="3" height="149" fill="#29CFD6"/>
  </mask>
  <g mask="url(#mask0)">
    <rect x="30" y="114" width="12" height="149" rx="6" fill="#235EE7"/>
  </g>
  <path fill-rule="evenodd" clip-rule="evenodd" d="M779.529 208.471C779.223 208.167 778.808 207.997 778.377 208C777.945 208.003 777.533 208.178 777.231 208.487L770.787 214.931L770 218L773.069 217.213L779.513 210.769C779.822 210.467 779.997 210.055 780 209.623C780.003 209.192 779.833 208.777 779.529 208.471Z" stroke="#534CEA" stroke-width="1.5" stroke-linecap="round" stroke-linejoin="round"/>
  <circle cx="775" cy="213" r="11.25" stroke="#534CEA" stroke-width="1.5" stroke-linecap="round" stroke-linejoin="round"/>
  <path d="M569.832 218.128C569.011 218.128 568.243 218.005 567.528 217.76C566.824 217.515 566.211 217.157 565.688 216.688L566.216 215.568C566.781 216.037 567.347 216.379 567.912 216.592C568.488 216.795 569.117 216.896 569.8 216.896C570.632 216.896 571.272 216.725 571.72 216.384C572.179 216.032 572.408 215.547 572.408 214.928C572.408 214.544 572.291 214.24 572.056 214.016C571.821 213.792 571.507 213.611 571.112 213.472C570.728 213.323 570.301 213.195 569.832 213.088C569.373 212.981 568.909 212.859 568.44 212.72C567.981 212.571 567.555 212.384 567.16 212.16C566.776 211.925 566.467 211.621 566.232 211.248C565.997 210.875 565.88 210.389 565.88 209.792C565.88 209.141 566.051 208.571 566.392 208.08C566.744 207.579 567.224 207.189 567.832 206.912C568.451 206.624 569.149 206.48 569.928 206.48C570.419 206.48 570.899 206.539 571.368 206.656C571.837 206.763 572.275 206.923 572.68 207.136C573.096 207.339 573.453 207.589 573.752 207.888L573.224 209.008C572.264 208.144 571.171 207.712 569.944 207.712C569.155 207.712 568.531 207.893 568.072 208.256C567.613 208.608 567.384 209.099 567.384 209.728C567.384 210.144 567.501 210.48 567.736 210.736C567.971 210.992 568.28 211.195 568.664 211.344C569.059 211.493 569.485 211.621 569.944 211.728C570.413 211.835 570.877 211.957 571.336 212.096C571.805 212.235 572.232 212.411 572.616 212.624C573.011 212.837 573.32 213.125 573.544 213.488C573.779 213.851 573.896 214.315 573.896 214.88C573.896 215.531 573.725 216.101 573.384 216.592C573.043 217.072 572.563 217.451 571.944 217.728C571.336 217.995 570.632 218.128 569.832 218.128ZM569.336 219.856V217.872L569.4 217.168V207.296L569.336 206.704V204.752H570.584V206.704L570.52 207.296V217.168L570.584 217.872V219.856H569.336ZM577.89 218H576.306L581.874 207.28L581.97 207.84H575.586V206.608H583.202V207.712L577.89 218ZM585.916 219.904L585.26 219.408C585.558 219.088 585.761 218.795 585.868 218.528C585.974 218.261 586.028 217.984 586.028 217.696L586.444 218H585.18V216.224H586.956V217.456C586.956 217.915 586.881 218.341 586.732 218.736C586.582 219.131 586.31 219.52 585.916 219.904ZM589.233 218V216.88L593.201 212.528C593.713 211.952 594.086 211.435 594.321 210.976C594.566 210.507 594.689 210.037 594.689 209.568C594.689 208.971 594.513 208.512 594.161 208.192C593.809 207.861 593.313 207.696 592.673 207.696C592.129 207.696 591.59 207.808 591.057 208.032C590.524 208.245 589.996 208.565 589.473 208.992L588.929 207.872C589.377 207.445 589.942 207.109 590.625 206.864C591.318 206.608 592.012 206.48 592.705 206.48C593.42 206.48 594.033 206.603 594.545 206.848C595.057 207.083 595.457 207.429 595.745 207.888C596.033 208.336 596.177 208.869 596.177 209.488C596.177 210.139 596.028 210.763 595.729 211.36C595.441 211.957 594.961 212.629 594.289 213.376L590.529 217.424L590.401 216.768H596.641V218H589.233ZM602.219 218.112C601.472 218.112 600.758 217.995 600.075 217.76C599.392 217.515 598.816 217.168 598.347 216.72L598.907 215.6C599.408 216.027 599.931 216.352 600.475 216.576C601.019 216.789 601.584 216.896 602.171 216.896C602.96 216.896 603.558 216.725 603.963 216.384C604.368 216.032 604.571 215.515 604.571 214.832C604.571 214.16 604.363 213.659 603.947 213.328C603.531 212.997 602.896 212.832 602.043 212.832H600.683V211.6H601.787C602.608 211.6 603.232 211.424 603.659 211.072C604.086 210.72 604.299 210.213 604.299 209.552C604.299 208.955 604.118 208.496 603.755 208.176C603.403 207.856 602.902 207.696 602.251 207.696C601.696 207.696 601.152 207.808 600.619 208.032C600.096 208.245 599.579 208.565 599.067 208.992L598.523 207.872C598.982 207.435 599.547 207.093 600.219 206.848C600.902 206.603 601.6 206.48 602.315 206.48C603.019 206.48 603.627 206.603 604.139 206.848C604.662 207.083 605.062 207.424 605.339 207.872C605.627 208.309 605.771 208.827 605.771 209.424C605.771 210.128 605.584 210.725 605.211 211.216C604.848 211.707 604.347 212.043 603.707 212.224L603.675 212.064C604.432 212.224 605.014 212.549 605.419 213.04C605.824 213.531 606.027 214.155 606.027 214.912C606.027 215.904 605.68 216.688 604.987 217.264C604.304 217.829 603.382 218.112 602.219 218.112ZM612.085 218.112C611.381 218.112 610.687 217.989 610.005 217.744C609.333 217.499 608.767 217.157 608.309 216.72L608.853 215.6C609.375 216.027 609.903 216.352 610.437 216.576C610.97 216.789 611.519 216.896 612.085 216.896C612.863 216.896 613.471 216.683 613.909 216.256C614.346 215.819 614.565 215.221 614.565 214.464C614.565 213.984 614.463 213.563 614.261 213.2C614.069 212.837 613.791 212.555 613.429 212.352C613.077 212.139 612.661 212.032 612.181 212.032C611.658 212.032 611.183 212.139 610.757 212.352C610.33 212.555 609.957 212.864 609.637 213.28H608.645V206.608H615.541V207.808H610.117V212.224L609.653 212.176C609.962 211.739 610.357 211.403 610.837 211.168C611.317 210.933 611.855 210.816 612.453 210.816C613.178 210.816 613.807 210.971 614.341 211.28C614.874 211.579 615.285 212 615.573 212.544C615.861 213.088 616.005 213.717 616.005 214.432C616.005 215.157 615.845 215.797 615.525 216.352C615.205 216.907 614.751 217.339 614.165 217.648C613.578 217.957 612.885 218.112 612.085 218.112Z" fill="#434A55"/>
  <path d="M184.376 218V206.608H185.848V216.752H191.48V218H184.376ZM199.622 217.056C199.27 217.387 198.817 217.648 198.262 217.84C197.707 218.021 197.142 218.112 196.566 218.112C195.723 218.112 194.998 217.947 194.39 217.616C193.782 217.285 193.313 216.811 192.982 216.192C192.651 215.563 192.486 214.816 192.486 213.952C192.486 213.12 192.646 212.389 192.966 211.76C193.297 211.131 193.75 210.64 194.326 210.288C194.902 209.925 195.563 209.744 196.31 209.744C197.035 209.744 197.654 209.904 198.166 210.224C198.689 210.544 199.083 211.003 199.35 211.6C199.627 212.187 199.766 212.891 199.766 213.712V213.968H193.766V213.072H198.934L198.486 213.648C198.507 212.741 198.331 212.048 197.958 211.568C197.585 211.088 197.041 210.848 196.326 210.848C195.579 210.848 194.993 211.115 194.566 211.648C194.15 212.171 193.942 212.907 193.942 213.856C193.942 214.88 194.166 215.653 194.614 216.176C195.062 216.688 195.723 216.944 196.598 216.944C197.067 216.944 197.515 216.869 197.942 216.72C198.369 216.56 198.774 216.325 199.158 216.016L199.622 217.056ZM205.253 221.568C204.026 221.568 202.959 221.296 202.053 220.752L202.309 219.584C202.81 219.872 203.285 220.08 203.733 220.208C204.191 220.336 204.698 220.4 205.253 220.4C206.01 220.4 206.581 220.197 206.965 219.792C207.359 219.397 207.557 218.805 207.557 218.016V215.872L207.733 215.712C207.605 216.128 207.402 216.491 207.125 216.8C206.858 217.099 206.527 217.333 206.133 217.504C205.749 217.675 205.306 217.76 204.805 217.76C204.101 217.76 203.477 217.595 202.933 217.264C202.389 216.923 201.962 216.453 201.653 215.856C201.354 215.259 201.205 214.56 201.205 213.76C201.205 212.96 201.354 212.261 201.653 211.664C201.962 211.056 202.389 210.587 202.933 210.256C203.477 209.915 204.101 209.744 204.805 209.744C205.541 209.744 206.165 209.925 206.677 210.288C207.199 210.651 207.551 211.152 207.733 211.792L207.541 211.664V209.952H208.997V217.888C208.997 219.115 208.677 220.032 208.037 220.64C207.407 221.259 206.479 221.568 205.253 221.568ZM205.125 216.56C205.882 216.56 206.474 216.315 206.901 215.824C207.327 215.323 207.541 214.635 207.541 213.76C207.541 212.885 207.327 212.197 206.901 211.696C206.474 211.195 205.882 210.944 205.125 210.944C204.367 210.944 203.77 211.195 203.333 211.696C202.895 212.197 202.677 212.885 202.677 213.76C202.677 214.645 202.895 215.333 203.333 215.824C203.77 216.315 204.367 216.56 205.125 216.56ZM214.811 218.112C214.032 218.112 213.35 217.941 212.763 217.6C212.187 217.259 211.739 216.779 211.419 216.16C211.099 215.531 210.939 214.789 210.939 213.936C210.939 213.093 211.099 212.357 211.419 211.728C211.739 211.088 212.187 210.597 212.763 210.256C213.35 209.915 214.032 209.744 214.811 209.744C215.6 209.744 216.283 209.915 216.859 210.256C217.435 210.597 217.883 211.088 218.203 211.728C218.523 212.357 218.683 213.093 218.683 213.936C218.683 214.789 218.523 215.531 218.203 216.16C217.883 216.779 217.435 217.259 216.859 217.6C216.283 217.941 215.6 218.112 214.811 218.112ZM214.811 216.928C215.579 216.928 216.171 216.677 216.587 216.176C217.003 215.664 217.211 214.917 217.211 213.936C217.211 212.965 216.998 212.224 216.571 211.712C216.155 211.2 215.568 210.944 214.811 210.944C214.064 210.944 213.478 211.2 213.051 211.712C212.624 212.224 212.411 212.965 212.411 213.936C212.411 214.917 212.619 215.664 213.035 216.176C213.451 216.677 214.043 216.928 214.811 216.928ZM228.312 218.112C227.502 218.112 226.803 217.941 226.216 217.6C225.64 217.259 225.192 216.779 224.872 216.16C224.552 215.541 224.392 214.811 224.392 213.968C224.392 213.136 224.552 212.4 224.872 211.76C225.203 211.12 225.667 210.624 226.264 210.272C226.862 209.92 227.566 209.744 228.376 209.744C228.931 209.744 229.464 209.84 229.976 210.032C230.488 210.213 230.91 210.469 231.24 210.8L230.776 211.856C230.392 211.557 230.008 211.333 229.624 211.184C229.251 211.024 228.862 210.944 228.456 210.944C227.678 210.944 227.054 211.205 226.584 211.728C226.126 212.251 225.896 212.997 225.896 213.968C225.896 214.917 226.126 215.648 226.584 216.16C227.043 216.672 227.672 216.928 228.472 216.928C228.856 216.928 229.24 216.853 229.624 216.704C230.008 216.555 230.392 216.325 230.776 216.016L231.24 217.072C230.899 217.392 230.467 217.648 229.944 217.84C229.422 218.021 228.878 218.112 228.312 218.112ZM236.217 218.112C235.439 218.112 234.756 217.941 234.169 217.6C233.593 217.259 233.145 216.779 232.825 216.16C232.505 215.531 232.345 214.789 232.345 213.936C232.345 213.093 232.505 212.357 232.825 211.728C233.145 211.088 233.593 210.597 234.169 210.256C234.756 209.915 235.439 209.744 236.217 209.744C237.007 209.744 237.689 209.915 238.265 210.256C238.841 210.597 239.289 211.088 239.609 211.728C239.929 212.357 240.089 213.093 240.089 213.936C240.089 214.789 239.929 215.531 239.609 216.16C239.289 216.779 238.841 217.259 238.265 217.6C237.689 217.941 237.007 218.112 236.217 218.112ZM236.217 216.928C236.985 216.928 237.577 216.677 237.993 216.176C238.409 215.664 238.617 214.917 238.617 213.936C238.617 212.965 238.404 212.224 237.977 211.712C237.561 211.2 236.975 210.944 236.217 210.944C235.471 210.944 234.884 211.2 234.457 211.712C234.031 212.224 233.817 212.965 233.817 213.936C233.817 214.917 234.025 215.664 234.441 216.176C234.857 216.677 235.449 216.928 236.217 216.928ZM242.06 218V206.224H243.516V218H242.06ZM245.95 218V206.224H247.406V218H245.95ZM256.497 217.056C256.145 217.387 255.692 217.648 255.137 217.84C254.582 218.021 254.017 218.112 253.441 218.112C252.598 218.112 251.873 217.947 251.265 217.616C250.657 217.285 250.188 216.811 249.857 216.192C249.526 215.563 249.361 214.816 249.361 213.952C249.361 213.12 249.521 212.389 249.841 211.76C250.172 211.131 250.625 210.64 251.201 210.288C251.777 209.925 252.438 209.744 253.185 209.744C253.91 209.744 254.529 209.904 255.041 210.224C255.564 210.544 255.958 211.003 256.225 211.6C256.502 212.187 256.641 212.891 256.641 213.712V213.968H250.641V213.072H255.809L255.361 213.648C255.382 212.741 255.206 212.048 254.833 211.568C254.46 211.088 253.916 210.848 253.201 210.848C252.454 210.848 251.868 211.115 251.441 211.648C251.025 212.171 250.817 212.907 250.817 213.856C250.817 214.88 251.041 215.653 251.489 216.176C251.937 216.688 252.598 216.944 253.473 216.944C253.942 216.944 254.39 216.869 254.817 216.72C255.244 216.56 255.649 216.325 256.033 216.016L256.497 217.056ZM262 218.112C261.189 218.112 260.49 217.941 259.904 217.6C259.328 217.259 258.88 216.779 258.56 216.16C258.24 215.541 258.08 214.811 258.08 213.968C258.08 213.136 258.24 212.4 258.56 211.76C258.89 211.12 259.354 210.624 259.952 210.272C260.549 209.92 261.253 209.744 262.064 209.744C262.618 209.744 263.152 209.84 263.664 210.032C264.176 210.213 264.597 210.469 264.928 210.8L264.464 211.856C264.08 211.557 263.696 211.333 263.312 211.184C262.938 211.024 262.549 210.944 262.144 210.944C261.365 210.944 260.741 211.205 260.272 211.728C259.813 212.251 259.584 212.997 259.584 213.968C259.584 214.917 259.813 215.648 260.272 216.16C260.73 216.672 261.36 216.928 262.16 216.928C262.544 216.928 262.928 216.853 263.312 216.704C263.696 216.555 264.08 216.325 264.464 216.016L264.928 217.072C264.586 217.392 264.154 217.648 263.632 217.84C263.109 218.021 262.565 218.112 262 218.112ZM265.425 211.072V209.952H270.705V211.072H265.425ZM270.673 216.736V217.952C270.491 218.005 270.305 218.043 270.113 218.064C269.931 218.096 269.734 218.112 269.521 218.112C268.731 218.112 268.107 217.888 267.649 217.44C267.201 216.992 266.977 216.331 266.977 215.456V207.904L268.433 207.392V215.296C268.433 215.712 268.491 216.037 268.609 216.272C268.737 216.496 268.902 216.656 269.105 216.752C269.318 216.837 269.558 216.88 269.825 216.88C269.974 216.88 270.113 216.869 270.241 216.848C270.369 216.827 270.513 216.789 270.673 216.736ZM275.335 218.112C274.631 218.112 274.007 217.947 273.463 217.616C272.93 217.275 272.514 216.795 272.215 216.176C271.917 215.547 271.767 214.811 271.767 213.968C271.767 213.125 271.917 212.389 272.215 211.76C272.525 211.131 272.946 210.64 273.479 210.288C274.023 209.925 274.642 209.744 275.335 209.744C276.061 209.744 276.679 209.925 277.191 210.288C277.703 210.64 278.05 211.147 278.231 211.808L278.039 211.92V209.952H279.479V218H278.039V215.984L278.231 216.064C278.05 216.715 277.703 217.221 277.191 217.584C276.679 217.936 276.061 218.112 275.335 218.112ZM275.655 216.928C276.423 216.928 277.01 216.672 277.415 216.16C277.831 215.637 278.039 214.896 278.039 213.936C278.039 212.976 277.831 212.24 277.415 211.728C276.999 211.205 276.413 210.944 275.655 210.944C274.898 210.944 274.306 211.211 273.879 211.744C273.453 212.277 273.239 213.019 273.239 213.968C273.239 214.917 273.453 215.648 273.879 216.16C274.306 216.672 274.898 216.928 275.655 216.928ZM281.904 218V206.224H283.36V211.984L283.168 211.792C283.349 211.152 283.696 210.651 284.208 210.288C284.72 209.925 285.333 209.744 286.048 209.744C286.762 209.744 287.386 209.915 287.92 210.256C288.453 210.597 288.869 211.083 289.168 211.712C289.477 212.331 289.632 213.061 289.632 213.904C289.632 214.747 289.477 215.488 289.168 216.128C288.869 216.757 288.448 217.248 287.904 217.6C287.37 217.941 286.752 218.112 286.048 218.112C285.333 218.112 284.72 217.936 284.208 217.584C283.696 217.221 283.349 216.715 283.168 216.064L283.344 215.872V218H281.904ZM285.744 216.928C286.501 216.928 287.088 216.667 287.504 216.144C287.92 215.611 288.128 214.864 288.128 213.904C288.128 212.965 287.92 212.24 287.504 211.728C287.088 211.205 286.501 210.944 285.744 210.944C284.976 210.944 284.384 211.205 283.968 211.728C283.552 212.251 283.344 212.987 283.344 213.936C283.344 214.896 283.552 215.637 283.968 216.16C284.384 216.672 284.976 216.928 285.744 216.928ZM291.56 218V206.224H293.016V218H291.56ZM302.106 217.056C301.754 217.387 301.301 217.648 300.746 217.84C300.192 218.021 299.626 218.112 299.05 218.112C298.208 218.112 297.482 217.947 296.874 217.616C296.266 217.285 295.797 216.811 295.466 216.192C295.136 215.563 294.97 214.816 294.97 213.952C294.97 213.12 295.13 212.389 295.45 211.76C295.781 211.131 296.234 210.64 296.81 210.288C297.386 209.925 298.048 209.744 298.794 209.744C299.52 209.744 300.138 209.904 300.65 210.224C301.173 210.544 301.568 211.003 301.834 211.6C302.112 212.187 302.25 212.891 302.25 213.712V213.968H296.25V213.072H301.418L300.97 213.648C300.992 212.741 300.816 212.048 300.442 211.568C300.069 211.088 299.525 210.848 298.81 210.848C298.064 210.848 297.477 211.115 297.05 211.648C296.634 212.171 296.426 212.907 296.426 213.856C296.426 214.88 296.65 215.653 297.098 216.176C297.546 216.688 298.208 216.944 299.082 216.944C299.552 216.944 300 216.869 300.426 216.72C300.853 216.56 301.258 216.325 301.642 216.016L302.106 217.056ZM306.937 218.112C305.561 218.112 304.468 217.765 303.657 217.072L304.121 216.016C304.548 216.347 304.99 216.592 305.449 216.752C305.918 216.901 306.43 216.976 306.985 216.976C307.561 216.976 307.998 216.88 308.297 216.688C308.606 216.485 308.761 216.197 308.761 215.824C308.761 215.525 308.654 215.291 308.441 215.12C308.238 214.939 307.897 214.789 307.417 214.672L306.073 214.352C305.38 214.203 304.846 213.936 304.473 213.552C304.11 213.168 303.929 212.704 303.929 212.16C303.929 211.691 304.057 211.275 304.313 210.912C304.58 210.549 304.948 210.267 305.417 210.064C305.886 209.851 306.441 209.744 307.081 209.744C307.646 209.744 308.18 209.835 308.681 210.016C309.193 210.197 309.625 210.459 309.977 210.8L309.513 211.84C309.129 211.52 308.734 211.285 308.329 211.136C307.924 210.976 307.502 210.896 307.065 210.896C306.521 210.896 306.094 211.003 305.785 211.216C305.486 211.429 305.337 211.717 305.337 212.08C305.337 212.389 305.433 212.635 305.625 212.816C305.817 212.997 306.121 213.141 306.537 213.248L307.897 213.584C308.665 213.744 309.23 214.011 309.593 214.384C309.956 214.747 310.137 215.216 310.137 215.792C310.137 216.496 309.849 217.061 309.273 217.488C308.697 217.904 307.918 218.112 306.937 218.112Z" fill="#434A55"/>
  <rect opacity="0.2" x="130.5" y="201.5" width="39" height="21" rx="10.5" stroke="#534CEA"/>
  <g filter="">
    <rect x="133" y="204" width="16" height="16" rx="8" fill="#969EAC"/>
  </g>
  <rect x="70" y="189" width="40" height="40" rx="20" fill="#534CEA"/>
  <path d="M90 219C84.4772 219 80 214.75 80 209.507C80 207.81 80.4691 206.217 81.2909 204.838M90 219C95.5228 219 100 214.75 100 209.507H90M90 219V209.507M90 200.013C87.2743 200.013 84.8033 201.049 82.9995 202.728C83.059 202.789 87.6913 207.272 90 209.507M90 200.013C92.7257 200.013 95.1967 201.049 97.0005 202.728L90 209.507M90 200.013L93.5302 198L98.6738 204.779L90 209.507M90 200.013L86.4027 198L81.2909 204.838M90 209.507L81.2909 204.838" stroke="white"/>
  <path d="M781.728 157.69C779.12 161.783 773.899 163.335 769.479 161.332C765.058 159.328 762.783 154.38 764.141 149.721C765.499 145.061 770.076 142.11 774.881 142.795C779.685 143.48 783.255 147.594 783.256 152.447V154.7M786.256 151.697L783.256 154.697L780.256 151.697" stroke="#969EAC" stroke-width="1.5" stroke-linecap="round" stroke-linejoin="round"/>
  <path d="M581.204 157V147.032H582.492V155.908H587.42V157H581.204ZM591.422 157.098C590.806 157.098 590.26 156.953 589.784 156.664C589.318 156.365 588.954 155.945 588.692 155.404C588.431 154.853 588.3 154.209 588.3 153.472C588.3 152.735 588.431 152.091 588.692 151.54C588.963 150.989 589.332 150.56 589.798 150.252C590.274 149.935 590.816 149.776 591.422 149.776C592.057 149.776 592.598 149.935 593.046 150.252C593.494 150.56 593.798 151.003 593.956 151.582L593.788 151.68V149.958H595.048V157H593.788V155.236L593.956 155.306C593.798 155.875 593.494 156.319 593.046 156.636C592.598 156.944 592.057 157.098 591.422 157.098ZM591.702 156.062C592.374 156.062 592.888 155.838 593.242 155.39C593.606 154.933 593.788 154.284 593.788 153.444C593.788 152.604 593.606 151.96 593.242 151.512C592.878 151.055 592.365 150.826 591.702 150.826C591.04 150.826 590.522 151.059 590.148 151.526C589.775 151.993 589.588 152.641 589.588 153.472C589.588 154.303 589.775 154.942 590.148 155.39C590.522 155.838 591.04 156.062 591.702 156.062ZM599.591 157.098C598.387 157.098 597.431 156.795 596.721 156.188L597.127 155.264C597.501 155.553 597.888 155.768 598.289 155.908C598.7 156.039 599.148 156.104 599.633 156.104C600.137 156.104 600.52 156.02 600.781 155.852C601.052 155.675 601.187 155.423 601.187 155.096C601.187 154.835 601.094 154.629 600.907 154.48C600.73 154.321 600.431 154.191 600.011 154.088L598.835 153.808C598.229 153.677 597.762 153.444 597.435 153.108C597.118 152.772 596.959 152.366 596.959 151.89C596.959 151.479 597.071 151.115 597.295 150.798C597.529 150.481 597.851 150.233 598.261 150.056C598.672 149.869 599.157 149.776 599.717 149.776C600.212 149.776 600.679 149.855 601.117 150.014C601.565 150.173 601.943 150.401 602.251 150.7L601.845 151.61C601.509 151.33 601.164 151.125 600.809 150.994C600.455 150.854 600.086 150.784 599.703 150.784C599.227 150.784 598.854 150.877 598.583 151.064C598.322 151.251 598.191 151.503 598.191 151.82C598.191 152.091 598.275 152.305 598.443 152.464C598.611 152.623 598.877 152.749 599.241 152.842L600.431 153.136C601.103 153.276 601.598 153.509 601.915 153.836C602.233 154.153 602.391 154.564 602.391 155.068C602.391 155.684 602.139 156.179 601.635 156.552C601.131 156.916 600.45 157.098 599.591 157.098ZM603.094 150.938V149.958H607.714V150.938H603.094ZM607.686 155.894V156.958C607.527 157.005 607.364 157.037 607.196 157.056C607.037 157.084 606.865 157.098 606.678 157.098C605.987 157.098 605.441 156.902 605.04 156.51C604.648 156.118 604.452 155.539 604.452 154.774V148.166L605.726 147.718V154.634C605.726 154.998 605.777 155.283 605.88 155.488C605.992 155.684 606.137 155.824 606.314 155.908C606.501 155.983 606.711 156.02 606.944 156.02C607.075 156.02 607.196 156.011 607.308 155.992C607.42 155.973 607.546 155.941 607.686 155.894ZM615.261 157.098C614.412 157.098 613.773 156.865 613.343 156.398C612.923 155.922 612.713 155.222 612.713 154.298V149.958H613.987V154.284C613.987 154.891 614.109 155.339 614.351 155.628C614.603 155.908 614.986 156.048 615.499 156.048C616.097 156.048 616.577 155.857 616.941 155.474C617.305 155.082 617.487 154.564 617.487 153.92V149.958H618.775V157H617.529V155.488L617.697 155.418C617.511 155.969 617.198 156.389 616.759 156.678C616.321 156.958 615.821 157.098 615.261 157.098ZM620.89 160.024V151.932C620.89 151.605 620.881 151.279 620.862 150.952C620.853 150.616 620.825 150.285 620.778 149.958H621.982L622.108 151.4L621.996 151.582C622.155 151.003 622.458 150.56 622.906 150.252C623.354 149.935 623.891 149.776 624.516 149.776C625.132 149.776 625.674 149.935 626.14 150.252C626.616 150.56 626.985 150.989 627.246 151.54C627.517 152.091 627.652 152.735 627.652 153.472C627.652 154.209 627.517 154.853 627.246 155.404C626.985 155.945 626.621 156.365 626.154 156.664C625.688 156.953 625.142 157.098 624.516 157.098C623.891 157.098 623.354 156.944 622.906 156.636C622.458 156.319 622.155 155.875 621.996 155.306L622.164 155.152V160.024H620.89ZM624.25 156.062C624.913 156.062 625.426 155.838 625.79 155.39C626.154 154.942 626.336 154.303 626.336 153.472C626.336 152.641 626.154 151.993 625.79 151.526C625.426 151.059 624.913 150.826 624.25 150.826C623.578 150.826 623.06 151.055 622.696 151.512C622.332 151.96 622.15 152.604 622.15 153.444C622.15 154.284 622.332 154.933 622.696 155.39C623.06 155.838 623.578 156.062 624.25 156.062ZM635.667 157H634.407V155.138L634.575 155.306C634.417 155.875 634.113 156.319 633.665 156.636C633.217 156.944 632.676 157.098 632.041 157.098C631.435 157.098 630.893 156.949 630.417 156.65C629.951 156.342 629.582 155.913 629.311 155.362C629.05 154.802 628.919 154.153 628.919 153.416C628.919 152.679 629.05 152.039 629.311 151.498C629.573 150.947 629.937 150.523 630.403 150.224C630.879 149.925 631.425 149.776 632.041 149.776C632.676 149.776 633.217 149.935 633.665 150.252C634.113 150.569 634.417 151.008 634.575 151.568L634.393 151.736V146.696H635.667V157ZM632.321 156.062C632.984 156.062 633.497 155.838 633.861 155.39C634.225 154.933 634.407 154.284 634.407 153.444C634.407 152.613 634.225 151.969 633.861 151.512C633.507 151.055 632.993 150.826 632.321 150.826C631.659 150.826 631.141 151.055 630.767 151.512C630.394 151.96 630.207 152.595 630.207 153.416C630.207 154.256 630.394 154.909 630.767 155.376C631.141 155.833 631.659 156.062 632.321 156.062ZM640.491 157.098C639.875 157.098 639.329 156.953 638.853 156.664C638.386 156.365 638.022 155.945 637.761 155.404C637.499 154.853 637.369 154.209 637.369 153.472C637.369 152.735 637.499 152.091 637.761 151.54C638.031 150.989 638.4 150.56 638.867 150.252C639.343 149.935 639.884 149.776 640.491 149.776C641.125 149.776 641.667 149.935 642.115 150.252C642.563 150.56 642.866 151.003 643.025 151.582L642.857 151.68V149.958H644.117V157H642.857V155.236L643.025 155.306C642.866 155.875 642.563 156.319 642.115 156.636C641.667 156.944 641.125 157.098 640.491 157.098ZM640.771 156.062C641.443 156.062 641.956 155.838 642.311 155.39C642.675 154.933 642.857 154.284 642.857 153.444C642.857 152.604 642.675 151.96 642.311 151.512C641.947 151.055 641.433 150.826 640.771 150.826C640.108 150.826 639.59 151.059 639.217 151.526C638.843 151.993 638.657 152.641 638.657 153.472C638.657 154.303 638.843 154.942 639.217 155.39C639.59 155.838 640.108 156.062 640.771 156.062ZM645.272 150.938V149.958H649.892V150.938H645.272ZM649.864 155.894V156.958C649.705 157.005 649.542 157.037 649.374 157.056C649.215 157.084 649.042 157.098 648.856 157.098C648.165 157.098 647.619 156.902 647.218 156.51C646.826 156.118 646.63 155.539 646.63 154.774V148.166L647.904 147.718V154.634C647.904 154.998 647.955 155.283 648.058 155.488C648.17 155.684 648.314 155.824 648.492 155.908C648.678 155.983 648.888 156.02 649.122 156.02C649.252 156.02 649.374 156.011 649.486 155.992C649.598 155.973 649.724 155.941 649.864 155.894ZM657.066 156.174C656.758 156.463 656.361 156.692 655.876 156.86C655.39 157.019 654.896 157.098 654.392 157.098C653.654 157.098 653.02 156.953 652.488 156.664C651.956 156.375 651.545 155.959 651.256 155.418C650.966 154.867 650.822 154.214 650.822 153.458C650.822 152.73 650.962 152.091 651.242 151.54C651.531 150.989 651.928 150.56 652.432 150.252C652.936 149.935 653.514 149.776 654.168 149.776C654.802 149.776 655.344 149.916 655.792 150.196C656.249 150.476 656.594 150.877 656.828 151.4C657.07 151.913 657.192 152.529 657.192 153.248V153.472H651.942V152.688H656.464L656.072 153.192C656.09 152.399 655.936 151.792 655.61 151.372C655.283 150.952 654.807 150.742 654.182 150.742C653.528 150.742 653.015 150.975 652.642 151.442C652.278 151.899 652.096 152.543 652.096 153.374C652.096 154.27 652.292 154.947 652.684 155.404C653.076 155.852 653.654 156.076 654.42 156.076C654.83 156.076 655.222 156.011 655.596 155.88C655.969 155.74 656.324 155.535 656.66 155.264L657.066 156.174ZM665.199 157H663.939V155.138L664.107 155.306C663.948 155.875 663.645 156.319 663.197 156.636C662.749 156.944 662.207 157.098 661.573 157.098C660.966 157.098 660.425 156.949 659.949 156.65C659.482 156.342 659.113 155.913 658.843 155.362C658.581 154.802 658.451 154.153 658.451 153.416C658.451 152.679 658.581 152.039 658.843 151.498C659.104 150.947 659.468 150.523 659.935 150.224C660.411 149.925 660.957 149.776 661.573 149.776C662.207 149.776 662.749 149.935 663.197 150.252C663.645 150.569 663.948 151.008 664.107 151.568L663.925 151.736V146.696H665.199V157ZM661.853 156.062C662.515 156.062 663.029 155.838 663.393 155.39C663.757 154.933 663.939 154.284 663.939 153.444C663.939 152.613 663.757 151.969 663.393 151.512C663.038 151.055 662.525 150.826 661.853 150.826C661.19 150.826 660.672 151.055 660.299 151.512C659.925 151.96 659.739 152.595 659.739 153.416C659.739 154.256 659.925 154.909 660.299 155.376C660.672 155.833 661.19 156.062 661.853 156.062ZM673.881 156.412V147.858L674.595 148.152L671.837 149.888V148.67L674.441 147.032H675.183V156.412H673.881ZM671.683 157V155.922H677.381V157H671.683ZM682.542 157.112C681.394 157.112 680.521 156.683 679.924 155.824C679.326 154.956 679.028 153.687 679.028 152.016C679.028 150.345 679.322 149.081 679.91 148.222C680.507 147.354 681.384 146.92 682.542 146.92C683.699 146.92 684.572 147.354 685.16 148.222C685.757 149.081 686.056 150.341 686.056 152.002C686.056 153.673 685.757 154.942 685.16 155.81C684.562 156.678 683.69 157.112 682.542 157.112ZM682.542 156.048C683.298 156.048 683.853 155.721 684.208 155.068C684.572 154.415 684.754 153.393 684.754 152.002C684.754 150.611 684.572 149.599 684.208 148.964C683.853 148.32 683.298 147.998 682.542 147.998C681.786 147.998 681.226 148.32 680.862 148.964C680.507 149.608 680.33 150.621 680.33 152.002C680.33 153.393 680.507 154.415 680.862 155.068C681.226 155.721 681.786 156.048 682.542 156.048ZM697.82 157H696.56V155.138L696.728 155.306C696.569 155.875 696.266 156.319 695.818 156.636C695.37 156.944 694.828 157.098 694.194 157.098C693.587 157.098 693.046 156.949 692.57 156.65C692.103 156.342 691.734 155.913 691.464 155.362C691.202 154.802 691.072 154.153 691.072 153.416C691.072 152.679 691.202 152.039 691.464 151.498C691.725 150.947 692.089 150.523 692.556 150.224C693.032 149.925 693.578 149.776 694.194 149.776C694.828 149.776 695.37 149.935 695.818 150.252C696.266 150.569 696.569 151.008 696.728 151.568L696.546 151.736V146.696H697.82V157ZM694.474 156.062C695.136 156.062 695.65 155.838 696.014 155.39C696.378 154.933 696.56 154.284 696.56 153.444C696.56 152.613 696.378 151.969 696.014 151.512C695.659 151.055 695.146 150.826 694.474 150.826C693.811 150.826 693.293 151.055 692.92 151.512C692.546 151.96 692.36 152.595 692.36 153.416C692.36 154.256 692.546 154.909 692.92 155.376C693.293 155.833 693.811 156.062 694.474 156.062ZM702.643 157.098C702.027 157.098 701.481 156.953 701.005 156.664C700.538 156.365 700.174 155.945 699.913 155.404C699.652 154.853 699.521 154.209 699.521 153.472C699.521 152.735 699.652 152.091 699.913 151.54C700.184 150.989 700.552 150.56 701.019 150.252C701.495 149.935 702.036 149.776 702.643 149.776C703.278 149.776 703.819 149.935 704.267 150.252C704.715 150.56 705.018 151.003 705.177 151.582L705.009 151.68V149.958H706.269V157H705.009V155.236L705.177 155.306C705.018 155.875 704.715 156.319 704.267 156.636C703.819 156.944 703.278 157.098 702.643 157.098ZM702.923 156.062C703.595 156.062 704.108 155.838 704.463 155.39C704.827 154.933 705.009 154.284 705.009 153.444C705.009 152.604 704.827 151.96 704.463 151.512C704.099 151.055 703.586 150.826 702.923 150.826C702.26 150.826 701.742 151.059 701.369 151.526C700.996 151.993 700.809 152.641 700.809 153.472C700.809 154.303 700.996 154.942 701.369 155.39C701.742 155.838 702.26 156.062 702.923 156.062ZM708.082 160.178L707.816 159.198C708.246 159.095 708.605 158.974 708.894 158.834C709.193 158.703 709.44 158.531 709.636 158.316C709.832 158.111 710.005 157.835 710.154 157.49L710.616 156.44L710.91 156.02L713.416 149.958H714.69L711.4 157.602C711.148 158.181 710.859 158.643 710.532 158.988C710.206 159.343 709.837 159.609 709.426 159.786C709.025 159.963 708.577 160.094 708.082 160.178ZM710.63 157.392L707.452 149.958H708.782L711.26 156.02L710.63 157.392ZM718.168 157.098C716.964 157.098 716.007 156.795 715.298 156.188L715.704 155.264C716.077 155.553 716.464 155.768 716.866 155.908C717.276 156.039 717.724 156.104 718.21 156.104C718.714 156.104 719.096 156.02 719.358 155.852C719.628 155.675 719.764 155.423 719.764 155.096C719.764 154.835 719.67 154.629 719.484 154.48C719.306 154.321 719.008 154.191 718.588 154.088L717.412 153.808C716.805 153.677 716.338 153.444 716.012 153.108C715.694 152.772 715.536 152.366 715.536 151.89C715.536 151.479 715.648 151.115 715.872 150.798C716.105 150.481 716.427 150.233 716.838 150.056C717.248 149.869 717.734 149.776 718.294 149.776C718.788 149.776 719.255 149.855 719.694 150.014C720.142 150.173 720.52 150.401 720.828 150.7L720.422 151.61C720.086 151.33 719.74 151.125 719.386 150.994C719.031 150.854 718.662 150.784 718.28 150.784C717.804 150.784 717.43 150.877 717.16 151.064C716.898 151.251 716.768 151.503 716.768 151.82C716.768 152.091 716.852 152.305 717.02 152.464C717.188 152.623 717.454 152.749 717.818 152.842L719.008 153.136C719.68 153.276 720.174 153.509 720.492 153.836C720.809 154.153 720.968 154.564 720.968 155.068C720.968 155.684 720.716 156.179 720.212 156.552C719.708 156.916 719.026 157.098 718.168 157.098ZM729.098 157.098C728.482 157.098 727.936 156.953 727.46 156.664C726.993 156.365 726.629 155.945 726.368 155.404C726.107 154.853 725.976 154.209 725.976 153.472C725.976 152.735 726.107 152.091 726.368 151.54C726.639 150.989 727.007 150.56 727.474 150.252C727.95 149.935 728.491 149.776 729.098 149.776C729.733 149.776 730.274 149.935 730.722 150.252C731.17 150.56 731.473 151.003 731.632 151.582L731.464 151.68V149.958H732.724V157H731.464V155.236L731.632 155.306C731.473 155.875 731.17 156.319 730.722 156.636C730.274 156.944 729.733 157.098 729.098 157.098ZM729.378 156.062C730.05 156.062 730.563 155.838 730.918 155.39C731.282 154.933 731.464 154.284 731.464 153.444C731.464 152.604 731.282 151.96 730.918 151.512C730.554 151.055 730.041 150.826 729.378 150.826C728.715 150.826 728.197 151.059 727.824 151.526C727.451 151.993 727.264 152.641 727.264 153.472C727.264 154.303 727.451 154.942 727.824 155.39C728.197 155.838 728.715 156.062 729.378 156.062ZM737.967 160.122C736.894 160.122 735.961 159.884 735.167 159.408L735.391 158.386C735.83 158.638 736.245 158.82 736.637 158.932C737.039 159.044 737.482 159.1 737.967 159.1C738.63 159.1 739.129 158.923 739.465 158.568C739.811 158.223 739.983 157.705 739.983 157.014V155.138L740.137 154.998C740.025 155.362 739.848 155.679 739.605 155.95C739.372 156.211 739.083 156.417 738.737 156.566C738.401 156.715 738.014 156.79 737.575 156.79C736.959 156.79 736.413 156.645 735.937 156.356C735.461 156.057 735.088 155.647 734.817 155.124C734.556 154.601 734.425 153.99 734.425 153.29C734.425 152.59 734.556 151.979 734.817 151.456C735.088 150.924 735.461 150.513 735.937 150.224C736.413 149.925 736.959 149.776 737.575 149.776C738.219 149.776 738.765 149.935 739.213 150.252C739.671 150.569 739.979 151.008 740.137 151.568L739.969 151.456V149.958H741.243V156.902C741.243 157.975 740.963 158.778 740.403 159.31C739.853 159.851 739.041 160.122 737.967 160.122ZM737.855 155.74C738.518 155.74 739.036 155.525 739.409 155.096C739.783 154.657 739.969 154.055 739.969 153.29C739.969 152.525 739.783 151.923 739.409 151.484C739.036 151.045 738.518 150.826 737.855 150.826C737.193 150.826 736.67 151.045 736.287 151.484C735.905 151.923 735.713 152.525 735.713 153.29C735.713 154.065 735.905 154.667 736.287 155.096C736.67 155.525 737.193 155.74 737.855 155.74ZM746.331 157.098C745.649 157.098 745.052 156.949 744.539 156.65C744.035 156.351 743.643 155.931 743.363 155.39C743.083 154.839 742.943 154.191 742.943 153.444C742.943 152.707 743.083 152.063 743.363 151.512C743.643 150.952 744.035 150.523 744.539 150.224C745.052 149.925 745.649 149.776 746.331 149.776C747.021 149.776 747.619 149.925 748.123 150.224C748.627 150.523 749.019 150.952 749.299 151.512C749.579 152.063 749.719 152.707 749.719 153.444C749.719 154.191 749.579 154.839 749.299 155.39C749.019 155.931 748.627 156.351 748.123 156.65C747.619 156.949 747.021 157.098 746.331 157.098ZM746.331 156.062C747.003 156.062 747.521 155.843 747.885 155.404C748.249 154.956 748.431 154.303 748.431 153.444C748.431 152.595 748.244 151.946 747.871 151.498C747.507 151.05 746.993 150.826 746.331 150.826C745.677 150.826 745.164 151.05 744.791 151.498C744.417 151.946 744.231 152.595 744.231 153.444C744.231 154.303 744.413 154.956 744.777 155.404C745.141 155.843 745.659 156.062 746.331 156.062Z" fill="#969EAC"/>
  <path d="M71.512 156V143.184H73.024L78.064 154.65H77.29L82.276 143.184H83.788V156H82.096V145.758L82.672 145.866L78.28 156H77.02L72.556 145.866L73.168 145.758L73.186 156H71.512ZM90.531 156.126C89.631 156.126 88.845 155.934 88.173 155.55C87.513 155.166 87.003 154.626 86.643 153.93C86.283 153.222 86.103 152.382 86.103 151.41C86.103 150.462 86.283 149.634 86.643 148.926C87.003 148.218 87.513 147.672 88.173 147.288C88.845 146.904 89.631 146.712 90.531 146.712C91.419 146.712 92.193 146.904 92.853 147.288C93.525 147.672 94.041 148.218 94.401 148.926C94.773 149.634 94.959 150.462 94.959 151.41C94.959 152.382 94.773 153.222 94.401 153.93C94.041 154.626 93.525 155.166 92.853 155.55C92.193 155.934 91.419 156.126 90.531 156.126ZM90.531 154.686C91.347 154.686 91.977 154.41 92.421 153.858C92.877 153.306 93.105 152.49 93.105 151.41C93.105 150.366 92.877 149.568 92.421 149.016C91.977 148.452 91.347 148.17 90.531 148.17C89.715 148.17 89.073 148.452 88.605 149.016C88.149 149.568 87.921 150.366 87.921 151.41C87.921 152.49 88.143 153.306 88.587 153.858C89.043 154.41 89.691 154.686 90.531 154.686ZM97.066 156V149.484C97.066 149.064 97.054 148.638 97.03 148.206C97.018 147.774 96.982 147.348 96.922 146.928H98.65L98.812 148.764L98.632 148.872C98.896 148.164 99.316 147.63 99.892 147.27C100.48 146.898 101.152 146.712 101.908 146.712C104.08 146.712 105.166 147.93 105.166 150.366V156H103.348V150.438C103.348 149.658 103.192 149.088 102.88 148.728C102.568 148.368 102.088 148.188 101.44 148.188C100.66 148.188 100.036 148.428 99.568 148.908C99.112 149.388 98.884 150.03 98.884 150.834V156H97.066ZM115.332 154.956C114.924 155.316 114.408 155.604 113.784 155.82C113.16 156.024 112.524 156.126 111.876 156.126C110.916 156.126 110.088 155.94 109.392 155.568C108.696 155.196 108.162 154.656 107.79 153.948C107.418 153.24 107.232 152.4 107.232 151.428C107.232 150.492 107.412 149.67 107.772 148.962C108.144 148.254 108.654 147.702 109.302 147.306C109.95 146.91 110.7 146.712 111.552 146.712C112.368 146.712 113.07 146.892 113.658 147.252C114.246 147.612 114.696 148.128 115.008 148.8C115.332 149.46 115.494 150.258 115.494 151.194V151.5H108.816L108.834 150.42H114.432L113.91 151.068C113.922 150.096 113.73 149.352 113.334 148.836C112.938 148.32 112.356 148.062 111.588 148.062C110.784 148.062 110.154 148.35 109.698 148.926C109.242 149.49 109.014 150.282 109.014 151.302C109.014 152.442 109.26 153.294 109.752 153.858C110.244 154.41 110.964 154.686 111.912 154.686C112.428 154.686 112.926 154.602 113.406 154.434C113.886 154.266 114.342 154.008 114.774 153.66L115.332 154.956ZM117.115 160.086L116.719 158.682C117.271 158.562 117.733 158.412 118.105 158.232C118.489 158.064 118.807 157.848 119.059 157.584C119.311 157.32 119.527 156.978 119.707 156.558L120.319 155.154L120.751 154.524L123.883 146.928H125.701L121.471 156.72C121.135 157.488 120.751 158.094 120.319 158.538C119.899 158.994 119.419 159.342 118.879 159.582C118.339 159.822 117.751 159.99 117.115 160.086ZM120.355 156.522L116.233 146.928H118.123L121.219 154.524L120.355 156.522ZM132.104 156V143.184H133.616L138.656 154.65H137.882L142.868 143.184H144.38V156H142.688V145.758L143.264 145.866L138.872 156H137.612L133.148 145.866L133.76 145.758L133.778 156H132.104ZM147.199 156V146.928H149.017V156H147.199ZM147.073 142.968H149.179V144.876H147.073V142.968ZM151.664 156V149.484C151.664 149.064 151.652 148.638 151.628 148.206C151.616 147.774 151.58 147.348 151.52 146.928H153.248L153.41 148.764L153.23 148.872C153.494 148.164 153.914 147.63 154.49 147.27C155.078 146.898 155.75 146.712 156.506 146.712C158.678 146.712 159.764 147.93 159.764 150.366V156H157.946V150.438C157.946 149.658 157.79 149.088 157.478 148.728C157.166 148.368 156.686 148.188 156.038 148.188C155.258 148.188 154.634 148.428 154.166 148.908C153.71 149.388 153.482 150.03 153.482 150.834V156H151.664ZM168.562 156L165.88 152.652L164.836 151.32L161.272 146.928H163.45L165.88 150.024L166.96 151.32L170.722 156H168.562ZM163.234 156H161.056L164.836 151.32L165.88 150.024L168.328 146.928H170.524L166.96 151.32L165.88 152.652L163.234 156ZM177.069 156V143.184H178.581L183.621 154.65H182.847L187.833 143.184H189.345V156H187.653V145.758L188.229 145.866L183.837 156H182.577L178.113 145.866L178.725 145.758L178.743 156H177.069ZM195.674 156.126C194.87 156.126 194.162 155.94 193.55 155.568C192.95 155.184 192.482 154.644 192.146 153.948C191.822 153.24 191.66 152.412 191.66 151.464C191.66 150.516 191.828 149.688 192.164 148.98C192.5 148.26 192.968 147.702 193.568 147.306C194.18 146.91 194.882 146.712 195.674 146.712C196.478 146.712 197.162 146.91 197.726 147.306C198.302 147.69 198.692 148.242 198.896 148.962L198.68 149.106V146.928H200.48V156H198.68V153.786L198.896 153.876C198.692 154.596 198.302 155.154 197.726 155.55C197.162 155.934 196.478 156.126 195.674 156.126ZM196.106 154.686C196.922 154.686 197.552 154.404 197.996 153.84C198.452 153.276 198.68 152.472 198.68 151.428C198.68 150.384 198.452 149.58 197.996 149.016C197.552 148.452 196.922 148.17 196.106 148.17C195.278 148.17 194.63 148.464 194.162 149.052C193.706 149.628 193.478 150.432 193.478 151.464C193.478 152.496 193.706 153.294 194.162 153.858C194.63 154.41 195.278 154.686 196.106 154.686ZM203.132 156V149.484C203.132 149.064 203.12 148.638 203.096 148.206C203.084 147.774 203.048 147.348 202.988 146.928H204.716L204.878 148.764L204.698 148.872C204.962 148.164 205.382 147.63 205.958 147.27C206.546 146.898 207.218 146.712 207.974 146.712C210.146 146.712 211.232 147.93 211.232 150.366V156H209.414V150.438C209.414 149.658 209.258 149.088 208.946 148.728C208.634 148.368 208.154 148.188 207.506 148.188C206.726 148.188 206.102 148.428 205.634 148.908C205.178 149.388 204.95 150.03 204.95 150.834V156H203.132ZM217.042 156.126C215.95 156.126 215.128 155.826 214.576 155.226C214.024 154.614 213.748 153.702 213.748 152.49V146.928H215.566V152.472C215.566 153.216 215.716 153.768 216.016 154.128C216.328 154.476 216.802 154.65 217.438 154.65C218.17 154.65 218.758 154.41 219.202 153.93C219.658 153.45 219.886 152.814 219.886 152.022V146.928H221.704V156H219.94V154.074L220.156 154.002C219.904 154.698 219.502 155.226 218.95 155.586C218.398 155.946 217.762 156.126 217.042 156.126ZM227.842 156.126C227.038 156.126 226.33 155.94 225.718 155.568C225.118 155.184 224.65 154.644 224.314 153.948C223.99 153.24 223.828 152.412 223.828 151.464C223.828 150.516 223.996 149.688 224.332 148.98C224.668 148.26 225.136 147.702 225.736 147.306C226.348 146.91 227.05 146.712 227.842 146.712C228.646 146.712 229.33 146.91 229.894 147.306C230.47 147.69 230.86 148.242 231.064 148.962L230.848 149.106V146.928H232.648V156H230.848V153.786L231.064 153.876C230.86 154.596 230.47 155.154 229.894 155.55C229.33 155.934 228.646 156.126 227.842 156.126ZM228.274 154.686C229.09 154.686 229.72 154.404 230.164 153.84C230.62 153.276 230.848 152.472 230.848 151.428C230.848 150.384 230.62 149.58 230.164 149.016C229.72 148.452 229.09 148.17 228.274 148.17C227.446 148.17 226.798 148.464 226.33 149.052C225.874 149.628 225.646 150.432 225.646 151.464C225.646 152.496 225.874 153.294 226.33 153.858C226.798 154.41 227.446 154.686 228.274 154.686ZM235.3 156V142.752H237.118V156H235.3ZM245.32 156H243.43L249.136 143.184H250.702L256.408 156H254.536L249.658 144.588H250.234L245.32 156ZM245.896 152.832L246.58 151.356H253.222L253.888 152.832H245.896ZM261.848 156.126C260.936 156.126 260.144 155.934 259.472 155.55C258.812 155.166 258.302 154.626 257.942 153.93C257.582 153.234 257.402 152.412 257.402 151.464C257.402 150.516 257.588 149.688 257.96 148.98C258.332 148.26 258.854 147.702 259.526 147.306C260.21 146.91 261.014 146.712 261.938 146.712C262.562 146.712 263.168 146.814 263.756 147.018C264.344 147.222 264.824 147.51 265.196 147.882L264.638 149.196C264.218 148.86 263.792 148.608 263.36 148.44C262.94 148.272 262.508 148.188 262.064 148.188C261.2 148.188 260.516 148.47 260.012 149.034C259.52 149.598 259.274 150.402 259.274 151.446C259.274 152.49 259.52 153.288 260.012 153.84C260.504 154.392 261.188 154.668 262.064 154.668C262.496 154.668 262.928 154.584 263.36 154.416C263.792 154.248 264.218 153.996 264.638 153.66L265.196 154.974C264.812 155.334 264.32 155.616 263.72 155.82C263.12 156.024 262.496 156.126 261.848 156.126ZM270.83 156.126C269.918 156.126 269.126 155.934 268.454 155.55C267.794 155.166 267.284 154.626 266.924 153.93C266.564 153.234 266.384 152.412 266.384 151.464C266.384 150.516 266.57 149.688 266.942 148.98C267.314 148.26 267.836 147.702 268.508 147.306C269.192 146.91 269.996 146.712 270.92 146.712C271.544 146.712 272.15 146.814 272.738 147.018C273.326 147.222 273.806 147.51 274.178 147.882L273.62 149.196C273.2 148.86 272.774 148.608 272.342 148.44C271.922 148.272 271.49 148.188 271.046 148.188C270.182 148.188 269.498 148.47 268.994 149.034C268.502 149.598 268.256 150.402 268.256 151.446C268.256 152.49 268.502 153.288 268.994 153.84C269.486 154.392 270.17 154.668 271.046 154.668C271.478 154.668 271.91 154.584 272.342 154.416C272.774 154.248 273.2 153.996 273.62 153.66L274.178 154.974C273.794 155.334 273.302 155.616 272.702 155.82C272.102 156.024 271.478 156.126 270.83 156.126ZM279.795 156.126C278.895 156.126 278.109 155.934 277.437 155.55C276.777 155.166 276.267 154.626 275.907 153.93C275.547 153.222 275.367 152.382 275.367 151.41C275.367 150.462 275.547 149.634 275.907 148.926C276.267 148.218 276.777 147.672 277.437 147.288C278.109 146.904 278.895 146.712 279.795 146.712C280.683 146.712 281.457 146.904 282.117 147.288C282.789 147.672 283.305 148.218 283.665 148.926C284.037 149.634 284.223 150.462 284.223 151.41C284.223 152.382 284.037 153.222 283.665 153.93C283.305 154.626 282.789 155.166 282.117 155.55C281.457 155.934 280.683 156.126 279.795 156.126ZM279.795 154.686C280.611 154.686 281.241 154.41 281.685 153.858C282.141 153.306 282.369 152.49 282.369 151.41C282.369 150.366 282.141 149.568 281.685 149.016C281.241 148.452 280.611 148.17 279.795 148.17C278.979 148.17 278.337 148.452 277.869 149.016C277.413 149.568 277.185 150.366 277.185 151.41C277.185 152.49 277.407 153.306 277.851 153.858C278.307 154.41 278.955 154.686 279.795 154.686ZM289.57 156.126C288.478 156.126 287.656 155.826 287.104 155.226C286.552 154.614 286.276 153.702 286.276 152.49V146.928H288.094V152.472C288.094 153.216 288.244 153.768 288.544 154.128C288.856 154.476 289.33 154.65 289.966 154.65C290.698 154.65 291.286 154.41 291.73 153.93C292.186 153.45 292.414 152.814 292.414 152.022V146.928H294.232V156H292.468V154.074L292.684 154.002C292.432 154.698 292.03 155.226 291.478 155.586C290.926 155.946 290.29 156.126 289.57 156.126ZM296.859 156V149.484C296.859 149.064 296.847 148.638 296.823 148.206C296.811 147.774 296.775 147.348 296.715 146.928H298.443L298.605 148.764L298.425 148.872C298.689 148.164 299.109 147.63 299.685 147.27C300.273 146.898 300.945 146.712 301.701 146.712C303.873 146.712 304.959 147.93 304.959 150.366V156H303.141V150.438C303.141 149.658 302.985 149.088 302.673 148.728C302.361 148.368 301.881 148.188 301.233 148.188C300.453 148.188 299.829 148.428 299.361 148.908C298.905 149.388 298.677 150.03 298.677 150.834V156H296.859ZM306.323 148.332V146.928H312.407V148.332H306.323ZM312.389 154.452V155.928C312.173 156 311.957 156.048 311.741 156.072C311.525 156.108 311.291 156.126 311.039 156.126C310.115 156.126 309.389 155.868 308.861 155.352C308.345 154.824 308.087 154.05 308.087 153.03V144.66L309.905 144.03V152.886C309.905 153.33 309.971 153.678 310.103 153.93C310.235 154.17 310.415 154.344 310.643 154.452C310.883 154.548 311.147 154.596 311.435 154.596C311.603 154.596 311.759 154.584 311.903 154.56C312.047 154.536 312.209 154.5 312.389 154.452ZM317.254 156.126C315.67 156.126 314.416 155.742 313.492 154.974L314.05 153.66C314.53 154.032 315.034 154.308 315.562 154.488C316.102 154.656 316.684 154.74 317.308 154.74C317.932 154.74 318.406 154.638 318.73 154.434C319.054 154.218 319.216 153.918 319.216 153.534C319.216 153.21 319.102 152.958 318.874 152.778C318.658 152.586 318.286 152.424 317.758 152.292L316.228 151.932C315.436 151.764 314.83 151.47 314.41 151.05C314.002 150.618 313.798 150.084 313.798 149.448C313.798 148.908 313.948 148.434 314.248 148.026C314.548 147.618 314.968 147.3 315.508 147.072C316.048 146.832 316.678 146.712 317.398 146.712C318.046 146.712 318.658 146.814 319.234 147.018C319.81 147.21 320.308 147.498 320.728 147.882L320.17 149.16C319.726 148.812 319.27 148.554 318.802 148.386C318.346 148.206 317.878 148.116 317.398 148.116C316.81 148.116 316.354 148.23 316.03 148.458C315.706 148.674 315.544 148.98 315.544 149.376C315.544 149.7 315.64 149.958 315.832 150.15C316.036 150.33 316.372 150.474 316.84 150.582L318.37 150.96C319.246 151.152 319.888 151.458 320.296 151.878C320.704 152.298 320.908 152.838 320.908 153.498C320.908 154.302 320.578 154.944 319.918 155.424C319.27 155.892 318.382 156.126 317.254 156.126Z" fill="#434A55"/>
  <g filter="url(#filter2_di)">
    <rect x="50" y="6" width="797" height="96" rx="6" fill="white"/>
  </g>
  <rect x="607.75" y="30.75" width="198.5" height="46.5" rx="3.25" stroke="#534CEA" stroke-width="1.5"/>
  <path d="M671.888 55.662H667.016L666.008 58H664.188L668.696 48.032H670.166L674.688 58H672.882L671.888 55.662ZM671.286 54.262L669.452 49.992L667.618 54.262H671.286ZM682.401 47.696V58H680.68V56.866C680.465 57.258 680.157 57.566 679.756 57.79C679.354 58.0047 678.897 58.112 678.383 58.112C677.777 58.112 677.236 57.958 676.76 57.65C676.284 57.342 675.91 56.908 675.64 56.348C675.378 55.7787 675.248 55.13 675.248 54.402C675.248 53.674 675.378 53.0347 675.64 52.484C675.901 51.9333 676.27 51.5087 676.745 51.21C677.222 50.902 677.768 50.748 678.383 50.748C678.888 50.748 679.336 50.8553 679.728 51.07C680.129 51.2753 680.437 51.5693 680.652 51.952V47.696H682.401ZM678.846 56.74C679.424 56.74 679.872 56.5393 680.19 56.138C680.516 55.7367 680.68 55.1673 680.68 54.43C680.68 53.6927 680.521 53.1233 680.204 52.722C679.886 52.3207 679.438 52.12 678.86 52.12C678.272 52.12 677.814 52.3207 677.488 52.722C677.17 53.114 677.012 53.674 677.012 54.402C677.012 55.1393 677.17 55.7133 677.488 56.124C677.814 56.5347 678.267 56.74 678.846 56.74ZM691.069 47.696V58H689.347V56.866C689.133 57.258 688.825 57.566 688.423 57.79C688.022 58.0047 687.565 58.112 687.051 58.112C686.445 58.112 685.903 57.958 685.427 57.65C684.951 57.342 684.578 56.908 684.307 56.348C684.046 55.7787 683.915 55.13 683.915 54.402C683.915 53.674 684.046 53.0347 684.307 52.484C684.569 51.9333 684.937 51.5087 685.413 51.21C685.889 50.902 686.435 50.748 687.051 50.748C687.555 50.748 688.003 50.8553 688.395 51.07C688.797 51.2753 689.105 51.5693 689.319 51.952V47.696H691.069ZM687.513 56.74C688.092 56.74 688.54 56.5393 688.857 56.138C689.184 55.7367 689.347 55.1673 689.347 54.43C689.347 53.6927 689.189 53.1233 688.871 52.722C688.554 52.3207 688.106 52.12 687.527 52.12C686.939 52.12 686.482 52.3207 686.155 52.722C685.838 53.114 685.679 53.674 685.679 54.402C685.679 55.1393 685.838 55.7133 686.155 56.124C686.482 56.5347 686.935 56.74 687.513 56.74ZM703.565 55.662H698.693L697.685 58H695.865L700.373 48.032H701.843L706.365 58H704.559L703.565 55.662ZM702.963 54.262L701.129 49.992L699.295 54.262H702.963ZM710.523 58.112C709.786 58.112 709.147 57.9627 708.605 57.664C708.064 57.3653 707.649 56.9453 707.359 56.404C707.07 55.8533 706.925 55.2093 706.925 54.472C706.925 53.7347 707.075 53.086 707.373 52.526C707.681 51.966 708.111 51.532 708.661 51.224C709.221 50.9067 709.865 50.748 710.593 50.748C711.097 50.748 711.583 50.8273 712.049 50.986C712.525 51.1447 712.903 51.364 713.183 51.644L712.693 52.876C712.395 52.6333 712.077 52.4513 711.741 52.33C711.405 52.1993 711.074 52.134 710.747 52.134C710.113 52.134 709.618 52.3347 709.263 52.736C708.909 53.128 708.731 53.6973 708.731 54.444C708.731 55.1907 708.904 55.76 709.249 56.152C709.604 56.544 710.103 56.74 710.747 56.74C711.074 56.74 711.405 56.6747 711.741 56.544C712.077 56.4133 712.395 56.2267 712.693 55.984L713.183 57.216C712.885 57.496 712.497 57.7153 712.021 57.874C711.545 58.0327 711.046 58.112 710.523 58.112ZM717.564 58.112C716.827 58.112 716.188 57.9627 715.646 57.664C715.105 57.3653 714.69 56.9453 714.4 56.404C714.111 55.8533 713.966 55.2093 713.966 54.472C713.966 53.7347 714.116 53.086 714.414 52.526C714.722 51.966 715.152 51.532 715.702 51.224C716.262 50.9067 716.906 50.748 717.634 50.748C718.138 50.748 718.624 50.8273 719.09 50.986C719.566 51.1447 719.944 51.364 720.224 51.644L719.734 52.876C719.436 52.6333 719.118 52.4513 718.782 52.33C718.446 52.1993 718.115 52.134 717.788 52.134C717.154 52.134 716.659 52.3347 716.304 52.736C715.95 53.128 715.772 53.6973 715.772 54.444C715.772 55.1907 715.945 55.76 716.29 56.152C716.645 56.544 717.144 56.74 717.788 56.74C718.115 56.74 718.446 56.6747 718.782 56.544C719.118 56.4133 719.436 56.2267 719.734 55.984L720.224 57.216C719.926 57.496 719.538 57.7153 719.062 57.874C718.586 58.0327 718.087 58.112 717.564 58.112ZM724.605 58.112C723.887 58.112 723.252 57.9627 722.701 57.664C722.16 57.3653 721.74 56.9407 721.441 56.39C721.152 55.83 721.007 55.1767 721.007 54.43C721.007 53.6833 721.152 53.0347 721.441 52.484C721.74 51.924 722.16 51.4947 722.701 51.196C723.252 50.8973 723.887 50.748 724.605 50.748C725.315 50.748 725.94 50.8973 726.481 51.196C727.023 51.4947 727.438 51.924 727.727 52.484C728.026 53.0347 728.175 53.6833 728.175 54.43C728.175 55.1767 728.026 55.83 727.727 56.39C727.438 56.9407 727.023 57.3653 726.481 57.664C725.94 57.9627 725.315 58.112 724.605 58.112ZM724.591 56.74C725.189 56.74 725.641 56.5487 725.949 56.166C726.267 55.774 726.425 55.1953 726.425 54.43C726.425 53.674 726.267 53.1 725.949 52.708C725.632 52.3067 725.184 52.106 724.605 52.106C724.017 52.106 723.565 52.3067 723.247 52.708C722.93 53.1 722.771 53.674 722.771 54.43C722.771 55.1953 722.925 55.774 723.233 56.166C723.551 56.5487 724.003 56.74 724.591 56.74ZM736.124 50.93V58H734.416V56.908C734.192 57.3 733.894 57.5987 733.52 57.804C733.147 58.0093 732.718 58.112 732.232 58.112C730.506 58.112 729.642 57.1413 729.642 55.2V50.93H731.378V55.214C731.378 55.7273 731.481 56.1053 731.686 56.348C731.901 56.5907 732.228 56.712 732.666 56.712C733.18 56.712 733.59 56.544 733.898 56.208C734.206 55.872 734.36 55.424 734.36 54.864V50.93H736.124ZM742.07 50.748C743.76 50.748 744.604 51.7187 744.604 53.66V58H742.854V53.744C742.854 53.184 742.747 52.778 742.532 52.526C742.318 52.2647 741.986 52.134 741.538 52.134C741.006 52.134 740.577 52.3067 740.25 52.652C739.924 52.988 739.76 53.436 739.76 53.996V58H738.024V52.932C738.024 52.1853 737.987 51.518 737.912 50.93H739.55L739.676 52.092C739.919 51.6627 740.246 51.3313 740.656 51.098C741.076 50.8647 741.548 50.748 742.07 50.748ZM748.686 52.246V55.41C748.686 56.2407 749.073 56.656 749.848 56.656C750.062 56.656 750.296 56.6187 750.548 56.544V57.93C750.24 58.042 749.866 58.098 749.428 58.098C748.625 58.098 748.009 57.874 747.58 57.426C747.15 56.978 746.936 56.334 746.936 55.494V52.246H745.578V50.93H746.936V49.208L748.686 48.62V50.93H750.562V52.246H748.686Z" fill="#534CEA"/>
  <path d="M91.68 62V47.76H93.36L98.96 60.5H98.1L103.64 47.76H105.32V62H103.44V50.62L104.08 50.74L99.2 62H97.8L92.84 50.74L93.52 50.62L93.54 62H91.68ZM112.352 62.14C111.459 62.14 110.672 61.9333 109.992 61.52C109.326 61.0933 108.806 60.4933 108.432 59.72C108.072 58.9333 107.892 58.0133 107.892 56.96C107.892 55.9067 108.079 54.9867 108.452 54.2C108.826 53.4 109.346 52.78 110.012 52.34C110.692 51.9 111.472 51.68 112.352 51.68C113.246 51.68 114.006 51.9 114.632 52.34C115.272 52.7667 115.706 53.38 115.932 54.18L115.692 54.34V51.92H117.692V62H115.692V59.54L115.932 59.64C115.706 60.44 115.272 61.06 114.632 61.5C114.006 61.9267 113.246 62.14 112.352 62.14ZM112.832 60.54C113.739 60.54 114.439 60.2267 114.932 59.6C115.439 58.9733 115.692 58.08 115.692 56.92C115.692 55.76 115.439 54.8667 114.932 54.24C114.439 53.6133 113.739 53.3 112.832 53.3C111.912 53.3 111.192 53.6267 110.672 54.28C110.166 54.92 109.912 55.8133 109.912 56.96C109.912 58.1067 110.166 58.9933 110.672 59.62C111.192 60.2333 111.912 60.54 112.832 60.54ZM120.64 62V54.76C120.64 54.2933 120.626 53.82 120.6 53.34C120.586 52.86 120.546 52.3867 120.48 51.92H122.4L122.58 53.96L122.38 54.08C122.673 53.2933 123.14 52.7 123.78 52.3C124.433 51.8867 125.18 51.68 126.02 51.68C128.433 51.68 129.64 53.0333 129.64 55.74V62H127.62V55.82C127.62 54.9533 127.446 54.32 127.1 53.92C126.753 53.52 126.22 53.32 125.5 53.32C124.633 53.32 123.94 53.5867 123.42 54.12C122.913 54.6533 122.66 55.3667 122.66 56.26V62H120.64ZM136.095 62.14C134.882 62.14 133.968 61.8067 133.355 61.14C132.742 60.46 132.435 59.4467 132.435 58.1V51.92H134.455V58.08C134.455 58.9067 134.622 59.52 134.955 59.92C135.302 60.3067 135.828 60.5 136.535 60.5C137.348 60.5 138.002 60.2333 138.495 59.7C139.002 59.1667 139.255 58.46 139.255 57.58V51.92H141.275V62H139.315V59.86L139.555 59.78C139.275 60.5533 138.828 61.14 138.215 61.54C137.602 61.94 136.895 62.14 136.095 62.14ZM148.094 62.14C147.201 62.14 146.414 61.9333 145.734 61.52C145.068 61.0933 144.548 60.4933 144.174 59.72C143.814 58.9333 143.634 58.0133 143.634 56.96C143.634 55.9067 143.821 54.9867 144.194 54.2C144.568 53.4 145.088 52.78 145.754 52.34C146.434 51.9 147.214 51.68 148.094 51.68C148.988 51.68 149.748 51.9 150.374 52.34C151.014 52.7667 151.448 53.38 151.674 54.18L151.434 54.34V51.92H153.434V62H151.434V59.54L151.674 59.64C151.448 60.44 151.014 61.06 150.374 61.5C149.748 61.9267 148.988 62.14 148.094 62.14ZM148.574 60.54C149.481 60.54 150.181 60.2267 150.674 59.6C151.181 58.9733 151.434 58.08 151.434 56.92C151.434 55.76 151.181 54.8667 150.674 54.24C150.181 53.6133 149.481 53.3 148.574 53.3C147.654 53.3 146.934 53.6267 146.414 54.28C145.908 54.92 145.654 55.8133 145.654 56.96C145.654 58.1067 145.908 58.9933 146.414 59.62C146.934 60.2333 147.654 60.54 148.574 60.54ZM156.382 62V47.28H158.402V62H156.382ZM167.515 62H165.415L171.755 47.76H173.495L179.835 62H177.755L172.335 49.32H172.975L167.515 62ZM168.155 58.48L168.915 56.84H176.295L177.035 58.48H168.155ZM185.879 62.14C184.866 62.14 183.986 61.9267 183.239 61.5C182.506 61.0733 181.939 60.4733 181.539 59.7C181.139 58.9267 180.939 58.0133 180.939 56.96C180.939 55.9067 181.146 54.9867 181.559 54.2C181.972 53.4 182.552 52.78 183.299 52.34C184.059 51.9 184.952 51.68 185.979 51.68C186.672 51.68 187.346 51.7933 187.999 52.02C188.652 52.2467 189.186 52.5667 189.599 52.98L188.979 54.44C188.512 54.0667 188.039 53.7867 187.559 53.6C187.092 53.4133 186.612 53.32 186.119 53.32C185.159 53.32 184.399 53.6333 183.839 54.26C183.292 54.8867 183.019 55.78 183.019 56.94C183.019 58.1 183.292 58.9867 183.839 59.6C184.386 60.2133 185.146 60.52 186.119 60.52C186.599 60.52 187.079 60.4267 187.559 60.24C188.039 60.0533 188.512 59.7733 188.979 59.4L189.599 60.86C189.172 61.26 188.626 61.5733 187.959 61.8C187.292 62.0267 186.599 62.14 185.879 62.14ZM195.86 62.14C194.846 62.14 193.966 61.9267 193.22 61.5C192.486 61.0733 191.92 60.4733 191.52 59.7C191.12 58.9267 190.92 58.0133 190.92 56.96C190.92 55.9067 191.126 54.9867 191.54 54.2C191.953 53.4 192.533 52.78 193.28 52.34C194.04 51.9 194.933 51.68 195.96 51.68C196.653 51.68 197.326 51.7933 197.98 52.02C198.633 52.2467 199.166 52.5667 199.58 52.98L198.96 54.44C198.493 54.0667 198.02 53.7867 197.54 53.6C197.073 53.4133 196.593 53.32 196.1 53.32C195.14 53.32 194.38 53.6333 193.82 54.26C193.273 54.8867 193 55.78 193 56.94C193 58.1 193.273 58.9867 193.82 59.6C194.366 60.2133 195.126 60.52 196.1 60.52C196.58 60.52 197.06 60.4267 197.54 60.24C198.02 60.0533 198.493 59.7733 198.96 59.4L199.58 60.86C199.153 61.26 198.606 61.5733 197.94 61.8C197.273 62.0267 196.58 62.14 195.86 62.14ZM205.82 62.14C204.82 62.14 203.947 61.9267 203.2 61.5C202.467 61.0733 201.9 60.4733 201.5 59.7C201.1 58.9133 200.9 57.98 200.9 56.9C200.9 55.8467 201.1 54.9267 201.5 54.14C201.9 53.3533 202.467 52.7467 203.2 52.32C203.947 51.8933 204.82 51.68 205.82 51.68C206.807 51.68 207.667 51.8933 208.4 52.32C209.147 52.7467 209.72 53.3533 210.12 54.14C210.533 54.9267 210.74 55.8467 210.74 56.9C210.74 57.98 210.533 58.9133 210.12 59.7C209.72 60.4733 209.147 61.0733 208.4 61.5C207.667 61.9267 206.807 62.14 205.82 62.14ZM205.82 60.54C206.727 60.54 207.427 60.2333 207.92 59.62C208.427 59.0067 208.68 58.1 208.68 56.9C208.68 55.74 208.427 54.8533 207.92 54.24C207.427 53.6133 206.727 53.3 205.82 53.3C204.913 53.3 204.2 53.6133 203.68 54.24C203.173 54.8533 202.92 55.74 202.92 56.9C202.92 58.1 203.167 59.0067 203.66 59.62C204.167 60.2333 204.887 60.54 205.82 60.54ZM216.681 62.14C215.468 62.14 214.554 61.8067 213.941 61.14C213.328 60.46 213.021 59.4467 213.021 58.1V51.92H215.041V58.08C215.041 58.9067 215.208 59.52 215.541 59.92C215.888 60.3067 216.414 60.5 217.121 60.5C217.934 60.5 218.588 60.2333 219.081 59.7C219.588 59.1667 219.841 58.46 219.841 57.58V51.92H221.861V62H219.901V59.86L220.141 59.78C219.861 60.5533 219.414 61.14 218.801 61.54C218.188 61.94 217.481 62.14 216.681 62.14ZM224.78 62V54.76C224.78 54.2933 224.767 53.82 224.74 53.34C224.727 52.86 224.687 52.3867 224.62 51.92H226.54L226.72 53.96L226.52 54.08C226.814 53.2933 227.28 52.7 227.92 52.3C228.574 51.8867 229.32 51.68 230.16 51.68C232.574 51.68 233.78 53.0333 233.78 55.74V62H231.76V55.82C231.76 54.9533 231.587 54.32 231.24 53.92C230.894 53.52 230.36 53.32 229.64 53.32C228.774 53.32 228.08 53.5867 227.56 54.12C227.054 54.6533 226.8 55.3667 226.8 56.26V62H224.78ZM235.296 53.48V51.92H242.056V53.48H235.296ZM242.036 60.28V61.92C241.796 62 241.556 62.0533 241.316 62.08C241.076 62.12 240.816 62.14 240.536 62.14C239.509 62.14 238.702 61.8533 238.116 61.28C237.542 60.6933 237.256 59.8333 237.256 58.7V49.4L239.276 48.7V58.54C239.276 59.0333 239.349 59.42 239.496 59.7C239.642 59.9667 239.842 60.16 240.096 60.28C240.362 60.3867 240.656 60.44 240.976 60.44C241.162 60.44 241.336 60.4267 241.496 60.4C241.656 60.3733 241.836 60.3333 242.036 60.28ZM247.441 62.14C245.681 62.14 244.288 61.7133 243.261 60.86L243.881 59.4C244.415 59.8133 244.975 60.12 245.561 60.32C246.161 60.5067 246.808 60.6 247.501 60.6C248.195 60.6 248.721 60.4867 249.081 60.26C249.441 60.02 249.621 59.6867 249.621 59.26C249.621 58.9 249.495 58.62 249.241 58.42C249.001 58.2067 248.588 58.0267 248.001 57.88L246.301 57.48C245.421 57.2933 244.748 56.9667 244.281 56.5C243.828 56.02 243.601 55.4267 243.601 54.72C243.601 54.12 243.768 53.5933 244.101 53.14C244.435 52.6867 244.901 52.3333 245.501 52.08C246.101 51.8133 246.801 51.68 247.601 51.68C248.321 51.68 249.001 51.7933 249.641 52.02C250.281 52.2333 250.835 52.5533 251.301 52.98L250.681 54.4C250.188 54.0133 249.681 53.7267 249.161 53.54C248.655 53.34 248.135 53.24 247.601 53.24C246.948 53.24 246.441 53.3667 246.081 53.62C245.721 53.86 245.541 54.2 245.541 54.64C245.541 55 245.648 55.2867 245.861 55.5C246.088 55.7 246.461 55.86 246.981 55.98L248.681 56.4C249.655 56.6133 250.368 56.9533 250.821 57.42C251.275 57.8867 251.501 58.4867 251.501 59.22C251.501 60.1133 251.135 60.8267 250.401 61.36C249.681 61.88 248.695 62.14 247.441 62.14ZM262.174 65.64C261.601 64.5867 261.134 63.5667 260.774 62.58C260.428 61.5933 260.174 60.62 260.014 59.66C259.868 58.6867 259.794 57.6933 259.794 56.68C259.794 55.6667 259.874 54.6733 260.034 53.7C260.194 52.7267 260.448 51.7533 260.794 50.78C261.141 49.7933 261.601 48.7867 262.174 47.76H263.834C263.328 48.9733 262.934 50.0867 262.654 51.1C262.374 52.1 262.174 53.06 262.054 53.98C261.934 54.8867 261.874 55.7867 261.874 56.68C261.874 57.5867 261.934 58.4933 262.054 59.4C262.174 60.3067 262.374 61.2667 262.654 62.28C262.934 63.3067 263.321 64.4267 263.814 65.64H262.174ZM269.954 61.06V49.14L271.054 49.54L267.054 52.02V50.12L270.834 47.76H272.034V61.06H269.954ZM266.834 62V60.3H275.154V62H266.834ZM277.686 63.14H275.926L281.086 46.98H282.866L277.686 63.14ZM288.183 62.14C287.249 62.14 286.349 61.9933 285.483 61.7C284.616 61.3933 283.896 60.9733 283.323 60.44L284.063 58.9C284.703 59.42 285.356 59.8133 286.023 60.08C286.689 60.3333 287.389 60.46 288.123 60.46C289.096 60.46 289.823 60.26 290.303 59.86C290.796 59.4467 291.043 58.8267 291.043 58C291.043 57.2 290.789 56.6067 290.283 56.22C289.776 55.82 289.009 55.62 287.983 55.62H286.243V53.94H287.663C288.649 53.94 289.396 53.7333 289.903 53.32C290.423 52.9067 290.683 52.3067 290.683 51.52C290.683 50.8 290.469 50.2467 290.043 49.86C289.616 49.4733 289.009 49.28 288.223 49.28C287.543 49.28 286.869 49.4133 286.203 49.68C285.549 49.9333 284.903 50.32 284.263 50.84L283.523 49.3C284.096 48.78 284.809 48.3667 285.663 48.06C286.529 47.7533 287.416 47.6 288.323 47.6C289.203 47.6 289.976 47.7533 290.643 48.06C291.309 48.3533 291.816 48.78 292.163 49.34C292.523 49.9 292.703 50.5533 292.703 51.3C292.703 52.1667 292.476 52.9067 292.023 53.52C291.569 54.1333 290.943 54.5533 290.143 54.78L290.103 54.58C291.049 54.78 291.776 55.1867 292.283 55.8C292.789 56.4133 293.043 57.1933 293.043 58.14C293.043 59.38 292.603 60.36 291.723 61.08C290.856 61.7867 289.676 62.14 288.183 62.14ZM296.615 65.64H294.995C295.488 64.4267 295.868 63.3067 296.135 62.28C296.415 61.2667 296.615 60.3067 296.735 59.4C296.855 58.4933 296.915 57.5867 296.915 56.68C296.915 55.7867 296.855 54.8867 296.735 53.98C296.628 53.06 296.435 52.1 296.155 51.1C295.875 50.0867 295.482 48.9733 294.975 47.76H296.635C297.475 49.2933 298.075 50.7867 298.435 52.24C298.808 53.6933 298.995 55.1733 298.995 56.68C298.995 57.6933 298.915 58.6867 298.755 59.66C298.608 60.62 298.362 61.5933 298.015 62.58C297.668 63.5667 297.202 64.5867 296.615 65.64Z" fill="black"/>
  <defs>
    <filter id="filter0_di" x="0" y="86" width="857" height="209" filterUnits="userSpaceOnUse" color-interpolation-filters="sRGB">
      <feFlood flood-opacity="0" result="BackgroundImageFix"/>
      <feColorMatrix in="SourceAlpha" type="matrix" values="0 0 0 0 0 0 0 0 0 0 0 0 0 0 0 0 0 0 127 0"/>
      <feOffset dy="2"/>
      <feGaussianBlur stdDeviation="15"/>
      <feColorMatrix type="matrix" values="0 0 0 0 0.79 0 0 0 0 0.834 0 0 0 0 0.91 0 0 0 1 0"/>
      <feBlend mode="normal" in2="BackgroundImageFix" result="effect1_dropShadow"/>
      <feBlend mode="normal" in="SourceGraphic" in2="effect1_dropShadow" result="shape"/>
      <feColorMatrix in="SourceAlpha" type="matrix" values="0 0 0 0 0 0 0 0 0 0 0 0 0 0 0 0 0 0 127 0" result="hardAlpha"/>
      <feOffset dy="-1"/>
      <feComposite in2="hardAlpha" operator="arithmetic" k2="-1" k3="1"/>
      <feColorMatrix type="matrix" values="0 0 0 0 0.921569 0 0 0 0 0.92549 0 0 0 0 0.945098 0 0 0 1 0"/>
      <feBlend mode="normal" in2="shape" result="effect2_innerShadow"/>
    </filter>
    <filter id="filter1_d" x="131" y="204" width="20" height="20" filterUnits="userSpaceOnUse" color-interpolation-filters="sRGB">
      <feFlood flood-opacity="0" result="BackgroundImageFix"/>
      <feColorMatrix in="SourceAlpha" type="matrix" values="0 0 0 0 0 0 0 0 0 0 0 0 0 0 0 0 0 0 127 0"/>
      <feOffset dy="2"/>
      <feGaussianBlur stdDeviation="1"/>
      <feColorMatrix type="matrix" values="0 0 0 0 0.584314 0 0 0 0 0.619608 0 0 0 0 0.67451 0 0 0 0.2 0"/>
      <feBlend mode="normal" in2="BackgroundImageFix" result="effect1_dropShadow"/>
      <feBlend mode="normal" in="SourceGraphic" in2="effect1_dropShadow" result="shape"/>
    </filter>
    <filter id="filter2_di" x="42" y="0" width="813" height="112" filterUnits="userSpaceOnUse" color-interpolation-filters="sRGB">
      <feFlood flood-opacity="0" result="BackgroundImageFix"/>
      <feColorMatrix in="SourceAlpha" type="matrix" values="0 0 0 0 0 0 0 0 0 0 0 0 0 0 0 0 0 0 127 0"/>
      <feOffset dy="2"/>
      <feGaussianBlur stdDeviation="4"/>
      <feColorMatrix type="matrix" values="0 0 0 0 0.888 0 0 0 0 0.911467 0 0 0 0 0.952 0 0 0 1 0"/>
      <feBlend mode="normal" in2="BackgroundImageFix" result="effect1_dropShadow"/>
      <feBlend mode="normal" in="SourceGraphic" in2="effect1_dropShadow" result="shape"/>
      <feColorMatrix in="SourceAlpha" type="matrix" values="0 0 0 0 0 0 0 0 0 0 0 0 0 0 0 0 0 0 127 0" result="hardAlpha"/>
      <feOffset dy="-1"/>
      <feComposite in2="hardAlpha" operator="arithmetic" k2="-1" k3="1"/>
      <feColorMatrix type="matrix" values="0 0 0 0 0.921569 0 0 0 0 0.92549 0 0 0 0 0.945098 0 0 0 1 0"/>
      <feBlend mode="normal" in2="shape" result="effect2_innerShadow"/>
    </filter>
  </defs>
</svg>
